G04*
G04 #@! TF.GenerationSoftware,Altium Limited,Altium Designer,20.0.11 (256)*
G04*
G04 Layer_Physical_Order=1*
G04 Layer_Color=255*
%FSLAX25Y25*%
%MOIN*%
G70*
G01*
G75*
%ADD10R,0.07165X0.02441*%
%ADD11R,0.07087X0.04724*%
%ADD12R,0.04724X0.07087*%
%ADD13C,0.00787*%
%ADD14C,0.04724*%
%ADD15C,0.05512*%
%ADD16R,0.05512X0.05512*%
%ADD17R,0.06496X0.06496*%
%ADD18C,0.06496*%
%ADD19C,0.03937*%
%ADD20C,0.04724*%
%ADD21R,0.04724X0.04724*%
%ADD22R,0.04724X0.04724*%
%ADD23R,0.04528X0.04528*%
%ADD24C,0.04528*%
%ADD25C,0.04563*%
%ADD26R,0.04563X0.04563*%
%ADD27R,0.05512X0.05512*%
G36*
X176772Y453003D02*
X158268D01*
Y464336D01*
X176772D01*
Y453003D01*
D02*
G37*
G36*
X235827Y428346D02*
X214567D01*
Y446850D01*
X235827D01*
Y428346D01*
D02*
G37*
G36*
X176772Y417034D02*
X158268D01*
Y428115D01*
X176772D01*
Y417034D01*
D02*
G37*
G36*
Y381066D02*
X173389D01*
X172668Y381137D01*
X158268D01*
Y392661D01*
X176772D01*
Y381066D01*
D02*
G37*
G36*
X235827Y356496D02*
X214567D01*
Y375000D01*
X235827D01*
Y356496D01*
D02*
G37*
G36*
X374803Y349247D02*
X363976D01*
Y368898D01*
X374803D01*
Y349247D01*
D02*
G37*
G36*
X358563D02*
X347736D01*
Y365318D01*
X350494Y368076D01*
X358563D01*
Y349247D01*
D02*
G37*
G36*
X176737Y345097D02*
X158268D01*
Y356693D01*
X176737D01*
Y345097D01*
D02*
G37*
G36*
X115250Y351684D02*
X116481Y351026D01*
X116886Y350904D01*
X117817Y350621D01*
X119206Y350484D01*
X119206Y350484D01*
X123346D01*
Y329531D01*
X104842D01*
Y350635D01*
X109055D01*
X110444Y350772D01*
X111780Y351177D01*
X113011Y351835D01*
X113174Y351969D01*
X114903D01*
X115250Y351684D01*
D02*
G37*
G36*
X176737Y309129D02*
X174039D01*
X173971Y309149D01*
X172582Y309286D01*
X158268D01*
Y320724D01*
X176737D01*
Y309129D01*
D02*
G37*
G36*
X378937Y300394D02*
X368110D01*
Y321654D01*
X378937D01*
Y300394D01*
D02*
G37*
G36*
X362894D02*
X352067D01*
Y321654D01*
X362894D01*
Y300394D01*
D02*
G37*
G36*
X235827Y284646D02*
X214567D01*
Y303150D01*
X235827D01*
Y284646D01*
D02*
G37*
G36*
X176737Y273160D02*
X158268D01*
Y284756D01*
X176737D01*
Y273160D01*
D02*
G37*
G36*
X235827Y201927D02*
X214567D01*
Y220431D01*
X235827D01*
Y201927D01*
D02*
G37*
G36*
X322244Y201575D02*
X308661D01*
Y222835D01*
X322244D01*
Y201575D01*
D02*
G37*
G36*
X278543D02*
X267717D01*
Y222835D01*
X278543D01*
Y201575D01*
D02*
G37*
G36*
X321946Y158753D02*
X308363D01*
Y180013D01*
X321946D01*
Y158753D01*
D02*
G37*
G36*
X260925Y158661D02*
X250098D01*
Y179921D01*
X260925D01*
Y158661D01*
D02*
G37*
G36*
X235827Y138583D02*
X214567D01*
Y157087D01*
X235827D01*
Y138583D01*
D02*
G37*
D10*
X318898Y328346D02*
D03*
Y340945D02*
D03*
D11*
X357480Y318898D02*
D03*
Y330709D02*
D03*
X232283Y229134D02*
D03*
Y217323D02*
D03*
Y193307D02*
D03*
Y205118D02*
D03*
X412992Y190945D02*
D03*
Y202756D02*
D03*
X147638Y374016D02*
D03*
Y385827D02*
D03*
Y445866D02*
D03*
Y457677D02*
D03*
X148161Y409880D02*
D03*
Y421691D02*
D03*
X232283Y455709D02*
D03*
Y443898D02*
D03*
Y276026D02*
D03*
Y287837D02*
D03*
Y312008D02*
D03*
Y300197D02*
D03*
Y347879D02*
D03*
Y359690D02*
D03*
Y383858D02*
D03*
Y372047D02*
D03*
Y419766D02*
D03*
Y431577D02*
D03*
X412992Y243669D02*
D03*
Y231858D02*
D03*
X373622Y330709D02*
D03*
Y318898D02*
D03*
X147638Y349410D02*
D03*
Y337598D02*
D03*
Y313976D02*
D03*
Y302165D02*
D03*
Y277559D02*
D03*
Y265748D02*
D03*
D12*
X133037Y173884D02*
D03*
X144848D02*
D03*
X299213Y212131D02*
D03*
X311024D02*
D03*
X299213Y169291D02*
D03*
X311024D02*
D03*
X144848Y215067D02*
D03*
X133037D02*
D03*
D13*
X74803Y102362D02*
X468504D01*
Y496063D01*
X74803D02*
X468504D01*
X74803Y102362D02*
Y496063D01*
D14*
X373622Y296114D02*
Y304724D01*
X376390Y293347D02*
X390669D01*
X373622Y296114D02*
X376390Y293347D01*
X400000Y278456D02*
X424125D01*
X367295D02*
X400000D01*
X400669Y279125D02*
Y293347D01*
X400000Y278456D02*
X400669Y279125D01*
X418661Y353228D02*
X430630D01*
X437008Y346850D01*
Y291339D02*
Y346850D01*
X424125Y278456D02*
X437008Y291339D01*
X357087Y305118D02*
X357295Y304909D01*
Y278456D02*
Y304909D01*
X367323Y221654D02*
X386221Y202756D01*
X367295Y248456D02*
X367323Y248428D01*
Y221654D02*
Y248428D01*
X357480Y196850D02*
X378346Y175984D01*
X357295Y248456D02*
X357480Y248271D01*
Y196850D02*
Y248271D01*
X437593Y231856D02*
X437795Y231653D01*
X414175Y231856D02*
X437593D01*
X414173Y231858D02*
X414175Y231856D01*
X412992Y231858D02*
X414173D01*
X400669Y246575D02*
Y263347D01*
X403576Y243669D02*
X412992D01*
X400669Y246575D02*
X403576Y243669D01*
X390669Y223110D02*
Y263347D01*
Y223110D02*
X396850Y216929D01*
X422441D01*
X427165Y221654D01*
X437795D01*
X412992Y190945D02*
X437771D01*
X437795Y190920D01*
X424228Y180921D02*
X437795D01*
X419291Y175984D02*
X424228Y180921D01*
X378346Y175984D02*
X419291D01*
X386221Y202756D02*
X412992D01*
X329291Y334842D02*
X337598D01*
X341732Y330709D01*
X383465D02*
X395984Y343228D01*
X341732Y330709D02*
X383465D01*
X340961Y344843D02*
X343678Y342126D01*
X380315D02*
X391417Y353228D01*
X322874Y344843D02*
X340961D01*
X343678Y342126D02*
X380315D01*
X347544Y375197D02*
X366917D01*
X369685Y354724D02*
Y372429D01*
X366917Y375197D02*
X369685Y372429D01*
X337190Y364843D02*
X347544Y375197D01*
X344024Y385039D02*
X373205D01*
X395016Y363228D02*
X408661D01*
X373205Y385039D02*
X395016Y363228D01*
X237012Y124803D02*
X285665D01*
X299213Y275591D02*
X309460Y285838D01*
X299213Y275591D02*
Y294843D01*
X288583Y264961D02*
X299213Y275591D01*
X309460Y285838D02*
Y318909D01*
X318819Y328346D02*
X318898D01*
X317677Y327205D02*
X318819Y328346D01*
X317677Y327126D02*
Y327205D01*
X309460Y318909D02*
X317677Y327126D01*
X337390Y169251D02*
X340158Y172018D01*
X311024Y255278D02*
X322596Y266850D01*
X340158Y172018D02*
Y312075D01*
X329443Y304842D02*
X330465D01*
Y314843D02*
X337390D01*
X322596Y266850D02*
Y297995D01*
X337390Y314843D02*
X340158Y312075D01*
X322596Y297995D02*
X329443Y304842D01*
X311024Y212131D02*
Y255278D01*
X299213Y304842D02*
Y314843D01*
X311024Y169251D02*
X337390D01*
X330465Y354842D02*
X356299D01*
X330465Y394843D02*
X377992D01*
X399267Y373567D02*
X408322D01*
X377992Y394843D02*
X399267Y373567D01*
X408322D02*
X408661Y373228D01*
X391417Y353228D02*
X408661D01*
X330465Y364843D02*
X337190D01*
X206299Y115354D02*
X290551D01*
X193307Y128347D02*
Y180315D01*
X193352Y221654D02*
Y302165D01*
X333827Y374843D02*
X344024Y385039D01*
X311024Y169251D02*
Y169291D01*
X299213Y136614D02*
Y169291D01*
X298425Y135827D02*
X299213Y136614D01*
Y169291D02*
Y210950D01*
X299213Y210950D01*
Y212131D01*
X272835Y212598D02*
X273228Y212205D01*
Y147638D02*
Y212205D01*
X318898Y340945D02*
X318976D01*
X310902D02*
X318898D01*
X286729Y324843D02*
X299213D01*
X300234D01*
X307047Y337090D02*
X310902Y340945D01*
X307047Y331656D02*
Y337090D01*
X300234Y324843D02*
X307047Y331656D01*
X231496Y124803D02*
X237012D01*
X318976Y340945D02*
X322874Y344843D01*
X325905Y331457D02*
X329291Y334842D01*
X318976Y328346D02*
X322087Y331457D01*
X325905D01*
X273228Y264567D02*
Y311342D01*
X254724Y246063D02*
X273228Y264567D01*
X254724Y195669D02*
Y246063D01*
X193307Y128347D02*
X206299Y115354D01*
X194095Y168886D02*
X211524D01*
X223589Y180951D01*
X240006D01*
X254724Y195669D01*
X245276Y253249D02*
X263779Y271753D01*
X273228Y311342D02*
X286729Y324843D01*
X245276Y199583D02*
Y253249D01*
X221654Y193307D02*
X232283D01*
X263779Y315256D02*
X283096Y334573D01*
X232283Y193307D02*
X239000D01*
X263779Y271753D02*
Y315256D01*
X239000Y193307D02*
X245276Y199583D01*
X288583Y135827D02*
Y264961D01*
X283096Y351600D02*
X286339Y354842D01*
X283096Y334573D02*
Y351600D01*
X286339Y354842D02*
X299213D01*
X273647Y338486D02*
Y361049D01*
X277441Y364843D02*
X299213D01*
X273647Y361049D02*
X277441Y364843D01*
X254750Y346314D02*
Y356648D01*
X253543Y318382D02*
X273647Y338486D01*
X264198Y342400D02*
Y352735D01*
X232283Y323848D02*
X254750Y346314D01*
X244094Y322296D02*
X264198Y342400D01*
X253543Y274879D02*
Y318382D01*
X264198Y352735D02*
Y372075D01*
X232283Y276026D02*
X241327D01*
X232283Y312008D02*
Y323848D01*
X202849Y276026D02*
X232283D01*
X244094Y278793D02*
Y322296D01*
X254750Y356648D02*
Y380734D01*
X241327Y276026D02*
X244094Y278793D01*
X232283Y229134D02*
Y253619D01*
X253543Y274879D01*
X264198Y372075D02*
X266966Y374843D01*
X299213D01*
X245301Y350228D02*
Y387033D01*
X254750Y380734D02*
X258858Y384842D01*
X245301Y387033D02*
X253110Y394843D01*
X236312Y347840D02*
X242913D01*
X245301Y350228D01*
X231102Y312008D02*
X232283D01*
X258858Y384842D02*
X299213D01*
X273228Y147638D02*
X278590Y142277D01*
Y135977D02*
X278740Y135827D01*
X278590Y135977D02*
Y142277D01*
X255512Y149213D02*
Y171260D01*
Y149213D02*
X268898Y135827D01*
X298425Y123228D02*
Y135827D01*
X253110Y394843D02*
X299213D01*
X224803Y131496D02*
X231496Y124803D01*
X224803Y131496D02*
Y153150D01*
X288432Y127571D02*
Y135676D01*
X285665Y124803D02*
X288432Y127571D01*
Y135676D02*
X288583Y135827D01*
X290551Y115354D02*
X298425Y123228D01*
X232283Y419766D02*
X268423D01*
X232283Y455709D02*
X251772D01*
X299213Y294843D02*
Y304842D01*
X193307Y180315D02*
Y184601D01*
X193392Y180400D02*
X202801D01*
X193307Y180315D02*
X193392Y180400D01*
X202801Y190400D02*
X218746D01*
X221654Y193307D01*
X219685Y229134D02*
X232283D01*
X217788Y231031D02*
X219685Y229134D01*
X202801Y231582D02*
X203352Y231031D01*
X217788D01*
X193352Y184601D02*
Y221654D01*
X193423Y221582D02*
X202801D01*
X193352Y221654D02*
X193423Y221582D01*
X144848Y173884D02*
X156955D01*
X163470Y180400D02*
X172801D01*
X156955Y173884D02*
X163470Y180400D01*
X163315Y221582D02*
X172801D01*
X156799Y215067D02*
X163315Y221582D01*
X144848Y215067D02*
X156799D01*
X121548D02*
X133037D01*
X115032Y221582D02*
X121548Y215067D01*
X101461Y221582D02*
X115032D01*
X101461Y180400D02*
X115270D01*
X121785Y173884D01*
X133037D01*
X101461Y190400D02*
X172801D01*
X101461Y190400D02*
X101461Y190400D01*
X101461Y231582D02*
X172801D01*
X101461Y231582D02*
X101461Y231582D01*
X408661Y343228D02*
X418661D01*
X395984D02*
X408661D01*
Y353228D02*
X418661D01*
X330465Y374843D02*
X333827D01*
X377047Y414843D02*
X408661Y383228D01*
X330465Y414843D02*
X377047D01*
X202801Y311946D02*
X202866Y312011D01*
X231099D01*
X231102Y312008D01*
X202801Y455820D02*
X202916Y455705D01*
X229715D02*
X229719Y455709D01*
X232283D01*
X202916Y455705D02*
X229715D01*
X150929Y435236D02*
X180545D01*
X183903Y438594D02*
Y468689D01*
X180545Y435236D02*
X183903Y438594D01*
X148161Y432469D02*
X150929Y435236D01*
X148161Y421691D02*
Y432469D01*
X202836Y347879D02*
X232283D01*
X241063Y404843D02*
X299213D01*
X233465Y383858D02*
Y397244D01*
X241063Y404843D01*
X216964Y383858D02*
X232283D01*
X282638Y424843D02*
X299213D01*
X251772Y455709D02*
X282638Y424843D01*
X268423Y419766D02*
X273346Y414843D01*
X299213D01*
X216994Y419766D02*
X232283D01*
X330465Y424843D02*
X390512D01*
X418661Y396693D01*
Y383228D02*
Y396693D01*
X325984Y435827D02*
X396850D01*
X431102Y375996D02*
Y401575D01*
X396850Y435827D02*
X431102Y401575D01*
X401181Y445669D02*
X440551Y406299D01*
Y368504D02*
Y406299D01*
X435276Y363228D02*
X440551Y368504D01*
X418661Y373228D02*
X428335D01*
X431102Y375996D01*
X322464Y445669D02*
X401181D01*
X321063Y384842D02*
X330465D01*
X310236Y395669D02*
X321063Y384842D01*
X310236Y395669D02*
Y433441D01*
X322464Y445669D01*
X319685Y412259D02*
Y429528D01*
X325984Y435827D01*
X418661Y363228D02*
X435276D01*
X329913Y405394D02*
X330465Y404843D01*
X326551Y405394D02*
X329913D01*
X319685Y412259D02*
X326551Y405394D01*
X114567Y307480D02*
X131496Y290551D01*
X114567Y307480D02*
Y335016D01*
X131496Y290551D02*
X153150D01*
X167723Y275978D02*
X172801D01*
X153150Y290551D02*
X167723Y275978D01*
X96457Y303150D02*
X122047Y277559D01*
X96457Y354988D02*
X99224Y357756D01*
X96457Y303150D02*
Y354988D01*
X99224Y357756D02*
X109055D01*
X87008Y364595D02*
X90169Y367756D01*
X87008Y298819D02*
X131890Y253937D01*
X87008Y298819D02*
Y364595D01*
X90169Y367756D02*
X109055D01*
X147638Y356418D02*
X155393Y364173D01*
X147638Y349410D02*
Y356418D01*
X155393Y364173D02*
X181091D01*
X183858Y256704D02*
Y361406D01*
X181091Y364173D02*
X183858Y361406D01*
X131890Y253937D02*
X181091D01*
X183858Y256704D01*
X147638Y302165D02*
X172582D01*
X172801Y301946D01*
X147638Y374016D02*
X172668D01*
X172801Y373883D01*
X147638Y337598D02*
X172485D01*
X172801Y337915D01*
X148161Y409880D02*
X172772D01*
X172801Y409852D01*
X147638Y445866D02*
X172755D01*
X172801Y445820D01*
X193352Y302165D02*
Y338583D01*
X193571Y301946D02*
X202801D01*
X193352Y302165D02*
X193571Y301946D01*
X193352Y338583D02*
Y374016D01*
X194020Y337915D02*
X202801D01*
X193352Y338583D02*
X194020Y337915D01*
X193352Y374016D02*
Y409449D01*
X193485Y373883D02*
X202801D01*
X193352Y374016D02*
X193485Y373883D01*
X193352Y409449D02*
Y443053D01*
X193755Y409852D02*
X202801D01*
X193352Y409449D02*
X193755Y409852D01*
X193352Y443053D02*
X196120Y445820D01*
X202801D01*
X181136Y471457D02*
X183903Y468689D01*
X139764Y471457D02*
X181136D01*
X193701Y265978D02*
X202801D01*
Y275978D02*
X202849Y276026D01*
X202801Y347915D02*
X202836Y347879D01*
X202801Y383883D02*
X216939D01*
X216964Y383858D01*
X202801Y419852D02*
X216909D01*
X216994Y419766D01*
X119206Y357605D02*
X128615D01*
X133858Y316929D02*
Y352362D01*
X128615Y357605D02*
X133858Y352362D01*
X122047Y277559D02*
X147638D01*
Y265748D02*
X172571D01*
X172801Y265978D01*
X136811Y313976D02*
X147638D01*
X133858Y316929D02*
X136811Y313976D01*
X119055Y357756D02*
X119206Y357605D01*
X137795Y385827D02*
X147638D01*
X133264Y381296D02*
X137795Y385827D01*
X128733Y367907D02*
X133264Y372438D01*
Y381296D01*
X119055Y367756D02*
X119206Y367907D01*
X128733D01*
X139347Y457677D02*
X147638D01*
X119055Y437385D02*
X139347Y457677D01*
X119055Y377756D02*
Y437385D01*
X109055Y440748D02*
X139764Y471457D01*
X109055Y377756D02*
Y440748D01*
D15*
X101461Y231582D02*
D03*
X437795Y221654D02*
D03*
Y180921D02*
D03*
X101461Y190400D02*
D03*
X119055Y377756D02*
D03*
X109055D02*
D03*
X119055Y367756D02*
D03*
X109055D02*
D03*
X119055Y357756D02*
D03*
X109055D02*
D03*
X119055Y347756D02*
D03*
X109055D02*
D03*
X268898Y135827D02*
D03*
X288583D02*
D03*
X278740D02*
D03*
D16*
X101461Y221582D02*
D03*
X437795Y231653D02*
D03*
Y190920D02*
D03*
X101461Y180400D02*
D03*
D17*
X418661Y383228D02*
D03*
D18*
X408661D02*
D03*
X418661Y373228D02*
D03*
X408661D02*
D03*
X418661Y363228D02*
D03*
X408661D02*
D03*
X418661Y353228D02*
D03*
X408661D02*
D03*
X418661Y343228D02*
D03*
X408661D02*
D03*
D19*
X444882Y125984D02*
D03*
X98425D02*
D03*
Y472441D02*
D03*
X444882D02*
D03*
D20*
X400669Y293347D02*
D03*
X390669D02*
D03*
Y263347D02*
D03*
X172801Y231582D02*
D03*
X202801D02*
D03*
Y221582D02*
D03*
X367295Y278456D02*
D03*
X357295D02*
D03*
Y248456D02*
D03*
X202801Y445820D02*
D03*
Y455820D02*
D03*
X172801D02*
D03*
Y419852D02*
D03*
X202801D02*
D03*
Y409852D02*
D03*
Y373883D02*
D03*
Y383883D02*
D03*
X172801D02*
D03*
Y347915D02*
D03*
X202801D02*
D03*
Y337915D02*
D03*
Y301946D02*
D03*
Y311946D02*
D03*
X172801D02*
D03*
X202801Y265978D02*
D03*
Y275978D02*
D03*
X172801D02*
D03*
X172801Y190400D02*
D03*
X202801D02*
D03*
Y180400D02*
D03*
D21*
X400669Y263347D02*
D03*
X367295Y248456D02*
D03*
D22*
X172801Y221582D02*
D03*
X172801Y445820D02*
D03*
Y409852D02*
D03*
Y373883D02*
D03*
Y337915D02*
D03*
Y301946D02*
D03*
Y265978D02*
D03*
X172801Y180400D02*
D03*
D23*
X237012Y116283D02*
D03*
D24*
Y124157D02*
D03*
D25*
X299213Y424843D02*
D03*
Y414843D02*
D03*
Y404843D02*
D03*
Y394843D02*
D03*
Y384842D02*
D03*
Y374843D02*
D03*
Y364843D02*
D03*
Y354842D02*
D03*
Y344843D02*
D03*
Y334842D02*
D03*
Y324843D02*
D03*
Y314843D02*
D03*
Y304842D02*
D03*
Y294843D02*
D03*
X330465D02*
D03*
Y304842D02*
D03*
Y314843D02*
D03*
Y324843D02*
D03*
Y334842D02*
D03*
Y344843D02*
D03*
Y354842D02*
D03*
Y364843D02*
D03*
Y374843D02*
D03*
Y384842D02*
D03*
Y394843D02*
D03*
Y404843D02*
D03*
Y414843D02*
D03*
D26*
Y424843D02*
D03*
D27*
X298425Y135827D02*
D03*
M02*
