M48
;Layer_Color=9474304
;FILE_FORMAT=4:4
METRIC,LZ
;TYPE=PLATED
T1F00S00C0.7500
T2F00S00C0.7590
T3F00S00C0.8000
T4F00S00C0.9000
T5F00S00C1.1000
T6F00S00C3.2000
%
T01
X00602011Y00295359
Y00315359
T02
X0083938Y007489
Y007743
X0076
Y007489
Y007997
Y008251
Y008505
Y008759
Y009013
Y009267
Y009521
Y009775
Y010029
Y010283
Y010537
Y010791
X0083938
Y010537
Y010283
Y010029
Y009775
Y009521
Y009267
Y009013
Y008759
Y008505
Y008251
Y007997
T03
X0090753Y00631077
X0093293
Y00707277
X0090753
X009923Y007451
X010177
Y006689
X009923
X00515114Y00675583
Y00700983
Y00766943
Y00792343
X00438914
Y00766943
Y00700983
Y00675583
X00438914Y00588219
Y00562819
X00515114
Y00588219
Y00483615
Y00458215
X00438914
Y00483615
X00438914Y00858303
Y00883703
Y00949663
Y00975063
Y01041023
Y01066423
Y01132383
Y01157783
X00515114
Y01132383
Y01066423
Y01041023
Y00975063
Y00949663
Y00883703
Y00858303
T04
X00683Y00345
X00708
X00733
X00758
X01112Y00459538
Y00484938
Y00563
Y005884
X00257712Y00588219
Y00562819
X00257712Y00483615
Y00458215
X00277Y008833
Y009087
Y009341
Y009595
X003024
Y009341
Y009087
Y008833
T05
X01038Y008718
Y008972
Y009226
Y00948
Y009734
X010634
Y00948
Y009226
Y008972
Y008718
T06
X0025Y0032
X0113
Y012
X0025
M30
