G04*
G04 #@! TF.GenerationSoftware,Altium Limited,Altium Designer,19.1.5 (86)*
G04*
G04 Layer_Physical_Order=2*
G04 Layer_Color=255*
%FSLAX44Y44*%
%MOMM*%
G71*
G01*
G75*
%ADD12C,1.0000*%
%ADD73C,0.6000*%
%ADD75C,1.2000*%
%ADD84C,1.0000*%
%ADD115C,3.0000*%
%ADD117C,1.5000*%
%ADD131C,1.9000*%
%ADD132C,1.8000*%
%ADD133P,1.9483X8X292.5*%
%ADD134P,2.1648X8X112.5*%
%ADD135C,2.0000*%
%ADD136C,2.8000*%
G36*
X1545000Y1972500D02*
X1545000Y1377500D01*
X1544899Y1377336D01*
X1555829Y1370571D01*
X1577143Y1356193D01*
X1597876Y1340992D01*
X1617998Y1324989D01*
X1637478Y1308210D01*
X1656284Y1290680D01*
X1674389Y1272426D01*
X1691765Y1253477D01*
X1708385Y1233862D01*
X1724223Y1213610D01*
X1739255Y1192753D01*
X1753458Y1171322D01*
X1766810Y1149352D01*
X1779291Y1126875D01*
X1790881Y1103926D01*
X1801562Y1080540D01*
X1811319Y1056754D01*
X1820136Y1032604D01*
X1828000Y1008126D01*
X1834898Y983360D01*
X1840820Y958341D01*
X1845757Y933110D01*
X1849702Y907705D01*
X1852647Y882165D01*
X1854589Y856529D01*
X1855525Y830836D01*
X1855453Y805127D01*
X1854373Y779440D01*
X1852288Y753815D01*
X1849199Y728291D01*
X1845113Y702909D01*
X1840035Y677706D01*
X1833973Y652721D01*
X1826936Y627993D01*
X1818935Y603560D01*
X1809983Y579459D01*
X1800093Y555728D01*
X1789281Y532403D01*
X1777562Y509519D01*
X1764956Y487112D01*
X1751481Y465217D01*
X1737158Y443867D01*
X1722010Y423094D01*
X1706059Y402931D01*
X1689329Y383409D01*
X1671848Y364557D01*
X1653641Y346406D01*
X1634736Y328981D01*
X1615163Y312311D01*
X1594952Y296422D01*
X1574134Y281336D01*
X1552740Y267078D01*
X1530804Y253670D01*
X1508359Y241132D01*
X1485439Y229483D01*
X1462081Y218741D01*
X1438320Y208924D01*
X1414193Y200045D01*
X1389735Y192118D01*
X1364986Y185157D01*
X1339983Y179170D01*
X1314765Y174169D01*
X1289370Y170159D01*
X1263837Y167149D01*
X1238206Y165141D01*
X1212516Y164139D01*
X1186806Y164145D01*
X1161117Y165159D01*
X1135487Y167179D01*
X1109956Y170202D01*
X1084562Y174223D01*
X1059346Y179237D01*
X1034346Y185235D01*
X1009601Y192209D01*
X985147Y200147D01*
X961024Y209037D01*
X937267Y218866D01*
X913914Y229619D01*
X891001Y241278D01*
X868561Y253827D01*
X846632Y267246D01*
X825245Y281514D01*
X804433Y296609D01*
X784229Y312509D01*
X764665Y329188D01*
X745768Y346621D01*
X727570Y364781D01*
X710097Y383641D01*
X693377Y403171D01*
X677436Y423342D01*
X662297Y444122D01*
X647984Y465479D01*
X634520Y487381D01*
X621924Y509794D01*
X610217Y532683D01*
X599415Y556013D01*
X589537Y579749D01*
X580596Y603854D01*
X572607Y628291D01*
X565582Y653022D01*
X559532Y678010D01*
X554465Y703215D01*
X550391Y728600D01*
X547315Y754125D01*
X545241Y779751D01*
X544174Y805438D01*
X544114Y831147D01*
X545062Y856840D01*
X547016Y882475D01*
X549974Y908014D01*
X553930Y933417D01*
X558879Y958646D01*
X564813Y983661D01*
X571723Y1008425D01*
X579599Y1032898D01*
X588427Y1057045D01*
X598195Y1080826D01*
X608888Y1104207D01*
X620489Y1127150D01*
X632980Y1149621D01*
X646343Y1171585D01*
X660556Y1193009D01*
X675598Y1213859D01*
X691446Y1234103D01*
X708075Y1253711D01*
X725459Y1272652D01*
X743573Y1290896D01*
X762388Y1308417D01*
X781875Y1325187D01*
X802005Y1341181D01*
X822746Y1356372D01*
X844066Y1370740D01*
X855000Y1377500D01*
X855000Y1972500D01*
X877500Y1995000D01*
X1522500D01*
X1545000Y1972500D01*
D02*
G37*
%LPC*%
G36*
X1091000Y1965250D02*
X1077000D01*
X1070000Y1958250D01*
Y1944250D01*
X1077000Y1937250D01*
X1091000D01*
X1098000Y1944250D01*
Y1958250D01*
X1091000Y1965250D01*
D02*
G37*
G36*
X1316500Y1965250D02*
X1302500D01*
X1295500Y1958250D01*
Y1944250D01*
X1302500Y1937250D01*
X1316500D01*
X1323500Y1944250D01*
Y1958250D01*
X1316500Y1965250D01*
D02*
G37*
G36*
X1490000Y1961102D02*
X1485883Y1960696D01*
X1481925Y1959495D01*
X1478277Y1957545D01*
X1475079Y1954921D01*
X1472455Y1951723D01*
X1470505Y1948075D01*
X1469304Y1944117D01*
X1468898Y1940000D01*
X1469304Y1935883D01*
X1470505Y1931925D01*
X1472455Y1928277D01*
X1475079Y1925079D01*
X1478277Y1922455D01*
X1481925Y1920505D01*
X1485883Y1919304D01*
X1490000Y1918898D01*
X1494117Y1919304D01*
X1498075Y1920505D01*
X1501723Y1922455D01*
X1504921Y1925079D01*
X1507545Y1928277D01*
X1509495Y1931925D01*
X1510696Y1935883D01*
X1511102Y1940000D01*
X1510696Y1944117D01*
X1509495Y1948075D01*
X1507545Y1951723D01*
X1504921Y1954921D01*
X1501723Y1957545D01*
X1498075Y1959495D01*
X1494117Y1960696D01*
X1490000Y1961102D01*
D02*
G37*
G36*
X910000D02*
X905883Y1960696D01*
X901925Y1959495D01*
X898277Y1957545D01*
X895079Y1954921D01*
X892455Y1951723D01*
X890505Y1948075D01*
X889304Y1944117D01*
X888898Y1940000D01*
X889304Y1935883D01*
X890505Y1931925D01*
X892455Y1928277D01*
X895079Y1925079D01*
X898277Y1922455D01*
X901925Y1920505D01*
X905883Y1919304D01*
X910000Y1918898D01*
X914117Y1919304D01*
X918075Y1920505D01*
X921723Y1922455D01*
X924921Y1925079D01*
X927545Y1928277D01*
X929495Y1931925D01*
X930696Y1935883D01*
X931102Y1940000D01*
X930696Y1944117D01*
X929495Y1948075D01*
X927545Y1951723D01*
X924921Y1954921D01*
X921723Y1957545D01*
X918075Y1959495D01*
X914117Y1960696D01*
X910000Y1961102D01*
D02*
G37*
G36*
X1498250Y1681500D02*
X1483250D01*
X1475750Y1674000D01*
Y1659000D01*
X1483250Y1651500D01*
X1498250D01*
X1505750Y1659000D01*
Y1674000D01*
X1498250Y1681500D01*
D02*
G37*
G36*
X918500D02*
X903500D01*
X896000Y1674000D01*
Y1659000D01*
X903500Y1651500D01*
X918500D01*
X926000Y1659000D01*
Y1674000D01*
X918500Y1681500D01*
D02*
G37*
G36*
X1250000Y1637125D02*
X1246215Y1636627D01*
X1242687Y1635166D01*
X1239659Y1632841D01*
X1238135Y1630856D01*
X1236865D01*
X1235341Y1632841D01*
X1232312Y1635166D01*
X1228785Y1636627D01*
X1225000Y1637125D01*
X1221215Y1636627D01*
X1217687Y1635166D01*
X1214659Y1632841D01*
X1213135Y1630856D01*
X1211865D01*
X1210341Y1632841D01*
X1207312Y1635166D01*
X1203785Y1636627D01*
X1200000Y1637125D01*
X1196215Y1636627D01*
X1192687Y1635166D01*
X1189659Y1632841D01*
X1187334Y1629813D01*
X1185873Y1626285D01*
X1185375Y1622500D01*
X1185873Y1618715D01*
X1187334Y1615188D01*
X1189659Y1612159D01*
X1192687Y1609834D01*
X1196215Y1608373D01*
X1200000Y1607875D01*
X1203785Y1608373D01*
X1207312Y1609834D01*
X1210341Y1612159D01*
X1211865Y1614144D01*
X1213135D01*
X1214659Y1612159D01*
X1217687Y1609834D01*
X1221215Y1608373D01*
X1225000Y1607875D01*
X1228785Y1608373D01*
X1232312Y1609834D01*
X1235341Y1612159D01*
X1236865Y1614144D01*
X1238135D01*
X1239659Y1612159D01*
X1242687Y1609834D01*
X1246215Y1608373D01*
X1250000Y1607875D01*
X1253785Y1608373D01*
X1257312Y1609834D01*
X1260341Y1612159D01*
X1262666Y1615188D01*
X1264127Y1618715D01*
X1264625Y1622500D01*
X1264127Y1626285D01*
X1262666Y1629813D01*
X1260341Y1632841D01*
X1257312Y1635166D01*
X1253785Y1636627D01*
X1250000Y1637125D01*
D02*
G37*
G36*
X1150000D02*
X1146215Y1636627D01*
X1142687Y1635166D01*
X1139659Y1632841D01*
X1137334Y1629813D01*
X1135873Y1626285D01*
X1135375Y1622500D01*
X1135873Y1618715D01*
X1137334Y1615188D01*
X1139659Y1612159D01*
X1142687Y1609834D01*
X1146215Y1608373D01*
X1150000Y1607875D01*
X1153785Y1608373D01*
X1157312Y1609834D01*
X1160341Y1612159D01*
X1162666Y1615188D01*
X1164127Y1618715D01*
X1164625Y1622500D01*
X1164127Y1626285D01*
X1162666Y1629813D01*
X1160341Y1632841D01*
X1157312Y1635166D01*
X1153785Y1636627D01*
X1150000Y1637125D01*
D02*
G37*
G36*
X1403250Y1815569D02*
X1401162Y1815294D01*
X1399216Y1814488D01*
X1397544Y1813206D01*
X1396262Y1811534D01*
X1395456Y1809588D01*
X1395181Y1807500D01*
Y1787750D01*
X1395456Y1785662D01*
X1396262Y1783716D01*
X1397544Y1782044D01*
X1426544Y1753044D01*
X1428215Y1751762D01*
X1430162Y1750956D01*
X1432250Y1750681D01*
X1500658D01*
X1515681Y1735658D01*
Y1545342D01*
X1513544Y1543206D01*
X1512262Y1541534D01*
X1511456Y1539588D01*
X1511181Y1537500D01*
X1511456Y1535412D01*
X1512262Y1533466D01*
X1513544Y1531794D01*
X1515215Y1530512D01*
X1517162Y1529706D01*
X1519250Y1529431D01*
X1521338Y1529706D01*
X1523284Y1530512D01*
X1524956Y1531794D01*
X1529456Y1536294D01*
X1530738Y1537966D01*
X1531544Y1539912D01*
X1531819Y1542000D01*
Y1739000D01*
X1531544Y1741088D01*
X1530738Y1743035D01*
X1529456Y1744706D01*
X1509706Y1764456D01*
X1508035Y1765738D01*
X1506088Y1766544D01*
X1504000Y1766819D01*
X1435592D01*
X1411319Y1791092D01*
Y1807500D01*
X1411044Y1809588D01*
X1410238Y1811534D01*
X1408956Y1813206D01*
X1407285Y1814488D01*
X1405338Y1815294D01*
X1403250Y1815569D01*
D02*
G37*
G36*
X959750Y1814819D02*
X888000D01*
X885912Y1814544D01*
X883966Y1813738D01*
X882294Y1812456D01*
X869794Y1799956D01*
X868512Y1798284D01*
X867706Y1796338D01*
X867431Y1794250D01*
Y1541265D01*
X867706Y1539176D01*
X868512Y1537230D01*
X869794Y1535559D01*
X879264Y1526090D01*
X880935Y1524808D01*
X882881Y1524001D01*
X884969Y1523727D01*
X887058Y1524001D01*
X889004Y1524808D01*
X890675Y1526090D01*
X891957Y1527761D01*
X892763Y1529707D01*
X893038Y1531796D01*
X892763Y1533884D01*
X891957Y1535830D01*
X890675Y1537501D01*
X883569Y1544607D01*
Y1790908D01*
X891342Y1798681D01*
X959750D01*
X961838Y1798956D01*
X963784Y1799762D01*
X965456Y1801044D01*
X966738Y1802715D01*
X967544Y1804662D01*
X967819Y1806750D01*
X967544Y1808838D01*
X966738Y1810784D01*
X965456Y1812456D01*
X963784Y1813738D01*
X961838Y1814544D01*
X959750Y1814819D01*
D02*
G37*
G36*
X1012655Y1454577D02*
X1012488Y1454553D01*
X1012320Y1454567D01*
X1011317Y1454387D01*
X1010309Y1454243D01*
X1010154Y1454177D01*
X1009988Y1454147D01*
X991988Y1448397D01*
X990971Y1447919D01*
X989949Y1447454D01*
X989900Y1447414D01*
X989844Y1447388D01*
X988986Y1446662D01*
X988118Y1445949D01*
X988082Y1445898D01*
X988034Y1445858D01*
X987393Y1444934D01*
X986740Y1444021D01*
X986718Y1443963D01*
X986682Y1443911D01*
X986302Y1442854D01*
X985907Y1441802D01*
X985901Y1441740D01*
X985880Y1441681D01*
X985787Y1440562D01*
X985678Y1439444D01*
X985688Y1439382D01*
X985683Y1439320D01*
X985882Y1438214D01*
X986066Y1437106D01*
X991533Y1419150D01*
X991564Y1419081D01*
X991578Y1419007D01*
X992054Y1418004D01*
X992513Y1416992D01*
X992561Y1416934D01*
X992593Y1416866D01*
X993313Y1416019D01*
X994018Y1415162D01*
X994080Y1415118D01*
X994128Y1415060D01*
X995043Y1414429D01*
X995946Y1413784D01*
X996017Y1413757D01*
X996079Y1413714D01*
X997125Y1413341D01*
X998165Y1412951D01*
X998240Y1412944D01*
X998311Y1412918D01*
X999418Y1412829D01*
X1000523Y1412721D01*
X1000598Y1412733D01*
X1000673Y1412727D01*
X1001766Y1412928D01*
X1002372Y1413028D01*
X1017751Y1361895D01*
X1017851Y1361674D01*
X1017874Y1361504D01*
X1017925Y1361381D01*
X1017946Y1361250D01*
X1017949Y1361243D01*
X1017951Y1361229D01*
X1020370Y1353218D01*
X1017285Y1352230D01*
X995447Y1344225D01*
X973958Y1335324D01*
X952855Y1325542D01*
X941172Y1319528D01*
X940954Y1319638D01*
X939988Y1320466D01*
X940325Y1321279D01*
X940697Y1322077D01*
X940727Y1322250D01*
X940794Y1322412D01*
X940909Y1323284D01*
X941061Y1324152D01*
X941046Y1324326D01*
X941069Y1324500D01*
X940954Y1325373D01*
X940877Y1326250D01*
X940817Y1326415D01*
X940794Y1326588D01*
X940457Y1327402D01*
X940156Y1328229D01*
X935992Y1336219D01*
X937938Y1341790D01*
X942298Y1344034D01*
X942298Y1344034D01*
X942853Y1344275D01*
X943360Y1344665D01*
X944733Y1345718D01*
X946175Y1347598D01*
X947082Y1349787D01*
X947392Y1352137D01*
X947082Y1354486D01*
X946175Y1356676D01*
X944733Y1358555D01*
X942853Y1359998D01*
X940663Y1360905D01*
X938314Y1361214D01*
X935965Y1360905D01*
X934334Y1360230D01*
Y1360230D01*
X934330Y1360217D01*
X926645Y1356489D01*
X905793Y1345344D01*
X902093Y1343175D01*
X900987Y1342574D01*
X900954Y1342560D01*
X900017Y1341841D01*
X899074Y1341118D01*
X897632Y1339238D01*
X896725Y1337048D01*
X896416Y1334699D01*
X896725Y1332349D01*
X897632Y1330160D01*
X899074Y1328280D01*
X900954Y1326837D01*
X903144Y1325930D01*
X905493Y1325621D01*
X907843Y1325930D01*
X909999Y1326824D01*
X910025Y1326779D01*
X915312Y1329783D01*
X921766Y1328597D01*
X925844Y1320771D01*
X925945Y1320627D01*
X926012Y1320466D01*
X926548Y1319767D01*
X927053Y1319046D01*
X927188Y1318933D01*
X927294Y1318794D01*
X927993Y1318258D01*
X928668Y1317693D01*
X928826Y1317619D01*
X928966Y1317512D01*
X929779Y1317175D01*
X930577Y1316803D01*
X930750Y1316773D01*
X930912Y1316706D01*
X931784Y1316591D01*
X932460Y1316472D01*
X932681Y1315970D01*
X932731Y1315183D01*
X932175Y1314897D01*
X911952Y1303407D01*
X892222Y1291090D01*
X873017Y1277969D01*
X854370Y1264065D01*
X836315Y1249402D01*
X818880Y1234006D01*
X803187Y1218948D01*
X802253Y1219812D01*
X803885Y1221802D01*
X805835Y1225450D01*
X807036Y1229408D01*
X807442Y1233525D01*
X807036Y1237642D01*
X805835Y1241600D01*
X803885Y1245248D01*
X801261Y1248446D01*
X798063Y1251070D01*
X794415Y1253020D01*
X790457Y1254221D01*
X786340Y1254627D01*
X782223Y1254221D01*
X778265Y1253020D01*
X774617Y1251070D01*
X771419Y1248446D01*
X768795Y1245248D01*
X766845Y1241600D01*
X765644Y1237642D01*
X765238Y1233525D01*
X765644Y1229408D01*
X766845Y1225450D01*
X768795Y1221802D01*
X771419Y1218604D01*
X774617Y1215980D01*
X778265Y1214030D01*
X782223Y1212829D01*
X786340Y1212423D01*
X790457Y1212829D01*
X794415Y1214030D01*
X798063Y1215980D01*
X800078Y1217633D01*
X800942Y1216699D01*
X785994Y1201120D01*
X770598Y1183685D01*
X755935Y1165630D01*
X742031Y1146983D01*
X728910Y1127778D01*
X716593Y1108048D01*
X705103Y1087825D01*
X694458Y1067145D01*
X684676Y1046042D01*
X675775Y1024553D01*
X667770Y1002715D01*
X660674Y980564D01*
X654499Y958139D01*
X649257Y935479D01*
X644955Y912621D01*
X641602Y889604D01*
X639202Y866469D01*
X637761Y843254D01*
X637280Y820000D01*
X637761Y796746D01*
X639202Y773531D01*
X641602Y750396D01*
X644955Y727379D01*
X649257Y704521D01*
X651556Y694584D01*
X643272Y692082D01*
X642362Y691671D01*
X641436Y691298D01*
X641285Y691185D01*
X641113Y691107D01*
X640340Y690474D01*
X639542Y689874D01*
X639426Y689725D01*
X639279Y689606D01*
X638696Y688795D01*
X638081Y688009D01*
X638007Y687835D01*
X637896Y687681D01*
X637543Y686747D01*
X637152Y685829D01*
X637126Y685641D01*
X637059Y685464D01*
X636960Y684471D01*
X636819Y683483D01*
X636842Y683295D01*
X636824Y683106D01*
X636985Y682121D01*
X637105Y681130D01*
X641709Y663238D01*
X641775Y663072D01*
X641804Y662896D01*
X647450Y644038D01*
X647455Y644028D01*
X647457Y644018D01*
X647942Y642943D01*
X648421Y641876D01*
X648428Y641868D01*
X648432Y641858D01*
X649180Y640944D01*
X649918Y640039D01*
X649926Y640033D01*
X649933Y640024D01*
X650888Y639338D01*
X651839Y638652D01*
X651849Y638648D01*
X651858Y638642D01*
X652958Y638226D01*
X654054Y637809D01*
X654064Y637808D01*
X654074Y637804D01*
X655248Y637687D01*
X656411Y637568D01*
X656422Y637570D01*
X656432Y637569D01*
X657597Y637760D01*
X658751Y637946D01*
X658760Y637950D01*
X658771Y637952D01*
X666781Y640371D01*
X667770Y637285D01*
X675775Y615447D01*
X684676Y593958D01*
X694458Y572855D01*
X700472Y561172D01*
X700362Y560954D01*
X699535Y559988D01*
X698721Y560325D01*
X697923Y560697D01*
X697750Y560727D01*
X697588Y560794D01*
X696716Y560909D01*
X695848Y561062D01*
X695674Y561046D01*
X695500Y561069D01*
X694627Y560954D01*
X693750Y560877D01*
X693585Y560817D01*
X693412Y560794D01*
X692598Y560457D01*
X691771Y560156D01*
X683781Y555992D01*
X678210Y557938D01*
X675965Y562298D01*
X675965Y562298D01*
X675725Y562853D01*
X675335Y563360D01*
X674282Y564733D01*
X672402Y566175D01*
X670213Y567082D01*
X667863Y567392D01*
X665514Y567082D01*
X663325Y566175D01*
X661444Y564733D01*
X660002Y562853D01*
X659095Y560663D01*
X658786Y558314D01*
X659095Y555965D01*
X659770Y554334D01*
X659770D01*
X659783Y554330D01*
X663511Y546645D01*
X674656Y525793D01*
X676825Y522093D01*
X677426Y520987D01*
X677440Y520954D01*
X678159Y520017D01*
X678882Y519074D01*
X680762Y517632D01*
X682952Y516725D01*
X685301Y516416D01*
X687651Y516725D01*
X689840Y517632D01*
X691720Y519074D01*
X693163Y520954D01*
X694070Y523144D01*
X694379Y525493D01*
X694070Y527843D01*
X693176Y529999D01*
X693221Y530025D01*
X690217Y535312D01*
X691403Y541766D01*
X699229Y545844D01*
X699373Y545945D01*
X699535Y546012D01*
X700233Y546548D01*
X700954Y547053D01*
X701067Y547188D01*
X701206Y547294D01*
X701742Y547993D01*
X702307Y548667D01*
X702381Y548826D01*
X702488Y548965D01*
X702825Y549779D01*
X703197Y550577D01*
X703227Y550750D01*
X703294Y550912D01*
X703409Y551784D01*
X703528Y552460D01*
X704029Y552681D01*
X704817Y552731D01*
X705103Y552175D01*
X716593Y531952D01*
X728910Y512221D01*
X742031Y493017D01*
X755935Y474370D01*
X770598Y456315D01*
X785994Y438880D01*
X800943Y423301D01*
X800078Y422367D01*
X798063Y424020D01*
X794415Y425970D01*
X790457Y427171D01*
X786340Y427577D01*
X782223Y427171D01*
X778265Y425970D01*
X774617Y424020D01*
X771419Y421396D01*
X768795Y418198D01*
X766845Y414550D01*
X765644Y410592D01*
X765238Y406475D01*
X765644Y402358D01*
X766845Y398400D01*
X768795Y394752D01*
X771419Y391554D01*
X774617Y388930D01*
X778265Y386980D01*
X782223Y385779D01*
X786340Y385373D01*
X790457Y385779D01*
X794415Y386980D01*
X798063Y388930D01*
X801261Y391554D01*
X803885Y394752D01*
X805835Y398400D01*
X807036Y402358D01*
X807442Y406475D01*
X807036Y410592D01*
X805835Y414550D01*
X803885Y418198D01*
X802253Y420188D01*
X803187Y421052D01*
X818880Y405994D01*
X836315Y390598D01*
X854370Y375935D01*
X873017Y362031D01*
X892222Y348910D01*
X911952Y336594D01*
X932175Y325103D01*
X952855Y314458D01*
X973958Y304676D01*
X995447Y295775D01*
X1017285Y287770D01*
X1039436Y280674D01*
X1061861Y274499D01*
X1084521Y269257D01*
X1107379Y264955D01*
X1130396Y261602D01*
X1153531Y259202D01*
X1176746Y257761D01*
X1200000Y257280D01*
X1223254Y257761D01*
X1246469Y259202D01*
X1269604Y261602D01*
X1292621Y264955D01*
X1315479Y269257D01*
X1325417Y271556D01*
X1327919Y263273D01*
X1328330Y262363D01*
X1328703Y261437D01*
X1328816Y261285D01*
X1328894Y261113D01*
X1329527Y260340D01*
X1330126Y259542D01*
X1330275Y259426D01*
X1330395Y259279D01*
X1331206Y258697D01*
X1331992Y258081D01*
X1332166Y258007D01*
X1332320Y257896D01*
X1333254Y257544D01*
X1334172Y257153D01*
X1334359Y257126D01*
X1334537Y257059D01*
X1335530Y256960D01*
X1336518Y256820D01*
X1336706Y256843D01*
X1336895Y256824D01*
X1337879Y256985D01*
X1338871Y257106D01*
X1356763Y261709D01*
X1356929Y261776D01*
X1357105Y261804D01*
X1375963Y267451D01*
X1375973Y267455D01*
X1375983Y267457D01*
X1377047Y267937D01*
X1378125Y268421D01*
X1378133Y268428D01*
X1378143Y268432D01*
X1379045Y269170D01*
X1379962Y269918D01*
X1379968Y269927D01*
X1379977Y269933D01*
X1380657Y270881D01*
X1381349Y271839D01*
X1381353Y271849D01*
X1381359Y271858D01*
X1381771Y272948D01*
X1382192Y274054D01*
X1382193Y274065D01*
X1382197Y274075D01*
X1382313Y275242D01*
X1382433Y276411D01*
X1382431Y276422D01*
X1382432Y276433D01*
X1382241Y277597D01*
X1382055Y278751D01*
X1382051Y278761D01*
X1382049Y278771D01*
X1379630Y286782D01*
X1382715Y287770D01*
X1404553Y295775D01*
X1426042Y304676D01*
X1447144Y314458D01*
X1457632Y319856D01*
X1458133Y319648D01*
X1458691Y318973D01*
X1458588Y318191D01*
X1458436Y317299D01*
X1458451Y317149D01*
X1458431Y317000D01*
X1458549Y316103D01*
X1458634Y315201D01*
X1458686Y315061D01*
X1458706Y314912D01*
X1459052Y314075D01*
X1459368Y313227D01*
X1464150Y304186D01*
X1462062Y298210D01*
X1457702Y295965D01*
X1457702Y295965D01*
X1457147Y295725D01*
X1456640Y295335D01*
X1455267Y294282D01*
X1453825Y292402D01*
X1452918Y290213D01*
X1452608Y287863D01*
X1452918Y285514D01*
X1453825Y283325D01*
X1455267Y281444D01*
X1457147Y280002D01*
X1459337Y279095D01*
X1461686Y278786D01*
X1464035Y279095D01*
X1465666Y279770D01*
Y279770D01*
X1465670Y279783D01*
X1473355Y283511D01*
X1494207Y294656D01*
X1497907Y296825D01*
X1499013Y297426D01*
X1499046Y297440D01*
X1499983Y298159D01*
X1500926Y298882D01*
X1502368Y300762D01*
X1503275Y302952D01*
X1503584Y305301D01*
X1503275Y307651D01*
X1502368Y309840D01*
X1500926Y311720D01*
X1499046Y313163D01*
X1496856Y314069D01*
X1494507Y314379D01*
X1492157Y314069D01*
X1490001Y313176D01*
X1489975Y313221D01*
X1484688Y310217D01*
X1478628Y311331D01*
X1473632Y320773D01*
X1473546Y320896D01*
X1473488Y321035D01*
X1472937Y321753D01*
X1472413Y322491D01*
X1472297Y322587D01*
X1472206Y322706D01*
X1471488Y323257D01*
X1470790Y323834D01*
X1470654Y323897D01*
X1470535Y323988D01*
X1469698Y324334D01*
X1469336Y324501D01*
X1469189Y325815D01*
X1469225Y325898D01*
X1488048Y336594D01*
X1507778Y348910D01*
X1526983Y362031D01*
X1545629Y375935D01*
X1563685Y390598D01*
X1581120Y405994D01*
X1596813Y421052D01*
X1597747Y420188D01*
X1596115Y418198D01*
X1594165Y414550D01*
X1592964Y410592D01*
X1592558Y406475D01*
X1592964Y402358D01*
X1594165Y398400D01*
X1596115Y394752D01*
X1598739Y391554D01*
X1601936Y388930D01*
X1605585Y386980D01*
X1609543Y385779D01*
X1613660Y385373D01*
X1617777Y385779D01*
X1621735Y386980D01*
X1625383Y388930D01*
X1628581Y391554D01*
X1631205Y394752D01*
X1633155Y398400D01*
X1634356Y402358D01*
X1634762Y406475D01*
X1634356Y410592D01*
X1633155Y414550D01*
X1631205Y418198D01*
X1628581Y421396D01*
X1625383Y424020D01*
X1621735Y425970D01*
X1617777Y427171D01*
X1613660Y427577D01*
X1609543Y427171D01*
X1605585Y425970D01*
X1601936Y424020D01*
X1599922Y422367D01*
X1599057Y423301D01*
X1614006Y438880D01*
X1629402Y456315D01*
X1644065Y474370D01*
X1657969Y493017D01*
X1671090Y512221D01*
X1683407Y531952D01*
X1694897Y552175D01*
X1705542Y572855D01*
X1715324Y593958D01*
X1724225Y615447D01*
X1732230Y637285D01*
X1739326Y659436D01*
X1745501Y681861D01*
X1750743Y704521D01*
X1755045Y727379D01*
X1758398Y750396D01*
X1760798Y773531D01*
X1762239Y796746D01*
X1762720Y820000D01*
X1762239Y843254D01*
X1760798Y866469D01*
X1758398Y889604D01*
X1755045Y912621D01*
X1750743Y935479D01*
X1748444Y945417D01*
X1756727Y947919D01*
X1757637Y948330D01*
X1758563Y948703D01*
X1758714Y948816D01*
X1758887Y948894D01*
X1759659Y949526D01*
X1760458Y950126D01*
X1760574Y950275D01*
X1760721Y950395D01*
X1761303Y951206D01*
X1761919Y951992D01*
X1761993Y952166D01*
X1762103Y952320D01*
X1762456Y953254D01*
X1762847Y954172D01*
X1762874Y954360D01*
X1762941Y954537D01*
X1763040Y955530D01*
X1763180Y956518D01*
X1763157Y956706D01*
X1763176Y956895D01*
X1763015Y957879D01*
X1762894Y958871D01*
X1758291Y976763D01*
X1758224Y976928D01*
X1758196Y977105D01*
X1752549Y995963D01*
X1752545Y995973D01*
X1752543Y995983D01*
X1752062Y997049D01*
X1751579Y998125D01*
X1751572Y998133D01*
X1751568Y998143D01*
X1750830Y999045D01*
X1750082Y999962D01*
X1750073Y999968D01*
X1750067Y999977D01*
X1749119Y1000657D01*
X1748161Y1001349D01*
X1748151Y1001353D01*
X1748142Y1001359D01*
X1747050Y1001772D01*
X1745946Y1002192D01*
X1745935Y1002193D01*
X1745925Y1002197D01*
X1744758Y1002313D01*
X1743589Y1002433D01*
X1743578Y1002431D01*
X1743567Y1002432D01*
X1742402Y1002241D01*
X1741249Y1002055D01*
X1741239Y1002051D01*
X1741229Y1002049D01*
X1727625Y997941D01*
X1725466Y996965D01*
X1723632Y995464D01*
X1722249Y993540D01*
X1721412Y991323D01*
X1721177Y988965D01*
X1721560Y986627D01*
X1721635Y986459D01*
X1721665Y986275D01*
X1727149Y967959D01*
X1731708Y950239D01*
X1732593Y948041D01*
X1734017Y946146D01*
X1735883Y944685D01*
X1736197Y944551D01*
X1738872Y932990D01*
X1743081Y910624D01*
X1746362Y888104D01*
X1748710Y865467D01*
X1750120Y842753D01*
X1750590Y820000D01*
X1750120Y797247D01*
X1748710Y774533D01*
X1746362Y751896D01*
X1743081Y729376D01*
X1738872Y707010D01*
X1733742Y684838D01*
X1727701Y662897D01*
X1720758Y641224D01*
X1712925Y619856D01*
X1704216Y598830D01*
X1694645Y578183D01*
X1684229Y557948D01*
X1672987Y538161D01*
X1660936Y518856D01*
X1648097Y500065D01*
X1634493Y481821D01*
X1620146Y464154D01*
X1605082Y447095D01*
X1589326Y430674D01*
X1572905Y414918D01*
X1555846Y399854D01*
X1538179Y385507D01*
X1519935Y371903D01*
X1501144Y359064D01*
X1481839Y347013D01*
X1462052Y335770D01*
X1441817Y325355D01*
X1421169Y315784D01*
X1400144Y307075D01*
X1378776Y299242D01*
X1373719Y297622D01*
X1373540Y297751D01*
X1371323Y298588D01*
X1368965Y298823D01*
X1366626Y298440D01*
X1366459Y298365D01*
X1366275Y298335D01*
X1347959Y292850D01*
X1330239Y288292D01*
X1328041Y287407D01*
X1326146Y285983D01*
X1324685Y284117D01*
X1324551Y283803D01*
X1312990Y281128D01*
X1290624Y276919D01*
X1268104Y273638D01*
X1245467Y271290D01*
X1222753Y269880D01*
X1200000Y269410D01*
X1177247Y269880D01*
X1154533Y271290D01*
X1131896Y273638D01*
X1109376Y276919D01*
X1087010Y281128D01*
X1064838Y286258D01*
X1042897Y292299D01*
X1021224Y299242D01*
X999856Y307075D01*
X978830Y315784D01*
X958183Y325355D01*
X937948Y335770D01*
X918161Y347013D01*
X898856Y359064D01*
X880065Y371903D01*
X861821Y385507D01*
X844154Y399854D01*
X827095Y414918D01*
X810674Y430674D01*
X794918Y447095D01*
X779854Y464154D01*
X765507Y481821D01*
X751903Y500065D01*
X739064Y518856D01*
X727013Y538161D01*
X715770Y557948D01*
X705355Y578183D01*
X695784Y598830D01*
X687075Y619856D01*
X679242Y641224D01*
X677622Y646282D01*
X677750Y646461D01*
X678588Y648678D01*
X678823Y651036D01*
X678440Y653374D01*
X678364Y653541D01*
X678335Y653726D01*
X672850Y672042D01*
X668291Y689762D01*
X667406Y691960D01*
X665983Y693855D01*
X664117Y695316D01*
X663803Y695450D01*
X661128Y707010D01*
X656919Y729376D01*
X653638Y751896D01*
X651290Y774533D01*
X649880Y797247D01*
X649410Y820000D01*
X649880Y842753D01*
X651290Y865467D01*
X653638Y888104D01*
X656919Y910624D01*
X661128Y932990D01*
X666258Y955162D01*
X672299Y977103D01*
X679242Y998776D01*
X687075Y1020144D01*
X695784Y1041170D01*
X705355Y1061817D01*
X715770Y1082052D01*
X727013Y1101839D01*
X739064Y1121144D01*
X751903Y1139935D01*
X765507Y1158179D01*
X779854Y1175846D01*
X794918Y1192905D01*
X810674Y1209326D01*
X827095Y1225082D01*
X844154Y1240146D01*
X861821Y1254493D01*
X880065Y1268097D01*
X898856Y1280936D01*
X918161Y1292987D01*
X937948Y1304229D01*
X958183Y1314645D01*
X978830Y1324216D01*
X999856Y1332925D01*
X1021224Y1340758D01*
X1026281Y1342378D01*
X1026460Y1342249D01*
X1028677Y1341412D01*
X1031035Y1341177D01*
X1033373Y1341560D01*
X1033541Y1341635D01*
X1033725Y1341665D01*
X1052041Y1347150D01*
X1069761Y1351708D01*
X1071959Y1352593D01*
X1073854Y1354017D01*
X1075315Y1355883D01*
X1076244Y1358063D01*
X1076308Y1358515D01*
X1076309Y1358519D01*
X1076312Y1358545D01*
X1076576Y1360409D01*
X1076533Y1360764D01*
X1076545Y1360877D01*
X1076447Y1361471D01*
X1076291Y1362762D01*
X1076198Y1362990D01*
X1076161Y1363216D01*
X1072081Y1376727D01*
X1071670Y1377637D01*
X1071297Y1378563D01*
X1071184Y1378714D01*
X1071106Y1378887D01*
X1070473Y1379660D01*
X1069874Y1380458D01*
X1069725Y1380574D01*
X1069605Y1380721D01*
X1068794Y1381303D01*
X1068008Y1381919D01*
X1067834Y1381993D01*
X1067680Y1382103D01*
X1066746Y1382456D01*
X1065828Y1382847D01*
X1065640Y1382874D01*
X1065463Y1382941D01*
X1064470Y1383040D01*
X1063482Y1383180D01*
X1063294Y1383157D01*
X1063105Y1383176D01*
X1062120Y1383015D01*
X1061129Y1382894D01*
X1043237Y1378291D01*
X1043072Y1378224D01*
X1042895Y1378196D01*
X1033769Y1375463D01*
X1032702Y1375223D01*
X1019676Y1418532D01*
X1020574Y1418822D01*
X1021482Y1419253D01*
X1022408Y1419648D01*
X1022551Y1419760D01*
X1022714Y1419837D01*
X1023481Y1420489D01*
X1024272Y1421110D01*
X1024381Y1421255D01*
X1024520Y1421373D01*
X1025091Y1422200D01*
X1025695Y1423005D01*
X1025763Y1423173D01*
X1025866Y1423323D01*
X1026204Y1424270D01*
X1026579Y1425204D01*
X1026601Y1425384D01*
X1026662Y1425555D01*
X1026743Y1426557D01*
X1026864Y1427556D01*
X1026838Y1427736D01*
X1026853Y1427917D01*
X1026672Y1428907D01*
X1026530Y1429902D01*
X1021493Y1447941D01*
X1021427Y1448096D01*
X1021397Y1448262D01*
X1020963Y1449184D01*
X1020563Y1450121D01*
X1020459Y1450254D01*
X1020387Y1450406D01*
X1019730Y1451184D01*
X1019101Y1451986D01*
X1018966Y1452087D01*
X1018857Y1452216D01*
X1018021Y1452797D01*
X1017206Y1453409D01*
X1017050Y1453472D01*
X1016911Y1453568D01*
X1015953Y1453913D01*
X1015007Y1454292D01*
X1014840Y1454313D01*
X1014681Y1454370D01*
X1013666Y1454455D01*
X1012655Y1454577D01*
D02*
G37*
G36*
X1321049Y1430319D02*
X1320876Y1430295D01*
X1320701Y1430311D01*
X1319510Y1430105D01*
X1318311Y1429938D01*
X1318150Y1429870D01*
X1317977Y1429840D01*
X1316880Y1429333D01*
X1315765Y1428862D01*
X1315626Y1428754D01*
X1315467Y1428680D01*
X1314538Y1427906D01*
X1313584Y1427162D01*
X1313478Y1427023D01*
X1313343Y1426911D01*
X1312646Y1425922D01*
X1311917Y1424957D01*
X1311851Y1424795D01*
X1311750Y1424651D01*
X1311332Y1423516D01*
X1310877Y1422395D01*
X1301680Y1387046D01*
X1301673Y1386986D01*
X1301651Y1386931D01*
X1301503Y1385616D01*
X1301340Y1384302D01*
X1301348Y1384243D01*
X1301341Y1384183D01*
X1301538Y1382874D01*
X1301720Y1381564D01*
X1301744Y1381508D01*
X1301753Y1381449D01*
X1302282Y1380235D01*
X1302797Y1379017D01*
X1302834Y1378970D01*
X1302858Y1378915D01*
X1303683Y1377880D01*
X1304496Y1376836D01*
X1304544Y1376800D01*
X1304581Y1376753D01*
X1305646Y1375967D01*
X1306702Y1375169D01*
X1306757Y1375147D01*
X1306805Y1375111D01*
X1308037Y1374627D01*
X1309263Y1374130D01*
X1309323Y1374122D01*
X1309379Y1374100D01*
X1330662Y1368817D01*
X1330827Y1368799D01*
X1330983Y1368743D01*
X1332198Y1368644D01*
X1333409Y1368507D01*
X1333573Y1368532D01*
X1333739Y1368519D01*
X1334937Y1368737D01*
X1336143Y1368919D01*
X1336295Y1368985D01*
X1336458Y1369015D01*
X1337560Y1369537D01*
X1338677Y1370024D01*
X1338807Y1370127D01*
X1338957Y1370199D01*
X1339886Y1370988D01*
X1340839Y1371747D01*
X1340938Y1371881D01*
X1341064Y1371988D01*
X1341757Y1372991D01*
X1342481Y1373971D01*
X1342542Y1374126D01*
X1342636Y1374263D01*
X1343046Y1375410D01*
X1343492Y1376545D01*
X1343510Y1376710D01*
X1343566Y1376866D01*
X1347853Y1396770D01*
X1351353Y1413020D01*
X1351461Y1414348D01*
X1351582Y1415675D01*
X1351573Y1415725D01*
X1351577Y1415776D01*
X1351338Y1417087D01*
X1351111Y1418399D01*
X1351090Y1418445D01*
X1351081Y1418495D01*
X1350510Y1419700D01*
X1349952Y1420909D01*
X1349919Y1420948D01*
X1349898Y1420994D01*
X1349036Y1422009D01*
X1348182Y1423033D01*
X1348141Y1423062D01*
X1348108Y1423101D01*
X1347014Y1423858D01*
X1345923Y1424627D01*
X1345875Y1424644D01*
X1345833Y1424673D01*
X1344580Y1425121D01*
X1343328Y1425582D01*
X1323455Y1430060D01*
X1322251Y1430170D01*
X1321049Y1430319D01*
D02*
G37*
G36*
X1428780Y1496830D02*
X1425235Y1496762D01*
X1421772Y1496003D01*
X1418523Y1494583D01*
X1415613Y1492557D01*
X1413155Y1490001D01*
X1411243Y1487016D01*
X1409949Y1483714D01*
X1409325Y1480224D01*
X1409355Y1478678D01*
X1402195Y1451958D01*
X1400669Y1449046D01*
X1399667Y1445645D01*
X1399348Y1442113D01*
X1399724Y1438588D01*
X1400780Y1435203D01*
X1402477Y1432090D01*
X1404748Y1429367D01*
X1407507Y1427140D01*
X1410647Y1425493D01*
X1416532Y1423112D01*
X1416532Y1423112D01*
X1416532Y1423111D01*
X1417463Y1422734D01*
X1417936Y1422595D01*
X1418384Y1422391D01*
X1419633Y1422095D01*
X1420865Y1421733D01*
X1421355Y1421688D01*
X1421835Y1421575D01*
X1423117Y1421529D01*
X1424396Y1421414D01*
X1424886Y1421466D01*
X1425378Y1421448D01*
X1426645Y1421653D01*
X1427922Y1421790D01*
X1428392Y1421936D01*
X1428878Y1422015D01*
X1430081Y1422464D01*
X1431306Y1422846D01*
X1431739Y1423082D01*
X1432200Y1423254D01*
X1433292Y1423928D01*
X1434420Y1424543D01*
X1434798Y1424858D01*
X1435217Y1425117D01*
X1436156Y1425992D01*
X1437142Y1426814D01*
X1437452Y1427197D01*
X1437812Y1427533D01*
X1438563Y1428574D01*
X1439369Y1429573D01*
X1439598Y1430009D01*
X1439886Y1430409D01*
X1440420Y1431576D01*
X1441016Y1432713D01*
X1441155Y1433186D01*
X1441359Y1433634D01*
X1447359Y1451134D01*
X1447500Y1451727D01*
X1447715Y1452298D01*
X1452965Y1471798D01*
X1453238Y1473439D01*
X1453531Y1475076D01*
X1453529Y1475186D01*
X1453547Y1475295D01*
X1453495Y1476957D01*
X1453462Y1478620D01*
X1453439Y1478729D01*
X1453435Y1478839D01*
X1453060Y1480459D01*
X1452704Y1482084D01*
X1452659Y1482186D01*
X1452634Y1482293D01*
X1451950Y1483808D01*
X1451284Y1485333D01*
X1451220Y1485424D01*
X1451175Y1485525D01*
X1450208Y1486877D01*
X1449257Y1488242D01*
X1449177Y1488319D01*
X1449113Y1488409D01*
X1447901Y1489547D01*
X1446702Y1490701D01*
X1446609Y1490760D01*
X1446528Y1490836D01*
X1445117Y1491716D01*
X1443716Y1492613D01*
X1443613Y1492654D01*
X1443519Y1492712D01*
X1441964Y1493300D01*
X1440415Y1493907D01*
X1432271Y1496206D01*
X1428780Y1496830D01*
D02*
G37*
G36*
X1200000Y1402124D02*
X1175944Y1401627D01*
X1153639Y1400242D01*
X1153646Y1400154D01*
X1151667Y1399959D01*
X1148463Y1398987D01*
X1145510Y1397408D01*
X1142921Y1395284D01*
X1140797Y1392695D01*
X1139218Y1389742D01*
X1138246Y1386538D01*
X1137918Y1383205D01*
X1138246Y1379872D01*
X1139218Y1376668D01*
X1140797Y1373715D01*
X1142921Y1371126D01*
X1145510Y1369002D01*
X1148463Y1367423D01*
X1151667Y1366451D01*
X1155000Y1366123D01*
X1156316Y1366252D01*
X1156357Y1366218D01*
X1156357Y1366218D01*
X1156357Y1366218D01*
X1177354Y1367522D01*
X1200000Y1367990D01*
X1222646Y1367522D01*
X1243643Y1366218D01*
X1243643Y1366218D01*
Y1366218D01*
X1243684Y1366252D01*
X1245000Y1366123D01*
X1248333Y1366451D01*
X1251537Y1367423D01*
X1254490Y1369002D01*
X1257079Y1371126D01*
X1259203Y1373715D01*
X1260782Y1376668D01*
X1261754Y1379872D01*
X1262082Y1383205D01*
X1261754Y1386538D01*
X1260782Y1389742D01*
X1259203Y1392695D01*
X1257079Y1395284D01*
X1254490Y1397408D01*
X1251537Y1398987D01*
X1248333Y1399959D01*
X1246354Y1400154D01*
X1246361Y1400242D01*
X1224056Y1401627D01*
X1200000Y1402124D01*
D02*
G37*
G36*
X1211128Y1333059D02*
X1188872D01*
X1188805Y1333046D01*
X1188738Y1333056D01*
X1166503Y1332085D01*
X1166437Y1332069D01*
X1166370Y1332076D01*
X1144198Y1330137D01*
X1144133Y1330118D01*
X1144065Y1330122D01*
X1121999Y1327217D01*
X1121935Y1327195D01*
X1121868Y1327197D01*
X1099949Y1323332D01*
X1099886Y1323307D01*
X1099818Y1323306D01*
X1078089Y1318489D01*
X1078027Y1318461D01*
X1077960Y1318457D01*
X1056461Y1312697D01*
X1056401Y1312666D01*
X1056333Y1312659D01*
X1035107Y1305966D01*
X1035048Y1305934D01*
X1034981Y1305924D01*
X1014066Y1298311D01*
X1014008Y1298276D01*
X1013942Y1298263D01*
X993380Y1289746D01*
X993323Y1289708D01*
X993258Y1289692D01*
X973086Y1280286D01*
X973032Y1280246D01*
X972967Y1280227D01*
X953225Y1269950D01*
X953172Y1269908D01*
X953108Y1269886D01*
X933833Y1258758D01*
X933782Y1258713D01*
X933719Y1258689D01*
X914948Y1246730D01*
X914899Y1246683D01*
X914837Y1246656D01*
X896606Y1233890D01*
X896559Y1233841D01*
X896498Y1233811D01*
X878841Y1220263D01*
X878796Y1220211D01*
X878737Y1220179D01*
X861687Y1205873D01*
X861645Y1205820D01*
X861587Y1205785D01*
X845178Y1190749D01*
X845138Y1190694D01*
X845081Y1190656D01*
X829344Y1174919D01*
X829306Y1174862D01*
X829251Y1174822D01*
X814215Y1158413D01*
X814180Y1158355D01*
X814127Y1158313D01*
X799821Y1141263D01*
X799789Y1141204D01*
X799737Y1141159D01*
X786189Y1123502D01*
X786159Y1123441D01*
X786110Y1123394D01*
X773344Y1105163D01*
X773317Y1105101D01*
X773270Y1105052D01*
X761311Y1086281D01*
X761287Y1086218D01*
X761242Y1086167D01*
X750114Y1066892D01*
X750092Y1066828D01*
X750050Y1066775D01*
X739773Y1047033D01*
X739754Y1046968D01*
X739714Y1046914D01*
X730308Y1026742D01*
X730292Y1026677D01*
X730254Y1026620D01*
X721737Y1006058D01*
X721724Y1005992D01*
X721689Y1005934D01*
X714076Y985019D01*
X714066Y984952D01*
X714034Y984893D01*
X707341Y963667D01*
X707334Y963599D01*
X707303Y963538D01*
X701543Y942040D01*
X701539Y941973D01*
X701511Y941911D01*
X696694Y920182D01*
X696693Y920114D01*
X696668Y920051D01*
X692803Y898132D01*
X692805Y898065D01*
X692783Y898001D01*
X689878Y875935D01*
X689882Y875867D01*
X689863Y875802D01*
X687924Y853630D01*
X687931Y853563D01*
X687915Y853497D01*
X686944Y831262D01*
X686954Y831195D01*
X686941Y831128D01*
Y820000D01*
Y808872D01*
X686954Y808805D01*
X686944Y808738D01*
X687915Y786503D01*
X687931Y786437D01*
X687924Y786370D01*
X689863Y764198D01*
X689882Y764133D01*
X689878Y764065D01*
X692783Y741999D01*
X692805Y741935D01*
X692803Y741868D01*
X696668Y719949D01*
X696693Y719886D01*
X696694Y719818D01*
X701511Y698089D01*
X701539Y698027D01*
X701543Y697960D01*
X707303Y676462D01*
X707334Y676401D01*
X707341Y676333D01*
X714034Y655107D01*
X714066Y655048D01*
X714076Y654981D01*
X721689Y634066D01*
X721724Y634008D01*
X721737Y633942D01*
X730254Y613380D01*
X730292Y613324D01*
X730308Y613258D01*
X739714Y593086D01*
X739754Y593032D01*
X739773Y592967D01*
X750050Y573225D01*
X750092Y573172D01*
X750114Y573108D01*
X761242Y553833D01*
X761287Y553782D01*
X761311Y553719D01*
X773270Y534948D01*
X773317Y534899D01*
X773344Y534837D01*
X786110Y516606D01*
X786159Y516559D01*
X786189Y516498D01*
X799737Y498841D01*
X799789Y498796D01*
X799821Y498737D01*
X814127Y481688D01*
X814180Y481645D01*
X814215Y481587D01*
X829251Y465178D01*
X829306Y465138D01*
X829344Y465081D01*
X845081Y449344D01*
X845138Y449306D01*
X845178Y449252D01*
X861587Y434215D01*
X861645Y434180D01*
X861687Y434127D01*
X878737Y419821D01*
X878796Y419789D01*
X878841Y419738D01*
X896498Y406189D01*
X896559Y406159D01*
X896606Y406110D01*
X914837Y393344D01*
X914899Y393317D01*
X914948Y393270D01*
X933719Y381311D01*
X933782Y381287D01*
X933833Y381242D01*
X953108Y370114D01*
X953172Y370092D01*
X953225Y370050D01*
X972967Y359773D01*
X973032Y359754D01*
X973086Y359714D01*
X993258Y350308D01*
X993323Y350292D01*
X993380Y350254D01*
X1013942Y341737D01*
X1014008Y341724D01*
X1014066Y341688D01*
X1034981Y334076D01*
X1035048Y334066D01*
X1035107Y334034D01*
X1056333Y327341D01*
X1056401Y327333D01*
X1056461Y327304D01*
X1077960Y321543D01*
X1078027Y321539D01*
X1078089Y321511D01*
X1099818Y316694D01*
X1099886Y316693D01*
X1099949Y316668D01*
X1121868Y312803D01*
X1121935Y312805D01*
X1121999Y312783D01*
X1144065Y309878D01*
X1144133Y309882D01*
X1144198Y309863D01*
X1166370Y307924D01*
X1166437Y307931D01*
X1166503Y307915D01*
X1188738Y306944D01*
X1188805Y306954D01*
X1188872Y306941D01*
X1211128D01*
X1211195Y306954D01*
X1211262Y306944D01*
X1233497Y307915D01*
X1233563Y307931D01*
X1233630Y307924D01*
X1255802Y309863D01*
X1255867Y309882D01*
X1255935Y309878D01*
X1278001Y312783D01*
X1278065Y312805D01*
X1278132Y312803D01*
X1300051Y316668D01*
X1300114Y316693D01*
X1300182Y316694D01*
X1321911Y321511D01*
X1321973Y321539D01*
X1322040Y321543D01*
X1343538Y327304D01*
X1343599Y327333D01*
X1343667Y327341D01*
X1364893Y334034D01*
X1364952Y334066D01*
X1365019Y334076D01*
X1385934Y341688D01*
X1385992Y341724D01*
X1386058Y341737D01*
X1406620Y350254D01*
X1406676Y350292D01*
X1406742Y350308D01*
X1426914Y359714D01*
X1426968Y359754D01*
X1427033Y359773D01*
X1446775Y370050D01*
X1446828Y370092D01*
X1446892Y370114D01*
X1466167Y381242D01*
X1466218Y381287D01*
X1466281Y381311D01*
X1485052Y393270D01*
X1485101Y393317D01*
X1485163Y393344D01*
X1503394Y406110D01*
X1503441Y406159D01*
X1503502Y406189D01*
X1521159Y419738D01*
X1521204Y419789D01*
X1521263Y419821D01*
X1538313Y434127D01*
X1538355Y434180D01*
X1538413Y434215D01*
X1554822Y449252D01*
X1554862Y449306D01*
X1554918Y449344D01*
X1570656Y465081D01*
X1570694Y465138D01*
X1570748Y465178D01*
X1585785Y481587D01*
X1585820Y481645D01*
X1585873Y481688D01*
X1600179Y498737D01*
X1600211Y498796D01*
X1600262Y498841D01*
X1613811Y516498D01*
X1613841Y516559D01*
X1613890Y516606D01*
X1626656Y534837D01*
X1626683Y534899D01*
X1626730Y534948D01*
X1638689Y553719D01*
X1638713Y553782D01*
X1638758Y553833D01*
X1649886Y573108D01*
X1649908Y573172D01*
X1649950Y573225D01*
X1660227Y592967D01*
X1660246Y593032D01*
X1660286Y593086D01*
X1669692Y613258D01*
X1669708Y613323D01*
X1669746Y613380D01*
X1678263Y633942D01*
X1678276Y634008D01*
X1678311Y634066D01*
X1685924Y654981D01*
X1685934Y655048D01*
X1685966Y655107D01*
X1692659Y676333D01*
X1692666Y676401D01*
X1692697Y676462D01*
X1698457Y697960D01*
X1698461Y698027D01*
X1698489Y698089D01*
X1703306Y719818D01*
X1703307Y719886D01*
X1703332Y719949D01*
X1707197Y741868D01*
X1707195Y741935D01*
X1707217Y741999D01*
X1710122Y764065D01*
X1710117Y764133D01*
X1710137Y764198D01*
X1712076Y786370D01*
X1712069Y786437D01*
X1712085Y786503D01*
X1713056Y808738D01*
X1713046Y808805D01*
X1713059Y808872D01*
Y820000D01*
Y831128D01*
X1713046Y831195D01*
X1713056Y831262D01*
X1712085Y853497D01*
X1712069Y853563D01*
X1712076Y853630D01*
X1710137Y875802D01*
X1710117Y875867D01*
X1710122Y875935D01*
X1707217Y898001D01*
X1707195Y898065D01*
X1707197Y898132D01*
X1703332Y920051D01*
X1703307Y920114D01*
X1703306Y920182D01*
X1698489Y941911D01*
X1698461Y941973D01*
X1698457Y942040D01*
X1692697Y963538D01*
X1692666Y963599D01*
X1692659Y963667D01*
X1685966Y984893D01*
X1685934Y984952D01*
X1685924Y985019D01*
X1678311Y1005934D01*
X1678276Y1005992D01*
X1678263Y1006058D01*
X1669746Y1026620D01*
X1669708Y1026676D01*
X1669692Y1026742D01*
X1660286Y1046914D01*
X1660246Y1046968D01*
X1660227Y1047033D01*
X1649950Y1066775D01*
X1649908Y1066828D01*
X1649886Y1066892D01*
X1638758Y1086167D01*
X1638713Y1086218D01*
X1638689Y1086281D01*
X1626730Y1105052D01*
X1626683Y1105101D01*
X1626656Y1105163D01*
X1613890Y1123394D01*
X1613841Y1123441D01*
X1613811Y1123502D01*
X1600262Y1141159D01*
X1600211Y1141204D01*
X1600179Y1141263D01*
X1585873Y1158313D01*
X1585820Y1158355D01*
X1585785Y1158413D01*
X1570748Y1174822D01*
X1570694Y1174862D01*
X1570656Y1174919D01*
X1554919Y1190656D01*
X1554862Y1190694D01*
X1554822Y1190749D01*
X1538413Y1205785D01*
X1538355Y1205820D01*
X1538313Y1205873D01*
X1521263Y1220179D01*
X1521204Y1220211D01*
X1521159Y1220263D01*
X1503502Y1233811D01*
X1503441Y1233841D01*
X1503394Y1233890D01*
X1485163Y1246656D01*
X1485101Y1246683D01*
X1485052Y1246730D01*
X1466281Y1258689D01*
X1466218Y1258713D01*
X1466167Y1258758D01*
X1446892Y1269886D01*
X1446828Y1269908D01*
X1446775Y1269950D01*
X1427033Y1280227D01*
X1426968Y1280246D01*
X1426914Y1280286D01*
X1406742Y1289692D01*
X1406676Y1289708D01*
X1406620Y1289746D01*
X1386058Y1298263D01*
X1385992Y1298276D01*
X1385934Y1298311D01*
X1365019Y1305924D01*
X1364952Y1305934D01*
X1364893Y1305966D01*
X1343667Y1312659D01*
X1343599Y1312666D01*
X1343538Y1312697D01*
X1322040Y1318457D01*
X1321973Y1318461D01*
X1321911Y1318489D01*
X1300182Y1323306D01*
X1300114Y1323307D01*
X1300051Y1323332D01*
X1278132Y1327197D01*
X1278065Y1327195D01*
X1278001Y1327217D01*
X1255935Y1330122D01*
X1255867Y1330118D01*
X1255802Y1330137D01*
X1233630Y1332076D01*
X1233563Y1332069D01*
X1233497Y1332085D01*
X1211262Y1333056D01*
X1211195Y1333046D01*
X1211128Y1333059D01*
D02*
G37*
G36*
X1449330Y1397086D02*
X1445997Y1396757D01*
X1442792Y1395785D01*
X1439839Y1394207D01*
X1437251Y1392082D01*
X1435126Y1389494D01*
X1433548Y1386541D01*
X1432576Y1383336D01*
X1432247Y1380003D01*
X1432576Y1376671D01*
X1433548Y1373466D01*
X1435126Y1370513D01*
X1437251Y1367924D01*
X1439839Y1365800D01*
X1442397Y1364433D01*
X1442369Y1364369D01*
X1449516Y1361242D01*
X1470573Y1351029D01*
X1491212Y1339997D01*
X1511403Y1328163D01*
X1513095Y1327080D01*
X1513103Y1327093D01*
X1515514Y1325804D01*
X1518719Y1324832D01*
X1522051Y1324504D01*
X1525384Y1324832D01*
X1528589Y1325804D01*
X1531542Y1327383D01*
X1534130Y1329507D01*
X1536255Y1332096D01*
X1537833Y1335049D01*
X1538805Y1338253D01*
X1539134Y1341586D01*
X1538805Y1344919D01*
X1537833Y1348123D01*
X1536255Y1351076D01*
X1534130Y1353665D01*
X1532023Y1355394D01*
X1531542Y1355789D01*
X1531026Y1356122D01*
X1531026Y1356122D01*
X1529238Y1357267D01*
X1507891Y1369778D01*
X1486069Y1381442D01*
X1463806Y1392240D01*
X1457404Y1395041D01*
X1456262Y1395574D01*
X1455867Y1395785D01*
X1455100Y1396018D01*
X1452662Y1396757D01*
X1449330Y1397086D01*
D02*
G37*
G36*
X842319Y1356811D02*
X840017Y1356250D01*
X839325Y1355871D01*
X839197Y1355845D01*
X838828Y1355599D01*
X837938Y1355112D01*
X837802Y1354982D01*
X820218Y1342726D01*
X799988Y1327413D01*
X780376Y1311317D01*
X761410Y1294464D01*
X743121Y1276879D01*
X725536Y1258590D01*
X708683Y1239624D01*
X692588Y1220012D01*
X677274Y1199782D01*
X662767Y1178968D01*
X649088Y1157599D01*
X636259Y1135710D01*
X624299Y1113334D01*
X613226Y1090506D01*
X603059Y1067261D01*
X593812Y1043635D01*
X585499Y1019663D01*
X578134Y995384D01*
X571728Y970835D01*
X566291Y946053D01*
X561830Y921076D01*
X558354Y895944D01*
X555867Y870694D01*
X554374Y845367D01*
X553876Y820000D01*
X554374Y794633D01*
X555867Y769306D01*
X558354Y744056D01*
X561830Y718924D01*
X566291Y693947D01*
X571728Y669165D01*
X578134Y644616D01*
X585499Y620337D01*
X593812Y596365D01*
X603059Y572739D01*
X613226Y549494D01*
X624299Y526666D01*
X636259Y504290D01*
X649088Y482401D01*
X662767Y461032D01*
X663909Y459394D01*
X677274Y440218D01*
X692588Y419988D01*
X708683Y400376D01*
X725536Y381410D01*
X743121Y363121D01*
X761410Y345536D01*
X780376Y328683D01*
X799988Y312588D01*
X820218Y297274D01*
X841032Y282767D01*
X862401Y269088D01*
X884290Y256259D01*
X906666Y244299D01*
X929494Y233226D01*
X952739Y223059D01*
X976365Y213812D01*
X1000337Y205499D01*
X1024616Y198134D01*
X1049165Y191728D01*
X1073947Y186291D01*
X1098924Y181830D01*
X1124056Y178354D01*
X1149306Y175867D01*
X1174633Y174374D01*
X1200000Y173876D01*
X1225367Y174374D01*
X1250694Y175867D01*
X1275944Y178354D01*
X1301076Y181830D01*
X1326053Y186291D01*
X1350835Y191728D01*
X1375384Y198134D01*
X1399663Y205499D01*
X1423635Y213812D01*
X1447261Y223059D01*
X1470506Y233226D01*
X1493334Y244299D01*
X1515710Y256259D01*
X1537599Y269088D01*
X1558967Y282767D01*
X1561232Y284345D01*
X1579782Y297274D01*
X1600012Y312588D01*
X1619624Y328683D01*
X1638590Y345536D01*
X1656879Y363121D01*
X1674464Y381410D01*
X1691317Y400376D01*
X1707413Y419988D01*
X1722726Y440218D01*
X1737233Y461032D01*
X1750912Y482401D01*
X1763741Y504290D01*
X1775701Y526666D01*
X1786774Y549494D01*
X1796941Y572739D01*
X1806188Y596365D01*
X1814501Y620337D01*
X1821866Y644616D01*
X1828272Y669165D01*
X1833709Y693947D01*
X1838170Y718924D01*
X1841646Y744056D01*
X1844133Y769306D01*
X1845626Y794633D01*
X1846125Y820000D01*
X1845626Y845367D01*
X1844133Y870694D01*
X1841646Y895944D01*
X1838170Y921076D01*
X1833709Y946053D01*
X1828272Y970835D01*
X1821866Y995384D01*
X1814501Y1019663D01*
X1806188Y1043635D01*
X1796941Y1067261D01*
X1786774Y1090506D01*
X1775701Y1113334D01*
X1763741Y1135710D01*
X1750912Y1157599D01*
X1737233Y1178968D01*
X1737163Y1179068D01*
X1736936Y1179582D01*
X1735450Y1181428D01*
X1735422Y1181448D01*
X1735356Y1181546D01*
X1734559Y1182079D01*
X1733537Y1182826D01*
X1731327Y1183682D01*
X1728971Y1183936D01*
X1726630Y1183572D01*
X1724462Y1182615D01*
X1708536Y1172919D01*
X1701399Y1183160D01*
X1701319Y1183102D01*
X1700446Y1184240D01*
X1698566Y1185682D01*
X1696376Y1186589D01*
X1694027Y1186899D01*
X1691678Y1186589D01*
X1689488Y1185682D01*
X1687608Y1184240D01*
X1686166Y1182360D01*
X1685259Y1180171D01*
X1684949Y1177821D01*
X1685259Y1175471D01*
X1686046Y1173572D01*
X1686166Y1173282D01*
X1686716Y1172525D01*
X1686716Y1172525D01*
X1698189Y1156063D01*
X1698214Y1156008D01*
X1698309Y1155889D01*
X1698375Y1155752D01*
X1709718Y1138446D01*
X1710130Y1137617D01*
X1711700Y1135841D01*
X1713675Y1134532D01*
X1715922Y1133779D01*
X1718287Y1133633D01*
X1720610Y1134104D01*
X1722731Y1135160D01*
X1722822Y1135222D01*
X1723667Y1135968D01*
X1724521Y1136704D01*
X1724554Y1136752D01*
X1724598Y1136791D01*
X1725220Y1137730D01*
X1725856Y1138663D01*
X1725875Y1138718D01*
X1725907Y1138766D01*
X1726265Y1139835D01*
X1726637Y1140900D01*
X1726641Y1140958D01*
X1726660Y1141013D01*
X1726729Y1142139D01*
X1726813Y1143263D01*
X1726802Y1143320D01*
X1726806Y1143378D01*
X1726582Y1144484D01*
X1726371Y1145591D01*
X1726346Y1145644D01*
X1726335Y1145701D01*
X1725832Y1146711D01*
X1725342Y1147726D01*
X1719205Y1157091D01*
X1719484Y1158329D01*
X1731401Y1165584D01*
X1740570Y1151262D01*
X1753158Y1129783D01*
X1764894Y1107828D01*
X1775758Y1085428D01*
X1785735Y1062619D01*
X1794809Y1039437D01*
X1802965Y1015915D01*
X1810192Y992092D01*
X1816478Y968003D01*
X1821813Y943686D01*
X1826190Y919179D01*
X1829601Y894518D01*
X1832041Y869743D01*
X1833506Y844891D01*
X1833995Y820000D01*
X1833506Y795109D01*
X1832041Y770257D01*
X1829601Y745482D01*
X1826190Y720821D01*
X1821813Y696314D01*
X1816478Y671997D01*
X1810192Y647908D01*
X1802965Y624085D01*
X1794809Y600564D01*
X1785735Y577381D01*
X1775758Y554572D01*
X1764894Y532172D01*
X1753158Y510216D01*
X1740570Y488738D01*
X1727148Y467771D01*
X1712913Y447347D01*
X1697887Y427497D01*
X1682094Y408253D01*
X1665557Y389644D01*
X1648302Y371698D01*
X1630356Y354443D01*
X1611747Y337906D01*
X1592503Y322113D01*
X1572653Y307087D01*
X1561959Y299634D01*
X1560713Y299878D01*
X1553118Y311602D01*
X1563160Y318601D01*
X1563102Y318681D01*
X1564240Y319554D01*
X1565682Y321434D01*
X1566589Y323624D01*
X1566899Y325973D01*
X1566589Y328322D01*
X1565682Y330512D01*
X1564240Y332392D01*
X1562360Y333834D01*
X1560170Y334741D01*
X1557821Y335051D01*
X1555471Y334741D01*
X1553572Y333954D01*
X1553282Y333834D01*
X1552525Y333284D01*
X1552525Y333284D01*
X1535924Y321714D01*
X1535793Y321651D01*
X1535606Y321493D01*
X1533891Y320297D01*
X1524126Y314046D01*
X1523058Y313363D01*
X1523057Y313362D01*
D01*
X1517883Y310050D01*
X1517905Y310015D01*
X1516270Y308760D01*
X1514827Y306880D01*
X1513920Y304691D01*
X1513611Y302341D01*
X1513920Y299992D01*
X1514827Y297802D01*
X1516270Y295922D01*
X1518150Y294480D01*
X1520339Y293573D01*
X1522688Y293263D01*
X1525038Y293573D01*
X1526345Y294114D01*
X1526370Y294125D01*
X1526371Y294125D01*
X1527227Y294480D01*
X1527473Y294666D01*
X1527473Y294666D01*
X1532151Y297660D01*
X1532504Y297806D01*
X1532822Y298050D01*
X1532822Y298051D01*
X1533130Y298287D01*
X1538065Y301446D01*
X1545663Y289718D01*
X1545394Y288477D01*
X1531262Y279430D01*
X1509783Y266842D01*
X1487828Y255106D01*
X1465428Y244242D01*
X1442619Y234265D01*
X1419436Y225191D01*
X1395915Y217035D01*
X1372092Y209808D01*
X1348003Y203522D01*
X1323686Y198187D01*
X1299179Y193810D01*
X1274518Y190399D01*
X1249743Y187959D01*
X1224891Y186494D01*
X1200000Y186005D01*
X1175109Y186494D01*
X1150257Y187959D01*
X1125482Y190399D01*
X1100821Y193810D01*
X1076314Y198187D01*
X1051997Y203522D01*
X1027908Y209808D01*
X1004085Y217035D01*
X980563Y225191D01*
X957381Y234265D01*
X934572Y244242D01*
X912172Y255106D01*
X890217Y266842D01*
X868738Y279430D01*
X847771Y292852D01*
X827347Y307087D01*
X807497Y322113D01*
X788253Y337906D01*
X769644Y354443D01*
X751698Y371698D01*
X734443Y389644D01*
X717906Y408253D01*
X702113Y427497D01*
X687087Y447347D01*
X679723Y457914D01*
X679963Y459161D01*
X691636Y466834D01*
X698601Y456840D01*
X698681Y456898D01*
X699554Y455760D01*
X701434Y454318D01*
X703624Y453411D01*
X705973Y453101D01*
X708322Y453411D01*
X710512Y454318D01*
X712392Y455760D01*
X713834Y457640D01*
X714741Y459830D01*
X715051Y462179D01*
X714741Y464529D01*
X713954Y466428D01*
X713834Y466718D01*
X713285Y467475D01*
X713284Y467475D01*
X701689Y484112D01*
X701618Y484258D01*
X701457Y484445D01*
X700297Y486109D01*
X694046Y495874D01*
X693363Y496942D01*
X693362Y496943D01*
D01*
X690050Y502117D01*
X690015Y502095D01*
X688760Y503730D01*
X686880Y505173D01*
X684691Y506080D01*
X682341Y506389D01*
X679992Y506080D01*
X677802Y505173D01*
X675922Y503730D01*
X674480Y501850D01*
X673573Y499661D01*
X673263Y497312D01*
X673573Y494962D01*
X674114Y493655D01*
X674125Y493630D01*
X674125Y493629D01*
X674480Y492773D01*
X674666Y492527D01*
X674666Y492527D01*
X677660Y487849D01*
X677806Y487496D01*
X678051Y487178D01*
X678051Y487178D01*
X678287Y486870D01*
X681479Y481884D01*
X669804Y474209D01*
X668562Y474474D01*
X659430Y488738D01*
X646842Y510216D01*
X635106Y532172D01*
X624242Y554572D01*
X614265Y577381D01*
X605191Y600564D01*
X597035Y624085D01*
X589808Y647908D01*
X583522Y671997D01*
X578187Y696314D01*
X573810Y720821D01*
X570399Y745482D01*
X567959Y770257D01*
X566494Y795109D01*
X566005Y820000D01*
X566494Y844891D01*
X567959Y869743D01*
X570399Y894518D01*
X573810Y919179D01*
X578187Y943686D01*
X583522Y968003D01*
X589808Y992092D01*
X597035Y1015915D01*
X605191Y1039437D01*
X614265Y1062619D01*
X624242Y1085428D01*
X635106Y1107828D01*
X646842Y1129783D01*
X659430Y1151262D01*
X672852Y1172229D01*
X687087Y1192653D01*
X702113Y1212503D01*
X717906Y1231747D01*
X734443Y1250356D01*
X751698Y1268302D01*
X769644Y1285557D01*
X788253Y1302094D01*
X807497Y1317887D01*
X827347Y1332913D01*
X837671Y1340108D01*
X845922Y1328836D01*
X845714Y1327583D01*
X836840Y1321399D01*
X836898Y1321319D01*
X835760Y1320446D01*
X834318Y1318566D01*
X833411Y1316376D01*
X833101Y1314027D01*
X833411Y1311678D01*
X834318Y1309488D01*
X835760Y1307608D01*
X837640Y1306166D01*
X839829Y1305259D01*
X842179Y1304949D01*
X844529Y1305259D01*
X846428Y1306046D01*
X846718Y1306166D01*
X847475Y1306716D01*
X847475Y1306716D01*
X863292Y1317739D01*
X864326Y1318461D01*
X864525Y1318578D01*
X864634Y1318642D01*
X864758Y1318762D01*
X865366Y1319185D01*
X866109Y1319703D01*
X875873Y1325953D01*
X876942Y1326638D01*
D01*
X878817Y1327838D01*
X879884Y1328521D01*
D01*
X882117Y1329950D01*
X882095Y1329985D01*
X883730Y1331240D01*
X885173Y1333120D01*
X886080Y1335309D01*
X886389Y1337659D01*
X886080Y1340008D01*
X885173Y1342198D01*
X883730Y1344078D01*
X881850Y1345520D01*
X879661Y1346427D01*
X877311Y1346736D01*
X874962Y1346427D01*
X873655Y1345886D01*
X873630Y1345875D01*
X873629Y1345875D01*
X872773Y1345520D01*
X872527Y1345334D01*
X872527Y1345334D01*
X870758Y1344202D01*
X870492Y1344091D01*
X870019Y1343729D01*
X868255Y1342599D01*
X867771Y1342307D01*
X867496Y1342194D01*
X867178Y1341949D01*
X866139Y1341245D01*
X861508Y1338281D01*
X850625Y1353148D01*
X848988Y1354862D01*
X846963Y1356093D01*
X844688Y1356758D01*
X842319Y1356811D01*
D02*
G37*
G36*
X1613660Y1254627D02*
X1609543Y1254221D01*
X1605585Y1253020D01*
X1601936Y1251070D01*
X1598739Y1248446D01*
X1596115Y1245248D01*
X1594165Y1241600D01*
X1592964Y1237642D01*
X1592558Y1233525D01*
X1592964Y1229408D01*
X1594165Y1225450D01*
X1596115Y1221802D01*
X1598739Y1218604D01*
X1601936Y1215980D01*
X1605585Y1214030D01*
X1609543Y1212829D01*
X1613660Y1212423D01*
X1617777Y1212829D01*
X1621735Y1214030D01*
X1625383Y1215980D01*
X1628581Y1218604D01*
X1631205Y1221802D01*
X1633155Y1225450D01*
X1634356Y1229408D01*
X1634762Y1233525D01*
X1634356Y1237642D01*
X1633155Y1241600D01*
X1631205Y1245248D01*
X1628581Y1248446D01*
X1625383Y1251070D01*
X1621735Y1253020D01*
X1617777Y1254221D01*
X1613660Y1254627D01*
D02*
G37*
G36*
X1714699Y1123584D02*
X1712349Y1123275D01*
X1710160Y1122368D01*
X1708280Y1120926D01*
X1706837Y1119046D01*
X1705930Y1116856D01*
X1705621Y1114507D01*
X1705930Y1112157D01*
X1706824Y1110001D01*
X1706779Y1109975D01*
X1709783Y1104688D01*
X1708633Y1098433D01*
X1699995Y1093892D01*
X1699864Y1093800D01*
X1699716Y1093738D01*
X1699005Y1093193D01*
X1698275Y1092677D01*
X1698172Y1092554D01*
X1698044Y1092456D01*
X1697500Y1091746D01*
X1696927Y1091058D01*
X1696860Y1090912D01*
X1696762Y1090785D01*
X1696420Y1089958D01*
X1696045Y1089146D01*
X1696017Y1088987D01*
X1695956Y1088838D01*
X1695839Y1087952D01*
X1695687Y1087070D01*
X1695702Y1086909D01*
X1695681Y1086750D01*
X1695798Y1085863D01*
X1695879Y1084972D01*
X1695935Y1084821D01*
X1695956Y1084662D01*
X1696298Y1083835D01*
X1696608Y1082995D01*
X1696700Y1082864D01*
X1696762Y1082716D01*
X1697307Y1082005D01*
X1697823Y1081275D01*
X1697946Y1081172D01*
X1698044Y1081044D01*
X1698754Y1080499D01*
X1699442Y1079927D01*
X1699588Y1079860D01*
X1699716Y1079762D01*
X1700542Y1079420D01*
X1701355Y1079045D01*
X1701513Y1079017D01*
X1701662Y1078956D01*
X1702549Y1078839D01*
X1703430Y1078687D01*
X1703591Y1078702D01*
X1703750Y1078681D01*
X1704637Y1078798D01*
X1705528Y1078879D01*
X1705679Y1078935D01*
X1705838Y1078956D01*
X1706665Y1079298D01*
X1707505Y1079608D01*
X1716013Y1084081D01*
X1721790Y1082062D01*
X1724034Y1077702D01*
X1724034Y1077702D01*
X1724275Y1077147D01*
X1724665Y1076640D01*
X1725718Y1075267D01*
X1727598Y1073825D01*
X1729787Y1072918D01*
X1732137Y1072608D01*
X1734486Y1072918D01*
X1736676Y1073825D01*
X1738555Y1075267D01*
X1739998Y1077147D01*
X1740905Y1079337D01*
X1741214Y1081686D01*
X1740905Y1084035D01*
X1740230Y1085666D01*
X1740230D01*
X1740217Y1085670D01*
X1736489Y1093355D01*
X1725344Y1114207D01*
X1723175Y1117907D01*
X1722574Y1119013D01*
X1722560Y1119046D01*
X1721841Y1119983D01*
X1721118Y1120926D01*
X1719238Y1122368D01*
X1717048Y1123275D01*
X1714699Y1123584D01*
D02*
G37*
G36*
X678359Y1158911D02*
X675026Y1158583D01*
X671822Y1157611D01*
X668869Y1156032D01*
X666280Y1153908D01*
X664551Y1151801D01*
X664156Y1151319D01*
X663823Y1150804D01*
X663823Y1150804D01*
X662678Y1149015D01*
X650167Y1127668D01*
X638503Y1105847D01*
X627705Y1083584D01*
X624904Y1077182D01*
X624371Y1076040D01*
X624160Y1075644D01*
X623927Y1074877D01*
X623188Y1072439D01*
X622859Y1069107D01*
X623188Y1065774D01*
X624160Y1062570D01*
X625738Y1059617D01*
X627863Y1057028D01*
X630451Y1054904D01*
X633405Y1053325D01*
X636609Y1052353D01*
X639942Y1052025D01*
X643274Y1052353D01*
X646479Y1053325D01*
X649432Y1054904D01*
X652021Y1057028D01*
X654145Y1059617D01*
X655512Y1062175D01*
X655576Y1062146D01*
X658703Y1069294D01*
X668916Y1090350D01*
X679948Y1110990D01*
X691782Y1131180D01*
X692865Y1132872D01*
X692852Y1132880D01*
X694141Y1135292D01*
X695113Y1138496D01*
X695441Y1141829D01*
X695113Y1145161D01*
X694141Y1148366D01*
X692562Y1151319D01*
X690438Y1153908D01*
X687850Y1156032D01*
X684896Y1157611D01*
X681692Y1158583D01*
X678359Y1158911D01*
D02*
G37*
G36*
X1759558Y586725D02*
X1756226Y586397D01*
X1753021Y585425D01*
X1750068Y583846D01*
X1747479Y581722D01*
X1745355Y579133D01*
X1743988Y576576D01*
X1743924Y576604D01*
X1740797Y569456D01*
X1730584Y548400D01*
X1719552Y527760D01*
X1707718Y507570D01*
X1706635Y505878D01*
X1706648Y505870D01*
X1705359Y503458D01*
X1704387Y500254D01*
X1704059Y496921D01*
X1704387Y493589D01*
X1705359Y490384D01*
X1706938Y487431D01*
X1709062Y484842D01*
X1711651Y482718D01*
X1714604Y481139D01*
X1717808Y480167D01*
X1721141Y479839D01*
X1724474Y480167D01*
X1727678Y481139D01*
X1730631Y482718D01*
X1733220Y484842D01*
X1734949Y486949D01*
X1735344Y487431D01*
X1735677Y487946D01*
X1735677Y487946D01*
X1736822Y489735D01*
X1749333Y511082D01*
X1760997Y532904D01*
X1771795Y555166D01*
X1774596Y561568D01*
X1775129Y562710D01*
X1775340Y563106D01*
X1775573Y563873D01*
X1776312Y566311D01*
X1776640Y569643D01*
X1776312Y572976D01*
X1775340Y576180D01*
X1773762Y579133D01*
X1771637Y581722D01*
X1769049Y583846D01*
X1766095Y585425D01*
X1762891Y586397D01*
X1759558Y586725D01*
D02*
G37*
G36*
X876671Y315691D02*
X873339Y315363D01*
X870134Y314391D01*
X867181Y312812D01*
X864592Y310688D01*
X862468Y308099D01*
X860889Y305146D01*
X859917Y301942D01*
X859589Y298609D01*
X859917Y295277D01*
X860889Y292072D01*
X862468Y289119D01*
X864592Y286530D01*
X866699Y284801D01*
X867181Y284406D01*
X867696Y284073D01*
X867696Y284073D01*
X869485Y282928D01*
X890832Y270417D01*
X912653Y258753D01*
X934916Y247955D01*
X941318Y245154D01*
X942460Y244621D01*
X942856Y244410D01*
X943623Y244177D01*
X946060Y243438D01*
X949393Y243109D01*
X952726Y243438D01*
X955930Y244410D01*
X958883Y245988D01*
X961472Y248113D01*
X963596Y250701D01*
X965175Y253655D01*
X966147Y256859D01*
X966475Y260192D01*
X966147Y263524D01*
X965175Y266729D01*
X963596Y269682D01*
X961472Y272271D01*
X958883Y274395D01*
X956326Y275762D01*
X956354Y275826D01*
X949206Y278953D01*
X928150Y289166D01*
X907510Y300198D01*
X887320Y312032D01*
X885628Y313115D01*
X885620Y313102D01*
X883208Y314391D01*
X880004Y315363D01*
X876671Y315691D01*
D02*
G37*
%LPD*%
G36*
X1018080Y1426488D02*
X999603Y1421159D01*
X995542Y1434852D01*
X1014000Y1440000D01*
X1018080Y1426488D01*
D02*
G37*
G36*
X1067471Y1360591D02*
X1030749Y1350000D01*
X1026641Y1363853D01*
X1063391Y1374103D01*
X1067471Y1360591D01*
D02*
G37*
G36*
X932500Y1335500D02*
X924250Y1331250D01*
X905493Y1334699D01*
X938314Y1352137D01*
X932500Y1335500D01*
D02*
G37*
G36*
X1754103Y956609D02*
X1740591Y952529D01*
X1730000Y989251D01*
X1743853Y993359D01*
X1754103Y956609D01*
D02*
G37*
G36*
X670000Y650750D02*
X656147Y646642D01*
X645897Y683392D01*
X659408Y687472D01*
X670000Y650750D01*
D02*
G37*
G36*
X684500Y552500D02*
X688750Y544250D01*
X685301Y525493D01*
X667863Y558314D01*
X684500Y552500D01*
D02*
G37*
G36*
X1494507Y305301D02*
X1461686Y287863D01*
X1467500Y304500D01*
X1475750Y308750D01*
X1494507Y305301D01*
D02*
G37*
G36*
X1373359Y276147D02*
X1336609Y265897D01*
X1332529Y279408D01*
X1369251Y290000D01*
X1373359Y276147D01*
D02*
G37*
G36*
X1341000Y1415250D02*
X1333213Y1379096D01*
X1314500Y1384500D01*
X1322721Y1419369D01*
X1341000Y1415250D01*
D02*
G37*
G36*
X1435500Y1476500D02*
X1424627Y1440599D01*
X1404199Y1447617D01*
X1414097Y1484559D01*
X1435500Y1476500D01*
D02*
G37*
G36*
X1732137Y1081686D02*
X1715500Y1087500D01*
X1711250Y1095750D01*
X1714699Y1114507D01*
X1732137Y1081686D01*
D02*
G37*
D12*
X1703750Y1086750D02*
X1713299Y1091770D01*
X1466500Y317000D02*
X1471909Y306775D01*
X686625Y548375D02*
X695500Y553000D01*
X928375Y1333375D02*
X933000Y1324500D01*
X1504000Y1758750D02*
X1523750Y1739000D01*
Y1542000D02*
Y1739000D01*
X1519250Y1537500D02*
X1523750Y1542000D01*
X875500Y1794250D02*
X888000Y1806750D01*
X875500Y1541265D02*
Y1794250D01*
Y1541265D02*
X884969Y1531796D01*
X888000Y1806750D02*
X959750D01*
X1432250Y1758750D02*
X1504000D01*
X1403250Y1787750D02*
X1432250Y1758750D01*
X1403250Y1787750D02*
Y1807500D01*
D73*
X1740591Y952529D02*
G03*
X1735897Y970391I-540592J-132528D01*
G01*
X1368879Y289639D02*
G03*
X1740591Y952529I-168879J530361D01*
G01*
X1350393Y284104D02*
G03*
X1368879Y289639I-150393J535896D01*
G01*
X1332529Y279408D02*
G03*
X1350391Y284103I-132528J540592D01*
G01*
X1049607Y1355896D02*
G03*
X1031121Y1350361I150393J-535896D01*
G01*
D02*
G03*
X659408Y687472I168879J-530361D01*
G01*
X664103Y669608D02*
G03*
X669639Y651122I535897J150392D01*
G01*
D02*
G03*
X1332529Y279408I530361J168878D01*
G01*
X659408Y687472D02*
G03*
X664103Y669609I540592J132528D01*
G01*
X1557835Y289383D02*
G03*
X1731031Y1177220I-357835J530617D01*
G01*
X668961Y462792D02*
G03*
X1557835Y289383I531039J357208D01*
G01*
X841538Y1350193D02*
G03*
X668961Y462792I358462J-530193D01*
G01*
X1705967Y1160729D02*
X1705967Y1160728D01*
X1694027Y1177821D02*
X1705967Y1160728D01*
X1540728Y314033D02*
X1557821Y325973D01*
X1540728Y314033D02*
X1540729Y314033D01*
X1527965Y305668D02*
X1540728Y314033D01*
X1527964Y305667D02*
X1527965Y305668D01*
X1527964Y305667D02*
X1527964Y305667D01*
X1527964Y305667D02*
X1527964Y305667D01*
X1522750Y302250D02*
X1527964Y305667D01*
X872035Y1334332D02*
X874482Y1336779D01*
X872035Y1334332D02*
X872035Y1334332D01*
X859272Y1325967D02*
X872035Y1334332D01*
X859271Y1325967D02*
X859272Y1325967D01*
X842179Y1314027D02*
X859272Y1325967D01*
X694033Y479272D02*
X705973Y462179D01*
X682250Y497250D02*
X685667Y492036D01*
X685668Y492035D02*
X694033Y479272D01*
X694033Y479271D01*
X685667Y492036D02*
X685667Y492036D01*
X685667Y492036D02*
X685667Y492036D01*
X685667Y492036D02*
X685668Y492035D01*
D75*
X1705967Y1160729D02*
G03*
X1694027Y1177821I-505967J-340729D01*
G01*
X1540729Y314033D02*
G03*
X1557821Y325973I-340729J505967D01*
G01*
X1527965Y305668D02*
G03*
X1540728Y314033I-327965J514332D01*
G01*
X1522688Y302341D02*
G03*
X1527964Y305667I-322689J517659D01*
G01*
X875031Y1336230D02*
G03*
X872035Y1334332I324969J-516230D01*
G01*
X872035Y1334332D02*
G03*
X859272Y1325967I327965J-514332D01*
G01*
X859271Y1325967D02*
G03*
X842179Y1314027I340729J-505967D01*
G01*
X685668Y492035D02*
G03*
X694033Y479272I514332J327965D01*
G01*
X694033Y479271D02*
G03*
X705973Y462179I505967J340729D01*
G01*
X682341Y497312D02*
G03*
X685667Y492036I517659J322689D01*
G01*
X667863Y558314D02*
G03*
X685301Y525493I532137J261686D01*
G01*
X1732137Y1081686D02*
G03*
X1714699Y1114507I-532137J-261686D01*
G01*
X938314Y1352137D02*
G03*
X905493Y1334699I261686J-532137D01*
G01*
X1461686Y287863D02*
G03*
X1494507Y305301I-261686J532137D01*
G01*
X877311Y1337659D02*
G03*
X875031Y1336230I322689J-517659D01*
G01*
X994750Y1439750D02*
X1012750Y1445500D01*
X1017787Y1427461D01*
X1000217Y1421794D02*
X1017787Y1427461D01*
X994750Y1439750D02*
X1000217Y1421794D01*
X1705967Y1160728D02*
X1729182Y1174861D01*
X1705967Y1160728D02*
X1717750Y1142750D01*
X1540728Y314033D02*
X1555000Y292000D01*
X843300Y1347787D02*
X859272Y1325967D01*
X671922Y464738D02*
X694033Y479272D01*
X1730361Y988879D02*
X1735896Y970393D01*
X1735897Y970392D02*
X1735897Y970391D01*
X1735897Y970391D01*
X1735897Y970392D02*
X1735897Y970392D01*
X1735897Y970391D02*
X1735897Y970391D01*
X1049609Y1355897D02*
X1067499Y1360500D01*
X1049609Y1355897D02*
X1049609Y1355897D01*
X1049609Y1355897D02*
X1049609Y1355897D01*
X1049608Y1355897D02*
X1049609Y1355897D01*
X1740591Y952529D02*
X1754103Y956609D01*
X1735897Y970391D02*
X1740500Y952501D01*
X1350393Y284104D02*
X1368879Y289639D01*
X1350392Y284103D02*
X1350392Y284103D01*
X1350392Y284103D02*
X1350392Y284103D01*
X1350391Y284103D02*
X1350392Y284103D01*
X1350391Y284103D02*
X1350391Y284103D01*
X1332501Y279500D02*
X1350391Y284103D01*
X1332529Y279408D02*
X1336609Y265897D01*
X1008683Y1423562D02*
X1026444Y1364510D01*
X1049608Y1355897D02*
X1049608Y1355897D01*
X1026492Y1364521D02*
X1036070Y1366677D01*
X1031121Y1350361D02*
X1049607Y1355896D01*
X664103Y669608D02*
X669639Y651122D01*
X659500Y687500D02*
X664103Y669609D01*
X645897Y683392D02*
X659408Y687472D01*
X664103Y669609D02*
Y669609D01*
X664103Y669609D01*
X1717659Y1142689D02*
X1717750Y1142750D01*
X1008569Y1423942D02*
X1008683Y1423562D01*
X1026444Y1364510D02*
X1026492Y1364521D01*
X1036070Y1366677D02*
X1045499Y1369500D01*
X1026642Y1363853D02*
X1036070Y1366677D01*
X1026641Y1363853D02*
X1026642Y1363853D01*
Y1363853D02*
Y1363853D01*
X1045499Y1369500D02*
X1063391Y1374103D01*
X1067471Y1360591D01*
X1026641Y1363853D02*
X1030749Y1350250D01*
X1749500Y974501D02*
X1754103Y956609D01*
X1743853Y993359D02*
X1749500Y974501D01*
X1730250Y989251D02*
X1743853Y993359D01*
X1336609Y265897D02*
X1354501Y270500D01*
X1373359Y276147D01*
X1369251Y289750D02*
X1373359Y276147D01*
X656147Y646642D02*
X669750Y650750D01*
X650500Y665500D02*
X656147Y646642D01*
X645897Y683392D02*
X650500Y665500D01*
D84*
X994500Y1364250D02*
D03*
X967750Y1354750D02*
D03*
X1415000Y1415250D02*
D03*
X1409500Y1398250D02*
D03*
X1216250Y1496250D02*
D03*
X1183750Y1495500D02*
D03*
X1703750Y1086750D02*
D03*
X1466500Y317000D02*
D03*
X994750Y1439750D02*
D03*
X1017787Y1427461D02*
D03*
X1012750Y1445500D02*
D03*
X927000Y373000D02*
D03*
X894000Y395000D02*
D03*
X863500Y419250D02*
D03*
X832750Y447000D02*
D03*
X805500Y476500D02*
D03*
X1594500Y1163500D02*
D03*
X1567250Y1193000D02*
D03*
X1536500Y1220750D02*
D03*
X1506000Y1245000D02*
D03*
X1473000Y1267000D02*
D03*
X1097250Y306000D02*
D03*
X1130000Y299750D02*
D03*
X1062500Y314250D02*
D03*
X1028500Y324750D02*
D03*
X994000Y338250D02*
D03*
X958750Y355750D02*
D03*
X1302750Y1334000D02*
D03*
X1270000Y1340250D02*
D03*
X1337500Y1325750D02*
D03*
X1371500Y1315250D02*
D03*
X1406000Y1301750D02*
D03*
X1441000Y1286000D02*
D03*
X1714000Y922567D02*
D03*
X1720250Y889817D02*
D03*
X1705750Y957317D02*
D03*
X1695250Y991317D02*
D03*
X1681750Y1025817D02*
D03*
X1666000Y1060817D02*
D03*
X1302750Y306000D02*
D03*
X1270000Y299750D02*
D03*
X1337500Y314250D02*
D03*
X1371500Y324750D02*
D03*
X1406000Y338250D02*
D03*
X1441000Y354000D02*
D03*
X686000Y717067D02*
D03*
X679750Y749817D02*
D03*
X694250Y682317D02*
D03*
X704750Y648317D02*
D03*
X718250Y613817D02*
D03*
X734000Y578817D02*
D03*
X959000Y1286000D02*
D03*
X994000Y1301750D02*
D03*
X1028500Y1315250D02*
D03*
X1062500Y1325750D02*
D03*
X1130000Y1340250D02*
D03*
X1097250Y1334000D02*
D03*
X1414500Y1341000D02*
D03*
X1396000Y1349250D02*
D03*
X1377250Y1355750D02*
D03*
X1360000Y1360000D02*
D03*
X1145000Y1920000D02*
D03*
X1160000D02*
D03*
Y1905000D02*
D03*
X1145000D02*
D03*
X1160000Y1890000D02*
D03*
X1145000D02*
D03*
X943750Y1910250D02*
D03*
X958750D02*
D03*
Y1895250D02*
D03*
X943750D02*
D03*
X958750Y1880250D02*
D03*
X943750D02*
D03*
X1235000Y1705000D02*
D03*
X1250000D02*
D03*
Y1690000D02*
D03*
X1235000D02*
D03*
X1250000Y1675000D02*
D03*
X1235000D02*
D03*
X1515000Y1480000D02*
D03*
X1530000D02*
D03*
Y1465000D02*
D03*
X1515000D02*
D03*
X1530000Y1450000D02*
D03*
X1515000D02*
D03*
X875000D02*
D03*
X890000D02*
D03*
X875000Y1465000D02*
D03*
X890000D02*
D03*
Y1480000D02*
D03*
X875000D02*
D03*
X1131750Y1376250D02*
D03*
X1099750Y1391500D02*
D03*
X1105000Y1370500D02*
D03*
X1333213Y1379096D02*
D03*
X857750Y341500D02*
D03*
X1678750Y477250D02*
D03*
X1640683Y1206683D02*
D03*
X1656433Y1186183D02*
D03*
X1675183Y1200933D02*
D03*
X1657683Y1222683D02*
D03*
X1555683Y1317183D02*
D03*
X1561433Y1283683D02*
D03*
X1577183Y1301683D02*
D03*
X1583433Y1265183D02*
D03*
X1599433Y1282433D02*
D03*
X1542683Y1297933D02*
D03*
X722250Y1162500D02*
D03*
X664250Y1029250D02*
D03*
X654750Y1005250D02*
D03*
X646750Y978250D02*
D03*
X607250Y925750D02*
D03*
X613500Y956000D02*
D03*
X620250Y984250D02*
D03*
X639500Y949750D02*
D03*
X633500Y921250D02*
D03*
X630000Y722000D02*
D03*
X621250Y696250D02*
D03*
X628000Y666250D02*
D03*
X638750Y633750D02*
D03*
X658500Y616500D02*
D03*
X737750Y1219250D02*
D03*
X755000Y1203250D02*
D03*
X718500Y1197000D02*
D03*
X736500Y1181250D02*
D03*
X703000Y1175500D02*
D03*
X797500Y1277500D02*
D03*
X819250Y1295000D02*
D03*
X834000Y1276250D02*
D03*
X813500Y1260500D02*
D03*
X602250Y898750D02*
D03*
X1735750Y610750D02*
D03*
X1745250Y634750D02*
D03*
X1753250Y661750D02*
D03*
X1792750Y714250D02*
D03*
X1786500Y684000D02*
D03*
X1779750Y655750D02*
D03*
X1760500Y690250D02*
D03*
X1766500Y718750D02*
D03*
X1770000Y918000D02*
D03*
X1778750Y943750D02*
D03*
X1772000Y973750D02*
D03*
X1761250Y1006250D02*
D03*
X1741500Y1023500D02*
D03*
X1662250Y420750D02*
D03*
X1645000Y436750D02*
D03*
X1681500Y443000D02*
D03*
X1663500Y458750D02*
D03*
X1697000Y464500D02*
D03*
X1602500Y362500D02*
D03*
X1580750Y345000D02*
D03*
X1566000Y363750D02*
D03*
X1586500Y379500D02*
D03*
X1797750Y741250D02*
D03*
X1121250Y222250D02*
D03*
X759500Y433500D02*
D03*
X743750Y454000D02*
D03*
X725000Y439250D02*
D03*
X742500Y417500D02*
D03*
X844500Y323000D02*
D03*
X838750Y356500D02*
D03*
X823000Y338500D02*
D03*
X816750Y375000D02*
D03*
X800750Y357750D02*
D03*
X1403500Y278500D02*
D03*
X1386250Y258750D02*
D03*
X1353750Y248000D02*
D03*
X1323750Y241250D02*
D03*
X1298000Y250000D02*
D03*
X1098750Y253500D02*
D03*
X1070250Y259500D02*
D03*
X1035750Y240250D02*
D03*
X1064000Y233500D02*
D03*
X1094250Y227250D02*
D03*
X1041750Y266750D02*
D03*
X1014750Y274750D02*
D03*
X990750Y284250D02*
D03*
X1452250Y1376500D02*
D03*
X655445Y1097027D02*
D03*
X664195Y1113527D02*
D03*
X643445Y1072027D02*
D03*
X648945Y1084027D02*
D03*
X1744055Y541723D02*
D03*
X1735305Y525223D02*
D03*
X1756055Y566723D02*
D03*
X1750555Y554723D02*
D03*
X921473Y275695D02*
D03*
X904973Y284445D02*
D03*
X946473Y263695D02*
D03*
X934473Y269195D02*
D03*
X1464250Y1371000D02*
D03*
X1493750Y1355750D02*
D03*
X1477250Y1364500D02*
D03*
X1377928Y1437647D02*
D03*
X1356078Y1445831D02*
D03*
X1723199Y1097167D02*
D03*
X1732317Y1082067D02*
D03*
X1715317Y1113567D02*
D03*
X1477350Y296618D02*
D03*
X1462250Y287500D02*
D03*
X1493750Y304500D02*
D03*
X676618Y542649D02*
D03*
X667500Y557750D02*
D03*
X684500Y526250D02*
D03*
X695500Y553000D02*
D03*
X933000Y1324500D02*
D03*
X906250Y1335500D02*
D03*
X937750Y1352500D02*
D03*
X922650Y1343382D02*
D03*
X1224250Y1384750D02*
D03*
X1176000D02*
D03*
X1209750Y1385000D02*
D03*
X1190750D02*
D03*
X1337500Y1399000D02*
D03*
X1341000Y1415250D02*
D03*
X1424250Y1439500D02*
D03*
X1088750Y1468500D02*
D03*
X1109000Y1471500D02*
D03*
X1261500Y1407000D02*
D03*
X1263750Y1432000D02*
D03*
X1068500Y1487000D02*
D03*
X1091750Y1490750D02*
D03*
X1294250Y1401500D02*
D03*
X1430250Y1457000D02*
D03*
X1435500Y1476500D02*
D03*
X1355250Y1462000D02*
D03*
X1357125Y1425375D02*
D03*
X1378375Y1419625D02*
D03*
X1514000Y1847000D02*
D03*
Y1787000D02*
D03*
Y1802000D02*
D03*
Y1862000D02*
D03*
Y1817000D02*
D03*
Y1832000D02*
D03*
X1481000Y1862000D02*
D03*
X1496000D02*
D03*
X1466000D02*
D03*
X1466000Y1787000D02*
D03*
X1496000D02*
D03*
X1481000D02*
D03*
X1094000Y1786000D02*
D03*
X1109000D02*
D03*
X1079000D02*
D03*
X1079000Y1861000D02*
D03*
X1109000D02*
D03*
X1094000D02*
D03*
X1127000Y1831000D02*
D03*
Y1816000D02*
D03*
Y1861000D02*
D03*
Y1801000D02*
D03*
Y1786000D02*
D03*
Y1846000D02*
D03*
X1000217Y1421794D02*
D03*
X1519250Y1537500D02*
D03*
X1403250Y1807500D02*
D03*
X959750Y1806750D02*
D03*
X884969Y1531796D02*
D03*
X1049608Y1355897D02*
D03*
X1067500Y1360500D02*
D03*
X1030750Y1350250D02*
D03*
X1026642Y1363853D02*
D03*
X1063392Y1374103D02*
D03*
X1045500Y1369500D02*
D03*
X1735897Y970392D02*
D03*
X1740500Y952500D02*
D03*
X1730250Y989250D02*
D03*
X1743853Y993358D02*
D03*
X1754103Y956608D02*
D03*
X1749500Y974500D02*
D03*
X1350392Y284103D02*
D03*
X1332500Y279500D02*
D03*
X1369250Y289750D02*
D03*
X1373358Y276147D02*
D03*
X1336608Y265897D02*
D03*
X1354500Y270500D02*
D03*
X650500Y665500D02*
D03*
X645897Y683392D02*
D03*
X656147Y646642D02*
D03*
X669750Y650750D02*
D03*
X659500Y687500D02*
D03*
X664103Y669608D02*
D03*
X1705967Y1160728D02*
D03*
X1694027Y1177821D02*
D03*
X1717750Y1142750D02*
D03*
X1540728Y314033D02*
D03*
X1557821Y325973D02*
D03*
X1522750Y302250D02*
D03*
X694033Y479272D02*
D03*
X705973Y462179D02*
D03*
X682250Y497250D02*
D03*
X877250Y1337750D02*
D03*
X842179Y1314027D02*
D03*
X859272Y1325967D02*
D03*
D115*
X1423318Y1439877D02*
X1423319D01*
X1417434Y1442259D02*
X1423318Y1439877D01*
X1423319Y1439877D02*
X1424250Y1439500D01*
X1423319Y1439877D02*
X1423319Y1439877D01*
X1427356Y1478799D02*
X1435500Y1476500D01*
X1424250Y1439500D02*
X1430250Y1457000D01*
X1435500Y1476500D01*
D117*
X1333213Y1379096D02*
X1337500Y1399000D01*
X1311930Y1384379D02*
X1333213Y1379096D01*
X1311930Y1384379D02*
X1321127Y1419729D01*
X1341000Y1415250D01*
X1337500Y1399000D02*
X1341000Y1415250D01*
D131*
X1200000Y1622500D02*
D03*
X1250000D02*
D03*
X1225000D02*
D03*
X1150000D02*
D03*
X1175000D02*
D03*
D132*
X1309500Y1926250D02*
D03*
X1084000Y1926250D02*
D03*
D133*
X1309500Y1951250D02*
D03*
X1084000Y1951250D02*
D03*
D134*
X1490750Y1666500D02*
D03*
X911000D02*
D03*
D135*
X1490750Y1716500D02*
D03*
X911000D02*
D03*
D136*
X678359Y1141829D02*
G03*
X639942Y1069107I521586J-322051D01*
G01*
X1721141Y496921D02*
G03*
X1759558Y569643I-521586J322051D01*
G01*
X876671Y298609D02*
G03*
X949393Y260192I322051J521586D01*
G01*
X1245000Y1383205D02*
G03*
X1155000Y1383205I-45000J-563205D01*
G01*
X1522051Y1341586D02*
G03*
X1449330Y1380003I-322051J-521586D01*
G01*
M02*
