M48
;Layer_Color=9474304
;FILE_FORMAT=4:4
METRIC,LZ
;TYPE=PLATED
T1F00S00C0.5000
T2F00S00C1.0000
;TYPE=NON_PLATED
T3F00S00C3.2000
%
T01
X0080075Y0035775
X0081675Y00375
X0083875Y003565
X00823Y003385
X008445Y00323
X0085775Y003415
X00894Y00395
X00927Y00373
X0095875Y0035575
X00994Y0033825
X010285Y0032475
X010625Y0031425
X0109725Y00306
X0113Y0029975
X0109875Y002535
X0109425Y0022725
X0112125Y0022225
X01064Y002335
X0107025Y002595
X0104175Y0026675
X0103575Y0024025
X0101475Y0027475
X0099075Y0028425
X00946473Y00263695
X00934473Y00269195
X00921473Y00275695
X00904973Y00284445
X0127Y0029975
X0130275Y00306
X013375Y0031425
X013325Y002795
X01336608Y00265897
X013545Y002705
X01350392Y00284103
X0136925Y0028975
X01373358Y00276147
X0138625Y0025875
X014035Y002785
X01406Y0033825
X013715Y0032475
X0135375Y00248
X0132375Y0024125
X01298Y0025
X0146225Y002875
X0147735Y00296618
X0149375Y003045
X0152275Y0030225
X01540728Y00314033
X01557821Y00325973
X0158075Y00345
X01566Y0036375
X015865Y003795
X01441Y00354
X014665Y00317
X016025Y003625
X01645Y0043675
X0166225Y0042075
X016635Y0045875
X016815Y00443
X0167875Y0047725
X01697Y004645
X01735305Y00525223
X01744055Y00541723
X01750555Y00554723
X01756055Y00566723
X0173575Y0061075
X0174525Y0063475
X0175325Y0066175
X0177975Y0065575
X017865Y00684
X017605Y0069025
X017665Y0071875
X0179275Y0071425
X0179775Y0074125
X008635Y0041925
X0083275Y00447
X008055Y004765
X0074375Y00454
X00725Y0043925
X007425Y004175
X007595Y004335
X00705973Y00462179
X00694033Y00479272
X0068225Y0049725
X006845Y0052625
X00676618Y00542649
X006675Y0055775
X006955Y00553
X00734Y00578817
X0071825Y00613817
X0070475Y00648317
X0066975Y0065075
X00656147Y00646642
X006505Y006655
X00664103Y00669608
X006595Y006875
X00645897Y00683392
X00628Y0066625
X0062125Y0069625
X0063Y00722
X00686Y00717067
X0067975Y00749817
X0069425Y00682317
X006585Y006165
X0063875Y0063375
X006335Y0092125
X0060725Y0092575
X0060225Y0089875
X006135Y00956
X006395Y0094975
X0064675Y0097825
X0062025Y0098425
X0065475Y0100525
X0066425Y0102925
X00643445Y01072027
X00648945Y01084027
X00655445Y01097027
X00664195Y01113527
X00703Y011755
X0072225Y011625
X007365Y0118125
X015945Y011635
X01656433Y01186183
X01694027Y01177821
X01705967Y01160728
X0171775Y0114275
X01715317Y01113567
X01723199Y01097167
X01732317Y01082067
X0170375Y0108675
X01666Y01060817
X0168175Y01025817
X0169525Y00991317
X0173025Y0098925
X01743853Y00993358
X017495Y009745
X01735897Y00970392
X017405Y009525
X01754103Y00956608
X01772Y0097375
X0177875Y0094375
X0177Y00918
X01714Y00922567
X0172025Y00889817
X0170575Y00957317
X017415Y010235
X0176125Y0100625
X01675183Y01200933
X01657683Y01222683
X01640683Y01206683
X01599433Y01282433
X01583433Y01265183
X01561433Y01283683
X01542683Y01297933
X01555683Y01317183
X01577183Y01301683
X0156725Y01193
X015365Y0122075
X01506Y01245
X01473Y01267
X01441Y01286
X01406Y0130175
X014145Y01341
X01396Y0134925
X0137725Y0135575
X0136Y0136
X01333213Y01379096
X013375Y01399
X01341Y0141525
X01357125Y01425375
X01356078Y01445831
X0135525Y01462
X01377928Y01437647
X01378375Y01419625
X01415Y0141525
X014095Y0139825
X0142425Y014395
X0143025Y01457
X014355Y014765
X01515Y0148
X0153
Y01465
X01515
Y0145
X0153
X0151925Y015375
X0149375Y0135575
X0147725Y013645
X0146425Y01371
X0145225Y013765
X013715Y0131525
X013375Y0132575
X0130275Y01334
X0127Y0134025
X012615Y01407
X0126375Y01432
X0129425Y014015
X0122425Y0138475
X0120975Y01385
X0119075
X0121625Y0149625
X0118375Y014955
X0109175Y0149075
X0108875Y014685
X01109Y014715
X010685Y01487
X0101275Y014455
X01017787Y01427461
X01000217Y01421794
X0099475Y0143975
X009945Y0136425
X01026642Y01363853
X0103075Y0135025
X01049608Y01355897
X010455Y013695
X01063392Y01374103
X010675Y013605
X010625Y0132575
X0109725Y01334
X0113Y0134025
X0113175Y0137625
X01105Y013705
X0109975Y013915
X01176Y0138475
X010285Y0131525
X00994Y0130175
X00959Y01286
X00933Y013245
X0092265Y01343382
X0093775Y013525
X0096775Y0135475
X0090625Y013355
X0087725Y0133775
X00859272Y01325967
X00842179Y01314027
X0081925Y01295
X00834Y0127625
X008135Y012605
X007975Y012775
X00875Y0145
X0089
Y01465
X00875
Y0148
X0089
X00884969Y01531796
X00755Y0120325
X0073775Y0121925
X007185Y01197
X0095975Y0180675
X0095875Y0188025
Y0189525
Y0191025
X0094375
Y0189525
Y0188025
X01079Y01861
X01094
X01109
X01127
Y01846
Y01831
Y01816
Y01801
Y01786
X01109Y01786
X01094
X01079
X01145Y0189
Y01905
Y0192
X0116
Y01905
Y0189
X01235Y01705
X0125
Y0169
X01235
Y01675
X0125
X0140325Y018075
X01466Y01787
X01481
X01496
X01514Y01787
Y01802
Y01817
Y01832
Y01847
Y01862
X01496
X01481
X01466
T02
X00911Y016665
Y017165
X0115Y016225
X01175
X01084Y0192625
Y0195125
X013095Y0195125
Y0192625
X0125Y016225
X01225
X012
X0149075Y016665
Y017165
T03
X0161366Y00406475
X0078634
X0161366Y01233525
X0078634
X0091Y0194
X0149
M30
