G04*
G04 #@! TF.GenerationSoftware,Altium Limited,Altium Designer,20.0.11 (256)*
G04*
G04 Layer_Physical_Order=1*
G04 Layer_Color=255*
%FSLAX25Y25*%
%MOIN*%
G70*
G01*
G75*
%ADD19R,0.05906X0.06890*%
%ADD27C,0.08661*%
%ADD28R,0.08661X0.08661*%
%ADD29R,0.08661X0.08661*%
%ADD39C,0.04724*%
%ADD40R,0.04724X0.04724*%
%ADD44R,0.04724X0.04724*%
%ADD47R,0.03937X0.06299*%
%ADD48R,0.06299X0.03937*%
%ADD49C,0.13780*%
%ADD50C,0.03150*%
%ADD51C,0.03937*%
%ADD52O,0.03937X0.07874*%
%ADD53O,0.03937X0.07874*%
%ADD54O,0.07874X0.03937*%
%ADD55O,0.07874X0.03937*%
%ADD56C,0.07900*%
%ADD57R,0.06496X0.06496*%
%ADD58C,0.06496*%
%ADD59C,0.07874*%
%ADD60R,0.07874X0.07874*%
%ADD61C,0.09843*%
%ADD62P,0.11506X8X292.5*%
%ADD63C,0.10630*%
%ADD64R,0.11024X0.11024*%
%ADD65C,0.11024*%
%ADD66C,0.05118*%
%ADD67R,0.05118X0.05118*%
%ADD68P,0.07671X8X202.5*%
%ADD69C,0.07087*%
%ADD70R,0.05118X0.05118*%
%ADD71C,0.03937*%
%ADD72C,0.02362*%
G36*
X159525Y42566D02*
Y30512D01*
X136888D01*
Y42244D01*
X141022Y43898D01*
X143247D01*
X143486Y43398D01*
X143341Y43047D01*
X152876D01*
X152731Y43398D01*
X152970Y43898D01*
X155195D01*
X159525Y42566D01*
D02*
G37*
%LPC*%
G36*
X152876Y41047D02*
X149109D01*
Y39053D01*
X150077D01*
X150852Y39155D01*
X151574Y39454D01*
X152194Y39930D01*
X152670Y40550D01*
X152876Y41047D01*
D02*
G37*
G36*
X147109D02*
X143341D01*
X143547Y40550D01*
X144023Y39930D01*
X144643Y39454D01*
X145365Y39155D01*
X146140Y39053D01*
X147109D01*
Y41047D01*
D02*
G37*
%LPD*%
D19*
X18701Y56102D02*
D03*
Y70866D02*
D03*
D27*
X11811Y208661D02*
D03*
X275589Y97434D02*
D03*
D28*
X76756Y208661D02*
D03*
D29*
X275589Y162379D02*
D03*
D39*
X185776Y181102D02*
D03*
X168555Y19685D02*
D03*
X125000D02*
D03*
X106299Y211862D02*
D03*
X129921D02*
D03*
D40*
X215799Y181102D02*
D03*
X138531Y19685D02*
D03*
X94976D02*
D03*
D44*
X106299Y181839D02*
D03*
X129921D02*
D03*
D47*
X306102Y185324D02*
D03*
X294291D02*
D03*
X306102Y211010D02*
D03*
X294291D02*
D03*
D48*
X296260Y86614D02*
D03*
Y74803D02*
D03*
X294291Y236221D02*
D03*
Y224410D02*
D03*
D49*
X66929Y216733D02*
X75001Y208661D01*
X66929Y216733D02*
Y248031D01*
X75001Y208661D02*
X106299D01*
X125984D01*
X338583Y87598D02*
Y108816D01*
X306102Y55118D02*
X338583Y87598D01*
X266732Y55118D02*
X306102D01*
X52880Y102093D02*
X61574Y93398D01*
X244148Y62061D02*
Y82730D01*
X222933Y40846D02*
X244148Y62061D01*
X258851Y97434D02*
X275589D01*
X244148Y82730D02*
X258851Y97434D01*
X47244Y107728D02*
X52880Y102093D01*
X61574Y93398D02*
X176287D01*
X251969Y40354D02*
X266732Y55118D01*
X251969Y31496D02*
Y40354D01*
X125984Y208661D02*
X133858Y216535D01*
X200787Y175357D02*
X213089Y163056D01*
X200787Y175357D02*
Y212598D01*
X235975Y247786D01*
Y259939D01*
X214802Y162402D02*
X275566D01*
X214148Y163056D02*
X214802Y162402D01*
X275566D02*
X275589Y162379D01*
X196850Y42323D02*
X221457D01*
X196850D02*
Y72835D01*
X181102Y88583D02*
X196850Y72835D01*
X221457Y42323D02*
X232283Y31496D01*
X133858Y216535D02*
Y247926D01*
X146759Y260827D01*
X176287Y93398D02*
X181102Y88583D01*
X11811Y165354D02*
Y208661D01*
X47244Y107728D02*
Y129921D01*
X11811Y165354D02*
X47244Y129921D01*
X334646Y196850D02*
X350394Y181102D01*
X334646Y196850D02*
Y244313D01*
X342026Y251693D02*
X363189D01*
X334646Y244313D02*
X342026Y251693D01*
X338583Y118110D02*
X350394Y129921D01*
Y181102D01*
X338583Y108816D02*
Y118110D01*
Y108816D02*
X363248D01*
X213089Y163056D02*
X214148D01*
D50*
X134055Y47047D02*
X148109D01*
X161614D02*
X168555Y40106D01*
X148109Y47047D02*
X161614D01*
X168555Y19685D02*
Y40106D01*
X287402Y78740D02*
Y91535D01*
X299055Y103189D02*
Y123031D01*
X287402Y91535D02*
X299055Y103189D01*
X287402Y78740D02*
X291049Y75093D01*
X295970D02*
X296260Y74803D01*
X291049Y75093D02*
X295970D01*
X24606Y84646D02*
X35433D01*
X52880Y102093D01*
X18701Y78740D02*
X24606Y84646D01*
X18701Y70866D02*
Y78740D01*
X67913Y42323D02*
X72835Y37402D01*
X67913Y58071D02*
X71850Y62008D01*
X67913Y42323D02*
Y58071D01*
X49213Y70866D02*
X62008Y58071D01*
Y35433D02*
X67756Y29685D01*
X62008Y35433D02*
Y58071D01*
X67756Y29685D02*
X73819D01*
X72835Y37402D02*
X80709D01*
X71850Y62008D02*
X85630D01*
X94488Y70866D01*
X80709Y37402D02*
X83661Y34449D01*
Y27559D02*
Y34449D01*
X80787Y24685D02*
X83661Y27559D01*
X73819Y24685D02*
X80787D01*
X36417Y70866D02*
X49213D01*
X30361Y19836D02*
X73832D01*
X18701Y31496D02*
X30361Y19836D01*
X18701Y31496D02*
Y56102D01*
X134843Y119095D02*
X170354Y154606D01*
X99773Y119095D02*
X134843D01*
X125000Y19685D02*
X138531D01*
X130905Y61024D02*
X134843Y64961D01*
X93307Y51968D02*
X102362Y61024D01*
X130905D01*
X75984Y51968D02*
X93307D01*
X134843Y64961D02*
Y74803D01*
X138779Y78740D01*
X153543Y181102D02*
X185776D01*
X125984Y208661D02*
X153543Y181102D01*
X115354Y51968D02*
X129134D01*
X134055Y47047D01*
X138779Y78740D02*
X149606D01*
X122047Y70866D02*
Y79724D01*
X126063Y83740D01*
X149606D01*
X123581Y125984D02*
X131890D01*
X165354Y159449D01*
X159449Y173228D02*
X165354Y167323D01*
Y159449D02*
Y167323D01*
X131766Y173228D02*
X159449D01*
X129921Y175073D02*
Y181839D01*
Y175073D02*
X131766Y173228D01*
X170354Y154606D02*
X185039D01*
X92883Y125984D02*
X99773Y119095D01*
X153543Y125984D02*
X167323D01*
X170197Y128858D02*
X185039D01*
X167323Y125984D02*
X170197Y128858D01*
X176024Y123858D02*
X185039D01*
X162402Y110236D02*
X176024Y123858D01*
X122047Y110236D02*
X162402D01*
X94488D02*
X122047D01*
X68898Y121063D02*
X79724Y110236D01*
X94488D01*
X68898Y131890D02*
X68898Y131890D01*
X68898Y121063D02*
Y131890D01*
X78740Y181102D02*
X93504D01*
X109252Y165354D02*
X123581D01*
X93504Y181102D02*
X109252Y165354D01*
X123581Y165354D02*
X153543D01*
X123581Y165354D02*
X123581Y165354D01*
D51*
X174550Y149606D02*
X185039D01*
X172244Y136164D02*
Y147300D01*
X174550Y133858D02*
X183071D01*
X172244Y147300D02*
X174550Y149606D01*
X172244Y136164D02*
X174550Y133858D01*
X296260Y74803D02*
X306548D01*
X256890Y216535D02*
Y225394D01*
X262415Y211010D02*
X294291D01*
X256890Y216535D02*
X262415Y211010D01*
X256890Y225394D02*
X270591Y239094D01*
X138138Y19291D02*
X138531Y19685D01*
X125000D02*
X125151Y19534D01*
X294291Y236221D02*
X306102D01*
X297244Y224410D02*
X306452D01*
X294291D02*
X297244D01*
X285433D02*
X294291D01*
X306102Y185324D02*
X314676D01*
X306102D02*
Y211010D01*
X275591Y234252D02*
X285433Y224410D01*
X275591Y234252D02*
Y248031D01*
X270591Y239094D02*
Y248031D01*
X294291Y185324D02*
Y211010D01*
Y170276D02*
Y185324D01*
Y170276D02*
X304055Y160512D01*
Y123031D02*
Y160512D01*
X296260Y86614D02*
X307087D01*
X362874Y93504D02*
X363189Y93819D01*
X215799Y181102D02*
X250903D01*
X255824Y186024D01*
X256890D01*
X362969Y221457D02*
X363129Y221617D01*
X215799Y181102D02*
X216118Y181421D01*
D52*
X309055Y123031D02*
D03*
X265591Y248031D02*
D03*
D53*
X304055Y123031D02*
D03*
X299055D02*
D03*
X275591Y248031D02*
D03*
X270591D02*
D03*
D54*
X185039Y133858D02*
D03*
Y159606D02*
D03*
X73819Y19685D02*
D03*
X149606Y88740D02*
D03*
X148109Y42047D02*
D03*
D55*
X185039Y128858D02*
D03*
Y123858D02*
D03*
Y149606D02*
D03*
Y154606D02*
D03*
X73819Y24685D02*
D03*
Y29685D02*
D03*
X149606Y78740D02*
D03*
Y83740D02*
D03*
X148109Y47047D02*
D03*
Y52047D02*
D03*
D56*
X214148Y63450D02*
D03*
Y137859D02*
D03*
Y163056D02*
D03*
X244148Y150458D02*
D03*
Y63450D02*
D03*
D57*
X181102Y53150D02*
D03*
D58*
Y88583D02*
D03*
D59*
X363129Y221617D02*
D03*
Y236696D02*
D03*
X363189Y206693D02*
D03*
X363248Y63816D02*
D03*
X363189Y93819D02*
D03*
Y78740D02*
D03*
X256890Y186024D02*
D03*
Y225394D02*
D03*
X122047Y70866D02*
D03*
Y110236D02*
D03*
X75984Y51968D02*
D03*
X115354D02*
D03*
X36417Y70866D02*
D03*
X75787D02*
D03*
X92883Y125984D02*
D03*
Y165354D02*
D03*
X153543Y125984D02*
D03*
Y165354D02*
D03*
X94488Y70866D02*
D03*
Y110236D02*
D03*
X68898Y92520D02*
D03*
Y131890D02*
D03*
X123581Y125984D02*
D03*
Y165354D02*
D03*
D60*
X363189Y251693D02*
D03*
X363248Y108816D02*
D03*
D61*
X66929Y248031D02*
D03*
X16929Y257874D02*
D03*
Y238189D02*
D03*
X81890Y248031D02*
D03*
X96850D02*
D03*
D62*
X377953Y165354D02*
D03*
X16043Y133858D02*
D03*
D63*
X377953Y145354D02*
D03*
X16043Y113858D02*
D03*
D64*
X271654Y31496D02*
D03*
D65*
X251969D02*
D03*
X232283D02*
D03*
D66*
X197576Y31496D02*
D03*
X299213Y43307D02*
D03*
X70866Y181102D02*
D03*
D67*
X197576Y39370D02*
D03*
X299213Y51181D02*
D03*
D68*
X234409Y260827D02*
D03*
X147992D02*
D03*
X234409Y205709D02*
D03*
X147992D02*
D03*
D69*
X224410Y260827D02*
D03*
X157992D02*
D03*
X224410Y205709D02*
D03*
X157992D02*
D03*
D70*
X78740Y181102D02*
D03*
D71*
X328740Y165354D02*
D03*
X45276D02*
D03*
X328740Y39370D02*
D03*
X45276D02*
D03*
D72*
X306548Y74803D02*
D03*
X154553Y32975D02*
D03*
X148109Y32480D02*
D03*
X157262Y37303D02*
D03*
X141416Y32874D02*
D03*
X138955Y37205D02*
D03*
X306102Y236221D02*
D03*
X314676Y185324D02*
D03*
X306452Y224410D02*
D03*
X307087Y86614D02*
D03*
M02*
