M48
;Layer_Color=9474304
;FILE_FORMAT=2:4
INCH,TZ
;TYPE=PLATED
T1F00S00C0.0118
T2F00S00C0.0276
T3F00S00C0.0315
T4F00S00C0.0394
T5F00S00C0.0433
T6F00S00C0.0453
T7F00S00C0.0510
T8F00S00C0.0551
T9F00S00C0.0591
T10F00S00C0.0669
T11F00S00C0.0709
T12F00S00C0.0748
;TYPE=NON_PLATED
T13F00S00C0.1260
%
T01
X18150Y3976
X17904Y4409
X18819Y3937
X19463Y3986
X19734Y4419
X34592Y7480
X34646Y8661
X35405Y18532
X34582Y22441
X34547Y23622
T02
X1929Y1845
Y4848
X3066Y5906
X2362Y7677
Y8177
Y8677
X6068Y5906
X18819Y5894
Y5394
Y4894
X18701Y8449
Y8949
Y9449
X21260Y12189
Y12689
Y13189
Y14961
Y15461
X33843Y12303
X34343
X34843
X31496Y24803
X30996
X30496
X25517Y18110
X22515
X21260Y15961
X17028Y22908
Y25911
X14370
Y22908
T03
X22638Y3740
Y4528
X32087Y4429
Y3642
X12303Y17421
X11516
T04
X5315Y7677
Y10630
X9252
Y7677
X12402Y7470
X15157
X15472Y5197
X11535
X12402Y11407
X12894Y13484
X14969Y13499
X15157Y11407
X8957Y13484
X17815
Y17421
X29626Y18602
Y22539
X14969Y17436
T05
X18736Y20571
X19736
Y26083
X18736
X26378
X27378
Y20571
X26378
T06
X21251Y6327
Y9870
T07
X25352Y6345
X28352
Y15046
X25352Y13786
Y16306
T08
X40262Y6382
X40256Y7874
Y9382
X40262Y10882
X40256Y20669
X40250Y22162
Y23670
X40256Y25169
T09
X31496Y9743
Y16238
X12106Y20374
X5612
T10
X41732Y14535
Y16535
X1604Y16898
Y18898
T11
X25394Y2953
X27362
X29331
T12
X1890Y23622
Y25591
X6890Y24606
X8386
X9882
T13
X8465Y3937
X36811
Y16535
X8465
M30
