G04*
G04 #@! TF.GenerationSoftware,Altium Limited,Altium Designer,20.0.11 (256)*
G04*
G04 Layer_Color=65535*
%FSLAX25Y25*%
%MOIN*%
G70*
G01*
G75*
%ADD10C,0.00787*%
%ADD11C,0.00600*%
%ADD12C,0.02756*%
%ADD13C,0.01575*%
%ADD14C,0.00591*%
%ADD15C,0.01000*%
%ADD16R,0.09291X0.02622*%
D10*
X312601Y117047D02*
X313130Y117884D01*
X313577Y118766D01*
X313938Y119687D01*
X314210Y120638D01*
X314391Y121611D01*
X314479Y122596D01*
X314474Y123585D01*
X314374Y124570D01*
X314182Y125540D01*
X313899Y126488D01*
X313527Y127405D01*
X313071Y128282D01*
X312533Y129113D01*
X311919Y129888D01*
X311234Y130602D01*
X310485Y131248D01*
X309678Y131820D01*
X308820Y132313D01*
X307919Y132723D01*
X306984Y133045D01*
X306023Y133277D01*
X305043Y133418D01*
X304055Y133465D01*
X303067Y133418D01*
X302088Y133277D01*
X301126Y133045D01*
X300191Y132723D01*
X299290Y132313D01*
X298433Y131820D01*
X297626Y131248D01*
X296876Y130602D01*
X296192Y129888D01*
X295578Y129113D01*
X295040Y128282D01*
X294583Y127405D01*
X294211Y126488D01*
X293928Y125540D01*
X293736Y124570D01*
X293637Y123585D01*
X293631Y122596D01*
X293719Y121611D01*
X293900Y120638D01*
X294173Y119687D01*
X294534Y118766D01*
X294981Y117884D01*
X295509Y117047D01*
X262044Y254016D02*
X261516Y253179D01*
X261069Y252297D01*
X260708Y251376D01*
X260436Y250425D01*
X260255Y249452D01*
X260167Y248467D01*
X260172Y247478D01*
X260272Y246493D01*
X260464Y245523D01*
X260747Y244575D01*
X261118Y243658D01*
X261575Y242781D01*
X262113Y241950D01*
X262727Y241175D01*
X263412Y240461D01*
X264161Y239815D01*
X264968Y239243D01*
X265826Y238750D01*
X266726Y238340D01*
X267662Y238018D01*
X268623Y237786D01*
X269602Y237645D01*
X270591Y237598D01*
X271579Y237645D01*
X272558Y237786D01*
X273519Y238018D01*
X274455Y238340D01*
X275355Y238750D01*
X276213Y239243D01*
X277020Y239815D01*
X277769Y240461D01*
X278454Y241175D01*
X279068Y241950D01*
X279606Y242781D01*
X280063Y243658D01*
X280434Y244575D01*
X280717Y245523D01*
X280910Y246493D01*
X281009Y247478D01*
X281014Y248467D01*
X280926Y249452D01*
X280745Y250425D01*
X280473Y251376D01*
X280112Y252297D01*
X279665Y253179D01*
X279137Y254016D01*
X191024Y137405D02*
X190187Y137933D01*
X189305Y138380D01*
X188384Y138741D01*
X187433Y139013D01*
X186460Y139194D01*
X185475Y139282D01*
X184485Y139277D01*
X183501Y139177D01*
X182531Y138985D01*
X181583Y138702D01*
X180666Y138330D01*
X179789Y137874D01*
X178958Y137336D01*
X178183Y136722D01*
X177469Y136037D01*
X176823Y135288D01*
X176251Y134481D01*
X175758Y133623D01*
X175348Y132722D01*
X175026Y131787D01*
X174794Y130826D01*
X174653Y129846D01*
X174606Y128858D01*
X174653Y127870D01*
X174794Y126891D01*
X175026Y125929D01*
X175348Y124994D01*
X175758Y124094D01*
X176251Y123236D01*
X176823Y122429D01*
X177469Y121679D01*
X178183Y120995D01*
X178958Y120381D01*
X179789Y119843D01*
X180666Y119386D01*
X181583Y119014D01*
X182531Y118731D01*
X183501Y118539D01*
X184485Y118440D01*
X185475Y118434D01*
X186460Y118522D01*
X187433Y118703D01*
X188384Y118976D01*
X189305Y119337D01*
X190187Y119784D01*
X191024Y120312D01*
Y163153D02*
X190187Y163681D01*
X189305Y164128D01*
X188384Y164489D01*
X187433Y164761D01*
X186460Y164942D01*
X185475Y165030D01*
X184485Y165025D01*
X183501Y164925D01*
X182531Y164733D01*
X181583Y164450D01*
X180666Y164078D01*
X179789Y163622D01*
X178958Y163084D01*
X178183Y162470D01*
X177469Y161785D01*
X176823Y161036D01*
X176251Y160229D01*
X175758Y159371D01*
X175348Y158470D01*
X175026Y157535D01*
X174794Y156574D01*
X174653Y155594D01*
X174606Y154606D01*
X174653Y153618D01*
X174794Y152639D01*
X175026Y151677D01*
X175348Y150742D01*
X175758Y149842D01*
X176251Y148984D01*
X176823Y148177D01*
X177469Y147427D01*
X178183Y146743D01*
X178958Y146129D01*
X179789Y145591D01*
X180666Y145134D01*
X181583Y144762D01*
X182531Y144479D01*
X183501Y144287D01*
X184485Y144188D01*
X185475Y144182D01*
X186460Y144270D01*
X187433Y144451D01*
X188384Y144724D01*
X189305Y145085D01*
X190187Y145532D01*
X191024Y146060D01*
X67835Y16139D02*
X68671Y15610D01*
X69554Y15164D01*
X70475Y14803D01*
X71426Y14530D01*
X72398Y14349D01*
X73384Y14261D01*
X74373Y14267D01*
X75357Y14366D01*
X76328Y14558D01*
X77275Y14841D01*
X78192Y15213D01*
X79070Y15670D01*
X79900Y16207D01*
X80676Y16822D01*
X81389Y17506D01*
X82035Y18256D01*
X82607Y19063D01*
X83100Y19920D01*
X83510Y20821D01*
X83832Y21756D01*
X84065Y22718D01*
X84205Y23697D01*
X84252Y24685D01*
X84205Y25673D01*
X84065Y26652D01*
X83832Y27614D01*
X83510Y28549D01*
X83100Y29450D01*
X82607Y30307D01*
X82035Y31115D01*
X81389Y31864D01*
X80676Y32549D01*
X79900Y33163D01*
X79070Y33700D01*
X78192Y34157D01*
X77275Y34529D01*
X76328Y34812D01*
X75357Y35004D01*
X74373Y35103D01*
X73384Y35109D01*
X72398Y35021D01*
X71426Y34840D01*
X70475Y34568D01*
X69554Y34206D01*
X68671Y33760D01*
X67835Y33231D01*
X155590Y92286D02*
X154754Y92815D01*
X153872Y93262D01*
X152951Y93623D01*
X151999Y93895D01*
X151027Y94076D01*
X150042Y94164D01*
X149052Y94159D01*
X148068Y94059D01*
X147098Y93867D01*
X146150Y93584D01*
X145233Y93212D01*
X144355Y92756D01*
X143525Y92218D01*
X142750Y91604D01*
X142036Y90919D01*
X141390Y90170D01*
X140818Y89363D01*
X140325Y88505D01*
X139915Y87604D01*
X139593Y86669D01*
X139360Y85708D01*
X139220Y84728D01*
X139173Y83740D01*
X139220Y82752D01*
X139360Y81773D01*
X139593Y80811D01*
X139915Y79876D01*
X140325Y78975D01*
X140818Y78118D01*
X141390Y77311D01*
X142036Y76561D01*
X142750Y75877D01*
X143525Y75262D01*
X144355Y74725D01*
X145233Y74268D01*
X146150Y73896D01*
X147098Y73613D01*
X148068Y73421D01*
X149052Y73322D01*
X150042Y73316D01*
X151027Y73404D01*
X151999Y73585D01*
X152951Y73858D01*
X153872Y74219D01*
X154754Y74665D01*
X155590Y75194D01*
X142124Y38501D02*
X142961Y37973D01*
X143843Y37526D01*
X144764Y37165D01*
X145715Y36892D01*
X146688Y36711D01*
X147673Y36623D01*
X148663Y36629D01*
X149647Y36728D01*
X150617Y36920D01*
X151565Y37203D01*
X152482Y37575D01*
X153359Y38032D01*
X154190Y38570D01*
X154965Y39184D01*
X155679Y39869D01*
X156325Y40618D01*
X156897Y41425D01*
X157390Y42283D01*
X157800Y43183D01*
X158122Y44118D01*
X158355Y45080D01*
X158495Y46059D01*
X158542Y47047D01*
X158495Y48035D01*
X158355Y49015D01*
X158122Y49976D01*
X157800Y50911D01*
X157390Y51812D01*
X156897Y52670D01*
X156325Y53477D01*
X155679Y54226D01*
X154965Y54911D01*
X154190Y55525D01*
X153359Y56063D01*
X152482Y56520D01*
X151565Y56891D01*
X150617Y57174D01*
X149647Y57366D01*
X148663Y57466D01*
X147673Y57471D01*
X146688Y57383D01*
X145715Y57202D01*
X144764Y56930D01*
X143843Y56569D01*
X142961Y56122D01*
X142124Y55594D01*
X207418Y35433D02*
X207368Y36429D01*
X207217Y37414D01*
X206967Y38380D01*
X206621Y39314D01*
X206182Y40210D01*
X205654Y41056D01*
X205044Y41844D01*
X204357Y42567D01*
X203601Y43216D01*
X202782Y43786D01*
X201910Y44270D01*
X200994Y44663D01*
X200043Y44961D01*
X199066Y45162D01*
X198074Y45263D01*
X197077D01*
X196085Y45162D01*
X195109Y44961D01*
X194157Y44663D01*
X193241Y44270D01*
X192369Y43786D01*
X191551Y43216D01*
X190795Y42567D01*
X190108Y41844D01*
X189497Y41056D01*
X188970Y40210D01*
X188531Y39314D01*
X188185Y38380D01*
X187935Y37414D01*
X187784Y36429D01*
X187733Y35433D01*
X187784Y34437D01*
X187935Y33452D01*
X188185Y32487D01*
X188531Y31552D01*
X188970Y30656D01*
X189497Y29810D01*
X190108Y29022D01*
X190795Y28299D01*
X191551Y27650D01*
X192369Y27080D01*
X193241Y26596D01*
X194157Y26203D01*
X195109Y25905D01*
X196085Y25704D01*
X197077Y25603D01*
X198074D01*
X199066Y25704D01*
X200043Y25905D01*
X200994Y26203D01*
X201910Y26596D01*
X202782Y27080D01*
X203601Y27650D01*
X204357Y28299D01*
X205044Y29022D01*
X205654Y29810D01*
X206182Y30656D01*
X206621Y31552D01*
X206967Y32487D01*
X207217Y33452D01*
X207368Y34437D01*
X207418Y35433D01*
X309055Y47244D02*
X309005Y48240D01*
X308854Y49225D01*
X308604Y50191D01*
X308258Y51126D01*
X307818Y52021D01*
X307291Y52867D01*
X306681Y53655D01*
X305994Y54378D01*
X305237Y55027D01*
X304419Y55597D01*
X303547Y56081D01*
X302631Y56474D01*
X301680Y56772D01*
X300703Y56973D01*
X299711Y57074D01*
X298714D01*
X297722Y56973D01*
X296746Y56772D01*
X295794Y56474D01*
X294878Y56081D01*
X294006Y55597D01*
X293188Y55027D01*
X292431Y54378D01*
X291744Y53655D01*
X291134Y52867D01*
X290607Y52021D01*
X290168Y51126D01*
X289822Y50191D01*
X289572Y49225D01*
X289421Y48240D01*
X289370Y47244D01*
X289421Y46248D01*
X289572Y45263D01*
X289822Y44298D01*
X290168Y43363D01*
X290607Y42467D01*
X291134Y41621D01*
X291744Y40833D01*
X292431Y40110D01*
X293188Y39461D01*
X294006Y38891D01*
X294878Y38407D01*
X295794Y38014D01*
X296746Y37716D01*
X297722Y37515D01*
X298714Y37414D01*
X299711D01*
X300703Y37515D01*
X301680Y37716D01*
X302631Y38014D01*
X303547Y38407D01*
X304419Y38891D01*
X305237Y39461D01*
X305994Y40110D01*
X306681Y40833D01*
X307291Y41621D01*
X307818Y42467D01*
X308258Y43363D01*
X308604Y44298D01*
X308854Y45263D01*
X309005Y46248D01*
X309055Y47244D01*
X84646Y181102D02*
X84595Y182098D01*
X84444Y183084D01*
X84194Y184049D01*
X83848Y184984D01*
X83409Y185879D01*
X82881Y186725D01*
X82271Y187513D01*
X81584Y188236D01*
X80828Y188886D01*
X80010Y189455D01*
X79138Y189939D01*
X78221Y190332D01*
X77270Y190631D01*
X76294Y190831D01*
X75302Y190932D01*
X74305D01*
X73313Y190831D01*
X72336Y190631D01*
X71385Y190332D01*
X70469Y189939D01*
X69597Y189455D01*
X68779Y188886D01*
X68022Y188236D01*
X67335Y187513D01*
X66725Y186725D01*
X66197Y185879D01*
X65758Y184984D01*
X65412Y184049D01*
X65162Y183084D01*
X65011Y182098D01*
X64961Y181102D01*
X65011Y180107D01*
X65162Y179121D01*
X65412Y178156D01*
X65758Y177221D01*
X66197Y176326D01*
X66725Y175480D01*
X67335Y174691D01*
X68022Y173969D01*
X68779Y173319D01*
X69597Y172749D01*
X70469Y172266D01*
X71385Y171872D01*
X72336Y171574D01*
X73313Y171373D01*
X74305Y171273D01*
X75302D01*
X76294Y171373D01*
X77270Y171574D01*
X78221Y171872D01*
X79138Y172266D01*
X80010Y172750D01*
X80828Y173319D01*
X81584Y173969D01*
X82271Y174691D01*
X82882Y175480D01*
X83409Y176326D01*
X83848Y177221D01*
X84194Y178156D01*
X84444Y179121D01*
X84595Y180107D01*
X84646Y181102D01*
X295787Y116929D02*
X312323D01*
X262323Y254134D02*
X278858D01*
X191142Y120591D02*
Y137126D01*
Y146339D02*
Y162874D01*
X67716Y16417D02*
Y32953D01*
X155709Y75472D02*
Y92008D01*
X142006Y38780D02*
Y55315D01*
X291535Y181387D02*
X308858D01*
X291535Y189261D02*
X308858D01*
Y181387D02*
Y189261D01*
X291535Y181387D02*
Y189261D01*
X300197Y72047D02*
Y89370D01*
X292323Y72047D02*
Y89370D01*
X300197D01*
X292323Y72047D02*
X300197D01*
X298228Y221654D02*
Y238976D01*
X290354Y221654D02*
Y238976D01*
X298228D01*
X290354Y221654D02*
X298228D01*
X291535Y207073D02*
X308858D01*
X291535Y214947D02*
X308858D01*
Y207073D02*
Y214947D01*
X291535Y207073D02*
Y214947D01*
X176457Y61742D02*
Y79990D01*
X185748D01*
Y61742D02*
Y79990D01*
X176457Y61742D02*
X185748D01*
X53634Y198504D02*
Y218819D01*
X17126Y208661D02*
X25583D01*
X62984D02*
X71441D01*
X62984Y198228D02*
Y219094D01*
X25583D02*
X62984D01*
X25583Y198228D02*
Y219094D01*
Y198228D02*
X62984D01*
X286022Y111205D02*
Y148607D01*
X265156Y111205D02*
X286022D01*
X265156D02*
Y148607D01*
X286022D01*
X275589D02*
Y157064D01*
Y102749D02*
Y111205D01*
X265432Y139257D02*
X285747D01*
X279528Y23622D02*
Y39370D01*
X224410D02*
X279528D01*
X224410Y23622D02*
Y39370D01*
Y23622D02*
X279528D01*
X190236Y181102D02*
X191811D01*
X209764D02*
X211339D01*
X206693Y177736D02*
Y184468D01*
X209764Y177342D02*
Y184862D01*
X191811D02*
X209764D01*
X191811Y177342D02*
Y184862D01*
Y177342D02*
X209764D01*
X162520Y19685D02*
X164094D01*
X142992D02*
X144567D01*
X147638Y16319D02*
Y23051D01*
X144567Y15925D02*
Y23445D01*
Y15925D02*
X162520D01*
Y23445D01*
X144567D02*
X162520D01*
X118965Y19685D02*
X120539D01*
X99437D02*
X101012D01*
X104083Y16319D02*
Y23051D01*
X101012Y15925D02*
Y23445D01*
Y15925D02*
X118965D01*
Y23445D01*
X101012D02*
X118965D01*
X219306Y257975D02*
Y263487D01*
X239836Y255217D02*
Y266240D01*
X219305D02*
X239836D01*
X219305Y255217D02*
X239836D01*
X219306Y263487D02*
Y266243D01*
Y255219D02*
Y257975D01*
X163096Y258167D02*
Y263679D01*
X142565Y255413D02*
Y266437D01*
Y255413D02*
X163097D01*
X142565Y266437D02*
X163097D01*
X163096Y255411D02*
Y258167D01*
Y263679D02*
Y266434D01*
X219306Y202857D02*
Y208369D01*
X239836Y200099D02*
Y211122D01*
X219305D02*
X239836D01*
X219305Y200099D02*
X239836D01*
X219306Y208369D02*
Y211125D01*
Y200101D02*
Y202857D01*
X163096Y203049D02*
Y208560D01*
X142565Y200295D02*
Y211319D01*
Y200295D02*
X163097D01*
X142565Y211319D02*
X163097D01*
X163096Y200293D02*
Y203049D01*
Y208560D02*
Y211316D01*
X106299Y205827D02*
Y207402D01*
Y186299D02*
Y187874D01*
X102933Y190945D02*
X109665D01*
X102539Y187874D02*
X110059D01*
Y205827D01*
X102539D02*
X110059D01*
X102539Y187874D02*
Y205827D01*
X17717Y76968D02*
X19685D01*
X18701Y75984D02*
Y77953D01*
X15157Y61024D02*
Y65945D01*
X22244Y61024D02*
Y65945D01*
X129921Y205827D02*
Y207402D01*
Y186299D02*
Y187874D01*
X126555Y190945D02*
X133287D01*
X126161Y187874D02*
X133681D01*
Y205827D01*
X126161D02*
X133681D01*
X126161Y187874D02*
Y205827D01*
D11*
X255097Y63450D02*
X254497D01*
X255097D01*
X249548Y55469D02*
Y168669D01*
X208748Y55469D02*
X249548D01*
X208748D02*
Y168669D01*
X249548D01*
D12*
X364075Y265709D02*
X363531Y266458D01*
X362650Y266172D01*
Y265246D01*
X363531Y264960D01*
X364075Y265709D01*
X364134Y122832D02*
X363590Y123581D01*
X362710Y123294D01*
Y122369D01*
X363590Y122083D01*
X364134Y122832D01*
D13*
X340551Y165354D02*
X340509Y166356D01*
X340381Y167350D01*
X340170Y168330D01*
X339877Y169289D01*
X339503Y170219D01*
X339051Y171115D01*
X338526Y171968D01*
X337930Y172774D01*
X337267Y173527D01*
X336543Y174221D01*
X335763Y174850D01*
X334933Y175412D01*
X334057Y175901D01*
X333144Y176314D01*
X332199Y176648D01*
X331228Y176900D01*
X330240Y177070D01*
X329241Y177155D01*
X328239D01*
X327240Y177070D01*
X326252Y176900D01*
X325282Y176648D01*
X324336Y176314D01*
X323423Y175901D01*
X322548Y175412D01*
X321717Y174850D01*
X320937Y174221D01*
X320213Y173527D01*
X319551Y172774D01*
X318955Y171968D01*
X318429Y171115D01*
X317978Y170219D01*
X317604Y169289D01*
X317310Y168330D01*
X317099Y167350D01*
X316972Y166356D01*
X316929Y165354D01*
X316972Y164353D01*
X317099Y163358D01*
X317310Y162378D01*
X317604Y161420D01*
X317978Y160489D01*
X318429Y159594D01*
X318955Y158740D01*
X319551Y157934D01*
X320213Y157182D01*
X320937Y156488D01*
X321717Y155858D01*
X322548Y155297D01*
X323423Y154808D01*
X324336Y154395D01*
X325282Y154061D01*
X326252Y153808D01*
X327240Y153639D01*
X328239Y153554D01*
X329241D01*
X330240Y153639D01*
X331228Y153808D01*
X332199Y154061D01*
X333144Y154395D01*
X334058Y154808D01*
X334933Y155297D01*
X335763Y155858D01*
X336543Y156488D01*
X337267Y157182D01*
X337930Y157934D01*
X338526Y158740D01*
X339051Y159594D01*
X339503Y160489D01*
X339877Y161420D01*
X340170Y162378D01*
X340381Y163358D01*
X340509Y164353D01*
X340551Y165354D01*
X57087D02*
X57044Y166356D01*
X56917Y167350D01*
X56705Y168330D01*
X56412Y169289D01*
X56038Y170219D01*
X55587Y171115D01*
X55061Y171968D01*
X54465Y172774D01*
X53803Y173527D01*
X53079Y174221D01*
X52299Y174850D01*
X51468Y175412D01*
X50593Y175901D01*
X49679Y176314D01*
X48734Y176648D01*
X47764Y176900D01*
X46776Y177070D01*
X45777Y177155D01*
X44774D01*
X43775Y177070D01*
X42787Y176900D01*
X41817Y176648D01*
X40872Y176314D01*
X39958Y175901D01*
X39083Y175412D01*
X38252Y174850D01*
X37472Y174221D01*
X36749Y173527D01*
X36086Y172774D01*
X35490Y171968D01*
X34964Y171115D01*
X34513Y170219D01*
X34139Y169289D01*
X33846Y168330D01*
X33634Y167350D01*
X33507Y166356D01*
X33465Y165354D01*
X33507Y164353D01*
X33634Y163358D01*
X33846Y162378D01*
X34139Y161420D01*
X34513Y160489D01*
X34964Y159594D01*
X35490Y158740D01*
X36086Y157934D01*
X36749Y157182D01*
X37472Y156488D01*
X38252Y155858D01*
X39083Y155297D01*
X39958Y154808D01*
X40872Y154395D01*
X41817Y154061D01*
X42787Y153808D01*
X43775Y153639D01*
X44774Y153554D01*
X45777D01*
X46776Y153639D01*
X47764Y153808D01*
X48734Y154061D01*
X49679Y154395D01*
X50593Y154808D01*
X51468Y155297D01*
X52299Y155858D01*
X53079Y156488D01*
X53803Y157182D01*
X54465Y157934D01*
X55061Y158740D01*
X55587Y159594D01*
X56038Y160489D01*
X56412Y161420D01*
X56705Y162378D01*
X56917Y163358D01*
X57044Y164353D01*
X57087Y165354D01*
X340551Y39370D02*
X340509Y40372D01*
X340381Y41366D01*
X340170Y42346D01*
X339877Y43305D01*
X339503Y44235D01*
X339051Y45130D01*
X338526Y45984D01*
X337930Y46790D01*
X337267Y47543D01*
X336543Y48236D01*
X335763Y48866D01*
X334933Y49428D01*
X334057Y49916D01*
X333144Y50329D01*
X332199Y50663D01*
X331228Y50916D01*
X330240Y51085D01*
X329241Y51170D01*
X328239D01*
X327240Y51085D01*
X326252Y50916D01*
X325282Y50663D01*
X324336Y50329D01*
X323423Y49916D01*
X322548Y49428D01*
X321717Y48866D01*
X320937Y48236D01*
X320213Y47543D01*
X319551Y46790D01*
X318955Y45984D01*
X318429Y45130D01*
X317978Y44235D01*
X317604Y43305D01*
X317310Y42346D01*
X317099Y41366D01*
X316972Y40372D01*
X316929Y39370D01*
X316972Y38368D01*
X317099Y37374D01*
X317310Y36394D01*
X317604Y35435D01*
X317978Y34505D01*
X318429Y33610D01*
X318955Y32756D01*
X319551Y31950D01*
X320213Y31198D01*
X320937Y30504D01*
X321717Y29874D01*
X322548Y29313D01*
X323423Y28824D01*
X324336Y28411D01*
X325282Y28077D01*
X326252Y27824D01*
X327240Y27655D01*
X328239Y27570D01*
X329241D01*
X330240Y27655D01*
X331228Y27824D01*
X332199Y28077D01*
X333144Y28411D01*
X334058Y28824D01*
X334933Y29313D01*
X335763Y29874D01*
X336543Y30504D01*
X337267Y31198D01*
X337930Y31950D01*
X338526Y32756D01*
X339051Y33610D01*
X339503Y34505D01*
X339877Y35435D01*
X340170Y36394D01*
X340381Y37374D01*
X340509Y38368D01*
X340551Y39370D01*
X57087D02*
X57044Y40372D01*
X56917Y41366D01*
X56705Y42346D01*
X56412Y43305D01*
X56038Y44235D01*
X55587Y45130D01*
X55061Y45984D01*
X54465Y46790D01*
X53803Y47543D01*
X53079Y48236D01*
X52299Y48866D01*
X51468Y49428D01*
X50593Y49916D01*
X49679Y50329D01*
X48734Y50663D01*
X47764Y50916D01*
X46776Y51085D01*
X45777Y51170D01*
X44774D01*
X43775Y51085D01*
X42787Y50916D01*
X41817Y50663D01*
X40872Y50329D01*
X39958Y49916D01*
X39083Y49428D01*
X38252Y48866D01*
X37472Y48236D01*
X36749Y47543D01*
X36086Y46790D01*
X35490Y45984D01*
X34964Y45130D01*
X34513Y44235D01*
X34139Y43305D01*
X33846Y42346D01*
X33634Y41366D01*
X33507Y40372D01*
X33465Y39370D01*
X33507Y38368D01*
X33634Y37374D01*
X33846Y36394D01*
X34139Y35435D01*
X34513Y34505D01*
X34964Y33610D01*
X35490Y32756D01*
X36086Y31950D01*
X36749Y31198D01*
X37472Y30504D01*
X38252Y29874D01*
X39083Y29313D01*
X39958Y28824D01*
X40872Y28411D01*
X41817Y28077D01*
X42787Y27824D01*
X43775Y27655D01*
X44774Y27570D01*
X45777D01*
X46776Y27655D01*
X47764Y27824D01*
X48734Y28077D01*
X49679Y28411D01*
X50593Y28824D01*
X51468Y29313D01*
X52299Y29874D01*
X53079Y30504D01*
X53803Y31198D01*
X54465Y31950D01*
X55061Y32756D01*
X55587Y33610D01*
X56038Y34505D01*
X56412Y35435D01*
X56705Y36394D01*
X56917Y37374D01*
X57044Y38368D01*
X57087Y39370D01*
X356890Y260591D02*
X395669D01*
Y197795D02*
Y260591D01*
X356890Y197795D02*
X395669D01*
X356890D02*
Y260591D01*
X356949Y54918D02*
Y117713D01*
Y54918D02*
X395729D01*
Y117713D01*
X356949D02*
X395729D01*
X7874Y228346D02*
Y267717D01*
X106299D01*
X7874Y228346D02*
X106299D01*
Y267717D01*
X347698Y27152D02*
X346649Y28201D01*
X344550D01*
X343500Y27152D01*
Y22954D01*
X344550Y21904D01*
X346649D01*
X347698Y22954D01*
X349798Y26102D02*
Y21904D01*
Y24003D01*
X350847Y25053D01*
X351897Y26102D01*
X352946D01*
X359243Y21904D02*
X357144D01*
X356095Y22954D01*
Y25053D01*
X357144Y26102D01*
X359243D01*
X360293Y25053D01*
Y24003D01*
X356095D01*
X363441Y26102D02*
X365540D01*
X366590Y25053D01*
Y21904D01*
X363441D01*
X362392Y22954D01*
X363441Y24003D01*
X366590D01*
X369739Y27152D02*
Y26102D01*
X368689D01*
X370788D01*
X369739D01*
Y22954D01*
X370788Y21904D01*
X377085D02*
X374986D01*
X373937Y22954D01*
Y25053D01*
X374986Y26102D01*
X377085D01*
X378135Y25053D01*
Y24003D01*
X373937D01*
X384432Y28201D02*
Y21904D01*
X381283D01*
X380234Y22954D01*
Y25053D01*
X381283Y26102D01*
X384432D01*
X315163Y16865D02*
Y10568D01*
X318312D01*
X319361Y11618D01*
Y12667D01*
Y13717D01*
X318312Y14766D01*
X315163D01*
X321460D02*
Y11618D01*
X322510Y10568D01*
X325658D01*
Y9519D01*
X324609Y8469D01*
X323559D01*
X325658Y10568D02*
Y14766D01*
X334055Y8469D02*
Y14766D01*
X337203D01*
X338253Y13717D01*
Y11618D01*
X337203Y10568D01*
X334055D01*
X341401Y14766D02*
X343500D01*
X344550Y13717D01*
Y10568D01*
X341401D01*
X340352Y11618D01*
X341401Y12667D01*
X344550D01*
X346649Y14766D02*
Y11618D01*
X347698Y10568D01*
X350847D01*
Y9519D01*
X349798Y8469D01*
X348748D01*
X350847Y10568D02*
Y14766D01*
X353996D02*
X356095D01*
X357144Y13717D01*
Y10568D01*
X353996D01*
X352946Y11618D01*
X353996Y12667D01*
X357144D01*
X359243Y10568D02*
X361342D01*
X360293D01*
Y16865D01*
X359243D01*
X364491Y10568D02*
Y14766D01*
X367639D01*
X368689Y13717D01*
Y10568D01*
X370788D02*
X372887D01*
X371838D01*
Y14766D01*
X370788D01*
X376036Y10568D02*
Y16865D01*
Y12667D02*
X379184Y14766D01*
X376036Y12667D02*
X379184Y10568D01*
X382333D02*
X384432D01*
X383382D01*
Y14766D01*
X382333D01*
X180020Y17616D02*
X183955D01*
X181988D01*
Y11713D01*
X188875Y17616D02*
X186907D01*
X185923Y16632D01*
Y12697D01*
X186907Y11713D01*
X188875D01*
X189859Y12697D01*
Y16632D01*
X188875Y17616D01*
X197731D02*
Y11713D01*
X201666D01*
X203634D02*
Y17616D01*
X205602Y15648D01*
X207570Y17616D01*
Y11713D01*
X209538Y15648D02*
X210522D01*
Y14664D01*
X209538D01*
Y15648D01*
Y12697D02*
X210522D01*
Y11713D01*
X209538D01*
Y12697D01*
X347836Y135432D02*
X346852Y134448D01*
Y132480D01*
X347836Y131496D01*
X351772D01*
X352756Y132480D01*
Y134448D01*
X351772Y135432D01*
X349804D01*
Y133464D01*
X352756Y137400D02*
X346852D01*
X352756Y141335D01*
X346852D01*
Y143303D02*
X352756D01*
Y146255D01*
X351772Y147239D01*
X347836D01*
X346852Y146255D01*
Y143303D01*
X346852Y157087D02*
X350788D01*
X352756Y159055D01*
X350788Y161022D01*
X346852D01*
Y162990D02*
X352756D01*
Y165942D01*
X351772Y166926D01*
X350788D01*
X349804Y165942D01*
Y162990D01*
Y165942D01*
X348820Y166926D01*
X347836D01*
X346852Y165942D01*
Y162990D01*
X352756Y168894D02*
X348820D01*
X346852Y170862D01*
X348820Y172829D01*
X352756D01*
X349804D01*
Y168894D01*
X346852Y174797D02*
Y178733D01*
Y176765D01*
X352756D01*
X349804Y180701D02*
Y184637D01*
X347836Y182669D02*
X351772D01*
X268503Y16632D02*
X267519Y17616D01*
X265551D01*
X264567Y16632D01*
Y12697D01*
X265551Y11713D01*
X267519D01*
X268503Y12697D01*
Y14664D01*
X266535D01*
X270470Y11713D02*
Y17616D01*
X274406Y11713D01*
Y17616D01*
X276374D02*
Y11713D01*
X279326D01*
X280310Y12697D01*
Y16632D01*
X279326Y17616D01*
X276374D01*
X224508Y17419D02*
X226476D01*
X225492D01*
Y11516D01*
X224508D01*
X226476D01*
X229428D02*
Y17419D01*
X233363Y11516D01*
Y17419D01*
X245176D02*
X243208D01*
X242224Y16435D01*
Y12500D01*
X243208Y11516D01*
X245176D01*
X246160Y12500D01*
Y16435D01*
X245176Y17419D01*
X248128D02*
Y12500D01*
X249112Y11516D01*
X251080D01*
X252064Y12500D01*
Y17419D01*
X254032D02*
X257967D01*
X255999D01*
Y11516D01*
X311614Y108857D02*
X315550D01*
X313582Y110825D02*
Y106889D01*
X321453Y111809D02*
X317518D01*
Y108857D01*
X319486Y109841D01*
X320470D01*
X321453Y108857D01*
Y106889D01*
X320470Y105905D01*
X318502D01*
X317518Y106889D01*
X323421Y111809D02*
Y107873D01*
X325389Y105905D01*
X327357Y107873D01*
Y111809D01*
X338180D02*
X336212D01*
X335229Y110825D01*
Y106889D01*
X336212Y105905D01*
X338180D01*
X339164Y106889D01*
Y110825D01*
X338180Y111809D01*
X341132D02*
Y106889D01*
X342116Y105905D01*
X344084D01*
X345068Y106889D01*
Y111809D01*
X347036D02*
X350972D01*
X349004D01*
Y105905D01*
X337204Y65550D02*
X336220Y66533D01*
X334252D01*
X333268Y65550D01*
Y61614D01*
X334252Y60630D01*
X336220D01*
X337204Y61614D01*
Y63582D01*
X335236D01*
X339171Y60630D02*
Y66533D01*
X343107Y60630D01*
Y66533D01*
X345075D02*
Y60630D01*
X348027D01*
X349011Y61614D01*
Y65550D01*
X348027Y66533D01*
X345075D01*
X311614Y95078D02*
X315550D01*
X313582Y97046D02*
Y93110D01*
X317518Y97046D02*
X318502Y98030D01*
X320470D01*
X321453Y97046D01*
Y96062D01*
X320470Y95078D01*
X319486D01*
X320470D01*
X321453Y94094D01*
Y93110D01*
X320470Y92126D01*
X318502D01*
X317518Y93110D01*
X323421Y92126D02*
Y93110D01*
X324405D01*
Y92126D01*
X323421D01*
X328341Y97046D02*
X329325Y98030D01*
X331293D01*
X332277Y97046D01*
Y96062D01*
X331293Y95078D01*
X330309D01*
X331293D01*
X332277Y94094D01*
Y93110D01*
X331293Y92126D01*
X329325D01*
X328341Y93110D01*
X340148Y98030D02*
X342116D01*
X341132D01*
Y92126D01*
X340148D01*
X342116D01*
X345068D02*
Y98030D01*
X349004Y92126D01*
Y98030D01*
X319487Y81298D02*
X318503Y82282D01*
X316535D01*
X315551Y81298D01*
Y80314D01*
X316535Y79330D01*
X318503D01*
X319487Y78346D01*
Y77362D01*
X318503Y76378D01*
X316535D01*
X315551Y77362D01*
X321455Y82282D02*
Y76378D01*
Y79330D01*
X325391D01*
Y82282D01*
Y76378D01*
X327358Y82282D02*
X331294D01*
X329326D01*
Y76378D01*
X333262Y82282D02*
Y76378D01*
X336214D01*
X337198Y77362D01*
Y81298D01*
X336214Y82282D01*
X333262D01*
X339166D02*
Y76378D01*
X341133Y78346D01*
X343101Y76378D01*
Y82282D01*
X345069Y76378D02*
Y82282D01*
X349005Y76378D01*
Y82282D01*
X319487Y223030D02*
X318503Y224014D01*
X316535D01*
X315551Y223030D01*
Y222046D01*
X316535Y221062D01*
X318503D01*
X319487Y220078D01*
Y219094D01*
X318503Y218110D01*
X316535D01*
X315551Y219094D01*
X321455Y224014D02*
Y218110D01*
Y221062D01*
X325391D01*
Y224014D01*
Y218110D01*
X327358Y224014D02*
X331294D01*
X329326D01*
Y218110D01*
X333262Y224014D02*
Y218110D01*
X336214D01*
X337198Y219094D01*
Y223030D01*
X336214Y224014D01*
X333262D01*
X339166D02*
Y218110D01*
X341133Y220078D01*
X343101Y218110D01*
Y224014D01*
X345069Y218110D02*
Y224014D01*
X349005Y218110D01*
Y224014D01*
X311614Y236810D02*
X315550D01*
X313582Y238778D02*
Y234842D01*
X317518Y238778D02*
X318502Y239762D01*
X320470D01*
X321453Y238778D01*
Y237794D01*
X320470Y236810D01*
X319486D01*
X320470D01*
X321453Y235826D01*
Y234842D01*
X320470Y233858D01*
X318502D01*
X317518Y234842D01*
X323421Y233858D02*
Y234842D01*
X324405D01*
Y233858D01*
X323421D01*
X328341Y238778D02*
X329325Y239762D01*
X331293D01*
X332277Y238778D01*
Y237794D01*
X331293Y236810D01*
X330309D01*
X331293D01*
X332277Y235826D01*
Y234842D01*
X331293Y233858D01*
X329325D01*
X328341Y234842D01*
X340148Y239762D02*
X342116D01*
X341132D01*
Y233858D01*
X340148D01*
X342116D01*
X345068D02*
Y239762D01*
X349004Y233858D01*
Y239762D01*
X337204Y208266D02*
X336220Y209250D01*
X334252D01*
X333268Y208266D01*
Y204330D01*
X334252Y203346D01*
X336220D01*
X337204Y204330D01*
Y206298D01*
X335236D01*
X339171Y203346D02*
Y209250D01*
X343107Y203346D01*
Y209250D01*
X345075D02*
Y203346D01*
X348027D01*
X349011Y204330D01*
Y208266D01*
X348027Y209250D01*
X345075D01*
X310630Y250590D02*
X314566D01*
X312598Y252557D02*
Y248622D01*
X320469Y253541D02*
X316533D01*
Y250590D01*
X318501Y251573D01*
X319485D01*
X320469Y250590D01*
Y248622D01*
X319485Y247638D01*
X317517D01*
X316533Y248622D01*
X322437Y253541D02*
Y249606D01*
X324405Y247638D01*
X326373Y249606D01*
Y253541D01*
X337196D02*
X335228D01*
X334244Y252557D01*
Y248622D01*
X335228Y247638D01*
X337196D01*
X338180Y248622D01*
Y252557D01*
X337196Y253541D01*
X340148D02*
Y248622D01*
X341132Y247638D01*
X343100D01*
X344084Y248622D01*
Y253541D01*
X346052D02*
X349987D01*
X348019D01*
Y247638D01*
X12181Y98960D02*
X11066Y100075D01*
X8835D01*
X7720Y98960D01*
Y94499D01*
X8835Y93384D01*
X11066D01*
X12181Y94499D01*
Y96729D01*
X9950D01*
X14411Y93384D02*
Y100075D01*
X18871Y93384D01*
Y100075D01*
X21102D02*
Y93384D01*
X24447D01*
X25562Y94499D01*
Y98960D01*
X24447Y100075D01*
X21102D01*
X5588Y151893D02*
X10048D01*
X7818Y154123D02*
Y149663D01*
X12279Y148547D02*
X14509D01*
X13394D01*
Y155238D01*
X12279Y154123D01*
X22315Y148547D02*
X17854D01*
X22315Y153008D01*
Y154123D01*
X21200Y155238D01*
X18969D01*
X17854Y154123D01*
X24545Y155238D02*
Y150778D01*
X26775Y148547D01*
X29005Y150778D01*
Y155238D01*
X37017Y127054D02*
X39247D01*
X38132D01*
Y120363D01*
X37017D01*
X39247D01*
X42593D02*
Y127054D01*
X47053Y120363D01*
Y127054D01*
D14*
X362205Y175886D02*
X393701D01*
X362205Y134705D02*
Y175886D01*
Y134705D02*
X393701D01*
Y175886D01*
X256890Y191339D02*
Y193307D01*
Y218110D02*
Y220079D01*
X252953Y193307D02*
X260827D01*
Y218110D01*
X252953D02*
X260827D01*
X252953Y193307D02*
Y218110D01*
X122047Y76181D02*
Y78150D01*
Y102953D02*
Y104921D01*
X118110Y78150D02*
X125984D01*
Y102953D01*
X118110D02*
X125984D01*
X118110Y78150D02*
Y102953D01*
X81299Y51968D02*
X83268D01*
X108071D02*
X110039D01*
X83268Y48031D02*
Y55905D01*
Y48031D02*
X108071D01*
Y55905D01*
X83268D02*
X108071D01*
X41732Y70866D02*
X43701D01*
X68504D02*
X70472D01*
X43701Y66929D02*
Y74803D01*
Y66929D02*
X68504D01*
Y74803D01*
X43701D02*
X68504D01*
X141992Y199709D02*
X240417D01*
X141992D02*
Y266638D01*
X240417D01*
Y199709D02*
Y266638D01*
X92883Y131299D02*
Y133268D01*
Y158071D02*
Y160039D01*
X88946Y133268D02*
X96821D01*
Y158071D01*
X88946D02*
X96821D01*
X88946Y133268D02*
Y158071D01*
X153543Y131299D02*
Y133268D01*
Y158071D02*
Y160039D01*
X149606Y133268D02*
X157480D01*
Y158071D01*
X149606D02*
X157480D01*
X149606Y133268D02*
Y158071D01*
X94488Y76181D02*
Y78150D01*
Y102953D02*
Y104921D01*
X90551Y78150D02*
X98425D01*
Y102953D01*
X90551D02*
X98425D01*
X90551Y78150D02*
Y102953D01*
X68898Y97835D02*
Y99803D01*
Y124606D02*
Y126575D01*
X64961Y99803D02*
X72835D01*
Y124606D01*
X64961D02*
X72835D01*
X64961Y99803D02*
Y124606D01*
X295Y144390D02*
X31791D01*
X295Y103209D02*
Y144390D01*
Y103209D02*
X31791D01*
Y144390D01*
X123581Y131299D02*
Y133268D01*
Y158071D02*
Y160039D01*
X119643Y133268D02*
X127517D01*
Y158071D01*
X119643D02*
X127517D01*
X119643Y133268D02*
Y158071D01*
X296264Y113500D02*
Y111532D01*
Y112516D01*
X302167D01*
X301184Y113500D01*
X276914Y257040D02*
Y259008D01*
Y258024D01*
X271010D01*
X271994Y257040D01*
X194571Y121067D02*
X196539D01*
X195555D01*
Y126971D01*
X194571Y125987D01*
Y146815D02*
X196539D01*
X195555D01*
Y152719D01*
X194571Y151735D01*
X62992Y28543D02*
X64960D01*
X63976D01*
Y34447D01*
X62992Y33463D01*
X159138Y90498D02*
X160122Y91482D01*
X162090D01*
X163074Y90498D01*
Y89514D01*
X162090Y88531D01*
X161106D01*
X162090D01*
X163074Y87547D01*
Y86563D01*
X162090Y85579D01*
X160122D01*
X159138Y86563D01*
Y75949D02*
X161106D01*
X160122D01*
Y81852D01*
X159138Y80869D01*
X136811Y49213D02*
X138779D01*
X137795D01*
Y55116D01*
X136811Y54132D01*
X197673Y52559D02*
Y48623D01*
X199641Y50591D02*
X195705D01*
X299212Y63484D02*
Y59548D01*
X301180Y61516D02*
X297244D01*
X90866Y181054D02*
X86930D01*
X88898Y179086D02*
Y183021D01*
D15*
X153083Y220012D02*
X152083Y221012D01*
X150084D01*
X149084Y220012D01*
Y216014D01*
X150084Y215014D01*
X152083D01*
X153083Y216014D01*
Y218013D01*
X151084D01*
X155082Y215014D02*
Y221012D01*
X159081Y215014D01*
Y221012D01*
X161080D02*
Y215014D01*
X164079D01*
X165079Y216014D01*
Y220012D01*
X164079Y221012D01*
X161080D01*
X220206Y220485D02*
X219206Y221485D01*
X217207D01*
X216207Y220485D01*
Y216487D01*
X217207Y215487D01*
X219206D01*
X220206Y216487D01*
Y218486D01*
X218207D01*
X222205Y215487D02*
Y221485D01*
X226204Y215487D01*
Y221485D01*
X228203D02*
Y215487D01*
X231202D01*
X232202Y216487D01*
Y220485D01*
X231202Y221485D01*
X228203D01*
X216126Y251382D02*
Y247384D01*
X218125Y245384D01*
X220125Y247384D01*
Y251382D01*
X223124Y245384D02*
X225123D01*
X226123Y246384D01*
Y248383D01*
X225123Y249383D01*
X223124D01*
X222124Y248383D01*
Y246384D01*
X223124Y245384D01*
X228122Y249383D02*
Y246384D01*
X229122Y245384D01*
X232121D01*
Y249383D01*
X235120Y250383D02*
Y249383D01*
X234120D01*
X236119D01*
X235120D01*
Y246384D01*
X236119Y245384D01*
X148892Y252081D02*
Y248082D01*
X150891Y246083D01*
X152891Y248082D01*
Y252081D01*
X154890Y246083D02*
X156889D01*
X155889D01*
Y250082D01*
X154890D01*
X159888Y246083D02*
Y250082D01*
X162887D01*
X163887Y249082D01*
Y246083D01*
X295967Y142948D02*
Y138949D01*
X297967Y136950D01*
X299966Y138949D01*
Y142948D01*
X301965D02*
X305964D01*
X303964D01*
Y136950D01*
X307963Y142948D02*
X311962D01*
Y141948D01*
X307963Y137950D01*
Y136950D01*
X288221Y73498D02*
X282223D01*
Y76497D01*
X283223Y77496D01*
X285222D01*
X286222Y76497D01*
Y73498D01*
Y75497D02*
X288221Y77496D01*
Y79496D02*
Y81495D01*
Y80495D01*
X282223D01*
X283223Y79496D01*
X288221Y87493D02*
X282223D01*
X285222Y84494D01*
Y88493D01*
X292699Y171214D02*
Y177212D01*
X295698D01*
X296698Y176212D01*
Y174213D01*
X295698Y173213D01*
X292699D01*
X294699D02*
X296698Y171214D01*
X298697D02*
X300697D01*
X299697D01*
Y177212D01*
X298697Y176212D01*
X303696D02*
X304695Y177212D01*
X306695D01*
X307694Y176212D01*
Y175212D01*
X306695Y174213D01*
X305695D01*
X306695D01*
X307694Y173213D01*
Y172213D01*
X306695Y171214D01*
X304695D01*
X303696Y172213D01*
X363112Y186070D02*
X367111Y180072D01*
Y186070D02*
X363112Y180072D01*
X372109D02*
Y186070D01*
X369110Y183071D01*
X373109D01*
X373939Y127015D02*
X377937Y121017D01*
Y127015D02*
X373939Y121017D01*
X379937Y126015D02*
X380936Y127015D01*
X382936D01*
X383935Y126015D01*
Y125015D01*
X382936Y124016D01*
X381936D01*
X382936D01*
X383935Y123016D01*
Y122016D01*
X382936Y121017D01*
X380936D01*
X379937Y122016D01*
X375848Y269223D02*
X379846Y263225D01*
Y269223D02*
X375848Y263225D01*
X385844D02*
X381846D01*
X385844Y267223D01*
Y268223D01*
X384845Y269223D01*
X382845D01*
X381846Y268223D01*
X34797Y144377D02*
X38796Y138379D01*
Y144377D02*
X34797Y138379D01*
X40795D02*
X42795D01*
X41795D01*
Y144377D01*
X40795Y143377D01*
X140086Y66134D02*
Y62135D01*
X142086Y60136D01*
X144085Y62135D01*
Y66134D01*
X146084D02*
X150083D01*
X148084D01*
Y60136D01*
X156081Y66134D02*
X154082Y65134D01*
X152082Y63135D01*
Y61135D01*
X153082Y60136D01*
X155081D01*
X156081Y61135D01*
Y62135D01*
X155081Y63135D01*
X152082D01*
X140625Y104534D02*
Y100536D01*
X142624Y98536D01*
X144623Y100536D01*
Y104534D01*
X146623D02*
X150621D01*
X148622D01*
Y98536D01*
X156620Y104534D02*
X152621D01*
Y101535D01*
X154620Y102535D01*
X155620D01*
X156620Y101535D01*
Y99536D01*
X155620Y98536D01*
X153620D01*
X152621Y99536D01*
X67109Y11567D02*
Y7569D01*
X69108Y5569D01*
X71107Y7569D01*
Y11567D01*
X73107D02*
X77105D01*
X75106D01*
Y5569D01*
X82104D02*
Y11567D01*
X79105Y8568D01*
X83103D01*
X165308Y147593D02*
X169307D01*
X171306Y149592D01*
X169307Y151592D01*
X165308D01*
Y153591D02*
Y157590D01*
Y155590D01*
X171306D01*
X166308Y159589D02*
X165308Y160589D01*
Y162588D01*
X166308Y163588D01*
X167307D01*
X168307Y162588D01*
Y161589D01*
Y162588D01*
X169307Y163588D01*
X170306D01*
X171306Y162588D01*
Y160589D01*
X170306Y159589D01*
X165308Y120861D02*
X169307D01*
X171306Y122860D01*
X169307Y124860D01*
X165308D01*
Y126859D02*
Y130858D01*
Y128858D01*
X171306D01*
Y136856D02*
Y132857D01*
X167307Y136856D01*
X166308D01*
X165308Y135856D01*
Y133857D01*
X166308Y132857D01*
X249816Y240259D02*
X253814D01*
X255814Y242259D01*
X253814Y244258D01*
X249816D01*
Y246257D02*
Y250256D01*
Y248257D01*
X255814D01*
Y252256D02*
Y254255D01*
Y253255D01*
X249816D01*
X250815Y252256D01*
X265385Y175921D02*
Y171922D01*
X267385Y169923D01*
X269384Y171922D01*
Y175921D01*
X271383D02*
Y169923D01*
X274382D01*
X275382Y170923D01*
Y174921D01*
X274382Y175921D01*
X271383D01*
X277381Y174921D02*
X278381Y175921D01*
X280380D01*
X281380Y174921D01*
Y173922D01*
X280380Y172922D01*
X281380Y171922D01*
Y170923D01*
X280380Y169923D01*
X278381D01*
X277381Y170923D01*
Y171922D01*
X278381Y172922D01*
X277381Y173922D01*
Y174921D01*
X278381Y172922D02*
X280380D01*
X174178Y102131D02*
Y98133D01*
X176178Y96133D01*
X178177Y98133D01*
Y102131D01*
X180176D02*
Y96133D01*
X183175D01*
X184175Y97133D01*
Y101132D01*
X183175Y102131D01*
X180176D01*
X186174D02*
X190173D01*
Y101132D01*
X186174Y97133D01*
Y96133D01*
X102837Y12335D02*
Y8336D01*
X104836Y6337D01*
X106836Y8336D01*
Y12335D01*
X108835D02*
Y6337D01*
X111834D01*
X112834Y7337D01*
Y11335D01*
X111834Y12335D01*
X108835D01*
X118832D02*
X116833Y11335D01*
X114833Y9336D01*
Y7337D01*
X115833Y6337D01*
X117832D01*
X118832Y7337D01*
Y8336D01*
X117832Y9336D01*
X114833D01*
X145940Y12448D02*
Y8449D01*
X147939Y6450D01*
X149938Y8449D01*
Y12448D01*
X151938D02*
Y6450D01*
X154937D01*
X155936Y7450D01*
Y11448D01*
X154937Y12448D01*
X151938D01*
X161934D02*
X157936D01*
Y9449D01*
X159935Y10448D01*
X160935D01*
X161934Y9449D01*
Y7450D01*
X160935Y6450D01*
X158935D01*
X157936Y7450D01*
X33325Y193944D02*
Y189945D01*
X35325Y187946D01*
X37324Y189945D01*
Y193944D01*
X39323D02*
Y187946D01*
X42322D01*
X43322Y188945D01*
Y192944D01*
X42322Y193944D01*
X39323D01*
X48321Y187946D02*
Y193944D01*
X45322Y190945D01*
X49320D01*
X117103Y187798D02*
X121102D01*
X123101Y189798D01*
X121102Y191797D01*
X117103D01*
Y193796D02*
X123101D01*
Y196795D01*
X122102Y197795D01*
X118103D01*
X117103Y196795D01*
Y193796D01*
X118103Y199794D02*
X117103Y200794D01*
Y202794D01*
X118103Y203793D01*
X119103D01*
X120102Y202794D01*
Y201794D01*
Y202794D01*
X121102Y203793D01*
X122102D01*
X123101Y202794D01*
Y200794D01*
X122102Y199794D01*
X92473Y187869D02*
X96472D01*
X98471Y189868D01*
X96472Y191867D01*
X92473D01*
Y193867D02*
X98471D01*
Y196866D01*
X97472Y197865D01*
X93473D01*
X92473Y196866D01*
Y193867D01*
X98471Y203864D02*
Y199865D01*
X94473Y203864D01*
X93473D01*
X92473Y202864D01*
Y200865D01*
X93473Y199865D01*
X193790Y193944D02*
Y189945D01*
X195789Y187946D01*
X197788Y189945D01*
Y193944D01*
X199788D02*
Y187946D01*
X202787D01*
X203786Y188945D01*
Y192944D01*
X202787Y193944D01*
X199788D01*
X205786Y187946D02*
X207785D01*
X206785D01*
Y193944D01*
X205786Y192944D01*
X196789Y113235D02*
Y108237D01*
X197788Y107237D01*
X199788D01*
X200787Y108237D01*
Y113235D01*
X202787Y107237D02*
X204786D01*
X203786D01*
Y113235D01*
X202787Y112236D01*
X111190Y244048D02*
X110190Y243049D01*
Y241049D01*
X111190Y240050D01*
X112189D01*
X113189Y241049D01*
Y243049D01*
X114189Y244048D01*
X115188D01*
X116188Y243049D01*
Y241049D01*
X115188Y240050D01*
X110190Y246048D02*
X116188D01*
Y249047D01*
X115188Y250046D01*
X114189D01*
X113189Y249047D01*
Y246048D01*
Y249047D01*
X112189Y250046D01*
X111190D01*
X110190Y249047D01*
Y246048D01*
X116188Y252046D02*
Y254045D01*
Y253045D01*
X110190D01*
X111190Y252046D01*
X89959Y36371D02*
Y42369D01*
X92958D01*
X93958Y41369D01*
Y39370D01*
X92958Y38370D01*
X89959D01*
X91958D02*
X93958Y36371D01*
X95957D02*
X97956D01*
X96956D01*
Y42369D01*
X95957Y41369D01*
X100955Y36371D02*
X102955D01*
X101955D01*
Y42369D01*
X100955Y41369D01*
X34825Y82631D02*
Y88629D01*
X37824D01*
X38824Y87629D01*
Y85630D01*
X37824Y84630D01*
X34825D01*
X36825D02*
X38824Y82631D01*
X40823D02*
X42823D01*
X41823D01*
Y88629D01*
X40823Y87629D01*
X45822D02*
X46821Y88629D01*
X48821D01*
X49820Y87629D01*
Y83631D01*
X48821Y82631D01*
X46821D01*
X45822Y83631D01*
Y87629D01*
X111705Y86160D02*
X105707D01*
Y89159D01*
X106707Y90159D01*
X108706D01*
X109706Y89159D01*
Y86160D01*
Y88159D02*
X111705Y90159D01*
X110705Y92158D02*
X111705Y93158D01*
Y95157D01*
X110705Y96157D01*
X106707D01*
X105707Y95157D01*
Y93158D01*
X106707Y92158D01*
X107706D01*
X108706Y93158D01*
Y96157D01*
X85592Y85475D02*
X79594D01*
Y88475D01*
X80593Y89474D01*
X82593D01*
X83592Y88475D01*
Y85475D01*
Y87475D02*
X85592Y89474D01*
X80593Y91474D02*
X79594Y92473D01*
Y94473D01*
X80593Y95472D01*
X81593D01*
X82593Y94473D01*
X83592Y95472D01*
X84592D01*
X85592Y94473D01*
Y92473D01*
X84592Y91474D01*
X83592D01*
X82593Y92473D01*
X81593Y91474D01*
X80593D01*
X82593Y92473D02*
Y94473D01*
X287448Y226301D02*
X281450D01*
Y229300D01*
X282450Y230299D01*
X284449D01*
X285449Y229300D01*
Y226301D01*
Y228300D02*
X287448Y230299D01*
X281450Y232299D02*
Y236298D01*
X282450D01*
X286448Y232299D01*
X287448D01*
X60665Y108023D02*
X54667D01*
Y111022D01*
X55667Y112022D01*
X57666D01*
X58666Y111022D01*
Y108023D01*
Y110022D02*
X60665Y112022D01*
X54667Y118020D02*
X55667Y116020D01*
X57666Y114021D01*
X59665D01*
X60665Y115021D01*
Y117020D01*
X59665Y118020D01*
X58666D01*
X57666Y117020D01*
Y114021D01*
X83498Y141166D02*
X77500D01*
Y144165D01*
X78500Y145165D01*
X80499D01*
X81499Y144165D01*
Y141166D01*
Y143166D02*
X83498Y145165D01*
X77500Y151163D02*
Y147164D01*
X80499D01*
X79500Y149164D01*
Y150163D01*
X80499Y151163D01*
X82499D01*
X83498Y150163D01*
Y148164D01*
X82499Y147164D01*
X143984Y141307D02*
X137986D01*
Y144306D01*
X138985Y145306D01*
X140985D01*
X141984Y144306D01*
Y141307D01*
Y143306D02*
X143984Y145306D01*
Y150304D02*
X137986D01*
X140985Y147305D01*
Y151304D01*
X295198Y197788D02*
Y203786D01*
X298198D01*
X299197Y202787D01*
Y200787D01*
X298198Y199788D01*
X295198D01*
X297198D02*
X299197Y197788D01*
X301197Y202787D02*
X302196Y203786D01*
X304196D01*
X305195Y202787D01*
Y201787D01*
X304196Y200787D01*
X303196D01*
X304196D01*
X305195Y199788D01*
Y198788D01*
X304196Y197788D01*
X302196D01*
X301197Y198788D01*
X113735Y141475D02*
X107737D01*
Y144474D01*
X108736Y145473D01*
X110736D01*
X111735Y144474D01*
Y141475D01*
Y143474D02*
X113735Y145473D01*
Y151471D02*
Y147473D01*
X109736Y151471D01*
X108736D01*
X107737Y150472D01*
Y148472D01*
X108736Y147473D01*
X273239Y200129D02*
X267241D01*
Y203128D01*
X268241Y204128D01*
X270240D01*
X271240Y203128D01*
Y200129D01*
Y202129D02*
X273239Y204128D01*
Y206127D02*
Y208127D01*
Y207127D01*
X267241D01*
X268241Y206127D01*
X5509Y56830D02*
X11507D01*
X8508D01*
Y60828D01*
X5509D01*
X11507D01*
X5509Y62828D02*
X11507D01*
Y66826D01*
Y68826D02*
Y70825D01*
Y69825D01*
X5509D01*
X6509Y68826D01*
X243971Y48275D02*
Y42277D01*
X246970D01*
X247970Y43276D01*
Y47275D01*
X246970Y48275D01*
X243971D01*
X249969Y42277D02*
Y46275D01*
X251969Y48275D01*
X253968Y46275D01*
Y42277D01*
Y45276D01*
X249969D01*
X259966Y42277D02*
X255967D01*
X259966Y46275D01*
Y47275D01*
X258966Y48275D01*
X256967D01*
X255967Y47275D01*
X184459Y234298D02*
Y228300D01*
X187458D01*
X188458Y229300D01*
Y233299D01*
X187458Y234298D01*
X184459D01*
X190457Y228300D02*
Y232299D01*
X192456Y234298D01*
X194456Y232299D01*
Y228300D01*
Y231299D01*
X190457D01*
X196455Y228300D02*
X198454D01*
X197455D01*
Y234298D01*
X196455Y233299D01*
X311993Y61812D02*
X310993Y62812D01*
X308993D01*
X307994Y61812D01*
Y57813D01*
X308993Y56814D01*
X310993D01*
X311993Y57813D01*
X313992Y61812D02*
X314991Y62812D01*
X316991D01*
X317990Y61812D01*
Y60812D01*
X316991Y59813D01*
X315991D01*
X316991D01*
X317990Y58813D01*
Y57813D01*
X316991Y56814D01*
X314991D01*
X313992Y57813D01*
X176891Y41369D02*
X175891Y42369D01*
X173892D01*
X172892Y41369D01*
Y37371D01*
X173892Y36371D01*
X175891D01*
X176891Y37371D01*
X182889Y36371D02*
X178890D01*
X182889Y40370D01*
Y41369D01*
X181889Y42369D01*
X179890D01*
X178890Y41369D01*
X68634Y167146D02*
X67635Y168146D01*
X65635D01*
X64636Y167146D01*
Y163147D01*
X65635Y162148D01*
X67635D01*
X68634Y163147D01*
X70634Y162148D02*
X72633D01*
X71633D01*
Y168146D01*
X70634Y167146D01*
D16*
X181103Y78677D02*
D03*
M02*
