M48
;Layer_Color=9474304
;FILE_FORMAT=2:4
INCH,TZ
;TYPE=PLATED
T1F00S00C0.0118
T2F00S00C0.0276
T3F00S00C0.0315
T4F00S00C0.0394
T5F00S00C0.0433
T6F00S00C0.0453
T7F00S00C0.0510
T8F00S00C0.0551
T9F00S00C0.0591
T10F00S00C0.0669
T11F00S00C0.0709
T12F00S00C0.0748
;TYPE=NON_PLATED
T13F00S00C0.1260
%
T01
X14142Y3287
X13896Y3720
X14811Y3248
X15455Y3298
X15726Y3730
X30655Y7480
X30709Y8661
X31468Y18532
X30645Y22441
X30610Y23622
T02
X7382Y1969
Y2468
Y2968
X9498Y1969
X12500
X13853
X14811Y4205
Y4705
Y5205
X14961Y7874
Y8374
Y8874
X18504Y12386
Y12886
Y13386
Y14961
Y15461
X29906Y12303
X30406
X30906
X16856Y1969
X18504Y15961
X18578Y18110
X21580
X26559Y24803
X27059
X27559
X12992Y21186
X10630
Y18184
X12992
T03
X19758Y3150
Y3937
X29921Y4331
Y5118
X7874Y18110
X7087
T04
X3642Y7087
X7579
X9449
X12205
X11535Y5197
X7598
X6890Y9252
Y13189
X9288Y12598
X9449Y11024
X12205
X12358Y12598
X15354Y12598
X25689Y18602
Y22539
X15354Y16535
X12358Y16535
X9288Y16535
T05
X15799Y20571
Y26083
X22441
X23441
Y20571
X22441
X14799
Y26083
T06
X18110Y5315
Y8858
T07
X21415Y6345
X24415
Y15046
X21415Y13786
Y16306
T08
X36325Y6382
X36319Y7874
Y9382
X36325Y10882
X36319Y20669
X36313Y22162
Y23670
X36319Y25169
T09
X27559Y9743
Y16238
X7676Y20866
X1181
T10
X1604Y11386
Y13386
X37795Y14535
Y16535
T11
X23228Y3150
X25197
X27165
T12
X1693Y23819
Y25787
X6693Y24803
X8189
X9685
T13
X4528Y3937
X32874
Y16535
X4528
M30
