G04*
G04 #@! TF.GenerationSoftware,Altium Limited,Altium Designer,20.0.11 (256)*
G04*
G04 Layer_Color=32768*
%FSLAX25Y25*%
%MOIN*%
G70*
G01*
G75*
%ADD10C,0.00787*%
%ADD11C,0.00600*%
%ADD14C,0.00591*%
%ADD74C,0.00394*%
%ADD75C,0.00197*%
%ADD76C,0.01968*%
D10*
X0D02*
X393701D01*
X393701Y275590D02*
X393701Y0D01*
X0Y275590D02*
X393701D01*
X0D02*
X0Y0D01*
X80890Y197835D02*
Y219488D01*
X7677D02*
X80890D01*
X7677Y197835D02*
Y219488D01*
Y197835D02*
X80890D01*
X286416Y93300D02*
Y166513D01*
X264762Y93300D02*
X286416D01*
X264762D02*
Y166513D01*
X286416D01*
X16929Y248031D02*
X66929D01*
X16929D02*
Y257874D01*
Y238189D02*
Y248031D01*
X66929D02*
X81890D01*
X96850D01*
X218555Y176949D02*
Y185256D01*
X183020D02*
X218555D01*
X183020Y176949D02*
Y185256D01*
Y176949D02*
X218555D01*
X135776Y15531D02*
Y23839D01*
Y15531D02*
X171311D01*
Y23839D01*
X135776D02*
X171311D01*
X92220Y15531D02*
Y23839D01*
Y15531D02*
X127756D01*
Y23839D01*
X92220D02*
X127756D01*
X102146Y179083D02*
X110453D01*
Y214618D01*
X102146D02*
X110453D01*
X102146Y179083D02*
Y214618D01*
X14764Y74705D02*
X22638D01*
X14764Y52264D02*
Y74705D01*
Y52264D02*
X22638D01*
Y74705D01*
X125768Y179083D02*
X134075D01*
Y214618D01*
X125768D02*
X134075D01*
X125768Y179083D02*
Y214618D01*
D11*
X208248Y169169D02*
X250048D01*
X208248Y54969D02*
Y169169D01*
Y54969D02*
X250048D01*
Y169169D01*
D14*
X264764Y182087D02*
Y195866D01*
Y219488D02*
Y229331D01*
X256890Y203740D02*
Y207677D01*
X254921Y205709D02*
X258858D01*
X264764Y195866D02*
Y219488D01*
X249016Y229331D02*
X264764D01*
X249016Y182087D02*
Y229331D01*
Y182087D02*
X264764D01*
X129921Y66929D02*
Y80709D01*
Y104331D02*
Y114173D01*
X122047Y88583D02*
Y92520D01*
X120079Y90551D02*
X124016D01*
X129921Y80709D02*
Y104331D01*
X114173Y114173D02*
X129921D01*
X114173Y66929D02*
Y114173D01*
Y66929D02*
X129921D01*
X72047Y44094D02*
X85827D01*
X109449D02*
X119291D01*
X93701Y51968D02*
X97638D01*
X95669Y50000D02*
Y53937D01*
X85827Y44094D02*
X109449D01*
X119291D02*
Y59842D01*
X72047D02*
X119291D01*
X72047Y44094D02*
Y59842D01*
X32480Y62992D02*
X46260D01*
X69882D02*
X79724D01*
X54134Y70866D02*
X58071D01*
X56102Y68898D02*
Y72835D01*
X46260Y62992D02*
X69882D01*
X79724D02*
Y78740D01*
X32480D02*
X79724D01*
X32480Y62992D02*
Y78740D01*
X100758Y122047D02*
Y135827D01*
Y159449D02*
Y169291D01*
X92883Y143701D02*
Y147638D01*
X90915Y145669D02*
X94852D01*
X100758Y135827D02*
Y159449D01*
X85009Y169291D02*
X100758D01*
X85009Y122047D02*
Y169291D01*
Y122047D02*
X100758D01*
X161417Y122047D02*
Y135827D01*
Y159449D02*
Y169291D01*
X153543Y143701D02*
Y147638D01*
X151575Y145669D02*
X155512D01*
X161417Y135827D02*
Y159449D01*
X145669Y169291D02*
X161417D01*
X145669Y122047D02*
Y169291D01*
Y122047D02*
X161417D01*
X102362Y66929D02*
Y80709D01*
Y104331D02*
Y114173D01*
X94488Y88583D02*
Y92520D01*
X92520Y90551D02*
X96457D01*
X102362Y80709D02*
Y104331D01*
X86614Y114173D02*
X102362D01*
X86614Y66929D02*
Y114173D01*
Y66929D02*
X102362D01*
X76772Y88583D02*
Y102362D01*
Y125984D02*
Y135827D01*
X68898Y110236D02*
Y114173D01*
X66929Y112205D02*
X70866D01*
X76772Y102362D02*
Y125984D01*
X61024Y135827D02*
X76772D01*
X61024Y88583D02*
Y135827D01*
Y88583D02*
X76772D01*
X131455Y122047D02*
Y135827D01*
Y159449D02*
Y169291D01*
X123581Y143701D02*
Y147638D01*
X121612Y145669D02*
X125549D01*
X131455Y135827D02*
Y159449D01*
X115707Y169291D02*
X131455D01*
X115707Y122047D02*
Y169291D01*
Y122047D02*
X131455D01*
D74*
X300197Y183355D02*
Y187292D01*
X298228Y185324D02*
X302165D01*
X291535Y181387D02*
Y189261D01*
X308858Y181387D02*
Y189261D01*
X291535D02*
X308858D01*
X291535Y181387D02*
X308858D01*
X294291Y80709D02*
X298228D01*
X296260Y78740D02*
Y82677D01*
X292323Y72047D02*
X300197D01*
X292323Y89370D02*
X300197D01*
X292323Y72047D02*
Y89370D01*
X300197Y72047D02*
Y89370D01*
X292323Y230315D02*
X296260D01*
X294291Y228346D02*
Y232283D01*
X290354Y221654D02*
X298228D01*
X290354Y238976D02*
X298228D01*
X290354Y221654D02*
Y238976D01*
X298228Y221654D02*
Y238976D01*
X300197Y209041D02*
Y212978D01*
X298228Y211010D02*
X302165D01*
X291535Y207073D02*
Y214947D01*
X308858Y207073D02*
Y214947D01*
X291535D02*
X308858D01*
X291535Y207073D02*
X308858D01*
X179134Y70866D02*
X183071D01*
X181102Y68898D02*
Y72835D01*
X250000Y31496D02*
X253937D01*
X251969Y29528D02*
Y33465D01*
X197576Y33465D02*
Y37402D01*
X195607Y35433D02*
X199544D01*
X299213Y45276D02*
Y49213D01*
X297244Y47244D02*
X301181D01*
X229419Y258802D02*
Y262739D01*
X227450Y260771D02*
X231387D01*
X152983Y258914D02*
Y262851D01*
X151014Y260883D02*
X154951D01*
X229419Y203684D02*
Y207621D01*
X227450Y205653D02*
X231387D01*
X152983Y203796D02*
Y207733D01*
X151014Y205765D02*
X154951D01*
X72835Y181102D02*
X76772D01*
X74803Y179134D02*
Y183071D01*
D75*
X207812Y35433D02*
X207763Y36436D01*
X207615Y37430D01*
X207371Y38405D01*
X207033Y39350D01*
X206603Y40258D01*
X206087Y41120D01*
X205488Y41927D01*
X204814Y42671D01*
X204070Y43346D01*
X203263Y43944D01*
X202401Y44461D01*
X201493Y44890D01*
X200547Y45228D01*
X199573Y45473D01*
X198579Y45620D01*
X197576Y45669D01*
X196572Y45620D01*
X195579Y45473D01*
X194604Y45228D01*
X193659Y44890D01*
X192751Y44461D01*
X191889Y43944D01*
X191082Y43346D01*
X190338Y42671D01*
X189663Y41927D01*
X189065Y41120D01*
X188548Y40258D01*
X188119Y39350D01*
X187780Y38405D01*
X187536Y37430D01*
X187389Y36436D01*
X187340Y35433D01*
X187389Y34430D01*
X187536Y33436D01*
X187780Y32462D01*
X188119Y31516D01*
X188548Y30608D01*
X189065Y29746D01*
X189663Y28939D01*
X190338Y28195D01*
X191082Y27520D01*
X191889Y26922D01*
X192751Y26406D01*
X193659Y25976D01*
X194604Y25638D01*
X195579Y25394D01*
X196572Y25246D01*
X197576Y25197D01*
X198579Y25246D01*
X199573Y25394D01*
X200547Y25638D01*
X201493Y25976D01*
X202401Y26406D01*
X203263Y26922D01*
X204070Y27520D01*
X204814Y28195D01*
X205488Y28939D01*
X206087Y29746D01*
X206603Y30608D01*
X207033Y31516D01*
X207371Y32462D01*
X207615Y33436D01*
X207763Y34430D01*
X207812Y35433D01*
X309449Y47244D02*
X309400Y48247D01*
X309252Y49241D01*
X309008Y50216D01*
X308670Y51161D01*
X308240Y52069D01*
X307724Y52931D01*
X307125Y53738D01*
X306451Y54482D01*
X305706Y55157D01*
X304900Y55755D01*
X304038Y56272D01*
X303130Y56701D01*
X302184Y57039D01*
X301210Y57284D01*
X300216Y57431D01*
X299213Y57480D01*
X298209Y57431D01*
X297216Y57284D01*
X296241Y57039D01*
X295295Y56701D01*
X294387Y56272D01*
X293526Y55755D01*
X292719Y55157D01*
X291974Y54482D01*
X291300Y53738D01*
X290702Y52931D01*
X290185Y52069D01*
X289756Y51161D01*
X289417Y50216D01*
X289173Y49241D01*
X289026Y48247D01*
X288976Y47244D01*
X289026Y46241D01*
X289173Y45247D01*
X289417Y44273D01*
X289756Y43327D01*
X290185Y42419D01*
X290702Y41557D01*
X291300Y40750D01*
X291974Y40006D01*
X292719Y39331D01*
X293526Y38733D01*
X294387Y38217D01*
X295295Y37787D01*
X296241Y37449D01*
X297216Y37205D01*
X298209Y37057D01*
X299213Y37008D01*
X300216Y37057D01*
X301210Y37205D01*
X302184Y37449D01*
X303130Y37787D01*
X304038Y38217D01*
X304900Y38733D01*
X305706Y39331D01*
X306451Y40006D01*
X307125Y40750D01*
X307724Y41557D01*
X308240Y42419D01*
X308670Y43327D01*
X309008Y44273D01*
X309252Y45247D01*
X309400Y46241D01*
X309449Y47244D01*
X85039Y181102D02*
X84990Y182106D01*
X84843Y183099D01*
X84599Y184074D01*
X84260Y185020D01*
X83831Y185928D01*
X83314Y186789D01*
X82716Y187596D01*
X82041Y188340D01*
X81297Y189015D01*
X80490Y189613D01*
X79628Y190130D01*
X78720Y190559D01*
X77775Y190898D01*
X76800Y191142D01*
X75806Y191289D01*
X74803Y191339D01*
X73800Y191289D01*
X72806Y191142D01*
X71832Y190898D01*
X70886Y190559D01*
X69978Y190130D01*
X69116Y189613D01*
X68309Y189015D01*
X67565Y188340D01*
X66890Y187596D01*
X66292Y186789D01*
X65776Y185928D01*
X65346Y185020D01*
X65008Y184074D01*
X64764Y183099D01*
X64616Y182106D01*
X64567Y181102D01*
X64616Y180099D01*
X64764Y179105D01*
X65008Y178131D01*
X65346Y177185D01*
X65776Y176277D01*
X66292Y175415D01*
X66890Y174609D01*
X67565Y173864D01*
X68309Y173190D01*
X69116Y172591D01*
X69978Y172075D01*
X70886Y171645D01*
X71832Y171307D01*
X72806Y171063D01*
X73800Y170915D01*
X74803Y170866D01*
X75806Y170915D01*
X76800Y171063D01*
X77775Y171307D01*
X78720Y171645D01*
X79628Y172075D01*
X80490Y172591D01*
X81297Y173190D01*
X82041Y173864D01*
X82716Y174609D01*
X83314Y175415D01*
X83831Y176277D01*
X84260Y177185D01*
X84599Y178131D01*
X84843Y179105D01*
X84990Y180099D01*
X85039Y181102D01*
X186142Y49508D02*
Y92224D01*
X176063Y49508D02*
X186142D01*
X176063Y92224D02*
X186142D01*
X176063Y49508D02*
Y92224D01*
X218756Y254827D02*
Y266827D01*
X240409D01*
Y254827D02*
Y266827D01*
X218756Y254827D02*
X240409D01*
X163646D02*
Y266827D01*
X141992Y254827D02*
X163646D01*
X141992D02*
Y266827D01*
X163646D01*
X218756Y199709D02*
Y211709D01*
X240409D01*
Y199709D02*
Y211709D01*
X218756Y199709D02*
X240409D01*
X163646D02*
Y211709D01*
X141992Y199709D02*
X163646D01*
X141992D02*
Y211709D01*
X163646D01*
D76*
X224410Y23622D02*
Y39370D01*
X279528D01*
Y23622D02*
Y39370D01*
X224410Y23622D02*
X279528D01*
M02*
