G04*
G04 #@! TF.GenerationSoftware,Altium Limited,Altium Designer,19.1.5 (86)*
G04*
G04 Layer_Color=16711935*
%FSLAX44Y44*%
%MOMM*%
G71*
G01*
G75*
%ADD26P,2.1683X8X22.5*%
%ADD27C,2.0032*%
%ADD28C,1.7272*%
G04:AMPARAMS|DCode=29|XSize=3.7032mm|YSize=3.2032mm|CornerRadius=0.8516mm|HoleSize=0mm|Usage=FLASHONLY|Rotation=180.000|XOffset=0mm|YOffset=0mm|HoleType=Round|Shape=RoundedRectangle|*
%AMROUNDEDRECTD29*
21,1,3.7032,1.5000,0,0,180.0*
21,1,2.0000,3.2032,0,0,180.0*
1,1,1.7032,-1.0000,0.7500*
1,1,1.7032,1.0000,0.7500*
1,1,1.7032,1.0000,-0.7500*
1,1,1.7032,-1.0000,-0.7500*
%
%ADD29ROUNDEDRECTD29*%
%ADD30P,1.8435X8X292.5*%
%ADD31C,1.7032*%
D26*
X470000Y475000D02*
D03*
D27*
X505000D02*
D03*
D28*
X2011500Y370000D02*
D03*
Y1050000D02*
D03*
X988500D02*
D03*
Y370000D02*
D03*
D29*
X1500000Y1152500D02*
D03*
X1590000D02*
D03*
X1680000D02*
D03*
X1770000D02*
D03*
X1860000D02*
D03*
X1950000D02*
D03*
X2040000D02*
D03*
X2130000D02*
D03*
X2220000D02*
D03*
X2310000D02*
D03*
X2400000D02*
D03*
X2490000D02*
D03*
X2580000D02*
D03*
X2670000D02*
D03*
X2760000D02*
D03*
X1410000D02*
D03*
X1320000D02*
D03*
X1230000D02*
D03*
X1140000D02*
D03*
X1050000D02*
D03*
X960000D02*
D03*
X870000D02*
D03*
X780000D02*
D03*
X690000D02*
D03*
X600000D02*
D03*
X510000D02*
D03*
X420000D02*
D03*
X330000D02*
D03*
X240000D02*
D03*
X2760000Y267500D02*
D03*
X2670000D02*
D03*
X2580000D02*
D03*
X2490000D02*
D03*
X2400000D02*
D03*
X2310000D02*
D03*
X2220000D02*
D03*
X2130000D02*
D03*
X2040000D02*
D03*
X1950000D02*
D03*
X1860000D02*
D03*
X1770000D02*
D03*
X1680000D02*
D03*
X1590000D02*
D03*
X240000D02*
D03*
X330000D02*
D03*
X420000D02*
D03*
X510000D02*
D03*
X600000D02*
D03*
X690000D02*
D03*
X780000D02*
D03*
X870000D02*
D03*
X960000D02*
D03*
X1050000D02*
D03*
X1140000D02*
D03*
X1230000D02*
D03*
X1320000D02*
D03*
X1410000D02*
D03*
X1500000D02*
D03*
D30*
X397500Y550200D02*
D03*
D31*
Y524800D02*
D03*
M02*
