G04*
G04 #@! TF.GenerationSoftware,Altium Limited,Altium Designer,19.1.5 (86)*
G04*
G04 Layer_Physical_Order=2*
G04 Layer_Color=255*
%FSLAX44Y44*%
%MOMM*%
G71*
G01*
G75*
%ADD12C,0.6000*%
%ADD40C,1.2000*%
%ADD41C,0.8000*%
%ADD43R,2.0000X2.0000*%
%ADD44P,1.9483X8X22.5*%
%ADD45C,1.8000*%
%ADD46C,1.5240*%
G04:AMPARAMS|DCode=47|XSize=3.5mm|YSize=3mm|CornerRadius=0.75mm|HoleSize=0mm|Usage=FLASHONLY|Rotation=180.000|XOffset=0mm|YOffset=0mm|HoleType=Round|Shape=RoundedRectangle|*
%AMROUNDEDRECTD47*
21,1,3.5000,1.5000,0,0,180.0*
21,1,2.0000,3.0000,0,0,180.0*
1,1,1.5000,-1.0000,0.7500*
1,1,1.5000,1.0000,0.7500*
1,1,1.5000,1.0000,-0.7500*
1,1,1.5000,-1.0000,-0.7500*
%
%ADD47ROUNDEDRECTD47*%
%ADD48P,1.6236X8X292.5*%
%ADD49C,1.5000*%
%ADD50C,1.2000*%
G36*
X2790000Y1180000D02*
X2790000D01*
Y976892D01*
X2789166Y975820D01*
X2788702Y975439D01*
X2786797Y974528D01*
X2786000Y974415D01*
X2785721Y974490D01*
X2785110Y974743D01*
X2784455Y974829D01*
X2783817Y975000D01*
X2783156D01*
X2782500Y975086D01*
X440000D01*
X437389Y974743D01*
X434957Y973735D01*
X432868Y972132D01*
X424086Y963350D01*
X420086Y965007D01*
Y1075000D01*
X420000Y1075655D01*
Y1076317D01*
X419829Y1076955D01*
X419743Y1077610D01*
X419490Y1078221D01*
X419319Y1078860D01*
X418988Y1079432D01*
X418735Y1080043D01*
X418332Y1080568D01*
X418002Y1081140D01*
X417535Y1081608D01*
X417132Y1082132D01*
X351599Y1147665D01*
Y1160000D01*
X351204Y1163002D01*
X350045Y1165800D01*
X348202Y1168202D01*
X345800Y1170045D01*
X343002Y1171204D01*
X340000Y1171599D01*
X320000D01*
X316998Y1171204D01*
X314200Y1170045D01*
X311798Y1168202D01*
X309955Y1165800D01*
X308796Y1163002D01*
X308401Y1160000D01*
Y1145000D01*
X308796Y1141998D01*
X309955Y1139200D01*
X311798Y1136798D01*
X314200Y1134955D01*
X316998Y1133796D01*
X320000Y1133401D01*
X337335D01*
X399914Y1070822D01*
Y879178D01*
X384070Y863335D01*
X380070Y864991D01*
Y1036990D01*
X379830Y1038817D01*
X379124Y1040520D01*
X378002Y1041982D01*
X370000Y1049985D01*
Y1051317D01*
X369319Y1053860D01*
X368002Y1056140D01*
X366140Y1058002D01*
X363860Y1059318D01*
X361316Y1060000D01*
X358684D01*
X356140Y1059318D01*
X353860Y1058002D01*
X352393Y1056535D01*
X350000Y1056320D01*
X347607Y1056535D01*
X346140Y1058002D01*
X343860Y1059318D01*
X341316Y1060000D01*
X338684D01*
X336140Y1059318D01*
X333860Y1058002D01*
X331998Y1056140D01*
X330681Y1053860D01*
X330000Y1051317D01*
Y1048683D01*
X330681Y1046140D01*
X331931Y1043976D01*
Y950877D01*
X330354Y949525D01*
X327931Y948326D01*
X326169Y948798D01*
X323536D01*
X320993Y948117D01*
X318712Y946800D01*
X317771Y945859D01*
X296626D01*
X280000Y962485D01*
Y963817D01*
X279319Y966360D01*
X278002Y968640D01*
X276140Y970502D01*
X273860Y971818D01*
X271317Y972500D01*
X268683D01*
X266140Y971818D01*
X263860Y970502D01*
X261998Y968640D01*
X260681Y966360D01*
X260000Y963817D01*
Y961183D01*
X260681Y958640D01*
X261998Y956360D01*
X263860Y954498D01*
X266140Y953182D01*
X268683Y952500D01*
X270015D01*
X288709Y933806D01*
X290172Y932684D01*
X291874Y931979D01*
X293702Y931738D01*
X315474D01*
X317340Y928642D01*
X315578Y925923D01*
X304632D01*
X302804Y925682D01*
X301101Y924977D01*
X300559Y924560D01*
X287675D01*
X250000Y962235D01*
Y963567D01*
X249319Y966110D01*
X248002Y968390D01*
X246140Y970252D01*
X243860Y971569D01*
X241317Y972250D01*
X238683D01*
X236140Y971569D01*
X233860Y970252D01*
X231998Y968390D01*
X230681Y966110D01*
X230000Y963567D01*
Y960934D01*
X230681Y958390D01*
X231998Y956110D01*
X233860Y954248D01*
X236140Y952932D01*
X238683Y952250D01*
X240015D01*
X279758Y912507D01*
X281220Y911385D01*
X282923Y910680D01*
X284750Y910440D01*
X303269D01*
X305096Y910680D01*
X306799Y911385D01*
X307342Y911802D01*
X317693D01*
X318634Y910861D01*
X320915Y909544D01*
X323458Y908863D01*
X326091D01*
X327931Y909355D01*
X330198Y908256D01*
X331931Y906829D01*
Y795000D01*
X332206Y792912D01*
X333012Y790965D01*
X334294Y789294D01*
X350035Y773554D01*
X350681Y771140D01*
X351998Y768860D01*
X353860Y766998D01*
X356140Y765682D01*
X358684Y765000D01*
X361316D01*
X363784Y761520D01*
X363691Y761360D01*
X363010Y758817D01*
Y756183D01*
X363691Y753640D01*
X365008Y751360D01*
X366870Y749498D01*
X369150Y748182D01*
X371693Y747500D01*
X374327D01*
X375914Y747925D01*
X378641Y746517D01*
X379914Y745320D01*
Y718497D01*
X378995Y717503D01*
X375914Y715812D01*
X374586Y716167D01*
X371953D01*
X369410Y715486D01*
X367130Y714169D01*
X366188Y713228D01*
X354800D01*
X352973Y712987D01*
X351270Y712282D01*
X349808Y711160D01*
X341944Y703296D01*
X340822Y701834D01*
X340116Y700131D01*
X339876Y698303D01*
Y514861D01*
X304415Y479400D01*
X247082D01*
X246140Y480341D01*
X243860Y481658D01*
X241317Y482340D01*
X238683D01*
X236140Y481658D01*
X233860Y480341D01*
X231998Y478480D01*
X230681Y476199D01*
X230000Y473656D01*
Y471023D01*
X230681Y468480D01*
X231998Y466199D01*
X233860Y464338D01*
X236140Y463021D01*
X238683Y462340D01*
X241317D01*
X243860Y463021D01*
X246140Y464338D01*
X247082Y465279D01*
X307339D01*
X309167Y465520D01*
X310870Y466225D01*
X312332Y467347D01*
X316049Y471064D01*
X316853Y471089D01*
X320386Y469744D01*
X320681Y468640D01*
X321998Y466360D01*
X323860Y464498D01*
X326140Y463181D01*
X328684Y462500D01*
X331316D01*
X333860Y463181D01*
X336140Y464498D01*
X338002Y466360D01*
X339319Y468640D01*
X340000Y471184D01*
Y472515D01*
X364992Y497508D01*
X366115Y498970D01*
X366820Y500673D01*
X367060Y502500D01*
Y682206D01*
X367938Y683083D01*
X369255Y685364D01*
X369936Y687907D01*
Y690540D01*
X369351Y692724D01*
X370174Y694135D01*
X371953Y696167D01*
X374586D01*
X375914Y696523D01*
X378995Y694832D01*
X379914Y693837D01*
Y590000D01*
X379914Y590000D01*
Y570000D01*
X380000Y569345D01*
Y568684D01*
X380171Y568045D01*
X380257Y567389D01*
X380510Y566779D01*
X380681Y566140D01*
X381012Y565568D01*
X381265Y564957D01*
X381668Y564432D01*
X381998Y563860D01*
X382465Y563392D01*
X382868Y562868D01*
X383392Y562465D01*
X383860Y561998D01*
X384432Y561668D01*
X384957Y561265D01*
X385568Y561012D01*
X386657Y557622D01*
X386626Y556888D01*
X386534Y556484D01*
X386000Y555950D01*
Y544450D01*
X391750Y538700D01*
X403250D01*
X409000Y544450D01*
Y555950D01*
X408546Y556404D01*
X408873Y557192D01*
X410612Y559994D01*
X410655Y560000D01*
X411316D01*
X411955Y560171D01*
X412611Y560257D01*
X413221Y560510D01*
X413860Y560681D01*
X414432Y561012D01*
X415043Y561265D01*
X415568Y561668D01*
X416140Y561998D01*
X416608Y562465D01*
X417132Y562868D01*
X417535Y563392D01*
X418002Y563860D01*
X418332Y564432D01*
X418735Y564957D01*
X418988Y565568D01*
X419319Y566140D01*
X419490Y566779D01*
X419743Y567389D01*
X419829Y568045D01*
X420000Y568684D01*
Y569345D01*
X420086Y570000D01*
Y590000D01*
X420000Y590655D01*
Y591316D01*
X419829Y591955D01*
X419743Y592611D01*
X419490Y593221D01*
X419319Y593860D01*
X420311Y596045D01*
X420820Y596666D01*
X421892Y597500D01*
X423816D01*
X426360Y598181D01*
X428640Y599498D01*
X430326Y599175D01*
X432771Y597972D01*
X433245Y596204D01*
X434562Y593924D01*
X436424Y592062D01*
X438704Y590745D01*
X441247Y590064D01*
X443880D01*
X446423Y590745D01*
X448704Y592062D01*
X450566Y593924D01*
X450575Y593940D01*
X459619D01*
X462167Y589940D01*
X462000Y589316D01*
Y586684D01*
X462682Y584140D01*
X463998Y581860D01*
X465860Y579998D01*
X468140Y578681D01*
X470684Y578000D01*
X473316D01*
X475860Y578681D01*
X478140Y579998D01*
X478860Y580718D01*
X494713D01*
X495761Y579709D01*
X497375Y576718D01*
X497000Y575317D01*
Y572683D01*
X497682Y570140D01*
X498998Y567860D01*
X500860Y565998D01*
X503140Y564682D01*
X505684Y564000D01*
X508316D01*
X510860Y564682D01*
X513140Y565998D01*
X514082Y566940D01*
X784600D01*
X786427Y567180D01*
X788130Y567886D01*
X789593Y569007D01*
X825260Y604675D01*
X825350Y604664D01*
X892850D01*
X893505Y604750D01*
X894166D01*
X894805Y604921D01*
X895461Y605007D01*
X896071Y605260D01*
X896710Y605432D01*
X897282Y605762D01*
X897893Y606015D01*
X898418Y606418D01*
X898990Y606748D01*
X899457Y607215D01*
X899982Y607618D01*
X900385Y608143D01*
X900852Y608610D01*
X901182Y609182D01*
X901585Y609707D01*
X901791Y610205D01*
X902353Y610428D01*
X903621Y610699D01*
X904175Y610722D01*
X904818Y610668D01*
X906033Y610291D01*
X906142Y610255D01*
X906265Y609957D01*
X906667Y609432D01*
X906998Y608860D01*
X907465Y608392D01*
X907868Y607868D01*
X908392Y607465D01*
X908860Y606998D01*
X909432Y606668D01*
X909957Y606265D01*
X910568Y606012D01*
X911140Y605681D01*
X911779Y605510D01*
X912390Y605257D01*
X913045Y605171D01*
X913683Y605000D01*
X914345D01*
X915000Y604914D01*
X982500D01*
X983155Y605000D01*
X983817D01*
X984455Y605171D01*
X985110Y605257D01*
X985721Y605510D01*
X986360Y605681D01*
X986932Y606012D01*
X987543Y606265D01*
X988068Y606668D01*
X988640Y606998D01*
X989108Y607465D01*
X989632Y607868D01*
X990034Y608392D01*
X990502Y608860D01*
X990833Y609432D01*
X991235Y609957D01*
X991488Y610568D01*
X991601Y610764D01*
X992539Y611007D01*
X993398Y611140D01*
X994102D01*
X994961Y611007D01*
X995899Y610764D01*
X996012Y610568D01*
X996265Y609957D01*
X996667Y609432D01*
X996998Y608860D01*
X997465Y608392D01*
X997868Y607868D01*
X998392Y607465D01*
X998860Y606998D01*
X999432Y606668D01*
X999957Y606265D01*
X1000568Y606012D01*
X1001140Y605681D01*
X1001779Y605510D01*
X1002390Y605257D01*
X1003045Y605171D01*
X1003683Y605000D01*
X1004345D01*
X1005000Y604914D01*
X1072500D01*
X1073155Y605000D01*
X1073892D01*
X1074604Y605191D01*
X1075110Y605257D01*
X1075582Y605453D01*
X1076435Y605681D01*
X1077200Y606123D01*
X1077543Y606265D01*
X1077838Y606491D01*
X1078716Y606998D01*
X1079433Y607715D01*
X1079632Y607868D01*
X1079785Y608067D01*
X1080577Y608860D01*
X1081138Y609831D01*
X1081235Y609957D01*
X1081296Y610104D01*
X1081633Y610687D01*
X1081858Y610751D01*
X1083788Y611026D01*
X1085923Y610722D01*
X1086012Y610568D01*
X1086265Y609957D01*
X1086667Y609432D01*
X1086998Y608860D01*
X1087465Y608392D01*
X1087868Y607868D01*
X1088392Y607465D01*
X1088860Y606998D01*
X1089432Y606668D01*
X1089957Y606265D01*
X1090568Y606012D01*
X1091140Y605681D01*
X1091779Y605510D01*
X1092390Y605257D01*
X1093045Y605171D01*
X1093683Y605000D01*
X1094345D01*
X1095000Y604914D01*
X1162500D01*
X1163155Y605000D01*
X1163817D01*
X1164455Y605171D01*
X1165110Y605257D01*
X1165721Y605510D01*
X1166360Y605681D01*
X1166932Y606012D01*
X1167543Y606265D01*
X1168068Y606668D01*
X1168640Y606998D01*
X1169108Y607465D01*
X1169632Y607868D01*
X1170034Y608392D01*
X1170502Y608860D01*
X1170833Y609432D01*
X1171235Y609957D01*
X1171488Y610568D01*
X1171601Y610764D01*
X1172539Y611007D01*
X1173398Y611140D01*
X1174102D01*
X1174961Y611007D01*
X1175899Y610764D01*
X1176012Y610568D01*
X1176265Y609957D01*
X1176667Y609432D01*
X1176998Y608860D01*
X1177465Y608392D01*
X1177868Y607868D01*
X1178392Y607465D01*
X1178860Y606998D01*
X1179432Y606668D01*
X1179957Y606265D01*
X1180568Y606012D01*
X1181140Y605681D01*
X1181779Y605510D01*
X1182390Y605257D01*
X1183045Y605171D01*
X1183683Y605000D01*
X1184345D01*
X1185000Y604914D01*
X1252500D01*
X1253155Y605000D01*
X1253817D01*
X1254455Y605171D01*
X1255110Y605257D01*
X1255721Y605510D01*
X1256360Y605681D01*
X1256932Y606012D01*
X1257543Y606265D01*
X1258068Y606668D01*
X1258640Y606998D01*
X1259108Y607465D01*
X1259632Y607868D01*
X1260035Y608392D01*
X1260502Y608860D01*
X1260833Y609432D01*
X1261235Y609957D01*
X1261488Y610568D01*
X1261601Y610764D01*
X1262539Y611007D01*
X1263398Y611140D01*
X1264102D01*
X1264961Y611007D01*
X1265899Y610764D01*
X1266012Y610568D01*
X1266265Y609957D01*
X1266667Y609432D01*
X1266998Y608860D01*
X1267465Y608392D01*
X1267868Y607868D01*
X1268392Y607465D01*
X1268860Y606998D01*
X1269432Y606668D01*
X1269957Y606265D01*
X1270568Y606012D01*
X1271140Y605681D01*
X1271779Y605510D01*
X1272390Y605257D01*
X1273045Y605171D01*
X1273683Y605000D01*
X1274345D01*
X1275000Y604914D01*
X1342500D01*
X1343155Y605000D01*
X1343817D01*
X1344455Y605171D01*
X1345110Y605257D01*
X1345721Y605510D01*
X1346360Y605681D01*
X1346932Y606012D01*
X1347543Y606265D01*
X1348068Y606668D01*
X1348640Y606998D01*
X1349108Y607465D01*
X1349632Y607868D01*
X1350035Y608392D01*
X1350502Y608860D01*
X1350833Y609432D01*
X1351235Y609957D01*
X1351488Y610568D01*
X1351601Y610764D01*
X1352538Y611007D01*
X1353398Y611140D01*
X1354102D01*
X1354962Y611007D01*
X1355899Y610764D01*
X1356012Y610568D01*
X1356265Y609957D01*
X1356667Y609432D01*
X1356998Y608860D01*
X1357465Y608392D01*
X1357868Y607868D01*
X1358392Y607465D01*
X1358860Y606998D01*
X1359432Y606668D01*
X1359957Y606265D01*
X1360568Y606012D01*
X1361140Y605681D01*
X1361779Y605510D01*
X1362390Y605257D01*
X1363045Y605171D01*
X1363683Y605000D01*
X1364345D01*
X1365000Y604914D01*
X1432500D01*
X1433155Y605000D01*
X1433817D01*
X1434455Y605171D01*
X1435110Y605257D01*
X1435721Y605510D01*
X1436360Y605681D01*
X1436932Y606012D01*
X1437543Y606265D01*
X1438068Y606668D01*
X1438640Y606998D01*
X1439108Y607465D01*
X1439632Y607868D01*
X1440035Y608392D01*
X1440502Y608860D01*
X1440833Y609432D01*
X1441235Y609957D01*
X1441488Y610568D01*
X1441601Y610764D01*
X1442538Y611007D01*
X1443398Y611140D01*
X1444102D01*
X1444962Y611007D01*
X1445899Y610764D01*
X1446012Y610568D01*
X1446265Y609957D01*
X1446667Y609432D01*
X1446998Y608860D01*
X1447465Y608392D01*
X1447868Y607868D01*
X1448392Y607465D01*
X1448860Y606998D01*
X1449432Y606668D01*
X1449957Y606265D01*
X1450568Y606012D01*
X1451140Y605681D01*
X1451779Y605510D01*
X1452390Y605257D01*
X1453045Y605171D01*
X1453683Y605000D01*
X1454345D01*
X1455000Y604914D01*
X1522500D01*
X1523155Y605000D01*
X1523817D01*
X1524455Y605171D01*
X1525110Y605257D01*
X1525721Y605510D01*
X1526360Y605681D01*
X1526932Y606012D01*
X1527543Y606265D01*
X1528068Y606668D01*
X1528640Y606998D01*
X1529108Y607465D01*
X1529632Y607868D01*
X1530035Y608392D01*
X1530502Y608860D01*
X1530833Y609432D01*
X1531235Y609957D01*
X1531488Y610568D01*
X1531601Y610764D01*
X1532538Y611007D01*
X1533398Y611140D01*
X1534102D01*
X1534962Y611007D01*
X1535899Y610764D01*
X1536012Y610568D01*
X1536265Y609957D01*
X1536667Y609432D01*
X1536998Y608860D01*
X1537465Y608392D01*
X1537868Y607868D01*
X1538392Y607465D01*
X1538860Y606998D01*
X1539432Y606668D01*
X1539957Y606265D01*
X1540568Y606012D01*
X1541140Y605681D01*
X1541779Y605510D01*
X1542390Y605257D01*
X1543045Y605171D01*
X1543683Y605000D01*
X1544345D01*
X1545000Y604914D01*
X1613119D01*
X1613775Y605000D01*
X1614436D01*
X1615075Y605171D01*
X1615730Y605257D01*
X1616340Y605510D01*
X1616979Y605681D01*
X1617552Y606012D01*
X1618163Y606265D01*
X1618687Y606667D01*
X1619259Y606998D01*
X1619727Y607466D01*
X1620251Y607868D01*
X1620654Y608392D01*
X1621121Y608860D01*
X1621452Y609432D01*
X1621854Y609957D01*
X1621881Y610022D01*
X1623735Y610568D01*
X1624384D01*
X1626238Y610022D01*
X1626265Y609957D01*
X1626667Y609432D01*
X1626998Y608860D01*
X1627465Y608392D01*
X1627868Y607868D01*
X1628392Y607465D01*
X1628860Y606998D01*
X1629432Y606668D01*
X1629957Y606265D01*
X1630568Y606012D01*
X1631140Y605681D01*
X1631779Y605510D01*
X1632390Y605257D01*
X1633045Y605171D01*
X1633683Y605000D01*
X1634345D01*
X1635000Y604914D01*
X1702786D01*
X1703442Y605000D01*
X1704103D01*
X1704741Y605171D01*
X1705397Y605257D01*
X1706008Y605510D01*
X1706646Y605681D01*
X1707218Y606012D01*
X1707829Y606265D01*
X1708354Y606668D01*
X1708926Y606998D01*
X1709393Y607465D01*
X1709918Y607868D01*
X1710321Y608393D01*
X1710788Y608860D01*
X1711118Y609432D01*
X1711521Y609957D01*
X1711728Y610457D01*
X1712174Y610626D01*
X1713893Y610878D01*
X1715613Y610626D01*
X1716058Y610457D01*
X1716265Y609957D01*
X1716667Y609432D01*
X1716998Y608860D01*
X1717465Y608392D01*
X1717868Y607868D01*
X1718392Y607465D01*
X1718860Y606998D01*
X1719432Y606668D01*
X1719957Y606265D01*
X1720568Y606012D01*
X1721140Y605681D01*
X1721779Y605510D01*
X1722390Y605257D01*
X1723045Y605171D01*
X1723683Y605000D01*
X1724345D01*
X1725000Y604914D01*
X1793119D01*
X1793775Y605000D01*
X1794436D01*
X1795075Y605171D01*
X1795730Y605257D01*
X1796340Y605510D01*
X1796979Y605681D01*
X1797552Y606012D01*
X1798163Y606265D01*
X1798687Y606667D01*
X1799259Y606998D01*
X1799727Y607466D01*
X1800251Y607868D01*
X1800654Y608392D01*
X1801121Y608860D01*
X1801452Y609432D01*
X1801854Y609957D01*
X1801881Y610022D01*
X1803735Y610568D01*
X1804384D01*
X1806238Y610022D01*
X1806265Y609957D01*
X1806667Y609432D01*
X1806998Y608860D01*
X1807465Y608392D01*
X1807868Y607868D01*
X1808392Y607465D01*
X1808860Y606998D01*
X1809432Y606668D01*
X1809957Y606265D01*
X1810568Y606012D01*
X1811140Y605681D01*
X1811779Y605510D01*
X1812390Y605257D01*
X1813045Y605171D01*
X1813683Y605000D01*
X1814345D01*
X1815000Y604914D01*
X1882500D01*
X1883155Y605000D01*
X1883817D01*
X1884455Y605171D01*
X1885110Y605257D01*
X1885721Y605510D01*
X1886360Y605681D01*
X1886933Y606012D01*
X1887543Y606265D01*
X1888067Y606667D01*
X1888640Y606998D01*
X1889108Y607466D01*
X1889632Y607868D01*
X1890034Y608392D01*
X1890502Y608860D01*
X1890833Y609432D01*
X1891235Y609957D01*
X1891488Y610568D01*
X1891601Y610764D01*
X1892540Y611007D01*
X1893398Y611140D01*
X1894102D01*
X1894962Y611007D01*
X1895899Y610764D01*
X1896012Y610568D01*
X1896265Y609957D01*
X1896667Y609432D01*
X1896998Y608860D01*
X1897465Y608392D01*
X1897868Y607868D01*
X1898392Y607465D01*
X1898860Y606998D01*
X1899432Y606668D01*
X1899957Y606265D01*
X1900568Y606012D01*
X1901140Y605681D01*
X1901779Y605510D01*
X1902390Y605257D01*
X1903045Y605171D01*
X1903683Y605000D01*
X1904344D01*
X1905000Y604914D01*
X1972500D01*
X1973155Y605000D01*
X1973817D01*
X1974455Y605171D01*
X1975110Y605257D01*
X1975721Y605510D01*
X1976360Y605681D01*
X1976932Y606012D01*
X1977543Y606265D01*
X1978068Y606667D01*
X1978640Y606998D01*
X1979108Y607465D01*
X1979632Y607868D01*
X1980035Y608392D01*
X1980502Y608860D01*
X1980833Y609432D01*
X1981235Y609957D01*
X1981488Y610568D01*
X1981601Y610764D01*
X1982538Y611007D01*
X1983398Y611140D01*
X1984102D01*
X1984961Y611007D01*
X1985899Y610764D01*
X1986012Y610568D01*
X1986265Y609957D01*
X1986667Y609432D01*
X1986998Y608860D01*
X1987465Y608392D01*
X1987868Y607868D01*
X1988392Y607465D01*
X1988860Y606998D01*
X1989432Y606668D01*
X1989957Y606265D01*
X1990568Y606012D01*
X1991140Y605681D01*
X1991779Y605510D01*
X1992390Y605257D01*
X1993045Y605171D01*
X1993683Y605000D01*
X1994345D01*
X1995000Y604914D01*
X2062500D01*
X2063155Y605000D01*
X2063817D01*
X2064455Y605171D01*
X2065110Y605257D01*
X2065721Y605510D01*
X2066360Y605681D01*
X2066932Y606012D01*
X2067543Y606265D01*
X2068068Y606668D01*
X2068640Y606998D01*
X2069108Y607465D01*
X2069632Y607868D01*
X2070034Y608392D01*
X2070502Y608860D01*
X2070833Y609432D01*
X2071235Y609957D01*
X2071488Y610568D01*
X2071601Y610764D01*
X2072538Y611007D01*
X2073398Y611140D01*
X2074102D01*
X2074962Y611007D01*
X2075899Y610764D01*
X2076012Y610568D01*
X2076265Y609957D01*
X2076667Y609432D01*
X2076998Y608860D01*
X2077465Y608392D01*
X2077868Y607868D01*
X2078392Y607465D01*
X2078860Y606998D01*
X2079432Y606668D01*
X2079957Y606265D01*
X2080568Y606012D01*
X2081140Y605681D01*
X2081779Y605510D01*
X2082390Y605257D01*
X2083045Y605171D01*
X2083683Y605000D01*
X2084345D01*
X2085000Y604914D01*
X2152500D01*
X2153155Y605000D01*
X2153817D01*
X2154455Y605171D01*
X2155110Y605257D01*
X2155721Y605510D01*
X2156360Y605681D01*
X2156932Y606012D01*
X2157543Y606265D01*
X2158068Y606668D01*
X2158640Y606998D01*
X2159108Y607465D01*
X2159632Y607868D01*
X2160034Y608392D01*
X2160502Y608860D01*
X2160833Y609432D01*
X2161235Y609957D01*
X2161488Y610568D01*
X2161601Y610764D01*
X2162538Y611007D01*
X2163398Y611140D01*
X2164102D01*
X2164962Y611007D01*
X2165899Y610764D01*
X2166012Y610568D01*
X2166265Y609957D01*
X2166667Y609432D01*
X2166998Y608860D01*
X2167465Y608392D01*
X2167868Y607868D01*
X2168392Y607465D01*
X2168860Y606998D01*
X2169432Y606668D01*
X2169957Y606265D01*
X2170568Y606012D01*
X2171140Y605681D01*
X2171779Y605510D01*
X2172390Y605257D01*
X2173045Y605171D01*
X2173683Y605000D01*
X2174345D01*
X2175000Y604914D01*
X2242500D01*
X2243155Y605000D01*
X2243817D01*
X2244455Y605171D01*
X2245110Y605257D01*
X2245721Y605510D01*
X2246360Y605681D01*
X2246933Y606012D01*
X2247543Y606265D01*
X2248067Y606667D01*
X2248640Y606998D01*
X2249108Y607466D01*
X2249632Y607868D01*
X2250034Y608392D01*
X2250502Y608860D01*
X2250833Y609432D01*
X2251235Y609957D01*
X2251488Y610568D01*
X2251601Y610764D01*
X2252539Y611007D01*
X2253398Y611140D01*
X2254102D01*
X2254962Y611007D01*
X2255899Y610764D01*
X2256012Y610568D01*
X2256265Y609957D01*
X2256667Y609432D01*
X2256998Y608860D01*
X2257465Y608392D01*
X2257868Y607868D01*
X2258392Y607465D01*
X2258860Y606998D01*
X2259432Y606668D01*
X2259957Y606265D01*
X2260568Y606012D01*
X2261140Y605681D01*
X2261779Y605510D01*
X2262390Y605257D01*
X2263045Y605171D01*
X2263683Y605000D01*
X2264345D01*
X2265000Y604914D01*
X2332500D01*
X2333155Y605000D01*
X2333817D01*
X2334455Y605171D01*
X2335110Y605257D01*
X2335721Y605510D01*
X2336360Y605681D01*
X2336932Y606012D01*
X2337543Y606265D01*
X2338068Y606668D01*
X2338640Y606998D01*
X2339108Y607465D01*
X2339632Y607868D01*
X2340035Y608392D01*
X2340502Y608860D01*
X2340833Y609432D01*
X2341235Y609957D01*
X2341488Y610568D01*
X2341601Y610764D01*
X2342538Y611007D01*
X2343398Y611140D01*
X2344102D01*
X2344962Y611007D01*
X2345899Y610764D01*
X2346012Y610568D01*
X2346265Y609957D01*
X2346667Y609432D01*
X2346998Y608860D01*
X2347465Y608392D01*
X2347868Y607868D01*
X2348392Y607465D01*
X2348860Y606998D01*
X2349432Y606668D01*
X2349957Y606265D01*
X2350568Y606012D01*
X2351140Y605681D01*
X2351779Y605510D01*
X2352390Y605257D01*
X2353045Y605171D01*
X2353683Y605000D01*
X2354345D01*
X2355000Y604914D01*
X2422500D01*
X2423155Y605000D01*
X2423817D01*
X2424455Y605171D01*
X2425110Y605257D01*
X2425721Y605510D01*
X2426360Y605681D01*
X2426932Y606012D01*
X2427543Y606265D01*
X2428068Y606668D01*
X2428640Y606998D01*
X2429108Y607465D01*
X2429632Y607868D01*
X2430035Y608392D01*
X2430502Y608860D01*
X2430833Y609432D01*
X2431235Y609957D01*
X2431488Y610568D01*
X2431601Y610764D01*
X2432538Y611007D01*
X2433398Y611140D01*
X2434102D01*
X2434962Y611007D01*
X2435899Y610764D01*
X2436012Y610568D01*
X2436265Y609957D01*
X2436667Y609432D01*
X2436998Y608860D01*
X2437465Y608392D01*
X2437868Y607868D01*
X2438392Y607465D01*
X2438860Y606998D01*
X2439432Y606668D01*
X2439957Y606265D01*
X2440568Y606012D01*
X2441140Y605681D01*
X2441779Y605510D01*
X2442390Y605257D01*
X2443045Y605171D01*
X2443683Y605000D01*
X2444345D01*
X2445000Y604914D01*
X2512500D01*
X2513155Y605000D01*
X2513817D01*
X2514455Y605171D01*
X2515110Y605257D01*
X2515721Y605510D01*
X2516360Y605681D01*
X2516932Y606012D01*
X2517543Y606265D01*
X2518068Y606668D01*
X2518640Y606998D01*
X2519108Y607465D01*
X2519632Y607868D01*
X2520035Y608392D01*
X2520502Y608860D01*
X2520833Y609432D01*
X2521235Y609957D01*
X2521488Y610568D01*
X2521601Y610764D01*
X2522538Y611007D01*
X2523398Y611140D01*
X2524102D01*
X2524962Y611007D01*
X2525899Y610764D01*
X2526012Y610568D01*
X2526265Y609957D01*
X2526667Y609432D01*
X2526998Y608860D01*
X2527465Y608392D01*
X2527868Y607868D01*
X2528392Y607465D01*
X2528860Y606998D01*
X2529432Y606668D01*
X2529957Y606265D01*
X2530568Y606012D01*
X2531140Y605681D01*
X2531779Y605510D01*
X2532390Y605257D01*
X2533045Y605171D01*
X2533683Y605000D01*
X2534345D01*
X2535000Y604914D01*
X2602500D01*
X2603155Y605000D01*
X2603817D01*
X2604455Y605171D01*
X2605110Y605257D01*
X2605721Y605510D01*
X2606360Y605681D01*
X2606933Y606012D01*
X2607543Y606265D01*
X2608068Y606667D01*
X2608640Y606998D01*
X2609108Y607466D01*
X2609632Y607868D01*
X2610034Y608392D01*
X2610502Y608860D01*
X2610833Y609432D01*
X2611235Y609957D01*
X2611488Y610568D01*
X2611601Y610764D01*
X2612538Y611007D01*
X2613398Y611140D01*
X2614102D01*
X2614962Y611007D01*
X2615899Y610764D01*
X2616012Y610568D01*
X2616265Y609957D01*
X2616667Y609432D01*
X2616998Y608860D01*
X2617466Y608392D01*
X2617868Y607868D01*
X2618393Y607465D01*
X2618860Y606998D01*
X2619432Y606668D01*
X2619957Y606265D01*
X2620568Y606012D01*
X2621140Y605681D01*
X2621779Y605510D01*
X2622390Y605257D01*
X2623045Y605171D01*
X2623683Y605000D01*
X2624344D01*
X2625000Y604914D01*
X2692500D01*
X2693155Y605000D01*
X2693817D01*
X2694455Y605171D01*
X2695110Y605257D01*
X2695721Y605510D01*
X2696360Y605681D01*
X2696932Y606012D01*
X2697543Y606265D01*
X2698068Y606667D01*
X2698640Y606998D01*
X2699108Y607466D01*
X2699632Y607868D01*
X2700034Y608392D01*
X2700502Y608860D01*
X2700833Y609432D01*
X2701235Y609957D01*
X2701488Y610568D01*
X2701601Y610764D01*
X2702538Y611007D01*
X2703398Y611140D01*
X2704102D01*
X2704962Y611007D01*
X2705899Y610764D01*
X2706012Y610568D01*
X2706265Y609957D01*
X2706667Y609432D01*
X2706998Y608860D01*
X2707466Y608392D01*
X2707868Y607868D01*
X2708393Y607465D01*
X2708860Y606998D01*
X2709432Y606668D01*
X2709957Y606265D01*
X2710568Y606012D01*
X2711140Y605681D01*
X2711779Y605510D01*
X2712390Y605257D01*
X2713045Y605171D01*
X2713683Y605000D01*
X2714344D01*
X2715000Y604914D01*
X2782500D01*
X2783156Y605000D01*
X2783817D01*
X2784455Y605171D01*
X2785110Y605257D01*
X2785721Y605510D01*
X2786000Y605585D01*
X2786797Y605472D01*
X2788702Y604561D01*
X2789166Y604180D01*
X2790000Y603108D01*
Y240000D01*
X2770000Y220000D01*
X230000Y220000D01*
X210000Y240000D01*
Y1180000D01*
X230000Y1200000D01*
X2770000D01*
X2790000Y1180000D01*
D02*
G37*
%LPC*%
G36*
X2770000Y1171599D02*
X2750000D01*
X2746998Y1171204D01*
X2744200Y1170045D01*
X2741798Y1168202D01*
X2739955Y1165800D01*
X2738796Y1163002D01*
X2738401Y1160000D01*
Y1145000D01*
X2738796Y1141998D01*
X2739955Y1139200D01*
X2741798Y1136798D01*
X2744200Y1134955D01*
X2746998Y1133796D01*
X2750000Y1133401D01*
X2770000D01*
X2773002Y1133796D01*
X2775800Y1134955D01*
X2778202Y1136798D01*
X2780045Y1139200D01*
X2781204Y1141998D01*
X2781599Y1145000D01*
Y1160000D01*
X2781204Y1163002D01*
X2780045Y1165800D01*
X2778202Y1168202D01*
X2775800Y1170045D01*
X2773002Y1171204D01*
X2770000Y1171599D01*
D02*
G37*
G36*
X2680000D02*
X2660000D01*
X2656998Y1171204D01*
X2654200Y1170045D01*
X2651798Y1168202D01*
X2649955Y1165800D01*
X2648796Y1163002D01*
X2648401Y1160000D01*
Y1145000D01*
X2648796Y1141998D01*
X2649955Y1139200D01*
X2651798Y1136798D01*
X2654200Y1134955D01*
X2656998Y1133796D01*
X2660000Y1133401D01*
X2680000D01*
X2683002Y1133796D01*
X2685800Y1134955D01*
X2688202Y1136798D01*
X2690045Y1139200D01*
X2691204Y1141998D01*
X2691599Y1145000D01*
Y1160000D01*
X2691204Y1163002D01*
X2690045Y1165800D01*
X2688202Y1168202D01*
X2685800Y1170045D01*
X2683002Y1171204D01*
X2680000Y1171599D01*
D02*
G37*
G36*
X2590000D02*
X2570000D01*
X2566998Y1171204D01*
X2564200Y1170045D01*
X2561798Y1168202D01*
X2559955Y1165800D01*
X2558796Y1163002D01*
X2558401Y1160000D01*
Y1145000D01*
X2558796Y1141998D01*
X2559955Y1139200D01*
X2561798Y1136798D01*
X2564200Y1134955D01*
X2566998Y1133796D01*
X2570000Y1133401D01*
X2590000D01*
X2593002Y1133796D01*
X2595800Y1134955D01*
X2598202Y1136798D01*
X2600045Y1139200D01*
X2601204Y1141998D01*
X2601599Y1145000D01*
Y1160000D01*
X2601204Y1163002D01*
X2600045Y1165800D01*
X2598202Y1168202D01*
X2595800Y1170045D01*
X2593002Y1171204D01*
X2590000Y1171599D01*
D02*
G37*
G36*
X2500000D02*
X2480000D01*
X2476998Y1171204D01*
X2474200Y1170045D01*
X2471798Y1168202D01*
X2469955Y1165800D01*
X2468796Y1163002D01*
X2468401Y1160000D01*
Y1145000D01*
X2468796Y1141998D01*
X2469955Y1139200D01*
X2471798Y1136798D01*
X2474200Y1134955D01*
X2476998Y1133796D01*
X2480000Y1133401D01*
X2500000D01*
X2503002Y1133796D01*
X2505800Y1134955D01*
X2508202Y1136798D01*
X2510045Y1139200D01*
X2511204Y1141998D01*
X2511599Y1145000D01*
Y1160000D01*
X2511204Y1163002D01*
X2510045Y1165800D01*
X2508202Y1168202D01*
X2505800Y1170045D01*
X2503002Y1171204D01*
X2500000Y1171599D01*
D02*
G37*
G36*
X2410000D02*
X2390000D01*
X2386998Y1171204D01*
X2384200Y1170045D01*
X2381798Y1168202D01*
X2379955Y1165800D01*
X2378796Y1163002D01*
X2378401Y1160000D01*
Y1145000D01*
X2378796Y1141998D01*
X2379955Y1139200D01*
X2381798Y1136798D01*
X2384200Y1134955D01*
X2386998Y1133796D01*
X2390000Y1133401D01*
X2410000D01*
X2413002Y1133796D01*
X2415800Y1134955D01*
X2418202Y1136798D01*
X2420045Y1139200D01*
X2421204Y1141998D01*
X2421599Y1145000D01*
Y1160000D01*
X2421204Y1163002D01*
X2420045Y1165800D01*
X2418202Y1168202D01*
X2415800Y1170045D01*
X2413002Y1171204D01*
X2410000Y1171599D01*
D02*
G37*
G36*
X2320000D02*
X2300000D01*
X2296998Y1171204D01*
X2294200Y1170045D01*
X2291798Y1168202D01*
X2289955Y1165800D01*
X2288796Y1163002D01*
X2288401Y1160000D01*
Y1145000D01*
X2288796Y1141998D01*
X2289955Y1139200D01*
X2291798Y1136798D01*
X2294200Y1134955D01*
X2296998Y1133796D01*
X2300000Y1133401D01*
X2320000D01*
X2323002Y1133796D01*
X2325800Y1134955D01*
X2328202Y1136798D01*
X2330045Y1139200D01*
X2331204Y1141998D01*
X2331599Y1145000D01*
Y1160000D01*
X2331204Y1163002D01*
X2330045Y1165800D01*
X2328202Y1168202D01*
X2325800Y1170045D01*
X2323002Y1171204D01*
X2320000Y1171599D01*
D02*
G37*
G36*
X2230000D02*
X2210000D01*
X2206998Y1171204D01*
X2204200Y1170045D01*
X2201798Y1168202D01*
X2199955Y1165800D01*
X2198796Y1163002D01*
X2198401Y1160000D01*
Y1145000D01*
X2198796Y1141998D01*
X2199955Y1139200D01*
X2201798Y1136798D01*
X2204200Y1134955D01*
X2206998Y1133796D01*
X2210000Y1133401D01*
X2230000D01*
X2233002Y1133796D01*
X2235800Y1134955D01*
X2238202Y1136798D01*
X2240045Y1139200D01*
X2241204Y1141998D01*
X2241599Y1145000D01*
Y1160000D01*
X2241204Y1163002D01*
X2240045Y1165800D01*
X2238202Y1168202D01*
X2235800Y1170045D01*
X2233002Y1171204D01*
X2230000Y1171599D01*
D02*
G37*
G36*
X2140000D02*
X2120000D01*
X2116998Y1171204D01*
X2114200Y1170045D01*
X2111798Y1168202D01*
X2109955Y1165800D01*
X2108796Y1163002D01*
X2108401Y1160000D01*
Y1145000D01*
X2108796Y1141998D01*
X2109955Y1139200D01*
X2111798Y1136798D01*
X2114200Y1134955D01*
X2116998Y1133796D01*
X2120000Y1133401D01*
X2140000D01*
X2143002Y1133796D01*
X2145800Y1134955D01*
X2148202Y1136798D01*
X2150045Y1139200D01*
X2151204Y1141998D01*
X2151599Y1145000D01*
Y1160000D01*
X2151204Y1163002D01*
X2150045Y1165800D01*
X2148202Y1168202D01*
X2145800Y1170045D01*
X2143002Y1171204D01*
X2140000Y1171599D01*
D02*
G37*
G36*
X2050000D02*
X2030000D01*
X2026998Y1171204D01*
X2024200Y1170045D01*
X2021798Y1168202D01*
X2019955Y1165800D01*
X2018796Y1163002D01*
X2018401Y1160000D01*
Y1145000D01*
X2018796Y1141998D01*
X2019955Y1139200D01*
X2021798Y1136798D01*
X2024200Y1134955D01*
X2026998Y1133796D01*
X2030000Y1133401D01*
X2050000D01*
X2053002Y1133796D01*
X2055800Y1134955D01*
X2058202Y1136798D01*
X2060045Y1139200D01*
X2061204Y1141998D01*
X2061599Y1145000D01*
Y1160000D01*
X2061204Y1163002D01*
X2060045Y1165800D01*
X2058202Y1168202D01*
X2055800Y1170045D01*
X2053002Y1171204D01*
X2050000Y1171599D01*
D02*
G37*
G36*
X1960000D02*
X1940000D01*
X1936998Y1171204D01*
X1934200Y1170045D01*
X1931798Y1168202D01*
X1929955Y1165800D01*
X1928796Y1163002D01*
X1928401Y1160000D01*
Y1145000D01*
X1928796Y1141998D01*
X1929955Y1139200D01*
X1931798Y1136798D01*
X1934200Y1134955D01*
X1936998Y1133796D01*
X1940000Y1133401D01*
X1960000D01*
X1963002Y1133796D01*
X1965800Y1134955D01*
X1968202Y1136798D01*
X1970045Y1139200D01*
X1971204Y1141998D01*
X1971599Y1145000D01*
Y1160000D01*
X1971204Y1163002D01*
X1970045Y1165800D01*
X1968202Y1168202D01*
X1965800Y1170045D01*
X1963002Y1171204D01*
X1960000Y1171599D01*
D02*
G37*
G36*
X1870000D02*
X1850000D01*
X1846998Y1171204D01*
X1844200Y1170045D01*
X1841798Y1168202D01*
X1839955Y1165800D01*
X1838796Y1163002D01*
X1838401Y1160000D01*
Y1145000D01*
X1838796Y1141998D01*
X1839955Y1139200D01*
X1841798Y1136798D01*
X1844200Y1134955D01*
X1846998Y1133796D01*
X1850000Y1133401D01*
X1870000D01*
X1873002Y1133796D01*
X1875800Y1134955D01*
X1878202Y1136798D01*
X1880045Y1139200D01*
X1881204Y1141998D01*
X1881599Y1145000D01*
Y1160000D01*
X1881204Y1163002D01*
X1880045Y1165800D01*
X1878202Y1168202D01*
X1875800Y1170045D01*
X1873002Y1171204D01*
X1870000Y1171599D01*
D02*
G37*
G36*
X1780000D02*
X1760000D01*
X1756998Y1171204D01*
X1754200Y1170045D01*
X1751798Y1168202D01*
X1749955Y1165800D01*
X1748796Y1163002D01*
X1748401Y1160000D01*
Y1145000D01*
X1748796Y1141998D01*
X1749955Y1139200D01*
X1751798Y1136798D01*
X1754200Y1134955D01*
X1756998Y1133796D01*
X1760000Y1133401D01*
X1780000D01*
X1783002Y1133796D01*
X1785800Y1134955D01*
X1788202Y1136798D01*
X1790045Y1139200D01*
X1791204Y1141998D01*
X1791599Y1145000D01*
Y1160000D01*
X1791204Y1163002D01*
X1790045Y1165800D01*
X1788202Y1168202D01*
X1785800Y1170045D01*
X1783002Y1171204D01*
X1780000Y1171599D01*
D02*
G37*
G36*
X1690000D02*
X1670000D01*
X1666998Y1171204D01*
X1664200Y1170045D01*
X1661798Y1168202D01*
X1659955Y1165800D01*
X1658796Y1163002D01*
X1658401Y1160000D01*
Y1145000D01*
X1658796Y1141998D01*
X1659955Y1139200D01*
X1661798Y1136798D01*
X1664200Y1134955D01*
X1666998Y1133796D01*
X1670000Y1133401D01*
X1690000D01*
X1693002Y1133796D01*
X1695800Y1134955D01*
X1698202Y1136798D01*
X1700045Y1139200D01*
X1701204Y1141998D01*
X1701599Y1145000D01*
Y1160000D01*
X1701204Y1163002D01*
X1700045Y1165800D01*
X1698202Y1168202D01*
X1695800Y1170045D01*
X1693002Y1171204D01*
X1690000Y1171599D01*
D02*
G37*
G36*
X1600000D02*
X1580000D01*
X1576998Y1171204D01*
X1574200Y1170045D01*
X1571798Y1168202D01*
X1569955Y1165800D01*
X1568796Y1163002D01*
X1568401Y1160000D01*
Y1145000D01*
X1568796Y1141998D01*
X1569955Y1139200D01*
X1571798Y1136798D01*
X1574200Y1134955D01*
X1576998Y1133796D01*
X1580000Y1133401D01*
X1600000D01*
X1603002Y1133796D01*
X1605800Y1134955D01*
X1608202Y1136798D01*
X1610045Y1139200D01*
X1611204Y1141998D01*
X1611599Y1145000D01*
Y1160000D01*
X1611204Y1163002D01*
X1610045Y1165800D01*
X1608202Y1168202D01*
X1605800Y1170045D01*
X1603002Y1171204D01*
X1600000Y1171599D01*
D02*
G37*
G36*
X1510000D02*
X1490000D01*
X1486998Y1171204D01*
X1484200Y1170045D01*
X1481798Y1168202D01*
X1479955Y1165800D01*
X1478796Y1163002D01*
X1478401Y1160000D01*
Y1145000D01*
X1478796Y1141998D01*
X1479955Y1139200D01*
X1481798Y1136798D01*
X1484200Y1134955D01*
X1486998Y1133796D01*
X1490000Y1133401D01*
X1510000D01*
X1513002Y1133796D01*
X1515800Y1134955D01*
X1518202Y1136798D01*
X1520045Y1139200D01*
X1521204Y1141998D01*
X1521599Y1145000D01*
Y1160000D01*
X1521204Y1163002D01*
X1520045Y1165800D01*
X1518202Y1168202D01*
X1515800Y1170045D01*
X1513002Y1171204D01*
X1510000Y1171599D01*
D02*
G37*
G36*
X1420000D02*
X1400000D01*
X1396998Y1171204D01*
X1394200Y1170045D01*
X1391798Y1168202D01*
X1389955Y1165800D01*
X1388796Y1163002D01*
X1388401Y1160000D01*
Y1145000D01*
X1388796Y1141998D01*
X1389955Y1139200D01*
X1391798Y1136798D01*
X1394200Y1134955D01*
X1396998Y1133796D01*
X1400000Y1133401D01*
X1420000D01*
X1423002Y1133796D01*
X1425800Y1134955D01*
X1428202Y1136798D01*
X1430045Y1139200D01*
X1431204Y1141998D01*
X1431599Y1145000D01*
Y1160000D01*
X1431204Y1163002D01*
X1430045Y1165800D01*
X1428202Y1168202D01*
X1425800Y1170045D01*
X1423002Y1171204D01*
X1420000Y1171599D01*
D02*
G37*
G36*
X1330000D02*
X1310000D01*
X1306998Y1171204D01*
X1304200Y1170045D01*
X1301798Y1168202D01*
X1299955Y1165800D01*
X1298796Y1163002D01*
X1298401Y1160000D01*
Y1145000D01*
X1298796Y1141998D01*
X1299955Y1139200D01*
X1301798Y1136798D01*
X1304200Y1134955D01*
X1306998Y1133796D01*
X1310000Y1133401D01*
X1330000D01*
X1333002Y1133796D01*
X1335800Y1134955D01*
X1338202Y1136798D01*
X1340045Y1139200D01*
X1341204Y1141998D01*
X1341599Y1145000D01*
Y1160000D01*
X1341204Y1163002D01*
X1340045Y1165800D01*
X1338202Y1168202D01*
X1335800Y1170045D01*
X1333002Y1171204D01*
X1330000Y1171599D01*
D02*
G37*
G36*
X1240000D02*
X1220000D01*
X1216998Y1171204D01*
X1214200Y1170045D01*
X1211798Y1168202D01*
X1209955Y1165800D01*
X1208796Y1163002D01*
X1208401Y1160000D01*
Y1145000D01*
X1208796Y1141998D01*
X1209955Y1139200D01*
X1211798Y1136798D01*
X1214200Y1134955D01*
X1216998Y1133796D01*
X1220000Y1133401D01*
X1240000D01*
X1243002Y1133796D01*
X1245800Y1134955D01*
X1248202Y1136798D01*
X1250045Y1139200D01*
X1251204Y1141998D01*
X1251599Y1145000D01*
Y1160000D01*
X1251204Y1163002D01*
X1250045Y1165800D01*
X1248202Y1168202D01*
X1245800Y1170045D01*
X1243002Y1171204D01*
X1240000Y1171599D01*
D02*
G37*
G36*
X1150000D02*
X1130000D01*
X1126998Y1171204D01*
X1124200Y1170045D01*
X1121798Y1168202D01*
X1119955Y1165800D01*
X1118796Y1163002D01*
X1118401Y1160000D01*
Y1145000D01*
X1118796Y1141998D01*
X1119955Y1139200D01*
X1121798Y1136798D01*
X1124200Y1134955D01*
X1126998Y1133796D01*
X1130000Y1133401D01*
X1150000D01*
X1153002Y1133796D01*
X1155800Y1134955D01*
X1158202Y1136798D01*
X1160045Y1139200D01*
X1161204Y1141998D01*
X1161599Y1145000D01*
Y1160000D01*
X1161204Y1163002D01*
X1160045Y1165800D01*
X1158202Y1168202D01*
X1155800Y1170045D01*
X1153002Y1171204D01*
X1150000Y1171599D01*
D02*
G37*
G36*
X1060000D02*
X1040000D01*
X1036998Y1171204D01*
X1034200Y1170045D01*
X1031798Y1168202D01*
X1029955Y1165800D01*
X1028796Y1163002D01*
X1028401Y1160000D01*
Y1145000D01*
X1028796Y1141998D01*
X1029955Y1139200D01*
X1031798Y1136798D01*
X1034200Y1134955D01*
X1036998Y1133796D01*
X1040000Y1133401D01*
X1060000D01*
X1063002Y1133796D01*
X1065800Y1134955D01*
X1068202Y1136798D01*
X1070045Y1139200D01*
X1071204Y1141998D01*
X1071599Y1145000D01*
Y1160000D01*
X1071204Y1163002D01*
X1070045Y1165800D01*
X1068202Y1168202D01*
X1065800Y1170045D01*
X1063002Y1171204D01*
X1060000Y1171599D01*
D02*
G37*
G36*
X970000D02*
X950000D01*
X946998Y1171204D01*
X944200Y1170045D01*
X941798Y1168202D01*
X939955Y1165800D01*
X938796Y1163002D01*
X938401Y1160000D01*
Y1145000D01*
X938796Y1141998D01*
X939955Y1139200D01*
X941798Y1136798D01*
X944200Y1134955D01*
X946998Y1133796D01*
X950000Y1133401D01*
X970000D01*
X973002Y1133796D01*
X975800Y1134955D01*
X978202Y1136798D01*
X980045Y1139200D01*
X981204Y1141998D01*
X981599Y1145000D01*
Y1160000D01*
X981204Y1163002D01*
X980045Y1165800D01*
X978202Y1168202D01*
X975800Y1170045D01*
X973002Y1171204D01*
X970000Y1171599D01*
D02*
G37*
G36*
X880000D02*
X860000D01*
X856998Y1171204D01*
X854200Y1170045D01*
X851798Y1168202D01*
X849955Y1165800D01*
X848796Y1163002D01*
X848401Y1160000D01*
Y1145000D01*
X848796Y1141998D01*
X849955Y1139200D01*
X851798Y1136798D01*
X854200Y1134955D01*
X856998Y1133796D01*
X860000Y1133401D01*
X880000D01*
X883002Y1133796D01*
X885800Y1134955D01*
X888202Y1136798D01*
X890045Y1139200D01*
X891204Y1141998D01*
X891599Y1145000D01*
Y1160000D01*
X891204Y1163002D01*
X890045Y1165800D01*
X888202Y1168202D01*
X885800Y1170045D01*
X883002Y1171204D01*
X880000Y1171599D01*
D02*
G37*
G36*
X790000D02*
X770000D01*
X766998Y1171204D01*
X764200Y1170045D01*
X761798Y1168202D01*
X759955Y1165800D01*
X758796Y1163002D01*
X758401Y1160000D01*
Y1145000D01*
X758796Y1141998D01*
X759955Y1139200D01*
X761798Y1136798D01*
X764200Y1134955D01*
X766998Y1133796D01*
X770000Y1133401D01*
X790000D01*
X793002Y1133796D01*
X795800Y1134955D01*
X798202Y1136798D01*
X800045Y1139200D01*
X801204Y1141998D01*
X801599Y1145000D01*
Y1160000D01*
X801204Y1163002D01*
X800045Y1165800D01*
X798202Y1168202D01*
X795800Y1170045D01*
X793002Y1171204D01*
X790000Y1171599D01*
D02*
G37*
G36*
X700000D02*
X680000D01*
X676998Y1171204D01*
X674200Y1170045D01*
X671798Y1168202D01*
X669955Y1165800D01*
X668796Y1163002D01*
X668401Y1160000D01*
Y1145000D01*
X668796Y1141998D01*
X669955Y1139200D01*
X671798Y1136798D01*
X674200Y1134955D01*
X676998Y1133796D01*
X680000Y1133401D01*
X700000D01*
X703002Y1133796D01*
X705800Y1134955D01*
X708202Y1136798D01*
X710045Y1139200D01*
X711204Y1141998D01*
X711599Y1145000D01*
Y1160000D01*
X711204Y1163002D01*
X710045Y1165800D01*
X708202Y1168202D01*
X705800Y1170045D01*
X703002Y1171204D01*
X700000Y1171599D01*
D02*
G37*
G36*
X610000D02*
X590000D01*
X586998Y1171204D01*
X584200Y1170045D01*
X581798Y1168202D01*
X579955Y1165800D01*
X578796Y1163002D01*
X578401Y1160000D01*
Y1145000D01*
X578796Y1141998D01*
X579955Y1139200D01*
X581798Y1136798D01*
X584200Y1134955D01*
X586998Y1133796D01*
X590000Y1133401D01*
X610000D01*
X613002Y1133796D01*
X615800Y1134955D01*
X618202Y1136798D01*
X620045Y1139200D01*
X621204Y1141998D01*
X621599Y1145000D01*
Y1160000D01*
X621204Y1163002D01*
X620045Y1165800D01*
X618202Y1168202D01*
X615800Y1170045D01*
X613002Y1171204D01*
X610000Y1171599D01*
D02*
G37*
G36*
X520000D02*
X500000D01*
X496998Y1171204D01*
X494200Y1170045D01*
X491798Y1168202D01*
X489955Y1165800D01*
X488796Y1163002D01*
X488401Y1160000D01*
Y1145000D01*
X488796Y1141998D01*
X489955Y1139200D01*
X491798Y1136798D01*
X494200Y1134955D01*
X496998Y1133796D01*
X500000Y1133401D01*
X520000D01*
X523002Y1133796D01*
X525800Y1134955D01*
X528202Y1136798D01*
X530045Y1139200D01*
X531204Y1141998D01*
X531599Y1145000D01*
Y1160000D01*
X531204Y1163002D01*
X530045Y1165800D01*
X528202Y1168202D01*
X525800Y1170045D01*
X523002Y1171204D01*
X520000Y1171599D01*
D02*
G37*
G36*
X430000D02*
X410000D01*
X406998Y1171204D01*
X404200Y1170045D01*
X401798Y1168202D01*
X399955Y1165800D01*
X398796Y1163002D01*
X398401Y1160000D01*
Y1145000D01*
X398796Y1141998D01*
X399955Y1139200D01*
X401798Y1136798D01*
X404200Y1134955D01*
X406998Y1133796D01*
X410000Y1133401D01*
X430000D01*
X433002Y1133796D01*
X435800Y1134955D01*
X438202Y1136798D01*
X440045Y1139200D01*
X441204Y1141998D01*
X441599Y1145000D01*
Y1160000D01*
X441204Y1163002D01*
X440045Y1165800D01*
X438202Y1168202D01*
X435800Y1170045D01*
X433002Y1171204D01*
X430000Y1171599D01*
D02*
G37*
G36*
X2013470Y1070000D02*
X2009530D01*
X2005666Y1069231D01*
X2002027Y1067724D01*
X1998751Y1065535D01*
X1995965Y1062749D01*
X1993776Y1059473D01*
X1992269Y1055834D01*
X1991500Y1051970D01*
Y1048030D01*
X1992269Y1044166D01*
X1993776Y1040527D01*
X1995965Y1037251D01*
X1998751Y1034465D01*
X2002027Y1032276D01*
X2005666Y1030769D01*
X2009530Y1030000D01*
X2013470D01*
X2017334Y1030769D01*
X2020974Y1032276D01*
X2024249Y1034465D01*
X2027035Y1037251D01*
X2029224Y1040527D01*
X2030731Y1044166D01*
X2031500Y1048030D01*
Y1051970D01*
X2030731Y1055834D01*
X2029224Y1059473D01*
X2027035Y1062749D01*
X2024249Y1065535D01*
X2020974Y1067724D01*
X2017334Y1069231D01*
X2013470Y1070000D01*
D02*
G37*
G36*
X990470D02*
X986530D01*
X982666Y1069231D01*
X979026Y1067724D01*
X975751Y1065535D01*
X972965Y1062749D01*
X970776Y1059473D01*
X969269Y1055834D01*
X968500Y1051970D01*
Y1048030D01*
X969269Y1044166D01*
X970776Y1040527D01*
X972965Y1037251D01*
X975751Y1034465D01*
X979026Y1032276D01*
X982666Y1030769D01*
X986530Y1030000D01*
X990470D01*
X994334Y1030769D01*
X997973Y1032276D01*
X1001249Y1034465D01*
X1004035Y1037251D01*
X1006224Y1040527D01*
X1007731Y1044166D01*
X1008500Y1048030D01*
Y1051970D01*
X1007731Y1055834D01*
X1006224Y1059473D01*
X1004035Y1062749D01*
X1001249Y1065535D01*
X997973Y1067724D01*
X994334Y1069231D01*
X990470Y1070000D01*
D02*
G37*
G36*
X271317Y690000D02*
X268683D01*
X266140Y689318D01*
X263860Y688002D01*
X261998Y686140D01*
X260681Y683860D01*
X260000Y681317D01*
Y678683D01*
X260681Y676140D01*
X261998Y673860D01*
X263860Y671998D01*
X266140Y670682D01*
X268683Y670000D01*
X270015D01*
X285008Y655008D01*
X286470Y653885D01*
X288173Y653180D01*
X290000Y652940D01*
X317918D01*
X318860Y651998D01*
X321140Y650682D01*
X323684Y650000D01*
X326316D01*
X328860Y650682D01*
X331140Y651998D01*
X333002Y653860D01*
X334319Y656140D01*
X335000Y658683D01*
Y661317D01*
X334319Y663860D01*
X333002Y666140D01*
X331140Y668002D01*
X328860Y669318D01*
X326316Y670000D01*
X323684D01*
X321140Y669318D01*
X318860Y668002D01*
X317918Y667060D01*
X292924D01*
X280000Y679985D01*
Y681317D01*
X279319Y683860D01*
X278002Y686140D01*
X276140Y688002D01*
X273860Y689318D01*
X271317Y690000D01*
D02*
G37*
G36*
X241317D02*
X238683D01*
X236140Y689318D01*
X233860Y688002D01*
X231998Y686140D01*
X230681Y683860D01*
X230000Y681317D01*
Y678683D01*
X230681Y676140D01*
X231998Y673860D01*
X233860Y671998D01*
X236140Y670682D01*
X238683Y670000D01*
X240015D01*
X279566Y630449D01*
X281029Y629327D01*
X282732Y628621D01*
X284559Y628381D01*
X317856D01*
X318798Y627439D01*
X321078Y626123D01*
X323621Y625441D01*
X326254D01*
X328798Y626123D01*
X331078Y627439D01*
X332940Y629301D01*
X334256Y631581D01*
X334938Y634124D01*
Y636758D01*
X334256Y639301D01*
X332940Y641581D01*
X331078Y643443D01*
X328798Y644760D01*
X326254Y645441D01*
X323621D01*
X321078Y644760D01*
X318798Y643443D01*
X317856Y642501D01*
X287484D01*
X250000Y679985D01*
Y681317D01*
X249319Y683860D01*
X248002Y686140D01*
X246140Y688002D01*
X243860Y689318D01*
X241317Y690000D01*
D02*
G37*
G36*
X476500Y488000D02*
X463500D01*
X457000Y481500D01*
Y468500D01*
X463500Y462000D01*
X476500D01*
X483000Y468500D01*
Y481500D01*
X476500Y488000D01*
D02*
G37*
G36*
X2013470Y390000D02*
X2009530D01*
X2005666Y389231D01*
X2002027Y387724D01*
X1998751Y385535D01*
X1995965Y382749D01*
X1993776Y379473D01*
X1992269Y375834D01*
X1991500Y371970D01*
Y368030D01*
X1992269Y364166D01*
X1993776Y360527D01*
X1995965Y357251D01*
X1998751Y354465D01*
X2002027Y352276D01*
X2005666Y350769D01*
X2009530Y350000D01*
X2013470D01*
X2017334Y350769D01*
X2020974Y352276D01*
X2024249Y354465D01*
X2027035Y357251D01*
X2029224Y360527D01*
X2030731Y364166D01*
X2031500Y368030D01*
Y371970D01*
X2030731Y375834D01*
X2029224Y379473D01*
X2027035Y382749D01*
X2024249Y385535D01*
X2020974Y387724D01*
X2017334Y389231D01*
X2013470Y390000D01*
D02*
G37*
G36*
X990470D02*
X986530D01*
X982666Y389231D01*
X979026Y387724D01*
X975751Y385535D01*
X972965Y382749D01*
X970776Y379473D01*
X969269Y375834D01*
X968500Y371970D01*
Y368030D01*
X969269Y364166D01*
X970776Y360527D01*
X972965Y357251D01*
X975751Y354465D01*
X979026Y352276D01*
X982666Y350769D01*
X986530Y350000D01*
X990470D01*
X994334Y350769D01*
X997973Y352276D01*
X1001249Y354465D01*
X1004035Y357251D01*
X1006224Y360527D01*
X1007731Y364166D01*
X1008500Y368030D01*
Y371970D01*
X1007731Y375834D01*
X1006224Y379473D01*
X1004035Y382749D01*
X1001249Y385535D01*
X997973Y387724D01*
X994334Y389231D01*
X990470Y390000D01*
D02*
G37*
G36*
X2770000Y286599D02*
X2750000D01*
X2746998Y286204D01*
X2744200Y285045D01*
X2741798Y283202D01*
X2739955Y280800D01*
X2738796Y278002D01*
X2738401Y275000D01*
Y260000D01*
X2738796Y256998D01*
X2739955Y254200D01*
X2741798Y251798D01*
X2744200Y249955D01*
X2746998Y248796D01*
X2750000Y248401D01*
X2770000D01*
X2773002Y248796D01*
X2775800Y249955D01*
X2778202Y251798D01*
X2780045Y254200D01*
X2781204Y256998D01*
X2781599Y260000D01*
Y275000D01*
X2781204Y278002D01*
X2780045Y280800D01*
X2778202Y283202D01*
X2775800Y285045D01*
X2773002Y286204D01*
X2770000Y286599D01*
D02*
G37*
G36*
X2680000D02*
X2660000D01*
X2656998Y286204D01*
X2654200Y285045D01*
X2651798Y283202D01*
X2649955Y280800D01*
X2648796Y278002D01*
X2648401Y275000D01*
Y260000D01*
X2648796Y256998D01*
X2649955Y254200D01*
X2651798Y251798D01*
X2654200Y249955D01*
X2656998Y248796D01*
X2660000Y248401D01*
X2680000D01*
X2683002Y248796D01*
X2685800Y249955D01*
X2688202Y251798D01*
X2690045Y254200D01*
X2691204Y256998D01*
X2691599Y260000D01*
Y275000D01*
X2691204Y278002D01*
X2690045Y280800D01*
X2688202Y283202D01*
X2685800Y285045D01*
X2683002Y286204D01*
X2680000Y286599D01*
D02*
G37*
G36*
X2590000D02*
X2570000D01*
X2566998Y286204D01*
X2564200Y285045D01*
X2561798Y283202D01*
X2559955Y280800D01*
X2558796Y278002D01*
X2558401Y275000D01*
Y260000D01*
X2558796Y256998D01*
X2559955Y254200D01*
X2561798Y251798D01*
X2564200Y249955D01*
X2566998Y248796D01*
X2570000Y248401D01*
X2590000D01*
X2593002Y248796D01*
X2595800Y249955D01*
X2598202Y251798D01*
X2600045Y254200D01*
X2601204Y256998D01*
X2601599Y260000D01*
Y275000D01*
X2601204Y278002D01*
X2600045Y280800D01*
X2598202Y283202D01*
X2595800Y285045D01*
X2593002Y286204D01*
X2590000Y286599D01*
D02*
G37*
G36*
X2500000D02*
X2480000D01*
X2476998Y286204D01*
X2474200Y285045D01*
X2471798Y283202D01*
X2469955Y280800D01*
X2468796Y278002D01*
X2468401Y275000D01*
Y260000D01*
X2468796Y256998D01*
X2469955Y254200D01*
X2471798Y251798D01*
X2474200Y249955D01*
X2476998Y248796D01*
X2480000Y248401D01*
X2500000D01*
X2503002Y248796D01*
X2505800Y249955D01*
X2508202Y251798D01*
X2510045Y254200D01*
X2511204Y256998D01*
X2511599Y260000D01*
Y275000D01*
X2511204Y278002D01*
X2510045Y280800D01*
X2508202Y283202D01*
X2505800Y285045D01*
X2503002Y286204D01*
X2500000Y286599D01*
D02*
G37*
G36*
X2410000D02*
X2390000D01*
X2386998Y286204D01*
X2384200Y285045D01*
X2381798Y283202D01*
X2379955Y280800D01*
X2378796Y278002D01*
X2378401Y275000D01*
Y260000D01*
X2378796Y256998D01*
X2379955Y254200D01*
X2381798Y251798D01*
X2384200Y249955D01*
X2386998Y248796D01*
X2390000Y248401D01*
X2410000D01*
X2413002Y248796D01*
X2415800Y249955D01*
X2418202Y251798D01*
X2420045Y254200D01*
X2421204Y256998D01*
X2421599Y260000D01*
Y275000D01*
X2421204Y278002D01*
X2420045Y280800D01*
X2418202Y283202D01*
X2415800Y285045D01*
X2413002Y286204D01*
X2410000Y286599D01*
D02*
G37*
G36*
X2320000D02*
X2300000D01*
X2296998Y286204D01*
X2294200Y285045D01*
X2291798Y283202D01*
X2289955Y280800D01*
X2288796Y278002D01*
X2288401Y275000D01*
Y260000D01*
X2288796Y256998D01*
X2289955Y254200D01*
X2291798Y251798D01*
X2294200Y249955D01*
X2296998Y248796D01*
X2300000Y248401D01*
X2320000D01*
X2323002Y248796D01*
X2325800Y249955D01*
X2328202Y251798D01*
X2330045Y254200D01*
X2331204Y256998D01*
X2331599Y260000D01*
Y275000D01*
X2331204Y278002D01*
X2330045Y280800D01*
X2328202Y283202D01*
X2325800Y285045D01*
X2323002Y286204D01*
X2320000Y286599D01*
D02*
G37*
G36*
X2230000D02*
X2210000D01*
X2206998Y286204D01*
X2204200Y285045D01*
X2201798Y283202D01*
X2199955Y280800D01*
X2198796Y278002D01*
X2198401Y275000D01*
Y260000D01*
X2198796Y256998D01*
X2199955Y254200D01*
X2201798Y251798D01*
X2204200Y249955D01*
X2206998Y248796D01*
X2210000Y248401D01*
X2230000D01*
X2233002Y248796D01*
X2235800Y249955D01*
X2238202Y251798D01*
X2240045Y254200D01*
X2241204Y256998D01*
X2241599Y260000D01*
Y275000D01*
X2241204Y278002D01*
X2240045Y280800D01*
X2238202Y283202D01*
X2235800Y285045D01*
X2233002Y286204D01*
X2230000Y286599D01*
D02*
G37*
G36*
X2140000D02*
X2120000D01*
X2116998Y286204D01*
X2114200Y285045D01*
X2111798Y283202D01*
X2109955Y280800D01*
X2108796Y278002D01*
X2108401Y275000D01*
Y260000D01*
X2108796Y256998D01*
X2109955Y254200D01*
X2111798Y251798D01*
X2114200Y249955D01*
X2116998Y248796D01*
X2120000Y248401D01*
X2140000D01*
X2143002Y248796D01*
X2145800Y249955D01*
X2148202Y251798D01*
X2150045Y254200D01*
X2151204Y256998D01*
X2151599Y260000D01*
Y275000D01*
X2151204Y278002D01*
X2150045Y280800D01*
X2148202Y283202D01*
X2145800Y285045D01*
X2143002Y286204D01*
X2140000Y286599D01*
D02*
G37*
G36*
X2050000D02*
X2030000D01*
X2026998Y286204D01*
X2024200Y285045D01*
X2021798Y283202D01*
X2019955Y280800D01*
X2018796Y278002D01*
X2018401Y275000D01*
Y260000D01*
X2018796Y256998D01*
X2019955Y254200D01*
X2021798Y251798D01*
X2024200Y249955D01*
X2026998Y248796D01*
X2030000Y248401D01*
X2050000D01*
X2053002Y248796D01*
X2055800Y249955D01*
X2058202Y251798D01*
X2060045Y254200D01*
X2061204Y256998D01*
X2061599Y260000D01*
Y275000D01*
X2061204Y278002D01*
X2060045Y280800D01*
X2058202Y283202D01*
X2055800Y285045D01*
X2053002Y286204D01*
X2050000Y286599D01*
D02*
G37*
G36*
X1960000D02*
X1940000D01*
X1936998Y286204D01*
X1934200Y285045D01*
X1931798Y283202D01*
X1929955Y280800D01*
X1928796Y278002D01*
X1928401Y275000D01*
Y260000D01*
X1928796Y256998D01*
X1929955Y254200D01*
X1931798Y251798D01*
X1934200Y249955D01*
X1936998Y248796D01*
X1940000Y248401D01*
X1960000D01*
X1963002Y248796D01*
X1965800Y249955D01*
X1968202Y251798D01*
X1970045Y254200D01*
X1971204Y256998D01*
X1971599Y260000D01*
Y275000D01*
X1971204Y278002D01*
X1970045Y280800D01*
X1968202Y283202D01*
X1965800Y285045D01*
X1963002Y286204D01*
X1960000Y286599D01*
D02*
G37*
G36*
X1870000D02*
X1850000D01*
X1846998Y286204D01*
X1844200Y285045D01*
X1841798Y283202D01*
X1839955Y280800D01*
X1838796Y278002D01*
X1838401Y275000D01*
Y260000D01*
X1838796Y256998D01*
X1839955Y254200D01*
X1841798Y251798D01*
X1844200Y249955D01*
X1846998Y248796D01*
X1850000Y248401D01*
X1870000D01*
X1873002Y248796D01*
X1875800Y249955D01*
X1878202Y251798D01*
X1880045Y254200D01*
X1881204Y256998D01*
X1881599Y260000D01*
Y275000D01*
X1881204Y278002D01*
X1880045Y280800D01*
X1878202Y283202D01*
X1875800Y285045D01*
X1873002Y286204D01*
X1870000Y286599D01*
D02*
G37*
G36*
X1780000D02*
X1760000D01*
X1756998Y286204D01*
X1754200Y285045D01*
X1751798Y283202D01*
X1749955Y280800D01*
X1748796Y278002D01*
X1748401Y275000D01*
Y260000D01*
X1748796Y256998D01*
X1749955Y254200D01*
X1751798Y251798D01*
X1754200Y249955D01*
X1756998Y248796D01*
X1760000Y248401D01*
X1780000D01*
X1783002Y248796D01*
X1785800Y249955D01*
X1788202Y251798D01*
X1790045Y254200D01*
X1791204Y256998D01*
X1791599Y260000D01*
Y275000D01*
X1791204Y278002D01*
X1790045Y280800D01*
X1788202Y283202D01*
X1785800Y285045D01*
X1783002Y286204D01*
X1780000Y286599D01*
D02*
G37*
G36*
X1690000D02*
X1670000D01*
X1666998Y286204D01*
X1664200Y285045D01*
X1661798Y283202D01*
X1659955Y280800D01*
X1658796Y278002D01*
X1658401Y275000D01*
Y260000D01*
X1658796Y256998D01*
X1659955Y254200D01*
X1661798Y251798D01*
X1664200Y249955D01*
X1666998Y248796D01*
X1670000Y248401D01*
X1690000D01*
X1693002Y248796D01*
X1695800Y249955D01*
X1698202Y251798D01*
X1700045Y254200D01*
X1701204Y256998D01*
X1701599Y260000D01*
Y275000D01*
X1701204Y278002D01*
X1700045Y280800D01*
X1698202Y283202D01*
X1695800Y285045D01*
X1693002Y286204D01*
X1690000Y286599D01*
D02*
G37*
G36*
X1600000D02*
X1580000D01*
X1576998Y286204D01*
X1574200Y285045D01*
X1571798Y283202D01*
X1569955Y280800D01*
X1568796Y278002D01*
X1568401Y275000D01*
Y260000D01*
X1568796Y256998D01*
X1569955Y254200D01*
X1571798Y251798D01*
X1574200Y249955D01*
X1576998Y248796D01*
X1580000Y248401D01*
X1600000D01*
X1603002Y248796D01*
X1605800Y249955D01*
X1608202Y251798D01*
X1610045Y254200D01*
X1611204Y256998D01*
X1611599Y260000D01*
Y275000D01*
X1611204Y278002D01*
X1610045Y280800D01*
X1608202Y283202D01*
X1605800Y285045D01*
X1603002Y286204D01*
X1600000Y286599D01*
D02*
G37*
G36*
X1510000D02*
X1490000D01*
X1486998Y286204D01*
X1484200Y285045D01*
X1481798Y283202D01*
X1479955Y280800D01*
X1478796Y278002D01*
X1478401Y275000D01*
Y260000D01*
X1478796Y256998D01*
X1479955Y254200D01*
X1481798Y251798D01*
X1484200Y249955D01*
X1486998Y248796D01*
X1490000Y248401D01*
X1510000D01*
X1513002Y248796D01*
X1515800Y249955D01*
X1518202Y251798D01*
X1520045Y254200D01*
X1521204Y256998D01*
X1521599Y260000D01*
Y275000D01*
X1521204Y278002D01*
X1520045Y280800D01*
X1518202Y283202D01*
X1515800Y285045D01*
X1513002Y286204D01*
X1510000Y286599D01*
D02*
G37*
G36*
X1420000D02*
X1400000D01*
X1396998Y286204D01*
X1394200Y285045D01*
X1391798Y283202D01*
X1389955Y280800D01*
X1388796Y278002D01*
X1388401Y275000D01*
Y260000D01*
X1388796Y256998D01*
X1389955Y254200D01*
X1391798Y251798D01*
X1394200Y249955D01*
X1396998Y248796D01*
X1400000Y248401D01*
X1420000D01*
X1423002Y248796D01*
X1425800Y249955D01*
X1428202Y251798D01*
X1430045Y254200D01*
X1431204Y256998D01*
X1431599Y260000D01*
Y275000D01*
X1431204Y278002D01*
X1430045Y280800D01*
X1428202Y283202D01*
X1425800Y285045D01*
X1423002Y286204D01*
X1420000Y286599D01*
D02*
G37*
G36*
X1330000D02*
X1310000D01*
X1306998Y286204D01*
X1304200Y285045D01*
X1301798Y283202D01*
X1299955Y280800D01*
X1298796Y278002D01*
X1298401Y275000D01*
Y260000D01*
X1298796Y256998D01*
X1299955Y254200D01*
X1301798Y251798D01*
X1304200Y249955D01*
X1306998Y248796D01*
X1310000Y248401D01*
X1330000D01*
X1333002Y248796D01*
X1335800Y249955D01*
X1338202Y251798D01*
X1340045Y254200D01*
X1341204Y256998D01*
X1341599Y260000D01*
Y275000D01*
X1341204Y278002D01*
X1340045Y280800D01*
X1338202Y283202D01*
X1335800Y285045D01*
X1333002Y286204D01*
X1330000Y286599D01*
D02*
G37*
G36*
X1240000D02*
X1220000D01*
X1216998Y286204D01*
X1214200Y285045D01*
X1211798Y283202D01*
X1209955Y280800D01*
X1208796Y278002D01*
X1208401Y275000D01*
Y260000D01*
X1208796Y256998D01*
X1209955Y254200D01*
X1211798Y251798D01*
X1214200Y249955D01*
X1216998Y248796D01*
X1220000Y248401D01*
X1240000D01*
X1243002Y248796D01*
X1245800Y249955D01*
X1248202Y251798D01*
X1250045Y254200D01*
X1251204Y256998D01*
X1251599Y260000D01*
Y275000D01*
X1251204Y278002D01*
X1250045Y280800D01*
X1248202Y283202D01*
X1245800Y285045D01*
X1243002Y286204D01*
X1240000Y286599D01*
D02*
G37*
G36*
X1150000D02*
X1130000D01*
X1126998Y286204D01*
X1124200Y285045D01*
X1121798Y283202D01*
X1119955Y280800D01*
X1118796Y278002D01*
X1118401Y275000D01*
Y260000D01*
X1118796Y256998D01*
X1119955Y254200D01*
X1121798Y251798D01*
X1124200Y249955D01*
X1126998Y248796D01*
X1130000Y248401D01*
X1150000D01*
X1153002Y248796D01*
X1155800Y249955D01*
X1158202Y251798D01*
X1160045Y254200D01*
X1161204Y256998D01*
X1161599Y260000D01*
Y275000D01*
X1161204Y278002D01*
X1160045Y280800D01*
X1158202Y283202D01*
X1155800Y285045D01*
X1153002Y286204D01*
X1150000Y286599D01*
D02*
G37*
G36*
X1060000D02*
X1040000D01*
X1036998Y286204D01*
X1034200Y285045D01*
X1031798Y283202D01*
X1029955Y280800D01*
X1028796Y278002D01*
X1028401Y275000D01*
Y260000D01*
X1028796Y256998D01*
X1029955Y254200D01*
X1031798Y251798D01*
X1034200Y249955D01*
X1036998Y248796D01*
X1040000Y248401D01*
X1060000D01*
X1063002Y248796D01*
X1065800Y249955D01*
X1068202Y251798D01*
X1070045Y254200D01*
X1071204Y256998D01*
X1071599Y260000D01*
Y275000D01*
X1071204Y278002D01*
X1070045Y280800D01*
X1068202Y283202D01*
X1065800Y285045D01*
X1063002Y286204D01*
X1060000Y286599D01*
D02*
G37*
G36*
X970000D02*
X950000D01*
X946998Y286204D01*
X944200Y285045D01*
X941798Y283202D01*
X939955Y280800D01*
X938796Y278002D01*
X938401Y275000D01*
Y260000D01*
X938796Y256998D01*
X939955Y254200D01*
X941798Y251798D01*
X944200Y249955D01*
X946998Y248796D01*
X950000Y248401D01*
X970000D01*
X973002Y248796D01*
X975800Y249955D01*
X978202Y251798D01*
X980045Y254200D01*
X981204Y256998D01*
X981599Y260000D01*
Y275000D01*
X981204Y278002D01*
X980045Y280800D01*
X978202Y283202D01*
X975800Y285045D01*
X973002Y286204D01*
X970000Y286599D01*
D02*
G37*
G36*
X880000D02*
X860000D01*
X856998Y286204D01*
X854200Y285045D01*
X851798Y283202D01*
X849955Y280800D01*
X848796Y278002D01*
X848401Y275000D01*
Y260000D01*
X848796Y256998D01*
X849955Y254200D01*
X851798Y251798D01*
X854200Y249955D01*
X856998Y248796D01*
X860000Y248401D01*
X880000D01*
X883002Y248796D01*
X885800Y249955D01*
X888202Y251798D01*
X890045Y254200D01*
X891204Y256998D01*
X891599Y260000D01*
Y275000D01*
X891204Y278002D01*
X890045Y280800D01*
X888202Y283202D01*
X885800Y285045D01*
X883002Y286204D01*
X880000Y286599D01*
D02*
G37*
G36*
X790000D02*
X770000D01*
X766998Y286204D01*
X764201Y285045D01*
X761798Y283202D01*
X759955Y280800D01*
X758796Y278002D01*
X758401Y275000D01*
Y260000D01*
X758796Y256998D01*
X759955Y254200D01*
X761798Y251798D01*
X764201Y249955D01*
X766998Y248796D01*
X770000Y248401D01*
X790000D01*
X793002Y248796D01*
X795800Y249955D01*
X798202Y251798D01*
X800045Y254200D01*
X801204Y256998D01*
X801599Y260000D01*
Y275000D01*
X801204Y278002D01*
X800045Y280800D01*
X798202Y283202D01*
X795800Y285045D01*
X793002Y286204D01*
X790000Y286599D01*
D02*
G37*
G36*
X700000D02*
X680000D01*
X676998Y286204D01*
X674200Y285045D01*
X671798Y283202D01*
X669955Y280800D01*
X668796Y278002D01*
X668401Y275000D01*
Y260000D01*
X668796Y256998D01*
X669955Y254200D01*
X671798Y251798D01*
X674200Y249955D01*
X676998Y248796D01*
X680000Y248401D01*
X700000D01*
X703002Y248796D01*
X705800Y249955D01*
X708202Y251798D01*
X710045Y254200D01*
X711204Y256998D01*
X711599Y260000D01*
Y275000D01*
X711204Y278002D01*
X710045Y280800D01*
X708202Y283202D01*
X705800Y285045D01*
X703002Y286204D01*
X700000Y286599D01*
D02*
G37*
G36*
X610000D02*
X590000D01*
X586998Y286204D01*
X584201Y285045D01*
X581798Y283202D01*
X579955Y280800D01*
X578796Y278002D01*
X578401Y275000D01*
Y260000D01*
X578796Y256998D01*
X579955Y254200D01*
X581798Y251798D01*
X584201Y249955D01*
X586998Y248796D01*
X590000Y248401D01*
X610000D01*
X613002Y248796D01*
X615800Y249955D01*
X618202Y251798D01*
X620045Y254200D01*
X621204Y256998D01*
X621599Y260000D01*
Y275000D01*
X621204Y278002D01*
X620045Y280800D01*
X618202Y283202D01*
X615800Y285045D01*
X613002Y286204D01*
X610000Y286599D01*
D02*
G37*
G36*
X430000D02*
X410000D01*
X406998Y286204D01*
X404201Y285045D01*
X401798Y283202D01*
X399955Y280800D01*
X398796Y278002D01*
X398401Y275000D01*
Y260000D01*
X398796Y256998D01*
X399955Y254200D01*
X401798Y251798D01*
X404201Y249955D01*
X406998Y248796D01*
X410000Y248401D01*
X430000D01*
X433002Y248796D01*
X435800Y249955D01*
X438202Y251798D01*
X440045Y254200D01*
X441204Y256998D01*
X441599Y260000D01*
Y275000D01*
X441204Y278002D01*
X440045Y280800D01*
X438202Y283202D01*
X435800Y285045D01*
X433002Y286204D01*
X430000Y286599D01*
D02*
G37*
G36*
X340000D02*
X320000D01*
X316998Y286204D01*
X314200Y285045D01*
X311798Y283202D01*
X309955Y280800D01*
X308796Y278002D01*
X308401Y275000D01*
Y260000D01*
X308796Y256998D01*
X309955Y254200D01*
X311798Y251798D01*
X314200Y249955D01*
X316998Y248796D01*
X320000Y248401D01*
X340000D01*
X343002Y248796D01*
X345800Y249955D01*
X348202Y251798D01*
X350045Y254200D01*
X351204Y256998D01*
X351599Y260000D01*
Y275000D01*
X351204Y278002D01*
X350045Y280800D01*
X348202Y283202D01*
X345800Y285045D01*
X343002Y286204D01*
X340000Y286599D01*
D02*
G37*
G36*
X250000D02*
X230000D01*
X226998Y286204D01*
X224200Y285045D01*
X221798Y283202D01*
X219955Y280800D01*
X218796Y278002D01*
X218401Y275000D01*
Y260000D01*
X218796Y256998D01*
X219955Y254200D01*
X221798Y251798D01*
X224200Y249955D01*
X226998Y248796D01*
X230000Y248401D01*
X250000D01*
X253002Y248796D01*
X255800Y249955D01*
X258202Y251798D01*
X260045Y254200D01*
X261204Y256998D01*
X261599Y260000D01*
Y275000D01*
X261204Y278002D01*
X260045Y280800D01*
X258202Y283202D01*
X255800Y285045D01*
X253002Y286204D01*
X250000Y286599D01*
D02*
G37*
%LPD*%
D12*
X1060000Y650000D02*
X1095000Y615000D01*
X1720000Y800000D02*
X1905000Y615000D01*
X530000Y800500D02*
X530500Y800000D01*
X1720000D01*
X901000Y628000D02*
X915000Y614000D01*
X443500Y601000D02*
X631000D01*
X645000Y615000D01*
X472222Y587778D02*
X707778D01*
X735000Y615000D01*
X784600Y574000D02*
X825350Y614750D01*
X507000Y574000D02*
X784600D01*
X472000Y588000D02*
X472222Y587778D01*
X533000Y664000D02*
X832319D01*
X515000Y650000D02*
X1060000D01*
X465993Y679993D02*
X1210007D01*
X439000Y658000D02*
X469000Y628000D01*
X832319Y664000D02*
X835312Y666993D01*
X469000Y628000D02*
X901000D01*
X459000Y673000D02*
X465993Y679993D01*
X501000Y639000D02*
X981000D01*
X499000Y666000D02*
X515000Y650000D01*
X479000Y660000D02*
X480000D01*
X501000Y639000D01*
X1210007Y679993D02*
X1275000Y615000D01*
X981000Y639000D02*
X1005000Y615000D01*
X551980Y948020D02*
X553128Y946872D01*
X531000Y918000D02*
Y947000D01*
X553128Y926872D02*
Y946872D01*
X1365000Y705000D02*
X1455000Y615000D01*
X467000Y705000D02*
X1365000D01*
X437000Y692000D02*
X438000Y691000D01*
X1289000D01*
X1365000Y615000D01*
X424000Y673000D02*
X459000D01*
X468000Y744500D02*
X1415500D01*
X456148Y756352D02*
X468000Y744500D01*
X1415500D02*
X1545000Y615000D01*
X455000Y762500D02*
X456148Y761352D01*
Y756352D02*
Y761352D01*
X1492500Y757500D02*
X1635000Y615000D01*
X471000Y769000D02*
X482500Y757500D01*
X487500Y772500D02*
X1567500D01*
X482500Y757500D02*
X1492500D01*
X470000Y782500D02*
X471000Y781500D01*
Y769000D02*
Y781500D01*
X1567500Y772500D02*
X1725000Y615000D01*
X512500Y787500D02*
X1642500D01*
X1815000Y615000D01*
X1795000Y815000D02*
X1995000Y615000D01*
X436000Y814000D02*
X437000Y815000D01*
X1795000D01*
X442564Y600064D02*
X443500Y601000D01*
X430000Y615000D02*
X555000D01*
X422500Y607500D02*
X430000Y615000D01*
X346936Y511936D02*
Y698303D01*
X360000Y502500D02*
Y689160D01*
X346936Y698303D02*
X354800Y706167D01*
X359936Y689224D02*
X360000Y689160D01*
X307339Y472340D02*
X346936Y511936D01*
X373010Y757500D02*
Y1036990D01*
X360000Y1050000D02*
X373010Y1036990D01*
X570000Y910000D02*
X2420000D01*
X2715000Y615000D01*
X553128Y926872D02*
X570000Y910000D01*
X531000Y918000D02*
X549000Y900000D01*
X2340000D01*
X2625000Y615000D01*
X522000Y886000D02*
X2264000D01*
X2535000Y615000D01*
X494000Y887000D02*
X510000Y871000D01*
X2189000D02*
X2445000Y615000D01*
X510000Y871000D02*
X2189000D01*
X496000Y860000D02*
X2110000D01*
X489000Y867000D02*
X496000Y860000D01*
X2110000D02*
X2323517Y646483D01*
X2323517D01*
X2355000Y615000D01*
X479385Y849000D02*
X2031000D01*
X465192Y863192D02*
X479385Y849000D01*
X2031000D02*
X2265000Y615000D01*
X466000Y844000D02*
X466515D01*
X472515Y838000D01*
X1952000D01*
X2175000Y615000D01*
X1872000Y828000D02*
X2085000Y615000D01*
X450000Y828000D02*
X1872000D01*
X835312Y666993D02*
X1133007D01*
X1185000Y615000D01*
X240000Y472340D02*
X307339D01*
X330000Y472500D02*
X360000Y502500D01*
X304632Y918863D02*
X324775D01*
X284750Y917500D02*
X303269D01*
X304632Y918863D01*
X240000Y962250D02*
X284750Y917500D01*
X270000Y962500D02*
X293702Y938798D01*
X324852D01*
X240000Y680000D02*
X284559Y635441D01*
X324938D01*
X290000Y660000D02*
X325000D01*
X270000Y680000D02*
X290000Y660000D01*
X354800Y706167D02*
X373270D01*
D40*
X1995000Y615000D02*
X2062500D01*
X1882500Y965000D02*
X2062500D01*
X1792500D02*
X1882500D01*
X1905000Y615000D02*
X1972500D01*
X1905000Y615000D02*
X1905000Y615000D01*
X1725000Y615000D02*
X1793119D01*
X1635000D02*
X1702786D01*
X1252500Y965000D02*
X1342500D01*
X1162500D02*
X1252500D01*
X1072500D02*
X1162500D01*
X1005000Y615000D02*
X1072500D01*
X1095000D02*
X1162500D01*
X712500Y965000D02*
X982500D01*
X1545000Y615000D02*
X1613119D01*
X1455000D02*
X1522500D01*
X1365000D02*
X1432500D01*
X1275000D02*
X1342500D01*
X1185000D02*
X1252500D01*
X825350Y614750D02*
X892850D01*
X2715000Y615000D02*
X2782500D01*
X2625000D02*
X2692500D01*
X2535000D02*
X2602500D01*
X2445000D02*
X2512500D01*
X2355000D02*
X2422500D01*
X2265000D02*
X2332500D01*
X2175000D02*
X2242500D01*
X2085000D02*
X2152500D01*
X1815000D02*
X1882500D01*
X915000D02*
X982500D01*
X735000Y615000D02*
X802500D01*
X645000Y615000D02*
X712500D01*
X2602500Y965000D02*
X2782500D01*
X2512500D02*
X2602500D01*
X2422500D02*
X2512500D01*
X2152500D02*
X2422500D01*
X2062500D02*
X2152500D01*
X1702500D02*
X1792500D01*
X1432500D02*
X1702500D01*
X1342500D02*
X1432500D01*
X982500D02*
X1072500D01*
X622500D02*
X712500D01*
X555000Y615000D02*
X622500D01*
X440000Y965000D02*
X622500D01*
X410000Y820000D02*
Y852500D01*
X427500Y870000D02*
Y952500D01*
X410000Y852500D02*
X427500Y870000D01*
X390000Y820000D02*
Y855000D01*
X410000Y875000D02*
Y1075000D01*
X390000Y855000D02*
X410000Y875000D01*
X427500Y952500D02*
X440000Y965000D01*
X390000Y590000D02*
Y800000D01*
Y580000D02*
Y590000D01*
X410000Y570000D02*
Y590000D01*
X390000D02*
X410000D01*
X390000D02*
X390000D01*
X390000Y570000D02*
X410000D01*
X390000D02*
Y590000D01*
X390000Y800000D02*
Y820000D01*
X410000D01*
Y800000D02*
Y820000D01*
X390000Y800000D02*
X410000D01*
X332500Y1152500D02*
X410000Y1075000D01*
X330000Y1152500D02*
X332500D01*
D41*
X340000Y795000D02*
Y1050000D01*
Y795000D02*
X360000Y775000D01*
D43*
X400000Y580000D02*
D03*
Y810000D02*
D03*
D44*
X470000Y475000D02*
D03*
D45*
X505000D02*
D03*
D46*
X2011500Y370000D02*
D03*
Y1050000D02*
D03*
X988500D02*
D03*
Y370000D02*
D03*
D47*
X1500000Y1152500D02*
D03*
X1590000D02*
D03*
X1680000D02*
D03*
X1770000D02*
D03*
X1860000D02*
D03*
X1950000D02*
D03*
X2040000D02*
D03*
X2130000D02*
D03*
X2220000D02*
D03*
X2310000D02*
D03*
X2400000D02*
D03*
X2490000D02*
D03*
X2580000D02*
D03*
X2670000D02*
D03*
X2760000D02*
D03*
X1410000D02*
D03*
X1320000D02*
D03*
X1230000D02*
D03*
X1140000D02*
D03*
X1050000D02*
D03*
X960000D02*
D03*
X870000D02*
D03*
X780000D02*
D03*
X690000D02*
D03*
X600000D02*
D03*
X510000D02*
D03*
X420000D02*
D03*
X330000D02*
D03*
X240000D02*
D03*
X2760000Y267500D02*
D03*
X2670000D02*
D03*
X2580000D02*
D03*
X2490000D02*
D03*
X2400000D02*
D03*
X2310000D02*
D03*
X2220000D02*
D03*
X2130000D02*
D03*
X2040000D02*
D03*
X1950000D02*
D03*
X1860000D02*
D03*
X1770000D02*
D03*
X1680000D02*
D03*
X1590000D02*
D03*
X240000D02*
D03*
X330000D02*
D03*
X420000D02*
D03*
X510000D02*
D03*
X600000D02*
D03*
X690000D02*
D03*
X780000D02*
D03*
X870000D02*
D03*
X960000D02*
D03*
X1050000D02*
D03*
X1140000D02*
D03*
X1230000D02*
D03*
X1320000D02*
D03*
X1410000D02*
D03*
X1500000D02*
D03*
D48*
X397500Y550200D02*
D03*
D49*
Y524800D02*
D03*
D50*
X1725000Y615000D02*
D03*
X1793119Y615000D02*
D03*
X1792500Y965000D02*
D03*
Y965000D02*
D03*
X1635000Y615000D02*
D03*
X1702786Y615000D02*
D03*
X1702500Y965000D02*
D03*
X1522500Y615000D02*
D03*
X1072576Y615000D02*
D03*
X1162500Y615000D02*
D03*
X1095000D02*
D03*
X1545000D02*
D03*
X1613119Y615000D02*
D03*
X1612500Y965000D02*
D03*
X1455000Y615000D02*
D03*
X1522500Y965000D02*
D03*
X1365000Y615000D02*
D03*
X1432500D02*
D03*
X1275000D02*
D03*
X1342500D02*
D03*
X1185000D02*
D03*
X1252500D02*
D03*
Y965000D02*
D03*
X1162500D02*
D03*
X825350Y614750D02*
D03*
X892850D02*
D03*
D03*
Y964750D02*
D03*
X1882500Y615000D02*
D03*
Y615000D02*
D03*
X2715000D02*
D03*
X2782500D02*
D03*
X2625000D02*
D03*
X2692500D02*
D03*
Y965000D02*
D03*
X2535000Y615000D02*
D03*
X2602500D02*
D03*
Y965000D02*
D03*
X2445000Y615000D02*
D03*
X2512500D02*
D03*
Y965000D02*
D03*
X2355000Y615000D02*
D03*
X2422500D02*
D03*
X2265000D02*
D03*
X2332500D02*
D03*
Y965000D02*
D03*
X2175000Y615000D02*
D03*
X2242500D02*
D03*
Y965000D02*
D03*
X2085000Y615000D02*
D03*
X2152500D02*
D03*
X1815000D02*
D03*
X1882500Y965000D02*
D03*
X735000Y615000D02*
D03*
X802500D02*
D03*
X645000Y615000D02*
D03*
X712500D02*
D03*
X2782500D02*
D03*
Y965000D02*
D03*
X2422500Y615000D02*
D03*
Y965000D02*
D03*
X2512500Y615000D02*
D03*
X2692500Y615000D02*
D03*
Y965000D02*
D03*
X2602500D02*
D03*
Y615000D02*
D03*
X2062500Y615000D02*
D03*
Y965000D02*
D03*
X2152500D02*
D03*
Y615000D02*
D03*
X2332500Y615000D02*
D03*
Y965000D02*
D03*
X2242500D02*
D03*
Y615000D02*
D03*
X1702500Y965000D02*
D03*
X1972500Y615000D02*
D03*
Y965000D02*
D03*
X1882500D02*
D03*
X1342500Y965000D02*
D03*
X1432500D02*
D03*
X1612500Y965000D02*
D03*
X1522500D02*
D03*
X982500Y615000D02*
D03*
Y965000D02*
D03*
X1072500D02*
D03*
X1252500Y965000D02*
D03*
X1162500D02*
D03*
X802500Y615000D02*
D03*
Y965000D02*
D03*
X892500D02*
D03*
X712500Y615000D02*
D03*
Y965000D02*
D03*
X622500D02*
D03*
Y615000D02*
D03*
X531000Y947000D02*
D03*
X551980Y948020D02*
D03*
X389774Y1066787D02*
D03*
X390000Y880000D02*
D03*
X580000Y430000D02*
D03*
Y470000D02*
D03*
X467000Y705000D02*
D03*
X437000Y692000D02*
D03*
X499000Y666000D02*
D03*
X487500Y772500D02*
D03*
X455000Y762500D02*
D03*
X470000Y782500D02*
D03*
X530000Y800500D02*
D03*
X512500Y787500D02*
D03*
X442564Y600064D02*
D03*
X472000Y588000D02*
D03*
X422500Y607500D02*
D03*
X359936Y689224D02*
D03*
X390000Y570000D02*
D03*
X410000D02*
D03*
X390000Y590000D02*
D03*
X410000D02*
D03*
X2090000Y340000D02*
D03*
X2000000Y330000D02*
D03*
X830000Y1080000D02*
D03*
X920000Y1090000D02*
D03*
X2000000Y1010000D02*
D03*
X1910000D02*
D03*
X1905000Y615000D02*
D03*
X920000Y1010000D02*
D03*
X1010000D02*
D03*
X917200Y1132100D02*
D03*
X980000Y420000D02*
D03*
Y1010000D02*
D03*
X458508Y985376D02*
D03*
X520000Y1050000D02*
D03*
X480000D02*
D03*
X376297Y1152061D02*
D03*
X463954Y1152835D02*
D03*
X370000Y330000D02*
D03*
X280000D02*
D03*
X290000Y420000D02*
D03*
X251789Y603844D02*
D03*
X287525Y604179D02*
D03*
X289016Y889105D02*
D03*
X247105Y889441D02*
D03*
X920000Y330000D02*
D03*
X980000Y510000D02*
D03*
X920000Y290000D02*
D03*
X2450000Y1080000D02*
D03*
Y1130000D02*
D03*
Y990000D02*
D03*
X2470000Y430000D02*
D03*
Y470000D02*
D03*
X2450000Y340000D02*
D03*
X2510000Y990000D02*
D03*
Y510000D02*
D03*
Y410000D02*
D03*
X2450000Y290000D02*
D03*
X2540000D02*
D03*
X2600000Y410000D02*
D03*
Y510000D02*
D03*
Y990000D02*
D03*
X2540000Y340000D02*
D03*
X2560000Y470000D02*
D03*
Y430000D02*
D03*
X2540000Y990000D02*
D03*
Y1130000D02*
D03*
Y1080000D02*
D03*
X2720000D02*
D03*
Y1130000D02*
D03*
Y990000D02*
D03*
X2740000Y430000D02*
D03*
Y470000D02*
D03*
X2720000Y340000D02*
D03*
X2780000Y990000D02*
D03*
Y510000D02*
D03*
Y410000D02*
D03*
X2720000Y290000D02*
D03*
X2630000D02*
D03*
X2690000Y410000D02*
D03*
Y510000D02*
D03*
Y990000D02*
D03*
X2630000Y340000D02*
D03*
X2650000Y470000D02*
D03*
Y430000D02*
D03*
X2630000Y990000D02*
D03*
Y1130000D02*
D03*
Y1080000D02*
D03*
X2090000D02*
D03*
Y1130000D02*
D03*
Y990000D02*
D03*
X2110000Y430000D02*
D03*
Y470000D02*
D03*
X2150000Y990000D02*
D03*
Y510000D02*
D03*
Y410000D02*
D03*
X2090000Y290000D02*
D03*
X2180000D02*
D03*
X2240000Y410000D02*
D03*
Y510000D02*
D03*
Y990000D02*
D03*
X2180000Y340000D02*
D03*
X2200000Y470000D02*
D03*
Y430000D02*
D03*
X2180000Y990000D02*
D03*
Y1130000D02*
D03*
Y1080000D02*
D03*
X2360000D02*
D03*
Y1130000D02*
D03*
Y990000D02*
D03*
X2380000Y430000D02*
D03*
Y470000D02*
D03*
X2360000Y340000D02*
D03*
X2420000Y990000D02*
D03*
Y510000D02*
D03*
Y410000D02*
D03*
X2360000Y290000D02*
D03*
X2270000D02*
D03*
X2330000Y410000D02*
D03*
Y510000D02*
D03*
Y990000D02*
D03*
X2270000Y340000D02*
D03*
X2290000Y470000D02*
D03*
Y430000D02*
D03*
X2270000Y990000D02*
D03*
Y1130000D02*
D03*
Y1080000D02*
D03*
X1730000D02*
D03*
Y1130000D02*
D03*
Y990000D02*
D03*
X1750000Y430000D02*
D03*
Y470000D02*
D03*
X1730000Y340000D02*
D03*
X1790000Y990000D02*
D03*
Y510000D02*
D03*
Y410000D02*
D03*
X1730000Y290000D02*
D03*
X1820000D02*
D03*
X1890000Y410000D02*
D03*
X1880000Y510000D02*
D03*
X1820000Y340000D02*
D03*
X1840000Y470000D02*
D03*
Y430000D02*
D03*
X1820000Y990000D02*
D03*
Y1130000D02*
D03*
Y1080000D02*
D03*
X2000000Y1090000D02*
D03*
Y1130000D02*
D03*
X2060000Y510000D02*
D03*
X2000000Y290000D02*
D03*
X1910000D02*
D03*
X1980000Y410000D02*
D03*
X1970000Y510000D02*
D03*
X1910000Y330000D02*
D03*
Y1130000D02*
D03*
Y1090000D02*
D03*
X1370000Y1080000D02*
D03*
Y1130000D02*
D03*
Y990000D02*
D03*
X1390000Y430000D02*
D03*
Y470000D02*
D03*
X1370000Y340000D02*
D03*
X1430000Y990000D02*
D03*
Y510000D02*
D03*
Y410000D02*
D03*
X1370000Y290000D02*
D03*
X1460000D02*
D03*
X1520000Y410000D02*
D03*
Y510000D02*
D03*
Y990000D02*
D03*
X1460000Y340000D02*
D03*
X1480000Y470000D02*
D03*
Y430000D02*
D03*
X1460000Y990000D02*
D03*
Y1130000D02*
D03*
Y1080000D02*
D03*
X1640000D02*
D03*
Y1130000D02*
D03*
Y990000D02*
D03*
X1660000Y430000D02*
D03*
Y470000D02*
D03*
X1640000Y340000D02*
D03*
X1700000Y990000D02*
D03*
Y510000D02*
D03*
Y410000D02*
D03*
X1640000Y290000D02*
D03*
X1550000D02*
D03*
X1610000Y410000D02*
D03*
Y510000D02*
D03*
Y990000D02*
D03*
X1550000Y340000D02*
D03*
X1570000Y470000D02*
D03*
Y430000D02*
D03*
X1550000Y990000D02*
D03*
Y1130000D02*
D03*
Y1080000D02*
D03*
X1010000Y1090000D02*
D03*
X1010000Y1130000D02*
D03*
X1010000Y330000D02*
D03*
X1070000Y1010000D02*
D03*
Y510000D02*
D03*
Y420000D02*
D03*
X1010000Y290000D02*
D03*
X1100000D02*
D03*
X1160000Y410000D02*
D03*
Y510000D02*
D03*
Y990000D02*
D03*
X1100000Y340000D02*
D03*
X1120000Y470000D02*
D03*
Y430000D02*
D03*
X1100000Y990000D02*
D03*
Y1130000D02*
D03*
Y1080000D02*
D03*
X1280000D02*
D03*
Y1130000D02*
D03*
Y990000D02*
D03*
X1300000Y430000D02*
D03*
Y470000D02*
D03*
X1280000Y340000D02*
D03*
X1340000Y990000D02*
D03*
Y510000D02*
D03*
Y410000D02*
D03*
X1280000Y290000D02*
D03*
X1190000D02*
D03*
X1250000Y410000D02*
D03*
Y510000D02*
D03*
Y990000D02*
D03*
X1190000Y340000D02*
D03*
X1210000Y470000D02*
D03*
Y430000D02*
D03*
X1190000Y990000D02*
D03*
Y1130000D02*
D03*
Y1080000D02*
D03*
X740000D02*
D03*
Y1130000D02*
D03*
Y990000D02*
D03*
X760000Y430000D02*
D03*
Y470000D02*
D03*
X740000Y340000D02*
D03*
X800000Y990000D02*
D03*
Y510000D02*
D03*
Y410000D02*
D03*
X740000Y290000D02*
D03*
X830000D02*
D03*
X890000Y420000D02*
D03*
Y510000D02*
D03*
Y990000D02*
D03*
X830000Y340000D02*
D03*
X850000Y470000D02*
D03*
Y430000D02*
D03*
X830000Y990000D02*
D03*
Y1130000D02*
D03*
X650000Y1080000D02*
D03*
Y1130000D02*
D03*
Y990000D02*
D03*
X670000Y430000D02*
D03*
Y470000D02*
D03*
X650000Y340000D02*
D03*
X710000Y990000D02*
D03*
Y510000D02*
D03*
Y410000D02*
D03*
X650000Y290000D02*
D03*
X560000D02*
D03*
X620000Y410000D02*
D03*
Y510000D02*
D03*
Y990000D02*
D03*
X560000Y340000D02*
D03*
Y990000D02*
D03*
Y1130000D02*
D03*
Y1080000D02*
D03*
X316754Y777497D02*
D03*
X300000Y760000D02*
D03*
X360000Y1050000D02*
D03*
X340000D02*
D03*
X1995000Y615000D02*
D03*
X1005000D02*
D03*
X915000D02*
D03*
X450000Y828000D02*
D03*
X390000Y820000D02*
D03*
Y800000D02*
D03*
X555000Y615000D02*
D03*
X410000Y820000D02*
D03*
X240000Y472340D02*
D03*
X330000Y472500D02*
D03*
X465192Y863192D02*
D03*
X522000Y886000D02*
D03*
X424000Y673000D02*
D03*
X466000Y844000D02*
D03*
X479000Y660000D02*
D03*
X410000Y1075000D02*
D03*
X373270Y706167D02*
D03*
X533000Y664000D02*
D03*
X324775Y918863D02*
D03*
X507000Y574000D02*
D03*
X240000Y962250D02*
D03*
X324852Y938798D02*
D03*
X373010Y757500D02*
D03*
X324938Y635441D02*
D03*
X270000Y962500D02*
D03*
Y680000D02*
D03*
X240000D02*
D03*
X410000Y800000D02*
D03*
X325000Y660000D02*
D03*
X360000Y775000D02*
D03*
X439000Y658000D02*
D03*
X436000Y814000D02*
D03*
X489000Y867000D02*
D03*
X494000Y887000D02*
D03*
M02*
