M48
;Layer_Color=9474304
;FILE_FORMAT=4:4
METRIC,LZ
;TYPE=PLATED
T1F00S00C0.5000
T2F00S00C0.8000
T3F00S00C1.0000
;TYPE=NON_PLATED
T5F00S00C3.2000
%
T01
X0028Y0033
X0037
X0056Y0034
Y0029
X0065
Y0034
X0074
Y0029
X0083
Y0034
X0092Y0033
Y0029
X0101
X0101Y0033
X011Y0034
Y0029
X0119
Y0034
X0128
Y0029
X0137
Y0034
X0146
Y0029
X0155
Y0034
X0164
Y0029
X0173
Y0034
X0182
Y0029
X0191
Y0033
X02
Y0029
X0209
Y0034
X0218
Y0029
X0227
Y0034
X0236
Y0029
X0245
Y0034
X0254
Y0029
X0263
Y0034
X0272
Y0029
X0278Y0041
Y0051
X027825Y00615
X02715
X026925
Y00615
X02625Y00615
X026025
Y00615
X02535Y00615
X025125
X02445
X024225
X0242Y0051
X0247Y0047
Y0043
X0251Y0041
X0256Y0043
Y0047
X026Y0051
X0251
X0269
X0265Y0047
Y0043
X0269Y0041
X0274Y0043
Y0047
X026Y0041
X0242
X0238Y0043
Y0047
X0233Y0051
X0229Y0047
Y0043
X0233Y0041
X0224
X022Y0043
Y0047
X0224Y0051
X0215
X0211Y0047
Y0043
X0215Y0041
X0206Y0051
X020625Y00615
X02085
X021525
X02175
X022425
Y00615
X02265Y00615
X023325
X023325Y00615
X02355Y00615
X01995
X019725Y00615
X01905Y00615
X018825
Y00615
X01815Y00615
X01793119Y00615
X01725Y00615
X01702786Y00615
X01635Y00615
X01613119Y00615
X0161Y0051
X0166Y0047
Y0043
X017Y0041
X0175Y0043
Y0047
X0179Y0051
X0188
X0184Y0047
Y0043
X0179Y0041
X0189
X0198
X0197Y0051
X017
X0161Y0041
X0157Y0043
Y0047
X0152Y0051
X0148Y0047
Y0043
X0152Y0041
X0143
X0139Y0043
Y0047
X0143Y0051
X0134
X013Y0047
Y0043
X0134Y0041
X0125
X0121Y0043
Y0047
X0125Y0051
X012525Y00615
X01275
X013425
X01365
X014325
X01455
X015225
X01545
X01185
X011625
X01095
X01072576Y00615
X01005Y00615
X009825
X00915
X0089285Y0061475
X0082535
X008025Y00615
X008Y0051
X0089
X0085Y0047
Y0043
X0089Y0042
X0098
Y0051
X0107
Y0042
X0112Y0043
Y0047
X0116Y0051
Y0041
X008
X0076Y0043
Y0047
X0067
Y0043
X0071Y0041
X0062
X0058Y0043
Y0047
X0062Y0051
X0071
X007125Y00615
X00735Y00615
X00645Y00615
X006225
X00555
X00533Y00664
X00499Y00666
X00479Y0066
X00439Y00658
X00424Y00673
X00437Y00692
X00467Y00705
X00455Y007625
X0047Y007825
X004875Y007725
X005125Y007875
X00507Y00574
X00472Y00588
X00442564Y00600064
X004225Y006075
X0041Y0059
Y0057
X0039
Y0059
X00324938Y00635441
X00325Y0066
X00359936Y00689224
X0037327Y00706167
X0037301Y007575
X0036Y00775
X00316754Y00777497
X003Y0076
X0027Y0068
X0024
X00251789Y00603844
X00287525Y00604179
X0033Y004725
X0024Y0047234
X0029Y0042
X00289016Y00889105
X00247105Y00889441
X0024Y0096225
X0027Y009625
X00324852Y00938798
X00324775Y00918863
X0039Y0088
Y0082
Y008
X00389774Y01066787
X0036Y0105
X0034
X00376297Y01152061
X00463954Y01152835
X0048Y0105
X0052
X0056Y0108
Y0113
X0065
Y0108
X0074
Y0113
Y0099
X0071
X007125Y00965
X0065Y0099
X0062
X006225Y00965
X0055198Y0094802
X00531Y00947
X00522Y00886
X00494Y00887
X00489Y00867
X00465192Y00863192
X00466Y00844
X0045Y00828
X00436Y00814
X0041Y0082
Y008
X0053Y008005
X0056Y0099
X00458508Y00985376
X0041Y01075
X0083Y0108
Y0113
X009172Y011321
X0092Y0109
Y0101
X0089Y0099
X008925Y00965
X0089285Y0096475
X0083Y0099
X008
X008025Y00965
X009825Y00965
X0098Y0101
X0101
X0107
X010725Y00965
X011Y0099
X0116
X011625Y00965
Y00965
X0119Y0099
Y0108
Y0113
X011
Y0108
X0101Y0109
X0101Y0113
X0128
Y0108
Y0099
X0125
X012525Y00965
X012525Y00965
X013425Y00965
X0134Y0099
X0137
X0143
X014325Y00965
X0146Y0099
X0152
X015225Y00965
Y00965
X0155Y0099
Y0108
Y0113
X0146
Y0108
X0137
Y0113
X0164
Y0108
X0173
Y0113
X0182
Y0108
Y0099
X0179
X017925Y00965
Y00965
X0173Y0099
X017
X017025Y00965
Y00965
X0164Y0099
X0161
X016125Y00965
Y00965
X018825
Y00965
X0191Y0101
Y0109
Y0113
X019725Y00965
X02Y0101
Y0109
Y0113
X0209
Y0108
Y0099
X020625Y00965
X021525
X0215Y0099
X0218
X0224
X022425Y00965
Y00965
X0227Y0099
X0233
X023325Y00965
X023325Y00965
X0236Y0099
Y0108
Y0113
X0227
Y0108
X0218
Y0113
X0245
Y0108
Y0099
X0242
X024225Y00965
X025125
X0251Y0099
X0254
X026
X026025Y00965
Y00965
X0263Y0099
X0269
X026925Y00965
Y00965
X0272Y0099
Y0108
Y0113
X0263
Y0108
X0254
Y0113
X0278Y0099
X027825Y00965
T02
X003975Y005248
Y005502
T03
X0047Y00475
X00505
T05
X009885Y0037
X020115
X009885Y0105
X020115
M30
