G04*
G04 #@! TF.GenerationSoftware,Altium Limited,Altium Designer,19.1.5 (86)*
G04*
G04 Layer_Color=65535*
%FSLAX44Y44*%
%MOMM*%
G71*
G01*
G75*
%ADD10C,0.2000*%
%ADD11C,1.0000*%
%ADD12C,0.6000*%
%ADD13C,0.1000*%
%ADD14C,0.2500*%
%ADD15C,0.5000*%
%ADD16C,0.1500*%
%ADD17C,0.3200*%
G36*
X492500Y435000D02*
Y515000D01*
X500500Y513000D01*
X508000Y509500D01*
X513750Y505000D01*
X518750Y500000D01*
X523250Y492750D01*
X526000Y486000D01*
X527500Y478250D01*
X527250Y470750D01*
X526000Y463750D01*
X523000Y456500D01*
X519500Y451000D01*
X514500Y445500D01*
X508750Y441250D01*
X499750Y437000D01*
X492500Y435000D01*
D02*
G37*
G36*
X411605Y857220D02*
X407093D01*
Y864501D01*
Y865584D01*
Y866607D01*
Y867449D01*
Y868231D01*
Y868833D01*
Y869314D01*
Y869555D01*
Y869675D01*
Y870397D01*
Y870939D01*
Y871300D01*
Y871601D01*
X407032Y871721D01*
Y871781D01*
Y871842D01*
X406972Y871781D01*
X406912Y871721D01*
X406611Y871420D01*
X406310Y871120D01*
X406250Y871059D01*
X406190Y870999D01*
X405528Y870397D01*
X404866Y869735D01*
X404565Y869495D01*
X404324Y869254D01*
X404204Y869134D01*
X404144Y869074D01*
X403302Y868291D01*
X402640Y867690D01*
X402399Y867449D01*
X402219Y867268D01*
X402098Y867208D01*
X402038Y867148D01*
X401737Y866907D01*
X401557Y866727D01*
X401256Y866486D01*
X401135Y866366D01*
X401075Y866426D01*
X401015Y866486D01*
X400714Y866787D01*
X400353Y867028D01*
X400293Y867088D01*
X400233Y867148D01*
X399571Y867810D01*
X398909Y868412D01*
X398608Y868652D01*
X398367Y868893D01*
X398247Y869013D01*
X398187Y869074D01*
X395238Y871842D01*
X395178Y864501D01*
Y857220D01*
X390665D01*
Y867750D01*
Y878340D01*
X392109Y878280D01*
X392711Y878220D01*
X393132D01*
X393373Y878160D01*
X393734D01*
X393975Y878100D01*
X394095Y878039D01*
X394155D01*
X394757Y877799D01*
X395238Y877498D01*
X395600Y877257D01*
X395660Y877197D01*
X395720Y877137D01*
X396081Y876836D01*
X396622Y876355D01*
X397224Y875813D01*
X397886Y875211D01*
X398488Y874610D01*
X398969Y874188D01*
X399330Y873827D01*
X399390Y873767D01*
X399450Y873707D01*
X399872Y873225D01*
X400233Y872865D01*
X400474Y872624D01*
X400594Y872564D01*
X400895Y872323D01*
X401075Y872203D01*
X401135Y872142D01*
X401195Y872203D01*
X401316Y872263D01*
X401557Y872503D01*
X401857Y872744D01*
X401918Y872865D01*
X401978D01*
X402579Y873466D01*
X403181Y874008D01*
X403482Y874248D01*
X403663Y874429D01*
X403783Y874549D01*
X403843Y874610D01*
X404565Y875331D01*
X405167Y875873D01*
X405408Y876114D01*
X405588Y876294D01*
X405709Y876355D01*
X405769Y876415D01*
X406069Y876715D01*
X406370Y876956D01*
X406731Y877257D01*
X406912Y877377D01*
X406972Y877438D01*
X407453Y877738D01*
X407875Y877919D01*
X408115Y878039D01*
X408236D01*
X408838Y878160D01*
X409439Y878220D01*
X409740Y878280D01*
X410161D01*
X411605Y878340D01*
Y857220D01*
D02*
G37*
G36*
X501383Y878280D02*
X501864D01*
X502285Y878220D01*
X502646D01*
X502947Y878160D01*
X503128D01*
X503308Y878100D01*
X503429D01*
X503910Y877979D01*
X504392Y877799D01*
X504692Y877678D01*
X504753Y877618D01*
X504813D01*
X505114Y877377D01*
X505475Y877137D01*
X506076Y876535D01*
X506377Y876234D01*
X506618Y876054D01*
X506738Y875873D01*
X506799Y875813D01*
X507039Y875512D01*
X507340Y875211D01*
X508062Y874369D01*
X508844Y873406D01*
X509687Y872383D01*
X510409Y871480D01*
X510770Y871059D01*
X511011Y870698D01*
X511251Y870397D01*
X511432Y870157D01*
X511552Y870036D01*
X511612Y869976D01*
X512274Y869134D01*
X512876Y868412D01*
X513417Y867750D01*
X513899Y867148D01*
X514260Y866727D01*
X514501Y866366D01*
X514681Y866125D01*
X514741Y866065D01*
X515162Y865523D01*
X515523Y865102D01*
X515764Y864862D01*
X515945Y864621D01*
X516065Y864501D01*
X516125Y864440D01*
Y864501D01*
X516185Y864681D01*
Y864922D01*
Y865223D01*
Y865523D01*
Y865824D01*
Y866005D01*
Y866065D01*
Y866787D01*
Y867629D01*
Y868472D01*
Y869314D01*
Y870097D01*
Y870758D01*
Y870939D01*
Y871120D01*
Y871240D01*
Y871300D01*
Y878280D01*
X520698D01*
Y857220D01*
X519013D01*
X518412Y857280D01*
X517870D01*
X517329Y857400D01*
X516907Y857460D01*
X516667Y857581D01*
X516546D01*
X516065Y857761D01*
X515644Y858002D01*
X515343Y858182D01*
X515283Y858242D01*
X515223D01*
X514741Y858604D01*
X514320Y858965D01*
X514079Y859205D01*
X513959Y859326D01*
X513839Y859506D01*
X513598Y859807D01*
X513297Y860108D01*
X512996Y860469D01*
X512695Y860830D01*
X512455Y861131D01*
X512274Y861372D01*
X512214Y861432D01*
X511071Y862816D01*
X510529Y863538D01*
X510048Y864139D01*
X509566Y864681D01*
X509205Y865162D01*
X508965Y865403D01*
X508904Y865523D01*
X508243Y866366D01*
X507641Y867088D01*
X507099Y867750D01*
X506618Y868352D01*
X506257Y868773D01*
X505956Y869134D01*
X505775Y869374D01*
X505715Y869435D01*
X505294Y869976D01*
X504933Y870397D01*
X504692Y870698D01*
X504512Y870939D01*
X504452Y871059D01*
X504392Y871120D01*
X504331D01*
Y871059D01*
Y870819D01*
Y870518D01*
Y870157D01*
X504271Y869796D01*
Y869495D01*
Y869254D01*
Y869194D01*
Y868412D01*
Y867569D01*
Y866727D01*
Y865945D01*
Y865283D01*
Y864681D01*
Y864320D01*
Y864260D01*
Y864200D01*
Y857220D01*
X499758D01*
Y867750D01*
Y878340D01*
X501383Y878280D01*
D02*
G37*
G36*
X495426Y857220D02*
X490732D01*
Y867750D01*
Y878280D01*
X495426D01*
Y857220D01*
D02*
G37*
G36*
X483512Y873887D02*
X477314Y873827D01*
X472921D01*
X472440Y873767D01*
X471357D01*
X470996Y873707D01*
X470815Y873647D01*
X470755D01*
X470514Y873466D01*
X470454Y873406D01*
X470394D01*
X470274Y873346D01*
X470214Y873286D01*
X470093Y873045D01*
X469973Y872804D01*
X469913Y872564D01*
X469852Y872443D01*
X469792Y871962D01*
X469732Y871541D01*
Y871180D01*
Y871120D01*
Y871059D01*
Y870097D01*
X481225D01*
Y865704D01*
X469732D01*
Y864380D01*
X469792Y863839D01*
Y863417D01*
Y863237D01*
Y863177D01*
X469913Y862816D01*
X470033Y862695D01*
Y862635D01*
X470153Y862455D01*
X470274Y862334D01*
X470334Y862214D01*
X470574Y862033D01*
X470635Y861973D01*
X470695Y861913D01*
X471176Y861732D01*
X484234Y861672D01*
Y857220D01*
X477374Y857280D01*
X471116D01*
X470755Y857340D01*
X470454D01*
X470153Y857400D01*
X469973D01*
X469852Y857460D01*
X469732D01*
X468950Y857641D01*
X468288Y857881D01*
X467746Y858182D01*
X467265Y858423D01*
X466904Y858664D01*
X466663Y858844D01*
X466543Y858965D01*
X466483Y859025D01*
X466122Y859506D01*
X465821Y860048D01*
X465460Y861191D01*
X465340Y861672D01*
X465219Y862154D01*
X465159Y862394D01*
Y862515D01*
Y862635D01*
X465099Y862876D01*
Y863538D01*
X465039Y863839D01*
Y864079D01*
Y864260D01*
Y864320D01*
Y865523D01*
Y866125D01*
Y866667D01*
Y867148D01*
Y867509D01*
Y867750D01*
Y867810D01*
Y869074D01*
Y870097D01*
Y870879D01*
X465099Y871541D01*
Y872022D01*
Y872323D01*
Y872503D01*
Y872564D01*
X465219Y873406D01*
X465340Y874068D01*
X465400Y874309D01*
X465460Y874489D01*
X465520Y874610D01*
Y874670D01*
X465701Y875211D01*
X465941Y875693D01*
X466242Y876114D01*
X466483Y876475D01*
X466724Y876715D01*
X466964Y876896D01*
X467085Y877016D01*
X467145Y877077D01*
X467686Y877377D01*
X468228Y877618D01*
X469371Y877979D01*
X469852Y878100D01*
X470274Y878160D01*
X470514Y878220D01*
X472921D01*
X474486Y878280D01*
X483512D01*
Y873887D01*
D02*
G37*
G36*
X452222Y878220D02*
X455712D01*
X456675Y878100D01*
X457517Y877919D01*
X458239Y877678D01*
X458841Y877438D01*
X459262Y877197D01*
X459563Y876956D01*
X459743Y876836D01*
X459804Y876776D01*
X460225Y876294D01*
X460586Y875693D01*
X460827Y875091D01*
X461067Y874429D01*
X461188Y873887D01*
X461308Y873406D01*
X461368Y873105D01*
Y873045D01*
Y872985D01*
Y872804D01*
Y872564D01*
Y872203D01*
X461428Y871842D01*
Y870999D01*
Y870097D01*
Y869194D01*
Y868472D01*
Y868171D01*
Y867930D01*
Y867810D01*
Y867750D01*
Y866968D01*
Y866245D01*
Y865644D01*
Y865042D01*
Y864561D01*
Y864139D01*
Y863778D01*
Y863477D01*
X461368Y863056D01*
Y862756D01*
Y862635D01*
Y862575D01*
X461248Y861793D01*
X461067Y861131D01*
X460827Y860529D01*
X460646Y860108D01*
X460405Y859687D01*
X460285Y859446D01*
X460165Y859266D01*
X460104Y859205D01*
X459743Y858784D01*
X459322Y858483D01*
X458420Y857942D01*
X457999Y857821D01*
X457698Y857701D01*
X457457Y857581D01*
X457397D01*
X456976Y857521D01*
X456554Y857460D01*
X455652Y857340D01*
X455230D01*
X454930Y857280D01*
X453847D01*
X452824Y857220D01*
X441030D01*
Y867750D01*
Y878280D01*
X451620D01*
X452222Y878220D01*
D02*
G37*
G36*
X436758Y857220D02*
X432004D01*
Y864260D01*
X420511D01*
Y857220D01*
X415817D01*
Y864681D01*
Y865945D01*
Y867028D01*
Y868051D01*
Y868833D01*
Y869495D01*
Y869976D01*
Y870277D01*
Y870397D01*
Y871180D01*
X415878Y871721D01*
Y872203D01*
Y872503D01*
Y872744D01*
Y872925D01*
Y872985D01*
X416058Y873887D01*
X416239Y874670D01*
X416479Y875331D01*
X416780Y875873D01*
X417021Y876234D01*
X417262Y876535D01*
X417382Y876715D01*
X417442Y876776D01*
X417984Y877197D01*
X418585Y877498D01*
X419247Y877738D01*
X419909Y877979D01*
X420511Y878100D01*
X420992Y878160D01*
X421293Y878220D01*
X424061D01*
X425927Y878280D01*
X436758D01*
Y857220D01*
D02*
G37*
G36*
Y831586D02*
X423459D01*
X422858Y831646D01*
X421534D01*
X420691Y831767D01*
X419909Y831947D01*
X419247Y832128D01*
X418706Y832368D01*
X418285Y832549D01*
X417984Y832669D01*
X417803Y832790D01*
X417743Y832850D01*
X417322Y833271D01*
X416961Y833752D01*
X416660Y834234D01*
X416419Y834715D01*
X416239Y835136D01*
X416118Y835497D01*
X416058Y835798D01*
Y835858D01*
X415998Y836400D01*
X415938Y837002D01*
X415878Y837242D01*
Y837483D01*
Y837603D01*
Y837663D01*
Y837964D01*
Y838325D01*
Y838747D01*
Y839288D01*
Y840431D01*
Y841635D01*
X415817Y842778D01*
Y843260D01*
Y843741D01*
Y844102D01*
Y844403D01*
Y844583D01*
Y844643D01*
Y852646D01*
X420511D01*
Y845245D01*
Y844102D01*
Y843139D01*
X420571Y842237D01*
Y841454D01*
Y840792D01*
Y840191D01*
Y839709D01*
Y839288D01*
X420631Y838927D01*
Y838626D01*
Y838446D01*
Y838265D01*
Y838085D01*
Y838025D01*
X420752Y837423D01*
X420932Y836941D01*
X421173Y836701D01*
X421233Y836580D01*
X421594Y836340D01*
X422015Y836219D01*
X422256Y836099D01*
X422798D01*
X423399Y836039D01*
X427130D01*
X432004Y835979D01*
Y852646D01*
X436758D01*
Y831586D01*
D02*
G37*
G36*
X520698D02*
X516005D01*
Y838626D01*
X504452D01*
Y831586D01*
X499758D01*
Y838747D01*
Y839890D01*
Y840973D01*
Y841936D01*
Y842718D01*
Y843320D01*
Y843801D01*
Y844102D01*
Y844222D01*
Y845005D01*
X499818Y845606D01*
Y846028D01*
Y846388D01*
Y846629D01*
Y846750D01*
Y846870D01*
X499999Y847893D01*
X500240Y848735D01*
X500480Y849457D01*
X500781Y850059D01*
X501022Y850480D01*
X501263Y850781D01*
X501383Y850962D01*
X501443Y851022D01*
X501985Y851443D01*
X502586Y851804D01*
X503248Y852045D01*
X503910Y852225D01*
X504512Y852406D01*
X505053Y852466D01*
X505354Y852526D01*
X505715D01*
X506076Y852586D01*
X511011D01*
X511853Y852646D01*
X520698D01*
Y831586D01*
D02*
G37*
G36*
X495426D02*
X490732D01*
Y842116D01*
Y852646D01*
X495426D01*
Y831586D01*
D02*
G37*
G36*
X484294Y848194D02*
X471056Y848133D01*
X470635Y847953D01*
X470394Y847833D01*
X470334Y847773D01*
X470274Y847712D01*
X470093Y847592D01*
X470033Y847532D01*
X469852Y847111D01*
X469732Y846750D01*
X469672Y846449D01*
Y846388D01*
Y846328D01*
X469732Y845907D01*
X469852Y845606D01*
X469913Y845366D01*
X469973Y845305D01*
X470153Y845125D01*
X470274Y845065D01*
Y845005D01*
X470514Y844824D01*
X470635Y844764D01*
X471056Y844523D01*
X476291Y844463D01*
X480022D01*
X480443Y844403D01*
X481466D01*
X481887Y844343D01*
X482188Y844283D01*
X482248D01*
X482910Y844042D01*
X483451Y843801D01*
X483933Y843560D01*
X484354Y843320D01*
X484715Y843079D01*
X484956Y842898D01*
X485076Y842778D01*
X485136Y842718D01*
X485497Y842297D01*
X485858Y841876D01*
X486280Y841033D01*
X486460Y840612D01*
X486581Y840371D01*
X486641Y840131D01*
Y840070D01*
X486701Y839830D01*
X486761Y839529D01*
X486821Y838807D01*
Y838506D01*
Y838265D01*
Y838085D01*
Y838025D01*
Y837543D01*
Y837122D01*
X486761Y836761D01*
Y836520D01*
X486701Y836280D01*
Y836159D01*
X486641Y836099D01*
Y836039D01*
X486280Y835076D01*
X486099Y834655D01*
X485858Y834294D01*
X485678Y834053D01*
X485497Y833812D01*
X485437Y833692D01*
X485377Y833632D01*
X484715Y832970D01*
X483993Y832549D01*
X483692Y832368D01*
X483512Y832248D01*
X483331Y832128D01*
X483271D01*
X482489Y831887D01*
X481767Y831767D01*
X481526D01*
X481285Y831706D01*
X480503D01*
X480082Y831646D01*
X477193D01*
X476050Y831586D01*
X466603D01*
Y835979D01*
X473583Y836039D01*
X479600D01*
X480022Y836099D01*
X480563D01*
X480684Y836159D01*
X480864D01*
X481105Y836280D01*
X481285Y836460D01*
X481466Y836580D01*
X481526Y836641D01*
X481767Y836941D01*
X481947Y837182D01*
X482067Y837363D01*
Y837423D01*
X482128Y837964D01*
X482067Y838446D01*
X482007Y838747D01*
X481947Y838867D01*
X481707Y839348D01*
X481406Y839649D01*
X481165Y839770D01*
X481105Y839830D01*
X481045D01*
X480924Y839890D01*
X480744D01*
X480383Y839950D01*
X479480D01*
X478818Y840010D01*
X477314D01*
X476592Y840070D01*
X472320D01*
X471718Y840131D01*
X470815D01*
X470274Y840191D01*
X469792Y840251D01*
X469552Y840311D01*
X469431D01*
X468829Y840492D01*
X468348Y840732D01*
X467867Y840973D01*
X467446Y841214D01*
X467145Y841394D01*
X466904Y841575D01*
X466784Y841695D01*
X466724Y841755D01*
X466001Y842658D01*
X465520Y843500D01*
X465400Y843861D01*
X465279Y844162D01*
X465159Y844343D01*
Y844403D01*
X465099Y844643D01*
X465039Y844944D01*
X464978Y845606D01*
Y845907D01*
Y846088D01*
Y846268D01*
Y846328D01*
Y846810D01*
X465039Y847231D01*
Y847532D01*
X465099Y847833D01*
Y848013D01*
X465159Y848133D01*
Y848254D01*
X465400Y848916D01*
X465701Y849518D01*
X466001Y849999D01*
X466302Y850420D01*
X466603Y850781D01*
X466784Y851022D01*
X466964Y851142D01*
X467024Y851202D01*
X467566Y851563D01*
X468107Y851864D01*
X468649Y852105D01*
X469191Y852285D01*
X469672Y852406D01*
X470033Y852466D01*
X470334Y852526D01*
X470574D01*
X470875Y852586D01*
X475208D01*
X475990Y852646D01*
X484294D01*
Y848194D01*
D02*
G37*
G36*
X460947D02*
X448551D01*
X448190Y848133D01*
X447288D01*
X446927Y848073D01*
X446626D01*
X446144Y847953D01*
X445844Y847833D01*
X445783Y847773D01*
X445603Y847592D01*
X445422Y847411D01*
X445362Y847231D01*
X445302Y847171D01*
X445182Y846870D01*
X445121Y846629D01*
Y846449D01*
Y846388D01*
X445182Y845847D01*
X445302Y845486D01*
X445422Y845245D01*
X445483Y845185D01*
X445783Y844944D01*
X446144Y844704D01*
X446385Y844643D01*
X446506Y844583D01*
X446626D01*
X446866Y844523D01*
X454509D01*
X454930Y844463D01*
X457096D01*
X457276Y844403D01*
X457457D01*
X457938Y844343D01*
X458359Y844222D01*
X458721Y844102D01*
X458781Y844042D01*
X458841D01*
X459382Y843861D01*
X459804Y843681D01*
X460104Y843560D01*
X460165Y843500D01*
X460766Y843019D01*
X461248Y842598D01*
X461549Y842237D01*
X461669Y842116D01*
Y842056D01*
X462090Y841394D01*
X462391Y840732D01*
X462511Y840492D01*
X462572Y840251D01*
X462632Y840131D01*
Y840070D01*
X462752Y839469D01*
X462812Y838807D01*
Y838506D01*
Y838265D01*
Y838085D01*
Y838025D01*
Y837122D01*
X462752Y836821D01*
Y836520D01*
X462692Y836280D01*
Y836099D01*
X462632Y836039D01*
Y835979D01*
X462391Y835317D01*
X462150Y834715D01*
X461850Y834174D01*
X461549Y833752D01*
X461248Y833391D01*
X461007Y833151D01*
X460827Y833030D01*
X460766Y832970D01*
X460225Y832609D01*
X459623Y832308D01*
X459021Y832128D01*
X458480Y831947D01*
X457999Y831827D01*
X457577Y831706D01*
X457337Y831646D01*
X455772D01*
X455351Y831586D01*
X441571D01*
Y836039D01*
X454147D01*
X454569Y836099D01*
X455832D01*
X456554Y836219D01*
X457036Y836340D01*
X457337Y836460D01*
X457457Y836520D01*
X457698Y836761D01*
X457818Y837002D01*
X458059Y837483D01*
Y837724D01*
X458119Y837904D01*
Y838025D01*
Y838085D01*
X457999Y838747D01*
X457818Y839228D01*
X457637Y839529D01*
X457517Y839589D01*
X457096Y839770D01*
X456735Y839890D01*
X456374Y839950D01*
X455832D01*
X455531Y840010D01*
X453425D01*
X452583Y840070D01*
X446927D01*
X446626Y840131D01*
X445543D01*
X444821Y840311D01*
X444159Y840552D01*
X443918Y840672D01*
X443677Y840732D01*
X443557Y840853D01*
X443497D01*
X442955Y841153D01*
X442414Y841575D01*
X442053Y841936D01*
X441692Y842297D01*
X441451Y842658D01*
X441210Y842959D01*
X441150Y843139D01*
X441090Y843199D01*
X440849Y843801D01*
X440669Y844463D01*
X440548Y845065D01*
X440488Y845606D01*
X440428Y846148D01*
Y846509D01*
Y846750D01*
Y846870D01*
X440488Y847411D01*
X440548Y847833D01*
X440609Y848133D01*
Y848254D01*
X440729Y848735D01*
X440910Y849096D01*
X441090Y849397D01*
X441150Y849518D01*
X441692Y850360D01*
X442293Y851022D01*
X442534Y851263D01*
X442775Y851443D01*
X442895Y851503D01*
X442955Y851563D01*
X443918Y852045D01*
X444881Y852346D01*
X445242Y852406D01*
X445543Y852466D01*
X445783Y852526D01*
X446024D01*
X446325Y852586D01*
X451018D01*
X451861Y852646D01*
X460947D01*
Y848194D01*
D02*
G37*
G36*
X403723Y852586D02*
X405528D01*
X405829Y852526D01*
X406370D01*
X407393Y852346D01*
X407875Y852225D01*
X408236Y852105D01*
X408597Y851985D01*
X408838Y851924D01*
X408958Y851804D01*
X409018D01*
X409740Y851383D01*
X410221Y850901D01*
X410583Y850540D01*
X410703Y850420D01*
Y850360D01*
X411184Y849638D01*
X411485Y848976D01*
X411545Y848675D01*
X411605Y848434D01*
X411666Y848314D01*
Y848254D01*
X411726Y847712D01*
X411786Y847111D01*
Y846870D01*
Y846629D01*
Y846509D01*
Y846449D01*
Y845667D01*
X411726Y845065D01*
X411666Y844704D01*
Y844643D01*
Y844583D01*
X411425Y843801D01*
X411184Y843199D01*
X411004Y842959D01*
X410943Y842778D01*
X410823Y842658D01*
Y842598D01*
X410342Y841996D01*
X409860Y841635D01*
X409499Y841394D01*
X409439Y841334D01*
X409379D01*
X409138Y841214D01*
X409078Y841153D01*
X408958Y841093D01*
Y841033D01*
X409018D01*
X409078Y840973D01*
X409259Y840913D01*
X409379Y840853D01*
X409860Y840612D01*
X410282Y840311D01*
X410522Y840070D01*
X410643Y840010D01*
Y839950D01*
X411004Y839469D01*
X411244Y838987D01*
X411365Y838626D01*
X411425Y838566D01*
Y838506D01*
X411485Y838205D01*
X411545Y837844D01*
Y837543D01*
Y837483D01*
Y837423D01*
Y837122D01*
X411605Y836761D01*
Y835858D01*
Y835437D01*
Y835076D01*
Y834835D01*
Y834775D01*
X411666Y831586D01*
X406972D01*
X406912Y834294D01*
Y834835D01*
Y835317D01*
Y835738D01*
Y836039D01*
X406852Y836280D01*
Y836460D01*
Y836580D01*
X406792Y837002D01*
Y837302D01*
X406731Y837423D01*
Y837483D01*
X406551Y837904D01*
X406370Y838205D01*
X406190Y838386D01*
X406130Y838446D01*
X405829Y838626D01*
X405468Y838747D01*
X405167Y838867D01*
X404866D01*
X404686Y838927D01*
X402880D01*
X402339Y838987D01*
X395359D01*
Y831586D01*
X390665D01*
Y842116D01*
Y852646D01*
X403061D01*
X403723Y852586D01*
D02*
G37*
G36*
X381519Y822500D02*
X340000D01*
Y854933D01*
Y887426D01*
X381519D01*
Y822500D01*
D02*
G37*
%LPC*%
G36*
X445723Y873887D02*
Y861672D01*
X451620D01*
X452162Y861732D01*
X454027D01*
X454448Y861793D01*
X454869D01*
X455351Y861913D01*
X455772Y862033D01*
X456013Y862214D01*
X456133Y862274D01*
X456374Y862695D01*
X456554Y863056D01*
X456614Y863357D01*
Y863477D01*
Y863658D01*
Y863899D01*
X456675Y864440D01*
Y865162D01*
Y865884D01*
Y866607D01*
Y867208D01*
Y867449D01*
Y867569D01*
Y867690D01*
Y867750D01*
Y868773D01*
Y869555D01*
Y870217D01*
Y870698D01*
Y871059D01*
Y871240D01*
Y871360D01*
Y871420D01*
Y871902D01*
X456614Y872203D01*
X456554Y872383D01*
Y872443D01*
X456434Y872744D01*
X456254Y872985D01*
X456133Y873105D01*
X456073Y873165D01*
X455832Y873406D01*
X455652Y873526D01*
X455471Y873647D01*
X455411D01*
X455110Y873707D01*
X454749Y873767D01*
X453907D01*
X453305Y873827D01*
X450357D01*
X445723Y873887D01*
D02*
G37*
G36*
X432004Y873827D02*
X425024D01*
X424603Y873767D01*
X422316D01*
X422015Y873707D01*
X421775Y873587D01*
X421594Y873526D01*
X421534Y873466D01*
X421293Y873346D01*
X421053Y873225D01*
X420992Y873165D01*
X420932Y873105D01*
X420812Y872804D01*
X420691Y872503D01*
X420631Y872323D01*
Y872263D01*
Y872082D01*
X420571Y871781D01*
Y871180D01*
X420511Y870939D01*
Y870698D01*
Y870518D01*
Y870458D01*
Y868713D01*
X432004D01*
Y871300D01*
Y873827D01*
D02*
G37*
G36*
X516005Y848194D02*
X509085D01*
X508724Y848133D01*
X506799D01*
X506618Y848073D01*
X506498D01*
X506137Y848013D01*
X505836Y847893D01*
X505595Y847833D01*
X505535Y847773D01*
X505294Y847652D01*
X505053Y847472D01*
X504993Y847351D01*
X504933Y847291D01*
X504753Y846990D01*
X504632Y846689D01*
X504572Y846509D01*
Y846388D01*
Y846148D01*
X504512Y845907D01*
Y845366D01*
Y845065D01*
Y844824D01*
Y844704D01*
Y844643D01*
Y843019D01*
X516005D01*
Y845606D01*
Y848194D01*
D02*
G37*
G36*
X395359D02*
Y843380D01*
X404686D01*
X404926Y843440D01*
X405347Y843500D01*
X405528Y843560D01*
X405588D01*
X405889Y843681D01*
X406190Y843861D01*
X406370Y843982D01*
X406431Y844042D01*
X406671Y844343D01*
X406852Y844583D01*
X406972Y844764D01*
Y844824D01*
X407032Y845125D01*
X407093Y845486D01*
Y845727D01*
Y845787D01*
Y846208D01*
X407032Y846509D01*
X406972Y846750D01*
Y846810D01*
X406852Y847050D01*
X406671Y847231D01*
X406491Y847411D01*
X406431Y847472D01*
X406190Y847712D01*
X405949Y847893D01*
X405769Y848013D01*
X405588D01*
X405408Y848073D01*
X403964D01*
X403362Y848133D01*
X400413D01*
X395359Y848194D01*
D02*
G37*
G36*
X360760Y882913D02*
X350651D01*
X349929Y882853D01*
X344934D01*
X344693Y882793D01*
X344513D01*
Y882673D01*
Y882432D01*
Y882071D01*
Y881710D01*
Y881289D01*
Y880928D01*
Y880687D01*
Y880567D01*
Y879664D01*
Y878701D01*
Y877678D01*
Y876715D01*
X344453Y875873D01*
Y875151D01*
Y874910D01*
Y874730D01*
Y874610D01*
Y874549D01*
Y873105D01*
Y871541D01*
Y870097D01*
Y868652D01*
Y868051D01*
Y867449D01*
Y866968D01*
Y866486D01*
Y866125D01*
Y865884D01*
Y865704D01*
Y865644D01*
Y863718D01*
Y861853D01*
Y859987D01*
Y858363D01*
Y857641D01*
Y856979D01*
Y856377D01*
Y855836D01*
Y855414D01*
Y855114D01*
Y854933D01*
Y854873D01*
X344513Y827013D01*
X376946D01*
Y854933D01*
Y882853D01*
X360760Y882913D01*
D02*
G37*
%LPD*%
G36*
X362565Y878220D02*
X367439D01*
X367740Y878160D01*
X367980D01*
X368161Y878100D01*
X368281D01*
X368401Y878039D01*
X369003Y877859D01*
X369485Y877618D01*
X369966Y877377D01*
X370327Y877137D01*
X370628Y876956D01*
X370868Y876776D01*
X370989Y876655D01*
X371049Y876595D01*
X371711Y875813D01*
X372132Y875031D01*
X372313Y874670D01*
X372433Y874369D01*
X372493Y874188D01*
Y874128D01*
X372553Y873827D01*
X372614Y873526D01*
X372674Y872804D01*
Y872503D01*
Y872263D01*
Y872082D01*
Y872022D01*
Y871541D01*
Y871180D01*
X372614Y870819D01*
Y870578D01*
X372553Y870337D01*
Y870217D01*
X372493Y870097D01*
X372253Y869374D01*
X371952Y868773D01*
X371771Y868532D01*
X371711Y868352D01*
X371591Y868291D01*
Y868231D01*
X371169Y867690D01*
X370748Y867329D01*
X370447Y867088D01*
X370387Y867028D01*
X370327D01*
X370026Y866847D01*
X369966Y866787D01*
X369906D01*
X369785Y866727D01*
X369846D01*
X369906Y866667D01*
X370146Y866607D01*
X370207Y866546D01*
X370267D01*
X370568Y866366D01*
X370868Y866125D01*
X371109Y865945D01*
X371169Y865884D01*
X371470Y865584D01*
X371711Y865283D01*
X371831Y865102D01*
X371892Y865042D01*
X372132Y864561D01*
X372253Y864079D01*
X372313Y863718D01*
Y863658D01*
Y863598D01*
Y863237D01*
X372373Y862816D01*
Y862274D01*
Y861732D01*
Y861191D01*
Y860770D01*
Y860469D01*
Y860349D01*
Y857220D01*
X367679D01*
Y860108D01*
Y860770D01*
Y861311D01*
Y861793D01*
Y862094D01*
X367619Y862334D01*
Y862455D01*
Y862575D01*
Y862936D01*
X367559Y863177D01*
X367499Y863297D01*
Y863357D01*
X367318Y863658D01*
X367138Y863899D01*
X367018Y864019D01*
X366957Y864079D01*
X366717Y864260D01*
X366476Y864380D01*
X366356Y864501D01*
X364129D01*
X363407Y864561D01*
X361782D01*
X361060Y864621D01*
X353779D01*
Y857220D01*
X348966D01*
Y867750D01*
Y878280D01*
X361722D01*
X362565Y878220D01*
D02*
G37*
G36*
X372373Y831586D02*
X357510D01*
X356908Y831646D01*
X355585D01*
X354682Y831767D01*
X353960Y831947D01*
X353238Y832128D01*
X352696Y832368D01*
X352275Y832549D01*
X351914Y832669D01*
X351734Y832790D01*
X351674Y832850D01*
X351192Y833271D01*
X350771Y833692D01*
X350410Y834174D01*
X350109Y834595D01*
X349868Y835016D01*
X349748Y835317D01*
X349688Y835557D01*
X349628Y835618D01*
X349387Y836520D01*
X349206Y837302D01*
X349146Y837603D01*
X349086Y837844D01*
Y838025D01*
Y838085D01*
Y838386D01*
Y838807D01*
Y839228D01*
X349026Y839770D01*
Y840973D01*
Y842237D01*
Y843440D01*
Y843922D01*
Y844403D01*
Y844824D01*
Y845125D01*
Y845305D01*
Y845366D01*
X348966Y852646D01*
X353779D01*
Y845546D01*
Y844463D01*
Y843440D01*
X353840Y842598D01*
Y841815D01*
Y841153D01*
Y840552D01*
Y840070D01*
Y839649D01*
X353900Y839348D01*
Y839047D01*
Y838686D01*
Y838506D01*
Y838446D01*
X354080Y837844D01*
X354321Y837363D01*
X354562Y837002D01*
X354682Y836941D01*
Y836881D01*
X355224Y836460D01*
X355705Y836219D01*
X356066Y836159D01*
X356126Y836099D01*
X357029D01*
X357450Y836039D01*
X361963D01*
X367679Y835979D01*
Y852646D01*
X372373D01*
Y831586D01*
D02*
G37*
%LPC*%
G36*
X353779Y873887D02*
Y869074D01*
X366235Y869134D01*
X366777Y869314D01*
X367078Y869555D01*
X367258Y869735D01*
X367379Y869856D01*
X367439Y869916D01*
X367619Y870157D01*
X367800Y870458D01*
X367860Y870698D01*
X367920Y870819D01*
X367980Y871180D01*
Y871240D01*
Y871300D01*
Y871480D01*
Y871721D01*
X367920Y871902D01*
Y871962D01*
X367860Y872383D01*
X367740Y872684D01*
X367619Y872865D01*
X367559Y872925D01*
X367318Y873165D01*
X367078Y873346D01*
X366837Y873466D01*
X366777Y873526D01*
X366235Y873827D01*
X353779Y873887D01*
D02*
G37*
%LPD*%
D10*
X527500Y475000D02*
G03*
X527500Y475000I-40000J0D01*
G01*
X412349Y522651D02*
G03*
X408000Y555686I-14849J14849D01*
G01*
X386746D02*
G03*
X382397Y522651I10500J-18187D01*
G01*
X2503860Y629399D02*
X2520360D01*
X2503860Y663399D02*
X2520360D01*
X2503860Y629399D02*
Y663399D01*
X2520360Y629399D02*
Y663399D01*
X2297638Y365500D02*
Y394500D01*
X2259138Y365500D02*
Y394500D01*
X2320638D01*
Y365500D02*
Y394500D01*
X2259138Y365500D02*
X2320638D01*
X2054245Y629399D02*
X2070745D01*
X2054245Y663399D02*
X2070745D01*
X2054245Y629399D02*
Y663399D01*
X2070745Y629399D02*
Y663399D01*
X1964180Y629399D02*
X1980680D01*
X1964180Y663399D02*
X1980680D01*
X1964180Y629399D02*
Y663399D01*
X1980680Y629399D02*
Y663399D01*
X1784216Y629399D02*
X1800716D01*
X1784216Y663399D02*
X1800716D01*
X1784216Y629399D02*
Y663399D01*
X1800716Y629399D02*
Y663399D01*
X1694445Y629399D02*
X1710945D01*
X1694445Y663399D02*
X1710945D01*
X1694445Y629399D02*
Y663399D01*
X1710945Y629399D02*
Y663399D01*
X1604869Y629399D02*
X1621369D01*
X1604869Y663399D02*
X1621369D01*
X1604869Y629399D02*
Y663399D01*
X1621369Y629399D02*
Y663399D01*
X1513914Y629399D02*
X1530414D01*
X1513914Y663399D02*
X1530414D01*
X1513914Y629399D02*
Y663399D01*
X1530414Y629399D02*
Y663399D01*
X1424181Y629399D02*
X1440681D01*
X1424181Y663399D02*
X1440681D01*
X1424181Y629399D02*
Y663399D01*
X1440681Y629399D02*
Y663399D01*
X1064258Y629399D02*
X1080758D01*
X1064258Y663399D02*
X1080758D01*
X1064258Y629399D02*
Y663399D01*
X1080758Y629399D02*
Y663399D01*
X1154314Y629399D02*
X1170815D01*
X1154314Y663399D02*
X1170815D01*
X1154314Y629399D02*
Y663399D01*
X1170815Y629399D02*
Y663399D01*
X974295Y629399D02*
X990795D01*
X974295Y663399D02*
X990795D01*
X974295Y629399D02*
Y663399D01*
X990795Y629399D02*
Y663399D01*
X1333790Y629399D02*
X1350290D01*
X1333790Y663399D02*
X1350290D01*
X1333790Y629399D02*
Y663399D01*
X1350290Y629399D02*
Y663399D01*
X1244407Y629399D02*
X1260907D01*
X1244407Y663399D02*
X1260907D01*
X1244407Y629399D02*
Y663399D01*
X1260907Y629399D02*
Y663399D01*
X884505Y629399D02*
X901005D01*
X884505Y663399D02*
X901005D01*
X884505Y629399D02*
Y663399D01*
X901005Y629399D02*
Y663399D01*
X2207897Y365803D02*
Y394803D01*
X2169397Y365803D02*
Y394803D01*
X2230897D01*
Y365803D02*
Y394803D01*
X2169397Y365803D02*
X2230897D01*
X1874250Y629399D02*
X1890750D01*
X1874250Y663399D02*
X1890750D01*
X1874250Y629399D02*
Y663399D01*
X1890750Y629399D02*
Y663399D01*
X2774797Y629399D02*
X2791297D01*
X2774797Y663399D02*
X2791297D01*
X2774797Y629399D02*
Y663399D01*
X2791297Y629399D02*
Y663399D01*
X2684497Y629399D02*
X2700997D01*
X2684497Y663399D02*
X2700997D01*
X2684497Y629399D02*
Y663399D01*
X2700997Y629399D02*
Y663399D01*
X2594016Y629399D02*
X2610515D01*
X2594016Y663399D02*
X2610515D01*
X2594016Y629399D02*
Y663399D01*
X2610515Y629399D02*
Y663399D01*
X2414616Y629399D02*
X2431116D01*
X2414616Y663399D02*
X2431116D01*
X2414616Y629399D02*
Y663399D01*
X2431116Y629399D02*
Y663399D01*
X2324039Y629399D02*
X2340539D01*
X2324039Y663399D02*
X2340539D01*
X2324039Y629399D02*
Y663399D01*
X2340539Y629399D02*
Y663399D01*
X2234438Y629399D02*
X2250938D01*
X2234438Y663399D02*
X2250938D01*
X2234438Y629399D02*
Y663399D01*
X2250938Y629399D02*
Y663399D01*
X2144250Y629399D02*
X2160750D01*
X2144250Y663399D02*
X2160750D01*
X2144250Y629399D02*
Y663399D01*
X2160750Y629399D02*
Y663399D01*
X794250Y629399D02*
X810750D01*
X794250Y663399D02*
X810750D01*
X794250Y629399D02*
Y663399D01*
X810750Y629399D02*
Y663399D01*
X704250Y629399D02*
X720750D01*
X704250Y663399D02*
X720750D01*
X704250Y629399D02*
Y663399D01*
X720750Y629399D02*
Y663399D01*
X614250Y628000D02*
X630750D01*
X614250Y662000D02*
X630750D01*
X614250Y628000D02*
Y662000D01*
X630750Y628000D02*
Y662000D01*
X560000Y720500D02*
Y764500D01*
X580000Y720500D02*
Y764500D01*
X560000Y720500D02*
X580000D01*
X560000Y764500D02*
X580000D01*
X482000Y365500D02*
Y394500D01*
X520500Y365500D02*
Y394500D01*
X459000Y365500D02*
X520500D01*
X459000D02*
Y394500D01*
X520500D01*
X251000Y365500D02*
Y394500D01*
X289500Y365500D02*
Y394500D01*
X228000Y365500D02*
X289500D01*
X228000D02*
Y394500D01*
X289500D01*
X341500Y365500D02*
Y394500D01*
X380000Y365500D02*
Y394500D01*
X318500Y365500D02*
X380000D01*
X318500D02*
Y394500D01*
X380000D01*
X948000Y965500D02*
Y994500D01*
X909500Y965500D02*
Y994500D01*
X971000D01*
Y965500D02*
Y994500D01*
X909500Y965500D02*
X971000D01*
X1038000D02*
Y994500D01*
X999500Y965500D02*
Y994500D01*
X1061000D01*
Y965500D02*
Y994500D01*
X999500Y965500D02*
X1061000D01*
X519370Y647470D02*
Y715470D01*
X340370Y647470D02*
X519370D01*
X340370D02*
Y715470D01*
X519370D01*
X2757000Y902000D02*
X2765000D01*
Y892000D02*
Y902000D01*
X2735000D02*
X2743000D01*
X2735000Y892000D02*
Y902000D01*
X2732000Y510000D02*
Y518000D01*
X2722000Y510000D02*
X2732000D01*
Y532000D02*
Y540000D01*
X2722000D02*
X2732000D01*
X2709500Y1025500D02*
X2771000D01*
Y1054500D01*
X2709500D02*
X2771000D01*
X2709500Y1025500D02*
Y1054500D01*
X2748000Y1025500D02*
Y1054500D01*
X2709500Y365500D02*
X2771000D01*
Y394500D01*
X2709500D02*
X2771000D01*
X2709500Y365500D02*
Y394500D01*
X2748000Y365500D02*
Y394500D01*
X2706750Y568000D02*
Y602000D01*
X2723250Y568000D02*
Y602000D01*
X2706750Y568000D02*
X2723250D01*
X2706750Y602000D02*
X2723250D01*
X2767000Y802500D02*
Y822500D01*
X2723000Y802500D02*
Y822500D01*
Y802500D02*
X2767000D01*
X2723000Y822500D02*
X2767000D01*
X2720000Y764500D02*
X2740000D01*
X2720000Y720500D02*
X2740000D01*
Y764500D01*
X2720000Y720500D02*
Y764500D01*
X291750Y693000D02*
Y727000D01*
X308250Y693000D02*
Y727000D01*
X291750Y693000D02*
X308250D01*
X291750Y727000D02*
X308250D01*
X291750Y633000D02*
Y667000D01*
X308250Y633000D02*
Y667000D01*
X291750Y633000D02*
X308250D01*
X291750Y667000D02*
X308250D01*
X231750Y633000D02*
Y667000D01*
X248250Y633000D02*
Y667000D01*
X231750Y633000D02*
X248250D01*
X231750Y667000D02*
X248250D01*
X261750Y633000D02*
Y667000D01*
X278250Y633000D02*
Y667000D01*
X261750Y633000D02*
X278250D01*
X261750Y667000D02*
X278250D01*
X261750Y693000D02*
Y727000D01*
X278250Y693000D02*
Y727000D01*
X261750Y693000D02*
X278250D01*
X261750Y727000D02*
X278250D01*
X231750Y693000D02*
Y727000D01*
X248250Y693000D02*
Y727000D01*
X231750Y693000D02*
X248250D01*
X231750Y727000D02*
X248250D01*
X231750Y915500D02*
Y949500D01*
X248250Y915500D02*
Y949500D01*
X231750Y915500D02*
X248250D01*
X231750Y949500D02*
X248250D01*
X261750Y915500D02*
Y949500D01*
X278250Y915500D02*
Y949500D01*
X261750Y915500D02*
X278250D01*
X261750Y949500D02*
X278250D01*
X291750Y915500D02*
Y949500D01*
X308250Y915500D02*
Y949500D01*
X291750Y915500D02*
X308250D01*
X291750Y949500D02*
X308250D01*
X291750Y975500D02*
Y1009500D01*
X308250Y975500D02*
Y1009500D01*
X291750Y975500D02*
X308250D01*
X291750Y1009500D02*
X308250D01*
X231750Y975500D02*
Y1009500D01*
X248250Y975500D02*
Y1009500D01*
X231750Y975500D02*
X248250D01*
X231750Y1009500D02*
X248250D01*
X261750Y975500D02*
Y1009500D01*
X278250Y975500D02*
Y1009500D01*
X261750Y975500D02*
X278250D01*
X261750Y1009500D02*
X278250D01*
X383537Y756307D02*
Y772807D01*
X417537Y756307D02*
Y772807D01*
X383537D02*
X417537D01*
X383537Y756307D02*
X417537D01*
X383000Y1041750D02*
Y1058250D01*
X417000Y1041750D02*
Y1058250D01*
X383000D02*
X417000D01*
X383000Y1041750D02*
X417000D01*
X2630000Y764500D02*
X2650000D01*
X2630000Y720500D02*
X2650000D01*
Y764500D01*
X2630000Y720500D02*
Y764500D01*
X2677000Y802500D02*
Y822500D01*
X2633000Y802500D02*
Y822500D01*
Y802500D02*
X2677000D01*
X2633000Y822500D02*
X2677000D01*
X2616750Y568000D02*
Y602000D01*
X2633250Y568000D02*
Y602000D01*
X2616750Y568000D02*
X2633250D01*
X2616750Y602000D02*
X2633250D01*
X2619500Y365500D02*
X2681000D01*
Y394500D01*
X2619500D02*
X2681000D01*
X2619500Y365500D02*
Y394500D01*
X2658000Y365500D02*
Y394500D01*
X2619500Y1025500D02*
X2681000D01*
Y1054500D01*
X2619500D02*
X2681000D01*
X2619500Y1025500D02*
Y1054500D01*
X2658000Y1025500D02*
Y1054500D01*
X2642000Y510000D02*
Y518000D01*
X2632000Y510000D02*
X2642000D01*
Y532000D02*
Y540000D01*
X2632000D02*
X2642000D01*
X2667000Y902000D02*
X2675000D01*
Y892000D02*
Y902000D01*
X2645000D02*
X2653000D01*
X2645000Y892000D02*
Y902000D01*
X2540000Y764500D02*
X2560000D01*
X2540000Y720500D02*
X2560000D01*
Y764500D01*
X2540000Y720500D02*
Y764500D01*
X2587000Y802500D02*
Y822500D01*
X2543000Y802500D02*
Y822500D01*
Y802500D02*
X2587000D01*
X2543000Y822500D02*
X2587000D01*
X2526750Y568000D02*
Y602000D01*
X2543250Y568000D02*
Y602000D01*
X2526750Y568000D02*
X2543250D01*
X2526750Y602000D02*
X2543250D01*
X2529500Y365500D02*
X2591000D01*
Y394500D01*
X2529500D02*
X2591000D01*
X2529500Y365500D02*
Y394500D01*
X2568000Y365500D02*
Y394500D01*
X2529500Y1025500D02*
X2591000D01*
Y1054500D01*
X2529500D02*
X2591000D01*
X2529500Y1025500D02*
Y1054500D01*
X2568000Y1025500D02*
Y1054500D01*
X2552000Y510000D02*
Y518000D01*
X2542000Y510000D02*
X2552000D01*
Y532000D02*
Y540000D01*
X2542000D02*
X2552000D01*
X2577000Y902000D02*
X2585000D01*
Y892000D02*
Y902000D01*
X2555000D02*
X2563000D01*
X2555000Y892000D02*
Y902000D01*
X2450000Y764500D02*
X2470000D01*
X2450000Y720500D02*
X2470000D01*
Y764500D01*
X2450000Y720500D02*
Y764500D01*
X2497000Y802500D02*
Y822500D01*
X2453000Y802500D02*
Y822500D01*
Y802500D02*
X2497000D01*
X2453000Y822500D02*
X2497000D01*
X2436750Y568000D02*
Y602000D01*
X2453250Y568000D02*
Y602000D01*
X2436750Y568000D02*
X2453250D01*
X2436750Y602000D02*
X2453250D01*
X2439500Y365500D02*
X2501000D01*
Y394500D01*
X2439500D02*
X2501000D01*
X2439500Y365500D02*
Y394500D01*
X2478000Y365500D02*
Y394500D01*
X2439500Y1025500D02*
X2501000D01*
Y1054500D01*
X2439500D02*
X2501000D01*
X2439500Y1025500D02*
Y1054500D01*
X2478000Y1025500D02*
Y1054500D01*
X2462000Y510000D02*
Y518000D01*
X2452000Y510000D02*
X2462000D01*
Y532000D02*
Y540000D01*
X2452000D02*
X2462000D01*
X2487000Y902000D02*
X2495000D01*
Y892000D02*
Y902000D01*
X2465000D02*
X2473000D01*
X2465000Y892000D02*
Y902000D01*
X2360000Y764500D02*
X2380000D01*
X2360000Y720500D02*
X2380000D01*
Y764500D01*
X2360000Y720500D02*
Y764500D01*
X2407000Y802500D02*
Y822500D01*
X2363000Y802500D02*
Y822500D01*
Y802500D02*
X2407000D01*
X2363000Y822500D02*
X2407000D01*
X2346750Y568000D02*
Y602000D01*
X2363250Y568000D02*
Y602000D01*
X2346750Y568000D02*
X2363250D01*
X2346750Y602000D02*
X2363250D01*
X2349500Y365500D02*
X2411000D01*
Y394500D01*
X2349500D02*
X2411000D01*
X2349500Y365500D02*
Y394500D01*
X2388000Y365500D02*
Y394500D01*
X2349500Y1025500D02*
X2411000D01*
Y1054500D01*
X2349500D02*
X2411000D01*
X2349500Y1025500D02*
Y1054500D01*
X2388000Y1025500D02*
Y1054500D01*
X2372000Y510000D02*
Y518000D01*
X2362000Y510000D02*
X2372000D01*
Y532000D02*
Y540000D01*
X2362000D02*
X2372000D01*
X2397000Y902000D02*
X2405000D01*
Y892000D02*
Y902000D01*
X2375000D02*
X2383000D01*
X2375000Y892000D02*
Y902000D01*
X2270000Y764500D02*
X2290000D01*
X2270000Y720500D02*
X2290000D01*
Y764500D01*
X2270000Y720500D02*
Y764500D01*
X2317000Y802500D02*
Y822500D01*
X2273000Y802500D02*
Y822500D01*
Y802500D02*
X2317000D01*
X2273000Y822500D02*
X2317000D01*
X2256750Y568000D02*
Y602000D01*
X2273250Y568000D02*
Y602000D01*
X2256750Y568000D02*
X2273250D01*
X2256750Y602000D02*
X2273250D01*
X2259500Y1025500D02*
X2321000D01*
Y1054500D01*
X2259500D02*
X2321000D01*
X2259500Y1025500D02*
Y1054500D01*
X2298000Y1025500D02*
Y1054500D01*
X2282000Y510000D02*
Y518000D01*
X2272000Y510000D02*
X2282000D01*
Y532000D02*
Y540000D01*
X2272000D02*
X2282000D01*
X2307000Y902000D02*
X2315000D01*
Y892000D02*
Y902000D01*
X2285000D02*
X2293000D01*
X2285000Y892000D02*
Y902000D01*
X2180000Y764500D02*
X2200000D01*
X2180000Y720500D02*
X2200000D01*
Y764500D01*
X2180000Y720500D02*
Y764500D01*
X2227000Y802500D02*
Y822500D01*
X2183000Y802500D02*
Y822500D01*
Y802500D02*
X2227000D01*
X2183000Y822500D02*
X2227000D01*
X2166750Y568000D02*
Y602000D01*
X2183250Y568000D02*
Y602000D01*
X2166750Y568000D02*
X2183250D01*
X2166750Y602000D02*
X2183250D01*
X2169500Y1025500D02*
X2231000D01*
Y1054500D01*
X2169500D02*
X2231000D01*
X2169500Y1025500D02*
Y1054500D01*
X2208000Y1025500D02*
Y1054500D01*
X2192000Y510000D02*
Y518000D01*
X2182000Y510000D02*
X2192000D01*
Y532000D02*
Y540000D01*
X2182000D02*
X2192000D01*
X2217000Y902000D02*
X2225000D01*
Y892000D02*
Y902000D01*
X2195000D02*
X2203000D01*
X2195000Y892000D02*
Y902000D01*
X2090000Y764500D02*
X2110000D01*
X2090000Y720500D02*
X2110000D01*
Y764500D01*
X2090000Y720500D02*
Y764500D01*
X2137000Y802500D02*
Y822500D01*
X2093000Y802500D02*
Y822500D01*
Y802500D02*
X2137000D01*
X2093000Y822500D02*
X2137000D01*
X2076750Y568000D02*
Y602000D01*
X2093250Y568000D02*
Y602000D01*
X2076750Y568000D02*
X2093250D01*
X2076750Y602000D02*
X2093250D01*
X2079500Y365500D02*
X2141000D01*
Y394500D01*
X2079500D02*
X2141000D01*
X2079500Y365500D02*
Y394500D01*
X2118000Y365500D02*
Y394500D01*
X2079500Y1025500D02*
X2141000D01*
Y1054500D01*
X2079500D02*
X2141000D01*
X2079500Y1025500D02*
Y1054500D01*
X2118000Y1025500D02*
Y1054500D01*
X2102000Y510000D02*
Y518000D01*
X2092000Y510000D02*
X2102000D01*
Y532000D02*
Y540000D01*
X2092000D02*
X2102000D01*
X2127000Y902000D02*
X2135000D01*
Y892000D02*
Y902000D01*
X2105000D02*
X2113000D01*
X2105000Y892000D02*
Y902000D01*
X2000206Y764500D02*
X2020206D01*
X2000206Y720500D02*
X2020206D01*
Y764500D01*
X2000206Y720500D02*
Y764500D01*
X2047000Y802500D02*
Y822500D01*
X2003000Y802500D02*
Y822500D01*
Y802500D02*
X2047000D01*
X2003000Y822500D02*
X2047000D01*
X1986750Y568000D02*
Y602000D01*
X2003250Y568000D02*
Y602000D01*
X1986750Y568000D02*
X2003250D01*
X1986750Y602000D02*
X2003250D01*
X1989500Y445500D02*
X2051000D01*
Y474500D01*
X1989500D02*
X2051000D01*
X1989500Y445500D02*
Y474500D01*
X2028000Y445500D02*
Y474500D01*
X1989500Y965500D02*
X2051000D01*
Y994500D01*
X1989500D02*
X2051000D01*
X1989500Y965500D02*
Y994500D01*
X2028000Y965500D02*
Y994500D01*
X2012000Y510000D02*
Y518000D01*
X2002000Y510000D02*
X2012000D01*
Y532000D02*
Y540000D01*
X2002000D02*
X2012000D01*
X2037000Y902000D02*
X2045000D01*
Y892000D02*
Y902000D01*
X2015000D02*
X2023000D01*
X2015000Y892000D02*
Y902000D01*
X1910206Y764500D02*
X1930206D01*
X1910206Y720500D02*
X1930206D01*
Y764500D01*
X1910206Y720500D02*
Y764500D01*
X1957000Y802500D02*
Y822500D01*
X1913000Y802500D02*
Y822500D01*
Y802500D02*
X1957000D01*
X1913000Y822500D02*
X1957000D01*
X1896750Y568000D02*
Y602000D01*
X1913250Y568000D02*
Y602000D01*
X1896750Y568000D02*
X1913250D01*
X1896750Y602000D02*
X1913250D01*
X1899500Y445500D02*
X1961000D01*
Y474500D01*
X1899500D02*
X1961000D01*
X1899500Y445500D02*
Y474500D01*
X1938000Y445500D02*
Y474500D01*
X1899500Y965500D02*
X1961000D01*
Y994500D01*
X1899500D02*
X1961000D01*
X1899500Y965500D02*
Y994500D01*
X1938000Y965500D02*
Y994500D01*
X1922000Y510000D02*
Y518000D01*
X1912000Y510000D02*
X1922000D01*
Y532000D02*
Y540000D01*
X1912000D02*
X1922000D01*
X1947000Y902000D02*
X1955000D01*
Y892000D02*
Y902000D01*
X1925000D02*
X1933000D01*
X1925000Y892000D02*
Y902000D01*
X1820000Y764500D02*
X1840000D01*
X1820000Y720500D02*
X1840000D01*
Y764500D01*
X1820000Y720500D02*
Y764500D01*
X1867000Y802500D02*
Y822500D01*
X1823000Y802500D02*
Y822500D01*
Y802500D02*
X1867000D01*
X1823000Y822500D02*
X1867000D01*
X1806750Y568000D02*
Y602000D01*
X1823250Y568000D02*
Y602000D01*
X1806750Y568000D02*
X1823250D01*
X1806750Y602000D02*
X1823250D01*
X1809500Y365500D02*
X1871000D01*
Y394500D01*
X1809500D02*
X1871000D01*
X1809500Y365500D02*
Y394500D01*
X1848000Y365500D02*
Y394500D01*
X1809500Y1025500D02*
X1871000D01*
Y1054500D01*
X1809500D02*
X1871000D01*
X1809500Y1025500D02*
Y1054500D01*
X1848000Y1025500D02*
Y1054500D01*
X1832000Y510000D02*
Y518000D01*
X1822000Y510000D02*
X1832000D01*
Y532000D02*
Y540000D01*
X1822000D02*
X1832000D01*
X1857000Y902000D02*
X1865000D01*
Y892000D02*
Y902000D01*
X1835000D02*
X1843000D01*
X1835000Y892000D02*
Y902000D01*
X1730000Y764500D02*
X1750000D01*
X1730000Y720500D02*
X1750000D01*
Y764500D01*
X1730000Y720500D02*
Y764500D01*
X1777000Y802500D02*
Y822500D01*
X1733000Y802500D02*
Y822500D01*
Y802500D02*
X1777000D01*
X1733000Y822500D02*
X1777000D01*
X1716750Y568000D02*
Y602000D01*
X1733250Y568000D02*
Y602000D01*
X1716750Y568000D02*
X1733250D01*
X1716750Y602000D02*
X1733250D01*
X1719500Y365500D02*
X1781000D01*
Y394500D01*
X1719500D02*
X1781000D01*
X1719500Y365500D02*
Y394500D01*
X1758000Y365500D02*
Y394500D01*
X1719500Y1025500D02*
X1781000D01*
Y1054500D01*
X1719500D02*
X1781000D01*
X1719500Y1025500D02*
Y1054500D01*
X1758000Y1025500D02*
Y1054500D01*
X1742000Y510000D02*
Y518000D01*
X1732000Y510000D02*
X1742000D01*
Y532000D02*
Y540000D01*
X1732000D02*
X1742000D01*
X1767000Y902000D02*
X1775000D01*
Y892000D02*
Y902000D01*
X1745000D02*
X1753000D01*
X1745000Y892000D02*
Y902000D01*
X1640000Y764500D02*
X1660000D01*
X1640000Y720500D02*
X1660000D01*
Y764500D01*
X1640000Y720500D02*
Y764500D01*
X1687000Y802500D02*
Y822500D01*
X1643000Y802500D02*
Y822500D01*
Y802500D02*
X1687000D01*
X1643000Y822500D02*
X1687000D01*
X1626750Y568000D02*
Y602000D01*
X1643250Y568000D02*
Y602000D01*
X1626750Y568000D02*
X1643250D01*
X1626750Y602000D02*
X1643250D01*
X1629500Y365500D02*
X1691000D01*
Y394500D01*
X1629500D02*
X1691000D01*
X1629500Y365500D02*
Y394500D01*
X1668000Y365500D02*
Y394500D01*
X1629500Y1025500D02*
X1691000D01*
Y1054500D01*
X1629500D02*
X1691000D01*
X1629500Y1025500D02*
Y1054500D01*
X1668000Y1025500D02*
Y1054500D01*
X1652000Y510000D02*
Y518000D01*
X1642000Y510000D02*
X1652000D01*
Y532000D02*
Y540000D01*
X1642000D02*
X1652000D01*
X1677000Y902000D02*
X1685000D01*
Y892000D02*
Y902000D01*
X1655000D02*
X1663000D01*
X1655000Y892000D02*
Y902000D01*
X1550000Y764500D02*
X1570000D01*
X1550000Y720500D02*
X1570000D01*
Y764500D01*
X1550000Y720500D02*
Y764500D01*
X1597000Y802500D02*
Y822500D01*
X1553000Y802500D02*
Y822500D01*
Y802500D02*
X1597000D01*
X1553000Y822500D02*
X1597000D01*
X1536750Y568000D02*
Y602000D01*
X1553250Y568000D02*
Y602000D01*
X1536750Y568000D02*
X1553250D01*
X1536750Y602000D02*
X1553250D01*
X1539500Y365500D02*
X1601000D01*
Y394500D01*
X1539500D02*
X1601000D01*
X1539500Y365500D02*
Y394500D01*
X1578000Y365500D02*
Y394500D01*
X1539500Y1025500D02*
X1601000D01*
Y1054500D01*
X1539500D02*
X1601000D01*
X1539500Y1025500D02*
Y1054500D01*
X1578000Y1025500D02*
Y1054500D01*
X1562000Y510000D02*
Y518000D01*
X1552000Y510000D02*
X1562000D01*
Y532000D02*
Y540000D01*
X1552000D02*
X1562000D01*
X1587000Y902000D02*
X1595000D01*
Y892000D02*
Y902000D01*
X1565000D02*
X1573000D01*
X1565000Y892000D02*
Y902000D01*
X1460000Y764500D02*
X1480000D01*
X1460000Y720500D02*
X1480000D01*
Y764500D01*
X1460000Y720500D02*
Y764500D01*
X1507000Y802500D02*
Y822500D01*
X1463000Y802500D02*
Y822500D01*
Y802500D02*
X1507000D01*
X1463000Y822500D02*
X1507000D01*
X1446750Y568000D02*
Y602000D01*
X1463250Y568000D02*
Y602000D01*
X1446750Y568000D02*
X1463250D01*
X1446750Y602000D02*
X1463250D01*
X1449500Y365500D02*
X1511000D01*
Y394500D01*
X1449500D02*
X1511000D01*
X1449500Y365500D02*
Y394500D01*
X1488000Y365500D02*
Y394500D01*
X1449500Y1025500D02*
X1511000D01*
Y1054500D01*
X1449500D02*
X1511000D01*
X1449500Y1025500D02*
Y1054500D01*
X1488000Y1025500D02*
Y1054500D01*
X1472000Y510000D02*
Y518000D01*
X1462000Y510000D02*
X1472000D01*
Y532000D02*
Y540000D01*
X1462000D02*
X1472000D01*
X1497000Y902000D02*
X1505000D01*
Y892000D02*
Y902000D01*
X1475000D02*
X1483000D01*
X1475000Y892000D02*
Y902000D01*
X1370000Y764500D02*
X1390000D01*
X1370000Y720500D02*
X1390000D01*
Y764500D01*
X1370000Y720500D02*
Y764500D01*
X1417000Y802500D02*
Y822500D01*
X1373000Y802500D02*
Y822500D01*
Y802500D02*
X1417000D01*
X1373000Y822500D02*
X1417000D01*
X1356750Y568000D02*
Y602000D01*
X1373250Y568000D02*
Y602000D01*
X1356750Y568000D02*
X1373250D01*
X1356750Y602000D02*
X1373250D01*
X1359500Y365500D02*
X1421000D01*
Y394500D01*
X1359500D02*
X1421000D01*
X1359500Y365500D02*
Y394500D01*
X1398000Y365500D02*
Y394500D01*
X1359500Y1025500D02*
X1421000D01*
Y1054500D01*
X1359500D02*
X1421000D01*
X1359500Y1025500D02*
Y1054500D01*
X1398000Y1025500D02*
Y1054500D01*
X1382000Y510000D02*
Y518000D01*
X1372000Y510000D02*
X1382000D01*
Y532000D02*
Y540000D01*
X1372000D02*
X1382000D01*
X1407000Y902000D02*
X1415000D01*
Y892000D02*
Y902000D01*
X1385000D02*
X1393000D01*
X1385000Y892000D02*
Y902000D01*
X1280000Y764500D02*
X1300000D01*
X1280000Y720500D02*
X1300000D01*
Y764500D01*
X1280000Y720500D02*
Y764500D01*
X1327000Y802500D02*
Y822500D01*
X1283000Y802500D02*
Y822500D01*
Y802500D02*
X1327000D01*
X1283000Y822500D02*
X1327000D01*
X1266750Y568000D02*
Y602000D01*
X1283250Y568000D02*
Y602000D01*
X1266750Y568000D02*
X1283250D01*
X1266750Y602000D02*
X1283250D01*
X1269500Y365500D02*
X1331000D01*
Y394500D01*
X1269500D02*
X1331000D01*
X1269500Y365500D02*
Y394500D01*
X1308000Y365500D02*
Y394500D01*
X1269500Y1025500D02*
X1331000D01*
Y1054500D01*
X1269500D02*
X1331000D01*
X1269500Y1025500D02*
Y1054500D01*
X1308000Y1025500D02*
Y1054500D01*
X1292000Y510000D02*
Y518000D01*
X1282000Y510000D02*
X1292000D01*
Y532000D02*
Y540000D01*
X1282000D02*
X1292000D01*
X1317000Y902000D02*
X1325000D01*
Y892000D02*
Y902000D01*
X1295000D02*
X1303000D01*
X1295000Y892000D02*
Y902000D01*
X1190000Y764500D02*
X1210000D01*
X1190000Y720500D02*
X1210000D01*
Y764500D01*
X1190000Y720500D02*
Y764500D01*
X1237000Y802500D02*
Y822500D01*
X1193000Y802500D02*
Y822500D01*
Y802500D02*
X1237000D01*
X1193000Y822500D02*
X1237000D01*
X1176750Y568000D02*
Y602000D01*
X1193250Y568000D02*
Y602000D01*
X1176750Y568000D02*
X1193250D01*
X1176750Y602000D02*
X1193250D01*
X1179500Y365500D02*
X1241000D01*
Y394500D01*
X1179500D02*
X1241000D01*
X1179500Y365500D02*
Y394500D01*
X1218000Y365500D02*
Y394500D01*
X1179500Y1025500D02*
X1241000D01*
Y1054500D01*
X1179500D02*
X1241000D01*
X1179500Y1025500D02*
Y1054500D01*
X1218000Y1025500D02*
Y1054500D01*
X1202000Y510000D02*
Y518000D01*
X1192000Y510000D02*
X1202000D01*
Y532000D02*
Y540000D01*
X1192000D02*
X1202000D01*
X1227000Y902000D02*
X1235000D01*
Y892000D02*
Y902000D01*
X1205000D02*
X1213000D01*
X1205000Y892000D02*
Y902000D01*
X1100000Y764500D02*
X1120000D01*
X1100000Y720500D02*
X1120000D01*
Y764500D01*
X1100000Y720500D02*
Y764500D01*
X1147000Y802500D02*
Y822500D01*
X1103000Y802500D02*
Y822500D01*
Y802500D02*
X1147000D01*
X1103000Y822500D02*
X1147000D01*
X1086750Y568000D02*
Y602000D01*
X1103250Y568000D02*
Y602000D01*
X1086750Y568000D02*
X1103250D01*
X1086750Y602000D02*
X1103250D01*
X1089500Y365500D02*
X1151000D01*
Y394500D01*
X1089500D02*
X1151000D01*
X1089500Y365500D02*
Y394500D01*
X1128000Y365500D02*
Y394500D01*
X1089500Y1025500D02*
X1151000D01*
Y1054500D01*
X1089500D02*
X1151000D01*
X1089500Y1025500D02*
Y1054500D01*
X1128000Y1025500D02*
Y1054500D01*
X1112000Y510000D02*
Y518000D01*
X1102000Y510000D02*
X1112000D01*
Y532000D02*
Y540000D01*
X1102000D02*
X1112000D01*
X1137000Y902000D02*
X1145000D01*
Y892000D02*
Y902000D01*
X1115000D02*
X1123000D01*
X1115000Y892000D02*
Y902000D01*
X1009951Y764500D02*
X1029951D01*
X1009951Y720500D02*
X1029951D01*
Y764500D01*
X1009951Y720500D02*
Y764500D01*
X1057000Y802500D02*
Y822500D01*
X1013000Y802500D02*
Y822500D01*
Y802500D02*
X1057000D01*
X1013000Y822500D02*
X1057000D01*
X996750Y568000D02*
Y602000D01*
X1013250Y568000D02*
Y602000D01*
X996750Y568000D02*
X1013250D01*
X996750Y602000D02*
X1013250D01*
X999500Y445500D02*
X1061000D01*
Y474500D01*
X999500D02*
X1061000D01*
X999500Y445500D02*
Y474500D01*
X1038000Y445500D02*
Y474500D01*
X1022000Y510000D02*
Y518000D01*
X1012000Y510000D02*
X1022000D01*
Y532000D02*
Y540000D01*
X1012000D02*
X1022000D01*
X1047000Y902000D02*
X1055000D01*
Y892000D02*
Y902000D01*
X1025000D02*
X1033000D01*
X1025000Y892000D02*
Y902000D01*
X819850Y1025250D02*
X881350D01*
Y1054250D01*
X819850D02*
X881350D01*
X819850Y1025250D02*
Y1054250D01*
X858350Y1025250D02*
Y1054250D01*
X729500Y1025500D02*
X791000D01*
Y1054500D01*
X729500D02*
X791000D01*
X729500Y1025500D02*
Y1054500D01*
X768000Y1025500D02*
Y1054500D01*
X639500Y1025500D02*
X701000D01*
Y1054500D01*
X639500D02*
X701000D01*
X639500Y1025500D02*
Y1054500D01*
X678000Y1025500D02*
Y1054500D01*
X549500Y1025500D02*
X611000D01*
Y1054500D01*
X549500D02*
X611000D01*
X549500Y1025500D02*
Y1054500D01*
X588000Y1025500D02*
Y1054500D01*
X919340Y764500D02*
X939340D01*
X919340Y720500D02*
X939340D01*
Y764500D01*
X919340Y720500D02*
Y764500D01*
X967000Y802500D02*
Y822500D01*
X923000Y802500D02*
Y822500D01*
Y802500D02*
X967000D01*
X923000Y822500D02*
X967000D01*
X906750Y568000D02*
Y602000D01*
X923250Y568000D02*
Y602000D01*
X906750Y568000D02*
X923250D01*
X906750Y602000D02*
X923250D01*
X909500Y445500D02*
X971000D01*
Y474500D01*
X909500D02*
X971000D01*
X909500Y445500D02*
Y474500D01*
X948000Y445500D02*
Y474500D01*
X932000Y510000D02*
Y518000D01*
X922000Y510000D02*
X932000D01*
Y532000D02*
Y540000D01*
X922000D02*
X932000D01*
X957000Y902000D02*
X965000D01*
Y892000D02*
Y902000D01*
X935000D02*
X943000D01*
X935000Y892000D02*
Y902000D01*
X830350Y764250D02*
X850350D01*
X830350Y720250D02*
X850350D01*
Y764250D01*
X830350Y720250D02*
Y764250D01*
X877350Y802250D02*
Y822250D01*
X833350Y802250D02*
Y822250D01*
Y802250D02*
X877350D01*
X833350Y822250D02*
X877350D01*
X817100Y567750D02*
Y601750D01*
X833600Y567750D02*
Y601750D01*
X817100Y567750D02*
X833600D01*
X817100Y601750D02*
X833600D01*
X819850Y365250D02*
X881350D01*
Y394250D01*
X819850D02*
X881350D01*
X819850Y365250D02*
Y394250D01*
X858350Y365250D02*
Y394250D01*
X842350Y509750D02*
Y517750D01*
X832350Y509750D02*
X842350D01*
Y531750D02*
Y539750D01*
X832350D02*
X842350D01*
X867350Y901750D02*
X875350D01*
Y891750D02*
Y901750D01*
X845350D02*
X853350D01*
X845350Y891750D02*
Y901750D01*
X740000Y764500D02*
X760000D01*
X740000Y720500D02*
X760000D01*
Y764500D01*
X740000Y720500D02*
Y764500D01*
X787000Y802500D02*
Y822500D01*
X743000Y802500D02*
Y822500D01*
Y802500D02*
X787000D01*
X743000Y822500D02*
X787000D01*
X726750Y568000D02*
Y602000D01*
X743250Y568000D02*
Y602000D01*
X726750Y568000D02*
X743250D01*
X726750Y602000D02*
X743250D01*
X729500Y365500D02*
X791000D01*
Y394500D01*
X729500D02*
X791000D01*
X729500Y365500D02*
Y394500D01*
X768000Y365500D02*
Y394500D01*
X752000Y510000D02*
Y518000D01*
X742000Y510000D02*
X752000D01*
Y532000D02*
Y540000D01*
X742000D02*
X752000D01*
X777000Y902000D02*
X785000D01*
Y892000D02*
Y902000D01*
X755000D02*
X763000D01*
X755000Y892000D02*
Y902000D01*
X650000Y764500D02*
X670000D01*
X650000Y720500D02*
X670000D01*
Y764500D01*
X650000Y720500D02*
Y764500D01*
X697000Y802500D02*
Y822500D01*
X653000Y802500D02*
Y822500D01*
Y802500D02*
X697000D01*
X653000Y822500D02*
X697000D01*
X636750Y568000D02*
Y602000D01*
X653250Y568000D02*
Y602000D01*
X636750Y568000D02*
X653250D01*
X636750Y602000D02*
X653250D01*
X639500Y365500D02*
X701000D01*
Y394500D01*
X639500D02*
X701000D01*
X639500Y365500D02*
Y394500D01*
X678000Y365500D02*
Y394500D01*
X662000Y510000D02*
Y518000D01*
X652000Y510000D02*
X662000D01*
Y532000D02*
Y540000D01*
X652000D02*
X662000D01*
X687000Y902000D02*
X695000D01*
Y892000D02*
Y902000D01*
X665000D02*
X673000D01*
X665000Y892000D02*
Y902000D01*
X597000D02*
X605000D01*
Y892000D02*
Y902000D01*
X575000D02*
X583000D01*
X575000Y892000D02*
Y902000D01*
X572000Y510000D02*
Y518000D01*
X562000Y510000D02*
X572000D01*
Y532000D02*
Y540000D01*
X562000D02*
X572000D01*
X549500Y365500D02*
X611000D01*
Y394500D01*
X549500D02*
X611000D01*
X549500Y365500D02*
Y394500D01*
X588000Y365500D02*
Y394500D01*
X546750Y568000D02*
Y602000D01*
X563250Y568000D02*
Y602000D01*
X546750Y568000D02*
X563250D01*
X546750Y602000D02*
X563250D01*
X607000Y802500D02*
Y822500D01*
X563000Y802500D02*
Y822500D01*
Y802500D02*
X607000D01*
X563000Y822500D02*
X607000D01*
X407651Y522651D02*
X412349D01*
X382397D02*
X387095D01*
X344250Y543000D02*
Y577000D01*
X360750Y543000D02*
Y577000D01*
X344250Y543000D02*
X360750D01*
X344250Y577000D02*
X360750D01*
X519370Y931592D02*
Y999592D01*
X340370Y931592D02*
X519370D01*
X340370D02*
Y999592D01*
X519370D01*
X233000Y458250D02*
X267000D01*
X233000Y441750D02*
X267000D01*
X233000D02*
Y458250D01*
X267000Y441750D02*
Y458250D01*
X303000Y441750D02*
X337000D01*
X303000Y458250D02*
X337000D01*
Y441750D02*
Y458250D01*
X303000Y441750D02*
Y458250D01*
X497000Y526750D02*
Y543250D01*
X463000Y526750D02*
Y543250D01*
Y526750D02*
X497000D01*
X463000Y543250D02*
X497000D01*
X297272Y537469D02*
X299272Y539468D01*
X303270D01*
X305270Y537469D01*
Y529472D01*
X303270Y527472D01*
X299272D01*
X297272Y529472D01*
Y537469D01*
X267272D02*
X269272Y539468D01*
X273270D01*
X275270Y537469D01*
Y529472D01*
X273270Y527472D01*
X269272D01*
X267272Y529472D01*
Y537469D01*
X237272D02*
X239272Y539468D01*
X243270D01*
X245270Y537469D01*
Y529472D01*
X243270Y527472D01*
X239272D01*
X237272Y529472D01*
Y537469D01*
X239800Y552536D02*
X243798D01*
X241799D01*
Y564532D01*
X239800Y562532D01*
X269800Y552536D02*
X273798D01*
X271799D01*
Y564532D01*
X269800Y562532D01*
X299800Y552536D02*
X303798D01*
X301799D01*
Y564532D01*
X299800Y562532D01*
X291821Y577566D02*
Y585564D01*
X295820Y589562D01*
X299819Y585564D01*
Y577566D01*
Y583564D01*
X291821D01*
X311815Y577566D02*
X303818D01*
X311815Y585564D01*
Y587563D01*
X309816Y589562D01*
X305817D01*
X303818Y587563D01*
X231821Y577566D02*
Y585564D01*
X235820Y589562D01*
X239819Y585564D01*
Y577566D01*
Y583564D01*
X231821D01*
X243818Y587563D02*
X245817Y589562D01*
X249816D01*
X251815Y587563D01*
Y579566D01*
X249816Y577566D01*
X245817D01*
X243818Y579566D01*
Y587563D01*
X262500Y577500D02*
Y585497D01*
X266499Y589496D01*
X270497Y585497D01*
Y577500D01*
Y583498D01*
X262500D01*
X274496Y577500D02*
X278495D01*
X276495D01*
Y589496D01*
X274496Y587497D01*
X2787498Y674511D02*
X2775502D01*
Y680509D01*
X2777502Y682508D01*
X2781500D01*
X2783500Y680509D01*
Y674511D01*
Y678509D02*
X2787498Y682508D01*
Y686507D02*
Y690506D01*
Y688506D01*
X2775502D01*
X2777502Y686507D01*
X2785499Y696504D02*
X2787498Y698503D01*
Y702502D01*
X2785499Y704501D01*
X2777502D01*
X2775502Y702502D01*
Y698503D01*
X2777502Y696504D01*
X2779501D01*
X2781500Y698503D01*
Y704501D01*
X2789498Y708500D02*
Y716497D01*
X2787498Y728493D02*
Y720496D01*
X2779501Y728493D01*
X2777502D01*
X2775502Y726494D01*
Y722495D01*
X2777502Y720496D01*
X2775502Y740489D02*
Y732492D01*
X2781500D01*
X2779501Y736491D01*
Y738490D01*
X2781500Y740489D01*
X2785499D01*
X2787498Y738490D01*
Y734491D01*
X2785499Y732492D01*
X2697498Y674511D02*
X2685502D01*
Y680509D01*
X2687502Y682508D01*
X2691500D01*
X2693500Y680509D01*
Y674511D01*
Y678509D02*
X2697498Y682508D01*
Y686507D02*
Y690506D01*
Y688506D01*
X2685502D01*
X2687502Y686507D01*
X2695499Y696504D02*
X2697498Y698503D01*
Y702502D01*
X2695499Y704501D01*
X2687502D01*
X2685502Y702502D01*
Y698503D01*
X2687502Y696504D01*
X2689501D01*
X2691500Y698503D01*
Y704501D01*
X2699498Y708500D02*
Y716497D01*
X2697498Y728493D02*
Y720496D01*
X2689501Y728493D01*
X2687502D01*
X2685502Y726494D01*
Y722495D01*
X2687502Y720496D01*
X2697498Y738490D02*
X2685502D01*
X2691500Y732492D01*
Y740489D01*
X2607498Y674511D02*
X2595502D01*
Y680509D01*
X2597502Y682508D01*
X2601500D01*
X2603500Y680509D01*
Y674511D01*
Y678509D02*
X2607498Y682508D01*
Y686507D02*
Y690506D01*
Y688506D01*
X2595502D01*
X2597502Y686507D01*
X2605499Y696504D02*
X2607498Y698503D01*
Y702502D01*
X2605499Y704501D01*
X2597502D01*
X2595502Y702502D01*
Y698503D01*
X2597502Y696504D01*
X2599501D01*
X2601500Y698503D01*
Y704501D01*
X2609498Y708500D02*
Y716497D01*
X2607498Y728493D02*
Y720496D01*
X2599501Y728493D01*
X2597502D01*
X2595502Y726494D01*
Y722495D01*
X2597502Y720496D01*
Y732492D02*
X2595502Y734491D01*
Y738490D01*
X2597502Y740489D01*
X2599501D01*
X2601500Y738490D01*
Y736491D01*
Y738490D01*
X2603500Y740489D01*
X2605499D01*
X2607498Y738490D01*
Y734491D01*
X2605499Y732492D01*
X2517498Y674511D02*
X2505502D01*
Y680509D01*
X2507502Y682508D01*
X2511500D01*
X2513500Y680509D01*
Y674511D01*
Y678509D02*
X2517498Y682508D01*
Y686507D02*
Y690506D01*
Y688506D01*
X2505502D01*
X2507502Y686507D01*
X2515499Y696504D02*
X2517498Y698503D01*
Y702502D01*
X2515499Y704501D01*
X2507502D01*
X2505502Y702502D01*
Y698503D01*
X2507502Y696504D01*
X2509501D01*
X2511500Y698503D01*
Y704501D01*
X2519498Y708500D02*
Y716497D01*
X2517498Y728493D02*
Y720496D01*
X2509501Y728493D01*
X2507502D01*
X2505502Y726494D01*
Y722495D01*
X2507502Y720496D01*
X2517498Y740489D02*
Y732492D01*
X2509501Y740489D01*
X2507502D01*
X2505502Y738490D01*
Y734491D01*
X2507502Y732492D01*
X2427498Y674010D02*
X2415502D01*
Y680008D01*
X2417502Y682008D01*
X2421500D01*
X2423500Y680008D01*
Y674010D01*
Y678009D02*
X2427498Y682008D01*
Y686006D02*
Y690005D01*
Y688006D01*
X2415502D01*
X2417502Y686006D01*
X2425499Y696003D02*
X2427498Y698002D01*
Y702001D01*
X2425499Y704000D01*
X2417502D01*
X2415502Y702001D01*
Y698002D01*
X2417502Y696003D01*
X2419501D01*
X2421500Y698002D01*
Y704000D01*
X2429498Y707999D02*
Y715996D01*
X2427498Y727993D02*
Y719995D01*
X2419501Y727993D01*
X2417502D01*
X2415502Y725993D01*
Y721994D01*
X2417502Y719995D01*
X2427498Y731991D02*
Y735990D01*
Y733991D01*
X2415502D01*
X2417502Y731991D01*
X2337498Y674511D02*
X2325502D01*
Y680509D01*
X2327502Y682508D01*
X2331500D01*
X2333500Y680509D01*
Y674511D01*
Y678509D02*
X2337498Y682508D01*
Y686507D02*
Y690506D01*
Y688506D01*
X2325502D01*
X2327502Y686507D01*
X2335499Y696504D02*
X2337498Y698503D01*
Y702502D01*
X2335499Y704501D01*
X2327502D01*
X2325502Y702502D01*
Y698503D01*
X2327502Y696504D01*
X2329501D01*
X2331500Y698503D01*
Y704501D01*
X2339498Y708500D02*
Y716497D01*
X2337498Y728493D02*
Y720496D01*
X2329501Y728493D01*
X2327502D01*
X2325502Y726494D01*
Y722495D01*
X2327502Y720496D01*
Y732492D02*
X2325502Y734491D01*
Y738490D01*
X2327502Y740489D01*
X2335499D01*
X2337498Y738490D01*
Y734491D01*
X2335499Y732492D01*
X2327502D01*
X2247498Y675510D02*
X2235502D01*
Y681508D01*
X2237502Y683508D01*
X2241500D01*
X2243500Y681508D01*
Y675510D01*
Y679509D02*
X2247498Y683508D01*
Y687506D02*
Y691505D01*
Y689506D01*
X2235502D01*
X2237502Y687506D01*
X2245499Y697503D02*
X2247498Y699503D01*
Y703501D01*
X2245499Y705501D01*
X2237502D01*
X2235502Y703501D01*
Y699503D01*
X2237502Y697503D01*
X2239501D01*
X2241500Y699503D01*
Y705501D01*
X2249498Y709499D02*
Y717497D01*
X2247498Y721496D02*
Y725494D01*
Y723495D01*
X2235502D01*
X2237502Y721496D01*
X2245499Y731492D02*
X2247498Y733492D01*
Y737490D01*
X2245499Y739490D01*
X2237502D01*
X2235502Y737490D01*
Y733492D01*
X2237502Y731492D01*
X2239501D01*
X2241500Y733492D01*
Y739490D01*
X2159998Y675510D02*
X2148002D01*
Y681508D01*
X2150002Y683508D01*
X2154000D01*
X2156000Y681508D01*
Y675510D01*
Y679509D02*
X2159998Y683508D01*
Y687506D02*
Y691505D01*
Y689506D01*
X2148002D01*
X2150002Y687506D01*
X2157999Y697503D02*
X2159998Y699503D01*
Y703501D01*
X2157999Y705501D01*
X2150002D01*
X2148002Y703501D01*
Y699503D01*
X2150002Y697503D01*
X2152001D01*
X2154000Y699503D01*
Y705501D01*
X2161998Y709499D02*
Y717497D01*
X2159998Y721496D02*
Y725494D01*
Y723495D01*
X2148002D01*
X2150002Y721496D01*
Y731492D02*
X2148002Y733492D01*
Y737490D01*
X2150002Y739490D01*
X2152001D01*
X2154000Y737490D01*
X2156000Y739490D01*
X2157999D01*
X2159998Y737490D01*
Y733492D01*
X2157999Y731492D01*
X2156000D01*
X2154000Y733492D01*
X2152001Y731492D01*
X2150002D01*
X2154000Y733492D02*
Y737490D01*
X2067498Y675510D02*
X2055502D01*
Y681508D01*
X2057502Y683508D01*
X2061500D01*
X2063500Y681508D01*
Y675510D01*
Y679509D02*
X2067498Y683508D01*
Y687506D02*
Y691505D01*
Y689506D01*
X2055502D01*
X2057502Y687506D01*
X2065499Y697503D02*
X2067498Y699503D01*
Y703501D01*
X2065499Y705501D01*
X2057502D01*
X2055502Y703501D01*
Y699503D01*
X2057502Y697503D01*
X2059501D01*
X2061500Y699503D01*
Y705501D01*
X2069498Y709499D02*
Y717497D01*
X2067498Y721496D02*
Y725494D01*
Y723495D01*
X2055502D01*
X2057502Y721496D01*
X2055502Y731492D02*
Y739490D01*
X2057502D01*
X2065499Y731492D01*
X2067498D01*
X1977498Y675510D02*
X1965502D01*
Y681508D01*
X1967502Y683508D01*
X1971500D01*
X1973500Y681508D01*
Y675510D01*
Y679509D02*
X1977498Y683508D01*
Y687506D02*
Y691505D01*
Y689506D01*
X1965502D01*
X1967502Y687506D01*
X1975499Y697503D02*
X1977498Y699503D01*
Y703501D01*
X1975499Y705501D01*
X1967502D01*
X1965502Y703501D01*
Y699503D01*
X1967502Y697503D01*
X1969501D01*
X1971500Y699503D01*
Y705501D01*
X1979498Y709499D02*
Y717497D01*
X1977498Y721496D02*
Y725494D01*
Y723495D01*
X1965502D01*
X1967502Y721496D01*
X1965502Y739490D02*
X1967502Y735491D01*
X1971500Y731492D01*
X1975499D01*
X1977498Y733492D01*
Y737490D01*
X1975499Y739490D01*
X1973500D01*
X1971500Y737490D01*
Y731492D01*
X1887498Y675510D02*
X1875502D01*
Y681508D01*
X1877502Y683508D01*
X1881500D01*
X1883500Y681508D01*
Y675510D01*
Y679509D02*
X1887498Y683508D01*
Y687506D02*
Y691505D01*
Y689506D01*
X1875502D01*
X1877502Y687506D01*
X1885499Y697503D02*
X1887498Y699503D01*
Y703501D01*
X1885499Y705501D01*
X1877502D01*
X1875502Y703501D01*
Y699503D01*
X1877502Y697503D01*
X1879501D01*
X1881500Y699503D01*
Y705501D01*
X1889498Y709499D02*
Y717497D01*
X1887498Y721496D02*
Y725494D01*
Y723495D01*
X1875502D01*
X1877502Y721496D01*
X1875502Y739490D02*
Y731492D01*
X1881500D01*
X1879501Y735491D01*
Y737490D01*
X1881500Y739490D01*
X1885499D01*
X1887498Y737490D01*
Y733492D01*
X1885499Y731492D01*
X1797498Y675510D02*
X1785502D01*
Y681508D01*
X1787502Y683508D01*
X1791500D01*
X1793500Y681508D01*
Y675510D01*
Y679509D02*
X1797498Y683508D01*
Y687506D02*
Y691505D01*
Y689506D01*
X1785502D01*
X1787502Y687506D01*
X1795499Y697503D02*
X1797498Y699503D01*
Y703501D01*
X1795499Y705501D01*
X1787502D01*
X1785502Y703501D01*
Y699503D01*
X1787502Y697503D01*
X1789501D01*
X1791500Y699503D01*
Y705501D01*
X1799498Y709499D02*
Y717497D01*
X1797498Y721496D02*
Y725494D01*
Y723495D01*
X1785502D01*
X1787502Y721496D01*
X1797498Y737490D02*
X1785502D01*
X1791500Y731492D01*
Y739490D01*
X1707498Y675510D02*
X1695502D01*
Y681508D01*
X1697502Y683508D01*
X1701500D01*
X1703500Y681508D01*
Y675510D01*
Y679509D02*
X1707498Y683508D01*
Y687506D02*
Y691505D01*
Y689506D01*
X1695502D01*
X1697502Y687506D01*
X1705499Y697503D02*
X1707498Y699503D01*
Y703501D01*
X1705499Y705501D01*
X1697502D01*
X1695502Y703501D01*
Y699503D01*
X1697502Y697503D01*
X1699501D01*
X1701500Y699503D01*
Y705501D01*
X1709498Y709499D02*
Y717497D01*
X1707498Y721496D02*
Y725494D01*
Y723495D01*
X1695502D01*
X1697502Y721496D01*
Y731492D02*
X1695502Y733492D01*
Y737490D01*
X1697502Y739490D01*
X1699501D01*
X1701500Y737490D01*
Y735491D01*
Y737490D01*
X1703500Y739490D01*
X1705499D01*
X1707498Y737490D01*
Y733492D01*
X1705499Y731492D01*
X1617498Y673010D02*
X1605502D01*
Y679008D01*
X1607502Y681008D01*
X1611500D01*
X1613500Y679008D01*
Y673010D01*
Y677009D02*
X1617498Y681008D01*
Y685006D02*
Y689005D01*
Y687006D01*
X1605502D01*
X1607502Y685006D01*
X1615499Y695003D02*
X1617498Y697003D01*
Y701001D01*
X1615499Y703001D01*
X1607502D01*
X1605502Y701001D01*
Y697003D01*
X1607502Y695003D01*
X1609501D01*
X1611500Y697003D01*
Y703001D01*
X1619498Y706999D02*
Y714997D01*
X1617498Y718996D02*
Y722994D01*
Y720995D01*
X1605502D01*
X1607502Y718996D01*
X1617498Y736990D02*
Y728992D01*
X1609501Y736990D01*
X1607502D01*
X1605502Y734990D01*
Y730992D01*
X1607502Y728992D01*
X1527498Y672510D02*
X1515502D01*
Y678508D01*
X1517502Y680507D01*
X1521500D01*
X1523500Y678508D01*
Y672510D01*
Y676508D02*
X1527498Y680507D01*
Y684506D02*
Y688504D01*
Y686505D01*
X1515502D01*
X1517502Y684506D01*
X1525499Y694503D02*
X1527498Y696502D01*
Y700501D01*
X1525499Y702500D01*
X1517502D01*
X1515502Y700501D01*
Y696502D01*
X1517502Y694503D01*
X1519501D01*
X1521500Y696502D01*
Y702500D01*
X1529498Y706499D02*
Y714496D01*
X1527498Y718495D02*
Y722494D01*
Y720494D01*
X1515502D01*
X1517502Y718495D01*
X1527498Y728492D02*
Y732490D01*
Y730491D01*
X1515502D01*
X1517502Y728492D01*
X1437498Y673010D02*
X1425502D01*
Y679008D01*
X1427502Y681008D01*
X1431500D01*
X1433500Y679008D01*
Y673010D01*
Y677009D02*
X1437498Y681008D01*
Y685006D02*
Y689005D01*
Y687006D01*
X1425502D01*
X1427502Y685006D01*
X1435499Y695003D02*
X1437498Y697003D01*
Y701001D01*
X1435499Y703001D01*
X1427502D01*
X1425502Y701001D01*
Y697003D01*
X1427502Y695003D01*
X1429501D01*
X1431500Y697003D01*
Y703001D01*
X1439498Y706999D02*
Y714997D01*
X1437498Y718996D02*
Y722994D01*
Y720995D01*
X1425502D01*
X1427502Y718996D01*
Y728992D02*
X1425502Y730992D01*
Y734990D01*
X1427502Y736990D01*
X1435499D01*
X1437498Y734990D01*
Y730992D01*
X1435499Y728992D01*
X1427502D01*
X1347498Y673009D02*
X1335502D01*
Y679007D01*
X1337502Y681006D01*
X1341500D01*
X1343500Y679007D01*
Y673009D01*
Y677007D02*
X1347498Y681006D01*
Y685005D02*
Y689004D01*
Y687004D01*
X1335502D01*
X1337502Y685005D01*
X1345499Y695002D02*
X1347498Y697001D01*
Y701000D01*
X1345499Y702999D01*
X1337502D01*
X1335502Y701000D01*
Y697001D01*
X1337502Y695002D01*
X1339501D01*
X1341500Y697001D01*
Y702999D01*
X1349498Y706998D02*
Y714995D01*
X1345499Y718994D02*
X1347498Y720993D01*
Y724992D01*
X1345499Y726991D01*
X1337502D01*
X1335502Y724992D01*
Y720993D01*
X1337502Y718994D01*
X1339501D01*
X1341500Y720993D01*
Y726991D01*
X1257498Y673009D02*
X1245502D01*
Y679007D01*
X1247502Y681006D01*
X1251500D01*
X1253500Y679007D01*
Y673009D01*
Y677007D02*
X1257498Y681006D01*
Y685005D02*
Y689004D01*
Y687004D01*
X1245502D01*
X1247502Y685005D01*
X1255499Y695002D02*
X1257498Y697001D01*
Y701000D01*
X1255499Y702999D01*
X1247502D01*
X1245502Y701000D01*
Y697001D01*
X1247502Y695002D01*
X1249501D01*
X1251500Y697001D01*
Y702999D01*
X1259498Y706998D02*
Y714995D01*
X1247502Y718994D02*
X1245502Y720993D01*
Y724992D01*
X1247502Y726991D01*
X1249501D01*
X1251500Y724992D01*
X1253500Y726991D01*
X1255499D01*
X1257498Y724992D01*
Y720993D01*
X1255499Y718994D01*
X1253500D01*
X1251500Y720993D01*
X1249501Y718994D01*
X1247502D01*
X1251500Y720993D02*
Y724992D01*
X1167498Y673009D02*
X1155502D01*
Y679007D01*
X1157502Y681006D01*
X1161500D01*
X1163500Y679007D01*
Y673009D01*
Y677007D02*
X1167498Y681006D01*
Y685005D02*
Y689004D01*
Y687004D01*
X1155502D01*
X1157502Y685005D01*
X1165499Y695002D02*
X1167498Y697001D01*
Y701000D01*
X1165499Y702999D01*
X1157502D01*
X1155502Y701000D01*
Y697001D01*
X1157502Y695002D01*
X1159501D01*
X1161500Y697001D01*
Y702999D01*
X1169498Y706998D02*
Y714995D01*
X1155502Y718994D02*
Y726991D01*
X1157502D01*
X1165499Y718994D01*
X1167498D01*
X1077574Y673009D02*
X1065578D01*
Y679007D01*
X1067577Y681006D01*
X1071576D01*
X1073575Y679007D01*
Y673009D01*
Y677007D02*
X1077574Y681006D01*
Y685005D02*
Y689004D01*
Y687004D01*
X1065578D01*
X1067577Y685005D01*
X1075575Y695002D02*
X1077574Y697001D01*
Y701000D01*
X1075575Y702999D01*
X1067577D01*
X1065578Y701000D01*
Y697001D01*
X1067577Y695002D01*
X1069576D01*
X1071576Y697001D01*
Y702999D01*
X1079573Y706998D02*
Y714995D01*
X1065578Y726991D02*
X1067577Y722992D01*
X1071576Y718994D01*
X1075575D01*
X1077574Y720993D01*
Y724992D01*
X1075575Y726991D01*
X1073575D01*
X1071576Y724992D01*
Y718994D01*
X989998Y673009D02*
X978002D01*
Y679007D01*
X980002Y681006D01*
X984000D01*
X986000Y679007D01*
Y673009D01*
Y677007D02*
X989998Y681006D01*
Y685005D02*
Y689004D01*
Y687004D01*
X978002D01*
X980002Y685005D01*
X987999Y695002D02*
X989998Y697001D01*
Y701000D01*
X987999Y702999D01*
X980002D01*
X978002Y701000D01*
Y697001D01*
X980002Y695002D01*
X982001D01*
X984000Y697001D01*
Y702999D01*
X991998Y706998D02*
Y714995D01*
X978002Y726991D02*
Y718994D01*
X984000D01*
X982001Y722993D01*
Y724992D01*
X984000Y726991D01*
X987999D01*
X989998Y724992D01*
Y720993D01*
X987999Y718994D01*
X897498Y673009D02*
X885502D01*
Y679007D01*
X887502Y681006D01*
X891500D01*
X893500Y679007D01*
Y673009D01*
Y677007D02*
X897498Y681006D01*
Y685005D02*
Y689004D01*
Y687004D01*
X885502D01*
X887502Y685005D01*
X895499Y695002D02*
X897498Y697001D01*
Y701000D01*
X895499Y702999D01*
X887502D01*
X885502Y701000D01*
Y697001D01*
X887502Y695002D01*
X889501D01*
X891500Y697001D01*
Y702999D01*
X899498Y706998D02*
Y714995D01*
X897498Y724992D02*
X885502D01*
X891500Y718994D01*
Y726991D01*
X807498Y673009D02*
X795502D01*
Y679007D01*
X797502Y681006D01*
X801500D01*
X803500Y679007D01*
Y673009D01*
Y677007D02*
X807498Y681006D01*
Y685005D02*
Y689004D01*
Y687004D01*
X795502D01*
X797502Y685005D01*
X805499Y695002D02*
X807498Y697001D01*
Y701000D01*
X805499Y702999D01*
X797502D01*
X795502Y701000D01*
Y697001D01*
X797502Y695002D01*
X799501D01*
X801500Y697001D01*
Y702999D01*
X809498Y706998D02*
Y714995D01*
X797502Y718994D02*
X795502Y720993D01*
Y724992D01*
X797502Y726991D01*
X799501D01*
X801500Y724992D01*
Y722993D01*
Y724992D01*
X803500Y726991D01*
X805499D01*
X807498Y724992D01*
Y720993D01*
X805499Y718994D01*
X717498Y673009D02*
X705502D01*
Y679007D01*
X707502Y681006D01*
X711500D01*
X713500Y679007D01*
Y673009D01*
Y677007D02*
X717498Y681006D01*
Y685005D02*
Y689004D01*
Y687004D01*
X705502D01*
X707502Y685005D01*
X715499Y695002D02*
X717498Y697001D01*
Y701000D01*
X715499Y702999D01*
X707502D01*
X705502Y701000D01*
Y697001D01*
X707502Y695002D01*
X709501D01*
X711500Y697001D01*
Y702999D01*
X719498Y706998D02*
Y714995D01*
X717498Y726991D02*
Y718994D01*
X709501Y726991D01*
X707502D01*
X705502Y724992D01*
Y720993D01*
X707502Y718994D01*
X627498Y672508D02*
X615502D01*
Y678506D01*
X617502Y680506D01*
X621500D01*
X623500Y678506D01*
Y672508D01*
Y676507D02*
X627498Y680506D01*
Y684504D02*
Y688503D01*
Y686504D01*
X615502D01*
X617502Y684504D01*
X625499Y694501D02*
X627498Y696500D01*
Y700499D01*
X625499Y702498D01*
X617502D01*
X615502Y700499D01*
Y696500D01*
X617502Y694501D01*
X619501D01*
X621500Y696500D01*
Y702498D01*
X629498Y706497D02*
Y714494D01*
X627498Y718493D02*
Y722492D01*
Y720493D01*
X615502D01*
X617502Y718493D01*
X2708002Y864008D02*
X2716000D01*
X2719998Y868007D01*
X2716000Y872006D01*
X2708002D01*
Y876004D02*
Y884002D01*
Y880003D01*
X2719998D01*
Y895998D02*
Y888001D01*
X2712001Y895998D01*
X2710002D01*
X2708002Y893999D01*
Y890000D01*
X2710002Y888001D01*
X2721998Y899997D02*
Y907994D01*
X2719998Y919990D02*
Y911993D01*
X2712001Y919990D01*
X2710002D01*
X2708002Y917991D01*
Y913992D01*
X2710002Y911993D01*
X2708002Y931986D02*
Y923989D01*
X2714000D01*
X2712001Y927988D01*
Y929987D01*
X2714000Y931986D01*
X2717999D01*
X2719998Y929987D01*
Y925988D01*
X2717999Y923989D01*
X2618002Y864008D02*
X2626000D01*
X2629998Y868007D01*
X2626000Y872006D01*
X2618002D01*
Y876004D02*
Y884002D01*
Y880003D01*
X2629998D01*
Y895998D02*
Y888001D01*
X2622001Y895998D01*
X2620002D01*
X2618002Y893999D01*
Y890000D01*
X2620002Y888001D01*
X2631998Y899997D02*
Y907994D01*
X2629998Y919990D02*
Y911993D01*
X2622001Y919990D01*
X2620002D01*
X2618002Y917991D01*
Y913992D01*
X2620002Y911993D01*
X2629998Y929987D02*
X2618002D01*
X2624000Y923989D01*
Y931986D01*
X2528002Y864008D02*
X2536000D01*
X2539998Y868007D01*
X2536000Y872006D01*
X2528002D01*
Y876004D02*
Y884002D01*
Y880003D01*
X2539998D01*
Y895998D02*
Y888001D01*
X2532001Y895998D01*
X2530002D01*
X2528002Y893999D01*
Y890000D01*
X2530002Y888001D01*
X2541998Y899997D02*
Y907994D01*
X2539998Y919990D02*
Y911993D01*
X2532001Y919990D01*
X2530002D01*
X2528002Y917991D01*
Y913992D01*
X2530002Y911993D01*
Y923989D02*
X2528002Y925988D01*
Y929987D01*
X2530002Y931986D01*
X2532001D01*
X2534000Y929987D01*
Y927988D01*
Y929987D01*
X2536000Y931986D01*
X2537999D01*
X2539998Y929987D01*
Y925988D01*
X2537999Y923989D01*
X2438002Y864008D02*
X2446000D01*
X2449998Y868007D01*
X2446000Y872006D01*
X2438002D01*
Y876004D02*
Y884002D01*
Y880003D01*
X2449998D01*
Y895998D02*
Y888001D01*
X2442001Y895998D01*
X2440002D01*
X2438002Y893999D01*
Y890000D01*
X2440002Y888001D01*
X2451998Y899997D02*
Y907994D01*
X2449998Y919990D02*
Y911993D01*
X2442001Y919990D01*
X2440002D01*
X2438002Y917991D01*
Y913992D01*
X2440002Y911993D01*
X2449998Y931986D02*
Y923989D01*
X2442001Y931986D01*
X2440002D01*
X2438002Y929987D01*
Y925988D01*
X2440002Y923989D01*
X2348002Y864008D02*
X2356000D01*
X2359998Y868007D01*
X2356000Y872006D01*
X2348002D01*
Y876004D02*
Y884002D01*
Y880003D01*
X2359998D01*
Y895998D02*
Y888001D01*
X2352001Y895998D01*
X2350002D01*
X2348002Y893999D01*
Y890000D01*
X2350002Y888001D01*
X2361998Y899997D02*
Y907994D01*
X2359998Y919990D02*
Y911993D01*
X2352001Y919990D01*
X2350002D01*
X2348002Y917991D01*
Y913992D01*
X2350002Y911993D01*
X2359998Y923989D02*
Y927988D01*
Y925988D01*
X2348002D01*
X2350002Y923989D01*
X2258002Y864008D02*
X2266000D01*
X2269998Y868007D01*
X2266000Y872006D01*
X2258002D01*
Y876004D02*
Y884002D01*
Y880003D01*
X2269998D01*
Y895998D02*
Y888001D01*
X2262001Y895998D01*
X2260002D01*
X2258002Y893999D01*
Y890000D01*
X2260002Y888001D01*
X2271998Y899997D02*
Y907994D01*
X2269998Y919990D02*
Y911993D01*
X2262001Y919990D01*
X2260002D01*
X2258002Y917991D01*
Y913992D01*
X2260002Y911993D01*
Y923989D02*
X2258002Y925988D01*
Y929987D01*
X2260002Y931986D01*
X2267999D01*
X2269998Y929987D01*
Y925988D01*
X2267999Y923989D01*
X2260002D01*
X2168002Y864008D02*
X2176000D01*
X2179998Y868007D01*
X2176000Y872006D01*
X2168002D01*
Y876004D02*
Y884002D01*
Y880003D01*
X2179998D01*
Y895998D02*
Y888001D01*
X2172001Y895998D01*
X2170002D01*
X2168002Y893999D01*
Y890000D01*
X2170002Y888001D01*
X2181998Y899997D02*
Y907994D01*
X2179998Y911993D02*
Y915992D01*
Y913992D01*
X2168002D01*
X2170002Y911993D01*
X2177999Y921990D02*
X2179998Y923989D01*
Y927988D01*
X2177999Y929987D01*
X2170002D01*
X2168002Y927988D01*
Y923989D01*
X2170002Y921990D01*
X2172001D01*
X2174000Y923989D01*
Y929987D01*
X2078002Y864008D02*
X2086000D01*
X2089998Y868007D01*
X2086000Y872006D01*
X2078002D01*
Y876004D02*
Y884002D01*
Y880003D01*
X2089998D01*
Y895998D02*
Y888001D01*
X2082001Y895998D01*
X2080002D01*
X2078002Y893999D01*
Y890000D01*
X2080002Y888001D01*
X2091998Y899997D02*
Y907994D01*
X2089998Y911993D02*
Y915992D01*
Y913992D01*
X2078002D01*
X2080002Y911993D01*
Y921990D02*
X2078002Y923989D01*
Y927988D01*
X2080002Y929987D01*
X2082001D01*
X2084000Y927988D01*
X2086000Y929987D01*
X2087999D01*
X2089998Y927988D01*
Y923989D01*
X2087999Y921990D01*
X2086000D01*
X2084000Y923989D01*
X2082001Y921990D01*
X2080002D01*
X2084000Y923989D02*
Y927988D01*
X1988002Y864008D02*
X1996000D01*
X1999998Y868007D01*
X1996000Y872006D01*
X1988002D01*
Y876004D02*
Y884002D01*
Y880003D01*
X1999998D01*
Y895998D02*
Y888001D01*
X1992001Y895998D01*
X1990002D01*
X1988002Y893999D01*
Y890000D01*
X1990002Y888001D01*
X2001998Y899997D02*
Y907994D01*
X1999998Y911993D02*
Y915992D01*
Y913992D01*
X1988002D01*
X1990002Y911993D01*
X1988002Y921990D02*
Y929987D01*
X1990002D01*
X1997999Y921990D01*
X1999998D01*
X1898002Y864008D02*
X1906000D01*
X1909998Y868007D01*
X1906000Y872006D01*
X1898002D01*
Y876004D02*
Y884002D01*
Y880003D01*
X1909998D01*
Y895998D02*
Y888001D01*
X1902001Y895998D01*
X1900002D01*
X1898002Y893999D01*
Y890000D01*
X1900002Y888001D01*
X1911998Y899997D02*
Y907994D01*
X1909998Y911993D02*
Y915992D01*
Y913992D01*
X1898002D01*
X1900002Y911993D01*
X1898002Y929987D02*
X1900002Y925988D01*
X1904000Y921990D01*
X1907999D01*
X1909998Y923989D01*
Y927988D01*
X1907999Y929987D01*
X1906000D01*
X1904000Y927988D01*
Y921990D01*
X1808002Y864008D02*
X1816000D01*
X1819998Y868007D01*
X1816000Y872006D01*
X1808002D01*
Y876004D02*
Y884002D01*
Y880003D01*
X1819998D01*
Y895998D02*
Y888001D01*
X1812001Y895998D01*
X1810002D01*
X1808002Y893999D01*
Y890000D01*
X1810002Y888001D01*
X1821998Y899997D02*
Y907994D01*
X1819998Y911993D02*
Y915992D01*
Y913992D01*
X1808002D01*
X1810002Y911993D01*
X1808002Y929987D02*
Y921990D01*
X1814000D01*
X1812001Y925988D01*
Y927988D01*
X1814000Y929987D01*
X1817999D01*
X1819998Y927988D01*
Y923989D01*
X1817999Y921990D01*
X1718002Y864008D02*
X1726000D01*
X1729998Y868007D01*
X1726000Y872006D01*
X1718002D01*
Y876004D02*
Y884002D01*
Y880003D01*
X1729998D01*
Y895998D02*
Y888001D01*
X1722001Y895998D01*
X1720002D01*
X1718002Y893999D01*
Y890000D01*
X1720002Y888001D01*
X1731998Y899997D02*
Y907994D01*
X1729998Y911993D02*
Y915992D01*
Y913992D01*
X1718002D01*
X1720002Y911993D01*
X1729998Y927988D02*
X1718002D01*
X1724000Y921990D01*
Y929987D01*
X1628002Y864008D02*
X1636000D01*
X1639998Y868007D01*
X1636000Y872006D01*
X1628002D01*
Y876004D02*
Y884002D01*
Y880003D01*
X1639998D01*
Y895998D02*
Y888001D01*
X1632001Y895998D01*
X1630002D01*
X1628002Y893999D01*
Y890000D01*
X1630002Y888001D01*
X1641998Y899997D02*
Y907994D01*
X1639998Y911993D02*
Y915992D01*
Y913992D01*
X1628002D01*
X1630002Y911993D01*
Y921990D02*
X1628002Y923989D01*
Y927988D01*
X1630002Y929987D01*
X1632001D01*
X1634000Y927988D01*
Y925988D01*
Y927988D01*
X1636000Y929987D01*
X1637999D01*
X1639998Y927988D01*
Y923989D01*
X1637999Y921990D01*
X1538002Y864008D02*
X1546000D01*
X1549998Y868007D01*
X1546000Y872006D01*
X1538002D01*
Y876004D02*
Y884002D01*
Y880003D01*
X1549998D01*
Y895998D02*
Y888001D01*
X1542001Y895998D01*
X1540002D01*
X1538002Y893999D01*
Y890000D01*
X1540002Y888001D01*
X1551998Y899997D02*
Y907994D01*
X1549998Y911993D02*
Y915992D01*
Y913992D01*
X1538002D01*
X1540002Y911993D01*
X1549998Y929987D02*
Y921990D01*
X1542001Y929987D01*
X1540002D01*
X1538002Y927988D01*
Y923989D01*
X1540002Y921990D01*
X1448002Y864008D02*
X1456000D01*
X1459998Y868007D01*
X1456000Y872006D01*
X1448002D01*
Y876004D02*
Y884002D01*
Y880003D01*
X1459998D01*
Y895998D02*
Y888001D01*
X1452001Y895998D01*
X1450002D01*
X1448002Y893999D01*
Y890000D01*
X1450002Y888001D01*
X1461998Y899997D02*
Y907994D01*
X1459998Y911993D02*
Y915992D01*
Y913992D01*
X1448002D01*
X1450002Y911993D01*
X1459998Y921990D02*
Y925988D01*
Y923989D01*
X1448002D01*
X1450002Y921990D01*
X1358002Y864008D02*
X1366000D01*
X1369998Y868007D01*
X1366000Y872006D01*
X1358002D01*
Y876004D02*
Y884002D01*
Y880003D01*
X1369998D01*
Y895998D02*
Y888001D01*
X1362001Y895998D01*
X1360002D01*
X1358002Y893999D01*
Y890000D01*
X1360002Y888001D01*
X1371998Y899997D02*
Y907994D01*
X1369998Y911993D02*
Y915992D01*
Y913992D01*
X1358002D01*
X1360002Y911993D01*
Y921990D02*
X1358002Y923989D01*
Y927988D01*
X1360002Y929987D01*
X1367999D01*
X1369998Y927988D01*
Y923989D01*
X1367999Y921990D01*
X1360002D01*
X1268002Y864008D02*
X1276000D01*
X1279998Y868007D01*
X1276000Y872006D01*
X1268002D01*
Y876004D02*
Y884002D01*
Y880003D01*
X1279998D01*
Y895998D02*
Y888001D01*
X1272001Y895998D01*
X1270002D01*
X1268002Y893999D01*
Y890000D01*
X1270002Y888001D01*
X1281998Y899997D02*
Y907994D01*
X1277999Y911993D02*
X1279998Y913992D01*
Y917991D01*
X1277999Y919990D01*
X1270002D01*
X1268002Y917991D01*
Y913992D01*
X1270002Y911993D01*
X1272001D01*
X1274000Y913992D01*
Y919990D01*
X1178002Y864008D02*
X1186000D01*
X1189998Y868007D01*
X1186000Y872006D01*
X1178002D01*
Y876004D02*
Y884002D01*
Y880003D01*
X1189998D01*
Y895998D02*
Y888001D01*
X1182001Y895998D01*
X1180002D01*
X1178002Y893999D01*
Y890000D01*
X1180002Y888001D01*
X1191998Y899997D02*
Y907994D01*
X1180002Y911993D02*
X1178002Y913992D01*
Y917991D01*
X1180002Y919990D01*
X1182001D01*
X1184000Y917991D01*
X1186000Y919990D01*
X1187999D01*
X1189998Y917991D01*
Y913992D01*
X1187999Y911993D01*
X1186000D01*
X1184000Y913992D01*
X1182001Y911993D01*
X1180002D01*
X1184000Y913992D02*
Y917991D01*
X1088002Y864008D02*
X1096000D01*
X1099998Y868007D01*
X1096000Y872006D01*
X1088002D01*
Y876004D02*
Y884002D01*
Y880003D01*
X1099998D01*
Y895998D02*
Y888001D01*
X1092001Y895998D01*
X1090002D01*
X1088002Y893999D01*
Y890000D01*
X1090002Y888001D01*
X1101998Y899997D02*
Y907994D01*
X1088002Y911993D02*
Y919990D01*
X1090002D01*
X1097999Y911993D01*
X1099998D01*
X998002Y864008D02*
X1006000D01*
X1009998Y868007D01*
X1006000Y872006D01*
X998002D01*
Y876004D02*
Y884002D01*
Y880003D01*
X1009998D01*
Y895998D02*
Y888001D01*
X1002001Y895998D01*
X1000002D01*
X998002Y893999D01*
Y890000D01*
X1000002Y888001D01*
X1011998Y899997D02*
Y907994D01*
X998002Y919990D02*
X1000002Y915992D01*
X1004000Y911993D01*
X1007999D01*
X1009998Y913992D01*
Y917991D01*
X1007999Y919990D01*
X1006000D01*
X1004000Y917991D01*
Y911993D01*
X908002Y864008D02*
X916000D01*
X919998Y868007D01*
X916000Y872006D01*
X908002D01*
Y876004D02*
Y884002D01*
Y880003D01*
X919998D01*
Y895998D02*
Y888001D01*
X912001Y895998D01*
X910002D01*
X908002Y893999D01*
Y890000D01*
X910002Y888001D01*
X921998Y899997D02*
Y907994D01*
X908002Y919990D02*
Y911993D01*
X914000D01*
X912001Y915992D01*
Y917991D01*
X914000Y919990D01*
X917999D01*
X919998Y917991D01*
Y913992D01*
X917999Y911993D01*
X818352Y863758D02*
X826350D01*
X830348Y867757D01*
X826350Y871756D01*
X818352D01*
Y875754D02*
Y883752D01*
Y879753D01*
X830348D01*
Y895748D02*
Y887751D01*
X822351Y895748D01*
X820352D01*
X818352Y893749D01*
Y889750D01*
X820352Y887751D01*
X832348Y899747D02*
Y907744D01*
X830348Y917741D02*
X818352D01*
X824350Y911743D01*
Y919740D01*
X728002Y864008D02*
X736000D01*
X739998Y868007D01*
X736000Y872006D01*
X728002D01*
Y876004D02*
Y884002D01*
Y880003D01*
X739998D01*
Y895998D02*
Y888001D01*
X732001Y895998D01*
X730002D01*
X728002Y893999D01*
Y890000D01*
X730002Y888001D01*
X741998Y899997D02*
Y907994D01*
X730002Y911993D02*
X728002Y913992D01*
Y917991D01*
X730002Y919990D01*
X732001D01*
X734000Y917991D01*
Y915992D01*
Y917991D01*
X736000Y919990D01*
X737999D01*
X739998Y917991D01*
Y913992D01*
X737999Y911993D01*
X638002Y864008D02*
X646000D01*
X649998Y868007D01*
X646000Y872006D01*
X638002D01*
Y876004D02*
Y884002D01*
Y880003D01*
X649998D01*
Y895998D02*
Y888001D01*
X642001Y895998D01*
X640002D01*
X638002Y893999D01*
Y890000D01*
X640002Y888001D01*
X651998Y899997D02*
Y907994D01*
X649998Y919990D02*
Y911993D01*
X642001Y919990D01*
X640002D01*
X638002Y917991D01*
Y913992D01*
X640002Y911993D01*
X548002Y864008D02*
X556000D01*
X559998Y868007D01*
X556000Y872006D01*
X548002D01*
Y876004D02*
Y884002D01*
Y880003D01*
X559998D01*
Y895998D02*
Y888001D01*
X552001Y895998D01*
X550002D01*
X548002Y893999D01*
Y890000D01*
X550002Y888001D01*
X561998Y899997D02*
Y907994D01*
X559998Y911993D02*
Y915992D01*
Y913992D01*
X548002D01*
X550002Y911993D01*
X2705008Y501998D02*
Y494000D01*
X2709007Y490002D01*
X2713005Y494000D01*
Y501998D01*
X2717004D02*
X2725002D01*
X2721003D01*
Y490002D01*
X2729000D02*
X2732999D01*
X2731000D01*
Y501998D01*
X2729000Y499998D01*
X2738997Y488002D02*
X2746995D01*
X2758990Y490002D02*
X2750993D01*
X2758990Y497999D01*
Y499998D01*
X2756991Y501998D01*
X2752993D01*
X2750993Y499998D01*
X2770987Y501998D02*
X2762989D01*
Y496000D01*
X2766988Y497999D01*
X2768987D01*
X2770987Y496000D01*
Y492001D01*
X2768987Y490002D01*
X2764989D01*
X2762989Y492001D01*
X2615008Y501998D02*
Y494000D01*
X2619007Y490002D01*
X2623005Y494000D01*
Y501998D01*
X2627004D02*
X2635002D01*
X2631003D01*
Y490002D01*
X2639000D02*
X2642999D01*
X2641000D01*
Y501998D01*
X2639000Y499998D01*
X2648997Y488002D02*
X2656995D01*
X2668990Y490002D02*
X2660993D01*
X2668990Y497999D01*
Y499998D01*
X2666991Y501998D01*
X2662993D01*
X2660993Y499998D01*
X2678987Y490002D02*
Y501998D01*
X2672989Y496000D01*
X2680987D01*
X2525008Y501998D02*
Y494000D01*
X2529007Y490002D01*
X2533006Y494000D01*
Y501998D01*
X2537004D02*
X2545002D01*
X2541003D01*
Y490002D01*
X2549000D02*
X2552999D01*
X2551000D01*
Y501998D01*
X2549000Y499998D01*
X2558997Y488002D02*
X2566995D01*
X2578991Y490002D02*
X2570993D01*
X2578991Y497999D01*
Y499998D01*
X2576991Y501998D01*
X2572993D01*
X2570993Y499998D01*
X2582989D02*
X2584989Y501998D01*
X2588987D01*
X2590987Y499998D01*
Y497999D01*
X2588987Y496000D01*
X2586988D01*
X2588987D01*
X2590987Y494000D01*
Y492001D01*
X2588987Y490002D01*
X2584989D01*
X2582989Y492001D01*
X2435008Y501998D02*
Y494000D01*
X2439007Y490002D01*
X2443006Y494000D01*
Y501998D01*
X2447004D02*
X2455002D01*
X2451003D01*
Y490002D01*
X2459000D02*
X2462999D01*
X2461000D01*
Y501998D01*
X2459000Y499998D01*
X2468997Y488002D02*
X2476994D01*
X2488991Y490002D02*
X2480993D01*
X2488991Y497999D01*
Y499998D01*
X2486991Y501998D01*
X2482993D01*
X2480993Y499998D01*
X2500987Y490002D02*
X2492989D01*
X2500987Y497999D01*
Y499998D01*
X2498987Y501998D01*
X2494989D01*
X2492989Y499998D01*
X2345008Y501998D02*
Y494000D01*
X2349007Y490002D01*
X2353006Y494000D01*
Y501998D01*
X2357004D02*
X2365002D01*
X2361003D01*
Y490002D01*
X2369000D02*
X2372999D01*
X2371000D01*
Y501998D01*
X2369000Y499998D01*
X2378997Y488002D02*
X2386994D01*
X2398991Y490002D02*
X2390993D01*
X2398991Y497999D01*
Y499998D01*
X2396991Y501998D01*
X2392993D01*
X2390993Y499998D01*
X2402989Y490002D02*
X2406988D01*
X2404989D01*
Y501998D01*
X2402989Y499998D01*
X2255008Y501998D02*
Y494000D01*
X2259007Y490002D01*
X2263006Y494000D01*
Y501998D01*
X2267004D02*
X2275002D01*
X2271003D01*
Y490002D01*
X2279000D02*
X2282999D01*
X2281000D01*
Y501998D01*
X2279000Y499998D01*
X2288997Y488002D02*
X2296994D01*
X2308991Y490002D02*
X2300993D01*
X2308991Y497999D01*
Y499998D01*
X2306991Y501998D01*
X2302993D01*
X2300993Y499998D01*
X2312989D02*
X2314989Y501998D01*
X2318987D01*
X2320987Y499998D01*
Y492001D01*
X2318987Y490002D01*
X2314989D01*
X2312989Y492001D01*
Y499998D01*
X2165008Y501998D02*
Y494000D01*
X2169007Y490002D01*
X2173006Y494000D01*
Y501998D01*
X2177004D02*
X2185002D01*
X2181003D01*
Y490002D01*
X2189000D02*
X2192999D01*
X2191000D01*
Y501998D01*
X2189000Y499998D01*
X2198997Y488002D02*
X2206994D01*
X2210993Y490002D02*
X2214992D01*
X2212993D01*
Y501998D01*
X2210993Y499998D01*
X2220990Y492001D02*
X2222989Y490002D01*
X2226988D01*
X2228987Y492001D01*
Y499998D01*
X2226988Y501998D01*
X2222989D01*
X2220990Y499998D01*
Y497999D01*
X2222989Y496000D01*
X2228987D01*
X2075008Y501998D02*
Y494000D01*
X2079007Y490002D01*
X2083006Y494000D01*
Y501998D01*
X2087004D02*
X2095002D01*
X2091003D01*
Y490002D01*
X2099000D02*
X2102999D01*
X2101000D01*
Y501998D01*
X2099000Y499998D01*
X2108997Y488002D02*
X2116994D01*
X2120993Y490002D02*
X2124992D01*
X2122993D01*
Y501998D01*
X2120993Y499998D01*
X2130990D02*
X2132989Y501998D01*
X2136988D01*
X2138987Y499998D01*
Y497999D01*
X2136988Y496000D01*
X2138987Y494000D01*
Y492001D01*
X2136988Y490002D01*
X2132989D01*
X2130990Y492001D01*
Y494000D01*
X2132989Y496000D01*
X2130990Y497999D01*
Y499998D01*
X2132989Y496000D02*
X2136988D01*
X1985008Y501998D02*
Y494000D01*
X1989007Y490002D01*
X1993006Y494000D01*
Y501998D01*
X1997004D02*
X2005002D01*
X2001003D01*
Y490002D01*
X2009000D02*
X2012999D01*
X2011000D01*
Y501998D01*
X2009000Y499998D01*
X2018997Y488002D02*
X2026994D01*
X2030993Y490002D02*
X2034992D01*
X2032993D01*
Y501998D01*
X2030993Y499998D01*
X2040990Y501998D02*
X2048987D01*
Y499998D01*
X2040990Y492001D01*
Y490002D01*
X1895008Y501998D02*
Y494000D01*
X1899007Y490002D01*
X1903006Y494000D01*
Y501998D01*
X1907004D02*
X1915002D01*
X1911003D01*
Y490002D01*
X1919000D02*
X1922999D01*
X1921000D01*
Y501998D01*
X1919000Y499998D01*
X1928997Y488002D02*
X1936994D01*
X1940993Y490002D02*
X1944992D01*
X1942993D01*
Y501998D01*
X1940993Y499998D01*
X1958987Y501998D02*
X1954989Y499998D01*
X1950990Y496000D01*
Y492001D01*
X1952989Y490002D01*
X1956988D01*
X1958987Y492001D01*
Y494000D01*
X1956988Y496000D01*
X1950990D01*
X1805008Y501998D02*
Y494000D01*
X1809007Y490002D01*
X1813006Y494000D01*
Y501998D01*
X1817004D02*
X1825002D01*
X1821003D01*
Y490002D01*
X1829000D02*
X1832999D01*
X1831000D01*
Y501998D01*
X1829000Y499998D01*
X1838997Y488002D02*
X1846994D01*
X1850993Y490002D02*
X1854992D01*
X1852993D01*
Y501998D01*
X1850993Y499998D01*
X1868987Y501998D02*
X1860990D01*
Y496000D01*
X1864989Y497999D01*
X1866988D01*
X1868987Y496000D01*
Y492001D01*
X1866988Y490002D01*
X1862989D01*
X1860990Y492001D01*
X1715008Y501998D02*
Y494000D01*
X1719007Y490002D01*
X1723006Y494000D01*
Y501998D01*
X1727004D02*
X1735002D01*
X1731003D01*
Y490002D01*
X1739000D02*
X1742999D01*
X1741000D01*
Y501998D01*
X1739000Y499998D01*
X1748997Y488002D02*
X1756994D01*
X1760993Y490002D02*
X1764992D01*
X1762993D01*
Y501998D01*
X1760993Y499998D01*
X1776988Y490002D02*
Y501998D01*
X1770990Y496000D01*
X1778987D01*
X1625008Y501998D02*
Y494000D01*
X1629007Y490002D01*
X1633006Y494000D01*
Y501998D01*
X1637004D02*
X1645002D01*
X1641003D01*
Y490002D01*
X1649000D02*
X1652999D01*
X1651000D01*
Y501998D01*
X1649000Y499998D01*
X1658997Y488002D02*
X1666994D01*
X1670993Y490002D02*
X1674992D01*
X1672993D01*
Y501998D01*
X1670993Y499998D01*
X1680990D02*
X1682989Y501998D01*
X1686988D01*
X1688987Y499998D01*
Y497999D01*
X1686988Y496000D01*
X1684989D01*
X1686988D01*
X1688987Y494000D01*
Y492001D01*
X1686988Y490002D01*
X1682989D01*
X1680990Y492001D01*
X1535008Y501998D02*
Y494000D01*
X1539007Y490002D01*
X1543006Y494000D01*
Y501998D01*
X1547004D02*
X1555002D01*
X1551003D01*
Y490002D01*
X1559000D02*
X1562999D01*
X1561000D01*
Y501998D01*
X1559000Y499998D01*
X1568997Y488002D02*
X1576994D01*
X1580993Y490002D02*
X1584992D01*
X1582993D01*
Y501998D01*
X1580993Y499998D01*
X1598987Y490002D02*
X1590990D01*
X1598987Y497999D01*
Y499998D01*
X1596988Y501998D01*
X1592989D01*
X1590990Y499998D01*
X1445008Y501998D02*
Y494000D01*
X1449007Y490002D01*
X1453006Y494000D01*
Y501998D01*
X1457004D02*
X1465002D01*
X1461003D01*
Y490002D01*
X1469000D02*
X1472999D01*
X1471000D01*
Y501998D01*
X1469000Y499998D01*
X1478997Y488002D02*
X1486994D01*
X1490993Y490002D02*
X1494992D01*
X1492993D01*
Y501998D01*
X1490993Y499998D01*
X1500990Y490002D02*
X1504989D01*
X1502989D01*
Y501998D01*
X1500990Y499998D01*
X1355008Y501998D02*
Y494000D01*
X1359007Y490002D01*
X1363006Y494000D01*
Y501998D01*
X1367004D02*
X1375002D01*
X1371003D01*
Y490002D01*
X1379000D02*
X1382999D01*
X1381000D01*
Y501998D01*
X1379000Y499998D01*
X1388997Y488002D02*
X1396994D01*
X1400993Y490002D02*
X1404992D01*
X1402993D01*
Y501998D01*
X1400993Y499998D01*
X1410990D02*
X1412989Y501998D01*
X1416988D01*
X1418987Y499998D01*
Y492001D01*
X1416988Y490002D01*
X1412989D01*
X1410990Y492001D01*
Y499998D01*
X1265008Y501998D02*
Y494000D01*
X1269007Y490002D01*
X1273006Y494000D01*
Y501998D01*
X1277004D02*
X1285002D01*
X1281003D01*
Y490002D01*
X1289000D02*
X1292999D01*
X1291000D01*
Y501998D01*
X1289000Y499998D01*
X1298997Y488002D02*
X1306994D01*
X1310993Y492001D02*
X1312993Y490002D01*
X1316991D01*
X1318991Y492001D01*
Y499998D01*
X1316991Y501998D01*
X1312993D01*
X1310993Y499998D01*
Y497999D01*
X1312993Y496000D01*
X1318991D01*
X1175008Y501998D02*
Y494000D01*
X1179007Y490002D01*
X1183006Y494000D01*
Y501998D01*
X1187004D02*
X1195002D01*
X1191003D01*
Y490002D01*
X1199000D02*
X1202999D01*
X1201000D01*
Y501998D01*
X1199000Y499998D01*
X1208997Y488002D02*
X1216994D01*
X1220993Y499998D02*
X1222993Y501998D01*
X1226991D01*
X1228991Y499998D01*
Y497999D01*
X1226991Y496000D01*
X1228991Y494000D01*
Y492001D01*
X1226991Y490002D01*
X1222993D01*
X1220993Y492001D01*
Y494000D01*
X1222993Y496000D01*
X1220993Y497999D01*
Y499998D01*
X1222993Y496000D02*
X1226991D01*
X1085008Y501998D02*
Y494000D01*
X1089007Y490002D01*
X1093006Y494000D01*
Y501998D01*
X1097004D02*
X1105002D01*
X1101003D01*
Y490002D01*
X1109000D02*
X1112999D01*
X1111000D01*
Y501998D01*
X1109000Y499998D01*
X1118997Y488002D02*
X1126994D01*
X1130993Y501998D02*
X1138991D01*
Y499998D01*
X1130993Y492001D01*
Y490002D01*
X995008Y501998D02*
Y494000D01*
X999007Y490002D01*
X1003006Y494000D01*
Y501998D01*
X1007004D02*
X1015002D01*
X1011003D01*
Y490002D01*
X1019000D02*
X1022999D01*
X1021000D01*
Y501998D01*
X1019000Y499998D01*
X1028997Y488002D02*
X1036994D01*
X1048991Y501998D02*
X1044992Y499998D01*
X1040993Y496000D01*
Y492001D01*
X1042993Y490002D01*
X1046991D01*
X1048991Y492001D01*
Y494000D01*
X1046991Y496000D01*
X1040993D01*
X905008Y501998D02*
Y494000D01*
X909007Y490002D01*
X913006Y494000D01*
Y501998D01*
X917004D02*
X925002D01*
X921003D01*
Y490002D01*
X929000D02*
X932999D01*
X931000D01*
Y501998D01*
X929000Y499998D01*
X938997Y488002D02*
X946994D01*
X958991Y501998D02*
X950993D01*
Y496000D01*
X954992Y497999D01*
X956991D01*
X958991Y496000D01*
Y492001D01*
X956991Y490002D01*
X952993D01*
X950993Y492001D01*
X815358Y501748D02*
Y493750D01*
X819357Y489752D01*
X823355Y493750D01*
Y501748D01*
X827354D02*
X835352D01*
X831353D01*
Y489752D01*
X839350D02*
X843349D01*
X841350D01*
Y501748D01*
X839350Y499748D01*
X849347Y487752D02*
X857345D01*
X867341Y489752D02*
Y501748D01*
X861343Y495750D01*
X869341D01*
X725008Y501998D02*
Y494000D01*
X729007Y490002D01*
X733006Y494000D01*
Y501998D01*
X737004D02*
X745002D01*
X741003D01*
Y490002D01*
X749000D02*
X752999D01*
X751000D01*
Y501998D01*
X749000Y499998D01*
X758997Y488002D02*
X766994D01*
X770993Y499998D02*
X772993Y501998D01*
X776991D01*
X778991Y499998D01*
Y497999D01*
X776991Y496000D01*
X774992D01*
X776991D01*
X778991Y494000D01*
Y492001D01*
X776991Y490002D01*
X772993D01*
X770993Y492001D01*
X635008Y501998D02*
Y494000D01*
X639007Y490002D01*
X643006Y494000D01*
Y501998D01*
X647004D02*
X655002D01*
X651003D01*
Y490002D01*
X659000D02*
X662999D01*
X661000D01*
Y501998D01*
X659000Y499998D01*
X668997Y488002D02*
X676994D01*
X688991Y490002D02*
X680993D01*
X688991Y497999D01*
Y499998D01*
X686991Y501998D01*
X682993D01*
X680993Y499998D01*
X545008Y501998D02*
Y494000D01*
X549007Y490002D01*
X553005Y494000D01*
Y501998D01*
X557004D02*
X565002D01*
X561003D01*
Y490002D01*
X569000D02*
X572999D01*
X571000D01*
Y501998D01*
X569000Y499998D01*
X578997Y488002D02*
X586995D01*
X590993Y490002D02*
X594992D01*
X592993D01*
Y501998D01*
X590993Y499998D01*
X2714008Y1016998D02*
Y1009000D01*
X2718007Y1005002D01*
X2722006Y1009000D01*
Y1016998D01*
X2726005D02*
Y1005002D01*
X2732003D01*
X2734002Y1007001D01*
Y1014998D01*
X2732003Y1016998D01*
X2726005D01*
X2745998D02*
X2742000Y1014998D01*
X2738001Y1011000D01*
Y1007001D01*
X2740000Y1005002D01*
X2743999D01*
X2745998Y1007001D01*
Y1009000D01*
X2743999Y1011000D01*
X2738001D01*
X2749997Y1003002D02*
X2757994D01*
X2769990Y1005002D02*
X2761993D01*
X2769990Y1012999D01*
Y1014998D01*
X2767991Y1016998D01*
X2763992D01*
X2761993Y1014998D01*
X2781986Y1016998D02*
X2773989D01*
Y1011000D01*
X2777988Y1012999D01*
X2779987D01*
X2781986Y1011000D01*
Y1007001D01*
X2779987Y1005002D01*
X2775988D01*
X2773989Y1007001D01*
X2624008Y1016998D02*
Y1009000D01*
X2628007Y1005002D01*
X2632006Y1009000D01*
Y1016998D01*
X2636005D02*
Y1005002D01*
X2642003D01*
X2644002Y1007001D01*
Y1014998D01*
X2642003Y1016998D01*
X2636005D01*
X2655998D02*
X2652000Y1014998D01*
X2648001Y1011000D01*
Y1007001D01*
X2650000Y1005002D01*
X2653999D01*
X2655998Y1007001D01*
Y1009000D01*
X2653999Y1011000D01*
X2648001D01*
X2659997Y1003002D02*
X2667994D01*
X2679990Y1005002D02*
X2671993D01*
X2679990Y1012999D01*
Y1014998D01*
X2677991Y1016998D01*
X2673992D01*
X2671993Y1014998D01*
X2689987Y1005002D02*
Y1016998D01*
X2683989Y1011000D01*
X2691986D01*
X2534008Y1016998D02*
Y1009000D01*
X2538007Y1005002D01*
X2542006Y1009000D01*
Y1016998D01*
X2546005D02*
Y1005002D01*
X2552003D01*
X2554002Y1007001D01*
Y1014998D01*
X2552003Y1016998D01*
X2546005D01*
X2565998D02*
X2562000Y1014998D01*
X2558001Y1011000D01*
Y1007001D01*
X2560000Y1005002D01*
X2563999D01*
X2565998Y1007001D01*
Y1009000D01*
X2563999Y1011000D01*
X2558001D01*
X2569997Y1003002D02*
X2577994D01*
X2589990Y1005002D02*
X2581993D01*
X2589990Y1012999D01*
Y1014998D01*
X2587991Y1016998D01*
X2583992D01*
X2581993Y1014998D01*
X2593989D02*
X2595988Y1016998D01*
X2599987D01*
X2601986Y1014998D01*
Y1012999D01*
X2599987Y1011000D01*
X2597988D01*
X2599987D01*
X2601986Y1009000D01*
Y1007001D01*
X2599987Y1005002D01*
X2595988D01*
X2593989Y1007001D01*
X2444008Y1016998D02*
Y1009000D01*
X2448007Y1005002D01*
X2452006Y1009000D01*
Y1016998D01*
X2456005D02*
Y1005002D01*
X2462003D01*
X2464002Y1007001D01*
Y1014998D01*
X2462003Y1016998D01*
X2456005D01*
X2475998D02*
X2471999Y1014998D01*
X2468001Y1011000D01*
Y1007001D01*
X2470000Y1005002D01*
X2473999D01*
X2475998Y1007001D01*
Y1009000D01*
X2473999Y1011000D01*
X2468001D01*
X2479997Y1003002D02*
X2487994D01*
X2499990Y1005002D02*
X2491993D01*
X2499990Y1012999D01*
Y1014998D01*
X2497991Y1016998D01*
X2493992D01*
X2491993Y1014998D01*
X2511986Y1005002D02*
X2503989D01*
X2511986Y1012999D01*
Y1014998D01*
X2509987Y1016998D01*
X2505988D01*
X2503989Y1014998D01*
X2354008Y1016998D02*
Y1009000D01*
X2358007Y1005002D01*
X2362006Y1009000D01*
Y1016998D01*
X2366005D02*
Y1005002D01*
X2372003D01*
X2374002Y1007001D01*
Y1014998D01*
X2372003Y1016998D01*
X2366005D01*
X2385998D02*
X2381999Y1014998D01*
X2378001Y1011000D01*
Y1007001D01*
X2380000Y1005002D01*
X2383999D01*
X2385998Y1007001D01*
Y1009000D01*
X2383999Y1011000D01*
X2378001D01*
X2389997Y1003002D02*
X2397994D01*
X2409990Y1005002D02*
X2401993D01*
X2409990Y1012999D01*
Y1014998D01*
X2407991Y1016998D01*
X2403992D01*
X2401993Y1014998D01*
X2413989Y1005002D02*
X2417988D01*
X2415988D01*
Y1016998D01*
X2413989Y1014998D01*
X2264008Y1016998D02*
Y1009000D01*
X2268007Y1005002D01*
X2272006Y1009000D01*
Y1016998D01*
X2276005D02*
Y1005002D01*
X2282003D01*
X2284002Y1007001D01*
Y1014998D01*
X2282003Y1016998D01*
X2276005D01*
X2295998D02*
X2291999Y1014998D01*
X2288001Y1011000D01*
Y1007001D01*
X2290000Y1005002D01*
X2293999D01*
X2295998Y1007001D01*
Y1009000D01*
X2293999Y1011000D01*
X2288001D01*
X2299997Y1003002D02*
X2307994D01*
X2319990Y1005002D02*
X2311993D01*
X2319990Y1012999D01*
Y1014998D01*
X2317991Y1016998D01*
X2313992D01*
X2311993Y1014998D01*
X2323989D02*
X2325988Y1016998D01*
X2329987D01*
X2331986Y1014998D01*
Y1007001D01*
X2329987Y1005002D01*
X2325988D01*
X2323989Y1007001D01*
Y1014998D01*
X2174008Y1016998D02*
Y1009000D01*
X2178007Y1005002D01*
X2182006Y1009000D01*
Y1016998D01*
X2186004D02*
Y1005002D01*
X2192003D01*
X2194002Y1007001D01*
Y1014998D01*
X2192003Y1016998D01*
X2186004D01*
X2205998D02*
X2201999Y1014998D01*
X2198001Y1011000D01*
Y1007001D01*
X2200000Y1005002D01*
X2203999D01*
X2205998Y1007001D01*
Y1009000D01*
X2203999Y1011000D01*
X2198001D01*
X2209997Y1003002D02*
X2217994D01*
X2221993Y1005002D02*
X2225992D01*
X2223992D01*
Y1016998D01*
X2221993Y1014998D01*
X2231990Y1007001D02*
X2233989Y1005002D01*
X2237988D01*
X2239987Y1007001D01*
Y1014998D01*
X2237988Y1016998D01*
X2233989D01*
X2231990Y1014998D01*
Y1012999D01*
X2233989Y1011000D01*
X2239987D01*
X2084008Y1016998D02*
Y1009000D01*
X2088007Y1005002D01*
X2092006Y1009000D01*
Y1016998D01*
X2096004D02*
Y1005002D01*
X2102003D01*
X2104002Y1007001D01*
Y1014998D01*
X2102003Y1016998D01*
X2096004D01*
X2115998D02*
X2111999Y1014998D01*
X2108001Y1011000D01*
Y1007001D01*
X2110000Y1005002D01*
X2113999D01*
X2115998Y1007001D01*
Y1009000D01*
X2113999Y1011000D01*
X2108001D01*
X2119997Y1003002D02*
X2127994D01*
X2131993Y1005002D02*
X2135992D01*
X2133992D01*
Y1016998D01*
X2131993Y1014998D01*
X2141990D02*
X2143989Y1016998D01*
X2147988D01*
X2149987Y1014998D01*
Y1012999D01*
X2147988Y1011000D01*
X2149987Y1009000D01*
Y1007001D01*
X2147988Y1005002D01*
X2143989D01*
X2141990Y1007001D01*
Y1009000D01*
X2143989Y1011000D01*
X2141990Y1012999D01*
Y1014998D01*
X2143989Y1011000D02*
X2147988D01*
X1984008Y956998D02*
Y949000D01*
X1988007Y945002D01*
X1992006Y949000D01*
Y956998D01*
X1996004D02*
Y945002D01*
X2002003D01*
X2004002Y947001D01*
Y954998D01*
X2002003Y956998D01*
X1996004D01*
X2015998D02*
X2011999Y954998D01*
X2008001Y951000D01*
Y947001D01*
X2010000Y945002D01*
X2013999D01*
X2015998Y947001D01*
Y949000D01*
X2013999Y951000D01*
X2008001D01*
X2019997Y943002D02*
X2027994D01*
X2031993Y945002D02*
X2035992D01*
X2033992D01*
Y956998D01*
X2031993Y954998D01*
X2041990Y956998D02*
X2049987D01*
Y954998D01*
X2041990Y947001D01*
Y945002D01*
X1892009Y956998D02*
Y949000D01*
X1896008Y945002D01*
X1900007Y949000D01*
Y956998D01*
X1904005D02*
Y945002D01*
X1910003D01*
X1912003Y947001D01*
Y954998D01*
X1910003Y956998D01*
X1904005D01*
X1923999D02*
X1920000Y954998D01*
X1916001Y951000D01*
Y947001D01*
X1918001Y945002D01*
X1921999D01*
X1923999Y947001D01*
Y949000D01*
X1921999Y951000D01*
X1916001D01*
X1927997Y943002D02*
X1935995D01*
X1939993Y945002D02*
X1943992D01*
X1941993D01*
Y956998D01*
X1939993Y954998D01*
X1957988Y956998D02*
X1953989Y954998D01*
X1949990Y951000D01*
Y947001D01*
X1951990Y945002D01*
X1955988D01*
X1957988Y947001D01*
Y949000D01*
X1955988Y951000D01*
X1949990D01*
X1814008Y1016998D02*
Y1009000D01*
X1818007Y1005002D01*
X1822006Y1009000D01*
Y1016998D01*
X1826005D02*
Y1005002D01*
X1832003D01*
X1834002Y1007001D01*
Y1014998D01*
X1832003Y1016998D01*
X1826005D01*
X1845998D02*
X1841999Y1014998D01*
X1838001Y1011000D01*
Y1007001D01*
X1840000Y1005002D01*
X1843999D01*
X1845998Y1007001D01*
Y1009000D01*
X1843999Y1011000D01*
X1838001D01*
X1849997Y1003002D02*
X1857994D01*
X1861993Y1005002D02*
X1865992D01*
X1863992D01*
Y1016998D01*
X1861993Y1014998D01*
X1879987Y1016998D02*
X1871990D01*
Y1011000D01*
X1875988Y1012999D01*
X1877988D01*
X1879987Y1011000D01*
Y1007001D01*
X1877988Y1005002D01*
X1873989D01*
X1871990Y1007001D01*
X1724008Y1016998D02*
Y1009000D01*
X1728007Y1005002D01*
X1732006Y1009000D01*
Y1016998D01*
X1736005D02*
Y1005002D01*
X1742003D01*
X1744002Y1007001D01*
Y1014998D01*
X1742003Y1016998D01*
X1736005D01*
X1755998D02*
X1751999Y1014998D01*
X1748001Y1011000D01*
Y1007001D01*
X1750000Y1005002D01*
X1753999D01*
X1755998Y1007001D01*
Y1009000D01*
X1753999Y1011000D01*
X1748001D01*
X1759997Y1003002D02*
X1767994D01*
X1771993Y1005002D02*
X1775992D01*
X1773992D01*
Y1016998D01*
X1771993Y1014998D01*
X1787988Y1005002D02*
Y1016998D01*
X1781990Y1011000D01*
X1789987D01*
X1634008Y1016998D02*
Y1009000D01*
X1638007Y1005002D01*
X1642006Y1009000D01*
Y1016998D01*
X1646005D02*
Y1005002D01*
X1652003D01*
X1654002Y1007001D01*
Y1014998D01*
X1652003Y1016998D01*
X1646005D01*
X1665998D02*
X1661999Y1014998D01*
X1658001Y1011000D01*
Y1007001D01*
X1660000Y1005002D01*
X1663999D01*
X1665998Y1007001D01*
Y1009000D01*
X1663999Y1011000D01*
X1658001D01*
X1669997Y1003002D02*
X1677994D01*
X1681993Y1005002D02*
X1685992D01*
X1683992D01*
Y1016998D01*
X1681993Y1014998D01*
X1691990D02*
X1693989Y1016998D01*
X1697988D01*
X1699987Y1014998D01*
Y1012999D01*
X1697988Y1011000D01*
X1695988D01*
X1697988D01*
X1699987Y1009000D01*
Y1007001D01*
X1697988Y1005002D01*
X1693989D01*
X1691990Y1007001D01*
X1544008Y1016998D02*
Y1009000D01*
X1548007Y1005002D01*
X1552006Y1009000D01*
Y1016998D01*
X1556005D02*
Y1005002D01*
X1562003D01*
X1564002Y1007001D01*
Y1014998D01*
X1562003Y1016998D01*
X1556005D01*
X1575998D02*
X1571999Y1014998D01*
X1568001Y1011000D01*
Y1007001D01*
X1570000Y1005002D01*
X1573999D01*
X1575998Y1007001D01*
Y1009000D01*
X1573999Y1011000D01*
X1568001D01*
X1579997Y1003002D02*
X1587994D01*
X1591993Y1005002D02*
X1595992D01*
X1593992D01*
Y1016998D01*
X1591993Y1014998D01*
X1609987Y1005002D02*
X1601990D01*
X1609987Y1012999D01*
Y1014998D01*
X1607988Y1016998D01*
X1603989D01*
X1601990Y1014998D01*
X1454008Y1016998D02*
Y1009000D01*
X1458007Y1005002D01*
X1462006Y1009000D01*
Y1016998D01*
X1466005D02*
Y1005002D01*
X1472003D01*
X1474002Y1007001D01*
Y1014998D01*
X1472003Y1016998D01*
X1466005D01*
X1485998D02*
X1481999Y1014998D01*
X1478001Y1011000D01*
Y1007001D01*
X1480000Y1005002D01*
X1483999D01*
X1485998Y1007001D01*
Y1009000D01*
X1483999Y1011000D01*
X1478001D01*
X1489997Y1003002D02*
X1497994D01*
X1501993Y1005002D02*
X1505992D01*
X1503992D01*
Y1016998D01*
X1501993Y1014998D01*
X1511990Y1005002D02*
X1515988D01*
X1513989D01*
Y1016998D01*
X1511990Y1014998D01*
X1364008Y1016998D02*
Y1009000D01*
X1368007Y1005002D01*
X1372006Y1009000D01*
Y1016998D01*
X1376005D02*
Y1005002D01*
X1382003D01*
X1384002Y1007001D01*
Y1014998D01*
X1382003Y1016998D01*
X1376005D01*
X1395998D02*
X1391999Y1014998D01*
X1388001Y1011000D01*
Y1007001D01*
X1390000Y1005002D01*
X1393999D01*
X1395998Y1007001D01*
Y1009000D01*
X1393999Y1011000D01*
X1388001D01*
X1399997Y1003002D02*
X1407994D01*
X1411993Y1005002D02*
X1415992D01*
X1413992D01*
Y1016998D01*
X1411993Y1014998D01*
X1421990D02*
X1423989Y1016998D01*
X1427988D01*
X1429987Y1014998D01*
Y1007001D01*
X1427988Y1005002D01*
X1423989D01*
X1421990Y1007001D01*
Y1014998D01*
X1274008Y1016998D02*
Y1009000D01*
X1278007Y1005002D01*
X1282006Y1009000D01*
Y1016998D01*
X1286005D02*
Y1005002D01*
X1292003D01*
X1294002Y1007001D01*
Y1014998D01*
X1292003Y1016998D01*
X1286005D01*
X1305998D02*
X1301999Y1014998D01*
X1298001Y1011000D01*
Y1007001D01*
X1300000Y1005002D01*
X1303999D01*
X1305998Y1007001D01*
Y1009000D01*
X1303999Y1011000D01*
X1298001D01*
X1309997Y1003002D02*
X1317994D01*
X1321993Y1007001D02*
X1323992Y1005002D01*
X1327991D01*
X1329990Y1007001D01*
Y1014998D01*
X1327991Y1016998D01*
X1323992D01*
X1321993Y1014998D01*
Y1012999D01*
X1323992Y1011000D01*
X1329990D01*
X1184008Y1016998D02*
Y1009000D01*
X1188007Y1005002D01*
X1192006Y1009000D01*
Y1016998D01*
X1196005D02*
Y1005002D01*
X1202003D01*
X1204002Y1007001D01*
Y1014998D01*
X1202003Y1016998D01*
X1196005D01*
X1215998D02*
X1211999Y1014998D01*
X1208001Y1011000D01*
Y1007001D01*
X1210000Y1005002D01*
X1213999D01*
X1215998Y1007001D01*
Y1009000D01*
X1213999Y1011000D01*
X1208001D01*
X1219997Y1003002D02*
X1227994D01*
X1231993Y1014998D02*
X1233992Y1016998D01*
X1237991D01*
X1239990Y1014998D01*
Y1012999D01*
X1237991Y1011000D01*
X1239990Y1009000D01*
Y1007001D01*
X1237991Y1005002D01*
X1233992D01*
X1231993Y1007001D01*
Y1009000D01*
X1233992Y1011000D01*
X1231993Y1012999D01*
Y1014998D01*
X1233992Y1011000D02*
X1237991D01*
X1094008Y1016998D02*
Y1009000D01*
X1098007Y1005002D01*
X1102006Y1009000D01*
Y1016998D01*
X1106004D02*
Y1005002D01*
X1112003D01*
X1114002Y1007001D01*
Y1014998D01*
X1112003Y1016998D01*
X1106004D01*
X1125998D02*
X1121999Y1014998D01*
X1118001Y1011000D01*
Y1007001D01*
X1120000Y1005002D01*
X1123999D01*
X1125998Y1007001D01*
Y1009000D01*
X1123999Y1011000D01*
X1118001D01*
X1129997Y1003002D02*
X1137994D01*
X1141993Y1016998D02*
X1149990D01*
Y1014998D01*
X1141993Y1007001D01*
Y1005002D01*
X992009Y956998D02*
Y949000D01*
X996008Y945002D01*
X1000006Y949000D01*
Y956998D01*
X1004005D02*
Y945002D01*
X1010003D01*
X1012003Y947001D01*
Y954998D01*
X1010003Y956998D01*
X1004005D01*
X1023999D02*
X1020000Y954998D01*
X1016001Y951000D01*
Y947001D01*
X1018001Y945002D01*
X1021999D01*
X1023999Y947001D01*
Y949000D01*
X1021999Y951000D01*
X1016001D01*
X1027997Y943002D02*
X1035995D01*
X1047991Y956998D02*
X1043992Y954998D01*
X1039994Y951000D01*
Y947001D01*
X1041993Y945002D01*
X1045992D01*
X1047991Y947001D01*
Y949000D01*
X1045992Y951000D01*
X1039994D01*
X904008Y956998D02*
Y949000D01*
X908007Y945002D01*
X912006Y949000D01*
Y956998D01*
X916004D02*
Y945002D01*
X922003D01*
X924002Y947001D01*
Y954998D01*
X922003Y956998D01*
X916004D01*
X935998D02*
X931999Y954998D01*
X928001Y951000D01*
Y947001D01*
X930000Y945002D01*
X933999D01*
X935998Y947001D01*
Y949000D01*
X933999Y951000D01*
X928001D01*
X939997Y943002D02*
X947994D01*
X959990Y956998D02*
X951993D01*
Y951000D01*
X955992Y952999D01*
X957991D01*
X959990Y951000D01*
Y947001D01*
X957991Y945002D01*
X953992D01*
X951993Y947001D01*
X824358Y1016748D02*
Y1008750D01*
X828357Y1004752D01*
X832356Y1008750D01*
Y1016748D01*
X836355D02*
Y1004752D01*
X842353D01*
X844352Y1006751D01*
Y1014748D01*
X842353Y1016748D01*
X836355D01*
X856348D02*
X852349Y1014748D01*
X848351Y1010750D01*
Y1006751D01*
X850350Y1004752D01*
X854349D01*
X856348Y1006751D01*
Y1008750D01*
X854349Y1010750D01*
X848351D01*
X860347Y1002752D02*
X868344D01*
X878341Y1004752D02*
Y1016748D01*
X872343Y1010750D01*
X880340D01*
X734008Y1016998D02*
Y1009000D01*
X738007Y1005002D01*
X742006Y1009000D01*
Y1016998D01*
X746005D02*
Y1005002D01*
X752003D01*
X754002Y1007001D01*
Y1014998D01*
X752003Y1016998D01*
X746005D01*
X765998D02*
X761999Y1014998D01*
X758001Y1011000D01*
Y1007001D01*
X760000Y1005002D01*
X763999D01*
X765998Y1007001D01*
Y1009000D01*
X763999Y1011000D01*
X758001D01*
X769997Y1003002D02*
X777994D01*
X781993Y1014998D02*
X783992Y1016998D01*
X787991D01*
X789990Y1014998D01*
Y1012999D01*
X787991Y1011000D01*
X785992D01*
X787991D01*
X789990Y1009000D01*
Y1007001D01*
X787991Y1005002D01*
X783992D01*
X781993Y1007001D01*
X644008Y1016998D02*
Y1009000D01*
X648007Y1005002D01*
X652006Y1009000D01*
Y1016998D01*
X656005D02*
Y1005002D01*
X662003D01*
X664002Y1007001D01*
Y1014998D01*
X662003Y1016998D01*
X656005D01*
X675998D02*
X671999Y1014998D01*
X668001Y1011000D01*
Y1007001D01*
X670000Y1005002D01*
X673999D01*
X675998Y1007001D01*
Y1009000D01*
X673999Y1011000D01*
X668001D01*
X679997Y1003002D02*
X687994D01*
X699990Y1005002D02*
X691993D01*
X699990Y1012999D01*
Y1014998D01*
X697991Y1016998D01*
X693992D01*
X691993Y1014998D01*
X554008Y1016998D02*
Y1009000D01*
X558007Y1005002D01*
X562006Y1009000D01*
Y1016998D01*
X566005D02*
Y1005002D01*
X572003D01*
X574002Y1007001D01*
Y1014998D01*
X572003Y1016998D01*
X566005D01*
X585998D02*
X581999Y1014998D01*
X578001Y1011000D01*
Y1007001D01*
X580000Y1005002D01*
X583999D01*
X585998Y1007001D01*
Y1009000D01*
X583999Y1011000D01*
X578001D01*
X589997Y1003002D02*
X597994D01*
X601993Y1005002D02*
X605992D01*
X603992D01*
Y1016998D01*
X601993Y1014998D01*
X2704008Y416998D02*
Y409000D01*
X2708007Y405002D01*
X2712006Y409000D01*
Y416998D01*
X2716005D02*
Y405002D01*
X2722003D01*
X2724002Y407001D01*
Y414998D01*
X2722003Y416998D01*
X2716005D01*
X2735998D02*
X2728001D01*
Y411000D01*
X2732000Y412999D01*
X2733999D01*
X2735998Y411000D01*
Y407001D01*
X2733999Y405002D01*
X2730000D01*
X2728001Y407001D01*
X2739997Y403002D02*
X2747994D01*
X2759990Y405002D02*
X2751993D01*
X2759990Y412999D01*
Y414998D01*
X2757991Y416998D01*
X2753992D01*
X2751993Y414998D01*
X2771986Y416998D02*
X2763989D01*
Y411000D01*
X2767988Y412999D01*
X2769987D01*
X2771986Y411000D01*
Y407001D01*
X2769987Y405002D01*
X2765988D01*
X2763989Y407001D01*
X2614008Y416998D02*
Y409000D01*
X2618007Y405002D01*
X2622006Y409000D01*
Y416998D01*
X2626005D02*
Y405002D01*
X2632003D01*
X2634002Y407001D01*
Y414998D01*
X2632003Y416998D01*
X2626005D01*
X2645998D02*
X2638001D01*
Y411000D01*
X2642000Y412999D01*
X2643999D01*
X2645998Y411000D01*
Y407001D01*
X2643999Y405002D01*
X2640000D01*
X2638001Y407001D01*
X2649997Y403002D02*
X2657994D01*
X2669990Y405002D02*
X2661993D01*
X2669990Y412999D01*
Y414998D01*
X2667991Y416998D01*
X2663992D01*
X2661993Y414998D01*
X2679987Y405002D02*
Y416998D01*
X2673989Y411000D01*
X2681986D01*
X2524008Y416998D02*
Y409000D01*
X2528007Y405002D01*
X2532006Y409000D01*
Y416998D01*
X2536005D02*
Y405002D01*
X2542003D01*
X2544002Y407001D01*
Y414998D01*
X2542003Y416998D01*
X2536005D01*
X2555998D02*
X2548001D01*
Y411000D01*
X2551999Y412999D01*
X2553999D01*
X2555998Y411000D01*
Y407001D01*
X2553999Y405002D01*
X2550000D01*
X2548001Y407001D01*
X2559997Y403002D02*
X2567994D01*
X2579990Y405002D02*
X2571993D01*
X2579990Y412999D01*
Y414998D01*
X2577991Y416998D01*
X2573992D01*
X2571993Y414998D01*
X2583989D02*
X2585988Y416998D01*
X2589987D01*
X2591986Y414998D01*
Y412999D01*
X2589987Y411000D01*
X2587988D01*
X2589987D01*
X2591986Y409000D01*
Y407001D01*
X2589987Y405002D01*
X2585988D01*
X2583989Y407001D01*
X2434008Y416998D02*
Y409000D01*
X2438007Y405002D01*
X2442006Y409000D01*
Y416998D01*
X2446005D02*
Y405002D01*
X2452003D01*
X2454002Y407001D01*
Y414998D01*
X2452003Y416998D01*
X2446005D01*
X2465998D02*
X2458001D01*
Y411000D01*
X2461999Y412999D01*
X2463999D01*
X2465998Y411000D01*
Y407001D01*
X2463999Y405002D01*
X2460000D01*
X2458001Y407001D01*
X2469997Y403002D02*
X2477994D01*
X2489990Y405002D02*
X2481993D01*
X2489990Y412999D01*
Y414998D01*
X2487991Y416998D01*
X2483992D01*
X2481993Y414998D01*
X2501986Y405002D02*
X2493989D01*
X2501986Y412999D01*
Y414998D01*
X2499987Y416998D01*
X2495988D01*
X2493989Y414998D01*
X2344008Y416998D02*
Y409000D01*
X2348007Y405002D01*
X2352006Y409000D01*
Y416998D01*
X2356005D02*
Y405002D01*
X2362003D01*
X2364002Y407001D01*
Y414998D01*
X2362003Y416998D01*
X2356005D01*
X2375998D02*
X2368001D01*
Y411000D01*
X2371999Y412999D01*
X2373999D01*
X2375998Y411000D01*
Y407001D01*
X2373999Y405002D01*
X2370000D01*
X2368001Y407001D01*
X2379997Y403002D02*
X2387994D01*
X2399990Y405002D02*
X2391993D01*
X2399990Y412999D01*
Y414998D01*
X2397991Y416998D01*
X2393992D01*
X2391993Y414998D01*
X2403989Y405002D02*
X2407988D01*
X2405988D01*
Y416998D01*
X2403989Y414998D01*
X2253646Y416998D02*
Y409000D01*
X2257645Y405002D01*
X2261644Y409000D01*
Y416998D01*
X2265643D02*
Y405002D01*
X2271640D01*
X2273640Y407001D01*
Y414998D01*
X2271640Y416998D01*
X2265643D01*
X2285636D02*
X2277639D01*
Y411000D01*
X2281637Y412999D01*
X2283637D01*
X2285636Y411000D01*
Y407001D01*
X2283637Y405002D01*
X2279638D01*
X2277639Y407001D01*
X2289635Y403002D02*
X2297632D01*
X2309628Y405002D02*
X2301631D01*
X2309628Y412999D01*
Y414998D01*
X2307629Y416998D01*
X2303630D01*
X2301631Y414998D01*
X2313627D02*
X2315626Y416998D01*
X2319625D01*
X2321624Y414998D01*
Y407001D01*
X2319625Y405002D01*
X2315626D01*
X2313627Y407001D01*
Y414998D01*
X2163906Y417301D02*
Y409304D01*
X2167904Y405305D01*
X2171903Y409304D01*
Y417301D01*
X2175902D02*
Y405305D01*
X2181900D01*
X2183899Y407304D01*
Y415302D01*
X2181900Y417301D01*
X2175902D01*
X2195895D02*
X2187898D01*
Y411303D01*
X2191897Y413302D01*
X2193896D01*
X2195895Y411303D01*
Y407304D01*
X2193896Y405305D01*
X2189897D01*
X2187898Y407304D01*
X2199894Y403306D02*
X2207892D01*
X2211890Y405305D02*
X2215889D01*
X2213890D01*
Y417301D01*
X2211890Y415302D01*
X2221887Y407304D02*
X2223886Y405305D01*
X2227885D01*
X2229884Y407304D01*
Y415302D01*
X2227885Y417301D01*
X2223886D01*
X2221887Y415302D01*
Y413302D01*
X2223886Y411303D01*
X2229884D01*
X2074008Y416998D02*
Y409000D01*
X2078007Y405002D01*
X2082006Y409000D01*
Y416998D01*
X2086004D02*
Y405002D01*
X2092003D01*
X2094002Y407001D01*
Y414998D01*
X2092003Y416998D01*
X2086004D01*
X2105998D02*
X2098001D01*
Y411000D01*
X2101999Y412999D01*
X2103999D01*
X2105998Y411000D01*
Y407001D01*
X2103999Y405002D01*
X2100000D01*
X2098001Y407001D01*
X2109997Y403002D02*
X2117994D01*
X2121993Y405002D02*
X2125992D01*
X2123992D01*
Y416998D01*
X2121993Y414998D01*
X2131990D02*
X2133989Y416998D01*
X2137988D01*
X2139987Y414998D01*
Y412999D01*
X2137988Y411000D01*
X2139987Y409000D01*
Y407001D01*
X2137988Y405002D01*
X2133989D01*
X2131990Y407001D01*
Y409000D01*
X2133989Y411000D01*
X2131990Y412999D01*
Y414998D01*
X2133989Y411000D02*
X2137988D01*
X1987011Y436998D02*
Y429000D01*
X1991009Y425002D01*
X1995008Y429000D01*
Y436998D01*
X1999007D02*
Y425002D01*
X2005005D01*
X2007004Y427001D01*
Y434998D01*
X2005005Y436998D01*
X1999007D01*
X2019000D02*
X2011003D01*
Y431000D01*
X2015002Y432999D01*
X2017001D01*
X2019000Y431000D01*
Y427001D01*
X2017001Y425002D01*
X2013002D01*
X2011003Y427001D01*
X2022999Y423002D02*
X2030996D01*
X2034995Y425002D02*
X2038994D01*
X2036994D01*
Y436998D01*
X2034995Y434998D01*
X2044992Y436998D02*
X2052989D01*
Y434998D01*
X2044992Y427001D01*
Y425002D01*
X1892009Y436998D02*
Y429000D01*
X1896008Y425002D01*
X1900007Y429000D01*
Y436998D01*
X1904005D02*
Y425002D01*
X1910003D01*
X1912003Y427001D01*
Y434998D01*
X1910003Y436998D01*
X1904005D01*
X1923999D02*
X1916001D01*
Y431000D01*
X1920000Y432999D01*
X1921999D01*
X1923999Y431000D01*
Y427001D01*
X1921999Y425002D01*
X1918001D01*
X1916001Y427001D01*
X1927997Y423002D02*
X1935995D01*
X1939993Y425002D02*
X1943992D01*
X1941993D01*
Y436998D01*
X1939993Y434998D01*
X1957988Y436998D02*
X1953989Y434998D01*
X1949990Y431000D01*
Y427001D01*
X1951990Y425002D01*
X1955988D01*
X1957988Y427001D01*
Y429000D01*
X1955988Y431000D01*
X1949990D01*
X1804008Y416998D02*
Y409000D01*
X1808007Y405002D01*
X1812006Y409000D01*
Y416998D01*
X1816004D02*
Y405002D01*
X1822003D01*
X1824002Y407001D01*
Y414998D01*
X1822003Y416998D01*
X1816004D01*
X1835998D02*
X1828001D01*
Y411000D01*
X1831999Y412999D01*
X1833999D01*
X1835998Y411000D01*
Y407001D01*
X1833999Y405002D01*
X1830000D01*
X1828001Y407001D01*
X1839997Y403002D02*
X1847994D01*
X1851993Y405002D02*
X1855992D01*
X1853992D01*
Y416998D01*
X1851993Y414998D01*
X1869987Y416998D02*
X1861990D01*
Y411000D01*
X1865988Y412999D01*
X1867988D01*
X1869987Y411000D01*
Y407001D01*
X1867988Y405002D01*
X1863989D01*
X1861990Y407001D01*
X1714008Y416998D02*
Y409000D01*
X1718007Y405002D01*
X1722006Y409000D01*
Y416998D01*
X1726004D02*
Y405002D01*
X1732003D01*
X1734002Y407001D01*
Y414998D01*
X1732003Y416998D01*
X1726004D01*
X1745998D02*
X1738001D01*
Y411000D01*
X1741999Y412999D01*
X1743999D01*
X1745998Y411000D01*
Y407001D01*
X1743999Y405002D01*
X1740000D01*
X1738001Y407001D01*
X1749997Y403002D02*
X1757994D01*
X1761993Y405002D02*
X1765992D01*
X1763992D01*
Y416998D01*
X1761993Y414998D01*
X1777988Y405002D02*
Y416998D01*
X1771990Y411000D01*
X1779987D01*
X1624008Y416998D02*
Y409000D01*
X1628007Y405002D01*
X1632006Y409000D01*
Y416998D01*
X1636005D02*
Y405002D01*
X1642003D01*
X1644002Y407001D01*
Y414998D01*
X1642003Y416998D01*
X1636005D01*
X1655998D02*
X1648001D01*
Y411000D01*
X1651999Y412999D01*
X1653999D01*
X1655998Y411000D01*
Y407001D01*
X1653999Y405002D01*
X1650000D01*
X1648001Y407001D01*
X1659997Y403002D02*
X1667994D01*
X1671993Y405002D02*
X1675992D01*
X1673992D01*
Y416998D01*
X1671993Y414998D01*
X1681990D02*
X1683989Y416998D01*
X1687988D01*
X1689987Y414998D01*
Y412999D01*
X1687988Y411000D01*
X1685988D01*
X1687988D01*
X1689987Y409000D01*
Y407001D01*
X1687988Y405002D01*
X1683989D01*
X1681990Y407001D01*
X1534008Y416998D02*
Y409000D01*
X1538007Y405002D01*
X1542006Y409000D01*
Y416998D01*
X1546005D02*
Y405002D01*
X1552003D01*
X1554002Y407001D01*
Y414998D01*
X1552003Y416998D01*
X1546005D01*
X1565998D02*
X1558001D01*
Y411000D01*
X1561999Y412999D01*
X1563999D01*
X1565998Y411000D01*
Y407001D01*
X1563999Y405002D01*
X1560000D01*
X1558001Y407001D01*
X1569997Y403002D02*
X1577994D01*
X1581993Y405002D02*
X1585992D01*
X1583992D01*
Y416998D01*
X1581993Y414998D01*
X1599987Y405002D02*
X1591990D01*
X1599987Y412999D01*
Y414998D01*
X1597988Y416998D01*
X1593989D01*
X1591990Y414998D01*
X1444008Y416998D02*
Y409000D01*
X1448007Y405002D01*
X1452006Y409000D01*
Y416998D01*
X1456005D02*
Y405002D01*
X1462003D01*
X1464002Y407001D01*
Y414998D01*
X1462003Y416998D01*
X1456005D01*
X1475998D02*
X1468001D01*
Y411000D01*
X1471999Y412999D01*
X1473999D01*
X1475998Y411000D01*
Y407001D01*
X1473999Y405002D01*
X1470000D01*
X1468001Y407001D01*
X1479997Y403002D02*
X1487994D01*
X1491993Y405002D02*
X1495992D01*
X1493992D01*
Y416998D01*
X1491993Y414998D01*
X1501990Y405002D02*
X1505988D01*
X1503989D01*
Y416998D01*
X1501990Y414998D01*
X1354008Y416998D02*
Y409000D01*
X1358007Y405002D01*
X1362006Y409000D01*
Y416998D01*
X1366005D02*
Y405002D01*
X1372003D01*
X1374002Y407001D01*
Y414998D01*
X1372003Y416998D01*
X1366005D01*
X1385998D02*
X1378001D01*
Y411000D01*
X1381999Y412999D01*
X1383999D01*
X1385998Y411000D01*
Y407001D01*
X1383999Y405002D01*
X1380000D01*
X1378001Y407001D01*
X1389997Y403002D02*
X1397994D01*
X1401993Y405002D02*
X1405992D01*
X1403992D01*
Y416998D01*
X1401993Y414998D01*
X1411990D02*
X1413989Y416998D01*
X1417988D01*
X1419987Y414998D01*
Y407001D01*
X1417988Y405002D01*
X1413989D01*
X1411990Y407001D01*
Y414998D01*
X1262009Y416998D02*
Y409000D01*
X1266008Y405002D01*
X1270006Y409000D01*
Y416998D01*
X1274005D02*
Y405002D01*
X1280003D01*
X1282003Y407001D01*
Y414998D01*
X1280003Y416998D01*
X1274005D01*
X1293999D02*
X1286001D01*
Y411000D01*
X1290000Y412999D01*
X1291999D01*
X1293999Y411000D01*
Y407001D01*
X1291999Y405002D01*
X1288001D01*
X1286001Y407001D01*
X1297997Y403002D02*
X1305995D01*
X1309993Y407001D02*
X1311993Y405002D01*
X1315992D01*
X1317991Y407001D01*
Y414998D01*
X1315992Y416998D01*
X1311993D01*
X1309993Y414998D01*
Y412999D01*
X1311993Y411000D01*
X1317991D01*
X1172009Y416998D02*
Y409000D01*
X1176008Y405002D01*
X1180006Y409000D01*
Y416998D01*
X1184005D02*
Y405002D01*
X1190003D01*
X1192003Y407001D01*
Y414998D01*
X1190003Y416998D01*
X1184005D01*
X1203999D02*
X1196001D01*
Y411000D01*
X1200000Y412999D01*
X1201999D01*
X1203999Y411000D01*
Y407001D01*
X1201999Y405002D01*
X1198001D01*
X1196001Y407001D01*
X1207997Y403002D02*
X1215995D01*
X1219994Y414998D02*
X1221993Y416998D01*
X1225992D01*
X1227991Y414998D01*
Y412999D01*
X1225992Y411000D01*
X1227991Y409000D01*
Y407001D01*
X1225992Y405002D01*
X1221993D01*
X1219994Y407001D01*
Y409000D01*
X1221993Y411000D01*
X1219994Y412999D01*
Y414998D01*
X1221993Y411000D02*
X1225992D01*
X1082009Y416998D02*
Y409000D01*
X1086008Y405002D01*
X1090006Y409000D01*
Y416998D01*
X1094005D02*
Y405002D01*
X1100003D01*
X1102003Y407001D01*
Y414998D01*
X1100003Y416998D01*
X1094005D01*
X1113999D02*
X1106001D01*
Y411000D01*
X1110000Y412999D01*
X1111999D01*
X1113999Y411000D01*
Y407001D01*
X1111999Y405002D01*
X1108001D01*
X1106001Y407001D01*
X1117997Y403002D02*
X1125995D01*
X1129994Y416998D02*
X1137991D01*
Y414998D01*
X1129994Y407001D01*
Y405002D01*
X992009Y436998D02*
Y429000D01*
X996008Y425002D01*
X1000006Y429000D01*
Y436998D01*
X1004005D02*
Y425002D01*
X1010003D01*
X1012003Y427001D01*
Y434998D01*
X1010003Y436998D01*
X1004005D01*
X1023999D02*
X1016001D01*
Y431000D01*
X1020000Y432999D01*
X1021999D01*
X1023999Y431000D01*
Y427001D01*
X1021999Y425002D01*
X1018001D01*
X1016001Y427001D01*
X1027997Y423002D02*
X1035995D01*
X1047991Y436998D02*
X1043992Y434998D01*
X1039994Y431000D01*
Y427001D01*
X1041993Y425002D01*
X1045992D01*
X1047991Y427001D01*
Y429000D01*
X1045992Y431000D01*
X1039994D01*
X902009Y436998D02*
Y429000D01*
X906008Y425002D01*
X910006Y429000D01*
Y436998D01*
X914005D02*
Y425002D01*
X920003D01*
X922003Y427001D01*
Y434998D01*
X920003Y436998D01*
X914005D01*
X933999D02*
X926001D01*
Y431000D01*
X930000Y432999D01*
X931999D01*
X933999Y431000D01*
Y427001D01*
X931999Y425002D01*
X928001D01*
X926001Y427001D01*
X937997Y423002D02*
X945995D01*
X957991Y436998D02*
X949994D01*
Y431000D01*
X953992Y432999D01*
X955992D01*
X957991Y431000D01*
Y427001D01*
X955992Y425002D01*
X951993D01*
X949994Y427001D01*
X812009Y416998D02*
Y409000D01*
X816008Y405002D01*
X820006Y409000D01*
Y416998D01*
X824005D02*
Y405002D01*
X830003D01*
X832003Y407001D01*
Y414998D01*
X830003Y416998D01*
X824005D01*
X843999D02*
X836001D01*
Y411000D01*
X840000Y412999D01*
X841999D01*
X843999Y411000D01*
Y407001D01*
X841999Y405002D01*
X838001D01*
X836001Y407001D01*
X847997Y403002D02*
X855995D01*
X865992Y405002D02*
Y416998D01*
X859994Y411000D01*
X867991D01*
X722009Y416998D02*
Y409000D01*
X726008Y405002D01*
X730006Y409000D01*
Y416998D01*
X734005D02*
Y405002D01*
X740003D01*
X742003Y407001D01*
Y414998D01*
X740003Y416998D01*
X734005D01*
X753999D02*
X746001D01*
Y411000D01*
X750000Y412999D01*
X751999D01*
X753999Y411000D01*
Y407001D01*
X751999Y405002D01*
X748001D01*
X746001Y407001D01*
X757997Y403002D02*
X765995D01*
X769994Y414998D02*
X771993Y416998D01*
X775992D01*
X777991Y414998D01*
Y412999D01*
X775992Y411000D01*
X773992D01*
X775992D01*
X777991Y409000D01*
Y407001D01*
X775992Y405002D01*
X771993D01*
X769994Y407001D01*
X643882Y416713D02*
Y408716D01*
X647881Y404717D01*
X651880Y408716D01*
Y416713D01*
X655878D02*
Y404717D01*
X661876D01*
X663876Y406717D01*
Y414714D01*
X661876Y416713D01*
X655878D01*
X675872D02*
X667874D01*
Y410715D01*
X671873Y412715D01*
X673872D01*
X675872Y410715D01*
Y406717D01*
X673872Y404717D01*
X669874D01*
X667874Y406717D01*
X679870Y402718D02*
X687868D01*
X699864Y404717D02*
X691867D01*
X699864Y412715D01*
Y414714D01*
X697865Y416713D01*
X693866D01*
X691867Y414714D01*
X553882Y416713D02*
Y408716D01*
X557881Y404717D01*
X561880Y408716D01*
Y416713D01*
X565878D02*
Y404717D01*
X571876D01*
X573876Y406717D01*
Y414714D01*
X571876Y416713D01*
X565878D01*
X585872D02*
X577874D01*
Y410715D01*
X581873Y412715D01*
X583872D01*
X585872Y410715D01*
Y406717D01*
X583872Y404717D01*
X579874D01*
X577874Y406717D01*
X589870Y402718D02*
X597868D01*
X601866Y404717D02*
X605865D01*
X603866D01*
Y416713D01*
X601866Y414714D01*
X474005Y420998D02*
Y413001D01*
X478004Y409002D01*
X482003Y413001D01*
Y420998D01*
X486001D02*
Y409002D01*
X491999D01*
X493999Y411001D01*
Y418999D01*
X491999Y420998D01*
X486001D01*
X503996Y409002D02*
Y420998D01*
X497997Y415000D01*
X505995D01*
X381564Y506364D02*
Y498367D01*
X385563Y494368D01*
X389562Y498367D01*
Y506364D01*
X393560D02*
Y494368D01*
X399558D01*
X401558Y496367D01*
Y504365D01*
X399558Y506364D01*
X393560D01*
X405556Y504365D02*
X407556Y506364D01*
X411555D01*
X413554Y504365D01*
Y502365D01*
X411555Y500366D01*
X409555D01*
X411555D01*
X413554Y498367D01*
Y496367D01*
X411555Y494368D01*
X407556D01*
X405556Y496367D01*
X243005Y420998D02*
Y413001D01*
X247004Y409002D01*
X251003Y413001D01*
Y420998D01*
X255001D02*
Y409002D01*
X260999D01*
X262999Y411001D01*
Y418999D01*
X260999Y420998D01*
X255001D01*
X274995Y409002D02*
X266997D01*
X274995Y416999D01*
Y418999D01*
X272995Y420998D01*
X268997D01*
X266997Y418999D01*
X335505Y420998D02*
Y413001D01*
X339503Y409002D01*
X343502Y413001D01*
Y420998D01*
X347501D02*
Y409002D01*
X353499D01*
X355498Y411001D01*
Y418999D01*
X353499Y420998D01*
X347501D01*
X359497Y409002D02*
X363495D01*
X361496D01*
Y420998D01*
X359497Y418999D01*
X2744998Y565008D02*
X2733002D01*
Y571006D01*
X2735002Y573005D01*
X2739000D01*
X2741000Y571006D01*
Y565008D01*
Y569007D02*
X2744998Y573005D01*
Y577004D02*
Y581003D01*
Y579004D01*
X2733002D01*
X2735002Y577004D01*
Y587001D02*
X2733002Y589000D01*
Y592999D01*
X2735002Y594998D01*
X2737001D01*
X2739000Y592999D01*
X2741000Y594998D01*
X2742999D01*
X2744998Y592999D01*
Y589000D01*
X2742999Y587001D01*
X2741000D01*
X2739000Y589000D01*
X2737001Y587001D01*
X2735002D01*
X2739000Y589000D02*
Y592999D01*
X2746998Y598997D02*
Y606995D01*
X2744998Y618991D02*
Y610993D01*
X2737001Y618991D01*
X2735002D01*
X2733002Y616991D01*
Y612993D01*
X2735002Y610993D01*
X2733002Y630987D02*
Y622989D01*
X2739000D01*
X2737001Y626988D01*
Y628987D01*
X2739000Y630987D01*
X2742999D01*
X2744998Y628987D01*
Y624989D01*
X2742999Y622989D01*
X2654998Y565008D02*
X2643002D01*
Y571006D01*
X2645002Y573005D01*
X2649000D01*
X2651000Y571006D01*
Y565008D01*
Y569007D02*
X2654998Y573005D01*
Y577004D02*
Y581003D01*
Y579004D01*
X2643002D01*
X2645002Y577004D01*
Y587001D02*
X2643002Y589000D01*
Y592999D01*
X2645002Y594998D01*
X2647001D01*
X2649000Y592999D01*
X2651000Y594998D01*
X2652999D01*
X2654998Y592999D01*
Y589000D01*
X2652999Y587001D01*
X2651000D01*
X2649000Y589000D01*
X2647001Y587001D01*
X2645002D01*
X2649000Y589000D02*
Y592999D01*
X2656998Y598997D02*
Y606995D01*
X2654998Y618991D02*
Y610993D01*
X2647001Y618991D01*
X2645002D01*
X2643002Y616991D01*
Y612993D01*
X2645002Y610993D01*
X2654998Y628987D02*
X2643002D01*
X2649000Y622989D01*
Y630987D01*
X2564998Y565008D02*
X2553002D01*
Y571006D01*
X2555002Y573005D01*
X2559000D01*
X2561000Y571006D01*
Y565008D01*
Y569007D02*
X2564998Y573005D01*
Y577004D02*
Y581003D01*
Y579004D01*
X2553002D01*
X2555002Y577004D01*
Y587001D02*
X2553002Y589000D01*
Y592999D01*
X2555002Y594998D01*
X2557001D01*
X2559000Y592999D01*
X2561000Y594998D01*
X2562999D01*
X2564998Y592999D01*
Y589000D01*
X2562999Y587001D01*
X2561000D01*
X2559000Y589000D01*
X2557001Y587001D01*
X2555002D01*
X2559000Y589000D02*
Y592999D01*
X2566998Y598997D02*
Y606995D01*
X2564998Y618991D02*
Y610993D01*
X2557001Y618991D01*
X2555002D01*
X2553002Y616991D01*
Y612993D01*
X2555002Y610993D01*
Y622989D02*
X2553002Y624989D01*
Y628987D01*
X2555002Y630987D01*
X2557001D01*
X2559000Y628987D01*
Y626988D01*
Y628987D01*
X2561000Y630987D01*
X2562999D01*
X2564998Y628987D01*
Y624989D01*
X2562999Y622989D01*
X2474998Y565008D02*
X2463002D01*
Y571006D01*
X2465002Y573005D01*
X2469000D01*
X2471000Y571006D01*
Y565008D01*
Y569007D02*
X2474998Y573005D01*
Y577004D02*
Y581003D01*
Y579004D01*
X2463002D01*
X2465002Y577004D01*
Y587001D02*
X2463002Y589000D01*
Y592999D01*
X2465002Y594998D01*
X2467001D01*
X2469000Y592999D01*
X2471000Y594998D01*
X2472999D01*
X2474998Y592999D01*
Y589000D01*
X2472999Y587001D01*
X2471000D01*
X2469000Y589000D01*
X2467001Y587001D01*
X2465002D01*
X2469000Y589000D02*
Y592999D01*
X2476998Y598997D02*
Y606995D01*
X2474998Y618991D02*
Y610993D01*
X2467001Y618991D01*
X2465002D01*
X2463002Y616991D01*
Y612993D01*
X2465002Y610993D01*
X2474998Y630987D02*
Y622989D01*
X2467001Y630987D01*
X2465002D01*
X2463002Y628987D01*
Y624989D01*
X2465002Y622989D01*
X2384998Y565008D02*
X2373002D01*
Y571006D01*
X2375002Y573005D01*
X2379000D01*
X2381000Y571006D01*
Y565008D01*
Y569007D02*
X2384998Y573005D01*
Y577004D02*
Y581003D01*
Y579004D01*
X2373002D01*
X2375002Y577004D01*
Y587001D02*
X2373002Y589000D01*
Y592999D01*
X2375002Y594998D01*
X2377001D01*
X2379000Y592999D01*
X2381000Y594998D01*
X2382999D01*
X2384998Y592999D01*
Y589000D01*
X2382999Y587001D01*
X2381000D01*
X2379000Y589000D01*
X2377001Y587001D01*
X2375002D01*
X2379000Y589000D02*
Y592999D01*
X2386998Y598997D02*
Y606995D01*
X2384998Y618991D02*
Y610993D01*
X2377001Y618991D01*
X2375002D01*
X2373002Y616991D01*
Y612993D01*
X2375002Y610993D01*
X2384998Y622989D02*
Y626988D01*
Y624989D01*
X2373002D01*
X2375002Y622989D01*
X2294998Y565008D02*
X2283002D01*
Y571006D01*
X2285002Y573005D01*
X2289000D01*
X2291000Y571006D01*
Y565008D01*
Y569007D02*
X2294998Y573005D01*
Y577004D02*
Y581003D01*
Y579004D01*
X2283002D01*
X2285002Y577004D01*
Y587001D02*
X2283002Y589000D01*
Y592999D01*
X2285002Y594998D01*
X2287001D01*
X2289000Y592999D01*
X2291000Y594998D01*
X2292999D01*
X2294998Y592999D01*
Y589000D01*
X2292999Y587001D01*
X2291000D01*
X2289000Y589000D01*
X2287001Y587001D01*
X2285002D01*
X2289000Y589000D02*
Y592999D01*
X2296998Y598997D02*
Y606995D01*
X2294998Y618991D02*
Y610993D01*
X2287001Y618991D01*
X2285002D01*
X2283002Y616991D01*
Y612993D01*
X2285002Y610993D01*
Y622989D02*
X2283002Y624989D01*
Y628987D01*
X2285002Y630987D01*
X2292999D01*
X2294998Y628987D01*
Y624989D01*
X2292999Y622989D01*
X2285002D01*
X2204998Y565008D02*
X2193002D01*
Y571006D01*
X2195002Y573005D01*
X2199000D01*
X2201000Y571006D01*
Y565008D01*
Y569007D02*
X2204998Y573005D01*
Y577004D02*
Y581003D01*
Y579004D01*
X2193002D01*
X2195002Y577004D01*
Y587001D02*
X2193002Y589000D01*
Y592999D01*
X2195002Y594998D01*
X2197001D01*
X2199000Y592999D01*
X2201000Y594998D01*
X2202999D01*
X2204998Y592999D01*
Y589000D01*
X2202999Y587001D01*
X2201000D01*
X2199000Y589000D01*
X2197001Y587001D01*
X2195002D01*
X2199000Y589000D02*
Y592999D01*
X2206998Y598997D02*
Y606995D01*
X2204998Y610993D02*
Y614992D01*
Y612993D01*
X2193002D01*
X2195002Y610993D01*
X2202999Y620990D02*
X2204998Y622989D01*
Y626988D01*
X2202999Y628987D01*
X2195002D01*
X2193002Y626988D01*
Y622989D01*
X2195002Y620990D01*
X2197001D01*
X2199000Y622989D01*
Y628987D01*
X2114998Y565008D02*
X2103002D01*
Y571006D01*
X2105002Y573005D01*
X2109000D01*
X2111000Y571006D01*
Y565008D01*
Y569007D02*
X2114998Y573005D01*
Y577004D02*
Y581003D01*
Y579004D01*
X2103002D01*
X2105002Y577004D01*
Y587001D02*
X2103002Y589000D01*
Y592999D01*
X2105002Y594998D01*
X2107001D01*
X2109000Y592999D01*
X2111000Y594998D01*
X2112999D01*
X2114998Y592999D01*
Y589000D01*
X2112999Y587001D01*
X2111000D01*
X2109000Y589000D01*
X2107001Y587001D01*
X2105002D01*
X2109000Y589000D02*
Y592999D01*
X2116998Y598997D02*
Y606995D01*
X2114998Y610993D02*
Y614992D01*
Y612993D01*
X2103002D01*
X2105002Y610993D01*
Y620990D02*
X2103002Y622989D01*
Y626988D01*
X2105002Y628987D01*
X2107001D01*
X2109000Y626988D01*
X2111000Y628987D01*
X2112999D01*
X2114998Y626988D01*
Y622989D01*
X2112999Y620990D01*
X2111000D01*
X2109000Y622989D01*
X2107001Y620990D01*
X2105002D01*
X2109000Y622989D02*
Y626988D01*
X2024998Y565008D02*
X2013002D01*
Y571006D01*
X2015002Y573005D01*
X2019000D01*
X2021000Y571006D01*
Y565008D01*
Y569007D02*
X2024998Y573005D01*
Y577004D02*
Y581003D01*
Y579004D01*
X2013002D01*
X2015002Y577004D01*
Y587001D02*
X2013002Y589000D01*
Y592999D01*
X2015002Y594998D01*
X2017001D01*
X2019000Y592999D01*
X2021000Y594998D01*
X2022999D01*
X2024998Y592999D01*
Y589000D01*
X2022999Y587001D01*
X2021000D01*
X2019000Y589000D01*
X2017001Y587001D01*
X2015002D01*
X2019000Y589000D02*
Y592999D01*
X2026998Y598997D02*
Y606995D01*
X2024998Y610993D02*
Y614992D01*
Y612993D01*
X2013002D01*
X2015002Y610993D01*
X2013002Y620990D02*
Y628987D01*
X2015002D01*
X2022999Y620990D01*
X2024998D01*
X1934998Y565008D02*
X1923002D01*
Y571006D01*
X1925002Y573005D01*
X1929000D01*
X1931000Y571006D01*
Y565008D01*
Y569007D02*
X1934998Y573005D01*
Y577004D02*
Y581003D01*
Y579004D01*
X1923002D01*
X1925002Y577004D01*
Y587001D02*
X1923002Y589000D01*
Y592999D01*
X1925002Y594998D01*
X1927001D01*
X1929000Y592999D01*
X1931000Y594998D01*
X1932999D01*
X1934998Y592999D01*
Y589000D01*
X1932999Y587001D01*
X1931000D01*
X1929000Y589000D01*
X1927001Y587001D01*
X1925002D01*
X1929000Y589000D02*
Y592999D01*
X1936998Y598997D02*
Y606995D01*
X1934998Y610993D02*
Y614992D01*
Y612993D01*
X1923002D01*
X1925002Y610993D01*
X1923002Y628987D02*
X1925002Y624989D01*
X1929000Y620990D01*
X1932999D01*
X1934998Y622989D01*
Y626988D01*
X1932999Y628987D01*
X1931000D01*
X1929000Y626988D01*
Y620990D01*
X1844998Y565008D02*
X1833002D01*
Y571006D01*
X1835002Y573005D01*
X1839000D01*
X1841000Y571006D01*
Y565008D01*
Y569007D02*
X1844998Y573005D01*
Y577004D02*
Y581003D01*
Y579004D01*
X1833002D01*
X1835002Y577004D01*
Y587001D02*
X1833002Y589000D01*
Y592999D01*
X1835002Y594998D01*
X1837001D01*
X1839000Y592999D01*
X1841000Y594998D01*
X1842999D01*
X1844998Y592999D01*
Y589000D01*
X1842999Y587001D01*
X1841000D01*
X1839000Y589000D01*
X1837001Y587001D01*
X1835002D01*
X1839000Y589000D02*
Y592999D01*
X1846998Y598997D02*
Y606995D01*
X1844998Y610993D02*
Y614992D01*
Y612993D01*
X1833002D01*
X1835002Y610993D01*
X1833002Y628987D02*
Y620990D01*
X1839000D01*
X1837001Y624989D01*
Y626988D01*
X1839000Y628987D01*
X1842999D01*
X1844998Y626988D01*
Y622989D01*
X1842999Y620990D01*
X1754998Y565008D02*
X1743002D01*
Y571006D01*
X1745002Y573005D01*
X1749000D01*
X1751000Y571006D01*
Y565008D01*
Y569007D02*
X1754998Y573005D01*
Y577004D02*
Y581003D01*
Y579004D01*
X1743002D01*
X1745002Y577004D01*
Y587001D02*
X1743002Y589000D01*
Y592999D01*
X1745002Y594998D01*
X1747001D01*
X1749000Y592999D01*
X1751000Y594998D01*
X1752999D01*
X1754998Y592999D01*
Y589000D01*
X1752999Y587001D01*
X1751000D01*
X1749000Y589000D01*
X1747001Y587001D01*
X1745002D01*
X1749000Y589000D02*
Y592999D01*
X1756998Y598997D02*
Y606995D01*
X1754998Y610993D02*
Y614992D01*
Y612993D01*
X1743002D01*
X1745002Y610993D01*
X1754998Y626988D02*
X1743002D01*
X1749000Y620990D01*
Y628987D01*
X1664998Y565008D02*
X1653002D01*
Y571006D01*
X1655002Y573005D01*
X1659000D01*
X1661000Y571006D01*
Y565008D01*
Y569007D02*
X1664998Y573005D01*
Y577004D02*
Y581003D01*
Y579004D01*
X1653002D01*
X1655002Y577004D01*
Y587001D02*
X1653002Y589000D01*
Y592999D01*
X1655002Y594998D01*
X1657001D01*
X1659000Y592999D01*
X1661000Y594998D01*
X1662999D01*
X1664998Y592999D01*
Y589000D01*
X1662999Y587001D01*
X1661000D01*
X1659000Y589000D01*
X1657001Y587001D01*
X1655002D01*
X1659000Y589000D02*
Y592999D01*
X1666998Y598997D02*
Y606995D01*
X1664998Y610993D02*
Y614992D01*
Y612993D01*
X1653002D01*
X1655002Y610993D01*
Y620990D02*
X1653002Y622989D01*
Y626988D01*
X1655002Y628987D01*
X1657001D01*
X1659000Y626988D01*
Y624989D01*
Y626988D01*
X1661000Y628987D01*
X1662999D01*
X1664998Y626988D01*
Y622989D01*
X1662999Y620990D01*
X1574998Y565008D02*
X1563002D01*
Y571006D01*
X1565002Y573005D01*
X1569000D01*
X1571000Y571006D01*
Y565008D01*
Y569007D02*
X1574998Y573005D01*
Y577004D02*
Y581003D01*
Y579004D01*
X1563002D01*
X1565002Y577004D01*
Y587001D02*
X1563002Y589000D01*
Y592999D01*
X1565002Y594998D01*
X1567001D01*
X1569000Y592999D01*
X1571000Y594998D01*
X1572999D01*
X1574998Y592999D01*
Y589000D01*
X1572999Y587001D01*
X1571000D01*
X1569000Y589000D01*
X1567001Y587001D01*
X1565002D01*
X1569000Y589000D02*
Y592999D01*
X1576998Y598997D02*
Y606995D01*
X1574998Y610993D02*
Y614992D01*
Y612993D01*
X1563002D01*
X1565002Y610993D01*
X1574998Y628987D02*
Y620990D01*
X1567001Y628987D01*
X1565002D01*
X1563002Y626988D01*
Y622989D01*
X1565002Y620990D01*
X1484998Y565008D02*
X1473002D01*
Y571006D01*
X1475002Y573005D01*
X1479000D01*
X1481000Y571006D01*
Y565008D01*
Y569007D02*
X1484998Y573005D01*
Y577004D02*
Y581003D01*
Y579004D01*
X1473002D01*
X1475002Y577004D01*
Y587001D02*
X1473002Y589000D01*
Y592999D01*
X1475002Y594998D01*
X1477001D01*
X1479000Y592999D01*
X1481000Y594998D01*
X1482999D01*
X1484998Y592999D01*
Y589000D01*
X1482999Y587001D01*
X1481000D01*
X1479000Y589000D01*
X1477001Y587001D01*
X1475002D01*
X1479000Y589000D02*
Y592999D01*
X1486998Y598997D02*
Y606995D01*
X1484998Y610993D02*
Y614992D01*
Y612993D01*
X1473002D01*
X1475002Y610993D01*
X1484998Y620990D02*
Y624989D01*
Y622989D01*
X1473002D01*
X1475002Y620990D01*
X1394998Y565008D02*
X1383002D01*
Y571006D01*
X1385002Y573005D01*
X1389000D01*
X1391000Y571006D01*
Y565008D01*
Y569007D02*
X1394998Y573005D01*
Y577004D02*
Y581003D01*
Y579004D01*
X1383002D01*
X1385002Y577004D01*
Y587001D02*
X1383002Y589000D01*
Y592999D01*
X1385002Y594998D01*
X1387001D01*
X1389000Y592999D01*
X1391000Y594998D01*
X1392999D01*
X1394998Y592999D01*
Y589000D01*
X1392999Y587001D01*
X1391000D01*
X1389000Y589000D01*
X1387001Y587001D01*
X1385002D01*
X1389000Y589000D02*
Y592999D01*
X1396998Y598997D02*
Y606995D01*
X1394998Y610993D02*
Y614992D01*
Y612993D01*
X1383002D01*
X1385002Y610993D01*
Y620990D02*
X1383002Y622989D01*
Y626988D01*
X1385002Y628987D01*
X1392999D01*
X1394998Y626988D01*
Y622989D01*
X1392999Y620990D01*
X1385002D01*
X1304998Y565008D02*
X1293002D01*
Y571006D01*
X1295002Y573005D01*
X1299000D01*
X1301000Y571006D01*
Y565008D01*
Y569007D02*
X1304998Y573005D01*
Y577004D02*
Y581003D01*
Y579004D01*
X1293002D01*
X1295002Y577004D01*
Y587001D02*
X1293002Y589000D01*
Y592999D01*
X1295002Y594998D01*
X1297001D01*
X1299000Y592999D01*
X1301000Y594998D01*
X1302999D01*
X1304998Y592999D01*
Y589000D01*
X1302999Y587001D01*
X1301000D01*
X1299000Y589000D01*
X1297001Y587001D01*
X1295002D01*
X1299000Y589000D02*
Y592999D01*
X1306998Y598997D02*
Y606995D01*
X1302999Y610993D02*
X1304998Y612993D01*
Y616991D01*
X1302999Y618991D01*
X1295002D01*
X1293002Y616991D01*
Y612993D01*
X1295002Y610993D01*
X1297001D01*
X1299000Y612993D01*
Y618991D01*
X1214998Y565008D02*
X1203002D01*
Y571006D01*
X1205002Y573005D01*
X1209000D01*
X1211000Y571006D01*
Y565008D01*
Y569007D02*
X1214998Y573005D01*
Y577004D02*
Y581003D01*
Y579004D01*
X1203002D01*
X1205002Y577004D01*
Y587001D02*
X1203002Y589000D01*
Y592999D01*
X1205002Y594998D01*
X1207001D01*
X1209000Y592999D01*
X1211000Y594998D01*
X1212999D01*
X1214998Y592999D01*
Y589000D01*
X1212999Y587001D01*
X1211000D01*
X1209000Y589000D01*
X1207001Y587001D01*
X1205002D01*
X1209000Y589000D02*
Y592999D01*
X1216998Y598997D02*
Y606995D01*
X1205002Y610993D02*
X1203002Y612993D01*
Y616991D01*
X1205002Y618991D01*
X1207001D01*
X1209000Y616991D01*
X1211000Y618991D01*
X1212999D01*
X1214998Y616991D01*
Y612993D01*
X1212999Y610993D01*
X1211000D01*
X1209000Y612993D01*
X1207001Y610993D01*
X1205002D01*
X1209000Y612993D02*
Y616991D01*
X1124998Y565008D02*
X1113002D01*
Y571006D01*
X1115002Y573005D01*
X1119000D01*
X1121000Y571006D01*
Y565008D01*
Y569007D02*
X1124998Y573005D01*
Y577004D02*
Y581003D01*
Y579004D01*
X1113002D01*
X1115002Y577004D01*
Y587001D02*
X1113002Y589000D01*
Y592999D01*
X1115002Y594998D01*
X1117001D01*
X1119000Y592999D01*
X1121000Y594998D01*
X1122999D01*
X1124998Y592999D01*
Y589000D01*
X1122999Y587001D01*
X1121000D01*
X1119000Y589000D01*
X1117001Y587001D01*
X1115002D01*
X1119000Y589000D02*
Y592999D01*
X1126998Y598997D02*
Y606995D01*
X1113002Y610993D02*
Y618991D01*
X1115002D01*
X1122999Y610993D01*
X1124998D01*
X1034998Y565008D02*
X1023002D01*
Y571006D01*
X1025002Y573005D01*
X1029000D01*
X1031000Y571006D01*
Y565008D01*
Y569007D02*
X1034998Y573005D01*
Y577004D02*
Y581003D01*
Y579004D01*
X1023002D01*
X1025002Y577004D01*
Y587001D02*
X1023002Y589000D01*
Y592999D01*
X1025002Y594998D01*
X1027001D01*
X1029000Y592999D01*
X1031000Y594998D01*
X1032999D01*
X1034998Y592999D01*
Y589000D01*
X1032999Y587001D01*
X1031000D01*
X1029000Y589000D01*
X1027001Y587001D01*
X1025002D01*
X1029000Y589000D02*
Y592999D01*
X1036998Y598997D02*
Y606995D01*
X1023002Y618991D02*
X1025002Y614992D01*
X1029000Y610993D01*
X1032999D01*
X1034998Y612993D01*
Y616991D01*
X1032999Y618991D01*
X1031000D01*
X1029000Y616991D01*
Y610993D01*
X944998Y565008D02*
X933002D01*
Y571006D01*
X935002Y573005D01*
X939000D01*
X941000Y571006D01*
Y565008D01*
Y569007D02*
X944998Y573005D01*
Y577004D02*
Y581003D01*
Y579004D01*
X933002D01*
X935002Y577004D01*
Y587001D02*
X933002Y589000D01*
Y592999D01*
X935002Y594998D01*
X937001D01*
X939000Y592999D01*
X941000Y594998D01*
X942999D01*
X944998Y592999D01*
Y589000D01*
X942999Y587001D01*
X941000D01*
X939000Y589000D01*
X937001Y587001D01*
X935002D01*
X939000Y589000D02*
Y592999D01*
X946998Y598997D02*
Y606995D01*
X933002Y618991D02*
Y610993D01*
X939000D01*
X937001Y614992D01*
Y616991D01*
X939000Y618991D01*
X942999D01*
X944998Y616991D01*
Y612993D01*
X942999Y610993D01*
X855348Y564758D02*
X843352D01*
Y570756D01*
X845352Y572756D01*
X849350D01*
X851350Y570756D01*
Y564758D01*
Y568757D02*
X855348Y572756D01*
Y576754D02*
Y580753D01*
Y578754D01*
X843352D01*
X845352Y576754D01*
Y586751D02*
X843352Y588750D01*
Y592749D01*
X845352Y594748D01*
X847351D01*
X849350Y592749D01*
X851350Y594748D01*
X853349D01*
X855348Y592749D01*
Y588750D01*
X853349Y586751D01*
X851350D01*
X849350Y588750D01*
X847351Y586751D01*
X845352D01*
X849350Y588750D02*
Y592749D01*
X857348Y598747D02*
Y606744D01*
X855348Y616741D02*
X843352D01*
X849350Y610743D01*
Y618741D01*
X764998Y565008D02*
X753002D01*
Y571006D01*
X755002Y573005D01*
X759000D01*
X761000Y571006D01*
Y565008D01*
Y569007D02*
X764998Y573005D01*
Y577004D02*
Y581003D01*
Y579003D01*
X753002D01*
X755002Y577004D01*
Y587001D02*
X753002Y589000D01*
Y592999D01*
X755002Y594998D01*
X757001D01*
X759000Y592999D01*
X761000Y594998D01*
X762999D01*
X764998Y592999D01*
Y589000D01*
X762999Y587001D01*
X761000D01*
X759000Y589000D01*
X757001Y587001D01*
X755002D01*
X759000Y589000D02*
Y592999D01*
X766998Y598997D02*
Y606995D01*
X755002Y610993D02*
X753002Y612993D01*
Y616991D01*
X755002Y618991D01*
X757001D01*
X759000Y616991D01*
Y614992D01*
Y616991D01*
X761000Y618991D01*
X762999D01*
X764998Y616991D01*
Y612993D01*
X762999Y610993D01*
X674998Y565008D02*
X663002D01*
Y571006D01*
X665002Y573005D01*
X669000D01*
X671000Y571006D01*
Y565008D01*
Y569007D02*
X674998Y573005D01*
Y577004D02*
Y581003D01*
Y579004D01*
X663002D01*
X665002Y577004D01*
Y587001D02*
X663002Y589000D01*
Y592999D01*
X665002Y594998D01*
X667001D01*
X669000Y592999D01*
X671000Y594998D01*
X672999D01*
X674998Y592999D01*
Y589000D01*
X672999Y587001D01*
X671000D01*
X669000Y589000D01*
X667001Y587001D01*
X665002D01*
X669000Y589000D02*
Y592999D01*
X676998Y598997D02*
Y606995D01*
X674998Y618991D02*
Y610993D01*
X667001Y618991D01*
X665002D01*
X663002Y616991D01*
Y612993D01*
X665002Y610993D01*
X584998Y565008D02*
X573002D01*
Y571006D01*
X575002Y573005D01*
X579000D01*
X581000Y571006D01*
Y565008D01*
Y569007D02*
X584998Y573005D01*
Y577004D02*
Y581003D01*
Y579004D01*
X573002D01*
X575002Y577004D01*
Y587001D02*
X573002Y589000D01*
Y592999D01*
X575002Y594998D01*
X577001D01*
X579000Y592999D01*
X581000Y594998D01*
X582999D01*
X584998Y592999D01*
Y589000D01*
X582999Y587001D01*
X581000D01*
X579000Y589000D01*
X577001Y587001D01*
X575002D01*
X579000Y589000D02*
Y592999D01*
X586998Y598997D02*
Y606995D01*
X584998Y610993D02*
Y614992D01*
Y612993D01*
X573002D01*
X575002Y610993D01*
X2710008Y832502D02*
Y844498D01*
X2716006D01*
X2718005Y842498D01*
Y838500D01*
X2716006Y836500D01*
X2710008D01*
X2714007D02*
X2718005Y832502D01*
X2722004D02*
X2726003D01*
X2724004D01*
Y844498D01*
X2722004Y842498D01*
X2732001Y844498D02*
X2739998D01*
Y842498D01*
X2732001Y834501D01*
Y832502D01*
X2743997Y830502D02*
X2751995D01*
X2763990Y832502D02*
X2755993D01*
X2763990Y840499D01*
Y842498D01*
X2761991Y844498D01*
X2757993D01*
X2755993Y842498D01*
X2775987Y844498D02*
X2767989D01*
Y838500D01*
X2771988Y840499D01*
X2773987D01*
X2775987Y838500D01*
Y834501D01*
X2773987Y832502D01*
X2769989D01*
X2767989Y834501D01*
X2620008Y832502D02*
Y844498D01*
X2626006D01*
X2628005Y842498D01*
Y838500D01*
X2626006Y836500D01*
X2620008D01*
X2624007D02*
X2628005Y832502D01*
X2632004D02*
X2636003D01*
X2634004D01*
Y844498D01*
X2632004Y842498D01*
X2642001Y844498D02*
X2649998D01*
Y842498D01*
X2642001Y834501D01*
Y832502D01*
X2653997Y830502D02*
X2661995D01*
X2673990Y832502D02*
X2665993D01*
X2673990Y840499D01*
Y842498D01*
X2671991Y844498D01*
X2667993D01*
X2665993Y842498D01*
X2683987Y832502D02*
Y844498D01*
X2677989Y838500D01*
X2685987D01*
X2530008Y832502D02*
Y844498D01*
X2536006D01*
X2538006Y842498D01*
Y838500D01*
X2536006Y836500D01*
X2530008D01*
X2534007D02*
X2538006Y832502D01*
X2542004D02*
X2546003D01*
X2544004D01*
Y844498D01*
X2542004Y842498D01*
X2552001Y844498D02*
X2559998D01*
Y842498D01*
X2552001Y834501D01*
Y832502D01*
X2563997Y830502D02*
X2571995D01*
X2583990Y832502D02*
X2575993D01*
X2583990Y840499D01*
Y842498D01*
X2581991Y844498D01*
X2577993D01*
X2575993Y842498D01*
X2587989D02*
X2589989Y844498D01*
X2593987D01*
X2595987Y842498D01*
Y840499D01*
X2593987Y838500D01*
X2591988D01*
X2593987D01*
X2595987Y836500D01*
Y834501D01*
X2593987Y832502D01*
X2589989D01*
X2587989Y834501D01*
X2440008Y832502D02*
Y844498D01*
X2446006D01*
X2448006Y842498D01*
Y838500D01*
X2446006Y836500D01*
X2440008D01*
X2444007D02*
X2448006Y832502D01*
X2452004D02*
X2456003D01*
X2454004D01*
Y844498D01*
X2452004Y842498D01*
X2462001Y844498D02*
X2469998D01*
Y842498D01*
X2462001Y834501D01*
Y832502D01*
X2473997Y830502D02*
X2481994D01*
X2493991Y832502D02*
X2485993D01*
X2493991Y840499D01*
Y842498D01*
X2491991Y844498D01*
X2487993D01*
X2485993Y842498D01*
X2505987Y832502D02*
X2497989D01*
X2505987Y840499D01*
Y842498D01*
X2503987Y844498D01*
X2499989D01*
X2497989Y842498D01*
X2350008Y832502D02*
Y844498D01*
X2356006D01*
X2358006Y842498D01*
Y838500D01*
X2356006Y836500D01*
X2350008D01*
X2354007D02*
X2358006Y832502D01*
X2362004D02*
X2366003D01*
X2364004D01*
Y844498D01*
X2362004Y842498D01*
X2372001Y844498D02*
X2379998D01*
Y842498D01*
X2372001Y834501D01*
Y832502D01*
X2383997Y830502D02*
X2391994D01*
X2403991Y832502D02*
X2395993D01*
X2403991Y840499D01*
Y842498D01*
X2401991Y844498D01*
X2397993D01*
X2395993Y842498D01*
X2407989Y832502D02*
X2411988D01*
X2409989D01*
Y844498D01*
X2407989Y842498D01*
X2260008Y832502D02*
Y844498D01*
X2266006D01*
X2268006Y842498D01*
Y838500D01*
X2266006Y836500D01*
X2260008D01*
X2264007D02*
X2268006Y832502D01*
X2272004D02*
X2276003D01*
X2274004D01*
Y844498D01*
X2272004Y842498D01*
X2282001Y844498D02*
X2289998D01*
Y842498D01*
X2282001Y834501D01*
Y832502D01*
X2293997Y830502D02*
X2301994D01*
X2313991Y832502D02*
X2305993D01*
X2313991Y840499D01*
Y842498D01*
X2311991Y844498D01*
X2307993D01*
X2305993Y842498D01*
X2317989D02*
X2319989Y844498D01*
X2323987D01*
X2325987Y842498D01*
Y834501D01*
X2323987Y832502D01*
X2319989D01*
X2317989Y834501D01*
Y842498D01*
X2170008Y832502D02*
Y844498D01*
X2176006D01*
X2178006Y842498D01*
Y838500D01*
X2176006Y836500D01*
X2170008D01*
X2174007D02*
X2178006Y832502D01*
X2182004D02*
X2186003D01*
X2184004D01*
Y844498D01*
X2182004Y842498D01*
X2192001Y844498D02*
X2199998D01*
Y842498D01*
X2192001Y834501D01*
Y832502D01*
X2203997Y830502D02*
X2211994D01*
X2215993Y832502D02*
X2219992D01*
X2217993D01*
Y844498D01*
X2215993Y842498D01*
X2225990Y834501D02*
X2227989Y832502D01*
X2231988D01*
X2233987Y834501D01*
Y842498D01*
X2231988Y844498D01*
X2227989D01*
X2225990Y842498D01*
Y840499D01*
X2227989Y838500D01*
X2233987D01*
X2080008Y832502D02*
Y844498D01*
X2086006D01*
X2088006Y842498D01*
Y838500D01*
X2086006Y836500D01*
X2080008D01*
X2084007D02*
X2088006Y832502D01*
X2092004D02*
X2096003D01*
X2094004D01*
Y844498D01*
X2092004Y842498D01*
X2102001Y844498D02*
X2109998D01*
Y842498D01*
X2102001Y834501D01*
Y832502D01*
X2113997Y830502D02*
X2121994D01*
X2125993Y832502D02*
X2129992D01*
X2127993D01*
Y844498D01*
X2125993Y842498D01*
X2135990D02*
X2137989Y844498D01*
X2141988D01*
X2143987Y842498D01*
Y840499D01*
X2141988Y838500D01*
X2143987Y836500D01*
Y834501D01*
X2141988Y832502D01*
X2137989D01*
X2135990Y834501D01*
Y836500D01*
X2137989Y838500D01*
X2135990Y840499D01*
Y842498D01*
X2137989Y838500D02*
X2141988D01*
X1990008Y832502D02*
Y844498D01*
X1996006D01*
X1998005Y842498D01*
Y838500D01*
X1996006Y836500D01*
X1990008D01*
X1994007D02*
X1998005Y832502D01*
X2002004D02*
X2006003D01*
X2004003D01*
Y844498D01*
X2002004Y842498D01*
X2012001Y844498D02*
X2019998D01*
Y842498D01*
X2012001Y834501D01*
Y832502D01*
X2023997Y830502D02*
X2031994D01*
X2035993Y832502D02*
X2039992D01*
X2037993D01*
Y844498D01*
X2035993Y842498D01*
X2045990Y844498D02*
X2053987D01*
Y842498D01*
X2045990Y834501D01*
Y832502D01*
X1900008D02*
Y844498D01*
X1906006D01*
X1908005Y842498D01*
Y838500D01*
X1906006Y836500D01*
X1900008D01*
X1904007D02*
X1908005Y832502D01*
X1912004D02*
X1916003D01*
X1914003D01*
Y844498D01*
X1912004Y842498D01*
X1922001Y844498D02*
X1929998D01*
Y842498D01*
X1922001Y834501D01*
Y832502D01*
X1933997Y830502D02*
X1941994D01*
X1945993Y832502D02*
X1949992D01*
X1947993D01*
Y844498D01*
X1945993Y842498D01*
X1963987Y844498D02*
X1959989Y842498D01*
X1955990Y838500D01*
Y834501D01*
X1957989Y832502D01*
X1961988D01*
X1963987Y834501D01*
Y836500D01*
X1961988Y838500D01*
X1955990D01*
X1810008Y832502D02*
Y844498D01*
X1816006D01*
X1818006Y842498D01*
Y838500D01*
X1816006Y836500D01*
X1810008D01*
X1814007D02*
X1818006Y832502D01*
X1822004D02*
X1826003D01*
X1824004D01*
Y844498D01*
X1822004Y842498D01*
X1832001Y844498D02*
X1839998D01*
Y842498D01*
X1832001Y834501D01*
Y832502D01*
X1843997Y830502D02*
X1851994D01*
X1855993Y832502D02*
X1859992D01*
X1857993D01*
Y844498D01*
X1855993Y842498D01*
X1873987Y844498D02*
X1865990D01*
Y838500D01*
X1869989Y840499D01*
X1871988D01*
X1873987Y838500D01*
Y834501D01*
X1871988Y832502D01*
X1867989D01*
X1865990Y834501D01*
X1720008Y832502D02*
Y844498D01*
X1726006D01*
X1728006Y842498D01*
Y838500D01*
X1726006Y836500D01*
X1720008D01*
X1724007D02*
X1728006Y832502D01*
X1732004D02*
X1736003D01*
X1734004D01*
Y844498D01*
X1732004Y842498D01*
X1742001Y844498D02*
X1749998D01*
Y842498D01*
X1742001Y834501D01*
Y832502D01*
X1753997Y830502D02*
X1761994D01*
X1765993Y832502D02*
X1769992D01*
X1767993D01*
Y844498D01*
X1765993Y842498D01*
X1781988Y832502D02*
Y844498D01*
X1775990Y838500D01*
X1783987D01*
X1630008Y832502D02*
Y844498D01*
X1636006D01*
X1638006Y842498D01*
Y838500D01*
X1636006Y836500D01*
X1630008D01*
X1634007D02*
X1638006Y832502D01*
X1642004D02*
X1646003D01*
X1644004D01*
Y844498D01*
X1642004Y842498D01*
X1652001Y844498D02*
X1659998D01*
Y842498D01*
X1652001Y834501D01*
Y832502D01*
X1663997Y830502D02*
X1671994D01*
X1675993Y832502D02*
X1679992D01*
X1677993D01*
Y844498D01*
X1675993Y842498D01*
X1685990D02*
X1687989Y844498D01*
X1691988D01*
X1693987Y842498D01*
Y840499D01*
X1691988Y838500D01*
X1689989D01*
X1691988D01*
X1693987Y836500D01*
Y834501D01*
X1691988Y832502D01*
X1687989D01*
X1685990Y834501D01*
X1540008Y832502D02*
Y844498D01*
X1546006D01*
X1548006Y842498D01*
Y838500D01*
X1546006Y836500D01*
X1540008D01*
X1544007D02*
X1548006Y832502D01*
X1552004D02*
X1556003D01*
X1554004D01*
Y844498D01*
X1552004Y842498D01*
X1562001Y844498D02*
X1569998D01*
Y842498D01*
X1562001Y834501D01*
Y832502D01*
X1573997Y830502D02*
X1581994D01*
X1585993Y832502D02*
X1589992D01*
X1587993D01*
Y844498D01*
X1585993Y842498D01*
X1603987Y832502D02*
X1595990D01*
X1603987Y840499D01*
Y842498D01*
X1601988Y844498D01*
X1597989D01*
X1595990Y842498D01*
X1450008Y832502D02*
Y844498D01*
X1456006D01*
X1458006Y842498D01*
Y838500D01*
X1456006Y836500D01*
X1450008D01*
X1454007D02*
X1458006Y832502D01*
X1462004D02*
X1466003D01*
X1464004D01*
Y844498D01*
X1462004Y842498D01*
X1472001Y844498D02*
X1479998D01*
Y842498D01*
X1472001Y834501D01*
Y832502D01*
X1483997Y830502D02*
X1491994D01*
X1495993Y832502D02*
X1499992D01*
X1497993D01*
Y844498D01*
X1495993Y842498D01*
X1505990Y832502D02*
X1509989D01*
X1507989D01*
Y844498D01*
X1505990Y842498D01*
X1360008Y832502D02*
Y844498D01*
X1366006D01*
X1368006Y842498D01*
Y838500D01*
X1366006Y836500D01*
X1360008D01*
X1364007D02*
X1368006Y832502D01*
X1372004D02*
X1376003D01*
X1374004D01*
Y844498D01*
X1372004Y842498D01*
X1382001Y844498D02*
X1389998D01*
Y842498D01*
X1382001Y834501D01*
Y832502D01*
X1393997Y830502D02*
X1401994D01*
X1405993Y832502D02*
X1409992D01*
X1407993D01*
Y844498D01*
X1405993Y842498D01*
X1415990D02*
X1417989Y844498D01*
X1421988D01*
X1423987Y842498D01*
Y834501D01*
X1421988Y832502D01*
X1417989D01*
X1415990Y834501D01*
Y842498D01*
X1270008Y832502D02*
Y844498D01*
X1276006D01*
X1278006Y842498D01*
Y838500D01*
X1276006Y836500D01*
X1270008D01*
X1274007D02*
X1278006Y832502D01*
X1282004D02*
X1286003D01*
X1284004D01*
Y844498D01*
X1282004Y842498D01*
X1292001Y844498D02*
X1299998D01*
Y842498D01*
X1292001Y834501D01*
Y832502D01*
X1303997Y830502D02*
X1311994D01*
X1315993Y834501D02*
X1317993Y832502D01*
X1321991D01*
X1323991Y834501D01*
Y842498D01*
X1321991Y844498D01*
X1317993D01*
X1315993Y842498D01*
Y840499D01*
X1317993Y838500D01*
X1323991D01*
X1180008Y832502D02*
Y844498D01*
X1186006D01*
X1188006Y842498D01*
Y838500D01*
X1186006Y836500D01*
X1180008D01*
X1184007D02*
X1188006Y832502D01*
X1192004D02*
X1196003D01*
X1194004D01*
Y844498D01*
X1192004Y842498D01*
X1202001Y844498D02*
X1209998D01*
Y842498D01*
X1202001Y834501D01*
Y832502D01*
X1213997Y830502D02*
X1221994D01*
X1225993Y842498D02*
X1227993Y844498D01*
X1231991D01*
X1233991Y842498D01*
Y840499D01*
X1231991Y838500D01*
X1233991Y836500D01*
Y834501D01*
X1231991Y832502D01*
X1227993D01*
X1225993Y834501D01*
Y836500D01*
X1227993Y838500D01*
X1225993Y840499D01*
Y842498D01*
X1227993Y838500D02*
X1231991D01*
X1090008Y832502D02*
Y844498D01*
X1096006D01*
X1098006Y842498D01*
Y838500D01*
X1096006Y836500D01*
X1090008D01*
X1094007D02*
X1098006Y832502D01*
X1102004D02*
X1106003D01*
X1104004D01*
Y844498D01*
X1102004Y842498D01*
X1112001Y844498D02*
X1119998D01*
Y842498D01*
X1112001Y834501D01*
Y832502D01*
X1123997Y830502D02*
X1131994D01*
X1135993Y844498D02*
X1143991D01*
Y842498D01*
X1135993Y834501D01*
Y832502D01*
X1000008Y832502D02*
Y844498D01*
X1006006D01*
X1008006Y842498D01*
Y838500D01*
X1006006Y836500D01*
X1000008D01*
X1004007D02*
X1008006Y832502D01*
X1012004D02*
X1016003D01*
X1014004D01*
Y844498D01*
X1012004Y842498D01*
X1022001Y844498D02*
X1029998D01*
Y842498D01*
X1022001Y834501D01*
Y832502D01*
X1033997Y830502D02*
X1041994D01*
X1053991Y844498D02*
X1049992Y842498D01*
X1045993Y838500D01*
Y834501D01*
X1047993Y832502D01*
X1051991D01*
X1053991Y834501D01*
Y836500D01*
X1051991Y838500D01*
X1045993D01*
X910008Y832502D02*
Y844498D01*
X916006D01*
X918006Y842498D01*
Y838500D01*
X916006Y836500D01*
X910008D01*
X914007D02*
X918006Y832502D01*
X922004D02*
X926003D01*
X924004D01*
Y844498D01*
X922004Y842498D01*
X932001Y844498D02*
X939998D01*
Y842498D01*
X932001Y834501D01*
Y832502D01*
X943997Y830502D02*
X951994D01*
X963991Y844498D02*
X955993D01*
Y838500D01*
X959992Y840499D01*
X961991D01*
X963991Y838500D01*
Y834501D01*
X961991Y832502D01*
X957993D01*
X955993Y834501D01*
X820358Y832252D02*
Y844248D01*
X826356D01*
X828355Y842248D01*
Y838250D01*
X826356Y836250D01*
X820358D01*
X824357D02*
X828355Y832252D01*
X832354D02*
X836353D01*
X834354D01*
Y844248D01*
X832354Y842248D01*
X842351Y844248D02*
X850348D01*
Y842248D01*
X842351Y834251D01*
Y832252D01*
X854347Y830252D02*
X862345D01*
X872341Y832252D02*
Y844248D01*
X866343Y838250D01*
X874341D01*
X730008Y832502D02*
Y844498D01*
X736006D01*
X738006Y842498D01*
Y838500D01*
X736006Y836500D01*
X730008D01*
X734007D02*
X738006Y832502D01*
X742004D02*
X746003D01*
X744004D01*
Y844498D01*
X742004Y842498D01*
X752001Y844498D02*
X759998D01*
Y842498D01*
X752001Y834501D01*
Y832502D01*
X763997Y830502D02*
X771994D01*
X775993Y842498D02*
X777993Y844498D01*
X781991D01*
X783991Y842498D01*
Y840499D01*
X781991Y838500D01*
X779992D01*
X781991D01*
X783991Y836500D01*
Y834501D01*
X781991Y832502D01*
X777993D01*
X775993Y834501D01*
X640008Y832502D02*
Y844498D01*
X646006D01*
X648006Y842498D01*
Y838500D01*
X646006Y836500D01*
X640008D01*
X644007D02*
X648006Y832502D01*
X652004D02*
X656003D01*
X654004D01*
Y844498D01*
X652004Y842498D01*
X662001Y844498D02*
X669998D01*
Y842498D01*
X662001Y834501D01*
Y832502D01*
X673997Y830502D02*
X681994D01*
X693991Y832502D02*
X685993D01*
X693991Y840499D01*
Y842498D01*
X691991Y844498D01*
X687993D01*
X685993Y842498D01*
X550008Y832502D02*
Y844498D01*
X556006D01*
X558005Y842498D01*
Y838500D01*
X556006Y836500D01*
X550008D01*
X554007D02*
X558005Y832502D01*
X562004D02*
X566003D01*
X564004D01*
Y844498D01*
X562004Y842498D01*
X572001Y844498D02*
X579998D01*
Y842498D01*
X572001Y834501D01*
Y832502D01*
X583997Y830502D02*
X591995D01*
X595993Y832502D02*
X599992D01*
X597993D01*
Y844498D01*
X595993Y842498D01*
X2759998Y715008D02*
X2748002D01*
Y721006D01*
X2750002Y723006D01*
X2754000D01*
X2756000Y721006D01*
Y715008D01*
Y719007D02*
X2759998Y723006D01*
Y727004D02*
Y731003D01*
Y729004D01*
X2748002D01*
X2750002Y727004D01*
X2748002Y744998D02*
X2750002Y741000D01*
X2754000Y737001D01*
X2757999D01*
X2759998Y739000D01*
Y742999D01*
X2757999Y744998D01*
X2756000D01*
X2754000Y742999D01*
Y737001D01*
X2761998Y748997D02*
Y756994D01*
X2759998Y768991D02*
Y760993D01*
X2752001Y768991D01*
X2750002D01*
X2748002Y766991D01*
Y762993D01*
X2750002Y760993D01*
X2748002Y780987D02*
Y772989D01*
X2754000D01*
X2752001Y776988D01*
Y778987D01*
X2754000Y780987D01*
X2757999D01*
X2759998Y778987D01*
Y774989D01*
X2757999Y772989D01*
X2669998Y715008D02*
X2658002D01*
Y721006D01*
X2660002Y723006D01*
X2664000D01*
X2666000Y721006D01*
Y715008D01*
Y719007D02*
X2669998Y723006D01*
Y727004D02*
Y731003D01*
Y729004D01*
X2658002D01*
X2660002Y727004D01*
X2658002Y744998D02*
X2660002Y741000D01*
X2664000Y737001D01*
X2667999D01*
X2669998Y739000D01*
Y742999D01*
X2667999Y744998D01*
X2666000D01*
X2664000Y742999D01*
Y737001D01*
X2671998Y748997D02*
Y756994D01*
X2669998Y768991D02*
Y760993D01*
X2662001Y768991D01*
X2660002D01*
X2658002Y766991D01*
Y762993D01*
X2660002Y760993D01*
X2669998Y778987D02*
X2658002D01*
X2664000Y772989D01*
Y780987D01*
X2579998Y715008D02*
X2568002D01*
Y721006D01*
X2570002Y723006D01*
X2574000D01*
X2576000Y721006D01*
Y715008D01*
Y719007D02*
X2579998Y723006D01*
Y727004D02*
Y731003D01*
Y729004D01*
X2568002D01*
X2570002Y727004D01*
X2568002Y744998D02*
X2570002Y741000D01*
X2574000Y737001D01*
X2577999D01*
X2579998Y739000D01*
Y742999D01*
X2577999Y744998D01*
X2576000D01*
X2574000Y742999D01*
Y737001D01*
X2581998Y748997D02*
Y756994D01*
X2579998Y768991D02*
Y760993D01*
X2572001Y768991D01*
X2570002D01*
X2568002Y766991D01*
Y762993D01*
X2570002Y760993D01*
Y772989D02*
X2568002Y774989D01*
Y778987D01*
X2570002Y780987D01*
X2572001D01*
X2574000Y778987D01*
Y776988D01*
Y778987D01*
X2576000Y780987D01*
X2577999D01*
X2579998Y778987D01*
Y774989D01*
X2577999Y772989D01*
X2489998Y715008D02*
X2478002D01*
Y721006D01*
X2480002Y723006D01*
X2484000D01*
X2486000Y721006D01*
Y715008D01*
Y719007D02*
X2489998Y723006D01*
Y727004D02*
Y731003D01*
Y729004D01*
X2478002D01*
X2480002Y727004D01*
X2478002Y744998D02*
X2480002Y741000D01*
X2484000Y737001D01*
X2487999D01*
X2489998Y739000D01*
Y742999D01*
X2487999Y744998D01*
X2486000D01*
X2484000Y742999D01*
Y737001D01*
X2491998Y748997D02*
Y756994D01*
X2489998Y768991D02*
Y760993D01*
X2482001Y768991D01*
X2480002D01*
X2478002Y766991D01*
Y762993D01*
X2480002Y760993D01*
X2489998Y780987D02*
Y772989D01*
X2482001Y780987D01*
X2480002D01*
X2478002Y778987D01*
Y774989D01*
X2480002Y772989D01*
X2399998Y715008D02*
X2388002D01*
Y721006D01*
X2390002Y723006D01*
X2394000D01*
X2396000Y721006D01*
Y715008D01*
Y719007D02*
X2399998Y723006D01*
Y727004D02*
Y731003D01*
Y729004D01*
X2388002D01*
X2390002Y727004D01*
X2388002Y744998D02*
X2390002Y741000D01*
X2394000Y737001D01*
X2397999D01*
X2399998Y739000D01*
Y742999D01*
X2397999Y744998D01*
X2396000D01*
X2394000Y742999D01*
Y737001D01*
X2401998Y748997D02*
Y756994D01*
X2399998Y768991D02*
Y760993D01*
X2392001Y768991D01*
X2390002D01*
X2388002Y766991D01*
Y762993D01*
X2390002Y760993D01*
X2399998Y772989D02*
Y776988D01*
Y774989D01*
X2388002D01*
X2390002Y772989D01*
X2309998Y715008D02*
X2298002D01*
Y721006D01*
X2300002Y723006D01*
X2304000D01*
X2306000Y721006D01*
Y715008D01*
Y719007D02*
X2309998Y723006D01*
Y727004D02*
Y731003D01*
Y729004D01*
X2298002D01*
X2300002Y727004D01*
X2298002Y744998D02*
X2300002Y741000D01*
X2304000Y737001D01*
X2307999D01*
X2309998Y739000D01*
Y742999D01*
X2307999Y744998D01*
X2306000D01*
X2304000Y742999D01*
Y737001D01*
X2311998Y748997D02*
Y756994D01*
X2309998Y768991D02*
Y760993D01*
X2302001Y768991D01*
X2300002D01*
X2298002Y766991D01*
Y762993D01*
X2300002Y760993D01*
Y772989D02*
X2298002Y774989D01*
Y778987D01*
X2300002Y780987D01*
X2307999D01*
X2309998Y778987D01*
Y774989D01*
X2307999Y772989D01*
X2300002D01*
X2219998Y715008D02*
X2208002D01*
Y721006D01*
X2210002Y723006D01*
X2214000D01*
X2216000Y721006D01*
Y715008D01*
Y719007D02*
X2219998Y723006D01*
Y727004D02*
Y731003D01*
Y729004D01*
X2208002D01*
X2210002Y727004D01*
X2208002Y744998D02*
X2210002Y741000D01*
X2214000Y737001D01*
X2217999D01*
X2219998Y739000D01*
Y742999D01*
X2217999Y744998D01*
X2216000D01*
X2214000Y742999D01*
Y737001D01*
X2221998Y748997D02*
Y756994D01*
X2219998Y760993D02*
Y764992D01*
Y762993D01*
X2208002D01*
X2210002Y760993D01*
X2217999Y770990D02*
X2219998Y772989D01*
Y776988D01*
X2217999Y778987D01*
X2210002D01*
X2208002Y776988D01*
Y772989D01*
X2210002Y770990D01*
X2212001D01*
X2214000Y772989D01*
Y778987D01*
X2129998Y715008D02*
X2118002D01*
Y721006D01*
X2120002Y723006D01*
X2124000D01*
X2126000Y721006D01*
Y715008D01*
Y719007D02*
X2129998Y723006D01*
Y727004D02*
Y731003D01*
Y729004D01*
X2118002D01*
X2120002Y727004D01*
X2118002Y744998D02*
X2120002Y741000D01*
X2124000Y737001D01*
X2127999D01*
X2129998Y739000D01*
Y742999D01*
X2127999Y744998D01*
X2126000D01*
X2124000Y742999D01*
Y737001D01*
X2131998Y748997D02*
Y756994D01*
X2129998Y760993D02*
Y764992D01*
Y762993D01*
X2118002D01*
X2120002Y760993D01*
Y770990D02*
X2118002Y772989D01*
Y776988D01*
X2120002Y778987D01*
X2122001D01*
X2124000Y776988D01*
X2126000Y778987D01*
X2127999D01*
X2129998Y776988D01*
Y772989D01*
X2127999Y770990D01*
X2126000D01*
X2124000Y772989D01*
X2122001Y770990D01*
X2120002D01*
X2124000Y772989D02*
Y776988D01*
X2039998Y715510D02*
X2028002D01*
Y721508D01*
X2030002Y723508D01*
X2034000D01*
X2036000Y721508D01*
Y715510D01*
Y719509D02*
X2039998Y723508D01*
Y727506D02*
Y731505D01*
Y729506D01*
X2028002D01*
X2030002Y727506D01*
X2028002Y745501D02*
X2030002Y741502D01*
X2034000Y737503D01*
X2037999D01*
X2039998Y739503D01*
Y743501D01*
X2037999Y745501D01*
X2036000D01*
X2034000Y743501D01*
Y737503D01*
X2041998Y749499D02*
Y757497D01*
X2039998Y761496D02*
Y765494D01*
Y763495D01*
X2028002D01*
X2030002Y761496D01*
X2028002Y771492D02*
Y779490D01*
X2030002D01*
X2037999Y771492D01*
X2039998D01*
X1949998Y715510D02*
X1938002D01*
Y721508D01*
X1940002Y723508D01*
X1944000D01*
X1946000Y721508D01*
Y715510D01*
Y719509D02*
X1949998Y723508D01*
Y727506D02*
Y731505D01*
Y729506D01*
X1938002D01*
X1940002Y727506D01*
X1938002Y745501D02*
X1940002Y741502D01*
X1944000Y737503D01*
X1947999D01*
X1949998Y739503D01*
Y743501D01*
X1947999Y745501D01*
X1946000D01*
X1944000Y743501D01*
Y737503D01*
X1951998Y749499D02*
Y757497D01*
X1949998Y761496D02*
Y765494D01*
Y763495D01*
X1938002D01*
X1940002Y761496D01*
X1938002Y779490D02*
X1940002Y775491D01*
X1944000Y771492D01*
X1947999D01*
X1949998Y773492D01*
Y777490D01*
X1947999Y779490D01*
X1946000D01*
X1944000Y777490D01*
Y771492D01*
X1859998Y715008D02*
X1848002D01*
Y721006D01*
X1850002Y723006D01*
X1854000D01*
X1856000Y721006D01*
Y715008D01*
Y719007D02*
X1859998Y723006D01*
Y727004D02*
Y731003D01*
Y729004D01*
X1848002D01*
X1850002Y727004D01*
X1848002Y744998D02*
X1850002Y741000D01*
X1854000Y737001D01*
X1857999D01*
X1859998Y739000D01*
Y742999D01*
X1857999Y744998D01*
X1856000D01*
X1854000Y742999D01*
Y737001D01*
X1861998Y748997D02*
Y756994D01*
X1859998Y760993D02*
Y764992D01*
Y762993D01*
X1848002D01*
X1850002Y760993D01*
X1848002Y778987D02*
Y770990D01*
X1854000D01*
X1852001Y774989D01*
Y776988D01*
X1854000Y778987D01*
X1857999D01*
X1859998Y776988D01*
Y772989D01*
X1857999Y770990D01*
X1769998Y715008D02*
X1758002D01*
Y721006D01*
X1760002Y723006D01*
X1764000D01*
X1766000Y721006D01*
Y715008D01*
Y719007D02*
X1769998Y723006D01*
Y727004D02*
Y731003D01*
Y729004D01*
X1758002D01*
X1760002Y727004D01*
X1758002Y744998D02*
X1760002Y741000D01*
X1764000Y737001D01*
X1767999D01*
X1769998Y739000D01*
Y742999D01*
X1767999Y744998D01*
X1766000D01*
X1764000Y742999D01*
Y737001D01*
X1771998Y748997D02*
Y756994D01*
X1769998Y760993D02*
Y764992D01*
Y762993D01*
X1758002D01*
X1760002Y760993D01*
X1769998Y776988D02*
X1758002D01*
X1764000Y770990D01*
Y778987D01*
X1679998Y715008D02*
X1668002D01*
Y721006D01*
X1670002Y723006D01*
X1674000D01*
X1676000Y721006D01*
Y715008D01*
Y719007D02*
X1679998Y723006D01*
Y727004D02*
Y731003D01*
Y729004D01*
X1668002D01*
X1670002Y727004D01*
X1668002Y744998D02*
X1670002Y741000D01*
X1674000Y737001D01*
X1677999D01*
X1679998Y739000D01*
Y742999D01*
X1677999Y744998D01*
X1676000D01*
X1674000Y742999D01*
Y737001D01*
X1681998Y748997D02*
Y756994D01*
X1679998Y760993D02*
Y764992D01*
Y762993D01*
X1668002D01*
X1670002Y760993D01*
Y770990D02*
X1668002Y772989D01*
Y776988D01*
X1670002Y778987D01*
X1672001D01*
X1674000Y776988D01*
Y774989D01*
Y776988D01*
X1676000Y778987D01*
X1677999D01*
X1679998Y776988D01*
Y772989D01*
X1677999Y770990D01*
X1589998Y715008D02*
X1578002D01*
Y721006D01*
X1580002Y723006D01*
X1584000D01*
X1586000Y721006D01*
Y715008D01*
Y719007D02*
X1589998Y723006D01*
Y727004D02*
Y731003D01*
Y729004D01*
X1578002D01*
X1580002Y727004D01*
X1578002Y744998D02*
X1580002Y741000D01*
X1584000Y737001D01*
X1587999D01*
X1589998Y739000D01*
Y742999D01*
X1587999Y744998D01*
X1586000D01*
X1584000Y742999D01*
Y737001D01*
X1591998Y748997D02*
Y756994D01*
X1589998Y760993D02*
Y764992D01*
Y762993D01*
X1578002D01*
X1580002Y760993D01*
X1589998Y778987D02*
Y770990D01*
X1582001Y778987D01*
X1580002D01*
X1578002Y776988D01*
Y772989D01*
X1580002Y770990D01*
X1499998Y715008D02*
X1488002D01*
Y721006D01*
X1490002Y723006D01*
X1494000D01*
X1496000Y721006D01*
Y715008D01*
Y719007D02*
X1499998Y723006D01*
Y727004D02*
Y731003D01*
Y729004D01*
X1488002D01*
X1490002Y727004D01*
X1488002Y744998D02*
X1490002Y741000D01*
X1494000Y737001D01*
X1497999D01*
X1499998Y739000D01*
Y742999D01*
X1497999Y744998D01*
X1496000D01*
X1494000Y742999D01*
Y737001D01*
X1501998Y748997D02*
Y756994D01*
X1499998Y760993D02*
Y764992D01*
Y762993D01*
X1488002D01*
X1490002Y760993D01*
X1499998Y770990D02*
Y774989D01*
Y772989D01*
X1488002D01*
X1490002Y770990D01*
X1409998Y715008D02*
X1398002D01*
Y721006D01*
X1400002Y723006D01*
X1404000D01*
X1406000Y721006D01*
Y715008D01*
Y719007D02*
X1409998Y723006D01*
Y727004D02*
Y731003D01*
Y729004D01*
X1398002D01*
X1400002Y727004D01*
X1398002Y744998D02*
X1400002Y741000D01*
X1404000Y737001D01*
X1407999D01*
X1409998Y739000D01*
Y742999D01*
X1407999Y744998D01*
X1406000D01*
X1404000Y742999D01*
Y737001D01*
X1411998Y748997D02*
Y756994D01*
X1409998Y760993D02*
Y764992D01*
Y762993D01*
X1398002D01*
X1400002Y760993D01*
Y770990D02*
X1398002Y772989D01*
Y776988D01*
X1400002Y778987D01*
X1407999D01*
X1409998Y776988D01*
Y772989D01*
X1407999Y770990D01*
X1400002D01*
X1319998Y715008D02*
X1308002D01*
Y721006D01*
X1310002Y723006D01*
X1314000D01*
X1316000Y721006D01*
Y715008D01*
Y719007D02*
X1319998Y723006D01*
Y727004D02*
Y731003D01*
Y729004D01*
X1308002D01*
X1310002Y727004D01*
X1308002Y744998D02*
X1310002Y741000D01*
X1314000Y737001D01*
X1317999D01*
X1319998Y739000D01*
Y742999D01*
X1317999Y744998D01*
X1316000D01*
X1314000Y742999D01*
Y737001D01*
X1321998Y748997D02*
Y756994D01*
X1317999Y760993D02*
X1319998Y762993D01*
Y766991D01*
X1317999Y768991D01*
X1310002D01*
X1308002Y766991D01*
Y762993D01*
X1310002Y760993D01*
X1312001D01*
X1314000Y762993D01*
Y768991D01*
X1229998Y715008D02*
X1218002D01*
Y721006D01*
X1220002Y723006D01*
X1224000D01*
X1226000Y721006D01*
Y715008D01*
Y719007D02*
X1229998Y723006D01*
Y727004D02*
Y731003D01*
Y729004D01*
X1218002D01*
X1220002Y727004D01*
X1218002Y744998D02*
X1220002Y741000D01*
X1224000Y737001D01*
X1227999D01*
X1229998Y739000D01*
Y742999D01*
X1227999Y744998D01*
X1226000D01*
X1224000Y742999D01*
Y737001D01*
X1231998Y748997D02*
Y756994D01*
X1220002Y760993D02*
X1218002Y762993D01*
Y766991D01*
X1220002Y768991D01*
X1222001D01*
X1224000Y766991D01*
X1226000Y768991D01*
X1227999D01*
X1229998Y766991D01*
Y762993D01*
X1227999Y760993D01*
X1226000D01*
X1224000Y762993D01*
X1222001Y760993D01*
X1220002D01*
X1224000Y762993D02*
Y766991D01*
X1139998Y715008D02*
X1128002D01*
Y721006D01*
X1130002Y723006D01*
X1134000D01*
X1136000Y721006D01*
Y715008D01*
Y719007D02*
X1139998Y723006D01*
Y727004D02*
Y731003D01*
Y729004D01*
X1128002D01*
X1130002Y727004D01*
X1128002Y744998D02*
X1130002Y741000D01*
X1134000Y737001D01*
X1137999D01*
X1139998Y739000D01*
Y742999D01*
X1137999Y744998D01*
X1136000D01*
X1134000Y742999D01*
Y737001D01*
X1141998Y748997D02*
Y756994D01*
X1128002Y760993D02*
Y768991D01*
X1130002D01*
X1137999Y760993D01*
X1139998D01*
X1049998Y715509D02*
X1038002D01*
Y721507D01*
X1040002Y723506D01*
X1044000D01*
X1046000Y721507D01*
Y715509D01*
Y719507D02*
X1049998Y723506D01*
Y727505D02*
Y731504D01*
Y729504D01*
X1038002D01*
X1040002Y727505D01*
X1038002Y745499D02*
X1040002Y741500D01*
X1044000Y737502D01*
X1047999D01*
X1049998Y739501D01*
Y743500D01*
X1047999Y745499D01*
X1046000D01*
X1044000Y743500D01*
Y737502D01*
X1051998Y749498D02*
Y757495D01*
X1038002Y769491D02*
X1040002Y765493D01*
X1044000Y761494D01*
X1047999D01*
X1049998Y763493D01*
Y767492D01*
X1047999Y769491D01*
X1046000D01*
X1044000Y767492D01*
Y761494D01*
X959998Y715509D02*
X948002D01*
Y721507D01*
X950002Y723506D01*
X954000D01*
X956000Y721507D01*
Y715509D01*
Y719507D02*
X959998Y723506D01*
Y727505D02*
Y731504D01*
Y729504D01*
X948002D01*
X950002Y727505D01*
X948002Y745499D02*
X950002Y741500D01*
X954000Y737502D01*
X957999D01*
X959998Y739501D01*
Y743500D01*
X957999Y745499D01*
X956000D01*
X954000Y743500D01*
Y737502D01*
X961998Y749498D02*
Y757495D01*
X948002Y769491D02*
Y761494D01*
X954000D01*
X952001Y765493D01*
Y767492D01*
X954000Y769491D01*
X957999D01*
X959998Y767492D01*
Y763493D01*
X957999Y761494D01*
X870348Y714758D02*
X858352D01*
Y720756D01*
X860352Y722756D01*
X864350D01*
X866350Y720756D01*
Y714758D01*
Y718757D02*
X870348Y722756D01*
Y726754D02*
Y730753D01*
Y728754D01*
X858352D01*
X860352Y726754D01*
X858352Y744748D02*
X860352Y740750D01*
X864350Y736751D01*
X868349D01*
X870348Y738750D01*
Y742749D01*
X868349Y744748D01*
X866350D01*
X864350Y742749D01*
Y736751D01*
X872348Y748747D02*
Y756745D01*
X870348Y766741D02*
X858352D01*
X864350Y760743D01*
Y768741D01*
X779998Y715008D02*
X768002D01*
Y721006D01*
X770002Y723006D01*
X774000D01*
X776000Y721006D01*
Y715008D01*
Y719007D02*
X779998Y723006D01*
Y727004D02*
Y731003D01*
Y729004D01*
X768002D01*
X770002Y727004D01*
X768002Y744998D02*
X770002Y741000D01*
X774000Y737001D01*
X777999D01*
X779998Y739000D01*
Y742999D01*
X777999Y744998D01*
X776000D01*
X774000Y742999D01*
Y737001D01*
X781998Y748997D02*
Y756994D01*
X770002Y760993D02*
X768002Y762993D01*
Y766991D01*
X770002Y768991D01*
X772001D01*
X774000Y766991D01*
Y764992D01*
Y766991D01*
X776000Y768991D01*
X777999D01*
X779998Y766991D01*
Y762993D01*
X777999Y760993D01*
X689998Y715008D02*
X678002D01*
Y721006D01*
X680002Y723006D01*
X684000D01*
X686000Y721006D01*
Y715008D01*
Y719007D02*
X689998Y723006D01*
Y727004D02*
Y731003D01*
Y729004D01*
X678002D01*
X680002Y727004D01*
X678002Y744998D02*
X680002Y741000D01*
X684000Y737001D01*
X687999D01*
X689998Y739000D01*
Y742999D01*
X687999Y744998D01*
X686000D01*
X684000Y742999D01*
Y737001D01*
X691998Y748997D02*
Y756994D01*
X689998Y768991D02*
Y760993D01*
X682001Y768991D01*
X680002D01*
X678002Y766991D01*
Y762993D01*
X680002Y760993D01*
X599998Y715008D02*
X588002D01*
Y721006D01*
X590002Y723006D01*
X594000D01*
X596000Y721006D01*
Y715008D01*
Y719007D02*
X599998Y723006D01*
Y727004D02*
Y731003D01*
Y729004D01*
X588002D01*
X590002Y727004D01*
X588002Y744998D02*
X590002Y741000D01*
X594000Y737001D01*
X597999D01*
X599998Y739000D01*
Y742999D01*
X597999Y744998D01*
X596000D01*
X594000Y742999D01*
Y737001D01*
X601998Y748997D02*
Y756994D01*
X599998Y760993D02*
Y764992D01*
Y762993D01*
X588002D01*
X590002Y760993D01*
X295005Y894002D02*
Y905998D01*
X301003D01*
X303002Y903999D01*
Y900000D01*
X301003Y898001D01*
X295005D01*
X299004D02*
X303002Y894002D01*
X307001D02*
X311000D01*
X309000D01*
Y905998D01*
X307001Y903999D01*
X324995Y905998D02*
X316998D01*
Y900000D01*
X320996Y901999D01*
X322996D01*
X324995Y900000D01*
Y896001D01*
X322996Y894002D01*
X318997D01*
X316998Y896001D01*
X295005Y1019002D02*
Y1030998D01*
X301003D01*
X303002Y1028999D01*
Y1025000D01*
X301003Y1023001D01*
X295005D01*
X299004D02*
X303002Y1019002D01*
X307001D02*
X311000D01*
X309000D01*
Y1030998D01*
X307001Y1028999D01*
X322996Y1019002D02*
Y1030998D01*
X316998Y1025000D01*
X324995D01*
X295005Y609002D02*
Y620998D01*
X301003D01*
X303002Y618999D01*
Y615000D01*
X301003Y613001D01*
X295005D01*
X299004D02*
X303002Y609002D01*
X307001D02*
X311000D01*
X309000D01*
Y620998D01*
X307001Y618999D01*
X316998D02*
X318997Y620998D01*
X322996D01*
X324995Y618999D01*
Y616999D01*
X322996Y615000D01*
X320996D01*
X322996D01*
X324995Y613001D01*
Y611001D01*
X322996Y609002D01*
X318997D01*
X316998Y611001D01*
X295005Y734002D02*
Y745998D01*
X301003D01*
X303002Y743999D01*
Y740000D01*
X301003Y738001D01*
X295005D01*
X299004D02*
X303002Y734002D01*
X307001D02*
X311000D01*
X309000D01*
Y745998D01*
X307001Y743999D01*
X324995Y734002D02*
X316998D01*
X324995Y741999D01*
Y743999D01*
X322996Y745998D01*
X318997D01*
X316998Y743999D01*
X257004Y894002D02*
Y905998D01*
X263002D01*
X265002Y903999D01*
Y900000D01*
X263002Y898001D01*
X257004D01*
X261003D02*
X265002Y894002D01*
X269000D02*
X272999D01*
X271000D01*
Y905998D01*
X269000Y903999D01*
X278997Y894002D02*
X282996D01*
X280996D01*
Y905998D01*
X278997Y903999D01*
X255005Y1019002D02*
Y1030998D01*
X261003D01*
X263002Y1028999D01*
Y1025000D01*
X261003Y1023001D01*
X255005D01*
X259004D02*
X263002Y1019002D01*
X267001D02*
X271000D01*
X269000D01*
Y1030998D01*
X267001Y1028999D01*
X276998D02*
X278997Y1030998D01*
X282996D01*
X284995Y1028999D01*
Y1021001D01*
X282996Y1019002D01*
X278997D01*
X276998Y1021001D01*
Y1028999D01*
X260003Y609002D02*
Y620998D01*
X266001D01*
X268001Y618999D01*
Y615000D01*
X266001Y613001D01*
X260003D01*
X264002D02*
X268001Y609002D01*
X271999Y611001D02*
X273999Y609002D01*
X277997D01*
X279997Y611001D01*
Y618999D01*
X277997Y620998D01*
X273999D01*
X271999Y618999D01*
Y616999D01*
X273999Y615000D01*
X279997D01*
X260003Y734002D02*
Y745998D01*
X266001D01*
X268001Y743999D01*
Y740000D01*
X266001Y738001D01*
X260003D01*
X264002D02*
X268001Y734002D01*
X271999Y743999D02*
X273999Y745998D01*
X277997D01*
X279997Y743999D01*
Y741999D01*
X277997Y740000D01*
X279997Y738001D01*
Y736001D01*
X277997Y734002D01*
X273999D01*
X271999Y736001D01*
Y738001D01*
X273999Y740000D01*
X271999Y741999D01*
Y743999D01*
X273999Y740000D02*
X277997D01*
X220003Y894002D02*
Y905998D01*
X226001D01*
X228001Y903999D01*
Y900000D01*
X226001Y898001D01*
X220003D01*
X224002D02*
X228001Y894002D01*
X231999Y905998D02*
X239997D01*
Y903999D01*
X231999Y896001D01*
Y894002D01*
X220003Y1019002D02*
Y1030998D01*
X226001D01*
X228001Y1028999D01*
Y1025000D01*
X226001Y1023001D01*
X220003D01*
X224002D02*
X228001Y1019002D01*
X239997Y1030998D02*
X235998Y1028999D01*
X231999Y1025000D01*
Y1021001D01*
X233999Y1019002D01*
X237997D01*
X239997Y1021001D01*
Y1023001D01*
X237997Y1025000D01*
X231999D01*
X225003Y609002D02*
Y620998D01*
X231001D01*
X233001Y618999D01*
Y615000D01*
X231001Y613001D01*
X225003D01*
X229002D02*
X233001Y609002D01*
X244997Y620998D02*
X236999D01*
Y615000D01*
X240998Y616999D01*
X242997D01*
X244997Y615000D01*
Y611001D01*
X242997Y609002D01*
X238999D01*
X236999Y611001D01*
X220003Y734002D02*
Y745998D01*
X226001D01*
X228001Y743999D01*
Y740000D01*
X226001Y738001D01*
X220003D01*
X224002D02*
X228001Y734002D01*
X237997D02*
Y745998D01*
X231999Y740000D01*
X239997D01*
X342503Y584002D02*
Y595998D01*
X348501D01*
X350501Y593999D01*
Y590000D01*
X348501Y588001D01*
X342503D01*
X346502D02*
X350501Y584002D01*
X354499Y593999D02*
X356499Y595998D01*
X360497D01*
X362497Y593999D01*
Y591999D01*
X360497Y590000D01*
X358498D01*
X360497D01*
X362497Y588001D01*
Y586001D01*
X360497Y584002D01*
X356499D01*
X354499Y586001D01*
X250003Y464002D02*
Y475998D01*
X256001D01*
X258001Y473999D01*
Y470000D01*
X256001Y468001D01*
X250003D01*
X254002D02*
X258001Y464002D01*
X269997D02*
X261999D01*
X269997Y471999D01*
Y473999D01*
X267997Y475998D01*
X263999D01*
X261999Y473999D01*
X302003Y464002D02*
Y475998D01*
X308001D01*
X310000Y473999D01*
Y470000D01*
X308001Y468001D01*
X302003D01*
X306001D02*
X310000Y464002D01*
X313999D02*
X317997D01*
X315998D01*
Y475998D01*
X313999Y473999D01*
X553001Y1110998D02*
X549002D01*
X551001D01*
Y1101001D01*
X549002Y1099002D01*
X547003D01*
X545003Y1101001D01*
X564997Y1099002D02*
X556999D01*
X564997Y1106999D01*
Y1108999D01*
X562997Y1110998D01*
X558999D01*
X556999Y1108999D01*
X560000Y320998D02*
X556001D01*
X558001D01*
Y311001D01*
X556001Y309002D01*
X554002D01*
X552003Y311001D01*
X563999Y309002D02*
X567997D01*
X565998D01*
Y320998D01*
X563999Y318999D01*
X529002Y950005D02*
Y954004D01*
Y952004D01*
X540998D01*
Y950005D01*
Y954004D01*
X531001Y967999D02*
X529002Y966000D01*
Y962001D01*
X531001Y960002D01*
X538999D01*
X540998Y962001D01*
Y966000D01*
X538999Y967999D01*
X540998Y979995D02*
Y971998D01*
X533001Y979995D01*
X531001D01*
X529002Y977996D01*
Y973997D01*
X531001Y971998D01*
X529715Y671972D02*
Y675971D01*
Y673972D01*
X541712D01*
Y671972D01*
Y675971D01*
X531715Y689966D02*
X529715Y687967D01*
Y683968D01*
X531715Y681969D01*
X539712D01*
X541712Y683968D01*
Y687967D01*
X539712Y689966D01*
X541712Y693965D02*
Y697964D01*
Y695965D01*
X529715D01*
X531715Y693965D01*
X513001Y538999D02*
X511001Y540998D01*
X507003D01*
X505003Y538999D01*
Y531001D01*
X507003Y529002D01*
X511001D01*
X513001Y531001D01*
X522997Y529002D02*
Y540998D01*
X516999Y535000D01*
X524997D01*
X428001Y458999D02*
X426001Y460998D01*
X422003D01*
X420003Y458999D01*
Y451001D01*
X422003Y449002D01*
X426001D01*
X428001Y451001D01*
X431999Y458999D02*
X433999Y460998D01*
X437997D01*
X439997Y458999D01*
Y456999D01*
X437997Y455000D01*
X435998D01*
X437997D01*
X439997Y453001D01*
Y451001D01*
X437997Y449002D01*
X433999D01*
X431999Y451001D01*
X433001Y1053999D02*
X431001Y1055998D01*
X427003D01*
X425003Y1053999D01*
Y1046001D01*
X427003Y1044002D01*
X431001D01*
X433001Y1046001D01*
X444997Y1044002D02*
X436999D01*
X444997Y1051999D01*
Y1053999D01*
X442997Y1055998D01*
X438999D01*
X436999Y1053999D01*
X435000Y768999D02*
X433001Y770998D01*
X429002D01*
X427003Y768999D01*
Y761001D01*
X429002Y759002D01*
X433001D01*
X435000Y761001D01*
X438999Y759002D02*
X442997D01*
X440998D01*
Y770998D01*
X438999Y768999D01*
D11*
X219000Y345000D02*
G03*
X219000Y345000I-4000J0D01*
G01*
X2789000Y1080000D02*
G03*
X2789000Y1080000I-4000J0D01*
G01*
D12*
X428500Y555000D02*
G03*
X428500Y555000I-1000J0D01*
G01*
D13*
X528870Y728470D02*
G03*
X528870Y728470I-3000J0D01*
G01*
X528870Y1012592D02*
G03*
X528870Y1012592I-3000J0D01*
G01*
D14*
X2733250Y883000D02*
G03*
X2733250Y883000I-1250J0D01*
G01*
X2714250Y543000D02*
G03*
X2714250Y543000I-1250J0D01*
G01*
X2624250D02*
G03*
X2624250Y543000I-1250J0D01*
G01*
X2643250Y883000D02*
G03*
X2643250Y883000I-1250J0D01*
G01*
X2534250Y543000D02*
G03*
X2534250Y543000I-1250J0D01*
G01*
X2553250Y883000D02*
G03*
X2553250Y883000I-1250J0D01*
G01*
X2444250Y543000D02*
G03*
X2444250Y543000I-1250J0D01*
G01*
X2463250Y883000D02*
G03*
X2463250Y883000I-1250J0D01*
G01*
X2354250Y543000D02*
G03*
X2354250Y543000I-1250J0D01*
G01*
X2373250Y883000D02*
G03*
X2373250Y883000I-1250J0D01*
G01*
X2264250Y543000D02*
G03*
X2264250Y543000I-1250J0D01*
G01*
X2283250Y883000D02*
G03*
X2283250Y883000I-1250J0D01*
G01*
X2174250Y543000D02*
G03*
X2174250Y543000I-1250J0D01*
G01*
X2193250Y883000D02*
G03*
X2193250Y883000I-1250J0D01*
G01*
X2084250Y543000D02*
G03*
X2084250Y543000I-1250J0D01*
G01*
X2103250Y883000D02*
G03*
X2103250Y883000I-1250J0D01*
G01*
X1994250Y543000D02*
G03*
X1994250Y543000I-1250J0D01*
G01*
X2013250Y883000D02*
G03*
X2013250Y883000I-1250J0D01*
G01*
X1904250Y543000D02*
G03*
X1904250Y543000I-1250J0D01*
G01*
X1923250Y883000D02*
G03*
X1923250Y883000I-1250J0D01*
G01*
X1814250Y543000D02*
G03*
X1814250Y543000I-1250J0D01*
G01*
X1833250Y883000D02*
G03*
X1833250Y883000I-1250J0D01*
G01*
X1724250Y543000D02*
G03*
X1724250Y543000I-1250J0D01*
G01*
X1743250Y883000D02*
G03*
X1743250Y883000I-1250J0D01*
G01*
X1634250Y543000D02*
G03*
X1634250Y543000I-1250J0D01*
G01*
X1653250Y883000D02*
G03*
X1653250Y883000I-1250J0D01*
G01*
X1544250Y543000D02*
G03*
X1544250Y543000I-1250J0D01*
G01*
X1563250Y883000D02*
G03*
X1563250Y883000I-1250J0D01*
G01*
X1454250Y543000D02*
G03*
X1454250Y543000I-1250J0D01*
G01*
X1473250Y883000D02*
G03*
X1473250Y883000I-1250J0D01*
G01*
X1364250Y543000D02*
G03*
X1364250Y543000I-1250J0D01*
G01*
X1383250Y883000D02*
G03*
X1383250Y883000I-1250J0D01*
G01*
X1274250Y543000D02*
G03*
X1274250Y543000I-1250J0D01*
G01*
X1293250Y883000D02*
G03*
X1293250Y883000I-1250J0D01*
G01*
X1184250Y543000D02*
G03*
X1184250Y543000I-1250J0D01*
G01*
X1203250Y883000D02*
G03*
X1203250Y883000I-1250J0D01*
G01*
X1094250Y543000D02*
G03*
X1094250Y543000I-1250J0D01*
G01*
X1113250Y883000D02*
G03*
X1113250Y883000I-1250J0D01*
G01*
X1004250Y543000D02*
G03*
X1004250Y543000I-1250J0D01*
G01*
X1023250Y883000D02*
G03*
X1023250Y883000I-1250J0D01*
G01*
X914250Y543000D02*
G03*
X914250Y543000I-1250J0D01*
G01*
X933250Y883000D02*
G03*
X933250Y883000I-1250J0D01*
G01*
X824600Y542750D02*
G03*
X824600Y542750I-1250J0D01*
G01*
X843600Y882750D02*
G03*
X843600Y882750I-1250J0D01*
G01*
X734250Y543000D02*
G03*
X734250Y543000I-1250J0D01*
G01*
X753250Y883000D02*
G03*
X753250Y883000I-1250J0D01*
G01*
X644250Y543000D02*
G03*
X644250Y543000I-1250J0D01*
G01*
X663250Y883000D02*
G03*
X663250Y883000I-1250J0D01*
G01*
X573250D02*
G03*
X573250Y883000I-1250J0D01*
G01*
X554250Y543000D02*
G03*
X554250Y543000I-1250J0D01*
G01*
D15*
X110000Y300000D02*
X2890000D01*
X110000Y147500D02*
Y300000D01*
X2890000Y147500D02*
Y300000D01*
X110000Y1272500D02*
X2890000D01*
X110000Y1120000D02*
Y1272500D01*
X2890000Y1120000D02*
Y1272500D01*
X110000Y1120000D02*
X2890000D01*
X110000Y147500D02*
X2890000D01*
D16*
X226677Y595958D02*
X256677D01*
X226677Y520958D02*
Y595958D01*
Y520958D02*
X256677D01*
X226677Y570958D02*
X256677D01*
X226677Y545958D02*
X256677D01*
Y520958D02*
Y595958D01*
X286677Y520958D02*
Y595958D01*
X256677Y545958D02*
X286677D01*
X256677Y570958D02*
X286677D01*
X256677Y520958D02*
X286677D01*
X256677Y595958D02*
X286677D01*
X316677Y520958D02*
Y595958D01*
X286677Y545958D02*
X316677D01*
X286677Y570958D02*
X316677D01*
X286677Y520958D02*
X316677D01*
X286677Y595958D02*
X316677D01*
X286677Y880958D02*
X316677D01*
X286677Y805958D02*
X316677D01*
X286677Y855958D02*
X316677D01*
X286677Y830958D02*
X316677D01*
Y805958D02*
Y880958D01*
X256677D02*
X286677D01*
X256677Y805958D02*
X286677D01*
X256677Y855958D02*
X286677D01*
X256677Y830958D02*
X286677D01*
Y805958D02*
Y880958D01*
X256677Y805958D02*
Y880958D01*
X226677Y830958D02*
X256677D01*
X226677Y855958D02*
X256677D01*
X226677Y805958D02*
X256677D01*
X226677D02*
Y880958D01*
X256677D01*
X262500Y862500D02*
Y870497D01*
X266499Y874496D01*
X270497Y870497D01*
Y862500D01*
Y868498D01*
X262500D01*
X274496Y862500D02*
X278495D01*
X276495D01*
Y874496D01*
X274496Y872497D01*
X231821Y862566D02*
Y870564D01*
X235820Y874562D01*
X239819Y870564D01*
Y862566D01*
Y868564D01*
X231821D01*
X243818Y872563D02*
X245817Y874562D01*
X249816D01*
X251815Y872563D01*
Y864566D01*
X249816Y862566D01*
X245817D01*
X243818Y864566D01*
Y872563D01*
X291821Y862566D02*
Y870564D01*
X295820Y874562D01*
X299819Y870564D01*
Y862566D01*
Y868564D01*
X291821D01*
X311815Y862566D02*
X303818D01*
X311815Y870564D01*
Y872563D01*
X309816Y874562D01*
X305817D01*
X303818Y872563D01*
X299800Y837535D02*
X303798D01*
X301799D01*
Y849532D01*
X299800Y847532D01*
X269800Y837535D02*
X273798D01*
X271799D01*
Y849532D01*
X269800Y847532D01*
X239800Y837535D02*
X243798D01*
X241799D01*
Y849532D01*
X239800Y847532D01*
X237272Y822469D02*
X239272Y824469D01*
X243270D01*
X245270Y822469D01*
Y814472D01*
X243270Y812472D01*
X239272D01*
X237272Y814472D01*
Y822469D01*
X267272D02*
X269272Y824469D01*
X273270D01*
X275270Y822469D01*
Y814472D01*
X273270Y812472D01*
X269272D01*
X267272Y814472D01*
Y822469D01*
X297272D02*
X299272Y824469D01*
X303270D01*
X305270Y822469D01*
Y814472D01*
X303270Y812472D01*
X299272D01*
X297272Y814472D01*
Y822469D01*
D17*
X2028200Y328195D02*
X2033198D01*
X2030699D01*
Y313200D01*
X2028200D01*
X2033198D01*
X2040696D02*
Y328195D01*
X2050693Y313200D01*
Y328195D01*
X2388200D02*
X2393198D01*
X2390699D01*
Y313200D01*
X2388200D01*
X2393198D01*
X2400696D02*
Y328195D01*
X2410693Y313200D01*
Y328195D01*
X2385698Y1108195D02*
X2380699D01*
X2378200Y1105696D01*
Y1095699D01*
X2380699Y1093200D01*
X2385698D01*
X2388197Y1095699D01*
Y1105696D01*
X2385698Y1108195D01*
X2393195D02*
Y1095699D01*
X2395694Y1093200D01*
X2400693D01*
X2403192Y1095699D01*
Y1108195D01*
X2408190D02*
X2418187D01*
X2413189D01*
Y1093200D01*
X2475698Y1108195D02*
X2470699D01*
X2468200Y1105696D01*
Y1095699D01*
X2470699Y1093200D01*
X2475698D01*
X2478197Y1095699D01*
Y1105696D01*
X2475698Y1108195D01*
X2483195D02*
Y1095699D01*
X2485694Y1093200D01*
X2490693D01*
X2493192Y1095699D01*
Y1108195D01*
X2498190D02*
X2508187D01*
X2503189D01*
Y1093200D01*
X2478200Y328195D02*
X2483198D01*
X2480699D01*
Y313200D01*
X2478200D01*
X2483198D01*
X2490696D02*
Y328195D01*
X2500693Y313200D01*
Y328195D01*
X2565698Y1108195D02*
X2560699D01*
X2558200Y1105696D01*
Y1095699D01*
X2560699Y1093200D01*
X2565698D01*
X2568197Y1095699D01*
Y1105696D01*
X2565698Y1108195D01*
X2573195D02*
Y1095699D01*
X2575694Y1093200D01*
X2580693D01*
X2583192Y1095699D01*
Y1108195D01*
X2588190D02*
X2598187D01*
X2593189D01*
Y1093200D01*
X2568200Y328195D02*
X2573199D01*
X2570699D01*
Y313200D01*
X2568200D01*
X2573199D01*
X2580696D02*
Y328195D01*
X2590693Y313200D01*
Y328195D01*
X2655698Y1108195D02*
X2650699D01*
X2648200Y1105696D01*
Y1095699D01*
X2650699Y1093200D01*
X2655698D01*
X2658197Y1095699D01*
Y1105696D01*
X2655698Y1108195D01*
X2663195D02*
Y1095699D01*
X2665694Y1093200D01*
X2670693D01*
X2673192Y1095699D01*
Y1108195D01*
X2678190D02*
X2688187D01*
X2683189D01*
Y1093200D01*
X2658200Y328195D02*
X2663199D01*
X2660699D01*
Y313200D01*
X2658200D01*
X2663199D01*
X2670696D02*
Y328195D01*
X2680693Y313200D01*
Y328195D01*
X2745698Y1108195D02*
X2740699D01*
X2738200Y1105696D01*
Y1095699D01*
X2740699Y1093200D01*
X2745698D01*
X2748197Y1095699D01*
Y1105696D01*
X2745698Y1108195D01*
X2753195D02*
Y1095699D01*
X2755694Y1093200D01*
X2760693D01*
X2763192Y1095699D01*
Y1108195D01*
X2768190D02*
X2778187D01*
X2773189D01*
Y1093200D01*
X2748200Y328195D02*
X2753199D01*
X2750699D01*
Y313200D01*
X2748200D01*
X2753199D01*
X2760696D02*
Y328195D01*
X2770693Y313200D01*
Y328195D01*
X1938200D02*
X1943198D01*
X1940699D01*
Y313200D01*
X1938200D01*
X1943198D01*
X1950696D02*
Y328195D01*
X1960693Y313200D01*
Y328195D01*
X1935698Y1108195D02*
X1930699D01*
X1928200Y1105696D01*
Y1095699D01*
X1930699Y1093200D01*
X1935698D01*
X1938197Y1095699D01*
Y1105696D01*
X1935698Y1108195D01*
X1943195D02*
Y1095699D01*
X1945694Y1093200D01*
X1950693D01*
X1953192Y1095699D01*
Y1108195D01*
X1958190D02*
X1968187D01*
X1963189D01*
Y1093200D01*
X2025697Y1108195D02*
X2020699D01*
X2018200Y1105696D01*
Y1095699D01*
X2020699Y1093200D01*
X2025697D01*
X2028197Y1095699D01*
Y1105696D01*
X2025697Y1108195D01*
X2033195D02*
Y1095699D01*
X2035694Y1093200D01*
X2040693D01*
X2043192Y1095699D01*
Y1108195D01*
X2048190D02*
X2058187D01*
X2053189D01*
Y1093200D01*
X2115697Y1108195D02*
X2110699D01*
X2108200Y1105696D01*
Y1095699D01*
X2110699Y1093200D01*
X2115697D01*
X2118197Y1095699D01*
Y1105696D01*
X2115697Y1108195D01*
X2123195D02*
Y1095699D01*
X2125694Y1093200D01*
X2130693D01*
X2133192Y1095699D01*
Y1108195D01*
X2138190D02*
X2148187D01*
X2143189D01*
Y1093200D01*
X2118200Y328195D02*
X2123198D01*
X2120699D01*
Y313200D01*
X2118200D01*
X2123198D01*
X2130696D02*
Y328195D01*
X2140693Y313200D01*
Y328195D01*
X2205697Y1108195D02*
X2200699D01*
X2198200Y1105696D01*
Y1095699D01*
X2200699Y1093200D01*
X2205697D01*
X2208197Y1095699D01*
Y1105696D01*
X2205697Y1108195D01*
X2213195D02*
Y1095699D01*
X2215694Y1093200D01*
X2220693D01*
X2223192Y1095699D01*
Y1108195D01*
X2228190D02*
X2238187D01*
X2233189D01*
Y1093200D01*
X2208200Y328195D02*
X2213198D01*
X2210699D01*
Y313200D01*
X2208200D01*
X2213198D01*
X2220696D02*
Y328195D01*
X2230693Y313200D01*
Y328195D01*
X2295697Y1108195D02*
X2290699D01*
X2288200Y1105696D01*
Y1095699D01*
X2290699Y1093200D01*
X2295697D01*
X2298197Y1095699D01*
Y1105696D01*
X2295697Y1108195D01*
X2303195D02*
Y1095699D01*
X2305694Y1093200D01*
X2310693D01*
X2313192Y1095699D01*
Y1108195D01*
X2318190D02*
X2328187D01*
X2323189D01*
Y1093200D01*
X2298200Y328195D02*
X2303198D01*
X2300699D01*
Y313200D01*
X2298200D01*
X2303198D01*
X2310696D02*
Y328195D01*
X2320693Y313200D01*
Y328195D01*
X1488200D02*
X1493198D01*
X1490699D01*
Y313200D01*
X1488200D01*
X1493198D01*
X1500696D02*
Y328195D01*
X1510693Y313200D01*
Y328195D01*
X1485698Y1108195D02*
X1480699D01*
X1478200Y1105696D01*
Y1095699D01*
X1480699Y1093200D01*
X1485698D01*
X1488197Y1095699D01*
Y1105696D01*
X1485698Y1108195D01*
X1493195D02*
Y1095699D01*
X1495694Y1093200D01*
X1500693D01*
X1503192Y1095699D01*
Y1108195D01*
X1508190D02*
X1518187D01*
X1513189D01*
Y1093200D01*
X1575698Y1108195D02*
X1570699D01*
X1568200Y1105696D01*
Y1095699D01*
X1570699Y1093200D01*
X1575698D01*
X1578197Y1095699D01*
Y1105696D01*
X1575698Y1108195D01*
X1583195D02*
Y1095699D01*
X1585694Y1093200D01*
X1590693D01*
X1593192Y1095699D01*
Y1108195D01*
X1598190D02*
X1608187D01*
X1603189D01*
Y1093200D01*
X1578200Y328195D02*
X1583198D01*
X1580699D01*
Y313200D01*
X1578200D01*
X1583198D01*
X1590696D02*
Y328195D01*
X1600693Y313200D01*
Y328195D01*
X1665698Y1108195D02*
X1660699D01*
X1658200Y1105696D01*
Y1095699D01*
X1660699Y1093200D01*
X1665698D01*
X1668197Y1095699D01*
Y1105696D01*
X1665698Y1108195D01*
X1673195D02*
Y1095699D01*
X1675694Y1093200D01*
X1680693D01*
X1683192Y1095699D01*
Y1108195D01*
X1688190D02*
X1698187D01*
X1693189D01*
Y1093200D01*
X1668200Y328195D02*
X1673198D01*
X1670699D01*
Y313200D01*
X1668200D01*
X1673198D01*
X1680696D02*
Y328195D01*
X1690693Y313200D01*
Y328195D01*
X1755698Y1108195D02*
X1750699D01*
X1748200Y1105696D01*
Y1095699D01*
X1750699Y1093200D01*
X1755698D01*
X1758197Y1095699D01*
Y1105696D01*
X1755698Y1108195D01*
X1763195D02*
Y1095699D01*
X1765694Y1093200D01*
X1770693D01*
X1773192Y1095699D01*
Y1108195D01*
X1778190D02*
X1788187D01*
X1783189D01*
Y1093200D01*
X1758200Y328195D02*
X1763198D01*
X1760699D01*
Y313200D01*
X1758200D01*
X1763198D01*
X1770696D02*
Y328195D01*
X1780693Y313200D01*
Y328195D01*
X1845698Y1108195D02*
X1840699D01*
X1838200Y1105696D01*
Y1095699D01*
X1840699Y1093200D01*
X1845698D01*
X1848197Y1095699D01*
Y1105696D01*
X1845698Y1108195D01*
X1853195D02*
Y1095699D01*
X1855694Y1093200D01*
X1860693D01*
X1863192Y1095699D01*
Y1108195D01*
X1868190D02*
X1878187D01*
X1873189D01*
Y1093200D01*
X1848200Y328195D02*
X1853198D01*
X1850699D01*
Y313200D01*
X1848200D01*
X1853198D01*
X1860696D02*
Y328195D01*
X1870693Y313200D01*
Y328195D01*
X1038200D02*
X1043198D01*
X1040699D01*
Y313200D01*
X1038200D01*
X1043198D01*
X1050696D02*
Y328195D01*
X1060693Y313200D01*
Y328195D01*
X1035697Y1108195D02*
X1030699D01*
X1028200Y1105696D01*
Y1095699D01*
X1030699Y1093200D01*
X1035697D01*
X1038197Y1095699D01*
Y1105696D01*
X1035697Y1108195D01*
X1043195D02*
Y1095699D01*
X1045694Y1093200D01*
X1050693D01*
X1053192Y1095699D01*
Y1108195D01*
X1058190D02*
X1068187D01*
X1063189D01*
Y1093200D01*
X1125697Y1108195D02*
X1120699D01*
X1118200Y1105696D01*
Y1095699D01*
X1120699Y1093200D01*
X1125697D01*
X1128197Y1095699D01*
Y1105696D01*
X1125697Y1108195D01*
X1133195D02*
Y1095699D01*
X1135694Y1093200D01*
X1140693D01*
X1143192Y1095699D01*
Y1108195D01*
X1148190D02*
X1158187D01*
X1153189D01*
Y1093200D01*
X1128200Y328195D02*
X1133198D01*
X1130699D01*
Y313200D01*
X1128200D01*
X1133198D01*
X1140696D02*
Y328195D01*
X1150693Y313200D01*
Y328195D01*
X1215697Y1108195D02*
X1210699D01*
X1208200Y1105696D01*
Y1095699D01*
X1210699Y1093200D01*
X1215697D01*
X1218197Y1095699D01*
Y1105696D01*
X1215697Y1108195D01*
X1223195D02*
Y1095699D01*
X1225694Y1093200D01*
X1230693D01*
X1233192Y1095699D01*
Y1108195D01*
X1238190D02*
X1248187D01*
X1243189D01*
Y1093200D01*
X1218200Y328195D02*
X1223198D01*
X1220699D01*
Y313200D01*
X1218200D01*
X1223198D01*
X1230696D02*
Y328195D01*
X1240693Y313200D01*
Y328195D01*
X1305697Y1108195D02*
X1300699D01*
X1298200Y1105696D01*
Y1095699D01*
X1300699Y1093200D01*
X1305697D01*
X1308197Y1095699D01*
Y1105696D01*
X1305697Y1108195D01*
X1313195D02*
Y1095699D01*
X1315694Y1093200D01*
X1320693D01*
X1323192Y1095699D01*
Y1108195D01*
X1328190D02*
X1338187D01*
X1333189D01*
Y1093200D01*
X1308200Y328195D02*
X1313198D01*
X1310699D01*
Y313200D01*
X1308200D01*
X1313198D01*
X1320696D02*
Y328195D01*
X1330693Y313200D01*
Y328195D01*
X1395697Y1108195D02*
X1390699D01*
X1388200Y1105696D01*
Y1095699D01*
X1390699Y1093200D01*
X1395697D01*
X1398197Y1095699D01*
Y1105696D01*
X1395697Y1108195D01*
X1403195D02*
Y1095699D01*
X1405694Y1093200D01*
X1410693D01*
X1413192Y1095699D01*
Y1108195D01*
X1418190D02*
X1428187D01*
X1423189D01*
Y1093200D01*
X1398200Y328195D02*
X1403198D01*
X1400699D01*
Y313200D01*
X1398200D01*
X1403198D01*
X1410696D02*
Y328195D01*
X1420693Y313200D01*
Y328195D01*
X948200D02*
X953198D01*
X950699D01*
Y313200D01*
X948200D01*
X953198D01*
X960696D02*
Y328195D01*
X970693Y313200D01*
Y328195D01*
X945697Y1108195D02*
X940699D01*
X938200Y1105696D01*
Y1095699D01*
X940699Y1093200D01*
X945697D01*
X948197Y1095699D01*
Y1105696D01*
X945697Y1108195D01*
X953195D02*
Y1095699D01*
X955694Y1093200D01*
X960693D01*
X963192Y1095699D01*
Y1108195D01*
X968190D02*
X978187D01*
X973189D01*
Y1093200D01*
X858200Y328195D02*
X863198D01*
X860699D01*
Y313200D01*
X858200D01*
X863198D01*
X870696D02*
Y328195D01*
X880693Y313200D01*
Y328195D01*
X855698Y1108195D02*
X850699D01*
X848200Y1105696D01*
Y1095699D01*
X850699Y1093200D01*
X855698D01*
X858197Y1095699D01*
Y1105696D01*
X855698Y1108195D01*
X863195D02*
Y1095699D01*
X865694Y1093200D01*
X870693D01*
X873192Y1095699D01*
Y1108195D01*
X878190D02*
X888187D01*
X883189D01*
Y1093200D01*
X768200Y328195D02*
X773198D01*
X770699D01*
Y313200D01*
X768200D01*
X773198D01*
X780696D02*
Y328195D01*
X790693Y313200D01*
Y328195D01*
X765698Y1108195D02*
X760699D01*
X758200Y1105696D01*
Y1095699D01*
X760699Y1093200D01*
X765698D01*
X768197Y1095699D01*
Y1105696D01*
X765698Y1108195D01*
X773195D02*
Y1095699D01*
X775694Y1093200D01*
X780693D01*
X783192Y1095699D01*
Y1108195D01*
X788190D02*
X798187D01*
X793189D01*
Y1093200D01*
X678200Y328195D02*
X683198D01*
X680699D01*
Y313200D01*
X678200D01*
X683198D01*
X690696D02*
Y328195D01*
X700693Y313200D01*
Y328195D01*
X675698Y1108195D02*
X670699D01*
X668200Y1105696D01*
Y1095699D01*
X670699Y1093200D01*
X675698D01*
X678197Y1095699D01*
Y1105696D01*
X675698Y1108195D01*
X683195D02*
Y1095699D01*
X685694Y1093200D01*
X690693D01*
X693192Y1095699D01*
Y1108195D01*
X698190D02*
X708187D01*
X703189D01*
Y1093200D01*
X585698Y1108195D02*
X580699D01*
X578200Y1105696D01*
Y1095699D01*
X580699Y1093200D01*
X585698D01*
X588197Y1095699D01*
Y1105696D01*
X585698Y1108195D01*
X593195D02*
Y1095699D01*
X595694Y1093200D01*
X600693D01*
X603192Y1095699D01*
Y1108195D01*
X608190D02*
X618187D01*
X613189D01*
Y1093200D01*
X588200Y328195D02*
X593198D01*
X590699D01*
Y313200D01*
X588200D01*
X593198D01*
X600696D02*
Y328195D01*
X610693Y313200D01*
Y328195D01*
X228197Y1105696D02*
X225698Y1108195D01*
X220699D01*
X218200Y1105696D01*
Y1095699D01*
X220699Y1093200D01*
X225698D01*
X228197Y1095699D01*
Y1100698D01*
X223198D01*
X233195Y1093200D02*
Y1108195D01*
X243192Y1093200D01*
Y1108195D01*
X248190D02*
Y1093200D01*
X255688D01*
X258187Y1095699D01*
Y1105696D01*
X255688Y1108195D01*
X248190D01*
X308200Y1100698D02*
X318197D01*
X313198Y1105696D02*
Y1095699D01*
X333192Y1108195D02*
X323195D01*
Y1100698D01*
X328194Y1103197D01*
X330693D01*
X333192Y1100698D01*
Y1095699D01*
X330693Y1093200D01*
X325694D01*
X323195Y1095699D01*
X338190Y1108195D02*
Y1098198D01*
X343189Y1093200D01*
X348187Y1098198D01*
Y1108195D01*
X498197Y1105696D02*
X495698Y1108195D01*
X490699D01*
X488200Y1105696D01*
Y1103197D01*
X490699Y1100698D01*
X495698D01*
X498197Y1098198D01*
Y1095699D01*
X495698Y1093200D01*
X490699D01*
X488200Y1095699D01*
X513192Y1105696D02*
X510693Y1108195D01*
X505694D01*
X503195Y1105696D01*
Y1095699D01*
X505694Y1093200D01*
X510693D01*
X513192Y1095699D01*
X518190Y1108195D02*
Y1093200D01*
X528187D01*
X408197Y1105696D02*
X405698Y1108195D01*
X400699D01*
X398200Y1105696D01*
Y1103197D01*
X400699Y1100698D01*
X405698D01*
X408197Y1098198D01*
Y1095699D01*
X405698Y1093200D01*
X400699D01*
X398200Y1095699D01*
X413195Y1108195D02*
Y1093200D01*
X420693D01*
X423192Y1095699D01*
Y1105696D01*
X420693Y1108195D01*
X413195D01*
X428190Y1093200D02*
Y1103197D01*
X433189Y1108195D01*
X438187Y1103197D01*
Y1093200D01*
Y1100698D01*
X428190D01*
X398200Y320698D02*
X408197D01*
X403198Y325696D02*
Y315699D01*
X423192Y328195D02*
X413195D01*
Y320698D01*
X418194Y323197D01*
X420693D01*
X423192Y320698D01*
Y315699D01*
X420693Y313200D01*
X415694D01*
X413195Y315699D01*
X428190Y328195D02*
Y318198D01*
X433189Y313200D01*
X438187Y318198D01*
Y328195D01*
X498197Y325696D02*
X495698Y328195D01*
X490699D01*
X488200Y325696D01*
Y315699D01*
X490699Y313200D01*
X495698D01*
X498197Y315699D01*
Y320698D01*
X493198D01*
X503195Y313200D02*
Y328195D01*
X513192Y313200D01*
Y328195D01*
X518190D02*
Y313200D01*
X525688D01*
X528187Y315699D01*
Y325696D01*
X525688Y328195D01*
X518190D01*
X318197Y325696D02*
X315698Y328195D01*
X310699D01*
X308200Y325696D01*
Y323197D01*
X310699Y320698D01*
X315698D01*
X318197Y318198D01*
Y315699D01*
X315698Y313200D01*
X310699D01*
X308200Y315699D01*
X323195Y328195D02*
Y313200D01*
X330693D01*
X333192Y315699D01*
Y325696D01*
X330693Y328195D01*
X323195D01*
X338190Y313200D02*
Y323197D01*
X343189Y328195D01*
X348187Y323197D01*
Y313200D01*
Y320698D01*
X338190D01*
X228197Y325696D02*
X225698Y328195D01*
X220699D01*
X218200Y325696D01*
Y323197D01*
X220699Y320698D01*
X225698D01*
X228197Y318198D01*
Y315699D01*
X225698Y313200D01*
X220699D01*
X218200Y315699D01*
X243192Y325696D02*
X240693Y328195D01*
X235694D01*
X233195Y325696D01*
Y315699D01*
X235694Y313200D01*
X240693D01*
X243192Y315699D01*
X248190Y328195D02*
Y313200D01*
X258187D01*
M02*
