M48
;Layer_Color=9474304
;FILE_FORMAT=4:4
METRIC,LZ
;TYPE=PLATED
T4F00S00C2.0000
;TYPE=NON_PLATED
%
G90
G05
T04
G00X002375Y002675
M15
G01X002425
M16
G00X003275Y002675
M15
G01X003325
M16
G00X004175Y002675
M15
G01X004225
M16
G00X005075Y002675
M15
G01X005125
M16
G00X005975Y002675
M15
G01X006025
M16
G00X006875Y002675
M15
G01X006925
M16
G00X007775Y002675
M15
G01X007825
M16
G00X008675Y002675
M15
G01X008725
M16
G00X009575Y002675
M15
G01X009625
M16
G00X010475Y002675
M15
G01X010525
M16
G00X011375Y002675
M15
G01X011425
M16
G00X012275Y002675
M15
G01X012325
M16
G00X013175Y002675
M15
G01X013225
M16
G00X014075Y002675
M15
G01X014125
M16
G00X014975Y002675
M15
G01X015025
M16
G00X015925Y002675
M15
G01X015875
M16
G00X016825Y002675
M15
G01X016775
M16
G00X017725Y002675
M15
G01X017675
M16
G00X018625Y002675
M15
G01X018575
M16
G00X019525Y002675
M15
G01X019475
M16
G00X020425Y002675
M15
G01X020375
M16
G00X021325Y002675
M15
G01X021275
M16
G00X022225Y002675
M15
G01X022175
M16
G00X023125Y002675
M15
G01X023075
M16
G00X024025Y002675
M15
G01X023975
M16
G00X024925Y002675
M15
G01X024875
M16
G00X025825Y002675
M15
G01X025775
M16
G00X026725Y002675
M15
G01X026675
M16
G00X027625Y002675
M15
G01X027575
M16
G00X003275Y011525
M15
G01X003325
M16
G00X002375Y011525
M15
G01X002425
M16
G00X004175Y011525
M15
G01X004225
M16
G00X005075Y011525
M15
G01X005125
M16
G00X005975Y011525
M15
G01X006025
M16
G00X006875Y011525
M15
G01X006925
M16
G00X007775Y011525
M15
G01X007825
M16
G00X008675Y011525
M15
G01X008725
M16
G00X009575Y011525
M15
G01X009625
M16
G00X010475Y011525
M15
G01X010525
M16
G00X011375Y011525
M15
G01X011425
M16
G00X012275Y011525
M15
G01X012325
M16
G00X013175Y011525
M15
G01X013225
M16
G00X014075Y011525
M15
G01X014125
M16
G00X015025Y011525
M15
G01X014975
M16
G00X015925Y011525
M15
G01X015875
M16
G00X016825Y011525
M15
G01X016775
M16
G00X017725Y011525
M15
G01X017675
M16
G00X018625Y011525
M15
G01X018575
M16
G00X019525Y011525
M15
G01X019475
M16
G00X020425Y011525
M15
G01X020375
M16
G00X021325Y011525
M15
G01X021275
M16
G00X022225Y011525
M15
G01X022175
M16
G00X023125Y011525
M15
G01X023075
M16
G00X024025Y011525
M15
G01X023975
M16
G00X024925Y011525
M15
G01X024875
M16
G00X025825Y011525
M15
G01X025775
M16
G00X026725Y011525
M15
G01X026675
M16
G00X027625Y011525
M15
G01X027575
M16
M17
M30
