G04*
G04 #@! TF.GenerationSoftware,Altium Limited,Altium Designer,20.0.11 (256)*
G04*
G04 Layer_Color=16711935*
%FSLAX25Y25*%
%MOIN*%
G70*
G01*
G75*
%ADD10C,0.00787*%
%ADD74C,0.00394*%
D10*
X398228Y260787D02*
X434449D01*
X398228Y197598D02*
X434449D01*
X398228D02*
Y197795D01*
X402559Y251634D02*
Y251693D01*
X398228Y260787D02*
X398228Y197598D01*
X434449D02*
Y260787D01*
X434508Y54721D02*
Y117910D01*
X398288D02*
X398288Y54721D01*
X402619Y108757D02*
Y108816D01*
X398288Y54721D02*
Y54918D01*
Y54721D02*
X434508D01*
X398288Y117910D02*
X434508D01*
X9843Y226378D02*
Y265748D01*
X108268D01*
X9843Y226378D02*
X108268D01*
Y265748D01*
D74*
X333268Y182272D02*
X345866D01*
X333268Y188375D02*
X345866D01*
Y182272D02*
Y188375D01*
X333268Y182272D02*
Y188375D01*
X338681Y74409D02*
Y87008D01*
X332579Y74409D02*
Y87008D01*
X338681D01*
X332579Y74409D02*
X338681D01*
X336713Y224016D02*
Y236614D01*
X330610Y224016D02*
Y236614D01*
X336713D01*
X330610Y224016D02*
X336713D01*
X333268Y207959D02*
X345866D01*
X333268Y214061D02*
X345866D01*
Y207959D02*
Y214061D01*
X333268Y207959D02*
Y214061D01*
X278780Y255827D02*
Y265827D01*
X259219Y255828D02*
Y265828D01*
X259291Y265827D02*
X278780D01*
X259291Y255827D02*
X278780D01*
X182362D02*
Y265827D01*
X201922Y255825D02*
Y265826D01*
X182362Y255827D02*
X201850D01*
X182362Y265827D02*
X201850D01*
X278780Y200709D02*
Y210709D01*
X259219Y200710D02*
Y210710D01*
X259291Y210709D02*
X278780D01*
X259291Y200709D02*
X278780D01*
X182362D02*
Y210709D01*
X201922Y200707D02*
Y210707D01*
X182362Y200709D02*
X201850D01*
X182362Y210709D02*
X201850D01*
M02*
