G04*
G04 #@! TF.GenerationSoftware,Altium Limited,Altium Designer,20.0.11 (256)*
G04*
G04 Layer_Physical_Order=1*
G04 Layer_Color=255*
%FSLAX25Y25*%
%MOIN*%
G70*
G01*
G75*
%ADD20R,0.06890X0.05906*%
%ADD28C,0.08661*%
%ADD29R,0.08661X0.08661*%
%ADD30R,0.08661X0.08661*%
%ADD40C,0.04724*%
%ADD41R,0.04724X0.04724*%
%ADD42R,0.04724X0.04724*%
%ADD48R,0.03937X0.06299*%
%ADD49R,0.06299X0.03937*%
%ADD50C,0.03937*%
%ADD51C,0.07087*%
%ADD52C,0.12598*%
%ADD53O,0.03937X0.07874*%
%ADD54O,0.03937X0.07874*%
%ADD55O,0.07874X0.03937*%
%ADD56O,0.07874X0.03937*%
%ADD57C,0.07900*%
%ADD58R,0.06496X0.06496*%
%ADD59C,0.06496*%
%ADD60C,0.07874*%
%ADD61R,0.07874X0.07874*%
%ADD62C,0.09843*%
%ADD63P,0.11506X8X292.5*%
%ADD64C,0.10630*%
%ADD65R,0.11024X0.11024*%
%ADD66C,0.11024*%
%ADD67C,0.05118*%
%ADD68R,0.05118X0.05118*%
%ADD69P,0.07671X8X202.5*%
%ADD70C,0.07087*%
%ADD71R,0.05118X0.05118*%
%ADD72C,0.03937*%
%ADD73C,0.02362*%
G36*
X199605Y49455D02*
Y37402D01*
X176969D01*
Y49134D01*
X181102Y50787D01*
X183327D01*
X183567Y50287D01*
X183422Y49937D01*
X192956D01*
X192811Y50287D01*
X193050Y50787D01*
X195276D01*
X199605Y49455D01*
D02*
G37*
%LPC*%
G36*
X192956Y47937D02*
X189189D01*
Y45943D01*
X190157D01*
X190932Y46045D01*
X191655Y46344D01*
X192275Y46820D01*
X192751Y47440D01*
X192956Y47937D01*
D02*
G37*
G36*
X187189D02*
X183422D01*
X183627Y47440D01*
X184103Y46820D01*
X184723Y46344D01*
X185445Y46045D01*
X186221Y45943D01*
X187189D01*
Y47937D01*
D02*
G37*
%LPD*%
D20*
X24606Y126969D02*
D03*
X39370D02*
D03*
D28*
X56118Y203740D02*
D03*
X314959Y97434D02*
D03*
D29*
X121063Y203740D02*
D03*
D30*
X314959Y162379D02*
D03*
D40*
X225146Y181102D02*
D03*
X60681Y59055D02*
D03*
X19291Y48476D02*
D03*
X143701Y259106D02*
D03*
X170276D02*
D03*
D41*
X255169Y181102D02*
D03*
X30658Y59055D02*
D03*
D42*
X19291Y18453D02*
D03*
X143701Y229083D02*
D03*
X170276D02*
D03*
D48*
X345472Y185324D02*
D03*
X333661D02*
D03*
X345472Y211010D02*
D03*
X333661D02*
D03*
D49*
X335630Y86614D02*
D03*
Y74803D02*
D03*
X333661Y236221D02*
D03*
Y224410D02*
D03*
D50*
X296260Y216535D02*
Y225394D01*
X301785Y211010D02*
X333661D01*
X296260Y216535D02*
X301785Y211010D01*
X296260Y225394D02*
X309961Y239094D01*
X156496Y125000D02*
X186102Y154606D01*
X212598D01*
X138779Y125000D02*
X156496D01*
X60681Y59055D02*
X92634D01*
X110351Y41339D01*
X144095D01*
X171260Y73819D02*
X172244D01*
X182913Y84488D02*
X187008D01*
X172244Y73819D02*
X182913Y84488D01*
X30264Y58661D02*
X30658Y59055D01*
X22441Y58661D02*
X30264D01*
X19442Y55663D02*
X22441Y58661D01*
X19291Y48476D02*
X19442Y48627D01*
Y55663D01*
X144095Y41339D02*
X154724Y51968D01*
X166142D01*
X168110Y53937D01*
X188189D01*
X333661Y236221D02*
X345472D01*
X336614Y224410D02*
X345822D01*
X333661D02*
X336614D01*
X324803D02*
X333661D01*
X345472Y185324D02*
X354047D01*
X345472D02*
Y211010D01*
X314961Y234252D02*
X324803Y224410D01*
X314961Y234252D02*
Y248031D01*
X309961Y239094D02*
Y248031D01*
X333661Y185324D02*
Y211010D01*
Y170276D02*
Y185324D01*
Y170276D02*
X343425Y160512D01*
Y123031D02*
Y160512D01*
X335630Y74803D02*
X345918D01*
X335630Y86614D02*
X346457D01*
X402244Y93504D02*
X402559Y93819D01*
X255169Y181102D02*
X290273D01*
X295195Y186024D01*
X296260D01*
X201772Y147300D02*
X204078Y149606D01*
X201772Y134196D02*
Y147300D01*
X204078Y149606D02*
X212598D01*
X128937Y134843D02*
X138779Y125000D01*
X204078Y131890D02*
X212598D01*
X201772Y134196D02*
X204078Y131890D01*
X186102Y126890D02*
X212598D01*
X178150Y134843D02*
X186102Y126890D01*
X151575Y114068D02*
X169187D01*
X177008Y121890D01*
X212598D01*
X402339Y221457D02*
X402499Y221617D01*
X13780Y89078D02*
Y103347D01*
X24606Y114173D02*
Y126969D01*
X13780Y103347D02*
X24606Y114173D01*
X16086Y86772D02*
X23622D01*
X13780Y89078D02*
X16086Y86772D01*
X43307Y85630D02*
X59055D01*
X39449Y81772D02*
X43307Y85630D01*
X59055D02*
X76772Y67913D01*
X117231D02*
X124016Y74698D01*
X76772Y67913D02*
X117231D01*
X175118Y89488D02*
X187008D01*
X164370Y78740D02*
X175118Y89488D01*
X23622Y76772D02*
X53150D01*
X23622Y81772D02*
X39449D01*
X255169Y181102D02*
X255488Y181421D01*
D51*
X143701Y202756D02*
X161417Y185039D01*
X147638Y148622D02*
X161417Y162402D01*
Y185039D01*
X154829Y135144D02*
X187922Y168237D01*
X170276Y199803D02*
X187922Y182157D01*
Y168237D02*
Y182157D01*
X149845Y135144D02*
X154829D01*
X170276Y199803D02*
Y229083D01*
X149694Y134993D02*
X149845Y135144D01*
X103347Y148622D02*
X147638D01*
X143701Y202756D02*
Y229083D01*
X130709Y51968D02*
X142126Y63386D01*
X160827D02*
X171260Y73819D01*
X142126Y63386D02*
X160827D01*
X115354Y51968D02*
X130709D01*
X225146Y181102D02*
Y202020D01*
X187362Y239803D02*
Y260827D01*
Y239803D02*
X225146Y202020D01*
X89567Y134843D02*
X103347Y148622D01*
X178074Y174288D02*
X178150Y174213D01*
X149694Y174363D02*
X149769Y174288D01*
X123031Y174213D02*
X149543D01*
X149694Y174363D01*
X124016Y114068D02*
X151575D01*
X123911Y114173D02*
X124016Y114068D01*
X100607Y114173D02*
X123911D01*
X92520Y106299D02*
X92733D01*
X100607Y114173D01*
X151575Y74698D02*
X151725Y74849D01*
X160479D01*
X164370Y78740D01*
D52*
X16043Y188976D02*
Y206004D01*
X383583Y251693D02*
X402559D01*
X370079Y238189D02*
X383583Y251693D01*
X370079Y200787D02*
Y238189D01*
X226378Y47260D02*
X241126D01*
X253937Y29528D02*
Y34449D01*
X241126Y47260D02*
X253937Y34449D01*
X42323Y126969D02*
Y133858D01*
Y117126D02*
Y126969D01*
X187008Y98756D02*
X192815D01*
X275064Y63450D02*
X283518D01*
X169228Y98756D02*
X187008D01*
X253937Y42323D02*
X275064Y63450D01*
X371063Y108816D02*
Y127953D01*
Y108816D02*
X402619D01*
X371063Y79724D02*
Y108816D01*
X287402Y47244D02*
X338583D01*
X370079Y200787D02*
X392717Y178150D01*
Y149606D02*
Y178150D01*
X371063Y127953D02*
X392717Y149606D01*
X300190Y97434D02*
X314959D01*
X283518Y80762D02*
X300190Y97434D01*
X253518Y163056D02*
X254172Y162402D01*
X314936D02*
X314959Y162379D01*
X254172Y162402D02*
X314936D01*
X242126Y173389D02*
X252459Y163056D01*
X242126Y214567D02*
X274622Y247063D01*
X242126Y173389D02*
Y214567D01*
X252459Y163056D02*
X253518D01*
X283518Y63450D02*
Y80762D01*
X338583Y47244D02*
X371063Y79724D01*
X274622Y247063D02*
Y260827D01*
X120079D02*
X143701D01*
X170276D02*
X186520D01*
X143701D02*
X170276D01*
X273622Y29528D02*
Y33465D01*
X287402Y47244D01*
X53150Y106299D02*
X65945Y93504D01*
X42323Y117126D02*
X53150Y106299D01*
X42323Y133858D02*
X56118Y147653D01*
Y203740D01*
X76278Y260827D02*
X120079D01*
X121063Y203740D02*
Y259842D01*
X120079Y260827D02*
X121063Y259842D01*
X68898Y246063D02*
Y253447D01*
X76278Y260827D01*
X16043Y206004D02*
X39370Y229331D01*
X76478D01*
X83858Y236711D02*
Y246063D01*
X76478Y229331D02*
X83858Y236711D01*
X65945Y93504D02*
X163976D01*
X169228Y98756D01*
X226378Y47260D02*
Y84834D01*
X212509Y98702D02*
X226378Y84834D01*
X192869Y98702D02*
X212509D01*
X192815Y98756D02*
X192869Y98702D01*
D53*
X314961Y248031D02*
D03*
X309961D02*
D03*
X338425Y123031D02*
D03*
X343425D02*
D03*
D54*
X304961Y248031D02*
D03*
X348425Y123031D02*
D03*
D55*
X212598Y131890D02*
D03*
Y159606D02*
D03*
X23622Y86772D02*
D03*
X187008Y94488D02*
D03*
X188189Y48937D02*
D03*
D56*
X212598Y126890D02*
D03*
Y121890D02*
D03*
Y149606D02*
D03*
Y154606D02*
D03*
X23622Y81772D02*
D03*
Y76772D02*
D03*
X187008Y84488D02*
D03*
Y89488D02*
D03*
X188189Y53937D02*
D03*
Y58937D02*
D03*
D57*
X253518Y63450D02*
D03*
Y137859D02*
D03*
Y163056D02*
D03*
X283518Y150458D02*
D03*
Y63450D02*
D03*
D58*
X212509Y63269D02*
D03*
D59*
Y98702D02*
D03*
D60*
X402499Y221617D02*
D03*
Y236696D02*
D03*
X402559Y206693D02*
D03*
X402619Y63816D02*
D03*
X402559Y93819D02*
D03*
Y78740D02*
D03*
X296260Y186024D02*
D03*
Y225394D02*
D03*
X151575Y74698D02*
D03*
Y114068D02*
D03*
X115354Y51968D02*
D03*
X154724D02*
D03*
X53150Y76772D02*
D03*
X92520D02*
D03*
X128937Y134843D02*
D03*
X89567D02*
D03*
X178150D02*
D03*
Y174213D02*
D03*
X124016Y74698D02*
D03*
Y114068D02*
D03*
X53150Y106299D02*
D03*
X92520D02*
D03*
X149694Y134993D02*
D03*
Y174363D02*
D03*
D61*
X402559Y251693D02*
D03*
X402619Y108816D02*
D03*
D62*
X68898Y246063D02*
D03*
X18898Y255906D02*
D03*
Y236221D02*
D03*
X83858Y246063D02*
D03*
X98819D02*
D03*
D63*
X417323Y165354D02*
D03*
X16043Y188976D02*
D03*
D64*
X417323Y145354D02*
D03*
X16043Y168976D02*
D03*
D65*
X293307Y29528D02*
D03*
D66*
X273622D02*
D03*
X253937D02*
D03*
D67*
X226378Y37402D02*
D03*
X320866Y36417D02*
D03*
X115157Y174213D02*
D03*
D68*
X226378Y45276D02*
D03*
X320866Y44291D02*
D03*
D69*
X273780Y260827D02*
D03*
X187362D02*
D03*
X273780Y205709D02*
D03*
X187362D02*
D03*
D70*
X263779Y260827D02*
D03*
X197362D02*
D03*
X263779Y205709D02*
D03*
X197362D02*
D03*
D71*
X123031Y174213D02*
D03*
D72*
X368110Y165354D02*
D03*
X84646D02*
D03*
X368110Y39370D02*
D03*
X84646D02*
D03*
D73*
X194633Y39865D02*
D03*
X188189Y39370D02*
D03*
X197343Y44193D02*
D03*
X181496Y39764D02*
D03*
X179035Y44094D02*
D03*
X345472Y236221D02*
D03*
X354047Y185324D02*
D03*
X345822Y224410D02*
D03*
X345918Y74803D02*
D03*
X346457Y86614D02*
D03*
M02*
