G04*
G04 #@! TF.GenerationSoftware,Altium Limited,Altium Designer,20.0.11 (256)*
G04*
G04 Layer_Color=65535*
%FSLAX25Y25*%
%MOIN*%
G70*
G01*
G75*
%ADD10C,0.00787*%
%ADD11C,0.00600*%
%ADD12C,0.02756*%
%ADD13C,0.01575*%
%ADD14C,0.00591*%
%ADD15C,0.01772*%
%ADD16C,0.01000*%
%ADD17R,0.09291X0.02622*%
D10*
X301414Y254016D02*
X300886Y253179D01*
X300439Y252297D01*
X300078Y251376D01*
X299806Y250425D01*
X299625Y249452D01*
X299537Y248467D01*
X299542Y247478D01*
X299642Y246493D01*
X299834Y245523D01*
X300117Y244575D01*
X300488Y243658D01*
X300945Y242781D01*
X301483Y241950D01*
X302097Y241175D01*
X302782Y240461D01*
X303531Y239815D01*
X304338Y239243D01*
X305196Y238750D01*
X306096Y238340D01*
X307032Y238018D01*
X307993Y237786D01*
X308973Y237645D01*
X309961Y237598D01*
X310949Y237645D01*
X311928Y237786D01*
X312890Y238018D01*
X313825Y238340D01*
X314725Y238750D01*
X315583Y239243D01*
X316390Y239815D01*
X317139Y240461D01*
X317824Y241175D01*
X318438Y241950D01*
X318976Y242781D01*
X319433Y243658D01*
X319805Y244575D01*
X320088Y245523D01*
X320280Y246493D01*
X320379Y247478D01*
X320385Y248467D01*
X320297Y249452D01*
X320115Y250425D01*
X319843Y251376D01*
X319482Y252297D01*
X319035Y253179D01*
X318507Y254016D01*
X218583Y135436D02*
X217746Y135964D01*
X216864Y136411D01*
X215943Y136772D01*
X214992Y137045D01*
X214019Y137226D01*
X213034Y137314D01*
X212045Y137308D01*
X211060Y137209D01*
X210090Y137017D01*
X209142Y136734D01*
X208225Y136362D01*
X207348Y135905D01*
X206517Y135367D01*
X205742Y134753D01*
X205028Y134069D01*
X204382Y133319D01*
X203810Y132512D01*
X203317Y131655D01*
X202907Y130754D01*
X202585Y129819D01*
X202352Y128857D01*
X202212Y127878D01*
X202165Y126890D01*
X202212Y125902D01*
X202352Y124922D01*
X202585Y123961D01*
X202907Y123026D01*
X203317Y122125D01*
X203810Y121267D01*
X204382Y120460D01*
X205028Y119711D01*
X205742Y119026D01*
X206517Y118412D01*
X207348Y117874D01*
X208225Y117418D01*
X209142Y117046D01*
X210090Y116763D01*
X211060Y116571D01*
X212045Y116471D01*
X213034Y116466D01*
X214019Y116554D01*
X214992Y116735D01*
X215943Y117007D01*
X216864Y117368D01*
X217746Y117815D01*
X218583Y118343D01*
Y163153D02*
X217746Y163681D01*
X216864Y164128D01*
X215943Y164489D01*
X214992Y164761D01*
X214019Y164942D01*
X213034Y165030D01*
X212045Y165025D01*
X211060Y164925D01*
X210090Y164733D01*
X209142Y164450D01*
X208225Y164078D01*
X207348Y163622D01*
X206517Y163084D01*
X205742Y162470D01*
X205028Y161785D01*
X204382Y161036D01*
X203810Y160229D01*
X203317Y159371D01*
X202907Y158470D01*
X202585Y157535D01*
X202352Y156574D01*
X202212Y155594D01*
X202165Y154606D01*
X202212Y153618D01*
X202352Y152639D01*
X202585Y151677D01*
X202907Y150742D01*
X203317Y149842D01*
X203810Y148984D01*
X204382Y148177D01*
X205028Y147427D01*
X205742Y146743D01*
X206517Y146129D01*
X207348Y145591D01*
X208225Y145134D01*
X209142Y144762D01*
X210090Y144479D01*
X211060Y144287D01*
X212045Y144188D01*
X213034Y144182D01*
X214019Y144270D01*
X214992Y144451D01*
X215943Y144724D01*
X216864Y145085D01*
X217746Y145532D01*
X218583Y146060D01*
X29606Y90318D02*
X28770Y90846D01*
X27887Y91293D01*
X26966Y91654D01*
X26015Y91926D01*
X25043Y92108D01*
X24057Y92196D01*
X23068Y92190D01*
X22084Y92091D01*
X21113Y91899D01*
X20166Y91615D01*
X19249Y91244D01*
X18371Y90787D01*
X17541Y90249D01*
X16765Y89635D01*
X16051Y88950D01*
X15405Y88201D01*
X14833Y87394D01*
X14341Y86536D01*
X13931Y85636D01*
X13609Y84701D01*
X13376Y83739D01*
X13236Y82760D01*
X13189Y81772D01*
X13236Y80783D01*
X13376Y79804D01*
X13609Y78843D01*
X13931Y77907D01*
X14341Y77007D01*
X14833Y76149D01*
X15406Y75342D01*
X16051Y74593D01*
X16765Y73908D01*
X17541Y73294D01*
X18371Y72756D01*
X19249Y72299D01*
X20166Y71928D01*
X21113Y71645D01*
X22084Y71453D01*
X23068Y71353D01*
X24057Y71348D01*
X25043Y71436D01*
X26015Y71617D01*
X26966Y71889D01*
X27887Y72250D01*
X28770Y72697D01*
X29606Y73225D01*
X192992Y98035D02*
X192156Y98563D01*
X191273Y99010D01*
X190352Y99371D01*
X189401Y99643D01*
X188428Y99824D01*
X187443Y99912D01*
X186454Y99906D01*
X185470Y99807D01*
X184499Y99615D01*
X183551Y99332D01*
X182635Y98960D01*
X181757Y98504D01*
X180927Y97966D01*
X180151Y97352D01*
X179437Y96667D01*
X178791Y95918D01*
X178219Y95111D01*
X177726Y94253D01*
X177317Y93352D01*
X176994Y92417D01*
X176762Y91456D01*
X176622Y90476D01*
X176575Y89488D01*
X176622Y88500D01*
X176762Y87521D01*
X176994Y86559D01*
X177317Y85624D01*
X177726Y84724D01*
X178219Y83866D01*
X178791Y83059D01*
X179437Y82309D01*
X180151Y81625D01*
X180927Y81011D01*
X181757Y80473D01*
X182635Y80016D01*
X183551Y79644D01*
X184499Y79361D01*
X185470Y79169D01*
X186454Y79070D01*
X187443Y79064D01*
X188428Y79152D01*
X189401Y79333D01*
X190352Y79606D01*
X191273Y79967D01*
X192156Y80414D01*
X192992Y80942D01*
X182205Y45391D02*
X183041Y44862D01*
X183924Y44416D01*
X184845Y44054D01*
X185796Y43782D01*
X186768Y43601D01*
X187754Y43513D01*
X188743Y43519D01*
X189727Y43618D01*
X190698Y43810D01*
X191646Y44093D01*
X192562Y44465D01*
X193440Y44922D01*
X194270Y45459D01*
X195046Y46073D01*
X195760Y46758D01*
X196405Y47508D01*
X196977Y48315D01*
X197470Y49172D01*
X197880Y50073D01*
X198203Y51008D01*
X198435Y51970D01*
X198575Y52949D01*
X198622Y53937D01*
X198575Y54925D01*
X198435Y55904D01*
X198203Y56866D01*
X197880Y57801D01*
X197470Y58702D01*
X196977Y59559D01*
X196405Y60366D01*
X195760Y61116D01*
X195046Y61801D01*
X194270Y62415D01*
X193440Y62953D01*
X192562Y63409D01*
X191646Y63781D01*
X190698Y64064D01*
X189727Y64256D01*
X188743Y64355D01*
X187754Y64361D01*
X186768Y64273D01*
X185796Y64092D01*
X184845Y63820D01*
X183924Y63458D01*
X183041Y63012D01*
X182205Y62483D01*
X351972Y117047D02*
X352500Y117884D01*
X352947Y118766D01*
X353308Y119687D01*
X353580Y120638D01*
X353761Y121611D01*
X353849Y122596D01*
X353844Y123585D01*
X353744Y124570D01*
X353552Y125540D01*
X353269Y126488D01*
X352897Y127405D01*
X352441Y128282D01*
X351903Y129113D01*
X351289Y129888D01*
X350604Y130602D01*
X349855Y131248D01*
X349048Y131820D01*
X348190Y132313D01*
X347289Y132723D01*
X346354Y133045D01*
X345393Y133277D01*
X344413Y133418D01*
X343425Y133465D01*
X342437Y133418D01*
X341458Y133277D01*
X340496Y133045D01*
X339561Y132723D01*
X338661Y132313D01*
X337803Y131820D01*
X336996Y131248D01*
X336246Y130602D01*
X335562Y129888D01*
X334948Y129113D01*
X334410Y128282D01*
X333953Y127405D01*
X333581Y126488D01*
X333298Y125540D01*
X333106Y124570D01*
X333007Y123585D01*
X333001Y122596D01*
X333089Y121611D01*
X333270Y120638D01*
X333543Y119687D01*
X333904Y118766D01*
X334351Y117884D01*
X334879Y117047D01*
X236221Y41339D02*
X236170Y42334D01*
X236019Y43320D01*
X235769Y44285D01*
X235423Y45220D01*
X234984Y46115D01*
X234456Y46961D01*
X233846Y47750D01*
X233159Y48472D01*
X232403Y49122D01*
X231584Y49691D01*
X230713Y50175D01*
X229796Y50568D01*
X228845Y50867D01*
X227868Y51068D01*
X226876Y51169D01*
X225879D01*
X224887Y51068D01*
X223911Y50867D01*
X222960Y50568D01*
X222043Y50175D01*
X221172Y49691D01*
X220353Y49122D01*
X219597Y48472D01*
X218910Y47750D01*
X218300Y46961D01*
X217772Y46115D01*
X217333Y45220D01*
X216987Y44285D01*
X216737Y43320D01*
X216586Y42334D01*
X216535Y41339D01*
X216586Y40343D01*
X216737Y39357D01*
X216987Y38392D01*
X217333Y37457D01*
X217772Y36562D01*
X218300Y35716D01*
X218910Y34927D01*
X219597Y34205D01*
X220353Y33555D01*
X221172Y32986D01*
X222043Y32502D01*
X222960Y32109D01*
X223911Y31810D01*
X224887Y31610D01*
X225879Y31509D01*
X226876D01*
X227868Y31610D01*
X228845Y31810D01*
X229796Y32109D01*
X230713Y32502D01*
X231584Y32986D01*
X232403Y33555D01*
X233159Y34205D01*
X233846Y34927D01*
X234456Y35716D01*
X234984Y36562D01*
X235423Y37457D01*
X235769Y38392D01*
X236019Y39357D01*
X236170Y40343D01*
X236221Y41339D01*
X330709Y40354D02*
X330658Y41350D01*
X330507Y42336D01*
X330257Y43301D01*
X329911Y44236D01*
X329472Y45131D01*
X328944Y45977D01*
X328334Y46766D01*
X327647Y47488D01*
X326891Y48138D01*
X326073Y48707D01*
X325201Y49191D01*
X324285Y49584D01*
X323333Y49883D01*
X322357Y50083D01*
X321365Y50184D01*
X320368D01*
X319376Y50083D01*
X318399Y49883D01*
X317448Y49584D01*
X316532Y49191D01*
X315660Y48707D01*
X314842Y48138D01*
X314085Y47488D01*
X313398Y46766D01*
X312788Y45977D01*
X312260Y45131D01*
X311821Y44236D01*
X311475Y43301D01*
X311225Y42336D01*
X311074Y41350D01*
X311024Y40354D01*
X311074Y39359D01*
X311225Y38373D01*
X311475Y37408D01*
X311821Y36473D01*
X312260Y35578D01*
X312788Y34732D01*
X313398Y33943D01*
X314085Y33220D01*
X314842Y32571D01*
X315660Y32002D01*
X316532Y31518D01*
X317448Y31124D01*
X318399Y30826D01*
X319376Y30625D01*
X320368Y30524D01*
X321365D01*
X322357Y30625D01*
X323333Y30826D01*
X324285Y31124D01*
X325201Y31518D01*
X326073Y32002D01*
X326891Y32571D01*
X327647Y33220D01*
X328334Y33943D01*
X328944Y34732D01*
X329472Y35578D01*
X329911Y36473D01*
X330257Y37408D01*
X330507Y38373D01*
X330658Y39359D01*
X330709Y40354D01*
X128937Y174213D02*
X128886Y175208D01*
X128735Y176194D01*
X128486Y177159D01*
X128139Y178094D01*
X127700Y178989D01*
X127173Y179835D01*
X126563Y180624D01*
X125876Y181346D01*
X125119Y181996D01*
X124301Y182565D01*
X123429Y183049D01*
X122513Y183442D01*
X121562Y183741D01*
X120585Y183942D01*
X119593Y184043D01*
X118596D01*
X117604Y183942D01*
X116627Y183741D01*
X115676Y183442D01*
X114760Y183049D01*
X113888Y182565D01*
X113070Y181996D01*
X112313Y181346D01*
X111626Y180624D01*
X111016Y179835D01*
X110489Y178989D01*
X110050Y178094D01*
X109703Y177159D01*
X109453Y176194D01*
X109302Y175208D01*
X109252Y174213D01*
X109302Y173217D01*
X109453Y172231D01*
X109703Y171266D01*
X110050Y170331D01*
X110489Y169436D01*
X111016Y168590D01*
X111626Y167801D01*
X112313Y167079D01*
X113070Y166429D01*
X113888Y165860D01*
X114760Y165376D01*
X115676Y164983D01*
X116628Y164684D01*
X117604Y164484D01*
X118596Y164383D01*
X119593D01*
X120585Y164484D01*
X121562Y164684D01*
X122513Y164983D01*
X123429Y165376D01*
X124301Y165860D01*
X125119Y166429D01*
X125876Y167079D01*
X126563Y167801D01*
X127173Y168590D01*
X127700Y169436D01*
X128139Y170331D01*
X128486Y171266D01*
X128735Y172231D01*
X128886Y173217D01*
X128937Y174213D01*
X301693Y254134D02*
X318228D01*
X218701Y118622D02*
Y135158D01*
Y146339D02*
Y162874D01*
X29724Y73504D02*
Y90039D01*
X193110Y81221D02*
Y97756D01*
X182087Y45669D02*
Y62205D01*
X335157Y116929D02*
X351693D01*
X330906Y181387D02*
X348228D01*
X330906Y189261D02*
X348228D01*
Y181387D02*
Y189261D01*
X330906Y181387D02*
Y189261D01*
X339567Y72047D02*
Y89370D01*
X331693Y72047D02*
Y89370D01*
X339567D01*
X331693Y72047D02*
X339567D01*
X337598Y221654D02*
Y238976D01*
X329724Y221654D02*
Y238976D01*
X337598D01*
X329724Y221654D02*
X337598D01*
X330906Y207073D02*
X348228D01*
X330906Y214947D02*
X348228D01*
Y207073D02*
Y214947D01*
X330906Y207073D02*
Y214947D01*
X207864Y71862D02*
Y90110D01*
X217155D01*
Y71862D02*
Y90110D01*
X207864Y71862D02*
X217155D01*
X97941Y193583D02*
Y213898D01*
X61433Y203740D02*
X69890D01*
X107291D02*
X115748D01*
X107291Y193307D02*
Y214173D01*
X69890D02*
X107291D01*
X69890Y193307D02*
Y214173D01*
Y193307D02*
X107291D01*
X325392Y111205D02*
Y148607D01*
X304526Y111205D02*
X325392D01*
X304526D02*
Y148607D01*
X325392D01*
X314959D02*
Y157064D01*
Y102749D02*
Y111205D01*
X304802Y139257D02*
X325117D01*
X301181Y21654D02*
Y37402D01*
X246063D02*
X301181D01*
X246063Y21654D02*
Y37402D01*
Y21654D02*
X301181D01*
X229606Y181102D02*
X231181D01*
X249134D02*
X250709D01*
X246063Y177736D02*
Y184468D01*
X249134Y177342D02*
Y184862D01*
X231181D02*
X249134D01*
X231181Y177342D02*
Y184862D01*
Y177342D02*
X249134D01*
X54646Y59055D02*
X56221D01*
X35118D02*
X36693D01*
X39764Y55689D02*
Y62421D01*
X36693Y55295D02*
Y62815D01*
Y55295D02*
X54646D01*
Y62815D01*
X36693D02*
X54646D01*
X19291Y42441D02*
Y44016D01*
Y22913D02*
Y24488D01*
X15925Y27559D02*
X22658D01*
X15531Y24488D02*
X23051D01*
Y42441D01*
X15531D02*
X23051D01*
X15531Y24488D02*
Y42441D01*
X258676Y257975D02*
Y263487D01*
X279206Y255217D02*
Y266240D01*
X258675D02*
X279206D01*
X258675Y255217D02*
X279206D01*
X258676Y263487D02*
Y266243D01*
Y255219D02*
Y257975D01*
X202466Y258167D02*
Y263679D01*
X181936Y255413D02*
Y266437D01*
Y255413D02*
X202467D01*
X181936Y266437D02*
X202467D01*
X202466Y255411D02*
Y258167D01*
Y263679D02*
Y266434D01*
X258676Y202857D02*
Y208369D01*
X279206Y200099D02*
Y211122D01*
X258675D02*
X279206D01*
X258675Y200099D02*
X279206D01*
X258676Y208369D02*
Y211125D01*
Y200101D02*
Y202857D01*
X202466Y203049D02*
Y208560D01*
X181936Y200295D02*
Y211319D01*
Y200295D02*
X202467D01*
X181936Y211319D02*
X202467D01*
X202466Y200293D02*
Y203049D01*
Y208560D02*
Y211316D01*
X143701Y253071D02*
Y254646D01*
Y233543D02*
Y235118D01*
X140335Y238189D02*
X147067D01*
X139941Y235118D02*
X147461D01*
Y253071D01*
X139941D02*
X147461D01*
X139941Y235118D02*
Y253071D01*
X45472Y125984D02*
Y127953D01*
X44488Y126969D02*
X46457D01*
X29528Y130512D02*
X34449D01*
X29528Y123425D02*
X34449D01*
X170276Y253071D02*
Y254646D01*
Y233543D02*
Y235118D01*
X166909Y238189D02*
X173642D01*
X166516Y235118D02*
X174035D01*
Y253071D01*
X166516D02*
X174035D01*
X166516Y235118D02*
Y253071D01*
D11*
X294467Y63450D02*
X293867D01*
X294467D01*
X288918Y55469D02*
Y168669D01*
X248118Y55469D02*
X288918D01*
X248118D02*
Y168669D01*
X288918D01*
D12*
X403445Y265709D02*
X402901Y266458D01*
X402021Y266172D01*
Y265246D01*
X402901Y264960D01*
X403445Y265709D01*
X403504Y122832D02*
X402960Y123581D01*
X402080Y123294D01*
Y122369D01*
X402960Y122083D01*
X403504Y122832D01*
D13*
X379921Y165354D02*
X379879Y166356D01*
X379751Y167350D01*
X379540Y168330D01*
X379247Y169289D01*
X378873Y170219D01*
X378421Y171115D01*
X377896Y171968D01*
X377300Y172774D01*
X376637Y173527D01*
X375914Y174221D01*
X375133Y174850D01*
X374303Y175412D01*
X373428Y175901D01*
X372514Y176314D01*
X371569Y176648D01*
X370599Y176900D01*
X369610Y177070D01*
X368612Y177155D01*
X367609D01*
X366610Y177070D01*
X365622Y176900D01*
X364652Y176648D01*
X363706Y176314D01*
X362793Y175901D01*
X361918Y175412D01*
X361087Y174850D01*
X360307Y174221D01*
X359583Y173527D01*
X358921Y172774D01*
X358325Y171968D01*
X357799Y171115D01*
X357348Y170219D01*
X356974Y169289D01*
X356680Y168330D01*
X356469Y167350D01*
X356342Y166356D01*
X356299Y165354D01*
X356342Y164353D01*
X356469Y163358D01*
X356680Y162378D01*
X356974Y161420D01*
X357348Y160489D01*
X357799Y159594D01*
X358325Y158740D01*
X358921Y157934D01*
X359583Y157182D01*
X360307Y156488D01*
X361087Y155858D01*
X361918Y155297D01*
X362793Y154808D01*
X363706Y154395D01*
X364652Y154061D01*
X365622Y153808D01*
X366610Y153639D01*
X367609Y153554D01*
X368612D01*
X369611Y153639D01*
X370599Y153808D01*
X371569Y154061D01*
X372514Y154395D01*
X373428Y154808D01*
X374303Y155297D01*
X375133Y155858D01*
X375914Y156488D01*
X376637Y157182D01*
X377300Y157934D01*
X377896Y158740D01*
X378421Y159594D01*
X378873Y160489D01*
X379247Y161420D01*
X379540Y162378D01*
X379751Y163358D01*
X379879Y164353D01*
X379921Y165354D01*
X96457D02*
X96414Y166356D01*
X96287Y167350D01*
X96076Y168330D01*
X95782Y169289D01*
X95408Y170219D01*
X94957Y171115D01*
X94431Y171968D01*
X93835Y172774D01*
X93173Y173527D01*
X92449Y174221D01*
X91669Y174850D01*
X90838Y175412D01*
X89963Y175901D01*
X89050Y176314D01*
X88104Y176648D01*
X87134Y176900D01*
X86146Y177070D01*
X85147Y177155D01*
X84144D01*
X83145Y177070D01*
X82157Y176900D01*
X81187Y176648D01*
X80242Y176314D01*
X79328Y175901D01*
X78453Y175412D01*
X77622Y174850D01*
X76842Y174221D01*
X76119Y173527D01*
X75456Y172774D01*
X74860Y171968D01*
X74335Y171115D01*
X73883Y170219D01*
X73509Y169289D01*
X73216Y168330D01*
X73005Y167350D01*
X72877Y166356D01*
X72835Y165354D01*
X72877Y164353D01*
X73005Y163358D01*
X73216Y162378D01*
X73509Y161420D01*
X73883Y160489D01*
X74335Y159594D01*
X74860Y158740D01*
X75456Y157934D01*
X76119Y157182D01*
X76842Y156488D01*
X77622Y155858D01*
X78453Y155297D01*
X79328Y154808D01*
X80242Y154395D01*
X81187Y154061D01*
X82157Y153808D01*
X83145Y153639D01*
X84144Y153554D01*
X85147D01*
X86146Y153639D01*
X87134Y153808D01*
X88104Y154061D01*
X89050Y154395D01*
X89963Y154808D01*
X90838Y155297D01*
X91669Y155858D01*
X92449Y156488D01*
X93173Y157182D01*
X93835Y157934D01*
X94431Y158740D01*
X94957Y159594D01*
X95408Y160489D01*
X95782Y161420D01*
X96076Y162378D01*
X96287Y163358D01*
X96414Y164353D01*
X96457Y165354D01*
X379921Y39370D02*
X379879Y40372D01*
X379751Y41366D01*
X379540Y42346D01*
X379247Y43305D01*
X378873Y44235D01*
X378421Y45130D01*
X377896Y45984D01*
X377300Y46790D01*
X376637Y47543D01*
X375914Y48236D01*
X375133Y48866D01*
X374303Y49428D01*
X373428Y49916D01*
X372514Y50329D01*
X371569Y50663D01*
X370599Y50916D01*
X369610Y51085D01*
X368612Y51170D01*
X367609D01*
X366610Y51085D01*
X365622Y50916D01*
X364652Y50663D01*
X363706Y50329D01*
X362793Y49916D01*
X361918Y49428D01*
X361087Y48866D01*
X360307Y48236D01*
X359583Y47543D01*
X358921Y46790D01*
X358325Y45984D01*
X357799Y45130D01*
X357348Y44235D01*
X356974Y43305D01*
X356680Y42346D01*
X356469Y41366D01*
X356342Y40372D01*
X356299Y39370D01*
X356342Y38368D01*
X356469Y37374D01*
X356680Y36394D01*
X356974Y35435D01*
X357348Y34505D01*
X357799Y33610D01*
X358325Y32756D01*
X358921Y31950D01*
X359583Y31198D01*
X360307Y30504D01*
X361087Y29874D01*
X361918Y29313D01*
X362793Y28824D01*
X363706Y28411D01*
X364652Y28077D01*
X365622Y27824D01*
X366610Y27655D01*
X367609Y27570D01*
X368612D01*
X369611Y27655D01*
X370599Y27824D01*
X371569Y28077D01*
X372514Y28411D01*
X373428Y28824D01*
X374303Y29313D01*
X375133Y29874D01*
X375914Y30504D01*
X376637Y31198D01*
X377300Y31950D01*
X377896Y32756D01*
X378421Y33610D01*
X378873Y34505D01*
X379247Y35435D01*
X379540Y36394D01*
X379751Y37374D01*
X379879Y38368D01*
X379921Y39370D01*
X96457D02*
X96414Y40372D01*
X96287Y41366D01*
X96076Y42346D01*
X95782Y43305D01*
X95408Y44235D01*
X94957Y45130D01*
X94431Y45984D01*
X93835Y46790D01*
X93173Y47543D01*
X92449Y48236D01*
X91669Y48866D01*
X90838Y49428D01*
X89963Y49916D01*
X89050Y50329D01*
X88104Y50663D01*
X87134Y50916D01*
X86146Y51085D01*
X85147Y51170D01*
X84144D01*
X83145Y51085D01*
X82157Y50916D01*
X81187Y50663D01*
X80242Y50329D01*
X79328Y49916D01*
X78453Y49428D01*
X77622Y48866D01*
X76842Y48236D01*
X76119Y47543D01*
X75456Y46790D01*
X74860Y45984D01*
X74335Y45130D01*
X73883Y44235D01*
X73509Y43305D01*
X73216Y42346D01*
X73005Y41366D01*
X72877Y40372D01*
X72835Y39370D01*
X72877Y38368D01*
X73005Y37374D01*
X73216Y36394D01*
X73509Y35435D01*
X73883Y34505D01*
X74335Y33610D01*
X74860Y32756D01*
X75456Y31950D01*
X76119Y31198D01*
X76842Y30504D01*
X77622Y29874D01*
X78453Y29313D01*
X79328Y28824D01*
X80242Y28411D01*
X81187Y28077D01*
X82157Y27824D01*
X83145Y27655D01*
X84144Y27570D01*
X85147D01*
X86146Y27655D01*
X87134Y27824D01*
X88104Y28077D01*
X89050Y28411D01*
X89963Y28824D01*
X90838Y29313D01*
X91669Y29874D01*
X92449Y30504D01*
X93173Y31198D01*
X93835Y31950D01*
X94431Y32756D01*
X94957Y33610D01*
X95408Y34505D01*
X95782Y35435D01*
X96076Y36394D01*
X96287Y37374D01*
X96414Y38368D01*
X96457Y39370D01*
X396260Y260591D02*
X435039D01*
Y197795D02*
Y260591D01*
X396260Y197795D02*
X435039D01*
X396260D02*
Y260591D01*
X396319Y54918D02*
Y117713D01*
Y54918D02*
X435099D01*
Y117713D01*
X396319D02*
X435099D01*
X9843Y226378D02*
Y265748D01*
X108268D01*
X9843Y226378D02*
X108268D01*
Y265748D01*
X203642Y17616D02*
X207577D01*
X205610D01*
Y11713D01*
X212497Y17616D02*
X210529D01*
X209545Y16632D01*
Y12697D01*
X210529Y11713D01*
X212497D01*
X213481Y12697D01*
Y16632D01*
X212497Y17616D01*
X221353D02*
Y11713D01*
X225288D01*
X227256D02*
Y17616D01*
X229224Y15648D01*
X231192Y17616D01*
Y11713D01*
X233160Y15648D02*
X234144D01*
Y14664D01*
X233160D01*
Y15648D01*
Y12697D02*
X234144D01*
Y11713D01*
X233160D01*
Y12697D01*
X387206Y135432D02*
X386222Y134448D01*
Y132480D01*
X387206Y131496D01*
X391142D01*
X392126Y132480D01*
Y134448D01*
X391142Y135432D01*
X389174D01*
Y133464D01*
X392126Y137400D02*
X386222D01*
X392126Y141335D01*
X386222D01*
Y143303D02*
X392126D01*
Y146255D01*
X391142Y147239D01*
X387206D01*
X386222Y146255D01*
Y143303D01*
X386222Y157087D02*
X390158D01*
X392126Y159055D01*
X390158Y161022D01*
X386222D01*
Y162990D02*
X392126D01*
Y165942D01*
X391142Y166926D01*
X390158D01*
X389174Y165942D01*
Y162990D01*
Y165942D01*
X388190Y166926D01*
X387206D01*
X386222Y165942D01*
Y162990D01*
X392126Y168894D02*
X388190D01*
X386222Y170862D01*
X388190Y172829D01*
X392126D01*
X389174D01*
Y168894D01*
X386222Y174797D02*
Y178733D01*
Y176765D01*
X392126D01*
X389174Y180701D02*
Y184637D01*
X387206Y182669D02*
X391142D01*
X292125Y16632D02*
X291141Y17616D01*
X289173D01*
X288189Y16632D01*
Y12697D01*
X289173Y11713D01*
X291141D01*
X292125Y12697D01*
Y14664D01*
X290157D01*
X294093Y11713D02*
Y17616D01*
X298028Y11713D01*
Y17616D01*
X299996D02*
Y11713D01*
X302948D01*
X303932Y12697D01*
Y16632D01*
X302948Y17616D01*
X299996D01*
X248130Y17419D02*
X250098D01*
X249114D01*
Y11516D01*
X248130D01*
X250098D01*
X253050D02*
Y17419D01*
X256985Y11516D01*
Y17419D01*
X268798D02*
X266830D01*
X265846Y16435D01*
Y12500D01*
X266830Y11516D01*
X268798D01*
X269782Y12500D01*
Y16435D01*
X268798Y17419D01*
X271750D02*
Y12500D01*
X272734Y11516D01*
X274702D01*
X275686Y12500D01*
Y17419D01*
X277654D02*
X281589D01*
X279622D01*
Y11516D01*
X350984Y108857D02*
X354920D01*
X352952Y110825D02*
Y106889D01*
X360824Y111809D02*
X356888D01*
Y108857D01*
X358856Y109841D01*
X359840D01*
X360824Y108857D01*
Y106889D01*
X359840Y105905D01*
X357872D01*
X356888Y106889D01*
X362791Y111809D02*
Y107873D01*
X364759Y105905D01*
X366727Y107873D01*
Y111809D01*
X377551D02*
X375583D01*
X374599Y110825D01*
Y106889D01*
X375583Y105905D01*
X377551D01*
X378534Y106889D01*
Y110825D01*
X377551Y111809D01*
X380502D02*
Y106889D01*
X381486Y105905D01*
X383454D01*
X384438Y106889D01*
Y111809D01*
X386406D02*
X390342D01*
X388374D01*
Y105905D01*
X376573Y65550D02*
X375590Y66533D01*
X373622D01*
X372638Y65550D01*
Y61614D01*
X373622Y60630D01*
X375590D01*
X376573Y61614D01*
Y63582D01*
X374606D01*
X378541Y60630D02*
Y66533D01*
X382477Y60630D01*
Y66533D01*
X384445D02*
Y60630D01*
X387397D01*
X388381Y61614D01*
Y65550D01*
X387397Y66533D01*
X384445D01*
X350984Y95078D02*
X354920D01*
X352952Y97046D02*
Y93110D01*
X356888Y97046D02*
X357872Y98030D01*
X359840D01*
X360824Y97046D01*
Y96062D01*
X359840Y95078D01*
X358856D01*
X359840D01*
X360824Y94094D01*
Y93110D01*
X359840Y92126D01*
X357872D01*
X356888Y93110D01*
X362791Y92126D02*
Y93110D01*
X363775D01*
Y92126D01*
X362791D01*
X367711Y97046D02*
X368695Y98030D01*
X370663D01*
X371647Y97046D01*
Y96062D01*
X370663Y95078D01*
X369679D01*
X370663D01*
X371647Y94094D01*
Y93110D01*
X370663Y92126D01*
X368695D01*
X367711Y93110D01*
X379518Y98030D02*
X381486D01*
X380502D01*
Y92126D01*
X379518D01*
X381486D01*
X384438D02*
Y98030D01*
X388374Y92126D01*
Y98030D01*
X358857Y81298D02*
X357873Y82282D01*
X355905D01*
X354921Y81298D01*
Y80314D01*
X355905Y79330D01*
X357873D01*
X358857Y78346D01*
Y77362D01*
X357873Y76378D01*
X355905D01*
X354921Y77362D01*
X360825Y82282D02*
Y76378D01*
Y79330D01*
X364761D01*
Y82282D01*
Y76378D01*
X366728Y82282D02*
X370664D01*
X368696D01*
Y76378D01*
X372632Y82282D02*
Y76378D01*
X375584D01*
X376568Y77362D01*
Y81298D01*
X375584Y82282D01*
X372632D01*
X378536D02*
Y76378D01*
X380504Y78346D01*
X382471Y76378D01*
Y82282D01*
X384439Y76378D02*
Y82282D01*
X388375Y76378D01*
Y82282D01*
X358857Y223030D02*
X357873Y224014D01*
X355905D01*
X354921Y223030D01*
Y222046D01*
X355905Y221062D01*
X357873D01*
X358857Y220078D01*
Y219094D01*
X357873Y218110D01*
X355905D01*
X354921Y219094D01*
X360825Y224014D02*
Y218110D01*
Y221062D01*
X364761D01*
Y224014D01*
Y218110D01*
X366728Y224014D02*
X370664D01*
X368696D01*
Y218110D01*
X372632Y224014D02*
Y218110D01*
X375584D01*
X376568Y219094D01*
Y223030D01*
X375584Y224014D01*
X372632D01*
X378536D02*
Y218110D01*
X380504Y220078D01*
X382471Y218110D01*
Y224014D01*
X384439Y218110D02*
Y224014D01*
X388375Y218110D01*
Y224014D01*
X350984Y236810D02*
X354920D01*
X352952Y238778D02*
Y234842D01*
X356888Y238778D02*
X357872Y239762D01*
X359840D01*
X360824Y238778D01*
Y237794D01*
X359840Y236810D01*
X358856D01*
X359840D01*
X360824Y235826D01*
Y234842D01*
X359840Y233858D01*
X357872D01*
X356888Y234842D01*
X362791Y233858D02*
Y234842D01*
X363775D01*
Y233858D01*
X362791D01*
X367711Y238778D02*
X368695Y239762D01*
X370663D01*
X371647Y238778D01*
Y237794D01*
X370663Y236810D01*
X369679D01*
X370663D01*
X371647Y235826D01*
Y234842D01*
X370663Y233858D01*
X368695D01*
X367711Y234842D01*
X379518Y239762D02*
X381486D01*
X380502D01*
Y233858D01*
X379518D01*
X381486D01*
X384438D02*
Y239762D01*
X388374Y233858D01*
Y239762D01*
X376573Y208266D02*
X375590Y209250D01*
X373622D01*
X372638Y208266D01*
Y204330D01*
X373622Y203346D01*
X375590D01*
X376573Y204330D01*
Y206298D01*
X374606D01*
X378541Y203346D02*
Y209250D01*
X382477Y203346D01*
Y209250D01*
X384445D02*
Y203346D01*
X387397D01*
X388381Y204330D01*
Y208266D01*
X387397Y209250D01*
X384445D01*
X350000Y250590D02*
X353936D01*
X351968Y252557D02*
Y248622D01*
X359839Y253541D02*
X355904D01*
Y250590D01*
X357872Y251573D01*
X358855D01*
X359839Y250590D01*
Y248622D01*
X358855Y247638D01*
X356888D01*
X355904Y248622D01*
X361807Y253541D02*
Y249606D01*
X363775Y247638D01*
X365743Y249606D01*
Y253541D01*
X376566D02*
X374598D01*
X373614Y252557D01*
Y248622D01*
X374598Y247638D01*
X376566D01*
X377550Y248622D01*
Y252557D01*
X376566Y253541D01*
X379518D02*
Y248622D01*
X380502Y247638D01*
X382470D01*
X383454Y248622D01*
Y253541D01*
X385422D02*
X389357D01*
X387389D01*
Y247638D01*
X13909Y152820D02*
X12794Y153935D01*
X10564D01*
X9449Y152820D01*
Y148359D01*
X10564Y147244D01*
X12794D01*
X13909Y148359D01*
Y150590D01*
X11679D01*
X16140Y147244D02*
Y153935D01*
X20600Y147244D01*
Y153935D01*
X22830D02*
Y147244D01*
X26176D01*
X27291Y148359D01*
Y152820D01*
X26176Y153935D01*
X22830D01*
X5512Y205708D02*
X9972D01*
X7742Y207938D02*
Y203477D01*
X12203Y202362D02*
X14433D01*
X13318D01*
Y209053D01*
X12203Y207938D01*
X22239Y202362D02*
X17778D01*
X22239Y206823D01*
Y207938D01*
X21124Y209053D01*
X18893D01*
X17778Y207938D01*
X24469Y209053D02*
Y204592D01*
X26699Y202362D01*
X28929Y204592D01*
Y209053D01*
X37008Y181494D02*
X39238D01*
X38123D01*
Y174803D01*
X37008D01*
X39238D01*
X42584D02*
Y181494D01*
X47044Y174803D01*
Y181494D01*
D14*
X401575Y175886D02*
X433071D01*
X401575Y134705D02*
Y175886D01*
Y134705D02*
X433071D01*
Y175886D01*
X296260Y191339D02*
Y193307D01*
Y218110D02*
Y220079D01*
X292323Y193307D02*
X300197D01*
Y218110D01*
X292323D02*
X300197D01*
X292323Y193307D02*
Y218110D01*
X151575Y80013D02*
Y81982D01*
Y106785D02*
Y108754D01*
X147638Y81982D02*
X155512D01*
Y106785D01*
X147638D02*
X155512D01*
X147638Y81982D02*
Y106785D01*
X120669Y51968D02*
X122638D01*
X147441D02*
X149409D01*
X122638Y48031D02*
Y55905D01*
Y48031D02*
X147441D01*
Y55905D01*
X122638D02*
X147441D01*
X58465Y76772D02*
X60433D01*
X85236D02*
X87205D01*
X60433Y72835D02*
Y80709D01*
Y72835D02*
X85236D01*
Y80709D01*
X60433D02*
X85236D01*
X181362Y199709D02*
X279787D01*
X181362D02*
Y266638D01*
X279787D01*
Y199709D02*
Y266638D01*
X121653Y134843D02*
X123622D01*
X94882D02*
X96850D01*
X121653Y130905D02*
Y138779D01*
X96850D02*
X121653D01*
X96850Y130905D02*
Y138779D01*
Y130905D02*
X121653D01*
X178150Y140157D02*
Y142126D01*
Y166929D02*
Y168898D01*
X174213Y142126D02*
X182087D01*
Y166929D01*
X174213D02*
X182087D01*
X174213Y142126D02*
Y166929D01*
X124016Y80013D02*
Y81982D01*
Y106785D02*
Y108754D01*
X120079Y81982D02*
X127953D01*
Y106785D01*
X120079D02*
X127953D01*
X120079Y81982D02*
Y106785D01*
X58465Y106299D02*
X60433D01*
X85236D02*
X87205D01*
X60433Y102362D02*
Y110236D01*
Y102362D02*
X85236D01*
Y110236D01*
X60433D02*
X85236D01*
X295Y199508D02*
X31791D01*
X295Y158327D02*
Y199508D01*
Y158327D02*
X31791D01*
Y199508D01*
X149694Y140308D02*
Y142277D01*
Y167080D02*
Y169048D01*
X145757Y142277D02*
X153631D01*
Y167080D01*
X145757D02*
X153631D01*
X145757Y142277D02*
Y167080D01*
X303202Y257563D02*
X302218Y258547D01*
Y260515D01*
X303202Y261499D01*
X304186D01*
X305170Y260515D01*
Y259531D01*
Y260515D01*
X306154Y261499D01*
X307138D01*
X308122Y260515D01*
Y258547D01*
X307138Y257563D01*
X317752D02*
Y259531D01*
Y258547D01*
X311848D01*
X312832Y257563D01*
X222130Y119098D02*
X224098D01*
X223114D01*
Y125002D01*
X222130Y124018D01*
Y133648D02*
X223114Y134632D01*
X225082D01*
X226066Y133648D01*
Y132664D01*
X225082Y131680D01*
X224098D01*
X225082D01*
X226066Y130696D01*
Y129712D01*
X225082Y128728D01*
X223114D01*
X222130Y129712D01*
Y161365D02*
X223114Y162348D01*
X225082D01*
X226066Y161365D01*
Y160381D01*
X225082Y159397D01*
X224098D01*
X225082D01*
X226066Y158413D01*
Y157429D01*
X225082Y156445D01*
X223114D01*
X222130Y157429D01*
Y146815D02*
X224098D01*
X223114D01*
Y152719D01*
X222130Y151735D01*
X33154Y73980D02*
X35121D01*
X34137D01*
Y79884D01*
X33154Y78900D01*
Y88530D02*
X34137Y89514D01*
X36105D01*
X37089Y88530D01*
Y87546D01*
X36105Y86562D01*
X35121D01*
X36105D01*
X37089Y85578D01*
Y84594D01*
X36105Y83610D01*
X34137D01*
X33154Y84594D01*
X196539Y96246D02*
X197523Y97230D01*
X199491D01*
X200475Y96246D01*
Y95262D01*
X199491Y94279D01*
X198507D01*
X199491D01*
X200475Y93295D01*
Y92311D01*
X199491Y91327D01*
X197523D01*
X196539Y92311D01*
Y81697D02*
X198507D01*
X197523D01*
Y87600D01*
X196539Y86616D01*
X178657Y61728D02*
X176690D01*
X177674D01*
Y55825D01*
X178657Y56809D01*
Y47179D02*
X177674Y46195D01*
X175706D01*
X174722Y47179D01*
Y48163D01*
X175706Y49147D01*
X176690D01*
X175706D01*
X174722Y50130D01*
Y51114D01*
X175706Y52098D01*
X177674D01*
X178657Y51114D01*
X335634Y113500D02*
Y111532D01*
Y112516D01*
X341537D01*
X340554Y113500D01*
X226475Y58465D02*
Y54529D01*
X228443Y56497D02*
X224507D01*
X320865Y56595D02*
Y52659D01*
X322833Y54627D02*
X318897D01*
X134916Y173534D02*
X130981D01*
X132949Y171566D02*
Y175502D01*
D15*
X45996Y17451D02*
X44881Y18567D01*
X42650D01*
X41535Y17451D01*
Y12991D01*
X42650Y11876D01*
X44881D01*
X45996Y12991D01*
X48226Y16336D02*
Y11876D01*
Y14106D01*
X49341Y15221D01*
X50456Y16336D01*
X51572D01*
X58262Y11876D02*
X56032D01*
X54917Y12991D01*
Y15221D01*
X56032Y16336D01*
X58262D01*
X59377Y15221D01*
Y14106D01*
X54917D01*
X62723Y16336D02*
X64953D01*
X66068Y15221D01*
Y11876D01*
X62723D01*
X61608Y12991D01*
X62723Y14106D01*
X66068D01*
X69414Y17451D02*
Y16336D01*
X68298D01*
X70529D01*
X69414D01*
Y12991D01*
X70529Y11876D01*
X77219D02*
X74989D01*
X73874Y12991D01*
Y15221D01*
X74989Y16336D01*
X77219D01*
X78334Y15221D01*
Y14106D01*
X73874D01*
X85025Y18567D02*
Y11876D01*
X81680D01*
X80565Y12991D01*
Y15221D01*
X81680Y16336D01*
X85025D01*
X93946Y18567D02*
Y11876D01*
X97292D01*
X98407Y12991D01*
Y14106D01*
Y15221D01*
X97292Y16336D01*
X93946D01*
X100637D02*
Y12991D01*
X101752Y11876D01*
X105097D01*
Y10761D01*
X103982Y9646D01*
X102867D01*
X105097Y11876D02*
Y16336D01*
X114018Y9646D02*
Y16336D01*
X117364D01*
X118479Y15221D01*
Y12991D01*
X117364Y11876D01*
X114018D01*
X121824Y16336D02*
X124055D01*
X125170Y15221D01*
Y11876D01*
X121824D01*
X120709Y12991D01*
X121824Y14106D01*
X125170D01*
X127400Y16336D02*
Y12991D01*
X128515Y11876D01*
X131860D01*
Y10761D01*
X130745Y9646D01*
X129630D01*
X131860Y11876D02*
Y16336D01*
X135206D02*
X137436D01*
X138551Y15221D01*
Y11876D01*
X135206D01*
X134091Y12991D01*
X135206Y14106D01*
X138551D01*
X140781Y11876D02*
X143012D01*
X141897D01*
Y18567D01*
X140781D01*
X147472Y19682D02*
Y17451D01*
X146357Y16336D01*
X150818Y11876D02*
Y16336D01*
X154163D01*
X155278Y15221D01*
Y11876D01*
X157508D02*
X159739D01*
X158624D01*
Y16336D01*
X157508D01*
X163084Y11876D02*
Y18567D01*
Y14106D02*
X166429Y16336D01*
X163084Y14106D02*
X166429Y11876D01*
X169775D02*
X172005D01*
X170890D01*
Y16336D01*
X169775D01*
D16*
X187936Y196652D02*
X186936Y197652D01*
X184937D01*
X183937Y196652D01*
Y192653D01*
X184937Y191654D01*
X186936D01*
X187936Y192653D01*
Y194653D01*
X185936D01*
X189935Y191654D02*
Y197652D01*
X193934Y191654D01*
Y197652D01*
X195933D02*
Y191654D01*
X198932D01*
X199932Y192653D01*
Y196652D01*
X198932Y197652D01*
X195933D01*
X265038Y195369D02*
X264038Y196368D01*
X262039D01*
X261039Y195369D01*
Y191370D01*
X262039Y190370D01*
X264038D01*
X265038Y191370D01*
Y193369D01*
X263039D01*
X267037Y190370D02*
Y196368D01*
X271036Y190370D01*
Y196368D01*
X273036D02*
Y190370D01*
X276034D01*
X277034Y191370D01*
Y195369D01*
X276034Y196368D01*
X273036D01*
X252164Y251000D02*
Y247002D01*
X254163Y245002D01*
X256163Y247002D01*
Y251000D01*
X259162Y245002D02*
X261161D01*
X262161Y246002D01*
Y248001D01*
X261161Y249001D01*
X259162D01*
X258162Y248001D01*
Y246002D01*
X259162Y245002D01*
X264160Y249001D02*
Y246002D01*
X265160Y245002D01*
X268159D01*
Y249001D01*
X271158Y250001D02*
Y249001D01*
X270158D01*
X272157D01*
X271158D01*
Y246002D01*
X272157Y245002D01*
X186208Y249928D02*
Y245929D01*
X188207Y243930D01*
X190207Y245929D01*
Y249928D01*
X192206Y243930D02*
X194205D01*
X193206D01*
Y247928D01*
X192206D01*
X197204Y243930D02*
Y247928D01*
X200203D01*
X201203Y246929D01*
Y243930D01*
X333600Y142898D02*
Y138899D01*
X335599Y136900D01*
X337599Y138899D01*
Y142898D01*
X339598D02*
X343597D01*
X341597D01*
Y136900D01*
X345596Y142898D02*
X349595D01*
Y141898D01*
X345596Y137900D01*
Y136900D01*
X327591Y73498D02*
X321593D01*
Y76497D01*
X322593Y77496D01*
X324592D01*
X325592Y76497D01*
Y73498D01*
Y75497D02*
X327591Y77496D01*
Y79496D02*
Y81495D01*
Y80495D01*
X321593D01*
X322593Y79496D01*
X327591Y87493D02*
X321593D01*
X324592Y84494D01*
Y88493D01*
X332069Y171214D02*
Y177212D01*
X335068D01*
X336068Y176212D01*
Y174213D01*
X335068Y173213D01*
X332069D01*
X334069D02*
X336068Y171214D01*
X338067D02*
X340067D01*
X339067D01*
Y177212D01*
X338067Y176212D01*
X343066D02*
X344065Y177212D01*
X346065D01*
X347064Y176212D01*
Y175212D01*
X346065Y174213D01*
X345065D01*
X346065D01*
X347064Y173213D01*
Y172213D01*
X346065Y171214D01*
X344065D01*
X343066Y172213D01*
X402482Y186070D02*
X406481Y180072D01*
Y186070D02*
X402482Y180072D01*
X411479D02*
Y186070D01*
X408480Y183071D01*
X412479D01*
X413309Y127015D02*
X417307Y121017D01*
Y127015D02*
X413309Y121017D01*
X419307Y126015D02*
X420306Y127015D01*
X422306D01*
X423306Y126015D01*
Y125015D01*
X422306Y124016D01*
X421306D01*
X422306D01*
X423306Y123016D01*
Y122016D01*
X422306Y121017D01*
X420306D01*
X419307Y122016D01*
X415218Y269223D02*
X419216Y263225D01*
Y269223D02*
X415218Y263225D01*
X425214D02*
X421216D01*
X425214Y267223D01*
Y268223D01*
X424215Y269223D01*
X422215D01*
X421216Y268223D01*
X35371Y201818D02*
X39370Y195820D01*
Y201818D02*
X35371Y195820D01*
X41369D02*
X43369D01*
X42369D01*
Y201818D01*
X41369Y200818D01*
X180192Y74653D02*
Y70654D01*
X182191Y68655D01*
X184190Y70654D01*
Y74653D01*
X186190D02*
X190188D01*
X188189D01*
Y68655D01*
X196186Y74653D02*
X194187Y73653D01*
X192188Y71653D01*
Y69654D01*
X193187Y68655D01*
X195187D01*
X196186Y69654D01*
Y70654D01*
X195187Y71653D01*
X192188D01*
X178026Y110283D02*
Y106284D01*
X180026Y104284D01*
X182025Y106284D01*
Y110283D01*
X184024D02*
X188023D01*
X186024D01*
Y104284D01*
X194021Y110283D02*
X190022D01*
Y107283D01*
X192022Y108283D01*
X193021D01*
X194021Y107283D01*
Y105284D01*
X193021Y104284D01*
X191022D01*
X190022Y105284D01*
X24483Y100440D02*
Y96441D01*
X26482Y94442D01*
X28482Y96441D01*
Y100440D01*
X30481D02*
X34480D01*
X32480D01*
Y94442D01*
X39478D02*
Y100440D01*
X36479Y97441D01*
X40478D01*
X192867Y147593D02*
X196866D01*
X198865Y149592D01*
X196866Y151592D01*
X192867D01*
Y153591D02*
Y157590D01*
Y155590D01*
X198865D01*
X193867Y159589D02*
X192867Y160589D01*
Y162588D01*
X193867Y163588D01*
X194867D01*
X195866Y162588D01*
Y161589D01*
Y162588D01*
X196866Y163588D01*
X197865D01*
X198865Y162588D01*
Y160589D01*
X197865Y159589D01*
X192867Y118892D02*
X196866D01*
X198865Y120892D01*
X196866Y122891D01*
X192867D01*
Y124890D02*
Y128889D01*
Y126890D01*
X198865D01*
Y134887D02*
Y130888D01*
X194867Y134887D01*
X193867D01*
X192867Y133888D01*
Y131888D01*
X193867Y130888D01*
X289324Y241034D02*
X293322D01*
X295322Y243033D01*
X293322Y245033D01*
X289324D01*
Y247032D02*
Y251030D01*
Y249031D01*
X295322D01*
Y253030D02*
Y255029D01*
Y254030D01*
X289324D01*
X290323Y253030D01*
X304755Y175921D02*
Y171922D01*
X306755Y169923D01*
X308754Y171922D01*
Y175921D01*
X310753D02*
Y169923D01*
X313752D01*
X314752Y170923D01*
Y174921D01*
X313752Y175921D01*
X310753D01*
X316751Y174921D02*
X317751Y175921D01*
X319750D01*
X320750Y174921D01*
Y173922D01*
X319750Y172922D01*
X320750Y171922D01*
Y170923D01*
X319750Y169923D01*
X317751D01*
X316751Y170923D01*
Y171922D01*
X317751Y172922D01*
X316751Y173922D01*
Y174921D01*
X317751Y172922D02*
X319750D01*
X205585Y112251D02*
Y108252D01*
X207585Y106253D01*
X209584Y108252D01*
Y112251D01*
X211583D02*
Y106253D01*
X214582D01*
X215582Y107253D01*
Y111251D01*
X214582Y112251D01*
X211583D01*
X217581D02*
X221580D01*
Y111251D01*
X217581Y107253D01*
Y106253D01*
X28891Y25074D02*
X32889D01*
X34889Y27073D01*
X32889Y29072D01*
X28891D01*
Y31071D02*
X34889D01*
Y34071D01*
X33889Y35070D01*
X29890D01*
X28891Y34071D01*
Y31071D01*
Y41068D02*
X29890Y39069D01*
X31890Y37070D01*
X33889D01*
X34889Y38069D01*
Y40069D01*
X33889Y41068D01*
X32889D01*
X31890Y40069D01*
Y37070D01*
X38066Y51818D02*
Y47819D01*
X40065Y45820D01*
X42064Y47819D01*
Y51818D01*
X44064D02*
Y45820D01*
X47063D01*
X48062Y46819D01*
Y50818D01*
X47063Y51818D01*
X44064D01*
X54060D02*
X50062D01*
Y48819D01*
X52061Y49819D01*
X53061D01*
X54060Y48819D01*
Y46819D01*
X53061Y45820D01*
X51061D01*
X50062Y46819D01*
X77632Y189023D02*
Y185024D01*
X79632Y183025D01*
X81631Y185024D01*
Y189023D01*
X83631D02*
Y183025D01*
X86630D01*
X87629Y184024D01*
Y188023D01*
X86630Y189023D01*
X83631D01*
X92628Y183025D02*
Y189023D01*
X89629Y186024D01*
X93627D01*
X157434Y238066D02*
X161433D01*
X163432Y240065D01*
X161433Y242064D01*
X157434D01*
Y244064D02*
X163432D01*
Y247063D01*
X162432Y248062D01*
X158434D01*
X157434Y247063D01*
Y244064D01*
X158434Y250062D02*
X157434Y251061D01*
Y253061D01*
X158434Y254060D01*
X159433D01*
X160433Y253061D01*
Y252061D01*
Y253061D01*
X161433Y254060D01*
X162432D01*
X163432Y253061D01*
Y251061D01*
X162432Y250062D01*
X129875Y235113D02*
X133874D01*
X135873Y237112D01*
X133874Y239111D01*
X129875D01*
Y241111D02*
X135873D01*
Y244110D01*
X134873Y245110D01*
X130875D01*
X129875Y244110D01*
Y241111D01*
X135873Y251108D02*
Y247109D01*
X131874Y251108D01*
X130875D01*
X129875Y250108D01*
Y248109D01*
X130875Y247109D01*
X233160Y193944D02*
Y189945D01*
X235159Y187946D01*
X237158Y189945D01*
Y193944D01*
X239158D02*
Y187946D01*
X242157D01*
X243157Y188945D01*
Y192944D01*
X242157Y193944D01*
X239158D01*
X245156Y187946D02*
X247155D01*
X246156D01*
Y193944D01*
X245156Y192944D01*
X234190Y106345D02*
Y101347D01*
X235190Y100347D01*
X237189D01*
X238189Y101347D01*
Y106345D01*
X240188Y100347D02*
X242188D01*
X241188D01*
Y106345D01*
X240188Y105346D01*
X113158Y242080D02*
X112158Y241080D01*
Y239081D01*
X113158Y238081D01*
X114158D01*
X115157Y239081D01*
Y241080D01*
X116157Y242080D01*
X117157D01*
X118157Y241080D01*
Y239081D01*
X117157Y238081D01*
X112158Y244079D02*
X118157D01*
Y247078D01*
X117157Y248078D01*
X116157D01*
X115157Y247078D01*
Y244079D01*
Y247078D01*
X114158Y248078D01*
X113158D01*
X112158Y247078D01*
Y244079D01*
X118157Y250077D02*
Y252077D01*
Y251077D01*
X112158D01*
X113158Y250077D01*
X128542Y34796D02*
Y40794D01*
X131541D01*
X132540Y39795D01*
Y37795D01*
X131541Y36796D01*
X128542D01*
X130541D02*
X132540Y34796D01*
X134539D02*
X136539D01*
X135539D01*
Y40794D01*
X134539Y39795D01*
X139538Y34796D02*
X141537D01*
X140538D01*
Y40794D01*
X139538Y39795D01*
X64353Y87552D02*
Y93550D01*
X67352D01*
X68352Y92550D01*
Y90551D01*
X67352Y89552D01*
X64353D01*
X66352D02*
X68352Y87552D01*
X70351D02*
X72350D01*
X71351D01*
Y93550D01*
X70351Y92550D01*
X75349D02*
X76349Y93550D01*
X78348D01*
X79348Y92550D01*
Y88552D01*
X78348Y87552D01*
X76349D01*
X75349Y88552D01*
Y92550D01*
X140307Y88720D02*
X134309D01*
Y91719D01*
X135309Y92718D01*
X137308D01*
X138308Y91719D01*
Y88720D01*
Y90719D02*
X140307Y92718D01*
X139307Y94718D02*
X140307Y95718D01*
Y97717D01*
X139307Y98717D01*
X135309D01*
X134309Y97717D01*
Y95718D01*
X135309Y94718D01*
X136308D01*
X137308Y95718D01*
Y98717D01*
X114207Y89313D02*
X108209D01*
Y92312D01*
X109209Y93311D01*
X111208D01*
X112208Y92312D01*
Y89313D01*
Y91312D02*
X114207Y93311D01*
X109209Y95311D02*
X108209Y96310D01*
Y98310D01*
X109209Y99309D01*
X110208D01*
X111208Y98310D01*
X112208Y99309D01*
X113207D01*
X114207Y98310D01*
Y96310D01*
X113207Y95311D01*
X112208D01*
X111208Y96310D01*
X110208Y95311D01*
X109209D01*
X111208Y96310D02*
Y98310D01*
X326818Y226301D02*
X320820D01*
Y229300D01*
X321819Y230299D01*
X323819D01*
X324819Y229300D01*
Y226301D01*
Y228300D02*
X326818Y230299D01*
X320820Y232299D02*
Y236298D01*
X321819D01*
X325818Y232299D01*
X326818D01*
X67836Y115111D02*
Y121109D01*
X70835D01*
X71835Y120110D01*
Y118110D01*
X70835Y117111D01*
X67836D01*
X69836D02*
X71835Y115111D01*
X77833Y121109D02*
X75834Y120110D01*
X73834Y118110D01*
Y116111D01*
X74834Y115111D01*
X76833D01*
X77833Y116111D01*
Y117111D01*
X76833Y118110D01*
X73834D01*
X102285Y145623D02*
Y151621D01*
X105284D01*
X106284Y150621D01*
Y148622D01*
X105284Y147622D01*
X102285D01*
X104284D02*
X106284Y145623D01*
X112282Y151621D02*
X108283D01*
Y148622D01*
X110283Y149622D01*
X111282D01*
X112282Y148622D01*
Y146623D01*
X111282Y145623D01*
X109283D01*
X108283Y146623D01*
X167369Y150513D02*
X161371D01*
Y153512D01*
X162371Y154512D01*
X164370D01*
X165370Y153512D01*
Y150513D01*
Y152513D02*
X167369Y154512D01*
Y159511D02*
X161371D01*
X164370Y156511D01*
Y160510D01*
X334569Y197788D02*
Y203786D01*
X337568D01*
X338567Y202787D01*
Y200787D01*
X337568Y199788D01*
X334569D01*
X336568D02*
X338567Y197788D01*
X340567Y202787D02*
X341566Y203786D01*
X343566D01*
X344565Y202787D01*
Y201787D01*
X343566Y200787D01*
X342566D01*
X343566D01*
X344565Y199788D01*
Y198788D01*
X343566Y197788D01*
X341566D01*
X340567Y198788D01*
X138849Y150676D02*
X132851D01*
Y153675D01*
X133851Y154674D01*
X135850D01*
X136850Y153675D01*
Y150676D01*
Y152675D02*
X138849Y154674D01*
Y160673D02*
Y156674D01*
X134850Y160673D01*
X133851D01*
X132851Y159673D01*
Y157674D01*
X133851Y156674D01*
X312610Y200129D02*
X306611D01*
Y203128D01*
X307611Y204128D01*
X309611D01*
X310610Y203128D01*
Y200129D01*
Y202129D02*
X312610Y204128D01*
Y206127D02*
Y208127D01*
Y207127D01*
X306611D01*
X307611Y206127D01*
X24991Y118157D02*
Y112158D01*
Y115157D01*
X28989D01*
Y118157D01*
Y112158D01*
X30988Y118157D02*
Y112158D01*
X34987D01*
X36987D02*
X38986D01*
X37986D01*
Y118157D01*
X36987Y117157D01*
X265625Y46306D02*
Y40308D01*
X268624D01*
X269623Y41308D01*
Y45306D01*
X268624Y46306D01*
X265625D01*
X271623Y40308D02*
Y44307D01*
X273622Y46306D01*
X275621Y44307D01*
Y40308D01*
Y43307D01*
X271623D01*
X281620Y40308D02*
X277621D01*
X281620Y44307D01*
Y45306D01*
X280620Y46306D01*
X278620D01*
X277621Y45306D01*
X223829Y234298D02*
Y228300D01*
X226828D01*
X227828Y229300D01*
Y233299D01*
X226828Y234298D01*
X223829D01*
X229827Y228300D02*
Y232299D01*
X231826Y234298D01*
X233826Y232299D01*
Y228300D01*
Y231299D01*
X229827D01*
X235825Y228300D02*
X237825D01*
X236825D01*
Y234298D01*
X235825Y233299D01*
X333646Y54922D02*
X332646Y55922D01*
X330647D01*
X329647Y54922D01*
Y50924D01*
X330647Y49924D01*
X332646D01*
X333646Y50924D01*
X335645Y54922D02*
X336645Y55922D01*
X338644D01*
X339644Y54922D01*
Y53923D01*
X338644Y52923D01*
X337645D01*
X338644D01*
X339644Y51923D01*
Y50924D01*
X338644Y49924D01*
X336645D01*
X335645Y50924D01*
X209630Y34528D02*
X208631Y35528D01*
X206631D01*
X205631Y34528D01*
Y30529D01*
X206631Y29530D01*
X208631D01*
X209630Y30529D01*
X215628Y29530D02*
X211630D01*
X215628Y33528D01*
Y34528D01*
X214629Y35528D01*
X212629D01*
X211630Y34528D01*
X135827Y189007D02*
X134827Y190007D01*
X132828D01*
X131828Y189007D01*
Y185009D01*
X132828Y184009D01*
X134827D01*
X135827Y185009D01*
X137826Y184009D02*
X139825D01*
X138826D01*
Y190007D01*
X137826Y189007D01*
D17*
X212510Y88797D02*
D03*
M02*
