G04*
G04 #@! TF.GenerationSoftware,Altium Limited,Altium Designer,20.0.11 (256)*
G04*
G04 Layer_Color=16711935*
%FSLAX25Y25*%
%MOIN*%
G70*
G01*
G75*
%ADD10C,0.00787*%
%ADD74C,0.00394*%
D10*
X358858Y260787D02*
X395079D01*
X358858Y197598D02*
X395079D01*
X358858D02*
Y197795D01*
X363189Y251634D02*
Y251693D01*
X358858Y260787D02*
X358858Y197598D01*
X395079D02*
Y260787D01*
X395138Y54721D02*
Y117910D01*
X358918D02*
X358918Y54721D01*
X363248Y108757D02*
Y108816D01*
X358918Y54721D02*
Y54918D01*
Y54721D02*
X395138D01*
X358918Y117910D02*
X395138D01*
X7874Y228346D02*
Y267717D01*
X106299D01*
X7874Y228346D02*
X106299D01*
Y267717D01*
D74*
X293898Y182272D02*
X306496D01*
X293898Y188375D02*
X306496D01*
Y182272D02*
Y188375D01*
X293898Y182272D02*
Y188375D01*
X299311Y74409D02*
Y87008D01*
X293209Y74409D02*
Y87008D01*
X299311D01*
X293209Y74409D02*
X299311D01*
X297342Y224016D02*
Y236614D01*
X291240Y224016D02*
Y236614D01*
X297342D01*
X291240Y224016D02*
X297342D01*
X293898Y207959D02*
X306496D01*
X293898Y214061D02*
X306496D01*
Y207959D02*
Y214061D01*
X293898Y207959D02*
Y214061D01*
X239409Y255827D02*
Y265827D01*
X219849Y255828D02*
Y265828D01*
X219921Y265827D02*
X239409D01*
X219921Y255827D02*
X239409D01*
X142992D02*
Y265827D01*
X162552Y255825D02*
Y265826D01*
X142992Y255827D02*
X162480D01*
X142992Y265827D02*
X162480D01*
X239409Y200709D02*
Y210709D01*
X219849Y200710D02*
Y210710D01*
X219921Y210709D02*
X239409D01*
X219921Y200709D02*
X239409D01*
X142992D02*
Y210709D01*
X162552Y200707D02*
Y210707D01*
X142992Y200709D02*
X162480D01*
X142992Y210709D02*
X162480D01*
M02*
