G04*
G04 #@! TF.GenerationSoftware,Altium Limited,Altium Designer,20.0.11 (256)*
G04*
G04 Layer_Color=65535*
%FSLAX25Y25*%
%MOIN*%
G70*
G01*
G75*
%ADD10C,0.01575*%
%ADD11C,0.00591*%
%ADD12C,0.06299*%
D10*
X340551Y165354D02*
X340509Y166356D01*
X340381Y167350D01*
X340170Y168330D01*
X339877Y169289D01*
X339503Y170219D01*
X339051Y171115D01*
X338526Y171968D01*
X337930Y172774D01*
X337267Y173527D01*
X336543Y174221D01*
X335763Y174850D01*
X334933Y175412D01*
X334057Y175901D01*
X333144Y176314D01*
X332199Y176648D01*
X331228Y176900D01*
X330240Y177070D01*
X329241Y177155D01*
X328239D01*
X327240Y177070D01*
X326252Y176900D01*
X325282Y176648D01*
X324336Y176314D01*
X323423Y175901D01*
X322548Y175412D01*
X321717Y174850D01*
X320937Y174221D01*
X320213Y173527D01*
X319551Y172774D01*
X318955Y171968D01*
X318429Y171115D01*
X317978Y170219D01*
X317604Y169289D01*
X317310Y168330D01*
X317099Y167350D01*
X316972Y166356D01*
X316929Y165354D01*
X316972Y164353D01*
X317099Y163358D01*
X317310Y162378D01*
X317604Y161420D01*
X317978Y160489D01*
X318429Y159594D01*
X318955Y158740D01*
X319551Y157934D01*
X320213Y157182D01*
X320937Y156488D01*
X321717Y155858D01*
X322548Y155297D01*
X323423Y154808D01*
X324336Y154395D01*
X325282Y154061D01*
X326252Y153808D01*
X327240Y153639D01*
X328239Y153554D01*
X329241D01*
X330240Y153639D01*
X331228Y153808D01*
X332199Y154061D01*
X333144Y154395D01*
X334058Y154808D01*
X334933Y155297D01*
X335763Y155858D01*
X336543Y156488D01*
X337267Y157182D01*
X337930Y157934D01*
X338526Y158740D01*
X339051Y159594D01*
X339503Y160489D01*
X339877Y161420D01*
X340170Y162378D01*
X340381Y163358D01*
X340509Y164353D01*
X340551Y165354D01*
X57087D02*
X57044Y166356D01*
X56917Y167350D01*
X56705Y168330D01*
X56412Y169289D01*
X56038Y170219D01*
X55587Y171115D01*
X55061Y171968D01*
X54465Y172774D01*
X53803Y173527D01*
X53079Y174221D01*
X52299Y174850D01*
X51468Y175412D01*
X50593Y175901D01*
X49679Y176314D01*
X48734Y176648D01*
X47764Y176900D01*
X46776Y177070D01*
X45777Y177155D01*
X44774D01*
X43775Y177070D01*
X42787Y176900D01*
X41817Y176648D01*
X40872Y176314D01*
X39958Y175901D01*
X39083Y175412D01*
X38252Y174850D01*
X37472Y174221D01*
X36749Y173527D01*
X36086Y172774D01*
X35490Y171968D01*
X34964Y171115D01*
X34513Y170219D01*
X34139Y169289D01*
X33846Y168330D01*
X33634Y167350D01*
X33507Y166356D01*
X33465Y165354D01*
X33507Y164353D01*
X33634Y163358D01*
X33846Y162378D01*
X34139Y161420D01*
X34513Y160489D01*
X34964Y159594D01*
X35490Y158740D01*
X36086Y157934D01*
X36749Y157182D01*
X37472Y156488D01*
X38252Y155858D01*
X39083Y155297D01*
X39958Y154808D01*
X40872Y154395D01*
X41817Y154061D01*
X42787Y153808D01*
X43775Y153639D01*
X44774Y153554D01*
X45777D01*
X46776Y153639D01*
X47764Y153808D01*
X48734Y154061D01*
X49679Y154395D01*
X50593Y154808D01*
X51468Y155297D01*
X52299Y155858D01*
X53079Y156488D01*
X53803Y157182D01*
X54465Y157934D01*
X55061Y158740D01*
X55587Y159594D01*
X56038Y160489D01*
X56412Y161420D01*
X56705Y162378D01*
X56917Y163358D01*
X57044Y164353D01*
X57087Y165354D01*
X340551Y39370D02*
X340509Y40372D01*
X340381Y41366D01*
X340170Y42346D01*
X339877Y43305D01*
X339503Y44235D01*
X339051Y45130D01*
X338526Y45984D01*
X337930Y46790D01*
X337267Y47543D01*
X336543Y48236D01*
X335763Y48866D01*
X334933Y49428D01*
X334057Y49916D01*
X333144Y50329D01*
X332199Y50663D01*
X331228Y50916D01*
X330240Y51085D01*
X329241Y51170D01*
X328239D01*
X327240Y51085D01*
X326252Y50916D01*
X325282Y50663D01*
X324336Y50329D01*
X323423Y49916D01*
X322548Y49428D01*
X321717Y48866D01*
X320937Y48236D01*
X320213Y47543D01*
X319551Y46790D01*
X318955Y45984D01*
X318429Y45130D01*
X317978Y44235D01*
X317604Y43305D01*
X317310Y42346D01*
X317099Y41366D01*
X316972Y40372D01*
X316929Y39370D01*
X316972Y38368D01*
X317099Y37374D01*
X317310Y36394D01*
X317604Y35435D01*
X317978Y34505D01*
X318429Y33610D01*
X318955Y32756D01*
X319551Y31950D01*
X320213Y31198D01*
X320937Y30504D01*
X321717Y29874D01*
X322548Y29313D01*
X323423Y28824D01*
X324336Y28411D01*
X325282Y28077D01*
X326252Y27824D01*
X327240Y27655D01*
X328239Y27570D01*
X329241D01*
X330240Y27655D01*
X331228Y27824D01*
X332199Y28077D01*
X333144Y28411D01*
X334058Y28824D01*
X334933Y29313D01*
X335763Y29874D01*
X336543Y30504D01*
X337267Y31198D01*
X337930Y31950D01*
X338526Y32756D01*
X339051Y33610D01*
X339503Y34505D01*
X339877Y35435D01*
X340170Y36394D01*
X340381Y37374D01*
X340509Y38368D01*
X340551Y39370D01*
X57087D02*
X57044Y40372D01*
X56917Y41366D01*
X56705Y42346D01*
X56412Y43305D01*
X56038Y44235D01*
X55587Y45130D01*
X55061Y45984D01*
X54465Y46790D01*
X53803Y47543D01*
X53079Y48236D01*
X52299Y48866D01*
X51468Y49428D01*
X50593Y49916D01*
X49679Y50329D01*
X48734Y50663D01*
X47764Y50916D01*
X46776Y51085D01*
X45777Y51170D01*
X44774D01*
X43775Y51085D01*
X42787Y50916D01*
X41817Y50663D01*
X40872Y50329D01*
X39958Y49916D01*
X39083Y49428D01*
X38252Y48866D01*
X37472Y48236D01*
X36749Y47543D01*
X36086Y46790D01*
X35490Y45984D01*
X34964Y45130D01*
X34513Y44235D01*
X34139Y43305D01*
X33846Y42346D01*
X33634Y41366D01*
X33507Y40372D01*
X33465Y39370D01*
X33507Y38368D01*
X33634Y37374D01*
X33846Y36394D01*
X34139Y35435D01*
X34513Y34505D01*
X34964Y33610D01*
X35490Y32756D01*
X36086Y31950D01*
X36749Y31198D01*
X37472Y30504D01*
X38252Y29874D01*
X39083Y29313D01*
X39958Y28824D01*
X40872Y28411D01*
X41817Y28077D01*
X42787Y27824D01*
X43775Y27655D01*
X44774Y27570D01*
X45777D01*
X46776Y27655D01*
X47764Y27824D01*
X48734Y28077D01*
X49679Y28411D01*
X50593Y28824D01*
X51468Y29313D01*
X52299Y29874D01*
X53079Y30504D01*
X53803Y31198D01*
X54465Y31950D01*
X55061Y32756D01*
X55587Y33610D01*
X56038Y34505D01*
X56412Y35435D01*
X56705Y36394D01*
X56917Y37374D01*
X57044Y38368D01*
X57087Y39370D01*
X351635Y27152D02*
X350586Y28201D01*
X348487D01*
X347437Y27152D01*
Y22954D01*
X348487Y21904D01*
X350586D01*
X351635Y22954D01*
X353734Y26102D02*
Y21904D01*
Y24003D01*
X354784Y25053D01*
X355834Y26102D01*
X356883D01*
X363180Y21904D02*
X361081D01*
X360032Y22954D01*
Y25053D01*
X361081Y26102D01*
X363180D01*
X364230Y25053D01*
Y24003D01*
X360032D01*
X367378Y26102D02*
X369477D01*
X370527Y25053D01*
Y21904D01*
X367378D01*
X366329Y22954D01*
X367378Y24003D01*
X370527D01*
X373675Y27152D02*
Y26102D01*
X372626D01*
X374725D01*
X373675D01*
Y22954D01*
X374725Y21904D01*
X381022D02*
X378923D01*
X377874Y22954D01*
Y25053D01*
X378923Y26102D01*
X381022D01*
X382072Y25053D01*
Y24003D01*
X377874D01*
X388369Y28201D02*
Y21904D01*
X385220D01*
X384171Y22954D01*
Y25053D01*
X385220Y26102D01*
X388369D01*
X319100Y16865D02*
Y10568D01*
X322249D01*
X323298Y11618D01*
Y12667D01*
Y13717D01*
X322249Y14766D01*
X319100D01*
X325397D02*
Y11618D01*
X326447Y10568D01*
X329595D01*
Y9519D01*
X328546Y8469D01*
X327496D01*
X329595Y10568D02*
Y14766D01*
X337992Y8469D02*
Y14766D01*
X341140D01*
X342190Y13717D01*
Y11618D01*
X341140Y10568D01*
X337992D01*
X345338Y14766D02*
X347437D01*
X348487Y13717D01*
Y10568D01*
X345338D01*
X344289Y11618D01*
X345338Y12667D01*
X348487D01*
X350586Y14766D02*
Y11618D01*
X351635Y10568D01*
X354784D01*
Y9519D01*
X353734Y8469D01*
X352685D01*
X354784Y10568D02*
Y14766D01*
X357933D02*
X360032D01*
X361081Y13717D01*
Y10568D01*
X357933D01*
X356883Y11618D01*
X357933Y12667D01*
X361081D01*
X363180Y10568D02*
X365279D01*
X364230D01*
Y16865D01*
X363180D01*
X368428Y10568D02*
Y14766D01*
X371576D01*
X372626Y13717D01*
Y10568D01*
X374725D02*
X376824D01*
X375775D01*
Y14766D01*
X374725D01*
X379973Y10568D02*
Y16865D01*
Y12667D02*
X383121Y14766D01*
X379973Y12667D02*
X383121Y10568D01*
X386270D02*
X388369D01*
X387319D01*
Y14766D01*
X386270D01*
X347836Y135432D02*
X346852Y134448D01*
Y132480D01*
X347836Y131496D01*
X351772D01*
X352756Y132480D01*
Y134448D01*
X351772Y135432D01*
X349804D01*
Y133464D01*
X352756Y137400D02*
X346852D01*
X352756Y141335D01*
X346852D01*
Y143303D02*
X352756D01*
Y146255D01*
X351772Y147239D01*
X347836D01*
X346852Y146255D01*
Y143303D01*
Y157087D02*
X350788D01*
X352756Y159055D01*
X350788Y161022D01*
X346852D01*
Y162990D02*
X352756D01*
Y165942D01*
X351772Y166926D01*
X350788D01*
X349804Y165942D01*
Y162990D01*
Y165942D01*
X348820Y166926D01*
X347836D01*
X346852Y165942D01*
Y162990D01*
X352756Y168894D02*
X348820D01*
X346852Y170862D01*
X348820Y172829D01*
X352756D01*
X349804D01*
Y168894D01*
X346852Y174797D02*
Y178733D01*
Y176765D01*
X352756D01*
X349804Y180701D02*
Y184637D01*
X347836Y182669D02*
X351772D01*
D11*
X3221Y244882D02*
X156174D01*
X3221Y86575D02*
Y244882D01*
X309127Y86575D02*
Y244882D01*
X3221Y86575D02*
X156174D01*
X309127D01*
X156174Y244882D02*
X309127D01*
X3221Y165728D02*
X309127D01*
X362205Y175886D02*
X393701D01*
X362205Y134705D02*
Y175886D01*
Y134705D02*
X393701D01*
Y175886D01*
D12*
X54724Y260239D02*
X42130D01*
X260236Y72438D02*
X272831D01*
X266664Y268504D02*
Y255910D01*
X272961Y262207D02*
X260366D01*
X48297Y64173D02*
Y76768D01*
X42000Y70470D02*
X54594D01*
M02*
