G04*
G04 #@! TF.GenerationSoftware,Altium Limited,Altium Designer,20.0.11 (256)*
G04*
G04 Layer_Physical_Order=2*
G04 Layer_Color=16711680*
%FSLAX25Y25*%
%MOIN*%
G70*
G01*
G75*
%ADD27C,0.08661*%
%ADD28R,0.08661X0.08661*%
%ADD29R,0.08661X0.08661*%
%ADD39C,0.04724*%
%ADD40R,0.04724X0.04724*%
%ADD44R,0.04724X0.04724*%
%ADD49C,0.13780*%
%ADD50C,0.03150*%
%ADD51C,0.03937*%
%ADD52O,0.03937X0.07874*%
%ADD53O,0.03937X0.07874*%
%ADD54O,0.07874X0.03937*%
%ADD55O,0.07874X0.03937*%
%ADD56C,0.07900*%
%ADD57R,0.06496X0.06496*%
%ADD58C,0.06496*%
%ADD59C,0.07874*%
%ADD60R,0.07874X0.07874*%
%ADD61C,0.09843*%
%ADD62P,0.11506X8X292.5*%
%ADD63C,0.10630*%
%ADD64R,0.11024X0.11024*%
%ADD65C,0.11024*%
%ADD66C,0.05118*%
%ADD67R,0.05118X0.05118*%
%ADD68P,0.07671X8X202.5*%
%ADD69C,0.07087*%
%ADD70R,0.05118X0.05118*%
%ADD71C,0.03937*%
%ADD72C,0.02362*%
%ADD73C,0.12598*%
G36*
X389764Y3937D02*
X3937D01*
X3937Y271654D01*
X48985D01*
X49034Y271153D01*
X48379Y271023D01*
X45835Y269323D01*
X37763Y261252D01*
X36064Y258708D01*
X35467Y255708D01*
Y204035D01*
X10499Y179068D01*
X8800Y176524D01*
X8203Y173524D01*
Y133858D01*
X8800Y130858D01*
X10499Y128314D01*
X13043Y126615D01*
X16043Y126018D01*
X19044Y126615D01*
X21587Y128314D01*
X23287Y130858D01*
X23884Y133858D01*
Y170276D01*
X48851Y195243D01*
X50551Y197787D01*
X51148Y200787D01*
Y252460D01*
X54627Y255939D01*
X70570D01*
X74049Y252460D01*
Y248031D01*
X74646Y245031D01*
X76346Y242488D01*
X78889Y240788D01*
X81890Y240191D01*
X84890Y240788D01*
X87434Y242488D01*
X89133Y245031D01*
X89730Y248031D01*
Y255708D01*
X89730Y255708D01*
X89133Y258708D01*
X87434Y261252D01*
X79362Y269323D01*
X76818Y271023D01*
X76163Y271153D01*
X76212Y271654D01*
X389764D01*
Y3937D01*
D02*
G37*
%LPC*%
G36*
X236581Y265170D02*
X232238D01*
X230066Y262998D01*
Y258655D01*
X232238Y256484D01*
X236581D01*
X238753Y258655D01*
Y262998D01*
X236581Y265170D01*
D02*
G37*
G36*
X150164D02*
X145820D01*
X143649Y262998D01*
Y258655D01*
X145820Y256484D01*
X150164D01*
X152335Y258655D01*
Y262998D01*
X150164Y265170D01*
D02*
G37*
G36*
X224410Y265528D02*
X221085Y264151D01*
X219708Y260827D01*
X221085Y257503D01*
X224410Y256126D01*
X227734Y257503D01*
X229111Y260827D01*
X227734Y264151D01*
X224410Y265528D01*
D02*
G37*
G36*
X157992D02*
X154668Y264151D01*
X153291Y260827D01*
X154668Y257503D01*
X157992Y256126D01*
X161316Y257503D01*
X162693Y260827D01*
X161316Y264151D01*
X157992Y265528D01*
D02*
G37*
G36*
X16929Y263707D02*
X14697Y263263D01*
X12804Y261999D01*
X11540Y260106D01*
X11096Y257874D01*
X11540Y255642D01*
X12804Y253749D01*
X14697Y252485D01*
X16929Y252041D01*
X19162Y252485D01*
X21054Y253749D01*
X22319Y255642D01*
X22762Y257874D01*
X22319Y260106D01*
X21054Y261999D01*
X19162Y263263D01*
X16929Y263707D01*
D02*
G37*
G36*
X275591Y252997D02*
X273472Y252119D01*
X273341Y251802D01*
X272841D01*
X272709Y252119D01*
X270591Y252997D01*
X268472Y252119D01*
X268449Y252064D01*
X267949D01*
X267863Y252272D01*
X266591Y252799D01*
Y248031D01*
Y243264D01*
X267863Y243791D01*
X267949Y243999D01*
X268449D01*
X268472Y243944D01*
X270591Y243066D01*
X272709Y243944D01*
X272841Y244261D01*
X273341D01*
X273472Y243944D01*
X275591Y243066D01*
X277710Y243944D01*
X278587Y246063D01*
Y250000D01*
X277710Y252119D01*
X275591Y252997D01*
D02*
G37*
G36*
X264591Y252799D02*
X263319Y252272D01*
X262378Y250000D01*
Y249031D01*
X264591D01*
Y252799D01*
D02*
G37*
G36*
X367926Y256430D02*
X358452D01*
Y246956D01*
X367926D01*
Y256430D01*
D02*
G37*
G36*
X264591Y247031D02*
X262378D01*
Y246063D01*
X263319Y243791D01*
X264591Y243264D01*
Y247031D01*
D02*
G37*
G36*
X96850Y253865D02*
X94618Y253421D01*
X92726Y252156D01*
X91461Y250264D01*
X91017Y248031D01*
X91461Y245799D01*
X92726Y243907D01*
X94618Y242642D01*
X96850Y242198D01*
X99083Y242642D01*
X100975Y243907D01*
X102240Y245799D01*
X102684Y248031D01*
X102240Y250264D01*
X100975Y252156D01*
X99083Y253421D01*
X96850Y253865D01*
D02*
G37*
G36*
X66929D02*
X64697Y253421D01*
X62804Y252156D01*
X61540Y250264D01*
X61096Y248031D01*
X61540Y245799D01*
X62804Y243907D01*
X64697Y242642D01*
X66929Y242198D01*
X69161Y242642D01*
X71054Y243907D01*
X72318Y245799D01*
X72763Y248031D01*
X72318Y250264D01*
X71054Y252156D01*
X69161Y253421D01*
X66929Y253865D01*
D02*
G37*
G36*
X16929Y244022D02*
X14697Y243578D01*
X12804Y242314D01*
X11540Y240421D01*
X11096Y238189D01*
X11540Y235957D01*
X12804Y234064D01*
X14697Y232800D01*
X16929Y232356D01*
X19162Y232800D01*
X21054Y234064D01*
X22319Y235957D01*
X22762Y238189D01*
X22319Y240421D01*
X21054Y242314D01*
X19162Y243578D01*
X16929Y244022D01*
D02*
G37*
G36*
X363129Y241823D02*
X359504Y240321D01*
X359047Y239217D01*
X306102Y239217D01*
X303983Y238339D01*
X303106Y236221D01*
X303983Y234102D01*
X306102Y233224D01*
X359440Y233224D01*
X359504Y233070D01*
X363129Y231569D01*
X366755Y233070D01*
X368257Y236696D01*
X366755Y240321D01*
X363129Y241823D01*
D02*
G37*
G36*
X256890Y230521D02*
X253264Y229019D01*
X251763Y225394D01*
X253264Y221768D01*
X256890Y220266D01*
X260515Y221768D01*
X262017Y225394D01*
X260515Y229019D01*
X256890Y230521D01*
D02*
G37*
G36*
X315945Y227406D02*
X315945Y227406D01*
X306452D01*
X304333Y226528D01*
X303455Y224410D01*
X304333Y222290D01*
X306452Y221413D01*
X314704D01*
X316618Y219498D01*
X318737Y218621D01*
X318737Y218621D01*
X359243D01*
X359504Y217992D01*
X363129Y216490D01*
X366755Y217992D01*
X368257Y221617D01*
X366755Y225243D01*
X363129Y226745D01*
X359504Y225243D01*
X359243Y224614D01*
X319978D01*
X318064Y226528D01*
X315945Y227406D01*
D02*
G37*
G36*
X129921Y215285D02*
X127501Y214282D01*
X126498Y211862D01*
X127501Y209442D01*
X129921Y208439D01*
X132342Y209442D01*
X133344Y211862D01*
X132342Y214282D01*
X129921Y215285D01*
D02*
G37*
G36*
X106299D02*
X103879Y214282D01*
X102876Y211862D01*
X103879Y209442D01*
X106299Y208439D01*
X108720Y209442D01*
X109722Y211862D01*
X108720Y214282D01*
X106299Y215285D01*
D02*
G37*
G36*
X364189Y211528D02*
Y207693D01*
X368024D01*
X367840Y208619D01*
X366748Y210252D01*
X365115Y211344D01*
X364189Y211528D01*
D02*
G37*
G36*
X362189D02*
X361263Y211344D01*
X359630Y210252D01*
X358538Y208619D01*
X358354Y207693D01*
X362189D01*
Y211528D01*
D02*
G37*
G36*
X236681Y210252D02*
X235409D01*
Y206709D01*
X238953D01*
Y207980D01*
X236681Y210252D01*
D02*
G37*
G36*
X150264D02*
X148992D01*
Y206709D01*
X152535D01*
Y207980D01*
X150264Y210252D01*
D02*
G37*
G36*
X146992D02*
X145721D01*
X143449Y207980D01*
Y206709D01*
X146992D01*
Y210252D01*
D02*
G37*
G36*
X233410D02*
X232138D01*
X229866Y207980D01*
Y206709D01*
X233410D01*
Y210252D01*
D02*
G37*
G36*
X81887Y213792D02*
X71625D01*
Y203531D01*
X81887D01*
Y213792D01*
D02*
G37*
G36*
X11811Y213893D02*
X9809Y213494D01*
X8112Y212361D01*
X6978Y210663D01*
X6580Y208661D01*
X6978Y206660D01*
X8112Y204962D01*
X9809Y203828D01*
X11811Y203430D01*
X13813Y203828D01*
X15510Y204962D01*
X16644Y206660D01*
X17042Y208661D01*
X16644Y210663D01*
X15510Y212361D01*
X13813Y213494D01*
X11811Y213893D01*
D02*
G37*
G36*
X368024Y205693D02*
X364189D01*
Y201858D01*
X365115Y202042D01*
X366748Y203134D01*
X367840Y204767D01*
X368024Y205693D01*
D02*
G37*
G36*
X362189D02*
X358354D01*
X358538Y204767D01*
X359630Y203134D01*
X361263Y202042D01*
X362189Y201858D01*
Y205693D01*
D02*
G37*
G36*
X238953Y204709D02*
X235409D01*
Y201165D01*
X236681D01*
X238953Y203437D01*
Y204709D01*
D02*
G37*
G36*
X233410D02*
X229866D01*
Y203437D01*
X232138Y201165D01*
X233410D01*
Y204709D01*
D02*
G37*
G36*
X152535D02*
X148992D01*
Y201165D01*
X150264D01*
X152535Y203437D01*
Y204709D01*
D02*
G37*
G36*
X146992D02*
X143449D01*
Y203437D01*
X145721Y201165D01*
X146992D01*
Y204709D01*
D02*
G37*
G36*
X224410Y210410D02*
X221085Y209033D01*
X219708Y205709D01*
X221085Y202384D01*
X224410Y201008D01*
X227734Y202384D01*
X229111Y205709D01*
X227734Y209033D01*
X224410Y210410D01*
D02*
G37*
G36*
X157992D02*
X154668Y209033D01*
X153291Y205709D01*
X154668Y202384D01*
X157992Y201008D01*
X161316Y202384D01*
X162693Y205709D01*
X161316Y209033D01*
X157992Y210410D01*
D02*
G37*
G36*
X71866Y184540D02*
Y182102D01*
X74304D01*
X73590Y183826D01*
X71866Y184540D01*
D02*
G37*
G36*
X69866D02*
X68142Y183826D01*
X67428Y182102D01*
X69866D01*
Y184540D01*
D02*
G37*
G36*
X256890Y191151D02*
X253264Y189649D01*
X251763Y186024D01*
X253264Y182398D01*
X256890Y180896D01*
X260515Y182398D01*
X262017Y186024D01*
X260515Y189649D01*
X256890Y191151D01*
D02*
G37*
G36*
X133083Y185001D02*
X126759D01*
Y178676D01*
X133083D01*
Y185001D01*
D02*
G37*
G36*
X218961Y184265D02*
X212637D01*
Y177940D01*
X218961D01*
Y184265D01*
D02*
G37*
G36*
X82099Y184461D02*
X75381D01*
Y177743D01*
X82099D01*
Y184461D01*
D02*
G37*
G36*
X185776Y184525D02*
X183355Y183523D01*
X182353Y181102D01*
X183355Y178682D01*
X185776Y177680D01*
X188196Y178682D01*
X189198Y181102D01*
X188196Y183523D01*
X185776Y184525D01*
D02*
G37*
G36*
X74304Y180102D02*
X71866D01*
Y177664D01*
X73590Y178378D01*
X74304Y180102D01*
D02*
G37*
G36*
X69866D02*
X67428D01*
X68142Y178378D01*
X69866Y177664D01*
Y180102D01*
D02*
G37*
G36*
X109461Y185001D02*
X103137D01*
Y178676D01*
X103729D01*
Y169372D01*
X102282Y167925D01*
X96946D01*
X96509Y168980D01*
X92883Y170482D01*
X89258Y168980D01*
X87756Y165354D01*
X89258Y161729D01*
X92883Y160227D01*
X96509Y161729D01*
X96946Y162784D01*
X103346D01*
X105164Y163537D01*
X108117Y166490D01*
X108870Y168307D01*
Y178676D01*
X109461D01*
Y185001D01*
D02*
G37*
G36*
X187008Y162819D02*
X186039D01*
Y160606D01*
X189807D01*
X189280Y161878D01*
X187008Y162819D01*
D02*
G37*
G36*
X184039D02*
X183071D01*
X180799Y161878D01*
X180272Y160606D01*
X184039D01*
Y162819D01*
D02*
G37*
G36*
X123581Y170482D02*
X119955Y168980D01*
X118453Y165354D01*
X119955Y161729D01*
X123581Y160227D01*
X127206Y161729D01*
X128708Y165354D01*
X127206Y168980D01*
X123581Y170482D01*
D02*
G37*
G36*
X153543Y170482D02*
X149918Y168980D01*
X148416Y165354D01*
X149918Y161729D01*
X153543Y160227D01*
X157169Y161729D01*
X158671Y165354D01*
X157169Y168980D01*
X153543Y170482D01*
D02*
G37*
G36*
X328740Y172593D02*
X325970Y172042D01*
X323622Y170473D01*
X322053Y168124D01*
X321502Y165354D01*
X322053Y162584D01*
X323622Y160236D01*
X325970Y158667D01*
X328740Y158116D01*
X331510Y158667D01*
X333858Y160236D01*
X335427Y162584D01*
X335979Y165354D01*
X335427Y168124D01*
X333858Y170473D01*
X331510Y172042D01*
X328740Y172593D01*
D02*
G37*
G36*
X45276D02*
X42506Y172042D01*
X40157Y170473D01*
X38588Y168124D01*
X38037Y165354D01*
X38588Y162584D01*
X40157Y160236D01*
X42506Y158667D01*
X45276Y158116D01*
X48046Y158667D01*
X50394Y160236D01*
X51963Y162584D01*
X52514Y165354D01*
X51963Y168124D01*
X50394Y170473D01*
X48046Y172042D01*
X45276Y172593D01*
D02*
G37*
G36*
X214148Y168197D02*
X210512Y166692D01*
X209006Y163056D01*
X210512Y159421D01*
X214148Y157915D01*
X217783Y159421D01*
X219289Y163056D01*
X217783Y166692D01*
X214148Y168197D01*
D02*
G37*
G36*
X280720Y167509D02*
X270458D01*
Y157248D01*
X280720D01*
Y167509D01*
D02*
G37*
G36*
X377953Y172593D02*
X363189D01*
X360419Y172042D01*
X358071Y170473D01*
X335584Y147986D01*
X256855D01*
X249266Y155576D01*
X246918Y157145D01*
X244148Y157696D01*
X241378Y157145D01*
X239029Y155576D01*
X237460Y153228D01*
X236909Y150458D01*
X237460Y147688D01*
X239029Y145339D01*
X248739Y135630D01*
X251087Y134061D01*
X253857Y133510D01*
X338583D01*
X341353Y134061D01*
X343701Y135630D01*
X366187Y158116D01*
X377953D01*
X380723Y158667D01*
X383071Y160236D01*
X384640Y162584D01*
X385191Y165354D01*
X384640Y168124D01*
X383071Y170473D01*
X380723Y172042D01*
X377953Y172593D01*
D02*
G37*
G36*
X189807Y158606D02*
X185039D01*
X180272D01*
X180799Y157334D01*
X181007Y157248D01*
Y156748D01*
X180952Y156725D01*
X180074Y154606D01*
X180952Y152487D01*
X181268Y152356D01*
Y151856D01*
X180952Y151725D01*
X180074Y149606D01*
X180952Y147487D01*
X183071Y146610D01*
X187008D01*
X189127Y147487D01*
X190005Y149606D01*
X189127Y151725D01*
X188810Y151856D01*
Y152356D01*
X189127Y152487D01*
X190005Y154606D01*
X189127Y156725D01*
X189072Y156748D01*
Y157248D01*
X189280Y157334D01*
X189807Y158606D01*
D02*
G37*
G36*
X378953Y151594D02*
Y146354D01*
X384192D01*
X383901Y147818D01*
X382506Y149907D01*
X380417Y151303D01*
X378953Y151594D01*
D02*
G37*
G36*
X376953D02*
X375489Y151303D01*
X373400Y149907D01*
X372004Y147818D01*
X371713Y146354D01*
X376953D01*
Y151594D01*
D02*
G37*
G36*
X384192Y144354D02*
X378953D01*
Y139115D01*
X380417Y139406D01*
X382506Y140802D01*
X383901Y142890D01*
X384192Y144354D01*
D02*
G37*
G36*
X376953D02*
X371713D01*
X372004Y142890D01*
X373400Y140802D01*
X375489Y139406D01*
X376953Y139115D01*
Y144354D01*
D02*
G37*
G36*
X214148Y143001D02*
X210512Y141495D01*
X209006Y137859D01*
X210512Y134224D01*
X214148Y132718D01*
X217783Y134224D01*
X219289Y137859D01*
X217783Y141495D01*
X214148Y143001D01*
D02*
G37*
G36*
X304055Y127997D02*
X301936Y127119D01*
X301805Y126803D01*
X301305D01*
X301174Y127119D01*
X299055Y127997D01*
X296936Y127119D01*
X296059Y125000D01*
Y121063D01*
X296936Y118944D01*
X299055Y118066D01*
X301174Y118944D01*
X301305Y119261D01*
X301805D01*
X301936Y118944D01*
X304055Y118066D01*
X306174Y118944D01*
X306197Y118999D01*
X306697D01*
X306783Y118791D01*
X308055Y118264D01*
Y123031D01*
Y127799D01*
X306783Y127272D01*
X306697Y127064D01*
X306197D01*
X306174Y127119D01*
X304055Y127997D01*
D02*
G37*
G36*
X68898Y137017D02*
X65272Y135515D01*
X63770Y131890D01*
X65272Y128264D01*
X68898Y126762D01*
X72523Y128264D01*
X74025Y131890D01*
X72523Y135515D01*
X68898Y137017D01*
D02*
G37*
G36*
X310055Y127799D02*
Y124031D01*
X312268D01*
Y125000D01*
X311327Y127272D01*
X310055Y127799D01*
D02*
G37*
G36*
X187008Y136855D02*
X183071D01*
X180952Y135977D01*
X180074Y133858D01*
X180952Y131739D01*
X181268Y131608D01*
Y131108D01*
X180952Y130977D01*
X180074Y128858D01*
X180952Y126739D01*
X181268Y126608D01*
Y126108D01*
X180952Y125977D01*
X180074Y123858D01*
X180952Y121739D01*
X183071Y120862D01*
X187008D01*
X189127Y121739D01*
X190005Y123858D01*
X189127Y125977D01*
X188810Y126108D01*
Y126608D01*
X189127Y126739D01*
X190005Y128858D01*
X189127Y130977D01*
X188810Y131108D01*
Y131608D01*
X189127Y131739D01*
X190005Y133858D01*
X189127Y135977D01*
X187008Y136855D01*
D02*
G37*
G36*
X123581Y131112D02*
X119955Y129610D01*
X118453Y125984D01*
X119955Y122359D01*
X123581Y120857D01*
X127206Y122359D01*
X128708Y125984D01*
X127206Y129610D01*
X123581Y131112D01*
D02*
G37*
G36*
X153543Y131112D02*
X149918Y129610D01*
X148416Y125984D01*
X149918Y122359D01*
X153543Y120857D01*
X157169Y122359D01*
X158671Y125984D01*
X157169Y129610D01*
X153543Y131112D01*
D02*
G37*
G36*
X92883Y131112D02*
X89258Y129610D01*
X88446Y127651D01*
X85710D01*
X83893Y126898D01*
X80860Y123865D01*
X80107Y122047D01*
Y78821D01*
X76842Y75556D01*
X75787Y75993D01*
X72162Y74492D01*
X70660Y70866D01*
X72162Y67241D01*
X75787Y65739D01*
X79413Y67241D01*
X80915Y70866D01*
X80478Y71921D01*
X84495Y75938D01*
X85248Y77756D01*
Y120983D01*
X86775Y122510D01*
X89195D01*
X89258Y122359D01*
X92883Y120857D01*
X96509Y122359D01*
X98011Y125984D01*
X96509Y129610D01*
X92883Y131112D01*
D02*
G37*
G36*
X312268Y122031D02*
X310055D01*
Y118264D01*
X311327Y118791D01*
X312268Y121063D01*
Y122031D01*
D02*
G37*
G36*
X17043Y120098D02*
Y114858D01*
X22283D01*
X21992Y116322D01*
X20596Y118411D01*
X18507Y119807D01*
X17043Y120098D01*
D02*
G37*
G36*
X15043D02*
X13579Y119807D01*
X11490Y118411D01*
X10095Y116322D01*
X9804Y114858D01*
X15043D01*
Y120098D01*
D02*
G37*
G36*
X22283Y112858D02*
X17043D01*
Y107618D01*
X18507Y107910D01*
X20596Y109305D01*
X21992Y111394D01*
X22283Y112858D01*
D02*
G37*
G36*
X15043D02*
X9804D01*
X10095Y111394D01*
X11490Y109305D01*
X13579Y107910D01*
X15043Y107618D01*
Y112858D01*
D02*
G37*
G36*
X122047Y115364D02*
X118422Y113862D01*
X116920Y110236D01*
X118422Y106611D01*
X122047Y105109D01*
X125673Y106611D01*
X127174Y110236D01*
X125673Y113862D01*
X122047Y115364D01*
D02*
G37*
G36*
X94488D02*
X90863Y113862D01*
X89361Y110236D01*
X90863Y106611D01*
X94488Y105109D01*
X98114Y106611D01*
X99616Y110236D01*
X98114Y113862D01*
X94488Y115364D01*
D02*
G37*
G36*
X367986Y113553D02*
X358511D01*
Y104079D01*
X367986D01*
Y113553D01*
D02*
G37*
G36*
X363189Y98946D02*
X359563Y97444D01*
X359303Y96816D01*
X314291D01*
X314291Y96816D01*
X312172Y95938D01*
X312172Y95938D01*
X304968Y88733D01*
X304090Y86614D01*
X304968Y84495D01*
X307087Y83618D01*
X309206Y84495D01*
X315533Y90822D01*
X359303D01*
X359563Y90193D01*
X363189Y88692D01*
X366814Y90193D01*
X368316Y93819D01*
X366814Y97444D01*
X363189Y98946D01*
D02*
G37*
G36*
X275589Y102665D02*
X273587Y102267D01*
X271890Y101133D01*
X270756Y99436D01*
X270358Y97434D01*
X270756Y95432D01*
X271890Y93735D01*
X273587Y92601D01*
X275589Y92203D01*
X277591Y92601D01*
X279288Y93735D01*
X280422Y95432D01*
X280820Y97434D01*
X280422Y99436D01*
X279288Y101133D01*
X277591Y102267D01*
X275589Y102665D01*
D02*
G37*
G36*
X68898Y97647D02*
X65272Y96145D01*
X63770Y92520D01*
X65272Y88894D01*
X68898Y87392D01*
X72523Y88894D01*
X74025Y92520D01*
X72523Y96145D01*
X68898Y97647D01*
D02*
G37*
G36*
X181102Y92964D02*
X178004Y91681D01*
X176721Y88583D01*
X178004Y85484D01*
X181102Y84201D01*
X184201Y85484D01*
X185484Y88583D01*
X184201Y91681D01*
X181102Y92964D01*
D02*
G37*
G36*
X151575Y91737D02*
X147638D01*
X145519Y90859D01*
X144641Y88740D01*
X145519Y86621D01*
X145835Y86490D01*
Y85990D01*
X145519Y85859D01*
X144641Y83740D01*
X145519Y81621D01*
X145835Y81490D01*
Y80990D01*
X145519Y80859D01*
X144641Y78740D01*
X145519Y76621D01*
X147638Y75744D01*
X151575D01*
X153694Y76621D01*
X154571Y78740D01*
X153694Y80859D01*
X153377Y80990D01*
Y81490D01*
X153694Y81621D01*
X154571Y83740D01*
X153694Y85859D01*
X153377Y85990D01*
Y86490D01*
X153694Y86621D01*
X154571Y88740D01*
X153694Y90859D01*
X151575Y91737D01*
D02*
G37*
G36*
X363189Y83868D02*
X359563Y82366D01*
X359303Y81737D01*
X310485D01*
X308366Y80859D01*
X308366Y80859D01*
X304429Y76922D01*
X303552Y74803D01*
X304429Y72684D01*
X306548Y71807D01*
X308667Y72684D01*
X311726Y75744D01*
X359303D01*
X359563Y75115D01*
X363189Y73613D01*
X366814Y75115D01*
X368316Y78740D01*
X366814Y82366D01*
X363189Y83868D01*
D02*
G37*
G36*
X122047Y75993D02*
X118422Y74492D01*
X116920Y70866D01*
X118422Y67241D01*
X122047Y65739D01*
X125673Y67241D01*
X127174Y70866D01*
X125673Y74492D01*
X122047Y75993D01*
D02*
G37*
G36*
X94488D02*
X90863Y74492D01*
X89361Y70866D01*
X90863Y67241D01*
X94488Y65739D01*
X98114Y67241D01*
X99616Y70866D01*
X98114Y74492D01*
X94488Y75993D01*
D02*
G37*
G36*
X36417D02*
X32792Y74492D01*
X31290Y70866D01*
X32792Y67241D01*
X36417Y65739D01*
X40043Y67241D01*
X41545Y70866D01*
X40043Y74492D01*
X36417Y75993D01*
D02*
G37*
G36*
X364248Y68651D02*
Y64816D01*
X368083D01*
X367899Y65742D01*
X366808Y67375D01*
X365175Y68466D01*
X364248Y68651D01*
D02*
G37*
G36*
X362248D02*
X361322Y68466D01*
X359689Y67375D01*
X358598Y65742D01*
X358414Y64816D01*
X362248D01*
Y68651D01*
D02*
G37*
G36*
X191402Y71290D02*
X188402Y70693D01*
X185859Y68994D01*
X185859Y68994D01*
X177855Y60990D01*
X169062D01*
X167802Y62249D01*
X165258Y63949D01*
X162258Y64546D01*
X146970D01*
X143969Y63949D01*
X141426Y62249D01*
X139726Y59706D01*
X139129Y56705D01*
X139726Y53705D01*
X141426Y51161D01*
X143786Y49584D01*
X143957Y49280D01*
X143935Y48959D01*
X143144Y47047D01*
X144021Y44928D01*
X144076Y44905D01*
Y44405D01*
X143868Y44319D01*
X143341Y43047D01*
X152876D01*
X152349Y44319D01*
X152141Y44405D01*
Y44905D01*
X152196Y44928D01*
X153074Y47047D01*
X152493Y48449D01*
X152771Y48865D01*
X159010D01*
X160270Y47606D01*
X162814Y45906D01*
X165814Y45309D01*
X181102D01*
X184103Y45906D01*
X186646Y47606D01*
X194650Y55609D01*
X214148D01*
X217148Y56206D01*
X219692Y57906D01*
X221391Y60449D01*
X221988Y63450D01*
X221391Y66450D01*
X219692Y68994D01*
X217148Y70693D01*
X214148Y71290D01*
X191403D01*
X191402Y71290D01*
D02*
G37*
G36*
X368083Y62816D02*
X364248D01*
Y58981D01*
X365175Y59165D01*
X366808Y60256D01*
X367899Y61889D01*
X368083Y62816D01*
D02*
G37*
G36*
X362248D02*
X358414D01*
X358598Y61889D01*
X359689Y60256D01*
X361322Y59165D01*
X362248Y58981D01*
Y62816D01*
D02*
G37*
G36*
X244148Y68591D02*
X240512Y67085D01*
X239006Y63450D01*
X240512Y59814D01*
X244148Y58308D01*
X247783Y59814D01*
X249289Y63450D01*
X247783Y67085D01*
X244148Y68591D01*
D02*
G37*
G36*
X302572Y54540D02*
X295853D01*
Y47822D01*
X302572D01*
Y54540D01*
D02*
G37*
G36*
X115354Y57096D02*
X111729Y55594D01*
X110227Y51968D01*
X111729Y48343D01*
X115354Y46841D01*
X118980Y48343D01*
X120482Y51968D01*
X118980Y55594D01*
X115354Y57096D01*
D02*
G37*
G36*
X75984D02*
X72359Y55594D01*
X70857Y51968D01*
X72359Y48343D01*
X75984Y46841D01*
X79610Y48343D01*
X81112Y51968D01*
X79610Y55594D01*
X75984Y57096D01*
D02*
G37*
G36*
X300213Y46745D02*
Y44307D01*
X302651D01*
X301937Y46031D01*
X300213Y46745D01*
D02*
G37*
G36*
X298213D02*
X296489Y46031D01*
X295775Y44307D01*
X298213D01*
Y46745D01*
D02*
G37*
G36*
X302651Y42307D02*
X300213D01*
Y39869D01*
X301937Y40583D01*
X302651Y42307D01*
D02*
G37*
G36*
X298213D02*
X295775D01*
X296489Y40583D01*
X298213Y39869D01*
Y42307D01*
D02*
G37*
G36*
X152876Y41047D02*
X149109D01*
Y38834D01*
X150077D01*
X152349Y39775D01*
X152876Y41047D01*
D02*
G37*
G36*
X147109D02*
X143341D01*
X143868Y39775D01*
X146140Y38834D01*
X147109D01*
Y41047D01*
D02*
G37*
G36*
X200935Y42729D02*
X194217D01*
Y36011D01*
X200935D01*
Y42729D01*
D02*
G37*
G36*
X198576Y34934D02*
Y32496D01*
X201014D01*
X200300Y34220D01*
X198576Y34934D01*
D02*
G37*
G36*
X196576Y34934D02*
X194852Y34220D01*
X194138Y32496D01*
X196576D01*
Y34934D01*
D02*
G37*
G36*
X278165Y38008D02*
X272654D01*
Y32496D01*
X278165D01*
Y38008D01*
D02*
G37*
G36*
X270654D02*
X265142D01*
Y32496D01*
X270654D01*
Y38008D01*
D02*
G37*
G36*
X328740Y46608D02*
X325970Y46057D01*
X323622Y44488D01*
X322053Y42140D01*
X321502Y39370D01*
X322053Y36600D01*
X323622Y34252D01*
X325970Y32683D01*
X328740Y32132D01*
X331510Y32683D01*
X333858Y34252D01*
X335427Y36600D01*
X335979Y39370D01*
X335427Y42140D01*
X333858Y44488D01*
X331510Y46057D01*
X328740Y46608D01*
D02*
G37*
G36*
X45276D02*
X42506Y46057D01*
X40157Y44488D01*
X38588Y42140D01*
X38037Y39370D01*
X38588Y36600D01*
X40157Y34252D01*
X42506Y32683D01*
X45276Y32132D01*
X48046Y32683D01*
X50394Y34252D01*
X51963Y36600D01*
X52514Y39370D01*
X51963Y42140D01*
X50394Y44488D01*
X48046Y46057D01*
X45276Y46608D01*
D02*
G37*
G36*
X201014Y30496D02*
X198576D01*
Y28058D01*
X200300Y28772D01*
X201014Y30496D01*
D02*
G37*
G36*
X196576D02*
X194138D01*
X194852Y28772D01*
X196576Y28058D01*
Y30496D01*
D02*
G37*
G36*
X251969Y37931D02*
X249506Y37442D01*
X247418Y36047D01*
X246023Y33959D01*
X245533Y31496D01*
X246023Y29033D01*
X247418Y26945D01*
X249506Y25550D01*
X251969Y25061D01*
X254431Y25550D01*
X256519Y26945D01*
X257914Y29033D01*
X258404Y31496D01*
X257914Y33959D01*
X256519Y36047D01*
X254431Y37442D01*
X251969Y37931D01*
D02*
G37*
G36*
X232283D02*
X229821Y37442D01*
X227733Y36047D01*
X226338Y33959D01*
X225848Y31496D01*
X226338Y29033D01*
X227733Y26945D01*
X229821Y25550D01*
X232283Y25061D01*
X234746Y25550D01*
X236834Y26945D01*
X238229Y29033D01*
X238719Y31496D01*
X238229Y33959D01*
X236834Y36047D01*
X234746Y37442D01*
X232283Y37931D01*
D02*
G37*
G36*
X278165Y30496D02*
X272654D01*
Y24984D01*
X278165D01*
Y30496D01*
D02*
G37*
G36*
X270654D02*
X265142D01*
Y24984D01*
X270654D01*
Y30496D01*
D02*
G37*
G36*
X98339Y23047D02*
X95976D01*
Y20685D01*
X98339D01*
Y23047D01*
D02*
G37*
G36*
X93976D02*
X91614D01*
Y20685D01*
X93976D01*
Y23047D01*
D02*
G37*
G36*
X75787Y32682D02*
X71850D01*
X69731Y31804D01*
X68854Y29685D01*
X69731Y27566D01*
X70048Y27435D01*
Y26935D01*
X69731Y26804D01*
X68854Y24685D01*
X69731Y22566D01*
X70048Y22435D01*
Y21935D01*
X69731Y21804D01*
X68854Y19685D01*
X69731Y17566D01*
X71850Y16688D01*
X75787D01*
X77906Y17566D01*
X78784Y19685D01*
X77906Y21804D01*
X77590Y21935D01*
Y22435D01*
X77906Y22566D01*
X78784Y24685D01*
X77906Y26804D01*
X77590Y26935D01*
Y27435D01*
X77906Y27566D01*
X78784Y29685D01*
X77906Y31804D01*
X75787Y32682D01*
D02*
G37*
G36*
X141694Y22847D02*
X135369D01*
Y16523D01*
X141694D01*
Y22847D01*
D02*
G37*
G36*
X98339Y18685D02*
X95976D01*
Y16323D01*
X98339D01*
Y18685D01*
D02*
G37*
G36*
X93976D02*
X91614D01*
Y16323D01*
X93976D01*
Y18685D01*
D02*
G37*
G36*
X168555Y23108D02*
X166135Y22105D01*
X165132Y19685D01*
X166135Y17265D01*
X168555Y16262D01*
X170975Y17265D01*
X171978Y19685D01*
X170975Y22105D01*
X168555Y23108D01*
D02*
G37*
G36*
X125000D02*
X122580Y22105D01*
X121577Y19685D01*
X122580Y17265D01*
X125000Y16262D01*
X127420Y17265D01*
X128423Y19685D01*
X127420Y22105D01*
X125000Y23108D01*
D02*
G37*
%LPD*%
D27*
X11811Y208661D02*
D03*
X275589Y97434D02*
D03*
D28*
X76756Y208661D02*
D03*
D29*
X275589Y162379D02*
D03*
D39*
X185776Y181102D02*
D03*
X168555Y19685D02*
D03*
X125000D02*
D03*
X106299Y211862D02*
D03*
X129921D02*
D03*
D40*
X215799Y181102D02*
D03*
X138531Y19685D02*
D03*
X94976D02*
D03*
D44*
X106299Y181839D02*
D03*
X129921D02*
D03*
D49*
X165814Y53150D02*
X181102D01*
X191402Y63450D02*
X214148D01*
X181102Y53150D02*
X191402Y63450D01*
X162258Y56705D02*
X165814Y53150D01*
X146970Y56705D02*
X162258D01*
X16043Y133858D02*
Y173524D01*
X43307Y200787D01*
Y255708D01*
X51379Y263779D02*
X73818D01*
X43307Y255708D02*
X51379Y263779D01*
X73818D02*
X81890Y255708D01*
Y248031D02*
Y255708D01*
D50*
X91980Y125080D02*
X92883Y125984D01*
X85710Y125080D02*
X91980D01*
X82677Y122047D02*
X85710Y125080D01*
X82677Y77756D02*
Y122047D01*
X75787Y70866D02*
X82677Y77756D01*
X106299Y168307D02*
Y181839D01*
X103346Y165354D02*
X106299Y168307D01*
X92883Y165354D02*
X103346D01*
D51*
X318737Y221617D02*
X363129D01*
X315945Y224410D02*
X318737Y221617D01*
X306102Y236221D02*
X362654Y236221D01*
X363129Y236696D01*
X306452Y224410D02*
X315945D01*
X310485Y78740D02*
X363189D01*
X306548Y74803D02*
X310485Y78740D01*
X314291Y93819D02*
X363189D01*
X307087Y86614D02*
X314291Y93819D01*
D52*
X309055Y123031D02*
D03*
X265591Y248031D02*
D03*
D53*
X304055Y123031D02*
D03*
X299055D02*
D03*
X275591Y248031D02*
D03*
X270591D02*
D03*
D54*
X185039Y133858D02*
D03*
Y159606D02*
D03*
X73819Y19685D02*
D03*
X149606Y88740D02*
D03*
X148109Y42047D02*
D03*
D55*
X185039Y128858D02*
D03*
Y123858D02*
D03*
Y149606D02*
D03*
Y154606D02*
D03*
X73819Y24685D02*
D03*
Y29685D02*
D03*
X149606Y78740D02*
D03*
Y83740D02*
D03*
X148109Y47047D02*
D03*
Y52047D02*
D03*
D56*
X214148Y63450D02*
D03*
Y137859D02*
D03*
Y163056D02*
D03*
X244148Y150458D02*
D03*
Y63450D02*
D03*
D57*
X181102Y53150D02*
D03*
D58*
Y88583D02*
D03*
D59*
X363129Y221617D02*
D03*
Y236696D02*
D03*
X363189Y206693D02*
D03*
X363248Y63816D02*
D03*
X363189Y93819D02*
D03*
Y78740D02*
D03*
X256890Y186024D02*
D03*
Y225394D02*
D03*
X122047Y70866D02*
D03*
Y110236D02*
D03*
X75984Y51968D02*
D03*
X115354D02*
D03*
X36417Y70866D02*
D03*
X75787D02*
D03*
X92883Y125984D02*
D03*
Y165354D02*
D03*
X153543Y125984D02*
D03*
Y165354D02*
D03*
X94488Y70866D02*
D03*
Y110236D02*
D03*
X68898Y92520D02*
D03*
Y131890D02*
D03*
X123581Y125984D02*
D03*
Y165354D02*
D03*
D60*
X363189Y251693D02*
D03*
X363248Y108816D02*
D03*
D61*
X66929Y248031D02*
D03*
X16929Y257874D02*
D03*
Y238189D02*
D03*
X81890Y248031D02*
D03*
X96850D02*
D03*
D62*
X377953Y165354D02*
D03*
X16043Y133858D02*
D03*
D63*
X377953Y145354D02*
D03*
X16043Y113858D02*
D03*
D64*
X271654Y31496D02*
D03*
D65*
X251969D02*
D03*
X232283D02*
D03*
D66*
X197576Y31496D02*
D03*
X299213Y43307D02*
D03*
X70866Y181102D02*
D03*
D67*
X197576Y39370D02*
D03*
X299213Y51181D02*
D03*
D68*
X234409Y260827D02*
D03*
X147992D02*
D03*
X234409Y205709D02*
D03*
X147992D02*
D03*
D69*
X224410Y260827D02*
D03*
X157992D02*
D03*
X224410Y205709D02*
D03*
X157992D02*
D03*
D70*
X78740Y181102D02*
D03*
D71*
X328740Y165354D02*
D03*
X45276D02*
D03*
X328740Y39370D02*
D03*
X45276D02*
D03*
D72*
X306548Y74803D02*
D03*
X154553Y32975D02*
D03*
X148109Y32480D02*
D03*
X157262Y37303D02*
D03*
X141416Y32874D02*
D03*
X138955Y37205D02*
D03*
X306102Y236221D02*
D03*
X314676Y185324D02*
D03*
X306452Y224410D02*
D03*
X307087Y86614D02*
D03*
D73*
X363189Y165354D02*
X377953D01*
X253857Y140748D02*
X338583D01*
X363189Y165354D01*
X244148Y150458D02*
X253857Y140748D01*
M02*
