M48
;Layer_Color=9474304
;FILE_FORMAT=4:4
METRIC,LZ
;TYPE=PLATED
T1F00S00C0.5000
T2F00S00C0.8000
T3F00S00C1.0000
T4F00S00C1.2000
T5F00S00C1.5000
;TYPE=NON_PLATED
T6F00S00C3.3000
%
T01
X01215Y0051
X0121425Y005515
X012525Y0056
X0126Y00595
Y0063
Y00665
Y007
Y00735
Y0077
X0121125Y007705
X012025Y007325
X012115Y0070175
X012025Y006625
X0121175Y006305
X012025Y0059
X01310107Y00595
X01310081Y0063
X01310054Y00665
X01310027Y007
X0131Y00735
X01310027Y0077
X01310134Y0056
X01310161Y00525
X012775Y0051
X01145
X01146Y0055025
X01105Y00557
X01117533Y00589888
X0109775Y0061475
X01039Y006115
X010395Y005935
X010415Y00569
X01025Y0056
Y0054
X010225Y0052525
X0102Y0051
X009925Y00525
X01005Y0054
Y0056
X01008457Y00583204
X01008474Y00616298
X010225Y00645
X0103725Y0063685
X0103375Y0067475
X010325Y006895
X01001Y0068725
X010035Y00668
X01005255Y00714585
X01005Y0073
X0096
X00968Y00698
X00944
X00954Y00685
X00953751Y0066985
X00953Y00654
X00952Y00638
X00955Y00618
X00957Y00579
X00962Y00559
Y00539
X0094
Y00559
X009175Y0059375
X00897Y00591
X00872
X00845
X00847Y00611
X00849828Y00635
X00833
X008375Y0065
X00859828Y00669815
X00872328Y00669672
X0087Y0069
X0089Y007
X008925Y0073
Y0076
Y0079
X0086
Y0076
Y0073
X0084Y0069
X0081
X00819Y00611
X00805Y00591
Y0055
Y00529
X00818Y00509
X00845
X00842Y00529
X00851Y0055
X00826Y00551
X00863Y00519
X00901Y00613
X00888Y006505
X00917Y00664
X00933Y00681
X0099Y0076
X0102Y0079
X0106625Y0074925
X011425Y007325
X011725
X01157Y00704
X011425Y006625
X011725
X01157Y00633
X011725Y0059
X010825Y0051
X01156347Y00773631
X0079Y00775
Y0076
Y00745
X00772Y007295
X0077975Y0069025
X00773Y00625
X00789Y00611
X00775434Y00593457
X00757Y0061
X00728Y00616
X00705
X00709Y00594
X00733Y00596
X00741Y00636
X0072
X00707Y00645
X00693Y00653
X00678
X00663Y00658
Y00673
Y00689
X00653Y00701
X00642Y00712
X00631Y00723
X00615Y00729
X00599
Y00699
X00618
X00634Y00682
X00637Y00658
X0061Y00655
Y00635
X0064725Y00637
X00646Y00616
X00645Y00601
Y0058
X00668
X00691Y00577
X00712Y00568
X007245Y0055225
X0072Y0053
X00699
X0069Y00509
X00665
X0064
Y0053
X00657
X00602Y00509
X00550134Y00525
X00550107Y0056
X0055008Y00595
X00550054Y0063
X00550027Y00665
X0055Y007
X00549973Y00735
X0055Y0077
X0061Y0078
X0064
Y0075
X0061
X00671Y00762
X00671053Y00778744
X0068505Y00749957
X00685Y00735
Y0072
X00689Y0063
X00679Y00601
X00604Y00578
X005975Y006675
X00766Y00567
Y00553
X00783Y00551
X00765Y00529
X00764Y00509
X0079
X00717
X0076Y00775
X00775
X0074Y008
X0071
Y0086
X0074
X00741242Y00833118
X0077Y0086
X0078Y0088
X0079Y0096
X00649Y00949
X00626Y00944
X00615
X00604
X00597Y00934
Y00923
X00549893Y0091
X0054992Y00875
X00549946Y0084
X00549973Y00805
X0061Y0081
X0064
Y0084
X0061
X00649146Y00862068
X0068Y0086
X00549866Y00945
X0082Y0096
X0085
X0082025Y00923
X00829Y00901
X00817Y00891
X00829Y00879
X0089Y0085
Y0082
X0092
X0095
X009525Y00845
X009725
X009925
Y00865
Y00885
X009725
Y00865
X009525
Y00885
Y00905
Y00925
X009725
Y00905
X009925
Y00925
X010125Y0096
X010425
X010725
X01104Y0093675
X0115Y0093
Y009
X01132Y0089
X0111Y0085
Y0082
X0108
Y0085
X0105
Y0082
X009325Y00845
Y00865
Y00885
Y00905
Y00925
X00894Y00936
X01176Y00866
X01176Y00843376
X012Y0084
Y0081
X0123
Y0084
Y0087
X012
Y009
X0123
X0126
Y0087
Y0084
Y0081
X0131Y00805
X01309973Y0084
X01309946Y00875
X01309919Y0091
X01309893Y00945
X0128Y00955
X012475
T02
X007725Y009125
Y009375
T03
X01065Y008875
Y009375
T04
X0088Y00551
X009054
T05
X01283Y005425
Y005775
Y006125
Y006475
Y006825
Y007175
Y007525
Y007875
X00577Y007875
Y007525
Y007175
Y006825
Y006475
Y006125
Y005775
Y005425
Y008225
Y008575
Y008925
Y009275
X01283Y009275
Y008925
Y008575
Y008225
T06
X0118Y0055
X0068Y0055
Y0092
X0118
M30
