G04*
G04 #@! TF.GenerationSoftware,Altium Limited,Altium Designer,21.7.2 (23)*
G04*
G04 Layer_Color=65535*
%FSLAX44Y44*%
%MOMM*%
G71*
G04*
G04 #@! TF.SameCoordinates,E4638E92-537D-4F49-80B5-2F4EAB31F582*
G04*
G04*
G04 #@! TF.FilePolarity,Positive*
G04*
G01*
G75*
%ADD10C,0.2500*%
%ADD11C,0.4500*%
%ADD12C,0.2000*%
%ADD13C,0.8000*%
%ADD14C,0.2540*%
%ADD15C,0.3500*%
%ADD16C,0.3200*%
%ADD17C,0.2200*%
%ADD18C,0.3000*%
%ADD19C,0.4000*%
%ADD20C,0.1800*%
G36*
X804500Y928000D02*
X740500D01*
X742000Y935250D01*
X746000Y943250D01*
X751750Y949500D01*
X757500Y953250D01*
X765000Y956000D01*
X772500Y957000D01*
X779000Y956250D01*
X785750Y954250D01*
X792500Y950000D01*
X797750Y944750D01*
X801500Y938250D01*
X803750Y931750D01*
X804500Y928000D01*
D02*
G37*
G36*
X994500Y681750D02*
X994500Y674550D01*
X1001700Y681750D01*
X994500Y681750D01*
D02*
G37*
G36*
X1016000Y902500D02*
X1114000D01*
X1112500Y896500D01*
X1110000Y890750D01*
X1106500Y884500D01*
X1103000Y880000D01*
X1096750Y873750D01*
X1091000Y869750D01*
X1080750Y864750D01*
X1071500Y862750D01*
X1060500Y862500D01*
X1053250Y863750D01*
X1046750Y865750D01*
X1038750Y869750D01*
X1032250Y874750D01*
X1025500Y881750D01*
X1021000Y889000D01*
X1016500Y899750D01*
X1016000Y902250D01*
Y902500D01*
D02*
G37*
G36*
X1081278Y748773D02*
X1077668D01*
Y754597D01*
Y755463D01*
Y756282D01*
Y756955D01*
Y757581D01*
Y758062D01*
Y758447D01*
Y758640D01*
Y758736D01*
Y759314D01*
Y759747D01*
Y760036D01*
Y760276D01*
X1077620Y760373D01*
Y760421D01*
Y760469D01*
X1077572Y760421D01*
X1077524Y760373D01*
X1077283Y760132D01*
X1077043Y759892D01*
X1076994Y759843D01*
X1076946Y759795D01*
X1076417Y759314D01*
X1075887Y758784D01*
X1075647Y758592D01*
X1075454Y758399D01*
X1075358Y758303D01*
X1075310Y758255D01*
X1074636Y757629D01*
X1074107Y757148D01*
X1073914Y756955D01*
X1073770Y756811D01*
X1073673Y756763D01*
X1073625Y756715D01*
X1073384Y756522D01*
X1073240Y756378D01*
X1072999Y756185D01*
X1072903Y756089D01*
X1072855Y756137D01*
X1072807Y756185D01*
X1072566Y756426D01*
X1072277Y756618D01*
X1072229Y756667D01*
X1072181Y756715D01*
X1071652Y757244D01*
X1071122Y757726D01*
X1070882Y757918D01*
X1070689Y758111D01*
X1070593Y758207D01*
X1070545Y758255D01*
X1068186Y760469D01*
X1068138Y754597D01*
Y748773D01*
X1064528D01*
Y757196D01*
Y765667D01*
X1065683Y765619D01*
X1066164Y765571D01*
X1066501D01*
X1066694Y765523D01*
X1066983D01*
X1067175Y765475D01*
X1067272Y765427D01*
X1067320D01*
X1067801Y765234D01*
X1068186Y764994D01*
X1068475Y764801D01*
X1068523Y764753D01*
X1068571Y764705D01*
X1068860Y764464D01*
X1069293Y764079D01*
X1069774Y763646D01*
X1070304Y763165D01*
X1070785Y762683D01*
X1071170Y762346D01*
X1071459Y762057D01*
X1071507Y762009D01*
X1071555Y761961D01*
X1071892Y761576D01*
X1072181Y761287D01*
X1072374Y761095D01*
X1072470Y761047D01*
X1072711Y760854D01*
X1072855Y760758D01*
X1072903Y760710D01*
X1072951Y760758D01*
X1073047Y760806D01*
X1073240Y760999D01*
X1073481Y761191D01*
X1073529Y761287D01*
X1073577D01*
X1074058Y761769D01*
X1074540Y762202D01*
X1074780Y762394D01*
X1074925Y762539D01*
X1075021Y762635D01*
X1075069Y762683D01*
X1075647Y763261D01*
X1076128Y763694D01*
X1076321Y763886D01*
X1076465Y764031D01*
X1076561Y764079D01*
X1076609Y764127D01*
X1076850Y764368D01*
X1077091Y764560D01*
X1077380Y764801D01*
X1077524Y764897D01*
X1077572Y764945D01*
X1077957Y765186D01*
X1078294Y765331D01*
X1078487Y765427D01*
X1078583D01*
X1079064Y765523D01*
X1079546Y765571D01*
X1079786Y765619D01*
X1080123D01*
X1081278Y765667D01*
Y748773D01*
D02*
G37*
G36*
X1153093Y765619D02*
X1153478D01*
X1153815Y765571D01*
X1154103D01*
X1154344Y765523D01*
X1154489D01*
X1154633Y765475D01*
X1154729D01*
X1155114Y765379D01*
X1155499Y765234D01*
X1155740Y765138D01*
X1155788Y765090D01*
X1155836D01*
X1156077Y764897D01*
X1156366Y764705D01*
X1156847Y764223D01*
X1157088Y763983D01*
X1157280Y763838D01*
X1157377Y763694D01*
X1157425Y763646D01*
X1157617Y763405D01*
X1157858Y763165D01*
X1158436Y762491D01*
X1159061Y761721D01*
X1159735Y760902D01*
X1160313Y760180D01*
X1160602Y759843D01*
X1160794Y759555D01*
X1160986Y759314D01*
X1161131Y759121D01*
X1161227Y759025D01*
X1161275Y758977D01*
X1161805Y758303D01*
X1162286Y757726D01*
X1162719Y757196D01*
X1163104Y756715D01*
X1163393Y756378D01*
X1163586Y756089D01*
X1163730Y755897D01*
X1163778Y755848D01*
X1164115Y755415D01*
X1164404Y755078D01*
X1164596Y754886D01*
X1164741Y754693D01*
X1164837Y754597D01*
X1164885Y754549D01*
Y754597D01*
X1164933Y754741D01*
Y754934D01*
Y755174D01*
Y755415D01*
Y755656D01*
Y755800D01*
Y755848D01*
Y756426D01*
Y757100D01*
Y757774D01*
Y758447D01*
Y759073D01*
Y759603D01*
Y759747D01*
Y759892D01*
Y759988D01*
Y760036D01*
Y765619D01*
X1168543D01*
Y748773D01*
X1167196D01*
X1166714Y748821D01*
X1166281D01*
X1165848Y748917D01*
X1165511Y748965D01*
X1165319Y749062D01*
X1165222D01*
X1164837Y749206D01*
X1164500Y749398D01*
X1164260Y749543D01*
X1164211Y749591D01*
X1164163D01*
X1163778Y749880D01*
X1163441Y750169D01*
X1163249Y750361D01*
X1163152Y750457D01*
X1163056Y750602D01*
X1162864Y750843D01*
X1162623Y751083D01*
X1162382Y751372D01*
X1162142Y751661D01*
X1161949Y751901D01*
X1161805Y752094D01*
X1161757Y752142D01*
X1160842Y753249D01*
X1160409Y753827D01*
X1160024Y754308D01*
X1159639Y754741D01*
X1159350Y755126D01*
X1159157Y755319D01*
X1159109Y755415D01*
X1158580Y756089D01*
X1158099Y756667D01*
X1157665Y757196D01*
X1157280Y757677D01*
X1156992Y758014D01*
X1156751Y758303D01*
X1156606Y758496D01*
X1156558Y758544D01*
X1156221Y758977D01*
X1155933Y759314D01*
X1155740Y759555D01*
X1155596Y759747D01*
X1155547Y759843D01*
X1155499Y759892D01*
X1155451D01*
Y759843D01*
Y759651D01*
Y759410D01*
Y759121D01*
X1155403Y758833D01*
Y758592D01*
Y758399D01*
Y758351D01*
Y757726D01*
Y757052D01*
Y756378D01*
Y755752D01*
Y755223D01*
Y754741D01*
Y754453D01*
Y754404D01*
Y754356D01*
Y748773D01*
X1151793D01*
Y757196D01*
Y765667D01*
X1153093Y765619D01*
D02*
G37*
G36*
X1148327Y748773D02*
X1144573D01*
Y757196D01*
Y765619D01*
X1148327D01*
Y748773D01*
D02*
G37*
G36*
X1138797Y762106D02*
X1133839Y762057D01*
X1130326D01*
X1129941Y762009D01*
X1129074D01*
X1128786Y761961D01*
X1128641Y761913D01*
X1128593D01*
X1128400Y761769D01*
X1128352Y761721D01*
X1128304D01*
X1128208Y761672D01*
X1128160Y761624D01*
X1128064Y761432D01*
X1127967Y761239D01*
X1127919Y761047D01*
X1127871Y760950D01*
X1127823Y760565D01*
X1127775Y760228D01*
Y759940D01*
Y759892D01*
Y759843D01*
Y759073D01*
X1136968D01*
Y755559D01*
X1127775D01*
Y754501D01*
X1127823Y754067D01*
Y753730D01*
Y753586D01*
Y753538D01*
X1127919Y753249D01*
X1128015Y753153D01*
Y753105D01*
X1128112Y752960D01*
X1128208Y752864D01*
X1128256Y752768D01*
X1128449Y752623D01*
X1128497Y752575D01*
X1128545Y752527D01*
X1128930Y752383D01*
X1139375Y752335D01*
Y748773D01*
X1133888Y748821D01*
X1128882D01*
X1128593Y748869D01*
X1128352D01*
X1128112Y748917D01*
X1127967D01*
X1127871Y748965D01*
X1127775D01*
X1127149Y749110D01*
X1126620Y749302D01*
X1126186Y749543D01*
X1125801Y749735D01*
X1125512Y749928D01*
X1125320Y750072D01*
X1125224Y750169D01*
X1125176Y750217D01*
X1124887Y750602D01*
X1124646Y751035D01*
X1124357Y751950D01*
X1124261Y752335D01*
X1124165Y752720D01*
X1124117Y752912D01*
Y753008D01*
Y753105D01*
X1124069Y753297D01*
Y753827D01*
X1124020Y754067D01*
Y754260D01*
Y754404D01*
Y754453D01*
Y755415D01*
Y755897D01*
Y756330D01*
Y756715D01*
Y757003D01*
Y757196D01*
Y757244D01*
Y758255D01*
Y759073D01*
Y759699D01*
X1124069Y760228D01*
Y760613D01*
Y760854D01*
Y760999D01*
Y761047D01*
X1124165Y761721D01*
X1124261Y762250D01*
X1124309Y762442D01*
X1124357Y762587D01*
X1124405Y762683D01*
Y762731D01*
X1124550Y763165D01*
X1124742Y763550D01*
X1124983Y763886D01*
X1125176Y764175D01*
X1125368Y764368D01*
X1125561Y764512D01*
X1125657Y764609D01*
X1125705Y764657D01*
X1126138Y764897D01*
X1126571Y765090D01*
X1127486Y765379D01*
X1127871Y765475D01*
X1128208Y765523D01*
X1128400Y765571D01*
X1130326D01*
X1131577Y765619D01*
X1138797D01*
Y762106D01*
D02*
G37*
G36*
X1113768Y765571D02*
X1116560D01*
X1117330Y765475D01*
X1118004Y765331D01*
X1118581Y765138D01*
X1119063Y764946D01*
X1119400Y764753D01*
X1119640Y764560D01*
X1119785Y764464D01*
X1119833Y764416D01*
X1120170Y764031D01*
X1120459Y763550D01*
X1120651Y763068D01*
X1120844Y762539D01*
X1120940Y762106D01*
X1121036Y761721D01*
X1121084Y761480D01*
Y761432D01*
Y761384D01*
Y761239D01*
Y761047D01*
Y760758D01*
X1121132Y760469D01*
Y759795D01*
Y759073D01*
Y758351D01*
Y757774D01*
Y757533D01*
Y757340D01*
Y757244D01*
Y757196D01*
Y756570D01*
Y755993D01*
Y755511D01*
Y755030D01*
Y754645D01*
Y754308D01*
Y754019D01*
Y753779D01*
X1121084Y753442D01*
Y753201D01*
Y753105D01*
Y753057D01*
X1120988Y752431D01*
X1120844Y751901D01*
X1120651Y751420D01*
X1120507Y751083D01*
X1120314Y750746D01*
X1120218Y750554D01*
X1120122Y750409D01*
X1120073Y750361D01*
X1119785Y750024D01*
X1119448Y749784D01*
X1118726Y749350D01*
X1118389Y749254D01*
X1118148Y749158D01*
X1117956Y749062D01*
X1117907D01*
X1117571Y749013D01*
X1117234Y748965D01*
X1116512Y748869D01*
X1116175D01*
X1115934Y748821D01*
X1115068D01*
X1114249Y748773D01*
X1104815D01*
Y757196D01*
Y765619D01*
X1113287D01*
X1113768Y765571D01*
D02*
G37*
G36*
X1101398Y748773D02*
X1097595D01*
Y754404D01*
X1088402Y754404D01*
Y748773D01*
X1084648D01*
Y754741D01*
Y755752D01*
Y756618D01*
Y757437D01*
Y758062D01*
Y758592D01*
Y758977D01*
Y759218D01*
Y759314D01*
Y759940D01*
X1084696Y760373D01*
Y760758D01*
Y760999D01*
Y761191D01*
Y761336D01*
Y761384D01*
X1084840Y762106D01*
X1084985Y762731D01*
X1085177Y763261D01*
X1085418Y763694D01*
X1085610Y763983D01*
X1085803Y764223D01*
X1085899Y764368D01*
X1085947Y764416D01*
X1086380Y764753D01*
X1086862Y764994D01*
X1087391Y765186D01*
X1087921Y765379D01*
X1088402Y765475D01*
X1088787Y765523D01*
X1089028Y765571D01*
X1091242D01*
X1092734Y765619D01*
X1101398Y765619D01*
Y748773D01*
D02*
G37*
G36*
Y728268D02*
X1090760Y728268D01*
X1090279Y728316D01*
X1089220D01*
X1088546Y728412D01*
X1087921Y728557D01*
X1087391Y728701D01*
X1086958Y728894D01*
X1086621Y729038D01*
X1086380Y729135D01*
X1086236Y729231D01*
X1086188Y729279D01*
X1085851Y729616D01*
X1085562Y730001D01*
X1085322Y730386D01*
X1085129Y730771D01*
X1084985Y731108D01*
X1084888Y731397D01*
X1084840Y731637D01*
Y731685D01*
X1084792Y732119D01*
X1084744Y732600D01*
X1084696Y732793D01*
Y732985D01*
Y733081D01*
Y733130D01*
Y733370D01*
Y733659D01*
Y733996D01*
Y734429D01*
Y735344D01*
Y736306D01*
X1084648Y737221D01*
Y737606D01*
Y737991D01*
Y738280D01*
Y738520D01*
Y738665D01*
Y738713D01*
Y745115D01*
X1088402D01*
Y739194D01*
Y738280D01*
Y737510D01*
X1088450Y736788D01*
Y736162D01*
Y735632D01*
Y735151D01*
Y734766D01*
Y734429D01*
X1088498Y734140D01*
Y733900D01*
Y733755D01*
Y733611D01*
Y733466D01*
Y733418D01*
X1088595Y732937D01*
X1088739Y732552D01*
X1088931Y732359D01*
X1088980Y732263D01*
X1089268Y732071D01*
X1089605Y731974D01*
X1089798Y731878D01*
X1090231D01*
X1090712Y731830D01*
X1093697D01*
X1097595Y731782D01*
Y745115D01*
X1101398D01*
Y728268D01*
D02*
G37*
G36*
X1168543D02*
X1164789D01*
Y733900D01*
X1155547D01*
Y728268D01*
X1151793D01*
Y733996D01*
Y734911D01*
Y735777D01*
Y736547D01*
Y737173D01*
Y737654D01*
Y738039D01*
Y738280D01*
Y738376D01*
Y739002D01*
X1151841Y739483D01*
Y739820D01*
Y740109D01*
Y740301D01*
Y740398D01*
Y740494D01*
X1151986Y741312D01*
X1152178Y741986D01*
X1152371Y742564D01*
X1152611Y743045D01*
X1152804Y743382D01*
X1152996Y743623D01*
X1153093Y743767D01*
X1153141Y743815D01*
X1153574Y744152D01*
X1154055Y744441D01*
X1154585Y744633D01*
X1155114Y744778D01*
X1155596Y744922D01*
X1156029Y744970D01*
X1156270Y745018D01*
X1156558D01*
X1156847Y745067D01*
X1160794D01*
X1161468Y745115D01*
X1168543D01*
Y728268D01*
D02*
G37*
G36*
X1148327D02*
X1144573D01*
Y736691D01*
Y745115D01*
X1148327D01*
Y728268D01*
D02*
G37*
G36*
X1139423Y741553D02*
X1128834Y741505D01*
X1128497Y741360D01*
X1128304Y741264D01*
X1128256Y741216D01*
X1128208Y741168D01*
X1128064Y741071D01*
X1128015Y741023D01*
X1127871Y740686D01*
X1127775Y740398D01*
X1127727Y740157D01*
Y740109D01*
Y740061D01*
X1127775Y739724D01*
X1127871Y739483D01*
X1127919Y739291D01*
X1127967Y739242D01*
X1128112Y739098D01*
X1128208Y739050D01*
Y739002D01*
X1128400Y738857D01*
X1128497Y738809D01*
X1128834Y738617D01*
X1133021Y738569D01*
X1136005D01*
X1136342Y738520D01*
X1137161D01*
X1137498Y738472D01*
X1137738Y738424D01*
X1137786D01*
X1138316Y738232D01*
X1138749Y738039D01*
X1139134Y737847D01*
X1139471Y737654D01*
X1139760Y737461D01*
X1139952Y737317D01*
X1140049Y737221D01*
X1140097Y737173D01*
X1140386Y736836D01*
X1140674Y736499D01*
X1141011Y735825D01*
X1141156Y735488D01*
X1141252Y735295D01*
X1141300Y735103D01*
Y735055D01*
X1141348Y734862D01*
X1141396Y734622D01*
X1141444Y734044D01*
Y733803D01*
Y733611D01*
Y733466D01*
Y733418D01*
Y733033D01*
Y732696D01*
X1141396Y732408D01*
Y732215D01*
X1141348Y732022D01*
Y731926D01*
X1141300Y731878D01*
Y731830D01*
X1141011Y731060D01*
X1140867Y730723D01*
X1140674Y730434D01*
X1140530Y730242D01*
X1140386Y730049D01*
X1140338Y729953D01*
X1140289Y729905D01*
X1139760Y729375D01*
X1139182Y729038D01*
X1138942Y728894D01*
X1138797Y728798D01*
X1138653Y728701D01*
X1138605D01*
X1137979Y728509D01*
X1137401Y728412D01*
X1137209D01*
X1137016Y728364D01*
X1136391D01*
X1136054Y728316D01*
X1133743D01*
X1132829Y728268D01*
X1125272D01*
Y731782D01*
X1130855Y731830D01*
X1135669D01*
X1136005Y731878D01*
X1136439D01*
X1136535Y731926D01*
X1136679D01*
X1136872Y732022D01*
X1137016Y732167D01*
X1137161Y732263D01*
X1137209Y732311D01*
X1137401Y732552D01*
X1137546Y732745D01*
X1137642Y732889D01*
Y732937D01*
X1137690Y733370D01*
X1137642Y733755D01*
X1137594Y733996D01*
X1137546Y734092D01*
X1137353Y734477D01*
X1137113Y734718D01*
X1136920Y734814D01*
X1136872Y734862D01*
X1136824D01*
X1136728Y734911D01*
X1136583D01*
X1136294Y734959D01*
X1135572D01*
X1135043Y735007D01*
X1133839D01*
X1133262Y735055D01*
X1129845D01*
X1129363Y735103D01*
X1128641D01*
X1128208Y735151D01*
X1127823Y735199D01*
X1127630Y735247D01*
X1127534D01*
X1127053Y735392D01*
X1126668Y735584D01*
X1126283Y735777D01*
X1125946Y735969D01*
X1125705Y736114D01*
X1125512Y736258D01*
X1125416Y736355D01*
X1125368Y736403D01*
X1124790Y737125D01*
X1124405Y737798D01*
X1124309Y738087D01*
X1124213Y738328D01*
X1124117Y738472D01*
Y738520D01*
X1124069Y738713D01*
X1124020Y738954D01*
X1123972Y739483D01*
Y739724D01*
Y739868D01*
Y740013D01*
Y740061D01*
Y740446D01*
X1124020Y740783D01*
Y741023D01*
X1124069Y741264D01*
Y741408D01*
X1124117Y741505D01*
Y741601D01*
X1124309Y742130D01*
X1124550Y742612D01*
X1124790Y742997D01*
X1125031Y743334D01*
X1125272Y743623D01*
X1125416Y743815D01*
X1125561Y743911D01*
X1125609Y743960D01*
X1126042Y744248D01*
X1126475Y744489D01*
X1126908Y744681D01*
X1127342Y744826D01*
X1127727Y744922D01*
X1128015Y744970D01*
X1128256Y745018D01*
X1128449D01*
X1128689Y745067D01*
X1132155D01*
X1132781Y745115D01*
X1139423D01*
Y741553D01*
D02*
G37*
G36*
X1120747D02*
X1110832D01*
X1110543Y741505D01*
X1109821D01*
X1109532Y741457D01*
X1109292D01*
X1108907Y741360D01*
X1108666Y741264D01*
X1108618Y741216D01*
X1108473Y741071D01*
X1108329Y740927D01*
X1108281Y740783D01*
X1108233Y740735D01*
X1108137Y740494D01*
X1108088Y740301D01*
Y740157D01*
Y740109D01*
X1108137Y739676D01*
X1108233Y739387D01*
X1108329Y739194D01*
X1108377Y739146D01*
X1108618Y738954D01*
X1108907Y738761D01*
X1109099Y738713D01*
X1109195Y738665D01*
X1109292D01*
X1109484Y738617D01*
X1115597D01*
X1115934Y738569D01*
X1117667D01*
X1117811Y738520D01*
X1117956D01*
X1118341Y738472D01*
X1118678Y738376D01*
X1118966Y738280D01*
X1119015Y738232D01*
X1119063D01*
X1119496Y738087D01*
X1119833Y737943D01*
X1120073Y737847D01*
X1120122Y737798D01*
X1120603Y737413D01*
X1120988Y737076D01*
X1121229Y736788D01*
X1121325Y736691D01*
Y736643D01*
X1121662Y736114D01*
X1121902Y735584D01*
X1121999Y735392D01*
X1122047Y735199D01*
X1122095Y735103D01*
Y735055D01*
X1122191Y734574D01*
X1122240Y734044D01*
Y733803D01*
Y733611D01*
Y733466D01*
Y733418D01*
Y732696D01*
X1122191Y732456D01*
Y732215D01*
X1122143Y732022D01*
Y731878D01*
X1122095Y731830D01*
Y731782D01*
X1121902Y731252D01*
X1121710Y730771D01*
X1121469Y730338D01*
X1121229Y730001D01*
X1120988Y729712D01*
X1120796Y729520D01*
X1120651Y729423D01*
X1120603Y729375D01*
X1120170Y729086D01*
X1119688Y728846D01*
X1119207Y728701D01*
X1118774Y728557D01*
X1118389Y728461D01*
X1118052Y728364D01*
X1117859Y728316D01*
X1116608D01*
X1116271Y728268D01*
X1105248D01*
Y731830D01*
X1115308D01*
X1115645Y731878D01*
X1116656D01*
X1117234Y731974D01*
X1117619Y732071D01*
X1117859Y732167D01*
X1117956Y732215D01*
X1118148Y732408D01*
X1118244Y732600D01*
X1118437Y732985D01*
Y733178D01*
X1118485Y733322D01*
Y733418D01*
Y733466D01*
X1118389Y733996D01*
X1118244Y734381D01*
X1118100Y734622D01*
X1118004Y734670D01*
X1117667Y734814D01*
X1117378Y734911D01*
X1117089Y734959D01*
X1116656D01*
X1116415Y735007D01*
X1114731D01*
X1114057Y735055D01*
X1109532D01*
X1109292Y735103D01*
X1108425D01*
X1107848Y735247D01*
X1107318Y735440D01*
X1107126Y735536D01*
X1106933Y735584D01*
X1106837Y735681D01*
X1106789D01*
X1106356Y735921D01*
X1105922Y736258D01*
X1105634Y736547D01*
X1105345Y736836D01*
X1105152Y737125D01*
X1104960Y737365D01*
X1104912Y737510D01*
X1104863Y737558D01*
X1104671Y738039D01*
X1104527Y738569D01*
X1104430Y739050D01*
X1104382Y739483D01*
X1104334Y739916D01*
Y740205D01*
Y740398D01*
Y740494D01*
X1104382Y740927D01*
X1104430Y741264D01*
X1104478Y741505D01*
Y741601D01*
X1104575Y741986D01*
X1104719Y742275D01*
X1104863Y742515D01*
X1104912Y742612D01*
X1105345Y743286D01*
X1105826Y743815D01*
X1106019Y744008D01*
X1106211Y744152D01*
X1106307Y744200D01*
X1106356Y744248D01*
X1107126Y744633D01*
X1107896Y744874D01*
X1108185Y744922D01*
X1108425Y744970D01*
X1108618Y745018D01*
X1108810D01*
X1109051Y745067D01*
X1112805D01*
X1113479Y745115D01*
X1120747D01*
Y741553D01*
D02*
G37*
G36*
X1074973Y745067D02*
X1076417D01*
X1076657Y745018D01*
X1077091D01*
X1077909Y744874D01*
X1078294Y744778D01*
X1078583Y744681D01*
X1078872Y744585D01*
X1079064Y744537D01*
X1079160Y744441D01*
X1079209D01*
X1079786Y744104D01*
X1080171Y743719D01*
X1080460Y743430D01*
X1080556Y743334D01*
Y743286D01*
X1080941Y742708D01*
X1081182Y742178D01*
X1081230Y741938D01*
X1081278Y741745D01*
X1081326Y741649D01*
Y741601D01*
X1081375Y741168D01*
X1081423Y740686D01*
Y740494D01*
Y740301D01*
Y740205D01*
Y740157D01*
Y739531D01*
X1081375Y739050D01*
X1081326Y738761D01*
Y738713D01*
Y738665D01*
X1081134Y738039D01*
X1080941Y737558D01*
X1080797Y737365D01*
X1080749Y737221D01*
X1080653Y737125D01*
Y737076D01*
X1080267Y736595D01*
X1079882Y736306D01*
X1079594Y736114D01*
X1079546Y736066D01*
X1079497D01*
X1079305Y735969D01*
X1079257Y735921D01*
X1079160Y735873D01*
Y735825D01*
X1079209D01*
X1079257Y735777D01*
X1079401Y735729D01*
X1079497Y735681D01*
X1079882Y735488D01*
X1080219Y735247D01*
X1080412Y735055D01*
X1080508Y735007D01*
Y734959D01*
X1080797Y734574D01*
X1080990Y734188D01*
X1081086Y733900D01*
X1081134Y733851D01*
Y733803D01*
X1081182Y733563D01*
X1081230Y733274D01*
Y733033D01*
Y732985D01*
Y732937D01*
Y732696D01*
X1081278Y732408D01*
Y731685D01*
Y731349D01*
Y731060D01*
Y730867D01*
Y730819D01*
X1081326Y728268D01*
X1077572D01*
X1077524Y730434D01*
Y730867D01*
Y731252D01*
Y731589D01*
Y731830D01*
X1077476Y732022D01*
Y732167D01*
Y732263D01*
X1077428Y732600D01*
Y732841D01*
X1077380Y732937D01*
Y732985D01*
X1077235Y733322D01*
X1077091Y733563D01*
X1076946Y733707D01*
X1076898Y733755D01*
X1076657Y733900D01*
X1076369Y733996D01*
X1076128Y734092D01*
X1075887D01*
X1075743Y734140D01*
X1074299D01*
X1073866Y734188D01*
X1068282D01*
Y728268D01*
X1064528D01*
Y736691D01*
Y745115D01*
X1074443D01*
X1074973Y745067D01*
D02*
G37*
G36*
X1057212Y721000D02*
X1024000D01*
Y746944D01*
Y772935D01*
X1057212D01*
Y721000D01*
D02*
G37*
%LPC*%
G36*
X1108570Y762106D02*
Y752335D01*
X1113287D01*
X1113720Y752383D01*
X1115212D01*
X1115549Y752431D01*
X1115886D01*
X1116271Y752527D01*
X1116608Y752623D01*
X1116800Y752768D01*
X1116897Y752816D01*
X1117089Y753153D01*
X1117234Y753442D01*
X1117282Y753682D01*
Y753779D01*
Y753923D01*
Y754116D01*
X1117330Y754549D01*
Y755126D01*
Y755704D01*
Y756282D01*
Y756763D01*
Y756955D01*
Y757052D01*
Y757148D01*
Y757196D01*
Y758014D01*
Y758640D01*
Y759169D01*
Y759555D01*
Y759843D01*
Y759988D01*
Y760084D01*
Y760132D01*
Y760517D01*
X1117282Y760758D01*
X1117234Y760902D01*
Y760950D01*
X1117137Y761191D01*
X1116993Y761384D01*
X1116897Y761480D01*
X1116849Y761528D01*
X1116656Y761721D01*
X1116512Y761817D01*
X1116367Y761913D01*
X1116319D01*
X1116078Y761961D01*
X1115790Y762009D01*
X1115116D01*
X1114634Y762057D01*
X1112276D01*
X1108570Y762106D01*
D02*
G37*
G36*
X1097595Y762057D02*
X1092012Y762057D01*
X1091675Y762009D01*
X1089846D01*
X1089605Y761961D01*
X1089413Y761865D01*
X1089268Y761817D01*
X1089220Y761769D01*
X1089028Y761672D01*
X1088835Y761576D01*
X1088787Y761528D01*
X1088739Y761480D01*
X1088643Y761239D01*
X1088546Y760999D01*
X1088498Y760854D01*
Y760806D01*
Y760662D01*
X1088450Y760421D01*
Y759940D01*
X1088402Y759747D01*
Y759555D01*
Y759410D01*
Y759362D01*
Y757966D01*
X1097595Y757966D01*
Y760036D01*
Y762057D01*
D02*
G37*
G36*
X1164789Y741553D02*
X1159254D01*
X1158965Y741505D01*
X1157425D01*
X1157280Y741457D01*
X1157184D01*
X1156895Y741408D01*
X1156655Y741312D01*
X1156462Y741264D01*
X1156414Y741216D01*
X1156221Y741120D01*
X1156029Y740975D01*
X1155981Y740879D01*
X1155933Y740831D01*
X1155788Y740590D01*
X1155692Y740350D01*
X1155644Y740205D01*
Y740109D01*
Y739916D01*
X1155596Y739724D01*
Y739291D01*
Y739050D01*
Y738857D01*
Y738761D01*
Y738713D01*
Y737413D01*
X1164789D01*
Y739483D01*
Y741553D01*
D02*
G37*
G36*
X1068282Y741553D02*
Y737702D01*
X1075743D01*
X1075936Y737750D01*
X1076272Y737798D01*
X1076417Y737847D01*
X1076465D01*
X1076706Y737943D01*
X1076946Y738087D01*
X1077091Y738184D01*
X1077139Y738232D01*
X1077331Y738472D01*
X1077476Y738665D01*
X1077572Y738809D01*
Y738857D01*
X1077620Y739098D01*
X1077668Y739387D01*
Y739579D01*
Y739628D01*
Y739964D01*
X1077620Y740205D01*
X1077572Y740398D01*
Y740446D01*
X1077476Y740638D01*
X1077331Y740783D01*
X1077187Y740927D01*
X1077139Y740975D01*
X1076946Y741168D01*
X1076754Y741312D01*
X1076609Y741408D01*
X1076465D01*
X1076321Y741457D01*
X1075165D01*
X1074684Y741505D01*
X1072326D01*
X1068282Y741553D01*
D02*
G37*
G36*
X1040606Y769325D02*
X1032520D01*
X1031942Y769277D01*
X1027947D01*
X1027754Y769229D01*
X1027610D01*
Y769133D01*
Y768941D01*
Y768652D01*
Y768363D01*
Y768026D01*
Y767737D01*
Y767545D01*
Y767448D01*
Y766726D01*
Y765956D01*
Y765138D01*
Y764368D01*
X1027562Y763694D01*
Y763116D01*
Y762924D01*
Y762779D01*
Y762683D01*
Y762635D01*
Y761480D01*
Y760228D01*
Y759073D01*
Y757918D01*
Y757437D01*
Y756955D01*
Y756570D01*
Y756185D01*
Y755896D01*
Y755704D01*
Y755559D01*
Y755511D01*
Y753971D01*
Y752479D01*
Y750987D01*
Y749687D01*
Y749110D01*
Y748580D01*
Y748099D01*
Y747666D01*
Y747329D01*
Y747088D01*
Y746944D01*
Y746896D01*
X1027610Y724610D01*
X1053554D01*
Y746944D01*
Y769277D01*
X1040606Y769325D01*
D02*
G37*
%LPD*%
G36*
X1042050Y765571D02*
X1045949D01*
X1046189Y765523D01*
X1046382D01*
X1046526Y765475D01*
X1046622D01*
X1046719Y765427D01*
X1047200Y765282D01*
X1047585Y765090D01*
X1047970Y764897D01*
X1048259Y764705D01*
X1048500Y764560D01*
X1048692Y764416D01*
X1048789Y764320D01*
X1048837Y764272D01*
X1049366Y763646D01*
X1049703Y763020D01*
X1049847Y762731D01*
X1049944Y762491D01*
X1049992Y762346D01*
Y762298D01*
X1050040Y762057D01*
X1050088Y761817D01*
X1050136Y761239D01*
Y760999D01*
Y760806D01*
Y760662D01*
Y760613D01*
Y760228D01*
Y759940D01*
X1050088Y759651D01*
Y759458D01*
X1050040Y759266D01*
Y759169D01*
X1049992Y759073D01*
X1049799Y758496D01*
X1049559Y758014D01*
X1049414Y757822D01*
X1049366Y757677D01*
X1049270Y757629D01*
Y757581D01*
X1048933Y757148D01*
X1048596Y756859D01*
X1048355Y756667D01*
X1048307Y756618D01*
X1048259D01*
X1048018Y756474D01*
X1047970Y756426D01*
X1047922D01*
X1047826Y756378D01*
X1047874D01*
X1047922Y756330D01*
X1048115Y756282D01*
X1048163Y756233D01*
X1048211D01*
X1048452Y756089D01*
X1048692Y755896D01*
X1048885Y755752D01*
X1048933Y755704D01*
X1049174Y755463D01*
X1049366Y755223D01*
X1049462Y755078D01*
X1049510Y755030D01*
X1049703Y754645D01*
X1049799Y754260D01*
X1049847Y753971D01*
Y753923D01*
Y753875D01*
Y753586D01*
X1049896Y753249D01*
Y752816D01*
Y752383D01*
Y751949D01*
Y751613D01*
Y751372D01*
Y751276D01*
Y748773D01*
X1046141D01*
Y751083D01*
Y751613D01*
Y752046D01*
Y752431D01*
Y752672D01*
X1046093Y752864D01*
Y752960D01*
Y753057D01*
Y753345D01*
X1046045Y753538D01*
X1045997Y753634D01*
Y753682D01*
X1045852Y753923D01*
X1045708Y754116D01*
X1045612Y754212D01*
X1045564Y754260D01*
X1045371Y754404D01*
X1045179Y754501D01*
X1045082Y754597D01*
X1043301D01*
X1042724Y754645D01*
X1041424D01*
X1040847Y754693D01*
X1035023D01*
Y748773D01*
X1031172D01*
Y757196D01*
Y765619D01*
X1041376D01*
X1042050Y765571D01*
D02*
G37*
G36*
X1049896Y728268D02*
X1038007D01*
X1037525Y728316D01*
X1036467D01*
X1035744Y728412D01*
X1035167Y728557D01*
X1034589Y728701D01*
X1034156Y728894D01*
X1033819Y729038D01*
X1033530Y729135D01*
X1033386Y729231D01*
X1033338Y729279D01*
X1032953Y729616D01*
X1032616Y729953D01*
X1032327Y730338D01*
X1032086Y730675D01*
X1031894Y731012D01*
X1031798Y731252D01*
X1031749Y731445D01*
X1031701Y731493D01*
X1031509Y732215D01*
X1031364Y732841D01*
X1031316Y733081D01*
X1031268Y733274D01*
Y733418D01*
Y733466D01*
Y733707D01*
Y734044D01*
Y734381D01*
X1031220Y734814D01*
Y735777D01*
Y736788D01*
Y737750D01*
Y738135D01*
Y738520D01*
Y738857D01*
Y739098D01*
Y739242D01*
Y739290D01*
X1031172Y745115D01*
X1035023D01*
Y739435D01*
Y738569D01*
Y737750D01*
X1035071Y737076D01*
Y736451D01*
Y735921D01*
Y735440D01*
Y735055D01*
Y734718D01*
X1035119Y734477D01*
Y734237D01*
Y733948D01*
Y733803D01*
Y733755D01*
X1035263Y733274D01*
X1035456Y732889D01*
X1035648Y732600D01*
X1035744Y732552D01*
Y732504D01*
X1036178Y732167D01*
X1036563Y731974D01*
X1036852Y731926D01*
X1036900Y731878D01*
X1037622D01*
X1037959Y731830D01*
X1041569D01*
X1046141Y731782D01*
Y745115D01*
X1049896D01*
Y728268D01*
D02*
G37*
%LPC*%
G36*
X1035023Y762106D02*
Y758255D01*
X1044986Y758303D01*
X1045419Y758447D01*
X1045660Y758640D01*
X1045804Y758784D01*
X1045900Y758881D01*
X1045949Y758929D01*
X1046093Y759121D01*
X1046237Y759362D01*
X1046286Y759555D01*
X1046334Y759651D01*
X1046382Y759940D01*
Y759988D01*
Y760036D01*
Y760180D01*
Y760373D01*
X1046334Y760517D01*
Y760565D01*
X1046286Y760902D01*
X1046189Y761143D01*
X1046093Y761287D01*
X1046045Y761336D01*
X1045852Y761528D01*
X1045660Y761672D01*
X1045467Y761769D01*
X1045419Y761817D01*
X1044986Y762057D01*
X1035023Y762106D01*
D02*
G37*
%LPD*%
D10*
X979500Y684250D02*
G03*
X979512Y684079I-1238J-171D01*
G01*
X856250Y929400D02*
G03*
X856250Y929400I-1250J0D01*
G01*
X658750Y755000D02*
Y785000D01*
Y755000D02*
X781250D01*
Y785000D01*
X783750Y850000D02*
Y880000D01*
X661250D02*
X783750D01*
X661250Y850000D02*
Y880000D01*
X1283000Y521000D02*
X1364500D01*
X1364500D02*
Y770000D01*
X1364500Y949000D02*
X1364500Y770000D01*
X1266250Y949000D02*
X1283000D01*
X1364500D01*
X1266250Y521000D02*
X1283000D01*
X495500Y949000D02*
X577000D01*
X495500Y700000D02*
Y949000D01*
Y700000D02*
X495500Y521000D01*
X577000D02*
X593750D01*
X495500D02*
X577000D01*
Y949000D02*
X593750D01*
X704013Y663859D02*
X705845Y665692D01*
X709511D01*
X711343Y663859D01*
Y662027D01*
X709511Y660194D01*
X707678D01*
X709511D01*
X711343Y658361D01*
Y656528D01*
X709511Y654696D01*
X705845D01*
X704013Y656528D01*
X715009Y654696D02*
Y656528D01*
X716842D01*
Y654696D01*
X715009D01*
X724173Y663859D02*
X726005Y665692D01*
X729671D01*
X731504Y663859D01*
Y662027D01*
X729671Y660194D01*
X727838D01*
X729671D01*
X731504Y658361D01*
Y656528D01*
X729671Y654696D01*
X726005D01*
X724173Y656528D01*
X735169Y665692D02*
Y658361D01*
X738835Y654696D01*
X742500Y658361D01*
Y665692D01*
X731504Y646496D02*
X724173D01*
Y640998D01*
X727838Y642831D01*
X729671D01*
X731504Y640998D01*
Y637333D01*
X729671Y635500D01*
X726005D01*
X724173Y637333D01*
X735169Y646496D02*
Y639165D01*
X738835Y635500D01*
X742500Y639165D01*
Y646496D01*
X846001Y561291D02*
X849999D01*
X848000D01*
Y573287D01*
X846001Y571287D01*
X844001Y530497D02*
X846001Y532496D01*
X849999D01*
X851999Y530497D01*
Y522499D01*
X849999Y520500D01*
X846001D01*
X844001Y522499D01*
Y530497D01*
X1078763Y817859D02*
X1080595Y819692D01*
X1084261D01*
X1086093Y817859D01*
Y816027D01*
X1084261Y814194D01*
X1082428D01*
X1084261D01*
X1086093Y812361D01*
Y810528D01*
X1084261Y808696D01*
X1080595D01*
X1078763Y810528D01*
X1089759Y808696D02*
Y810528D01*
X1091592D01*
Y808696D01*
X1089759D01*
X1098923Y817859D02*
X1100755Y819692D01*
X1104421D01*
X1106254Y817859D01*
Y816027D01*
X1104421Y814194D01*
X1102588D01*
X1104421D01*
X1106254Y812361D01*
Y810528D01*
X1104421Y808696D01*
X1100755D01*
X1098923Y810528D01*
X1109919Y819692D02*
Y812361D01*
X1113585Y808696D01*
X1117250Y812361D01*
Y819692D01*
X1106254Y800496D02*
X1098923D01*
Y794998D01*
X1102588Y796831D01*
X1104421D01*
X1106254Y794998D01*
Y791333D01*
X1104421Y789500D01*
X1100755D01*
X1098923Y791333D01*
X1109919Y800496D02*
Y793165D01*
X1113585Y789500D01*
X1117250Y793165D01*
Y800496D01*
X731005Y595959D02*
Y603290D01*
X734670Y606956D01*
X738336Y603290D01*
Y595959D01*
Y601458D01*
X731005D01*
X742001Y605123D02*
X743834Y606956D01*
X747500D01*
X749332Y605123D01*
Y597792D01*
X747500Y595959D01*
X743834D01*
X742001Y597792D01*
Y605123D01*
X774991Y595959D02*
Y603290D01*
X778656Y606956D01*
X782322Y603290D01*
Y595959D01*
Y601458D01*
X774991D01*
X785987Y595959D02*
X789653D01*
X787820D01*
Y606956D01*
X785987Y605123D01*
X817144Y595959D02*
Y603290D01*
X820809Y606956D01*
X824475Y603290D01*
Y595959D01*
Y601458D01*
X817144D01*
X835471Y595959D02*
X828140D01*
X835471Y603290D01*
Y605123D01*
X833639Y606956D01*
X829973D01*
X828140Y605123D01*
D11*
X871500Y535000D02*
G03*
X871500Y535000I-1500J0D01*
G01*
D12*
X1115000Y912500D02*
G03*
X1115000Y912500I-50000J0D01*
G01*
X804500Y925000D02*
G03*
X804500Y925000I-32000J0D01*
G01*
X1130000Y667708D02*
Y684208D01*
X1096000Y667708D02*
Y684208D01*
Y667708D02*
X1130000D01*
X1096000Y684208D02*
X1130000D01*
X1130000Y688750D02*
Y705250D01*
X1096000Y688750D02*
Y705250D01*
Y688750D02*
X1130000D01*
X1096000Y705250D02*
X1130000D01*
X731883Y553000D02*
Y587000D01*
X748383Y553000D02*
Y587000D01*
X731883Y553000D02*
X748383D01*
X731883Y587000D02*
X748383D01*
X747133Y529000D02*
Y533500D01*
Y517500D02*
Y522000D01*
X733133Y517500D02*
Y522000D01*
Y529000D02*
Y533500D01*
X747133D01*
X733133Y517500D02*
X747133D01*
X994500Y566750D02*
X1059500D01*
X994500Y681750D02*
X1059500D01*
Y566750D02*
Y681750D01*
X994500Y566750D02*
Y681750D01*
X1143500Y787000D02*
Y801000D01*
X1127500Y787000D02*
Y801000D01*
Y787000D02*
X1132000D01*
X1139000D02*
X1143500D01*
X1139000Y801000D02*
X1143500D01*
X1127500D02*
X1132000D01*
X1143500Y807000D02*
Y821000D01*
X1127500Y807000D02*
Y821000D01*
Y807000D02*
X1132000D01*
X1139000D02*
X1143500D01*
X1139000Y821000D02*
X1143500D01*
X1127500D02*
X1132000D01*
X770000Y653162D02*
Y667162D01*
X754000Y653162D02*
Y667162D01*
Y653162D02*
X758500D01*
X765500D02*
X770000D01*
X765500Y667162D02*
X770000D01*
X754000D02*
X758500D01*
X770000Y634619D02*
Y648620D01*
X754000Y634619D02*
Y648620D01*
Y634619D02*
X758500D01*
X765500D02*
X770000D01*
X765500Y648620D02*
X770000D01*
X754000D02*
X758500D01*
X818250Y587000D02*
X834750D01*
X818250Y553000D02*
X834750D01*
Y587000D01*
X818250Y553000D02*
Y587000D01*
X774284Y587000D02*
X790784D01*
X774284Y553000D02*
X790784D01*
Y587000D01*
X774284Y553000D02*
Y587000D01*
X775534Y517500D02*
X789534D01*
X775534Y533500D02*
X789534D01*
X775534Y529000D02*
Y533500D01*
Y517500D02*
Y522000D01*
X789534Y517500D02*
Y522000D01*
Y529000D02*
Y533500D01*
X819500Y517500D02*
X833500D01*
X819500Y533500D02*
X833500D01*
X819500Y529000D02*
Y533500D01*
Y517500D02*
Y522000D01*
X833500Y517500D02*
Y522000D01*
Y529000D02*
Y533500D01*
X964146Y804187D02*
X988187Y780146D01*
X975813Y815854D02*
X999854Y791813D01*
X988187Y780146D02*
X999854Y791813D01*
X964146Y804187D02*
X975813Y815854D01*
X893000Y936200D02*
X910000D01*
X893000Y832200D02*
Y936200D01*
Y832200D02*
X910000D01*
X811750Y915500D02*
Y949500D01*
X828250Y915500D02*
Y949500D01*
X811750Y915500D02*
X828250D01*
X811750Y949500D02*
X828250D01*
X873750Y636000D02*
X890250D01*
X873750Y602000D02*
X890250D01*
Y636000D01*
X873750Y602000D02*
Y636000D01*
X604500Y948500D02*
X608499D01*
X606499D01*
Y960496D01*
X604500Y958497D01*
X622494Y948500D02*
X614497D01*
X622494Y956497D01*
Y958497D01*
X620495Y960496D01*
X616496D01*
X614497Y958497D01*
X626493Y954498D02*
X634490D01*
X646486Y948500D02*
X638489D01*
X646486Y956497D01*
Y958497D01*
X644487Y960496D01*
X640488D01*
X638489Y958497D01*
X656483Y948500D02*
Y960496D01*
X650485Y954498D01*
X658483D01*
X662481Y960496D02*
Y952499D01*
X666480Y948500D01*
X670479Y952499D01*
Y960496D01*
D13*
X1285000Y511000D02*
G03*
X1285000Y511000I-3000J0D01*
G01*
X578000Y959000D02*
G03*
X578000Y959000I-3000J0D01*
G01*
D14*
X807500Y823887D02*
X935500D01*
X807500Y695888D02*
X935500D01*
X807500D02*
Y719887D01*
X935500Y695888D02*
Y719887D01*
X807500Y799887D02*
Y823887D01*
X935500Y799887D02*
Y823887D01*
X1266250Y521000D02*
Y949000D01*
X593750Y521000D02*
Y949000D01*
D15*
X1238002Y793068D02*
X1251998D01*
Y789569D01*
X1238002Y775574D01*
Y772075D01*
X1251998Y759476D02*
X1245000Y755977D01*
X1238002Y748979D01*
Y741982D01*
X1241501Y738483D01*
X1248499D01*
X1251998Y741982D01*
Y745481D01*
X1248499Y748979D01*
X1238002D01*
X1251998Y725884D02*
X1238002D01*
Y715388D01*
X1245000Y718887D01*
X1248499D01*
X1251998Y715388D01*
Y708390D01*
X1248499Y704891D01*
X1241501D01*
X1238002Y708390D01*
X1248499Y671299D02*
Y692292D01*
X1238002Y681796D01*
X1251998D01*
X1238002Y655202D02*
X1241501Y658701D01*
X1248499D01*
X1251998Y655202D01*
Y651703D01*
X1248499Y648204D01*
X1245000D01*
X1248499D01*
X1251998Y644705D01*
Y641206D01*
X1248499Y637707D01*
X1241501D01*
X1238002Y641206D01*
X1251998Y604116D02*
X1238002D01*
X1251998Y618111D01*
Y621610D01*
X1248499Y625109D01*
X1241501D01*
X1238002Y621610D01*
X1241501Y570524D02*
X1248499D01*
X1245000D01*
Y591517D01*
X1241501Y588018D01*
X1238002Y554426D02*
X1241501Y557925D01*
X1248499D01*
X1251998Y554426D01*
Y540431D01*
X1248499Y536932D01*
X1241501D01*
X1238002Y540431D01*
Y554426D01*
D16*
X615003Y617498D02*
X612504Y619998D01*
X607506D01*
X605006Y617498D01*
Y614999D01*
X607506Y612500D01*
X612504D01*
X615003Y610001D01*
Y607502D01*
X612504Y605002D01*
X607506D01*
X605006Y607502D01*
X629998Y617498D02*
X627499Y619998D01*
X622501D01*
X620002Y617498D01*
Y607502D01*
X622501Y605002D01*
X627499D01*
X629998Y607502D01*
X634997Y619998D02*
Y605002D01*
X644994D01*
X615003Y581998D02*
X612504Y584498D01*
X607506D01*
X605006Y581998D01*
Y579499D01*
X607506Y577000D01*
X612504D01*
X615003Y574501D01*
Y572002D01*
X612504Y569502D01*
X607506D01*
X605006Y572002D01*
X620002Y584498D02*
Y569502D01*
X627499D01*
X629998Y572002D01*
Y581998D01*
X627499Y584498D01*
X620002D01*
X634997Y569502D02*
Y579499D01*
X639995Y584498D01*
X644994Y579499D01*
Y569502D01*
Y577000D01*
X634997D01*
X615003Y547498D02*
X612504Y549998D01*
X607506D01*
X605006Y547498D01*
Y537502D01*
X607506Y535002D01*
X612504D01*
X615003Y537502D01*
Y542500D01*
X610005D01*
X620002Y535002D02*
Y549998D01*
X629998Y535002D01*
Y549998D01*
X634997D02*
Y535002D01*
X642494D01*
X644994Y537502D01*
Y547498D01*
X642494Y549998D01*
X634997D01*
X615003Y652498D02*
X612504Y654998D01*
X607506D01*
X605006Y652498D01*
Y642502D01*
X607506Y640002D01*
X612504D01*
X615003Y642502D01*
Y647500D01*
X610005D01*
X620002Y640002D02*
Y654998D01*
X629998Y640002D01*
Y654998D01*
X634997D02*
Y640002D01*
X642494D01*
X644994Y642502D01*
Y652498D01*
X642494Y654998D01*
X634997D01*
X615003Y687498D02*
X612504Y689998D01*
X607506D01*
X605006Y687498D01*
Y684999D01*
X607506Y682500D01*
X612504D01*
X615003Y680001D01*
Y677502D01*
X612504Y675002D01*
X607506D01*
X605006Y677502D01*
X620002Y689998D02*
Y675002D01*
X627499D01*
X629998Y677502D01*
Y687498D01*
X627499Y689998D01*
X620002D01*
X634997Y675002D02*
Y684999D01*
X639995Y689998D01*
X644994Y684999D01*
Y675002D01*
Y682500D01*
X634997D01*
X615003Y722498D02*
X612504Y724998D01*
X607506D01*
X605006Y722498D01*
Y719999D01*
X607506Y717500D01*
X612504D01*
X615003Y715001D01*
Y712502D01*
X612504Y710002D01*
X607506D01*
X605006Y712502D01*
X629998Y722498D02*
X627499Y724998D01*
X622501D01*
X620002Y722498D01*
Y712502D01*
X622501Y710002D01*
X627499D01*
X629998Y712502D01*
X634997Y724998D02*
Y710002D01*
X644994D01*
X614997Y862496D02*
X612498Y864995D01*
X607499D01*
X605000Y862496D01*
Y852499D01*
X607499Y850000D01*
X612498D01*
X614997Y852499D01*
Y857498D01*
X609998D01*
X619995Y850000D02*
Y864995D01*
X629992Y850000D01*
Y864995D01*
X634990D02*
Y850000D01*
X642488D01*
X644987Y852499D01*
Y862496D01*
X642488Y864995D01*
X634990D01*
X614997Y827496D02*
X612498Y829995D01*
X607499D01*
X605000Y827496D01*
Y817499D01*
X607499Y815000D01*
X612498D01*
X614997Y817499D01*
Y822498D01*
X609998D01*
X619995Y815000D02*
Y829995D01*
X629992Y815000D01*
Y829995D01*
X634990D02*
Y815000D01*
X642488D01*
X644987Y817499D01*
Y827496D01*
X642488Y829995D01*
X634990D01*
X605000Y899995D02*
Y889998D01*
X609998Y885000D01*
X614997Y889998D01*
Y899995D01*
X619995Y885000D02*
X624994D01*
X622494D01*
Y894997D01*
X619995D01*
X632491Y885000D02*
Y894997D01*
X639989D01*
X642488Y892498D01*
Y885000D01*
X1227497Y862496D02*
X1224998Y864995D01*
X1219999D01*
X1217500Y862496D01*
Y852499D01*
X1219999Y850000D01*
X1224998D01*
X1227497Y852499D01*
Y857498D01*
X1222498D01*
X1232495Y850000D02*
Y864995D01*
X1242492Y850000D01*
Y864995D01*
X1247490D02*
Y850000D01*
X1254988D01*
X1257487Y852499D01*
Y862496D01*
X1254988Y864995D01*
X1247490D01*
X1227497Y827246D02*
X1224998Y829745D01*
X1219999D01*
X1217500Y827246D01*
Y817249D01*
X1219999Y814750D01*
X1224998D01*
X1227497Y817249D01*
Y822248D01*
X1222498D01*
X1232495Y814750D02*
Y829745D01*
X1242492Y814750D01*
Y829745D01*
X1247490D02*
Y814750D01*
X1254988D01*
X1257487Y817249D01*
Y827246D01*
X1254988Y829745D01*
X1247490D01*
X1207500Y902495D02*
Y892498D01*
X1212498Y887500D01*
X1217497Y892498D01*
Y902495D01*
X1224994Y887500D02*
X1229993D01*
X1232492Y889999D01*
Y894998D01*
X1229993Y897497D01*
X1224994D01*
X1222495Y894998D01*
Y889999D01*
X1224994Y887500D01*
X1237490Y897497D02*
Y889999D01*
X1239989Y887500D01*
X1247487D01*
Y897497D01*
X1254985Y899996D02*
Y897497D01*
X1252485D01*
X1257484D01*
X1254985D01*
Y889999D01*
X1257484Y887500D01*
X1207500Y937495D02*
Y927498D01*
X1212498Y922500D01*
X1217497Y927498D01*
Y937495D01*
X1224994Y922500D02*
X1229993D01*
X1232492Y924999D01*
Y929998D01*
X1229993Y932497D01*
X1224994D01*
X1222495Y929998D01*
Y924999D01*
X1224994Y922500D01*
X1237490Y932497D02*
Y924999D01*
X1239989Y922500D01*
X1247487D01*
Y932497D01*
X1254985Y934996D02*
Y932497D01*
X1252485D01*
X1257484D01*
X1254985D01*
Y924999D01*
X1257484Y922500D01*
X605000Y934995D02*
Y924998D01*
X609998Y920000D01*
X614997Y924998D01*
Y934995D01*
X619995Y920000D02*
X624994D01*
X622494D01*
Y929997D01*
X619995D01*
X632491Y920000D02*
Y929997D01*
X639989D01*
X642488Y927498D01*
Y920000D01*
D17*
X968865Y552863D02*
X967198Y554529D01*
X963866D01*
X962200Y552863D01*
Y546198D01*
X963866Y544532D01*
X967198D01*
X968865Y546198D01*
Y549531D01*
X965532D01*
X972197Y544532D02*
Y554529D01*
X977195D01*
X978861Y552863D01*
Y549531D01*
X977195Y547864D01*
X972197D01*
X982194Y554529D02*
X985526D01*
X983860D01*
Y544532D01*
X982194D01*
X985526D01*
X995523Y554529D02*
X992190D01*
X990524Y552863D01*
Y546198D01*
X992190Y544532D01*
X995523D01*
X997189Y546198D01*
Y552863D01*
X995523Y554529D01*
X1015516Y544532D02*
X1012184D01*
X1010518Y546198D01*
Y549531D01*
X1012184Y551197D01*
X1015516D01*
X1017182Y549531D01*
Y547864D01*
X1010518D01*
X1020515Y551197D02*
X1027179Y544532D01*
X1023847Y547864D01*
X1027179Y551197D01*
X1020515Y544532D01*
X1030511Y541200D02*
Y551197D01*
X1035510D01*
X1037176Y549531D01*
Y546198D01*
X1035510Y544532D01*
X1030511D01*
X1042174Y551197D02*
X1045507D01*
X1047173Y549531D01*
Y544532D01*
X1042174D01*
X1040508Y546198D01*
X1042174Y547864D01*
X1047173D01*
X1050505Y544532D02*
Y551197D01*
X1055503D01*
X1057169Y549531D01*
Y544532D01*
X1067166Y554529D02*
Y544532D01*
X1062168D01*
X1060502Y546198D01*
Y549531D01*
X1062168Y551197D01*
X1067166D01*
X1075497Y544532D02*
X1072165D01*
X1070498Y546198D01*
Y549531D01*
X1072165Y551197D01*
X1075497D01*
X1077163Y549531D01*
Y547864D01*
X1070498D01*
X1080495Y551197D02*
Y544532D01*
Y547864D01*
X1082161Y549531D01*
X1083828Y551197D01*
X1085494D01*
X1090492Y554529D02*
Y547864D01*
X1093824Y544532D01*
X1097157Y547864D01*
Y554529D01*
X1107153Y544532D02*
X1100489D01*
X1107153Y551197D01*
Y552863D01*
X1105487Y554529D01*
X1102155D01*
X1100489Y552863D01*
X968865Y536665D02*
Y526668D01*
X963866D01*
X962200Y528334D01*
Y531666D01*
X963866Y533332D01*
X968865D01*
X977195Y526668D02*
X973863D01*
X972197Y528334D01*
Y531666D01*
X973863Y533332D01*
X977195D01*
X978861Y531666D01*
Y530000D01*
X972197D01*
X982194Y526668D02*
X987192D01*
X988858Y528334D01*
X987192Y530000D01*
X983860D01*
X982194Y531666D01*
X983860Y533332D01*
X988858D01*
X992190Y526668D02*
X995523D01*
X993857D01*
Y533332D01*
X992190D01*
X1003853Y523335D02*
X1005519D01*
X1007186Y525002D01*
Y533332D01*
X1002187D01*
X1000521Y531666D01*
Y528334D01*
X1002187Y526668D01*
X1007186D01*
X1010518D02*
Y533332D01*
X1015516D01*
X1017182Y531666D01*
Y526668D01*
X1025513D02*
X1022181D01*
X1020515Y528334D01*
Y531666D01*
X1022181Y533332D01*
X1025513D01*
X1027179Y531666D01*
Y530000D01*
X1020515D01*
X1037176Y536665D02*
Y526668D01*
X1032178D01*
X1030511Y528334D01*
Y531666D01*
X1032178Y533332D01*
X1037176D01*
X1050505Y536665D02*
Y526668D01*
X1055503D01*
X1057169Y528334D01*
Y530000D01*
Y531666D01*
X1055503Y533332D01*
X1050505D01*
X1060502D02*
Y528334D01*
X1062168Y526668D01*
X1067166D01*
Y525002D01*
X1065500Y523335D01*
X1063834D01*
X1067166Y526668D02*
Y533332D01*
X1087160Y534998D02*
X1085494Y536665D01*
X1082161D01*
X1080495Y534998D01*
Y528334D01*
X1082161Y526668D01*
X1085494D01*
X1087160Y528334D01*
X1092158Y534998D02*
Y533332D01*
X1090492D01*
X1093824D01*
X1092158D01*
Y528334D01*
X1093824Y526668D01*
X1098823Y533332D02*
Y526668D01*
Y530000D01*
X1100489Y531666D01*
X1102155Y533332D01*
X1103821D01*
X1108819Y526668D02*
X1112152D01*
X1110486D01*
Y536665D01*
X1108819D01*
X1117150Y526668D02*
Y536665D01*
X1123815Y526668D01*
Y536665D01*
X1127147D02*
Y526668D01*
X1133811D01*
X1138810Y533332D02*
X1142142D01*
X1143808Y531666D01*
Y526668D01*
X1138810D01*
X1137144Y528334D01*
X1138810Y530000D01*
X1143808D01*
X1147140Y536665D02*
Y526668D01*
X1152139D01*
X1153805Y528334D01*
Y530000D01*
Y531666D01*
X1152139Y533332D01*
X1147140D01*
X1001200Y505668D02*
Y515664D01*
X1006198D01*
X1007865Y513998D01*
Y510666D01*
X1006198Y509000D01*
X1001200D01*
X1004532D02*
X1007865Y505668D01*
X1011197Y512332D02*
Y507334D01*
X1012863Y505668D01*
X1017861D01*
Y512332D01*
X1021194Y505668D02*
X1026192D01*
X1027858Y507334D01*
X1026192Y509000D01*
X1022860D01*
X1021194Y510666D01*
X1022860Y512332D01*
X1027858D01*
X1031190Y505668D02*
X1036189D01*
X1037855Y507334D01*
X1036189Y509000D01*
X1032857D01*
X1031190Y510666D01*
X1032857Y512332D01*
X1037855D01*
X1041187Y505668D02*
X1044519D01*
X1042853D01*
Y512332D01*
X1041187D01*
X1051184D02*
X1054516D01*
X1056182Y510666D01*
Y505668D01*
X1051184D01*
X1049518Y507334D01*
X1051184Y509000D01*
X1056182D01*
X1061181Y504002D02*
X1062847Y505668D01*
Y507334D01*
X1061181D01*
Y505668D01*
X1062847D01*
X1061181Y504002D01*
X1059514Y502336D01*
X1079508Y505668D02*
Y515664D01*
X1082840Y512332D01*
X1086173Y515664D01*
Y505668D01*
X1091171D02*
X1094503D01*
X1096169Y507334D01*
Y510666D01*
X1094503Y512332D01*
X1091171D01*
X1089505Y510666D01*
Y507334D01*
X1091171Y505668D01*
X1099502D02*
X1104500D01*
X1106166Y507334D01*
X1104500Y509000D01*
X1101168D01*
X1099502Y510666D01*
X1101168Y512332D01*
X1106166D01*
X1116163D02*
X1111165D01*
X1109498Y510666D01*
Y507334D01*
X1111165Y505668D01*
X1116163D01*
X1121161D02*
X1124494D01*
X1126160Y507334D01*
Y510666D01*
X1124494Y512332D01*
X1121161D01*
X1119495Y510666D01*
Y507334D01*
X1121161Y505668D01*
X1129492Y512332D02*
Y507334D01*
X1131158Y505668D01*
X1132824Y507334D01*
X1134490Y505668D01*
X1136156Y507334D01*
Y512332D01*
X1156150Y505668D02*
X1149486D01*
X1156150Y512332D01*
Y513998D01*
X1154484Y515664D01*
X1151152D01*
X1149486Y513998D01*
X1159482D02*
X1161149Y515664D01*
X1164481D01*
X1166147Y513998D01*
Y507334D01*
X1164481Y505668D01*
X1161149D01*
X1159482Y507334D01*
Y513998D01*
X1176144Y505668D02*
X1169479D01*
X1176144Y512332D01*
Y513998D01*
X1174477Y515664D01*
X1171145D01*
X1169479Y513998D01*
X1186140Y505668D02*
X1179476D01*
X1186140Y512332D01*
Y513998D01*
X1184474Y515664D01*
X1181142D01*
X1179476Y513998D01*
D18*
X696015Y694995D02*
Y684998D01*
X701013Y680000D01*
X706011Y684998D01*
Y694995D01*
X711010Y680000D02*
X716008D01*
X713509D01*
Y689997D01*
X711010D01*
X726005Y680000D02*
X731003D01*
X733502Y682499D01*
Y687498D01*
X731003Y689997D01*
X726005D01*
X723506Y687498D01*
Y682499D01*
X726005Y680000D01*
X738501Y689997D02*
X741000D01*
Y687498D01*
X738501D01*
Y689997D01*
Y682499D02*
X741000D01*
Y680000D01*
X738501D01*
Y682499D01*
X1057519Y844745D02*
Y834748D01*
X1062518Y829750D01*
X1067516Y834748D01*
Y844745D01*
X1075014Y829750D02*
X1080012D01*
X1082511Y832249D01*
Y837248D01*
X1080012Y839747D01*
X1075014D01*
X1072515Y837248D01*
Y832249D01*
X1075014Y829750D01*
X1087510Y839747D02*
Y832249D01*
X1090009Y829750D01*
X1097506D01*
Y839747D01*
X1105004Y842246D02*
Y839747D01*
X1102505D01*
X1107503D01*
X1105004D01*
Y832249D01*
X1107503Y829750D01*
X1115001Y839747D02*
X1117500D01*
Y837248D01*
X1115001D01*
Y839747D01*
Y832249D02*
X1117500D01*
Y829750D01*
X1115001D01*
Y832249D01*
D19*
X1195756Y610000D02*
Y616665D01*
Y613332D01*
X1215750D01*
Y610000D01*
Y616665D01*
Y626661D02*
X1195756D01*
X1215750Y639990D01*
X1195756D01*
X1215750Y646655D02*
X1202421Y659984D01*
X1195756Y676645D02*
Y669981D01*
X1199089Y666648D01*
X1212418D01*
X1215750Y669981D01*
Y676645D01*
X1212418Y679977D01*
X1199089D01*
X1195756Y676645D01*
Y686642D02*
X1212418D01*
X1215750Y689974D01*
Y696639D01*
X1212418Y699971D01*
X1195756D01*
Y706636D02*
Y719965D01*
Y713300D01*
X1215750D01*
D20*
X550533Y515676D02*
X557197Y505680D01*
Y515676D02*
X550533Y505680D01*
X560530D02*
Y515676D01*
X565528D01*
X567194Y514010D01*
Y510678D01*
X565528Y509012D01*
X560530D01*
X577191Y505680D02*
X570527D01*
X577191Y512344D01*
Y514010D01*
X575525Y515676D01*
X572193D01*
X570527Y514010D01*
X1282695Y964843D02*
X1289359Y954846D01*
Y964843D02*
X1282695Y954846D01*
X1292692D02*
Y964843D01*
X1297690D01*
X1299356Y963177D01*
Y959844D01*
X1297690Y958178D01*
X1292692D01*
X1302688Y954846D02*
X1306021D01*
X1304355D01*
Y964843D01*
X1302688Y963177D01*
X727131Y558504D02*
X717134D01*
Y563503D01*
X718801Y565169D01*
X722133D01*
X723799Y563503D01*
Y558504D01*
Y561836D02*
X727131Y565169D01*
Y568501D02*
Y571833D01*
Y570167D01*
X717134D01*
X718801Y568501D01*
X717134Y576832D02*
Y583496D01*
X718801D01*
X725465Y576832D01*
X727131D01*
X769532Y557504D02*
X759536D01*
Y562503D01*
X761202Y564169D01*
X764534D01*
X766200Y562503D01*
Y557504D01*
Y560836D02*
X769532Y564169D01*
Y567501D02*
Y570833D01*
Y569167D01*
X759536D01*
X761202Y567501D01*
X759536Y582496D02*
X761202Y579164D01*
X764534Y575831D01*
X767866D01*
X769532Y577498D01*
Y580830D01*
X767866Y582496D01*
X766200D01*
X764534Y580830D01*
Y575831D01*
X813498Y557504D02*
X803502D01*
Y562503D01*
X805168Y564169D01*
X808500D01*
X810166Y562503D01*
Y557504D01*
Y560836D02*
X813498Y564169D01*
Y567501D02*
Y570833D01*
Y569167D01*
X803502D01*
X805168Y567501D01*
X803502Y582496D02*
Y575831D01*
X808500D01*
X806834Y579164D01*
Y580830D01*
X808500Y582496D01*
X811832D01*
X813498Y580830D01*
Y577498D01*
X811832Y575831D01*
X873669Y641002D02*
Y650998D01*
X878668D01*
X880334Y649332D01*
Y646000D01*
X878668Y644334D01*
X873669D01*
X877002D02*
X880334Y641002D01*
X883666Y649332D02*
X885332Y650998D01*
X888664D01*
X890331Y649332D01*
Y647666D01*
X888664Y646000D01*
X890331Y644334D01*
Y642668D01*
X888664Y641002D01*
X885332D01*
X883666Y642668D01*
Y644334D01*
X885332Y646000D01*
X883666Y647666D01*
Y649332D01*
X885332Y646000D02*
X888664D01*
X876339Y579998D02*
Y570002D01*
X883003D01*
X893000Y579998D02*
X886336D01*
Y570002D01*
X893000D01*
X886336Y575000D02*
X889668D01*
X896332Y579998D02*
Y570002D01*
X901331D01*
X902997Y571668D01*
Y578332D01*
X901331Y579998D01*
X896332D01*
X906329Y570002D02*
X909661D01*
X907995D01*
Y579998D01*
X906329Y578332D01*
X711419Y899748D02*
Y889752D01*
X718084D01*
X728081D02*
X721416D01*
X728081Y896416D01*
Y898082D01*
X726414Y899748D01*
X723082D01*
X721416Y898082D01*
X954836Y746998D02*
Y737002D01*
X961500D01*
X964832D02*
X968165D01*
X966498D01*
Y746998D01*
X964832Y745332D01*
X718135Y524539D02*
Y521207D01*
Y522873D01*
X726465D01*
X728131Y521207D01*
Y519541D01*
X726465Y517875D01*
X718135Y527872D02*
Y534536D01*
X719801D01*
X726465Y527872D01*
X728131D01*
X760536Y523540D02*
Y520207D01*
Y521873D01*
X768867D01*
X770533Y520207D01*
Y518541D01*
X768867Y516875D01*
X760536Y533536D02*
X762202Y530204D01*
X765534Y526872D01*
X768867D01*
X770533Y528538D01*
Y531870D01*
X768867Y533536D01*
X767200D01*
X765534Y531870D01*
Y526872D01*
X804679Y523539D02*
Y520207D01*
Y521873D01*
X813009D01*
X814676Y520207D01*
Y518541D01*
X813009Y516875D01*
X804679Y533536D02*
Y526872D01*
X809677D01*
X808011Y530204D01*
Y531870D01*
X809677Y533536D01*
X813009D01*
X814676Y531870D01*
Y528538D01*
X813009Y526872D01*
X783334Y646998D02*
X780002D01*
X781668D01*
Y638668D01*
X780002Y637002D01*
X778335D01*
X776669Y638668D01*
X791665Y637002D02*
Y646998D01*
X786666Y642000D01*
X793331D01*
X783334Y665998D02*
X780002D01*
X781668D01*
Y657668D01*
X780002Y656002D01*
X778335D01*
X776669Y657668D01*
X786666Y664332D02*
X788332Y665998D01*
X791665D01*
X793331Y664332D01*
Y662666D01*
X791665Y661000D01*
X789998D01*
X791665D01*
X793331Y659334D01*
Y657668D01*
X791665Y656002D01*
X788332D01*
X786666Y657668D01*
X1154834Y799962D02*
X1151502D01*
X1153168D01*
Y791631D01*
X1151502Y789965D01*
X1149836D01*
X1148169Y791631D01*
X1164831Y789965D02*
X1158166D01*
X1164831Y796630D01*
Y798296D01*
X1163165Y799962D01*
X1159832D01*
X1158166Y798296D01*
X1156250Y819748D02*
X1152918D01*
X1154584D01*
Y811418D01*
X1152918Y809752D01*
X1151252D01*
X1149585Y811418D01*
X1159582Y809752D02*
X1162915D01*
X1161248D01*
Y819748D01*
X1159582Y818082D01*
X1012337Y700248D02*
Y690252D01*
X1017336D01*
X1019002Y691918D01*
Y698582D01*
X1017336Y700248D01*
X1012337D01*
X1022334D02*
Y690252D01*
X1027332D01*
X1028998Y691918D01*
Y698582D01*
X1027332Y700248D01*
X1022334D01*
X1032331Y690252D02*
X1035663D01*
X1033997D01*
Y700248D01*
X1032331Y698582D01*
X848337Y951998D02*
Y942002D01*
X853335D01*
X855002Y943668D01*
Y950332D01*
X853335Y951998D01*
X848337D01*
X858334Y942002D02*
Y948666D01*
X861666Y951998D01*
X864998Y948666D01*
Y942002D01*
Y947000D01*
X858334D01*
X868331Y942002D02*
X871663D01*
X869997D01*
Y951998D01*
X868331Y950332D01*
X1146169Y678332D02*
X1144502Y679998D01*
X1141170D01*
X1139504Y678332D01*
Y671668D01*
X1141170Y670002D01*
X1144502D01*
X1146169Y671668D01*
X1149501Y670002D02*
X1152833D01*
X1151167D01*
Y679998D01*
X1149501Y678332D01*
X1157831D02*
X1159498Y679998D01*
X1162830D01*
X1164496Y678332D01*
Y671668D01*
X1162830Y670002D01*
X1159498D01*
X1157831Y671668D01*
Y678332D01*
X1146334Y700332D02*
X1144668Y701998D01*
X1141336D01*
X1139669Y700332D01*
Y693668D01*
X1141336Y692002D01*
X1144668D01*
X1146334Y693668D01*
X1149666D02*
X1151332Y692002D01*
X1154665D01*
X1156331Y693668D01*
Y700332D01*
X1154665Y701998D01*
X1151332D01*
X1149666Y700332D01*
Y698666D01*
X1151332Y697000D01*
X1156331D01*
X1120834Y958332D02*
X1119168Y959998D01*
X1115835D01*
X1114169Y958332D01*
Y951668D01*
X1115835Y950002D01*
X1119168D01*
X1120834Y951668D01*
X1129165Y950002D02*
Y959998D01*
X1124166Y955000D01*
X1130831D01*
X957716Y817428D02*
X955359D01*
X953003Y815072D01*
Y812716D01*
X957716Y808003D01*
X960072D01*
X962428Y810359D01*
Y812716D01*
X960072Y819784D02*
Y822141D01*
X962428Y824497D01*
X964784Y824497D01*
X965963Y823319D01*
Y820963D01*
X964784Y819784D01*
X965963Y820963D01*
X968319Y820963D01*
X969497Y819784D01*
Y817428D01*
X967141Y815072D01*
X964784D01*
X817334Y964332D02*
X815668Y965998D01*
X812336D01*
X810669Y964332D01*
Y957668D01*
X812336Y956002D01*
X815668D01*
X817334Y957668D01*
X827331Y956002D02*
X820666D01*
X827331Y962666D01*
Y964332D01*
X825665Y965998D01*
X822332D01*
X820666Y964332D01*
X734500Y960332D02*
X732834Y961998D01*
X729502D01*
X727835Y960332D01*
Y953668D01*
X729502Y952002D01*
X732834D01*
X734500Y953668D01*
X737832Y952002D02*
X741164D01*
X739498D01*
Y961998D01*
X737832Y960332D01*
M02*
