G04*
G04 #@! TF.GenerationSoftware,Altium Limited,Altium Designer,21.7.2 (23)*
G04*
G04 Layer_Color=8388736*
%FSLAX44Y44*%
%MOMM*%
G71*
G04*
G04 #@! TF.SameCoordinates,E4638E92-537D-4F49-80B5-2F4EAB31F582*
G04*
G04*
G04 #@! TF.FilePolarity,Negative*
G04*
G01*
G75*
%ADD21R,3.2032X2.8032*%
%ADD22R,1.2032X1.4532*%
%ADD23R,1.4532X1.2032*%
%ADD24R,1.2032X0.7032*%
%ADD25O,2.4032X0.9032*%
%ADD26R,0.7032X1.2032*%
%ADD27R,4.2032X7.2032*%
G04:AMPARAMS|DCode=28|XSize=1.4532mm|YSize=1.2032mm|CornerRadius=0mm|HoleSize=0mm|Usage=FLASHONLY|Rotation=45.000|XOffset=0mm|YOffset=0mm|HoleType=Round|Shape=Rectangle|*
%AMROTATEDRECTD28*
4,1,4,-0.0884,-0.9392,-0.9392,-0.0884,0.0884,0.9392,0.9392,0.0884,-0.0884,-0.9392,0.0*
%
%ADD28ROTATEDRECTD28*%

%ADD29R,3.0532X1.4032*%
%ADD30R,8.7032X10.7032*%
%ADD31C,2.0032*%
%ADD32P,2.1683X8X292.5*%
%ADD33C,1.6032*%
%ADD34P,1.7353X8X112.5*%
%ADD35P,2.1683X8X202.5*%
%ADD36C,2.6032*%
%ADD37R,2.6032X2.6032*%
%ADD38C,0.2032*%
%ADD39C,1.2032*%
D21*
X671500Y833000D02*
D03*
Y802000D02*
D03*
X771000Y802000D02*
D03*
Y833000D02*
D03*
D22*
X1123000Y675957D02*
D03*
X1103000D02*
D03*
X1123000Y697000D02*
D03*
X1103000D02*
D03*
D23*
X740133Y560000D02*
D03*
Y580000D02*
D03*
X826500Y580000D02*
D03*
Y560000D02*
D03*
X782534Y580000D02*
D03*
Y560000D02*
D03*
X820000Y922500D02*
D03*
Y942500D02*
D03*
X882000Y629000D02*
D03*
Y609000D02*
D03*
D24*
X740133Y522000D02*
D03*
Y529000D02*
D03*
X782534D02*
D03*
Y522000D02*
D03*
X826500Y529000D02*
D03*
Y522000D02*
D03*
D25*
X1074500Y573450D02*
D03*
Y586150D02*
D03*
Y598850D02*
D03*
Y611550D02*
D03*
Y624250D02*
D03*
Y636950D02*
D03*
Y649650D02*
D03*
Y662350D02*
D03*
Y675050D02*
D03*
X979500Y573450D02*
D03*
Y586150D02*
D03*
Y598850D02*
D03*
Y611550D02*
D03*
Y624250D02*
D03*
Y636950D02*
D03*
Y649650D02*
D03*
Y662350D02*
D03*
Y675050D02*
D03*
D26*
X1132000Y794000D02*
D03*
X1139000D02*
D03*
X1132000Y814000D02*
D03*
X1139000D02*
D03*
X758500Y660162D02*
D03*
X765500D02*
D03*
X758500Y641619D02*
D03*
X765500D02*
D03*
D27*
X821500Y759887D02*
D03*
X921500D02*
D03*
D28*
X989071Y790929D02*
D03*
X974929Y805071D02*
D03*
D29*
X855000Y884200D02*
D03*
Y918400D02*
D03*
Y901300D02*
D03*
Y867100D02*
D03*
Y850000D02*
D03*
D30*
X963720Y884200D02*
D03*
D31*
X1065000Y887500D02*
D03*
X880000Y551000D02*
D03*
D32*
X1065000Y937500D02*
D03*
D33*
X772500Y937500D02*
D03*
D34*
Y912500D02*
D03*
D35*
X905400Y551000D02*
D03*
D36*
X1283000Y927500D02*
D03*
Y892500D02*
D03*
Y857500D02*
D03*
Y822500D02*
D03*
Y787500D02*
D03*
Y752500D02*
D03*
Y577500D02*
D03*
Y612500D02*
D03*
Y647500D02*
D03*
Y717500D02*
D03*
Y682500D02*
D03*
X577000Y542500D02*
D03*
Y577500D02*
D03*
Y612500D02*
D03*
Y647500D02*
D03*
Y682500D02*
D03*
Y717500D02*
D03*
Y892500D02*
D03*
Y857500D02*
D03*
Y822500D02*
D03*
Y752500D02*
D03*
Y787500D02*
D03*
D37*
X1283000Y542500D02*
D03*
X577000Y927500D02*
D03*
D38*
X680000Y550000D02*
D03*
X1180000Y920000D02*
D03*
Y550000D02*
D03*
X680000Y920000D02*
D03*
D39*
X932500Y925000D02*
D03*
X972500D02*
D03*
X992500D02*
D03*
X952500D02*
D03*
X826000Y551000D02*
D03*
X783000D02*
D03*
X952500Y905000D02*
D03*
X992500Y845000D02*
D03*
X972500Y865000D02*
D03*
X952500Y845000D02*
D03*
X972500Y905000D02*
D03*
X932500Y865000D02*
D03*
Y885000D02*
D03*
X952500Y865000D02*
D03*
X932500Y905000D02*
D03*
X992500Y885000D02*
D03*
X972500D02*
D03*
X932500Y845000D02*
D03*
X972500D02*
D03*
X992500Y905000D02*
D03*
Y865000D02*
D03*
X952500Y885000D02*
D03*
M02*
