G04*
G04 #@! TF.GenerationSoftware,Altium Limited,Altium Designer,21.7.2 (23)*
G04*
G04 Layer_Physical_Order=2*
G04 Layer_Color=16711680*
%FSLAX44Y44*%
%MOMM*%
G71*
G04*
G04 #@! TF.SameCoordinates,E4638E92-537D-4F49-80B5-2F4EAB31F582*
G04*
G04*
G04 #@! TF.FilePolarity,Positive*
G04*
G01*
G75*
%ADD18C,0.3000*%
%ADD41R,1.0000X1.2500*%
%ADD42R,1.2500X1.0000*%
%ADD50C,2.0000*%
%ADD51C,1.0000*%
%ADD52C,0.6000*%
%ADD53C,1.2000*%
%ADD56C,1.8000*%
%ADD57P,1.9483X8X292.5*%
%ADD58C,1.4000*%
%ADD59P,1.5154X8X112.5*%
%ADD60P,1.9483X8X202.5*%
%ADD61C,2.4000*%
%ADD62R,2.4000X2.4000*%
%ADD63C,1.0000*%
%ADD64R,0.5000X0.8500*%
%ADD65R,1.4500X0.4500*%
%ADD66R,1.1000X0.6000*%
%ADD67R,2.5000X1.7000*%
%ADD68R,1.7000X2.5000*%
%ADD69R,1.6000X1.0000*%
%ADD70R,2.4000X3.3000*%
%ADD71R,7.6000X2.4000*%
G36*
X1310000Y970000D02*
X1310000Y970000D01*
X1310001D01*
X1312767Y969841D01*
X1315834Y969231D01*
X1319474Y967724D01*
X1322749Y965535D01*
X1325535Y962749D01*
X1327724Y959473D01*
X1329231Y955834D01*
X1330000Y951970D01*
Y950000D01*
X1330000Y520000D01*
X1330000Y520000D01*
X1330000Y518030D01*
X1329231Y514166D01*
X1327724Y510526D01*
X1325535Y507251D01*
X1322749Y504465D01*
X1319474Y502276D01*
X1315834Y500769D01*
X1311970Y500000D01*
X1000000D01*
X980000Y520000D01*
X880000D01*
X860000Y500000D01*
X550000Y500000D01*
Y500000D01*
X548030D01*
X544166Y500769D01*
X540527Y502276D01*
X537251Y504465D01*
X534465Y507251D01*
X532276Y510526D01*
X530769Y514166D01*
X530000Y518030D01*
Y520000D01*
X530000Y950000D01*
X530000D01*
Y951970D01*
X530769Y955834D01*
X532276Y959473D01*
X534465Y962749D01*
X537251Y965535D01*
X540527Y967724D01*
X544166Y969231D01*
X548030Y970000D01*
X550000D01*
X860000Y970000D01*
X880000Y950000D01*
X898628D01*
X898924Y947000D01*
X897174Y946652D01*
X895189Y945326D01*
X893863Y944000D01*
X892947D01*
X890912Y943455D01*
X889088Y942402D01*
X887598Y940912D01*
X886545Y939088D01*
X886000Y937053D01*
Y934947D01*
X886545Y932912D01*
X887598Y931088D01*
X889088Y929598D01*
X890912Y928545D01*
X892947Y928000D01*
X895053D01*
X897088Y928545D01*
X898912Y929598D01*
X900402Y931088D01*
X901455Y932912D01*
X901959Y934792D01*
X902049Y934883D01*
X1008466D01*
X1030924Y912424D01*
X1032909Y911098D01*
X1035250Y910632D01*
X1094250D01*
Y908250D01*
X1113750D01*
Y910632D01*
X1118466D01*
X1125882Y903216D01*
Y895196D01*
X1125598Y894912D01*
X1124545Y893088D01*
X1124000Y891053D01*
Y888947D01*
X1124545Y886912D01*
X1125598Y885088D01*
X1127088Y883598D01*
X1128912Y882545D01*
X1130947Y882000D01*
X1133053D01*
X1135088Y882545D01*
X1136912Y883598D01*
X1138402Y885088D01*
X1139455Y886912D01*
X1140000Y888947D01*
Y891053D01*
X1139455Y893088D01*
X1138402Y894912D01*
X1138118Y895196D01*
Y905750D01*
X1137652Y908091D01*
X1136326Y910076D01*
X1125326Y921076D01*
X1123341Y922402D01*
X1121000Y922868D01*
X1113750D01*
Y925250D01*
X1094250D01*
Y922868D01*
X1075610D01*
X1074367Y925867D01*
X1079000Y930500D01*
Y944500D01*
X1072000Y951500D01*
X1058000D01*
X1051000Y944500D01*
Y930500D01*
X1055633Y925867D01*
X1054390Y922868D01*
X1037784D01*
X1015326Y945326D01*
X1013341Y946652D01*
X1011000Y947117D01*
X980284D01*
X980117Y950117D01*
X1000000Y970000D01*
X1310000D01*
X1310000Y970000D01*
D02*
G37*
%LPC*%
G36*
X729000Y965118D02*
X659000D01*
X656659Y964652D01*
X654674Y963326D01*
X648348Y957000D01*
X647947D01*
X645912Y956455D01*
X644088Y955402D01*
X642598Y953912D01*
X641545Y952088D01*
X641000Y950053D01*
Y947947D01*
X641258Y946982D01*
X638587Y945361D01*
X631067Y952255D01*
X630613Y952531D01*
X630171Y952826D01*
X630104Y952839D01*
X630047Y952874D01*
X629521Y952955D01*
X629000Y953059D01*
X601000D01*
X600479Y952955D01*
X599953Y952874D01*
X599896Y952839D01*
X599829Y952826D01*
X599387Y952531D01*
X598933Y952255D01*
X590473Y944500D01*
X560000D01*
Y910500D01*
X563888D01*
Y903429D01*
X563795Y903337D01*
X561935Y900553D01*
X560653Y897459D01*
X560000Y894174D01*
Y890826D01*
X560653Y887541D01*
X561935Y884447D01*
X563795Y881663D01*
X566163Y879295D01*
X568947Y877435D01*
X572041Y876153D01*
X575326Y875500D01*
X578674D01*
X581959Y876153D01*
X585052Y877435D01*
X587837Y879295D01*
X590205Y881663D01*
X591941Y884262D01*
X592254Y884308D01*
X594941Y882954D01*
Y882000D01*
X594941Y882000D01*
X595174Y880829D01*
X595837Y879837D01*
X595837Y879837D01*
X598837Y876837D01*
X599829Y876174D01*
X601000Y875941D01*
X601000Y875941D01*
X610000D01*
X610000Y875941D01*
X610237Y875988D01*
X611000Y875888D01*
X647569D01*
X650522Y872934D01*
X649146Y870068D01*
X648093D01*
X646058Y869523D01*
X644234Y868470D01*
X643916Y868152D01*
X640500D01*
Y871750D01*
X623500D01*
Y852250D01*
X640500D01*
Y855917D01*
X643984D01*
X644234Y855667D01*
X646058Y854613D01*
X648093Y854068D01*
X650200D01*
X652234Y854613D01*
X654058Y855667D01*
X655548Y857156D01*
X656601Y858980D01*
X657146Y861015D01*
Y863121D01*
X656673Y864888D01*
X657441Y866068D01*
X657785Y866442D01*
X658824Y867306D01*
X662000Y866888D01*
X662000Y866888D01*
X701000D01*
X701000Y866888D01*
X704394Y867335D01*
X707556Y868644D01*
X710272Y870728D01*
X718431Y878888D01*
X752000D01*
X752000Y878888D01*
X755394Y879335D01*
X758556Y880645D01*
X761272Y882728D01*
X781772Y903228D01*
X783564Y905564D01*
X783681Y905681D01*
X786681Y904523D01*
Y833250D01*
X786956Y831162D01*
X787762Y829215D01*
X789044Y827544D01*
X805294Y811294D01*
X806965Y810012D01*
X808912Y809206D01*
X811000Y808931D01*
X848750D01*
X865431Y792250D01*
Y727750D01*
X860189Y722509D01*
X859794Y722206D01*
X855658Y718069D01*
X849750D01*
Y718500D01*
X830250D01*
Y716117D01*
X807788D01*
X807616Y716558D01*
X807289Y719118D01*
X808244Y719756D01*
X813901Y725412D01*
X830250D01*
Y721500D01*
X849750D01*
Y738500D01*
X830250D01*
Y734588D01*
X812000D01*
X810244Y734239D01*
X808756Y733244D01*
X803750Y728239D01*
X800750Y729158D01*
Y735250D01*
X779250D01*
Y735250D01*
X776596Y736084D01*
X775088Y736955D01*
X773053Y737500D01*
X770947D01*
X769588Y737136D01*
X767609Y738145D01*
X766588Y739077D01*
Y743250D01*
X767500D01*
Y762750D01*
X750500D01*
Y743250D01*
X757412D01*
Y736618D01*
X755790Y734290D01*
X754412Y734290D01*
X747270D01*
Y729500D01*
X744730D01*
Y734290D01*
X736210D01*
X735582Y737030D01*
X735239Y738756D01*
X734244Y740244D01*
X733279Y741210D01*
X734521Y744210D01*
X737730D01*
Y751730D01*
X731460D01*
Y747271D01*
X728460Y746029D01*
X721758Y752730D01*
Y766250D01*
X725500D01*
Y785750D01*
X708500D01*
Y766250D01*
X712582D01*
Y750830D01*
X712931Y749074D01*
X713926Y747586D01*
X721240Y740272D01*
X720092Y737500D01*
X708670D01*
Y720500D01*
X709975D01*
X710140Y720274D01*
X708751Y717653D01*
X708576Y717511D01*
X705811Y717840D01*
X703617Y720034D01*
Y819966D01*
X709500Y825848D01*
X712500Y824606D01*
Y817250D01*
X736500D01*
Y819422D01*
X740658D01*
X744052Y819869D01*
X747214Y821179D01*
X749930Y823263D01*
X750460Y823954D01*
X753460Y822935D01*
Y818210D01*
X763230D01*
Y833250D01*
Y848290D01*
X753460D01*
Y842133D01*
X750460Y841115D01*
X749930Y841806D01*
X747214Y843890D01*
X744052Y845200D01*
X740658Y845647D01*
X736500D01*
Y849250D01*
X712500D01*
Y839368D01*
X708250D01*
X705909Y838902D01*
X703924Y837576D01*
X693174Y826826D01*
X691848Y824841D01*
X691383Y822500D01*
Y717500D01*
X691848Y715159D01*
X693174Y713174D01*
X701674Y704674D01*
X703659Y703348D01*
X706000Y702882D01*
X708670D01*
Y700500D01*
X722430D01*
X723750Y698047D01*
X723750Y697500D01*
Y681047D01*
X743250D01*
Y683429D01*
X753500D01*
Y681047D01*
X773000D01*
Y681776D01*
X776000Y683177D01*
X776662Y682795D01*
X778697Y682250D01*
X780803D01*
X782838Y682795D01*
X784662Y683848D01*
X786152Y685338D01*
X787205Y687162D01*
X787750Y689197D01*
Y691303D01*
X787205Y693338D01*
X786152Y695162D01*
X784662Y696652D01*
X782838Y697705D01*
X780803Y698250D01*
X778697D01*
X776662Y697705D01*
X776000Y697323D01*
X773000Y698047D01*
Y698047D01*
X753500D01*
Y695665D01*
X743250D01*
Y698047D01*
X729555D01*
X728170Y700500D01*
X729703Y703412D01*
X732000D01*
X733756Y703761D01*
X735250Y704250D01*
X735250Y704250D01*
Y704250D01*
X735250Y704250D01*
X756750D01*
Y714519D01*
X759750Y715761D01*
X762256Y713256D01*
X763744Y712261D01*
X765500Y711912D01*
X779250D01*
Y704250D01*
X800750D01*
Y704250D01*
X800828Y704314D01*
X803000Y703882D01*
X830250D01*
Y701500D01*
X849750D01*
Y701931D01*
X859000D01*
X861088Y702206D01*
X863035Y703012D01*
X864706Y704294D01*
X870903Y710491D01*
X871298Y710794D01*
X879206Y718702D01*
X880488Y720374D01*
X881294Y722320D01*
X881569Y724408D01*
Y795592D01*
X881294Y797680D01*
X880488Y799626D01*
X879206Y801298D01*
X857797Y822706D01*
X856126Y823988D01*
X854180Y824794D01*
X852092Y825069D01*
X814342D01*
X802819Y836592D01*
Y906600D01*
X804000Y907479D01*
X807000Y905972D01*
Y870000D01*
X838000D01*
Y910000D01*
X809211Y910000D01*
X809016D01*
D01*
X808904Y910000D01*
X808750Y910371D01*
X807796Y912675D01*
X809650Y914931D01*
X820250D01*
X820774Y915000D01*
X821303D01*
X821814Y915137D01*
X822338Y915206D01*
X822827Y915408D01*
X823338Y915545D01*
X823796Y915810D01*
X824285Y916012D01*
X824704Y916334D01*
X825162Y916598D01*
X825536Y916972D01*
X825956Y917294D01*
X826278Y917714D01*
X826652Y918088D01*
X826916Y918546D01*
X827238Y918966D01*
X827440Y919454D01*
X827705Y919912D01*
X827842Y920423D01*
X828044Y920912D01*
X828113Y921436D01*
X828250Y921947D01*
Y922476D01*
X828319Y923000D01*
X828250Y923524D01*
Y924053D01*
X828113Y924564D01*
X828044Y925088D01*
X827842Y925577D01*
X827705Y926088D01*
X827440Y926546D01*
X827238Y927035D01*
X826916Y927454D01*
X826652Y927912D01*
X826278Y928286D01*
X825956Y928706D01*
X825536Y929028D01*
X825162Y929402D01*
X824704Y929666D01*
X824285Y929988D01*
X823796Y930190D01*
X823338Y930455D01*
X822827Y930592D01*
X822338Y930794D01*
X821814Y930863D01*
X821303Y931000D01*
X820774D01*
X820250Y931069D01*
X806250D01*
X804162Y930794D01*
X802215Y929988D01*
X800544Y928706D01*
X789044Y917206D01*
X785585Y917131D01*
X784500Y918090D01*
Y918500D01*
X783564Y919436D01*
X781772Y921772D01*
X779436Y923564D01*
X778500Y924500D01*
X777500D01*
X775894Y925165D01*
X772500Y925612D01*
X769106Y925165D01*
X767500Y924500D01*
X766500D01*
X765564Y923564D01*
X763228Y921772D01*
X746569Y905112D01*
X713000D01*
X709606Y904665D01*
X706444Y903355D01*
X703728Y901272D01*
X703728Y901272D01*
X695569Y893112D01*
X667431D01*
X662272Y898272D01*
X659556Y900356D01*
X656394Y901665D01*
X653000Y902112D01*
X653000Y902112D01*
X651006D01*
X649764Y905112D01*
X653326Y908674D01*
X654652Y910659D01*
X655117Y913000D01*
Y943804D01*
X655402Y944088D01*
X656455Y945912D01*
X657000Y947947D01*
Y948348D01*
X661534Y952883D01*
X726466D01*
X729897Y949451D01*
Y944000D01*
X721000D01*
Y920000D01*
X753000D01*
Y944000D01*
X742132D01*
Y951985D01*
X741667Y954326D01*
X740340Y956311D01*
X733326Y963326D01*
X731341Y964652D01*
X729000Y965118D01*
D02*
G37*
G36*
X1113750Y945250D02*
X1094250D01*
Y928250D01*
X1113750D01*
Y945250D01*
D02*
G37*
G36*
X1182118Y941500D02*
X1177882D01*
X1173729Y940674D01*
X1169816Y939053D01*
X1166295Y936700D01*
X1163300Y933705D01*
X1160947Y930184D01*
X1159326Y926271D01*
X1158500Y922118D01*
Y917882D01*
X1159326Y913729D01*
X1160947Y909816D01*
X1163300Y906295D01*
X1166295Y903300D01*
X1169816Y900947D01*
X1173729Y899326D01*
X1177882Y898500D01*
X1182118D01*
X1186271Y899326D01*
X1190184Y900947D01*
X1193705Y903300D01*
X1196700Y906295D01*
X1199053Y909816D01*
X1200674Y913729D01*
X1201500Y917882D01*
Y922118D01*
X1200674Y926271D01*
X1199053Y930184D01*
X1196700Y933705D01*
X1193705Y936700D01*
X1190184Y939053D01*
X1186271Y940674D01*
X1182118Y941500D01*
D02*
G37*
G36*
X682118D02*
X677882D01*
X673729Y940674D01*
X669816Y939053D01*
X666295Y936700D01*
X663300Y933705D01*
X660947Y930184D01*
X659326Y926271D01*
X658500Y922118D01*
Y917882D01*
X659326Y913729D01*
X660947Y909816D01*
X663300Y906295D01*
X666295Y903300D01*
X669816Y900947D01*
X673729Y899326D01*
X677882Y898500D01*
X682118D01*
X686271Y899326D01*
X690184Y900947D01*
X693705Y903300D01*
X696700Y906295D01*
X699053Y909816D01*
X700674Y913729D01*
X701500Y917882D01*
Y922118D01*
X700674Y926271D01*
X699053Y930184D01*
X696700Y933705D01*
X693705Y936700D01*
X690184Y939053D01*
X686271Y940674D01*
X682118Y941500D01*
D02*
G37*
G36*
X903040Y909040D02*
X889770D01*
Y891270D01*
X903040D01*
Y909040D01*
D02*
G37*
G36*
X887230D02*
X873960D01*
Y891270D01*
X887230D01*
Y909040D01*
D02*
G37*
G36*
X1284674Y944500D02*
X1281326D01*
X1278041Y943847D01*
X1274948Y942565D01*
X1272163Y940705D01*
X1269795Y938337D01*
X1267935Y935553D01*
X1266653Y932459D01*
X1266000Y929174D01*
Y925826D01*
X1266653Y922541D01*
X1267935Y919447D01*
X1269795Y916663D01*
X1272163Y914295D01*
X1274948Y912435D01*
X1276919Y911618D01*
Y908382D01*
X1274948Y907565D01*
X1272163Y905705D01*
X1269795Y903337D01*
X1267935Y900553D01*
X1266653Y897459D01*
X1266000Y894174D01*
Y890826D01*
X1266653Y887541D01*
X1267935Y884447D01*
X1269795Y881663D01*
X1272163Y879295D01*
X1274948Y877435D01*
X1278041Y876153D01*
X1281326Y875500D01*
X1284674D01*
X1287959Y876153D01*
X1291053Y877435D01*
X1293837Y879295D01*
X1296205Y881663D01*
X1298065Y884447D01*
X1299347Y887541D01*
X1300000Y890826D01*
Y894174D01*
X1299347Y897459D01*
X1298065Y900553D01*
X1296205Y903337D01*
X1293837Y905705D01*
X1291053Y907565D01*
X1289081Y908382D01*
Y911618D01*
X1291053Y912435D01*
X1293837Y914295D01*
X1296205Y916663D01*
X1298065Y919447D01*
X1299347Y922541D01*
X1300000Y925826D01*
Y929174D01*
X1299347Y932459D01*
X1298065Y935553D01*
X1296205Y938337D01*
X1293837Y940705D01*
X1291053Y942565D01*
X1287959Y943847D01*
X1284674Y944500D01*
D02*
G37*
G36*
X903040Y888730D02*
X889770D01*
Y870960D01*
X903040D01*
Y888730D01*
D02*
G37*
G36*
X887230D02*
X873960D01*
Y870960D01*
X887230D01*
Y888730D01*
D02*
G37*
G36*
X1135540Y873790D02*
X1129270D01*
Y866270D01*
X1135540D01*
Y873790D01*
D02*
G37*
G36*
X1126730D02*
X1120460D01*
Y866270D01*
X1126730D01*
Y873790D01*
D02*
G37*
G36*
X619540Y870790D02*
X613270D01*
Y863270D01*
X619540D01*
Y870790D01*
D02*
G37*
G36*
X610730D02*
X604460D01*
Y863270D01*
X610730D01*
Y870790D01*
D02*
G37*
G36*
X1156500Y874750D02*
X1139500D01*
Y855250D01*
X1156500D01*
Y859382D01*
X1171462D01*
X1172912Y858545D01*
X1174947Y858000D01*
X1177053D01*
X1179088Y858545D01*
X1180912Y859598D01*
X1182402Y861088D01*
X1183455Y862912D01*
X1184000Y864947D01*
Y867053D01*
X1183455Y869088D01*
X1182402Y870912D01*
X1180912Y872402D01*
X1179088Y873455D01*
X1177053Y874000D01*
X1174947D01*
X1172912Y873455D01*
X1171088Y872402D01*
X1170304Y871618D01*
X1156500D01*
Y874750D01*
D02*
G37*
G36*
X1135540Y863730D02*
X1129270D01*
Y856210D01*
X1135540D01*
Y863730D01*
D02*
G37*
G36*
X1126730D02*
X1120460D01*
Y856210D01*
X1126730D01*
Y863730D01*
D02*
G37*
G36*
X619540Y860730D02*
X613270D01*
Y853210D01*
X619540D01*
Y860730D01*
D02*
G37*
G36*
X610730D02*
X604460D01*
Y853210D01*
X610730D01*
Y860730D01*
D02*
G37*
G36*
X1135540Y851167D02*
X1129270D01*
Y843646D01*
X1135540D01*
Y851167D01*
D02*
G37*
G36*
X1126730D02*
X1120460D01*
Y843646D01*
X1126730D01*
Y851167D01*
D02*
G37*
G36*
X1156500Y852126D02*
X1139500D01*
Y832626D01*
X1156500D01*
Y836759D01*
X1171462D01*
X1172912Y835922D01*
X1174947Y835377D01*
X1177053D01*
X1179088Y835922D01*
X1180912Y836975D01*
X1182402Y838464D01*
X1183455Y840289D01*
X1184000Y842323D01*
Y844430D01*
X1183455Y846464D01*
X1182402Y848289D01*
X1180912Y849778D01*
X1179088Y850831D01*
X1177053Y851376D01*
X1174947D01*
X1172912Y850831D01*
X1171088Y849778D01*
X1170304Y848994D01*
X1156500D01*
Y852126D01*
D02*
G37*
G36*
X775540Y848290D02*
X765770D01*
Y834520D01*
X775540D01*
Y848290D01*
D02*
G37*
G36*
X1135540Y841106D02*
X1129270D01*
Y833587D01*
X1135540D01*
Y841106D01*
D02*
G37*
G36*
X1126730D02*
X1120460D01*
Y833587D01*
X1126730D01*
Y841106D01*
D02*
G37*
G36*
X775540Y831980D02*
X765770D01*
Y818210D01*
X775540D01*
Y831980D01*
D02*
G37*
G36*
X1284674Y804500D02*
X1281326D01*
X1278041Y803847D01*
X1274948Y802565D01*
X1272163Y800705D01*
X1269795Y798337D01*
X1267935Y795553D01*
X1267133Y793617D01*
X1255034D01*
X1249326Y799326D01*
X1247341Y800652D01*
X1245000Y801117D01*
X1225000D01*
X1222659Y800652D01*
X1220674Y799326D01*
X1214917Y793568D01*
X1192148D01*
Y795201D01*
X1180148D01*
Y793193D01*
X1094049D01*
Y795201D01*
X1074549D01*
Y792818D01*
X1070451D01*
X1068110Y792353D01*
X1066125Y791027D01*
X1028174Y753076D01*
X1026848Y751091D01*
X1026383Y748750D01*
Y694696D01*
X1026098Y694412D01*
X1025045Y692588D01*
X1024500Y690553D01*
Y688447D01*
X1025045Y686412D01*
X1026098Y684588D01*
X1027164Y683523D01*
X1027580Y682934D01*
X1027418Y679732D01*
X1027348Y679662D01*
X1026295Y677838D01*
X1025750Y675803D01*
Y673697D01*
X1026295Y671662D01*
X1027348Y669838D01*
X1028838Y668348D01*
X1030662Y667295D01*
X1032697Y666750D01*
X1034803D01*
X1036838Y667295D01*
X1038662Y668348D01*
X1040152Y669838D01*
X1041205Y671662D01*
X1041546Y672936D01*
X1046361Y677751D01*
X1049133Y676603D01*
Y673700D01*
X1033608Y658176D01*
X1032282Y656191D01*
X1031816Y653850D01*
Y642730D01*
X1030848Y641762D01*
X1029795Y639938D01*
X1029250Y637903D01*
Y635797D01*
X1029795Y633762D01*
X1030848Y631938D01*
X1032338Y630448D01*
X1034162Y629395D01*
X1036197Y628850D01*
X1038303D01*
X1040338Y629395D01*
X1042162Y630448D01*
X1043652Y631938D01*
X1043883Y632338D01*
X1046882Y631534D01*
Y628034D01*
X1038348Y619500D01*
X1037947D01*
X1035912Y618955D01*
X1034088Y617902D01*
X1032598Y616412D01*
X1031545Y614588D01*
X1031000Y612553D01*
Y610447D01*
X1031545Y608412D01*
X1032598Y606588D01*
X1034088Y605098D01*
X1035912Y604045D01*
X1036133Y603986D01*
X1036362Y601498D01*
X1036235Y600853D01*
X1034588Y599902D01*
X1033098Y598412D01*
X1032045Y596588D01*
X1031500Y594553D01*
Y592447D01*
X1032045Y590412D01*
X1033098Y588588D01*
X1034588Y587098D01*
X1036412Y586045D01*
X1038447Y585500D01*
X1040553D01*
X1042588Y586045D01*
X1044412Y587098D01*
X1044696Y587383D01*
X1049250D01*
X1051591Y587848D01*
X1053576Y589174D01*
X1067326Y602924D01*
X1068652Y604909D01*
X1069118Y607250D01*
Y637966D01*
X1071549Y640398D01*
X1074549Y640244D01*
Y640244D01*
X1094049D01*
Y643001D01*
X1109318D01*
X1109989Y640194D01*
X1109965Y640001D01*
X1108353Y638765D01*
X1106402Y636813D01*
X1094049D01*
Y637244D01*
X1074549D01*
Y620244D01*
X1094049D01*
Y620675D01*
X1109744D01*
X1110791Y617787D01*
X1110189Y617385D01*
X1106674Y613870D01*
X1105348Y611885D01*
X1104882Y609544D01*
Y596421D01*
X1105348Y594080D01*
X1106674Y592095D01*
X1109533Y589236D01*
Y588835D01*
X1110078Y586800D01*
X1110256Y586493D01*
X1108524Y583493D01*
X1094050D01*
Y585750D01*
X1074549D01*
Y583368D01*
X1050832D01*
X1048491Y582902D01*
X1046507Y581576D01*
X1041931Y577000D01*
X1040447D01*
X1038412Y576455D01*
X1036588Y575402D01*
X1035098Y573912D01*
X1034045Y572088D01*
X1033500Y570053D01*
Y567947D01*
X1034045Y565912D01*
X1035098Y564088D01*
X1036588Y562598D01*
X1038412Y561545D01*
X1040447Y561000D01*
X1042553D01*
X1044588Y561545D01*
X1046412Y562598D01*
X1047902Y564088D01*
X1048955Y565912D01*
X1049251Y567017D01*
X1053366Y571132D01*
X1074549D01*
Y568750D01*
X1094050D01*
Y571257D01*
X1167715D01*
X1168625Y568257D01*
X1166295Y566700D01*
X1163300Y563705D01*
X1160947Y560184D01*
X1159326Y556271D01*
X1158500Y552118D01*
Y547882D01*
X1159326Y543729D01*
X1160947Y539816D01*
X1163300Y536295D01*
X1165477Y534118D01*
X1164321Y531118D01*
X1131140D01*
Y532000D01*
X1119140D01*
Y531118D01*
X1059750D01*
Y533500D01*
X1040250D01*
Y531118D01*
X1027946D01*
X1027412Y531652D01*
X1025588Y532705D01*
X1023553Y533250D01*
X1021447D01*
X1019412Y532705D01*
X1017588Y531652D01*
X1016098Y530162D01*
X1015045Y528338D01*
X1014500Y526303D01*
Y524197D01*
X1015045Y522162D01*
X1016098Y520338D01*
X1017588Y518848D01*
X1019412Y517795D01*
X1021447Y517250D01*
X1023553D01*
X1025588Y517795D01*
X1027412Y518848D01*
X1027446Y518882D01*
X1040250D01*
Y516500D01*
X1059750D01*
Y518882D01*
X1119140D01*
Y516500D01*
X1131140D01*
Y518882D01*
X1235000D01*
X1237341Y519348D01*
X1239326Y520674D01*
X1255034Y536382D01*
X1266000D01*
Y525500D01*
X1300000D01*
Y559500D01*
X1291807D01*
X1291098Y562258D01*
X1291150Y562500D01*
X1293837Y564295D01*
X1296205Y566663D01*
X1298065Y569448D01*
X1299347Y572541D01*
X1300000Y575826D01*
Y579174D01*
X1299347Y582459D01*
X1298065Y585552D01*
X1296205Y588337D01*
X1293837Y590705D01*
X1291053Y592565D01*
X1289081Y593382D01*
Y596618D01*
X1291053Y597435D01*
X1293837Y599295D01*
X1296205Y601663D01*
X1298065Y604448D01*
X1299347Y607541D01*
X1300000Y610826D01*
Y614174D01*
X1299347Y617459D01*
X1298065Y620552D01*
X1296205Y623337D01*
X1293837Y625705D01*
X1291053Y627565D01*
X1289081Y628382D01*
Y631618D01*
X1291053Y632435D01*
X1293837Y634295D01*
X1296205Y636663D01*
X1298065Y639448D01*
X1299347Y642541D01*
X1300000Y645826D01*
Y649174D01*
X1299347Y652459D01*
X1298065Y655553D01*
X1296205Y658337D01*
X1293837Y660705D01*
X1291053Y662565D01*
X1289081Y663382D01*
Y666618D01*
X1291053Y667435D01*
X1293837Y669295D01*
X1296205Y671663D01*
X1298065Y674447D01*
X1299347Y677541D01*
X1300000Y680826D01*
Y684174D01*
X1299347Y687459D01*
X1298065Y690553D01*
X1296205Y693337D01*
X1293837Y695705D01*
X1291053Y697565D01*
X1289081Y698382D01*
Y701618D01*
X1291053Y702435D01*
X1293837Y704295D01*
X1296205Y706663D01*
X1298065Y709447D01*
X1299347Y712541D01*
X1300000Y715826D01*
Y719174D01*
X1299347Y722459D01*
X1298065Y725553D01*
X1296205Y728337D01*
X1293837Y730705D01*
X1291053Y732565D01*
X1289081Y733382D01*
Y736618D01*
X1291053Y737435D01*
X1293837Y739295D01*
X1296205Y741663D01*
X1298065Y744447D01*
X1299347Y747541D01*
X1300000Y750826D01*
Y754174D01*
X1299347Y757459D01*
X1298065Y760553D01*
X1296205Y763337D01*
X1293837Y765705D01*
X1291053Y767565D01*
X1289081Y768382D01*
Y771618D01*
X1291053Y772435D01*
X1293837Y774295D01*
X1296205Y776663D01*
X1298065Y779447D01*
X1299347Y782541D01*
X1300000Y785826D01*
Y789174D01*
X1299347Y792459D01*
X1298065Y795553D01*
X1296205Y798337D01*
X1293837Y800705D01*
X1291053Y802565D01*
X1287959Y803847D01*
X1284674Y804500D01*
D02*
G37*
G36*
X744540Y784790D02*
X738270D01*
Y777270D01*
X744540D01*
Y784790D01*
D02*
G37*
G36*
X735730D02*
X729460D01*
Y777270D01*
X735730D01*
Y784790D01*
D02*
G37*
G36*
X744540Y774730D02*
X738270D01*
Y767210D01*
X744540D01*
Y774730D01*
D02*
G37*
G36*
X735730D02*
X729460D01*
Y767210D01*
X735730D01*
Y774730D01*
D02*
G37*
G36*
X746540Y761790D02*
X740270D01*
Y754270D01*
X746540D01*
Y761790D01*
D02*
G37*
G36*
X737730D02*
X731460D01*
Y754270D01*
X737730D01*
Y761790D01*
D02*
G37*
G36*
X746540Y751730D02*
X740270D01*
Y744210D01*
X746540D01*
Y751730D01*
D02*
G37*
G36*
X1006053Y738000D02*
X1003947D01*
X1001912Y737455D01*
X1000088Y736402D01*
X998598Y734912D01*
X997545Y733088D01*
X997000Y731053D01*
Y728947D01*
X997545Y726912D01*
X998598Y725088D01*
X999641Y724045D01*
X999972Y722603D01*
X999709Y720353D01*
X998853Y719497D01*
X997800Y717673D01*
X997255Y715638D01*
Y713531D01*
X997800Y711497D01*
X998853Y709672D01*
X1000343Y708183D01*
X1002167Y707130D01*
X1004202Y706585D01*
X1006308D01*
X1008343Y707130D01*
X1010167Y708183D01*
X1011656Y709672D01*
X1012710Y711497D01*
X1013255Y713531D01*
Y715638D01*
X1012710Y717673D01*
X1011656Y719497D01*
X1010614Y720539D01*
X1010283Y721981D01*
X1010546Y724232D01*
X1011402Y725088D01*
X1012455Y726912D01*
X1013000Y728947D01*
Y731053D01*
X1012455Y733088D01*
X1011402Y734912D01*
X1009912Y736402D01*
X1008088Y737455D01*
X1006053Y738000D01*
D02*
G37*
G36*
X578674Y804500D02*
X575326D01*
X572041Y803847D01*
X568947Y802565D01*
X566163Y800705D01*
X563795Y798337D01*
X561935Y795553D01*
X560653Y792459D01*
X560000Y789174D01*
Y785826D01*
X560653Y782541D01*
X561935Y779447D01*
X563795Y776663D01*
X566163Y774295D01*
X568947Y772435D01*
X570919Y771618D01*
Y768382D01*
X568947Y767565D01*
X566163Y765705D01*
X563795Y763337D01*
X561935Y760553D01*
X560653Y757459D01*
X560000Y754174D01*
Y750826D01*
X560653Y747541D01*
X561935Y744447D01*
X563795Y741663D01*
X566163Y739295D01*
X568947Y737435D01*
X570919Y736618D01*
Y733382D01*
X568947Y732565D01*
X566163Y730705D01*
X563795Y728337D01*
X561935Y725553D01*
X560653Y722459D01*
X560000Y719174D01*
Y715826D01*
X560653Y712541D01*
X561935Y709447D01*
X563795Y706663D01*
X566163Y704295D01*
X568947Y702435D01*
X570919Y701618D01*
Y698382D01*
X568947Y697565D01*
X566163Y695705D01*
X563795Y693337D01*
X561935Y690553D01*
X560653Y687459D01*
X560000Y684174D01*
Y680826D01*
X560653Y677541D01*
X561935Y674447D01*
X563795Y671663D01*
X566163Y669295D01*
X568947Y667435D01*
X572041Y666153D01*
X575326Y665500D01*
X578674D01*
X581959Y666153D01*
X585052Y667435D01*
X587837Y669295D01*
X590205Y671663D01*
X592065Y674447D01*
X592867Y676383D01*
X609966D01*
X617383Y668966D01*
Y637246D01*
X617500Y636655D01*
Y629496D01*
X629500D01*
Y629769D01*
X632500Y631011D01*
X640256Y623256D01*
X641744Y622261D01*
X643500Y621912D01*
X665710D01*
Y616770D01*
X670750D01*
Y615500D01*
X672020D01*
Y608710D01*
X675790D01*
Y613521D01*
X678562Y614669D01*
X690475Y602756D01*
X691963Y601761D01*
X693719Y601412D01*
X742100D01*
X752521Y590991D01*
X751278Y587991D01*
X734250D01*
Y584079D01*
X707910D01*
X698052Y593937D01*
X696563Y594931D01*
X694808Y595280D01*
X629500D01*
Y598442D01*
X617500D01*
Y596810D01*
X601342D01*
X592545Y605606D01*
X593347Y607541D01*
X594000Y610826D01*
Y614174D01*
X593347Y617459D01*
X592065Y620552D01*
X590205Y623337D01*
X587837Y625705D01*
X585052Y627565D01*
X581959Y628847D01*
X578674Y629500D01*
X575326D01*
X572041Y628847D01*
X568947Y627565D01*
X566163Y625705D01*
X563795Y623337D01*
X561935Y620552D01*
X560653Y617459D01*
X560000Y614174D01*
Y610826D01*
X560653Y607541D01*
X561935Y604448D01*
X563795Y601663D01*
X566163Y599295D01*
X568947Y597435D01*
X570919Y596618D01*
Y593382D01*
X568947Y592565D01*
X566163Y590705D01*
X563795Y588337D01*
X561935Y585552D01*
X560653Y582459D01*
X560000Y579174D01*
Y575826D01*
X560653Y572541D01*
X561935Y569448D01*
X563795Y566663D01*
X566163Y564295D01*
X568947Y562435D01*
X572041Y561153D01*
X575326Y560500D01*
X578674D01*
X581959Y561153D01*
X583894Y561955D01*
X598882Y546966D01*
Y525250D01*
X599348Y522909D01*
X600674Y520924D01*
X606924Y514674D01*
X608909Y513348D01*
X611250Y512882D01*
X617207D01*
Y511612D01*
X629207D01*
Y514412D01*
X734250D01*
Y510500D01*
X753750D01*
Y514412D01*
X847000D01*
X848756Y514761D01*
X850244Y515756D01*
X858901Y524412D01*
X973750D01*
X975506Y524761D01*
X976994Y525756D01*
X993494Y542256D01*
X994489Y543744D01*
X994838Y545500D01*
Y652850D01*
X1002085Y660097D01*
X1002447Y660000D01*
X1004553D01*
X1006588Y660545D01*
X1008412Y661598D01*
X1009902Y663088D01*
X1010955Y664912D01*
X1011500Y666947D01*
Y669053D01*
X1010955Y671088D01*
X1009902Y672912D01*
X1008412Y674402D01*
X1006588Y675455D01*
X1004553Y676000D01*
X1002447D01*
X1000412Y675455D01*
X999286Y674805D01*
X997444Y677205D01*
X999585Y679347D01*
X999947Y679250D01*
X1002053D01*
X1004088Y679795D01*
X1005912Y680848D01*
X1007402Y682338D01*
X1008455Y684162D01*
X1009000Y686197D01*
Y688303D01*
X1008455Y690338D01*
X1007402Y692162D01*
X1005912Y693652D01*
X1004088Y694705D01*
X1002053Y695250D01*
X999947D01*
X997912Y694705D01*
X996088Y693652D01*
X994598Y692162D01*
X993545Y690338D01*
X993000Y688303D01*
Y686197D01*
X993097Y685835D01*
X981006Y673744D01*
X980011Y672256D01*
X979662Y670500D01*
Y557150D01*
X976099Y553588D01*
X932000D01*
X930244Y553239D01*
X928756Y552244D01*
X916099Y539588D01*
X892630D01*
X891518Y541782D01*
X891309Y542588D01*
X893046Y545596D01*
X894000Y549157D01*
Y552843D01*
X893046Y556404D01*
X891887Y558412D01*
X893389Y561412D01*
X931000D01*
X932756Y561761D01*
X934244Y562756D01*
X950244Y578756D01*
X951239Y580244D01*
X951588Y582000D01*
Y608100D01*
X953586Y610097D01*
X953947Y610000D01*
X956053D01*
X958088Y610545D01*
X959912Y611598D01*
X961402Y613088D01*
X962455Y614912D01*
X963000Y616947D01*
Y619053D01*
X962455Y621088D01*
X961402Y622912D01*
X959912Y624402D01*
X958088Y625455D01*
X956053Y626000D01*
X953947D01*
X951912Y625455D01*
X950519Y624650D01*
X948777Y624973D01*
X947134Y625691D01*
X946933Y626444D01*
X950585Y630097D01*
X950947Y630000D01*
X953053D01*
X955088Y630545D01*
X956912Y631598D01*
X958402Y633088D01*
X959455Y634912D01*
X960000Y636947D01*
Y639053D01*
X959455Y641088D01*
X958402Y642912D01*
X957392Y643921D01*
X957328Y646132D01*
X957644Y647443D01*
X957912Y647598D01*
X959402Y649088D01*
X960455Y650912D01*
X961000Y652947D01*
Y655053D01*
X960455Y657088D01*
X959402Y658912D01*
X958451Y659862D01*
X958348Y662199D01*
X958649Y663440D01*
X958663Y663449D01*
X960153Y664938D01*
X961206Y666762D01*
X961751Y668797D01*
Y670903D01*
X961206Y672938D01*
X960153Y674762D01*
X959463Y675452D01*
X959076Y677664D01*
X959529Y679216D01*
X960402Y680088D01*
X961455Y681912D01*
X962000Y683947D01*
Y686053D01*
X961455Y688088D01*
X960402Y689912D01*
X958912Y691402D01*
X957088Y692455D01*
X955053Y693000D01*
X952947D01*
X950912Y692455D01*
X949088Y691402D01*
X947598Y689912D01*
X946545Y688088D01*
X946000Y686053D01*
Y683947D01*
X946097Y683586D01*
X918756Y656244D01*
X917761Y654756D01*
X917412Y653000D01*
Y615650D01*
X907349Y605588D01*
X783901D01*
X760244Y629244D01*
X758756Y630239D01*
X757000Y630588D01*
X711900D01*
X697744Y644744D01*
X696256Y645739D01*
X694500Y646088D01*
X676750D01*
Y649250D01*
X664750D01*
Y647617D01*
X661639D01*
X657117Y652140D01*
Y686000D01*
X656652Y688341D01*
X655326Y690326D01*
X624550Y721102D01*
X622565Y722428D01*
X620224Y722893D01*
X593167D01*
X592065Y725553D01*
X590205Y728337D01*
X587837Y730705D01*
X585052Y732565D01*
X583081Y733382D01*
Y736618D01*
X585052Y737435D01*
X587837Y739295D01*
X590205Y741663D01*
X592065Y744447D01*
X593347Y747541D01*
X594000Y750826D01*
Y754174D01*
X593347Y757459D01*
X592065Y760553D01*
X590205Y763337D01*
X587837Y765705D01*
X585052Y767565D01*
X583081Y768382D01*
Y771618D01*
X585052Y772435D01*
X587837Y774295D01*
X590205Y776663D01*
X592065Y779447D01*
X593347Y782541D01*
X594000Y785826D01*
Y789174D01*
X593347Y792459D01*
X592065Y795553D01*
X590205Y798337D01*
X587837Y800705D01*
X585052Y802565D01*
X581959Y803847D01*
X578674Y804500D01*
D02*
G37*
G36*
X910040Y657790D02*
X902520D01*
Y651520D01*
X910040D01*
Y657790D01*
D02*
G37*
G36*
X899980D02*
X892460D01*
Y651520D01*
X899980D01*
Y657790D01*
D02*
G37*
G36*
X671053Y791856D02*
X667659Y791410D01*
X664497Y790100D01*
X661781Y788016D01*
X661728Y787963D01*
X659644Y785248D01*
X658335Y782085D01*
X657888Y778692D01*
X657888Y778691D01*
Y762000D01*
X658335Y758606D01*
X659644Y755444D01*
X661728Y752728D01*
X662984Y751765D01*
Y708947D01*
X663259Y706859D01*
X664065Y704913D01*
X665347Y703242D01*
X704747Y663841D01*
X706419Y662559D01*
X708365Y661753D01*
X710453Y661478D01*
X723750D01*
Y661047D01*
X743250D01*
Y661478D01*
X753500D01*
Y661047D01*
X773000D01*
Y661478D01*
X786634D01*
Y660934D01*
X809633D01*
Y661365D01*
X814000D01*
Y644022D01*
X809633D01*
Y647934D01*
X786634D01*
Y630934D01*
X809633D01*
Y634846D01*
X818684D01*
X820440Y635195D01*
X821928Y636190D01*
X822147Y636409D01*
X825000Y635019D01*
Y633947D01*
X825545Y631912D01*
X826598Y630088D01*
X828088Y628598D01*
X829129Y627997D01*
Y624282D01*
X829479Y622527D01*
X830473Y621038D01*
X833577Y617935D01*
X835065Y616940D01*
X836821Y616591D01*
X883179D01*
X884935Y616940D01*
X886423Y617935D01*
X890608Y622119D01*
X891500Y621750D01*
Y621750D01*
X911000D01*
Y638750D01*
X891500D01*
Y634689D01*
X890494Y634489D01*
X889006Y633494D01*
X887438Y631927D01*
X884667Y633075D01*
Y638750D01*
X865167D01*
Y634588D01*
X857828D01*
Y636053D01*
X857283Y638088D01*
X856230Y639912D01*
X854740Y641402D01*
X852916Y642455D01*
X852373Y642600D01*
X850630Y643803D01*
X850040Y645685D01*
Y651730D01*
X842500D01*
Y654270D01*
X850040D01*
Y661365D01*
X856508D01*
X857622Y660904D01*
X859971Y660594D01*
X865654D01*
X866127Y657790D01*
X866127Y657594D01*
Y651520D01*
X874917D01*
Y650250D01*
D01*
Y651520D01*
X883707D01*
Y657790D01*
X874010D01*
X873814Y660790D01*
X874678Y660904D01*
X876867Y661811D01*
X878747Y663253D01*
X880190Y665133D01*
X881096Y667322D01*
X881406Y669672D01*
X881096Y672021D01*
X880190Y674211D01*
X878747Y676091D01*
X876867Y677533D01*
X874678Y678440D01*
X872328Y678750D01*
X859971D01*
X857622Y678440D01*
X855432Y677533D01*
X855393Y677503D01*
X809633D01*
Y677934D01*
X786634D01*
Y677616D01*
X773000D01*
Y678047D01*
X753500D01*
Y677616D01*
X743250D01*
Y678047D01*
X723750D01*
Y677616D01*
X713795D01*
X679122Y712290D01*
Y751846D01*
X680272Y752728D01*
X682355Y755444D01*
X683665Y758606D01*
X684112Y762000D01*
Y778344D01*
X684165Y778744D01*
X683718Y782138D01*
X682408Y785300D01*
X680324Y788016D01*
X677609Y790100D01*
X674446Y791410D01*
X671053Y791856D01*
D02*
G37*
G36*
X910040Y648980D02*
X902520D01*
Y642710D01*
X910040D01*
Y648980D01*
D02*
G37*
G36*
X899980D02*
X892460D01*
Y642710D01*
X899980D01*
Y648980D01*
D02*
G37*
G36*
X883707D02*
X876187D01*
Y642710D01*
X883707D01*
Y648980D01*
D02*
G37*
G36*
X873647D02*
X866127D01*
Y642710D01*
X873647D01*
Y648980D01*
D02*
G37*
G36*
X628540Y618036D02*
X624770D01*
Y612516D01*
X628540D01*
Y618036D01*
D02*
G37*
G36*
X622230D02*
X618460D01*
Y612516D01*
X622230D01*
Y618036D01*
D02*
G37*
G36*
X669480Y614230D02*
X665710D01*
Y608710D01*
X669480D01*
Y614230D01*
D02*
G37*
G36*
X628540Y609976D02*
X624770D01*
Y604456D01*
X628540D01*
Y609976D01*
D02*
G37*
G36*
X622230D02*
X618460D01*
Y604456D01*
X622230D01*
Y609976D01*
D02*
G37*
G36*
X1009527Y624299D02*
X1007421D01*
X1005386Y623753D01*
X1003562Y622700D01*
X1002073Y621211D01*
X1001019Y619386D01*
X1000715Y618250D01*
X998750D01*
Y601250D01*
X1018250D01*
Y618250D01*
X1016233D01*
X1015929Y619386D01*
X1014876Y621211D01*
X1013386Y622700D01*
X1011562Y623753D01*
X1009527Y624299D01*
D02*
G37*
G36*
X1018250Y598250D02*
X998750D01*
Y581250D01*
X1000698D01*
X1001002Y580116D01*
X1002055Y578292D01*
X1003545Y576802D01*
X1005369Y575749D01*
X1007404Y575204D01*
X1009510D01*
X1011545Y575749D01*
X1013369Y576802D01*
X1014859Y578292D01*
X1015912Y580116D01*
X1016216Y581250D01*
X1018250D01*
Y598250D01*
D02*
G37*
G36*
X1130180Y557040D02*
X1126410D01*
Y551520D01*
X1130180D01*
Y557040D01*
D02*
G37*
G36*
X1123870D02*
X1120100D01*
Y551520D01*
X1123870D01*
Y557040D01*
D02*
G37*
G36*
X1094050Y565750D02*
X1074549D01*
Y565319D01*
X1073000D01*
X1070912Y565044D01*
X1068966Y564238D01*
X1067294Y562956D01*
X1057839Y553500D01*
X1040250D01*
Y536500D01*
X1059750D01*
Y536931D01*
X1060750D01*
X1062838Y537206D01*
X1064784Y538012D01*
X1066456Y539294D01*
X1075911Y548750D01*
X1094050D01*
Y549181D01*
X1103102D01*
X1103436Y549137D01*
X1103947Y549000D01*
X1104476D01*
X1105000Y548931D01*
X1105524Y549000D01*
X1106053D01*
X1106564Y549137D01*
X1107088Y549206D01*
X1107577Y549408D01*
X1108088Y549545D01*
X1108546Y549810D01*
X1109035Y550012D01*
X1109454Y550334D01*
X1109912Y550598D01*
X1110286Y550972D01*
X1110706Y551294D01*
X1111028Y551714D01*
X1111402Y552088D01*
X1111666Y552546D01*
X1111988Y552966D01*
X1112190Y553454D01*
X1112455Y553912D01*
X1112592Y554423D01*
X1112794Y554912D01*
X1112863Y555436D01*
X1113000Y555947D01*
Y556476D01*
X1113069Y557000D01*
X1113000Y557524D01*
Y558053D01*
X1112863Y558564D01*
X1112794Y559088D01*
X1112592Y559577D01*
X1112455Y560088D01*
X1112190Y560546D01*
X1111988Y561035D01*
X1111666Y561454D01*
X1111402Y561912D01*
X1111028Y562286D01*
X1110706Y562706D01*
X1110456Y562956D01*
X1110036Y563278D01*
X1109912Y563402D01*
X1109760Y563489D01*
X1108784Y564238D01*
X1106839Y565044D01*
X1104750Y565319D01*
X1094050D01*
Y565750D01*
D02*
G37*
G36*
X1130180Y548980D02*
X1126410D01*
Y543460D01*
X1130180D01*
Y548980D01*
D02*
G37*
G36*
X1123870D02*
X1120100D01*
Y543460D01*
X1123870D01*
Y548980D01*
D02*
G37*
%LPD*%
G36*
X641000Y939000D02*
X640835D01*
Y938992D01*
X640925Y938902D01*
X640847Y938823D01*
X589035D01*
Y938939D01*
X589096Y939000D01*
X589000D01*
X601000Y950000D01*
X629000D01*
X641000Y939000D01*
D02*
G37*
G36*
X617522Y911478D02*
X618000Y911000D01*
Y902000D01*
X622000Y898000D01*
X619000Y895000D01*
Y883000D01*
X614000D01*
X610000Y879000D01*
X601000D01*
X598000Y882000D01*
Y911000D01*
X598489Y911489D01*
X601273D01*
X617522Y911478D01*
D02*
G37*
G36*
X1248174Y783174D02*
X1250159Y781848D01*
X1252500Y781383D01*
X1267133D01*
X1267935Y779447D01*
X1269795Y776663D01*
X1272163Y774295D01*
X1274948Y772435D01*
X1276919Y771618D01*
Y768382D01*
X1274948Y767565D01*
X1272163Y765705D01*
X1269795Y763337D01*
X1267935Y760553D01*
X1267133Y758617D01*
X1241010D01*
Y760412D01*
X1229010D01*
Y758617D01*
X1207500D01*
X1205159Y758152D01*
X1203174Y756826D01*
X1197466Y751117D01*
X1177534D01*
X1170914Y757738D01*
X1168929Y759064D01*
X1166588Y759529D01*
X1142692D01*
Y761912D01*
X1123192D01*
Y759529D01*
X1118412D01*
X1116071Y759064D01*
X1114086Y757738D01*
X1096065Y739717D01*
X1057849D01*
X1055508Y739251D01*
X1053523Y737925D01*
X1041924Y726326D01*
X1041618Y725867D01*
X1038617Y726777D01*
Y746216D01*
X1071549Y779148D01*
X1074549Y778201D01*
Y778201D01*
X1094049D01*
Y780958D01*
X1101304D01*
X1102547Y777958D01*
X1099359Y774770D01*
X1094049D01*
Y775201D01*
X1074549D01*
Y758201D01*
X1094049D01*
Y758632D01*
X1102701D01*
X1104789Y758907D01*
X1106735Y759713D01*
X1108406Y760995D01*
X1112754Y765343D01*
X1123192D01*
Y764912D01*
X1142692D01*
Y765343D01*
X1156128D01*
X1158216Y765618D01*
X1160163Y766424D01*
X1161069Y767119D01*
X1161259Y767229D01*
X1161414Y767384D01*
X1161834Y767706D01*
X1162052Y767925D01*
X1162374Y768344D01*
X1162748Y768718D01*
X1163013Y769176D01*
X1163335Y769596D01*
X1163537Y770085D01*
X1163802Y770543D01*
X1163939Y771054D01*
X1164141Y771542D01*
X1164210Y772066D01*
X1164347Y772577D01*
Y773106D01*
X1164416Y773631D01*
X1164347Y774155D01*
Y774684D01*
X1164210Y775195D01*
X1164141Y775719D01*
X1163939Y776208D01*
X1163802Y776718D01*
X1163537Y777177D01*
X1163335Y777665D01*
X1163110Y777958D01*
X1163205Y778570D01*
X1163687Y779784D01*
X1164544Y780916D01*
X1164589Y780958D01*
X1180148D01*
Y779701D01*
X1192148D01*
Y781333D01*
X1217451D01*
X1219792Y781799D01*
X1221777Y783125D01*
X1227534Y788883D01*
X1242466D01*
X1248174Y783174D01*
D02*
G37*
G36*
X1170674Y740674D02*
X1172659Y739348D01*
X1175000Y738883D01*
X1200000D01*
X1202341Y739348D01*
X1204326Y740674D01*
X1210034Y746383D01*
X1229010D01*
Y744912D01*
X1241010D01*
Y746383D01*
X1267133D01*
X1267935Y744447D01*
X1269795Y741663D01*
X1272163Y739295D01*
X1274948Y737435D01*
X1276919Y736618D01*
Y733382D01*
X1274948Y732565D01*
X1272163Y730705D01*
X1269795Y728337D01*
X1267935Y725553D01*
X1267133Y723617D01*
X1260034D01*
X1252485Y731167D01*
X1250500Y732493D01*
X1248159Y732959D01*
X1248079Y732943D01*
X1248000Y732959D01*
X1225000D01*
X1222659Y732493D01*
X1220674Y731167D01*
X1214917Y725409D01*
X1192148D01*
Y727042D01*
X1180148D01*
Y725034D01*
X1101960D01*
X1101028Y727810D01*
X1101071Y728035D01*
X1102925Y729273D01*
X1120192Y746541D01*
X1123192Y745475D01*
Y744912D01*
X1142692D01*
Y747294D01*
X1164054D01*
X1170674Y740674D01*
D02*
G37*
G36*
X1253174Y713174D02*
X1255159Y711848D01*
X1257500Y711382D01*
X1267133D01*
X1267935Y709447D01*
X1269795Y706663D01*
X1272163Y704295D01*
X1274948Y702435D01*
X1276919Y701618D01*
Y698382D01*
X1274948Y697565D01*
X1272163Y695705D01*
X1269795Y693337D01*
X1267935Y690553D01*
X1267356Y689155D01*
X1241010D01*
Y691326D01*
X1229010D01*
Y689531D01*
X1207500D01*
X1205159Y689066D01*
X1203174Y687739D01*
X1197466Y682031D01*
X1177534D01*
X1170914Y688651D01*
X1168929Y689977D01*
X1166588Y690443D01*
X1142692D01*
Y692825D01*
X1123192D01*
Y675826D01*
X1123192D01*
X1124139Y673540D01*
X1120216Y669617D01*
X1073000D01*
X1070659Y669152D01*
X1068674Y667826D01*
X1048674Y647826D01*
X1047348Y645841D01*
X1047051Y644349D01*
X1044051Y644645D01*
Y651316D01*
X1059576Y666841D01*
X1060902Y668825D01*
X1061367Y671166D01*
Y704716D01*
X1069076Y712424D01*
X1074549D01*
Y710042D01*
X1094050D01*
Y712799D01*
X1102385D01*
X1103372Y710730D01*
X1103474Y709799D01*
X1100286Y706611D01*
X1094050D01*
Y707042D01*
X1074549D01*
Y690042D01*
X1094050D01*
Y690473D01*
X1103628D01*
X1105716Y690748D01*
X1107663Y691554D01*
X1109334Y692836D01*
X1112754Y696256D01*
X1123192D01*
Y695826D01*
X1142692D01*
Y696256D01*
X1154789D01*
X1154912Y696206D01*
X1155436Y696137D01*
X1155947Y696000D01*
X1156476D01*
X1157000Y695931D01*
X1157524Y696000D01*
X1158053D01*
X1158564Y696137D01*
X1159088Y696206D01*
X1159577Y696408D01*
X1160088Y696545D01*
X1160546Y696810D01*
X1161034Y697012D01*
X1161454Y697334D01*
X1161912Y697598D01*
X1162286Y697972D01*
X1162706Y698294D01*
X1163028Y698714D01*
X1163402Y699088D01*
X1163666Y699546D01*
X1163988Y699966D01*
X1164190Y700454D01*
X1164455Y700912D01*
X1164592Y701423D01*
X1164794Y701912D01*
X1164863Y702436D01*
X1165000Y702947D01*
Y703476D01*
X1165069Y704000D01*
X1165000Y704524D01*
Y705053D01*
X1164863Y705564D01*
X1164794Y706088D01*
X1164592Y706577D01*
X1164455Y707088D01*
X1164190Y707546D01*
X1163988Y708035D01*
X1163666Y708454D01*
X1163402Y708912D01*
X1163028Y709286D01*
X1162706Y709706D01*
X1162612Y709799D01*
X1162728Y710862D01*
X1163365Y712383D01*
X1163689Y712799D01*
X1180148D01*
Y711542D01*
X1192148D01*
Y713174D01*
X1217451D01*
X1219792Y713640D01*
X1221777Y714966D01*
X1227534Y720724D01*
X1245625D01*
X1253174Y713174D01*
D02*
G37*
G36*
X1170674Y671588D02*
X1172659Y670262D01*
X1175000Y669796D01*
X1200000D01*
X1202341Y670262D01*
X1204326Y671588D01*
X1210034Y677296D01*
X1229010D01*
Y675826D01*
X1241010D01*
Y676920D01*
X1266910D01*
X1267935Y674447D01*
X1269795Y671663D01*
X1272163Y669295D01*
X1274948Y667435D01*
X1276919Y666618D01*
Y663382D01*
X1274948Y662565D01*
X1272163Y660705D01*
X1269795Y658337D01*
X1267935Y655553D01*
X1267133Y653617D01*
X1257077D01*
X1249326Y661369D01*
X1247341Y662695D01*
X1245000Y663161D01*
X1225000D01*
X1222659Y662695D01*
X1220674Y661369D01*
X1214917Y655611D01*
X1192148D01*
Y657244D01*
X1180148D01*
Y655237D01*
X1126171D01*
X1126167Y655248D01*
X1125672Y658236D01*
X1127076Y659174D01*
X1137268Y669366D01*
X1138594Y671351D01*
X1139059Y673692D01*
Y675826D01*
X1142692D01*
Y678208D01*
X1164054D01*
X1170674Y671588D01*
D02*
G37*
G36*
X1250218Y643174D02*
X1252202Y641848D01*
X1254543Y641382D01*
X1267133D01*
X1267935Y639448D01*
X1269795Y636663D01*
X1272163Y634295D01*
X1274948Y632435D01*
X1276919Y631618D01*
Y628382D01*
X1274948Y627565D01*
X1272163Y625705D01*
X1269795Y623337D01*
X1267935Y620552D01*
X1267094Y618522D01*
X1241010D01*
Y620059D01*
X1229010D01*
Y618265D01*
X1207500D01*
X1205159Y617799D01*
X1203174Y616473D01*
X1197466Y610765D01*
X1177534D01*
X1170914Y617385D01*
X1168929Y618711D01*
X1166588Y619176D01*
X1142692D01*
Y621559D01*
X1123192D01*
Y619176D01*
X1115119D01*
X1114588Y620197D01*
X1114257Y621442D01*
X1114185Y622068D01*
X1115450Y623038D01*
X1117401Y624990D01*
X1123192D01*
Y624559D01*
X1142692D01*
Y624990D01*
X1156552D01*
X1157000Y624931D01*
X1157524Y625000D01*
X1158053D01*
X1158564Y625137D01*
X1159088Y625206D01*
X1159577Y625408D01*
X1160088Y625545D01*
X1160546Y625810D01*
X1161034Y626012D01*
X1161454Y626334D01*
X1161912Y626598D01*
X1162286Y626972D01*
X1162706Y627294D01*
X1163028Y627714D01*
X1163402Y628088D01*
X1163666Y628546D01*
X1163988Y628965D01*
X1164190Y629454D01*
X1164455Y629912D01*
X1164592Y630423D01*
X1164794Y630912D01*
X1164863Y631436D01*
X1165000Y631947D01*
Y632476D01*
X1165069Y633000D01*
X1165000Y633524D01*
Y634053D01*
X1164863Y634564D01*
X1164794Y635088D01*
X1164592Y635577D01*
X1164455Y636088D01*
X1164190Y636546D01*
X1163988Y637034D01*
X1163666Y637454D01*
X1163402Y637912D01*
X1163028Y638286D01*
X1162706Y638706D01*
X1162647Y638765D01*
X1162227Y639087D01*
X1161912Y639402D01*
X1161526Y639624D01*
X1161035Y640001D01*
X1161011Y640194D01*
X1161682Y643001D01*
X1180148D01*
Y641744D01*
X1192148D01*
Y643376D01*
X1217451D01*
X1219792Y643842D01*
X1221777Y645168D01*
X1227534Y650926D01*
X1242466D01*
X1250218Y643174D01*
D02*
G37*
G36*
X1170674Y600322D02*
X1172659Y598995D01*
X1175000Y598530D01*
X1200000D01*
X1202341Y598995D01*
X1204325Y600322D01*
X1210034Y606030D01*
X1229010D01*
Y604559D01*
X1241010D01*
Y606287D01*
X1267173D01*
X1267935Y604448D01*
X1269795Y601663D01*
X1272163Y599295D01*
X1274948Y597435D01*
X1276919Y596618D01*
Y593382D01*
X1274948Y592565D01*
X1272163Y590705D01*
X1269795Y588337D01*
X1267935Y585552D01*
X1267082Y583493D01*
X1241010D01*
Y585750D01*
X1229010D01*
Y583493D01*
X1126542D01*
X1124810Y586493D01*
X1124988Y586800D01*
X1125533Y588835D01*
Y590941D01*
X1124988Y592976D01*
X1123935Y594800D01*
X1122445Y596289D01*
X1120621Y597343D01*
X1118586Y597888D01*
X1118185D01*
X1117117Y598955D01*
Y606941D01*
X1123192D01*
Y604559D01*
X1142692D01*
Y606941D01*
X1164054D01*
X1170674Y600322D01*
D02*
G37*
G36*
X1267935Y569448D02*
X1269795Y566663D01*
X1272163Y564295D01*
X1274850Y562500D01*
X1274902Y562258D01*
X1274193Y559500D01*
X1266000D01*
Y548618D01*
X1252500D01*
X1250159Y548152D01*
X1248174Y546826D01*
X1232466Y531118D01*
X1195679D01*
X1194523Y534118D01*
X1196700Y536295D01*
X1199053Y539816D01*
X1200674Y543729D01*
X1201500Y547882D01*
Y552118D01*
X1200674Y556271D01*
X1199053Y560184D01*
X1196700Y563705D01*
X1193705Y566700D01*
X1191375Y568257D01*
X1192285Y571257D01*
X1229010D01*
Y570250D01*
X1241010D01*
Y571257D01*
X1267185D01*
X1267935Y569448D01*
D02*
G37*
%LPC*%
G36*
X1240050Y785452D02*
X1236280D01*
Y779932D01*
X1240050D01*
Y785452D01*
D02*
G37*
G36*
X1233740D02*
X1229970D01*
Y779932D01*
X1233740D01*
Y785452D01*
D02*
G37*
G36*
X1240050Y777392D02*
X1236280D01*
Y771872D01*
X1240050D01*
Y777392D01*
D02*
G37*
G36*
X1233740D02*
X1229970D01*
Y771872D01*
X1233740D01*
Y777392D01*
D02*
G37*
G36*
X1191188Y768241D02*
X1187418D01*
Y762721D01*
X1191188D01*
Y768241D01*
D02*
G37*
G36*
X1184878D02*
X1181108D01*
Y762721D01*
X1184878D01*
Y768241D01*
D02*
G37*
G36*
X1191188Y760181D02*
X1187418D01*
Y754661D01*
X1191188D01*
Y760181D01*
D02*
G37*
G36*
X1184878D02*
X1181108D01*
Y754661D01*
X1184878D01*
Y760181D01*
D02*
G37*
G36*
X1240050Y716366D02*
X1236280D01*
Y710845D01*
X1240050D01*
Y716366D01*
D02*
G37*
G36*
X1233740D02*
X1229970D01*
Y710845D01*
X1233740D01*
Y716366D01*
D02*
G37*
G36*
X1240050Y708306D02*
X1236280D01*
Y702785D01*
X1240050D01*
Y708306D01*
D02*
G37*
G36*
X1233740D02*
X1229970D01*
Y702785D01*
X1233740D01*
Y708306D01*
D02*
G37*
G36*
X1191188Y700082D02*
X1187418D01*
Y694562D01*
X1191188D01*
Y700082D01*
D02*
G37*
G36*
X1184878D02*
X1181108D01*
Y694562D01*
X1184878D01*
Y700082D01*
D02*
G37*
G36*
X1191188Y692022D02*
X1187418D01*
Y686502D01*
X1191188D01*
Y692022D01*
D02*
G37*
G36*
X1184878D02*
X1181108D01*
Y686502D01*
X1184878D01*
Y692022D01*
D02*
G37*
G36*
X1240050Y645099D02*
X1236280D01*
Y639579D01*
X1240050D01*
Y645099D01*
D02*
G37*
G36*
X1233740D02*
X1229970D01*
Y639579D01*
X1233740D01*
Y645099D01*
D02*
G37*
G36*
X1240050Y637039D02*
X1236280D01*
Y631519D01*
X1240050D01*
Y637039D01*
D02*
G37*
G36*
X1233740D02*
X1229970D01*
Y631519D01*
X1233740D01*
Y637039D01*
D02*
G37*
G36*
X1191188Y630284D02*
X1187418D01*
Y624764D01*
X1191188D01*
Y630284D01*
D02*
G37*
G36*
X1184878D02*
X1181108D01*
Y624764D01*
X1184878D01*
Y630284D01*
D02*
G37*
G36*
X1191188Y622224D02*
X1187418D01*
Y616704D01*
X1191188D01*
Y622224D01*
D02*
G37*
G36*
X1184878D02*
X1181108D01*
Y616704D01*
X1184878D01*
Y622224D01*
D02*
G37*
G36*
X1240050Y558790D02*
X1236280D01*
Y553270D01*
X1240050D01*
Y558790D01*
D02*
G37*
G36*
X1233740D02*
X1229970D01*
Y553270D01*
X1233740D01*
Y558790D01*
D02*
G37*
G36*
X1240050Y550730D02*
X1236280D01*
Y545210D01*
X1240050D01*
Y550730D01*
D02*
G37*
G36*
X1233740D02*
X1229970D01*
Y545210D01*
X1233740D01*
Y550730D01*
D02*
G37*
%LPD*%
G36*
X644883Y683466D02*
Y649605D01*
X645348Y647264D01*
X646674Y645280D01*
X654780Y637174D01*
X656764Y635848D01*
X659106Y635382D01*
X662426D01*
X662561Y635288D01*
X663292Y634088D01*
X661606Y631088D01*
X645400D01*
X635999Y640490D01*
X634510Y641485D01*
X632754Y641834D01*
X629618D01*
Y671500D01*
X629152Y673841D01*
X627826Y675826D01*
X616826Y686826D01*
X614841Y688152D01*
X612500Y688617D01*
X592867D01*
X592065Y690553D01*
X590205Y693337D01*
X587837Y695705D01*
X585052Y697565D01*
X583081Y698382D01*
Y701618D01*
X585052Y702435D01*
X587837Y704295D01*
X590205Y706663D01*
X592065Y709447D01*
X592567Y710658D01*
X617690D01*
X644883Y683466D01*
D02*
G37*
G36*
X706756Y622756D02*
X708244Y621761D01*
X710000Y621412D01*
X755100D01*
X778756Y597756D01*
X780244Y596761D01*
X782000Y596412D01*
X909250D01*
X911006Y596761D01*
X912494Y597756D01*
X920390Y605652D01*
X923162Y604504D01*
Y589650D01*
X919100Y585588D01*
X770900D01*
X747244Y609244D01*
X745756Y610239D01*
X744000Y610588D01*
X695620D01*
X676463Y629744D01*
X674975Y630739D01*
X674919Y630750D01*
X675215Y633750D01*
X676750D01*
Y636912D01*
X692600D01*
X706756Y622756D01*
D02*
G37*
G36*
X702765Y576246D02*
X704253Y575252D01*
X706009Y574903D01*
X734250D01*
Y570991D01*
X751412D01*
Y567991D01*
X734250D01*
Y557362D01*
X731250Y556558D01*
X730902Y557162D01*
X729412Y558652D01*
X727588Y559705D01*
X725553Y560250D01*
X723447D01*
X721412Y559705D01*
X719588Y558652D01*
X718098Y557162D01*
X717045Y555338D01*
X716500Y553303D01*
Y551197D01*
X717045Y549162D01*
X718098Y547338D01*
X719588Y545848D01*
X719912Y545661D01*
Y543500D01*
X720261Y541744D01*
X721256Y540256D01*
X725756Y535756D01*
X727244Y534761D01*
X729000Y534412D01*
X734250D01*
Y530500D01*
X753750D01*
Y538842D01*
X756522Y539990D01*
X759756Y536756D01*
X761244Y535761D01*
X763000Y535412D01*
X853096D01*
X854006Y532412D01*
X853756Y532244D01*
X845099Y523588D01*
X753750D01*
Y527500D01*
X734250D01*
Y523588D01*
X629207D01*
Y527112D01*
X617207D01*
Y525117D01*
X613784D01*
X611118Y527784D01*
Y549500D01*
X610652Y551841D01*
X609326Y553826D01*
X592545Y570606D01*
X593347Y572541D01*
X594000Y575826D01*
Y579174D01*
X593347Y582459D01*
X592673Y584085D01*
X595164Y585911D01*
X596467Y585040D01*
X598808Y584575D01*
X617500D01*
Y582942D01*
X629500D01*
Y586104D01*
X692907D01*
X702765Y576246D01*
D02*
G37*
G36*
X777000Y569276D02*
X777493Y568571D01*
X778663Y566261D01*
X778412Y565000D01*
Y557589D01*
X778088Y557402D01*
X776598Y555912D01*
X775545Y554088D01*
X775000Y552053D01*
Y549947D01*
X775545Y547912D01*
X775732Y547588D01*
X774000Y544588D01*
X764901D01*
X760588Y548900D01*
Y557423D01*
X761609Y558355D01*
X763588Y559364D01*
X764947Y559000D01*
X767053D01*
X769088Y559545D01*
X770912Y560598D01*
X772402Y562088D01*
X773455Y563912D01*
X774000Y565947D01*
Y566980D01*
X776470Y569333D01*
X777000Y569276D01*
D02*
G37*
G36*
X821978Y562974D02*
X821966Y562912D01*
X821629Y561217D01*
Y557714D01*
X821088Y557402D01*
X819598Y555912D01*
X818545Y554088D01*
X818000Y552053D01*
Y549947D01*
X818545Y547912D01*
X818732Y547588D01*
X817000Y544588D01*
X792000D01*
X790268Y547588D01*
X790455Y547912D01*
X791000Y549947D01*
Y552053D01*
X790455Y554088D01*
X789402Y555912D01*
X787912Y557402D01*
X787588Y557589D01*
Y563100D01*
X790400Y565912D01*
X820334D01*
X821978Y562974D01*
D02*
G37*
G36*
X868113Y558412D02*
X866954Y556404D01*
X866000Y552843D01*
Y549157D01*
X866954Y545596D01*
X867407Y544812D01*
X867429Y544643D01*
X865813Y541573D01*
X864980Y541508D01*
X863244Y543244D01*
X861756Y544239D01*
X860000Y544588D01*
X835000D01*
X833268Y547588D01*
X833455Y547912D01*
X834000Y549947D01*
Y552053D01*
X833455Y554088D01*
X832402Y555912D01*
X830912Y557402D01*
X831638Y560149D01*
X832900Y561412D01*
X866611D01*
X868113Y558412D01*
D02*
G37*
G36*
X980015Y541754D02*
X971850Y533588D01*
X926997D01*
X925848Y536360D01*
X933901Y544412D01*
X978000D01*
X978538Y544519D01*
X980015Y541754D01*
D02*
G37*
%LPC*%
G36*
X628540Y571482D02*
X624770D01*
Y565962D01*
X628540D01*
Y571482D01*
D02*
G37*
G36*
X622230D02*
X618460D01*
Y565962D01*
X622230D01*
Y571482D01*
D02*
G37*
G36*
X628540Y563422D02*
X624770D01*
Y557902D01*
X628540D01*
Y563422D01*
D02*
G37*
G36*
X622230D02*
X618460D01*
Y557902D01*
X622230D01*
Y563422D01*
D02*
G37*
G36*
X628247Y552151D02*
X624477D01*
Y546632D01*
X628247D01*
Y552151D01*
D02*
G37*
G36*
X621937D02*
X618167D01*
Y546632D01*
X621937D01*
Y552151D01*
D02*
G37*
G36*
X628247Y544091D02*
X624477D01*
Y538572D01*
X628247D01*
Y544091D01*
D02*
G37*
G36*
X621937D02*
X618167D01*
Y538572D01*
X621937D01*
Y544091D01*
D02*
G37*
G36*
X682118Y571500D02*
X677882D01*
X673729Y570674D01*
X669816Y569053D01*
X666295Y566700D01*
X663300Y563705D01*
X660947Y560184D01*
X659326Y556271D01*
X658500Y552118D01*
Y547882D01*
X659326Y543729D01*
X660947Y539816D01*
X663300Y536295D01*
X666295Y533300D01*
X669816Y530947D01*
X673729Y529326D01*
X677882Y528500D01*
X682118D01*
X686271Y529326D01*
X690184Y530947D01*
X693705Y533300D01*
X696700Y536295D01*
X699053Y539816D01*
X700674Y543729D01*
X701500Y547882D01*
Y552118D01*
X700674Y556271D01*
X699053Y560184D01*
X696700Y563705D01*
X693705Y566700D01*
X690184Y569053D01*
X686271Y570674D01*
X682118Y571500D01*
D02*
G37*
%LPD*%
D18*
X924000Y575000D02*
X934000Y585000D01*
X773556Y575000D02*
X924000D01*
X934000Y585000D02*
Y638000D01*
X928500Y570500D02*
X941000Y583000D01*
Y627000D01*
X952000Y638000D01*
X934000Y638000D02*
X947783Y651783D01*
X812000Y730000D02*
X840000D01*
X805000Y723000D02*
X812000Y730000D01*
X790000Y723000D02*
X805000D01*
X759000Y753000D02*
X762000Y750000D01*
Y720000D02*
X765500Y716500D01*
X772000Y729500D02*
X790000D01*
X762000Y720000D02*
Y750000D01*
X746000Y729500D02*
Y735000D01*
X739000Y742000D02*
X746000Y735000D01*
X739000Y742000D02*
Y753000D01*
X765500Y716500D02*
X790000D01*
X717170Y750830D02*
X731000Y737000D01*
Y727000D02*
Y737000D01*
X717170Y750830D02*
Y768637D01*
X731000Y727000D02*
X735000Y723000D01*
X746000D01*
X732136Y716500D02*
X746000D01*
X720177Y719000D02*
X729636D01*
X732136Y716500D01*
X718420Y720757D02*
X720177Y719000D01*
X803000Y710000D02*
X803000Y710000D01*
X790000Y710000D02*
X803000D01*
X718420Y720757D02*
Y729000D01*
X719420Y708000D02*
X732000D01*
X718420Y709000D02*
X719420Y708000D01*
X732000D02*
X734000Y710000D01*
X746000D01*
X874667Y630000D02*
X874917Y630250D01*
X849828Y635000D02*
X850085D01*
X855085Y630000D01*
X874667D01*
X932000Y549000D02*
X978000D01*
X918000Y535000D02*
X932000Y549000D01*
X865000Y535000D02*
X918000D01*
X752993Y579395D02*
X756000Y576387D01*
Y547000D02*
Y576387D01*
X744000Y579491D02*
X744096Y579395D01*
X752993D01*
X766000Y567444D02*
X773556Y575000D01*
X706009Y579491D02*
X745250D01*
X756000Y547000D02*
X763000Y540000D01*
X766000Y567000D02*
Y567444D01*
X724500Y543500D02*
X729000Y539000D01*
X744000D01*
X724500Y543500D02*
Y552250D01*
X826217Y551217D02*
Y561217D01*
X831000Y566000D01*
X931000D01*
X783000Y565000D02*
X788500Y570500D01*
X928500D01*
X783000Y551000D02*
Y565000D01*
X927750Y643849D02*
X953751Y669850D01*
X927750Y587750D02*
Y643849D01*
X836821Y621179D02*
X883179D01*
X892250Y630250D02*
X901250D01*
X883179Y621179D02*
X892250Y630250D01*
X694500Y641500D02*
X710000Y626000D01*
X757000D02*
X782000Y601000D01*
X710000Y626000D02*
X757000D01*
X693719Y606000D02*
X744000D01*
X769000Y581000D01*
X782000Y601000D02*
X909250D01*
X670750Y641500D02*
X694500D01*
X643500Y626500D02*
X673219D01*
X693719Y606000D01*
X769000Y581000D02*
X921000D01*
X623500Y590692D02*
X694808D01*
X706009Y579491D01*
X921000Y581000D02*
X927750Y587750D01*
X909250Y601000D02*
X922000Y613750D01*
X833717Y624282D02*
X836821Y621179D01*
X833717Y624282D02*
Y634282D01*
X847000Y519000D02*
X857000Y529000D01*
X973750D02*
X990250Y545500D01*
X857000Y529000D02*
X973750D01*
X947000Y582000D02*
Y610000D01*
X931000Y566000D02*
X947000Y582000D01*
X978000Y549000D02*
X984250Y555250D01*
Y670500D02*
X1001000Y687250D01*
X922000Y653000D02*
X954000Y685000D01*
X922000Y613750D02*
Y653000D01*
X948888Y651783D02*
X951106Y654000D01*
X947783Y651783D02*
X948888D01*
X951106Y654000D02*
X953000D01*
X947000Y610000D02*
X955000Y618000D01*
X833000Y635000D02*
X833717Y634282D01*
X818684Y639434D02*
X822500Y643250D01*
X798133Y639434D02*
X818684D01*
X822500Y643250D02*
Y653000D01*
X984250Y555250D02*
Y670500D01*
X826000Y551000D02*
X826217Y551217D01*
X763000Y540000D02*
X860000D01*
X865000Y535000D01*
X744000Y519000D02*
X847000D01*
X623207D02*
X744000D01*
X990250Y654750D02*
X1003500Y668000D01*
X744000Y559491D02*
X744000Y559491D01*
X744000Y539000D02*
Y559491D01*
X632754Y637246D02*
X643500Y626500D01*
X623500Y637246D02*
X632754D01*
X990250Y545500D02*
Y654750D01*
D41*
X739000Y753000D02*
D03*
X759000D02*
D03*
X612000Y862000D02*
D03*
X632000D02*
D03*
X842500Y653000D02*
D03*
X822500D02*
D03*
X717000Y776000D02*
D03*
X737000D02*
D03*
X1148000Y842376D02*
D03*
X1128000D02*
D03*
X1128000Y865000D02*
D03*
X1148000D02*
D03*
D42*
X901250Y650250D02*
D03*
Y630250D02*
D03*
X874917Y650250D02*
D03*
Y630250D02*
D03*
X1084299Y786701D02*
D03*
Y766701D02*
D03*
X1132942Y753412D02*
D03*
Y773412D02*
D03*
X1084299Y718542D02*
D03*
Y698542D02*
D03*
X1132942Y684325D02*
D03*
Y704325D02*
D03*
X1132942Y613059D02*
D03*
Y633059D02*
D03*
X763250Y689547D02*
D03*
Y669547D02*
D03*
X733500Y689547D02*
D03*
Y669547D02*
D03*
X840000Y730000D02*
D03*
Y710000D02*
D03*
X718420Y729000D02*
D03*
Y709000D02*
D03*
X1008500Y609750D02*
D03*
Y589750D02*
D03*
X744000Y519000D02*
D03*
Y539000D02*
D03*
X744000Y579491D02*
D03*
Y559491D02*
D03*
X1104000Y916750D02*
D03*
Y936750D02*
D03*
X1084299Y648744D02*
D03*
Y628744D02*
D03*
X1084299Y577250D02*
D03*
Y557250D02*
D03*
X1050000Y525000D02*
D03*
Y545000D02*
D03*
D50*
X671000Y778692D02*
X671053Y778744D01*
X671000Y762000D02*
Y778692D01*
X713000Y892000D02*
X752000D01*
X653000Y889000D02*
X662000Y880000D01*
X701000D01*
X713000Y892000D01*
X729678Y831847D02*
X730366Y832534D01*
X740658D01*
X611000Y889000D02*
X653000D01*
X577000Y892500D02*
Y927500D01*
X752000Y892000D02*
X772500Y912500D01*
D51*
X671053Y708947D02*
Y762053D01*
X763250Y669547D02*
X798133D01*
X1073000Y557250D02*
X1104750D01*
X1114059Y633059D02*
X1156941D01*
X1109411Y704325D02*
X1156674D01*
X1109412Y773412D02*
X1156128D01*
X852092Y817000D02*
X873500Y795592D01*
X811000Y817000D02*
X852092D01*
X865500Y716500D02*
X865592D01*
X859000Y710000D02*
X865500Y716500D01*
X865592D02*
X873500Y724408D01*
Y795592D01*
X671053Y708947D02*
X710453Y669547D01*
X733500D02*
X763250D01*
X710453D02*
X733500D01*
X794750Y833250D02*
Y911500D01*
Y833250D02*
X811000Y817000D01*
X794750Y911500D02*
X806250Y923000D01*
X820250D01*
X840000Y710000D02*
X859000D01*
X1156128Y773412D02*
X1156347Y773631D01*
X1156674Y704325D02*
X1157000Y704000D01*
X1104750Y557250D02*
X1105000Y557000D01*
X1156941Y633059D02*
X1157000Y633000D01*
X859828Y669815D02*
X859971Y669672D01*
X798133Y669434D02*
X859447D01*
X1050000Y545000D02*
X1060750D01*
X1073000Y557250D01*
X1084299Y698542D02*
X1103628D01*
X1109411Y704325D01*
X1109744Y628744D02*
X1114059Y633059D01*
X1085549Y628744D02*
X1109744D01*
X1084299Y766701D02*
X1102701D01*
X1109412Y773412D01*
D52*
X1207500Y752500D02*
X1283000D01*
X1032500Y689500D02*
Y748750D01*
X1070451Y786701D01*
X697500Y717500D02*
X706000Y709000D01*
X697500Y717500D02*
Y822500D01*
X708250Y833250D01*
X724500D01*
Y832083D02*
X724736Y831847D01*
X724500Y832083D02*
Y833250D01*
X724736Y831847D02*
X729678D01*
X706000Y709000D02*
X718420D01*
X803000Y710000D02*
X839000D01*
X649000Y949000D02*
X659000Y959000D01*
X729000D01*
X649000Y913000D02*
Y949000D01*
X644500Y908500D02*
X649000Y913000D01*
X1148500Y842877D02*
X1175500D01*
X1148500Y865500D02*
X1175500D01*
X1176000Y866000D01*
X1175500Y842877D02*
X1176000Y843376D01*
X1132000Y890000D02*
Y905750D01*
X1121000Y916750D02*
X1132000Y905750D01*
X1104000Y916750D02*
X1121000D01*
X1114515Y613059D02*
X1132942D01*
X1111000Y609544D02*
X1114515Y613059D01*
X1111000Y596421D02*
X1117533Y589888D01*
X1111000Y596421D02*
Y609544D01*
X1132942Y613059D02*
X1166588D01*
X729000Y959000D02*
X736015Y951985D01*
Y932985D02*
Y951985D01*
X633000Y908500D02*
X644500D01*
X632034Y862034D02*
X649112D01*
X632000Y862000D02*
X632034Y862034D01*
X649112D02*
X649146Y862068D01*
X736015Y932985D02*
X737000Y932000D01*
X1008478Y583225D02*
Y589729D01*
X1008500Y589750D01*
X1008457Y583204D02*
X1008478Y583225D01*
X1011000Y941000D02*
X1035250Y916750D01*
X894515Y936000D02*
X899515Y941000D01*
X894000Y936000D02*
X894515D01*
X899515Y941000D02*
X1011000D01*
X651000Y649605D02*
X659106Y641500D01*
X651000Y649605D02*
Y686000D01*
X620224Y716776D02*
X651000Y686000D01*
X577724Y716776D02*
X620224D01*
X659106Y641500D02*
X670750D01*
X1046250Y686292D02*
Y722000D01*
X1034708Y674750D02*
X1046250Y686292D01*
X1033750Y674750D02*
X1034708D01*
X1037934Y637534D02*
Y653850D01*
X1037250Y636850D02*
X1037934Y637534D01*
Y653850D02*
X1055250Y671166D01*
X1050832Y577250D02*
X1084299D01*
X1041500Y569000D02*
X1042582D01*
X1050832Y577250D01*
X1035250Y916750D02*
X1104000D01*
X611250Y519000D02*
X623207D01*
X577000Y682500D02*
X612500D01*
X623500Y637246D02*
Y671500D01*
X612500Y682500D02*
X623500Y671500D01*
X1050000Y525000D02*
X1235000D01*
X1022750D02*
X1050000D01*
X1046250Y722000D02*
X1057849Y733599D01*
X1070451Y786701D02*
X1084299D01*
X1057849Y733599D02*
X1098599D01*
X1084299Y786701D02*
X1084674Y787076D01*
X1066542Y718542D02*
X1084299D01*
X1055250Y707250D02*
X1066542Y718542D01*
X1055250Y671166D02*
Y707250D01*
X1084299Y718542D02*
X1084675Y718917D01*
X1073000Y663500D02*
X1122750D01*
X1053000Y643500D02*
X1073000Y663500D01*
X1053000Y625500D02*
Y643500D01*
X1063000Y640500D02*
X1071244Y648744D01*
X1063000Y607250D02*
Y640500D01*
X1071244Y648744D02*
X1084299D01*
X1084674Y649119D01*
X1039000Y611500D02*
X1053000Y625500D01*
X1132942Y673692D02*
Y684325D01*
X1122750Y663500D02*
X1132942Y673692D01*
Y684325D02*
X1166588D01*
X1049250Y593500D02*
X1063000Y607250D01*
X1039500Y593500D02*
X1049250D01*
X1084425Y577375D02*
X1235010D01*
X1282875D01*
X1084299Y577250D02*
X1084425Y577375D01*
X605000Y525250D02*
Y549500D01*
Y525250D02*
X611250Y519000D01*
X577000Y577500D02*
X605000Y549500D01*
X577000Y612500D02*
X598808Y590692D01*
X623500D01*
X577000Y717500D02*
X577724Y716776D01*
X1084674Y649119D02*
X1185773D01*
X1186148Y649494D01*
X1175000Y604647D02*
X1200000D01*
X1166588Y613059D02*
X1175000Y604647D01*
X1132942Y753412D02*
X1166588D01*
X1118412D02*
X1132942D01*
X1084674Y787076D02*
X1185773D01*
X1098599Y733599D02*
X1118412Y753412D01*
X1022500Y525250D02*
X1022750Y525000D01*
X779398Y689899D02*
X779750Y690250D01*
X763602Y689899D02*
X779398D01*
X763250Y689547D02*
X763602Y689899D01*
X733500Y689547D02*
X763250D01*
X829000Y879000D02*
Y901000D01*
X1185773Y787076D02*
X1186148Y787451D01*
X1217451D01*
X1200000Y745000D02*
X1207500Y752500D01*
X1175000Y745000D02*
X1200000D01*
X1166588Y753412D02*
X1175000Y745000D01*
X1207500Y612147D02*
X1235010D01*
X1200000Y604647D02*
X1207500Y612147D01*
X1207500Y683414D02*
X1235010D01*
X1200000Y675914D02*
X1207500Y683414D01*
X1175000Y675914D02*
X1200000D01*
X1166588Y684325D02*
X1175000Y675914D01*
X1225000Y657043D02*
X1245000D01*
X1186148Y649494D02*
X1217451D01*
X1225000Y657043D01*
X1225000Y726841D02*
X1248000D01*
X1186148Y719292D02*
X1217451D01*
X1225000Y726841D01*
X1185773Y718917D02*
X1186148Y719292D01*
X1084675Y718917D02*
X1185773D01*
X1235000Y525000D02*
X1252500Y542500D01*
X1283000D01*
X1282875Y577375D02*
X1283000Y577500D01*
X1235510Y683038D02*
X1282462D01*
X1283000Y682500D01*
X1245000Y795000D02*
X1252500Y787500D01*
X1283000D01*
X1257500Y717500D02*
X1283000D01*
X1248159Y726841D02*
X1257500Y717500D01*
X1254543Y647500D02*
X1283000D01*
X1245000Y657043D02*
X1254543Y647500D01*
X1282905Y612405D02*
X1283000Y612500D01*
X1235106Y612405D02*
X1282905D01*
X1225000Y795000D02*
X1245000D01*
X1217451Y787451D02*
X1225000Y795000D01*
D53*
X859971Y669672D02*
X872328D01*
D56*
X1065000Y887500D02*
D03*
X880000Y551000D02*
D03*
D57*
X1065000Y937500D02*
D03*
D58*
X772500Y937500D02*
D03*
D59*
Y912500D02*
D03*
D60*
X905400Y551000D02*
D03*
D61*
X1283000Y927500D02*
D03*
Y892500D02*
D03*
Y857500D02*
D03*
Y822500D02*
D03*
Y787500D02*
D03*
Y752500D02*
D03*
Y577500D02*
D03*
Y612500D02*
D03*
Y647500D02*
D03*
Y717500D02*
D03*
Y682500D02*
D03*
X577000Y542500D02*
D03*
Y577500D02*
D03*
Y612500D02*
D03*
Y647500D02*
D03*
Y682500D02*
D03*
Y717500D02*
D03*
Y892500D02*
D03*
Y857500D02*
D03*
Y822500D02*
D03*
Y752500D02*
D03*
Y787500D02*
D03*
D62*
X1283000Y542500D02*
D03*
X577000Y927500D02*
D03*
D63*
X685050Y749957D02*
D03*
X671000Y762000D02*
D03*
X671053Y778744D02*
D03*
X1150000Y930000D02*
D03*
X610000Y635000D02*
D03*
Y655000D02*
D03*
X1072500Y960000D02*
D03*
X1042500D02*
D03*
X1012500D02*
D03*
X837500Y650000D02*
D03*
X850000Y960000D02*
D03*
X820000D02*
D03*
X790000D02*
D03*
X1022500Y645000D02*
D03*
X1025000Y540000D02*
D03*
Y560000D02*
D03*
X1020000Y510000D02*
D03*
X1277500D02*
D03*
X1252500Y560000D02*
D03*
X1260000Y595000D02*
D03*
Y630000D02*
D03*
Y665000D02*
D03*
Y700000D02*
D03*
Y735000D02*
D03*
Y770000D02*
D03*
X1247500Y955000D02*
D03*
X1280000D02*
D03*
X1142500Y732500D02*
D03*
X1202500D02*
D03*
X1172500D02*
D03*
X1202500Y590000D02*
D03*
X1172500D02*
D03*
X1172500Y662500D02*
D03*
X1202500D02*
D03*
X1142500D02*
D03*
X1200000Y900000D02*
D03*
X1260000D02*
D03*
X1230000D02*
D03*
X1150000D02*
D03*
X1200000Y870000D02*
D03*
X1230000D02*
D03*
X1260000D02*
D03*
Y810000D02*
D03*
X1230000D02*
D03*
X1200000D02*
D03*
X1260000Y840000D02*
D03*
X1230000D02*
D03*
X1200000D02*
D03*
X960000Y730000D02*
D03*
X990000Y760000D02*
D03*
X1020000Y790000D02*
D03*
X1050000Y850000D02*
D03*
X1080000D02*
D03*
X1110000D02*
D03*
X1050000Y820000D02*
D03*
X1080000D02*
D03*
X1110000D02*
D03*
X892500Y790000D02*
D03*
Y730000D02*
D03*
Y760000D02*
D03*
X860000Y790000D02*
D03*
Y760000D02*
D03*
Y730000D02*
D03*
X890000Y700000D02*
D03*
X870000Y690000D02*
D03*
X840000D02*
D03*
X810000D02*
D03*
X950000Y820000D02*
D03*
X920000D02*
D03*
X890000Y850000D02*
D03*
Y820000D02*
D03*
X740000Y800000D02*
D03*
X710000D02*
D03*
X780000Y880000D02*
D03*
X680000Y860000D02*
D03*
X710000D02*
D03*
X740000D02*
D03*
X770000D02*
D03*
X610000Y780000D02*
D03*
X640000D02*
D03*
X610000Y750000D02*
D03*
X640000D02*
D03*
Y810000D02*
D03*
X610000D02*
D03*
X640000Y840000D02*
D03*
X610000D02*
D03*
X1310000Y735000D02*
D03*
X1310027Y770000D02*
D03*
Y700000D02*
D03*
X1310054Y665000D02*
D03*
X1310081Y630000D02*
D03*
X1310107Y595000D02*
D03*
X1310134Y560000D02*
D03*
X1310161Y525000D02*
D03*
X1309893Y945000D02*
D03*
X1309919Y910000D02*
D03*
X1309946Y875000D02*
D03*
X1309973Y840000D02*
D03*
X1310000Y805000D02*
D03*
X549973Y805000D02*
D03*
X549946Y840000D02*
D03*
X549920Y875000D02*
D03*
X549893Y910000D02*
D03*
X549866Y945000D02*
D03*
X550134Y525000D02*
D03*
X550107Y560000D02*
D03*
X550080Y595000D02*
D03*
X550054Y630000D02*
D03*
X550027Y665000D02*
D03*
X550000Y700000D02*
D03*
Y770000D02*
D03*
X549973Y735000D02*
D03*
X685000Y720000D02*
D03*
Y735000D02*
D03*
X790000Y745000D02*
D03*
Y760000D02*
D03*
Y775000D02*
D03*
X775000D02*
D03*
X760000D02*
D03*
X772000Y729500D02*
D03*
X872000Y591000D02*
D03*
X817000Y891000D02*
D03*
X649000Y949000D02*
D03*
X1176000Y843376D02*
D03*
X1176000Y866000D02*
D03*
X1132000Y890000D02*
D03*
X1156347Y773631D02*
D03*
X766000Y567000D02*
D03*
Y553000D02*
D03*
X597000Y923000D02*
D03*
Y934000D02*
D03*
X604000Y944000D02*
D03*
X615000D02*
D03*
X626000D02*
D03*
X649146Y862068D02*
D03*
X1157000Y704000D02*
D03*
X1105000Y557000D02*
D03*
X1157000Y633000D02*
D03*
X1008457Y583204D02*
D03*
X1008474Y616298D02*
D03*
X932500Y925000D02*
D03*
X972500D02*
D03*
X992500D02*
D03*
X952500D02*
D03*
X894000Y936000D02*
D03*
X707000Y645000D02*
D03*
X678000Y653000D02*
D03*
X631000Y723000D02*
D03*
X615000Y729000D02*
D03*
X653000Y701000D02*
D03*
X663000Y673000D02*
D03*
X604000Y578000D02*
D03*
X663000Y689000D02*
D03*
X642000Y712000D02*
D03*
X712000Y568000D02*
D03*
X728000Y616000D02*
D03*
X775434Y593457D02*
D03*
X689000Y630000D02*
D03*
X705000Y616000D02*
D03*
X757000Y610000D02*
D03*
X733000Y596000D02*
D03*
X773000Y625000D02*
D03*
X709000Y594000D02*
D03*
X679000Y601000D02*
D03*
X765000Y529000D02*
D03*
X888000Y650500D02*
D03*
X845000Y591000D02*
D03*
X897000D02*
D03*
X819000Y611000D02*
D03*
X847000D02*
D03*
X849828Y635000D02*
D03*
X789000Y611000D02*
D03*
X962000Y539000D02*
D03*
X940000D02*
D03*
Y559000D02*
D03*
X968000Y698000D02*
D03*
X944000D02*
D03*
X933000Y681000D02*
D03*
X917000Y664000D02*
D03*
X1001000Y687250D02*
D03*
X953751Y669850D02*
D03*
X954000Y685000D02*
D03*
X953000Y654000D02*
D03*
X955000Y618000D02*
D03*
X952000Y638000D02*
D03*
X833000Y635000D02*
D03*
X962000Y559000D02*
D03*
X826000Y551000D02*
D03*
X783000D02*
D03*
X851000Y550000D02*
D03*
X805000D02*
D03*
Y529000D02*
D03*
X842000D02*
D03*
X790000Y509000D02*
D03*
X917500Y593750D02*
D03*
X901000Y613000D02*
D03*
X1003500Y668000D02*
D03*
X724500Y552250D02*
D03*
X720000Y530000D02*
D03*
X872328Y669672D02*
D03*
X720000Y636000D02*
D03*
X647250Y637000D02*
D03*
X637000Y658000D02*
D03*
X741000Y636000D02*
D03*
X1033750Y674750D02*
D03*
X1037250Y636850D02*
D03*
X1041500Y569000D02*
D03*
X957000Y579000D02*
D03*
X1005000Y730000D02*
D03*
X1005255Y714585D02*
D03*
X952500Y905000D02*
D03*
X992500Y845000D02*
D03*
X972500Y865000D02*
D03*
X952500Y845000D02*
D03*
X972500Y905000D02*
D03*
X932500Y865000D02*
D03*
Y885000D02*
D03*
X952500Y865000D02*
D03*
X932500Y905000D02*
D03*
X992500Y885000D02*
D03*
X972500D02*
D03*
X932500Y845000D02*
D03*
X972500D02*
D03*
X992500Y905000D02*
D03*
Y865000D02*
D03*
X952500Y885000D02*
D03*
X1066250Y749250D02*
D03*
X1215000Y510000D02*
D03*
X1145000D02*
D03*
X1082500D02*
D03*
X1097750Y614750D02*
D03*
X1146000Y550250D02*
D03*
X1214250Y551500D02*
D03*
X1211750Y630500D02*
D03*
X1211500Y701750D02*
D03*
X1211250Y770500D02*
D03*
X820250Y923000D02*
D03*
X741242Y833118D02*
D03*
X668000Y580000D02*
D03*
X691000Y577000D02*
D03*
X699000Y530000D02*
D03*
X657000D02*
D03*
X640000D02*
D03*
X863000Y519000D02*
D03*
X845000Y509000D02*
D03*
X1005000Y560000D02*
D03*
Y540000D02*
D03*
X992500Y525000D02*
D03*
X805000Y591000D02*
D03*
X634000Y682000D02*
D03*
X599000Y699000D02*
D03*
X618000D02*
D03*
X597500Y667500D02*
D03*
X602000Y509000D02*
D03*
X818000D02*
D03*
X690000D02*
D03*
X764000D02*
D03*
X717000D02*
D03*
X665000D02*
D03*
X640000D02*
D03*
X645000Y580000D02*
D03*
Y601000D02*
D03*
X646000Y616000D02*
D03*
X693000Y653000D02*
D03*
X663000Y658000D02*
D03*
X599000Y729000D02*
D03*
X859828Y669815D02*
D03*
X1032500Y689500D02*
D03*
X1039000Y611500D02*
D03*
X1039500Y593500D02*
D03*
X1117533Y589888D02*
D03*
X1022500Y525250D02*
D03*
X779750Y690250D02*
D03*
X829000Y879000D02*
D03*
Y901000D02*
D03*
X1104000Y936750D02*
D03*
D64*
X1235010Y752662D02*
D03*
Y778662D02*
D03*
X670750Y641500D02*
D03*
Y615500D02*
D03*
X623207Y545362D02*
D03*
Y519361D02*
D03*
X623500Y564692D02*
D03*
Y590692D02*
D03*
X1186148Y761451D02*
D03*
Y787451D02*
D03*
X1186148Y693292D02*
D03*
Y719292D02*
D03*
X623500Y611246D02*
D03*
Y637246D02*
D03*
X1235010Y709576D02*
D03*
Y683576D02*
D03*
X1235010Y638309D02*
D03*
Y612309D02*
D03*
X1186148Y623494D02*
D03*
Y649494D02*
D03*
X1125140Y550250D02*
D03*
Y524250D02*
D03*
X1235010Y552000D02*
D03*
Y578000D02*
D03*
D65*
X790000Y710000D02*
D03*
Y716500D02*
D03*
Y723000D02*
D03*
Y729500D02*
D03*
X746000Y710000D02*
D03*
Y716500D02*
D03*
Y723000D02*
D03*
Y729500D02*
D03*
D66*
X633000Y927500D02*
D03*
Y918000D02*
D03*
Y908500D02*
D03*
X611000D02*
D03*
Y918000D02*
D03*
Y927500D02*
D03*
D67*
X737000Y892000D02*
D03*
Y932000D02*
D03*
D68*
X724500Y833250D02*
D03*
X764500D02*
D03*
D69*
X798133Y669434D02*
D03*
Y639434D02*
D03*
D70*
X888500Y890000D02*
D03*
X822500D02*
D03*
D71*
X603000Y927000D02*
D03*
M02*
