G04*
G04 #@! TF.GenerationSoftware,Altium Limited,Altium Designer,21.7.2 (23)*
G04*
G04 Layer_Color=16711935*
%FSLAX44Y44*%
%MOMM*%
G71*
G04*
G04 #@! TF.SameCoordinates,E4638E92-537D-4F49-80B5-2F4EAB31F582*
G04*
G04*
G04 #@! TF.FilePolarity,Negative*
G04*
G01*
G75*
%ADD22R,1.2032X1.4532*%
%ADD23R,1.4532X1.2032*%
%ADD31C,2.0032*%
%ADD32P,2.1683X8X292.5*%
%ADD33C,1.6032*%
%ADD34P,1.7353X8X112.5*%
%ADD35P,2.1683X8X202.5*%
%ADD36C,2.6032*%
%ADD37R,2.6032X2.6032*%
%ADD38C,0.2032*%
%ADD39C,1.2032*%
%ADD72R,0.7032X1.0532*%
%ADD73R,1.6532X0.6532*%
%ADD74R,1.3032X0.8032*%
%ADD75R,2.7032X1.9032*%
%ADD76R,1.9032X2.7032*%
%ADD77R,1.8032X1.2032*%
%ADD78R,2.6032X3.5032*%
D22*
X739000Y753000D02*
D03*
X759000D02*
D03*
X612000Y862000D02*
D03*
X632000D02*
D03*
X842500Y653000D02*
D03*
X822500D02*
D03*
X717000Y776000D02*
D03*
X737000D02*
D03*
X1148000Y842376D02*
D03*
X1128000D02*
D03*
X1128000Y865000D02*
D03*
X1148000D02*
D03*
D23*
X901250Y650250D02*
D03*
Y630250D02*
D03*
X874917Y650250D02*
D03*
Y630250D02*
D03*
X1084299Y786701D02*
D03*
Y766701D02*
D03*
X1132942Y753412D02*
D03*
Y773412D02*
D03*
X1084299Y718542D02*
D03*
Y698542D02*
D03*
X1132942Y684325D02*
D03*
Y704325D02*
D03*
X1132942Y613059D02*
D03*
Y633059D02*
D03*
X763250Y689547D02*
D03*
Y669547D02*
D03*
X733500Y689547D02*
D03*
Y669547D02*
D03*
X840000Y730000D02*
D03*
Y710000D02*
D03*
X718420Y729000D02*
D03*
Y709000D02*
D03*
X1008500Y609750D02*
D03*
Y589750D02*
D03*
X744000Y519000D02*
D03*
Y539000D02*
D03*
X744000Y579491D02*
D03*
Y559491D02*
D03*
X1104000Y916750D02*
D03*
Y936750D02*
D03*
X1084299Y648744D02*
D03*
Y628744D02*
D03*
X1084299Y577250D02*
D03*
Y557250D02*
D03*
X1050000Y525000D02*
D03*
Y545000D02*
D03*
D31*
X1065000Y887500D02*
D03*
X880000Y551000D02*
D03*
D32*
X1065000Y937500D02*
D03*
D33*
X772500Y937500D02*
D03*
D34*
Y912500D02*
D03*
D35*
X905400Y551000D02*
D03*
D36*
X1283000Y927500D02*
D03*
Y892500D02*
D03*
Y857500D02*
D03*
Y822500D02*
D03*
Y787500D02*
D03*
Y752500D02*
D03*
Y577500D02*
D03*
Y612500D02*
D03*
Y647500D02*
D03*
Y717500D02*
D03*
Y682500D02*
D03*
X577000Y542500D02*
D03*
Y577500D02*
D03*
Y612500D02*
D03*
Y647500D02*
D03*
Y682500D02*
D03*
Y717500D02*
D03*
Y892500D02*
D03*
Y857500D02*
D03*
Y822500D02*
D03*
Y752500D02*
D03*
Y787500D02*
D03*
D37*
X1283000Y542500D02*
D03*
X577000Y927500D02*
D03*
D38*
X680000Y550000D02*
D03*
X1180000Y920000D02*
D03*
Y550000D02*
D03*
X680000Y920000D02*
D03*
D39*
X817000Y891000D02*
D03*
X1008457Y583204D02*
D03*
X1008474Y616298D02*
D03*
X829000Y879000D02*
D03*
Y901000D02*
D03*
X1104000Y936750D02*
D03*
D72*
X1235010Y752662D02*
D03*
Y778662D02*
D03*
X670750Y641500D02*
D03*
Y615500D02*
D03*
X623207Y545362D02*
D03*
Y519361D02*
D03*
X623500Y564692D02*
D03*
Y590692D02*
D03*
X1186148Y761451D02*
D03*
Y787451D02*
D03*
X1186148Y693292D02*
D03*
Y719292D02*
D03*
X623500Y611246D02*
D03*
Y637246D02*
D03*
X1235010Y709576D02*
D03*
Y683576D02*
D03*
X1235010Y638309D02*
D03*
Y612309D02*
D03*
X1186148Y623494D02*
D03*
Y649494D02*
D03*
X1125140Y550250D02*
D03*
Y524250D02*
D03*
X1235010Y552000D02*
D03*
Y578000D02*
D03*
D73*
X790000Y710000D02*
D03*
Y716500D02*
D03*
Y723000D02*
D03*
Y729500D02*
D03*
X746000Y710000D02*
D03*
Y716500D02*
D03*
Y723000D02*
D03*
Y729500D02*
D03*
D74*
X633000Y927500D02*
D03*
Y918000D02*
D03*
Y908500D02*
D03*
X611000D02*
D03*
Y918000D02*
D03*
Y927500D02*
D03*
D75*
X737000Y892000D02*
D03*
Y932000D02*
D03*
D76*
X724500Y833250D02*
D03*
X764500D02*
D03*
D77*
X798133Y669434D02*
D03*
Y639434D02*
D03*
D78*
X888500Y890000D02*
D03*
X822500D02*
D03*
M02*
